%TF.GenerationSoftware,KiCad,Pcbnew,6.0.2+dfsg-1*%
%TF.CreationDate,2023-03-24T00:01:14+09:00*%
%TF.ProjectId,pcb-panel,7063622d-7061-46e6-956c-2e6b69636164,rev?*%
%TF.SameCoordinates,Original*%
%TF.FileFunction,Legend,Top*%
%TF.FilePolarity,Positive*%
%FSLAX46Y46*%
G04 Gerber Fmt 4.6, Leading zero omitted, Abs format (unit mm)*
G04 Created by KiCad (PCBNEW 6.0.2+dfsg-1) date 2023-03-24 00:01:14*
%MOMM*%
%LPD*%
G01*
G04 APERTURE LIST*
%ADD10C,0.150000*%
%ADD11C,0.375000*%
%ADD12O,2.500000X2.000000*%
G04 APERTURE END LIST*
D10*
X112395000Y-149733000D02*
X108585000Y-145923000D01*
X112395000Y-40386000D02*
X112395000Y-149606000D01*
X112395000Y-149733000D02*
X116205000Y-145923000D01*
X57150000Y-95250000D02*
X170434000Y-95250000D01*
X170434000Y-95250000D02*
X166624000Y-91440000D01*
X170434000Y-95250000D02*
X166624000Y-99060000D01*
D11*
X170625047Y-94027761D02*
X171291714Y-96027761D01*
X171958380Y-94027761D01*
X172625047Y-95265857D02*
X174148857Y-95265857D01*
X176244095Y-95837285D02*
X176148857Y-95932523D01*
X175863142Y-96027761D01*
X175672666Y-96027761D01*
X175386952Y-95932523D01*
X175196476Y-95742047D01*
X175101238Y-95551571D01*
X175006000Y-95170619D01*
X175006000Y-94884904D01*
X175101238Y-94503952D01*
X175196476Y-94313476D01*
X175386952Y-94123000D01*
X175672666Y-94027761D01*
X175863142Y-94027761D01*
X176148857Y-94123000D01*
X176244095Y-94218238D01*
X177958380Y-94694428D02*
X177958380Y-96027761D01*
X177101238Y-94694428D02*
X177101238Y-95742047D01*
X177196476Y-95932523D01*
X177386952Y-96027761D01*
X177672666Y-96027761D01*
X177863142Y-95932523D01*
X177958380Y-95837285D01*
X178625047Y-94694428D02*
X179386952Y-94694428D01*
X178910761Y-94027761D02*
X178910761Y-95742047D01*
X179006000Y-95932523D01*
X179196476Y-96027761D01*
X179386952Y-96027761D01*
X108014047Y-151050761D02*
X108680714Y-153050761D01*
X109347380Y-151050761D01*
X110014047Y-152288857D02*
X111537857Y-152288857D01*
X113633095Y-152860285D02*
X113537857Y-152955523D01*
X113252142Y-153050761D01*
X113061666Y-153050761D01*
X112775952Y-152955523D01*
X112585476Y-152765047D01*
X112490238Y-152574571D01*
X112395000Y-152193619D01*
X112395000Y-151907904D01*
X112490238Y-151526952D01*
X112585476Y-151336476D01*
X112775952Y-151146000D01*
X113061666Y-151050761D01*
X113252142Y-151050761D01*
X113537857Y-151146000D01*
X113633095Y-151241238D01*
X115347380Y-151717428D02*
X115347380Y-153050761D01*
X114490238Y-151717428D02*
X114490238Y-152765047D01*
X114585476Y-152955523D01*
X114775952Y-153050761D01*
X115061666Y-153050761D01*
X115252142Y-152955523D01*
X115347380Y-152860285D01*
X116014047Y-151717428D02*
X116775952Y-151717428D01*
X116299761Y-151050761D02*
X116299761Y-152765047D01*
X116395000Y-152955523D01*
X116585476Y-153050761D01*
X116775952Y-153050761D01*
D10*
X70470000Y-59405000D02*
X70470000Y-58405000D01*
X70470000Y-58405000D02*
X71470000Y-58405000D01*
X71470000Y-72405000D02*
X70470000Y-72405000D01*
X70470000Y-71405000D02*
X70470000Y-72405000D01*
X84470000Y-72405000D02*
X84470000Y-71405000D01*
X83470000Y-72405000D02*
X84470000Y-72405000D01*
X84470000Y-58405000D02*
X83470000Y-58405000D01*
X84470000Y-59405000D02*
X84470000Y-58405000D01*
X89520000Y-58405000D02*
X90520000Y-58405000D01*
X103520000Y-58405000D02*
X102520000Y-58405000D01*
X102520000Y-72405000D02*
X103520000Y-72405000D01*
X89520000Y-59405000D02*
X89520000Y-58405000D01*
X89520000Y-71405000D02*
X89520000Y-72405000D01*
X103520000Y-59405000D02*
X103520000Y-58405000D01*
X90520000Y-72405000D02*
X89520000Y-72405000D01*
X103520000Y-72405000D02*
X103520000Y-71405000D01*
X70470000Y-78455000D02*
X70470000Y-77455000D01*
X83470000Y-91455000D02*
X84470000Y-91455000D01*
X84470000Y-91455000D02*
X84470000Y-90455000D01*
X70470000Y-77455000D02*
X71470000Y-77455000D01*
X84470000Y-77455000D02*
X83470000Y-77455000D01*
X70470000Y-90455000D02*
X70470000Y-91455000D01*
X84470000Y-78455000D02*
X84470000Y-77455000D01*
X71470000Y-91455000D02*
X70470000Y-91455000D01*
X102520000Y-91455000D02*
X103520000Y-91455000D01*
X89520000Y-77455000D02*
X90520000Y-77455000D01*
X89520000Y-78455000D02*
X89520000Y-77455000D01*
X103520000Y-91455000D02*
X103520000Y-90455000D01*
X89520000Y-90455000D02*
X89520000Y-91455000D01*
X90520000Y-91455000D02*
X89520000Y-91455000D01*
X103520000Y-77455000D02*
X102520000Y-77455000D01*
X103520000Y-78455000D02*
X103520000Y-77455000D01*
X139431000Y-123540000D02*
X139431000Y-122540000D01*
X152431000Y-136540000D02*
X153431000Y-136540000D01*
X153431000Y-123540000D02*
X153431000Y-122540000D01*
X153431000Y-136540000D02*
X153431000Y-135540000D01*
X140431000Y-136540000D02*
X139431000Y-136540000D01*
X139431000Y-135540000D02*
X139431000Y-136540000D01*
X153431000Y-122540000D02*
X152431000Y-122540000D01*
X139431000Y-122540000D02*
X140431000Y-122540000D01*
X90520000Y-117490000D02*
X89520000Y-117490000D01*
X103520000Y-104490000D02*
X103520000Y-103490000D01*
X89520000Y-103490000D02*
X90520000Y-103490000D01*
X103520000Y-103490000D02*
X102520000Y-103490000D01*
X102520000Y-117490000D02*
X103520000Y-117490000D01*
X89520000Y-104490000D02*
X89520000Y-103490000D01*
X103520000Y-117490000D02*
X103520000Y-116490000D01*
X89520000Y-116490000D02*
X89520000Y-117490000D01*
X134381000Y-104490000D02*
X134381000Y-103490000D01*
X134381000Y-117490000D02*
X134381000Y-116490000D01*
X120381000Y-116490000D02*
X120381000Y-117490000D01*
X133381000Y-117490000D02*
X134381000Y-117490000D01*
X120381000Y-104490000D02*
X120381000Y-103490000D01*
X121381000Y-117490000D02*
X120381000Y-117490000D01*
X134381000Y-103490000D02*
X133381000Y-103490000D01*
X120381000Y-103490000D02*
X121381000Y-103490000D01*
X120381000Y-71405000D02*
X120381000Y-72405000D01*
X121381000Y-72405000D02*
X120381000Y-72405000D01*
X134381000Y-59405000D02*
X134381000Y-58405000D01*
X133381000Y-72405000D02*
X134381000Y-72405000D01*
X134381000Y-72405000D02*
X134381000Y-71405000D01*
X120381000Y-58405000D02*
X121381000Y-58405000D01*
X134381000Y-58405000D02*
X133381000Y-58405000D01*
X120381000Y-59405000D02*
X120381000Y-58405000D01*
X139431000Y-77455000D02*
X140431000Y-77455000D01*
X139431000Y-90455000D02*
X139431000Y-91455000D01*
X139431000Y-78455000D02*
X139431000Y-77455000D01*
X153431000Y-78455000D02*
X153431000Y-77455000D01*
X153431000Y-91455000D02*
X153431000Y-90455000D01*
X152431000Y-91455000D02*
X153431000Y-91455000D01*
X153431000Y-77455000D02*
X152431000Y-77455000D01*
X140431000Y-91455000D02*
X139431000Y-91455000D01*
X153431000Y-59405000D02*
X153431000Y-58405000D01*
X139431000Y-71405000D02*
X139431000Y-72405000D01*
X139431000Y-58405000D02*
X140431000Y-58405000D01*
X139431000Y-59405000D02*
X139431000Y-58405000D01*
X140431000Y-72405000D02*
X139431000Y-72405000D01*
X153431000Y-58405000D02*
X152431000Y-58405000D01*
X152431000Y-72405000D02*
X153431000Y-72405000D01*
X153431000Y-72405000D02*
X153431000Y-71405000D01*
X134381000Y-136540000D02*
X134381000Y-135540000D01*
X121381000Y-136540000D02*
X120381000Y-136540000D01*
X120381000Y-135540000D02*
X120381000Y-136540000D01*
X120381000Y-122540000D02*
X121381000Y-122540000D01*
X120381000Y-123540000D02*
X120381000Y-122540000D01*
X133381000Y-136540000D02*
X134381000Y-136540000D01*
X134381000Y-122540000D02*
X133381000Y-122540000D01*
X134381000Y-123540000D02*
X134381000Y-122540000D01*
X134381000Y-78455000D02*
X134381000Y-77455000D01*
X121381000Y-91455000D02*
X120381000Y-91455000D01*
X134381000Y-77455000D02*
X133381000Y-77455000D01*
X134381000Y-91455000D02*
X134381000Y-90455000D01*
X133381000Y-91455000D02*
X134381000Y-91455000D01*
X120381000Y-90455000D02*
X120381000Y-91455000D01*
X120381000Y-78455000D02*
X120381000Y-77455000D01*
X120381000Y-77455000D02*
X121381000Y-77455000D01*
X103520000Y-136540000D02*
X103520000Y-135540000D01*
X103520000Y-122540000D02*
X102520000Y-122540000D01*
X90520000Y-136540000D02*
X89520000Y-136540000D01*
X89520000Y-135540000D02*
X89520000Y-136540000D01*
X102520000Y-136540000D02*
X103520000Y-136540000D01*
X103520000Y-123540000D02*
X103520000Y-122540000D01*
X89520000Y-122540000D02*
X90520000Y-122540000D01*
X89520000Y-123540000D02*
X89520000Y-122540000D01*
X152431000Y-117490000D02*
X153431000Y-117490000D01*
X139431000Y-103490000D02*
X140431000Y-103490000D01*
X139431000Y-116490000D02*
X139431000Y-117490000D01*
X153431000Y-104490000D02*
X153431000Y-103490000D01*
X153431000Y-103490000D02*
X152431000Y-103490000D01*
X139431000Y-104490000D02*
X139431000Y-103490000D01*
X140431000Y-117490000D02*
X139431000Y-117490000D01*
X153431000Y-117490000D02*
X153431000Y-116490000D01*
X70470000Y-123540000D02*
X70470000Y-122540000D01*
X71470000Y-136540000D02*
X70470000Y-136540000D01*
X83470000Y-136540000D02*
X84470000Y-136540000D01*
X84470000Y-123540000D02*
X84470000Y-122540000D01*
X70470000Y-135540000D02*
X70470000Y-136540000D01*
X84470000Y-136540000D02*
X84470000Y-135540000D01*
X84470000Y-122540000D02*
X83470000Y-122540000D01*
X70470000Y-122540000D02*
X71470000Y-122540000D01*
X83470000Y-117490000D02*
X84470000Y-117490000D01*
X70470000Y-104490000D02*
X70470000Y-103490000D01*
X84470000Y-103490000D02*
X83470000Y-103490000D01*
X84470000Y-117490000D02*
X84470000Y-116490000D01*
X70470000Y-103490000D02*
X71470000Y-103490000D01*
X71470000Y-117490000D02*
X70470000Y-117490000D01*
X84470000Y-104490000D02*
X84470000Y-103490000D01*
X70470000Y-116490000D02*
X70470000Y-117490000D01*
D12*
X73660000Y-62865000D03*
X80010000Y-60325000D03*
X92710000Y-62865000D03*
X99060000Y-60325000D03*
X73660000Y-81915000D03*
X80010000Y-79375000D03*
X92710000Y-81915000D03*
X99060000Y-79375000D03*
X142621000Y-127000000D03*
X148971000Y-124460000D03*
X92710000Y-107950000D03*
X99060000Y-105410000D03*
X123571000Y-107950000D03*
X129921000Y-105410000D03*
X123571000Y-62865000D03*
X129921000Y-60325000D03*
X142621000Y-81915000D03*
X148971000Y-79375000D03*
X142621000Y-62865000D03*
X148971000Y-60325000D03*
X123571000Y-127000000D03*
X129921000Y-124460000D03*
X123571000Y-81915000D03*
X129921000Y-79375000D03*
X92710000Y-127000000D03*
X99060000Y-124460000D03*
X142621000Y-107950000D03*
X148971000Y-105410000D03*
X73660000Y-127000000D03*
X80010000Y-124460000D03*
X73660000Y-107950000D03*
X80010000Y-105410000D03*
M02*
