%TF.GenerationSoftware,KiCad,Pcbnew,6.0.2+dfsg-1*%
%TF.CreationDate,2023-03-24T00:01:14+09:00*%
%TF.ProjectId,pcb-panel,7063622d-7061-46e6-956c-2e6b69636164,rev?*%
%TF.SameCoordinates,Original*%
%TF.FileFunction,Soldermask,Bot*%
%TF.FilePolarity,Negative*%
%FSLAX46Y46*%
G04 Gerber Fmt 4.6, Leading zero omitted, Abs format (unit mm)*
G04 Created by KiCad (PCBNEW 6.0.2+dfsg-1) date 2023-03-24 00:01:14*
%MOMM*%
%LPD*%
G01*
G04 APERTURE LIST*
G04 Aperture macros list*
%AMRoundRect*
0 Rectangle with rounded corners*
0 $1 Rounding radius*
0 $2 $3 $4 $5 $6 $7 $8 $9 X,Y pos of 4 corners*
0 Add a 4 corners polygon primitive as box body*
4,1,4,$2,$3,$4,$5,$6,$7,$8,$9,$2,$3,0*
0 Add four circle primitives for the rounded corners*
1,1,$1+$1,$2,$3*
1,1,$1+$1,$4,$5*
1,1,$1+$1,$6,$7*
1,1,$1+$1,$8,$9*
0 Add four rect primitives between the rounded corners*
20,1,$1+$1,$2,$3,$4,$5,0*
20,1,$1+$1,$4,$5,$6,$7,0*
20,1,$1+$1,$6,$7,$8,$9,0*
20,1,$1+$1,$8,$9,$2,$3,0*%
%AMFreePoly0*
4,1,61,0.099453,0.895229,0.273268,0.858283,0.283407,0.854989,0.445743,0.782713,0.454977,0.777382,0.598738,0.672933,0.606661,0.665799,0.725564,0.533743,0.731831,0.525117,0.820681,0.371226,0.825018,0.361486,0.879929,0.192485,0.882146,0.182056,0.900721,0.005331,0.900721,-0.005331,0.882146,-0.182056,0.879929,-0.192485,0.825018,-0.361486,0.820681,-0.371226,0.731831,-0.525117,
0.725564,-0.533743,0.606661,-0.665799,0.598738,-0.672933,0.454977,-0.777382,0.445743,-0.782713,0.283407,-0.854989,0.273268,-0.858283,0.099453,-0.895229,0.088849,-0.896344,-0.088849,-0.896344,-0.099453,-0.895229,-0.273268,-0.858283,-0.283407,-0.854989,-0.445743,-0.782713,-0.454977,-0.777382,-0.598738,-0.672933,-0.606661,-0.665799,-0.725564,-0.533743,-0.731831,-0.525117,-0.820681,-0.371226,
-0.825018,-0.361486,-0.879929,-0.192485,-0.882146,-0.182056,-0.900721,-0.005331,-0.900721,0.005331,-0.882146,0.182056,-0.879929,0.192485,-0.825018,0.361486,-0.820681,0.371226,-0.731831,0.525117,-0.725564,0.533743,-0.606661,0.665799,-0.598738,0.672933,-0.454977,0.777382,-0.445743,0.782713,-0.283407,0.854989,-0.273268,0.858283,-0.099453,0.895229,-0.088849,0.896344,0.088849,0.896344,
0.099453,0.895229,0.099453,0.895229,$1*%
G04 Aperture macros list end*
%ADD10C,0.300000*%
%ADD11C,0.802000*%
%ADD12C,4.502000*%
%ADD13C,4.102000*%
%ADD14C,2.002000*%
%ADD15O,2.602000X2.102000*%
%ADD16RoundRect,0.051000X-0.750000X-0.500000X0.750000X-0.500000X0.750000X0.500000X-0.750000X0.500000X0*%
%ADD17RoundRect,0.051000X0.900000X0.410000X-0.900000X0.410000X-0.900000X-0.410000X0.900000X-0.410000X0*%
%ADD18C,2.202000*%
%ADD19C,1.852000*%
%ADD20FreePoly0,180.000000*%
%ADD21C,1.802000*%
G04 APERTURE END LIST*
D10*
X84549285Y-53510571D02*
X85049285Y-52796285D01*
X85406428Y-53510571D02*
X85406428Y-52010571D01*
X84835000Y-52010571D01*
X84692142Y-52082000D01*
X84620714Y-52153428D01*
X84549285Y-52296285D01*
X84549285Y-52510571D01*
X84620714Y-52653428D01*
X84692142Y-52724857D01*
X84835000Y-52796285D01*
X85406428Y-52796285D01*
X83263571Y-52510571D02*
X83263571Y-53510571D01*
X83906428Y-52510571D02*
X83906428Y-53296285D01*
X83835000Y-53439142D01*
X83692142Y-53510571D01*
X83477857Y-53510571D01*
X83335000Y-53439142D01*
X83263571Y-53367714D01*
X82549285Y-53510571D02*
X82549285Y-52010571D01*
X82549285Y-52582000D02*
X82406428Y-52510571D01*
X82120714Y-52510571D01*
X81977857Y-52582000D01*
X81906428Y-52653428D01*
X81835000Y-52796285D01*
X81835000Y-53224857D01*
X81906428Y-53367714D01*
X81977857Y-53439142D01*
X82120714Y-53510571D01*
X82406428Y-53510571D01*
X82549285Y-53439142D01*
X81335000Y-52510571D02*
X80977857Y-53510571D01*
X80620714Y-52510571D02*
X80977857Y-53510571D01*
X81120714Y-53867714D01*
X81192142Y-53939142D01*
X81335000Y-54010571D01*
X80049285Y-53510571D02*
X80049285Y-52010571D01*
X79192142Y-53510571D02*
X79835000Y-52653428D01*
X79192142Y-52010571D02*
X80049285Y-52867714D01*
X77906428Y-53510571D02*
X77906428Y-52724857D01*
X77977857Y-52582000D01*
X78120714Y-52510571D01*
X78406428Y-52510571D01*
X78549285Y-52582000D01*
X77906428Y-53439142D02*
X78049285Y-53510571D01*
X78406428Y-53510571D01*
X78549285Y-53439142D01*
X78620714Y-53296285D01*
X78620714Y-53153428D01*
X78549285Y-53010571D01*
X78406428Y-52939142D01*
X78049285Y-52939142D01*
X77906428Y-52867714D01*
X77192142Y-53510571D02*
X77192142Y-52510571D01*
X77192142Y-52010571D02*
X77263571Y-52082000D01*
X77192142Y-52153428D01*
X77120714Y-52082000D01*
X77192142Y-52010571D01*
X77192142Y-52153428D01*
X75835000Y-52510571D02*
X75835000Y-53724857D01*
X75906428Y-53867714D01*
X75977857Y-53939142D01*
X76120714Y-54010571D01*
X76335000Y-54010571D01*
X76477857Y-53939142D01*
X75835000Y-53439142D02*
X75977857Y-53510571D01*
X76263571Y-53510571D01*
X76406428Y-53439142D01*
X76477857Y-53367714D01*
X76549285Y-53224857D01*
X76549285Y-52796285D01*
X76477857Y-52653428D01*
X76406428Y-52582000D01*
X76263571Y-52510571D01*
X75977857Y-52510571D01*
X75835000Y-52582000D01*
X75120714Y-53510571D02*
X75120714Y-52510571D01*
X75120714Y-52010571D02*
X75192142Y-52082000D01*
X75120714Y-52153428D01*
X75049285Y-52082000D01*
X75120714Y-52010571D01*
X75120714Y-52153428D01*
X73335000Y-52153428D02*
X73263571Y-52082000D01*
X73120714Y-52010571D01*
X72763571Y-52010571D01*
X72620714Y-52082000D01*
X72549285Y-52153428D01*
X72477857Y-52296285D01*
X72477857Y-52439142D01*
X72549285Y-52653428D01*
X73406428Y-53510571D01*
X72477857Y-53510571D01*
X71549285Y-52010571D02*
X71406428Y-52010571D01*
X71263571Y-52082000D01*
X71192142Y-52153428D01*
X71120714Y-52296285D01*
X71049285Y-52582000D01*
X71049285Y-52939142D01*
X71120714Y-53224857D01*
X71192142Y-53367714D01*
X71263571Y-53439142D01*
X71406428Y-53510571D01*
X71549285Y-53510571D01*
X71692142Y-53439142D01*
X71763571Y-53367714D01*
X71835000Y-53224857D01*
X71906428Y-52939142D01*
X71906428Y-52582000D01*
X71835000Y-52296285D01*
X71763571Y-52153428D01*
X71692142Y-52082000D01*
X71549285Y-52010571D01*
X70477857Y-52153428D02*
X70406428Y-52082000D01*
X70263571Y-52010571D01*
X69906428Y-52010571D01*
X69763571Y-52082000D01*
X69692142Y-52153428D01*
X69620714Y-52296285D01*
X69620714Y-52439142D01*
X69692142Y-52653428D01*
X70549285Y-53510571D01*
X69620714Y-53510571D01*
X69120714Y-52010571D02*
X68192142Y-52010571D01*
X68692142Y-52582000D01*
X68477857Y-52582000D01*
X68335000Y-52653428D01*
X68263571Y-52724857D01*
X68192142Y-52867714D01*
X68192142Y-53224857D01*
X68263571Y-53367714D01*
X68335000Y-53439142D01*
X68477857Y-53510571D01*
X68906428Y-53510571D01*
X69049285Y-53439142D01*
X69120714Y-53367714D01*
X134460285Y-98595571D02*
X134960285Y-97881285D01*
X135317428Y-98595571D02*
X135317428Y-97095571D01*
X134746000Y-97095571D01*
X134603142Y-97167000D01*
X134531714Y-97238428D01*
X134460285Y-97381285D01*
X134460285Y-97595571D01*
X134531714Y-97738428D01*
X134603142Y-97809857D01*
X134746000Y-97881285D01*
X135317428Y-97881285D01*
X133174571Y-97595571D02*
X133174571Y-98595571D01*
X133817428Y-97595571D02*
X133817428Y-98381285D01*
X133746000Y-98524142D01*
X133603142Y-98595571D01*
X133388857Y-98595571D01*
X133246000Y-98524142D01*
X133174571Y-98452714D01*
X132460285Y-98595571D02*
X132460285Y-97095571D01*
X132460285Y-97667000D02*
X132317428Y-97595571D01*
X132031714Y-97595571D01*
X131888857Y-97667000D01*
X131817428Y-97738428D01*
X131746000Y-97881285D01*
X131746000Y-98309857D01*
X131817428Y-98452714D01*
X131888857Y-98524142D01*
X132031714Y-98595571D01*
X132317428Y-98595571D01*
X132460285Y-98524142D01*
X131246000Y-97595571D02*
X130888857Y-98595571D01*
X130531714Y-97595571D02*
X130888857Y-98595571D01*
X131031714Y-98952714D01*
X131103142Y-99024142D01*
X131246000Y-99095571D01*
X129960285Y-98595571D02*
X129960285Y-97095571D01*
X129103142Y-98595571D02*
X129746000Y-97738428D01*
X129103142Y-97095571D02*
X129960285Y-97952714D01*
X127817428Y-98595571D02*
X127817428Y-97809857D01*
X127888857Y-97667000D01*
X128031714Y-97595571D01*
X128317428Y-97595571D01*
X128460285Y-97667000D01*
X127817428Y-98524142D02*
X127960285Y-98595571D01*
X128317428Y-98595571D01*
X128460285Y-98524142D01*
X128531714Y-98381285D01*
X128531714Y-98238428D01*
X128460285Y-98095571D01*
X128317428Y-98024142D01*
X127960285Y-98024142D01*
X127817428Y-97952714D01*
X127103142Y-98595571D02*
X127103142Y-97595571D01*
X127103142Y-97095571D02*
X127174571Y-97167000D01*
X127103142Y-97238428D01*
X127031714Y-97167000D01*
X127103142Y-97095571D01*
X127103142Y-97238428D01*
X125746000Y-97595571D02*
X125746000Y-98809857D01*
X125817428Y-98952714D01*
X125888857Y-99024142D01*
X126031714Y-99095571D01*
X126246000Y-99095571D01*
X126388857Y-99024142D01*
X125746000Y-98524142D02*
X125888857Y-98595571D01*
X126174571Y-98595571D01*
X126317428Y-98524142D01*
X126388857Y-98452714D01*
X126460285Y-98309857D01*
X126460285Y-97881285D01*
X126388857Y-97738428D01*
X126317428Y-97667000D01*
X126174571Y-97595571D01*
X125888857Y-97595571D01*
X125746000Y-97667000D01*
X125031714Y-98595571D02*
X125031714Y-97595571D01*
X125031714Y-97095571D02*
X125103142Y-97167000D01*
X125031714Y-97238428D01*
X124960285Y-97167000D01*
X125031714Y-97095571D01*
X125031714Y-97238428D01*
X123246000Y-97238428D02*
X123174571Y-97167000D01*
X123031714Y-97095571D01*
X122674571Y-97095571D01*
X122531714Y-97167000D01*
X122460285Y-97238428D01*
X122388857Y-97381285D01*
X122388857Y-97524142D01*
X122460285Y-97738428D01*
X123317428Y-98595571D01*
X122388857Y-98595571D01*
X121460285Y-97095571D02*
X121317428Y-97095571D01*
X121174571Y-97167000D01*
X121103142Y-97238428D01*
X121031714Y-97381285D01*
X120960285Y-97667000D01*
X120960285Y-98024142D01*
X121031714Y-98309857D01*
X121103142Y-98452714D01*
X121174571Y-98524142D01*
X121317428Y-98595571D01*
X121460285Y-98595571D01*
X121603142Y-98524142D01*
X121674571Y-98452714D01*
X121746000Y-98309857D01*
X121817428Y-98024142D01*
X121817428Y-97667000D01*
X121746000Y-97381285D01*
X121674571Y-97238428D01*
X121603142Y-97167000D01*
X121460285Y-97095571D01*
X120388857Y-97238428D02*
X120317428Y-97167000D01*
X120174571Y-97095571D01*
X119817428Y-97095571D01*
X119674571Y-97167000D01*
X119603142Y-97238428D01*
X119531714Y-97381285D01*
X119531714Y-97524142D01*
X119603142Y-97738428D01*
X120460285Y-98595571D01*
X119531714Y-98595571D01*
X119031714Y-97095571D02*
X118103142Y-97095571D01*
X118603142Y-97667000D01*
X118388857Y-97667000D01*
X118246000Y-97738428D01*
X118174571Y-97809857D01*
X118103142Y-97952714D01*
X118103142Y-98309857D01*
X118174571Y-98452714D01*
X118246000Y-98524142D01*
X118388857Y-98595571D01*
X118817428Y-98595571D01*
X118960285Y-98524142D01*
X119031714Y-98452714D01*
X84549285Y-98595571D02*
X85049285Y-97881285D01*
X85406428Y-98595571D02*
X85406428Y-97095571D01*
X84835000Y-97095571D01*
X84692142Y-97167000D01*
X84620714Y-97238428D01*
X84549285Y-97381285D01*
X84549285Y-97595571D01*
X84620714Y-97738428D01*
X84692142Y-97809857D01*
X84835000Y-97881285D01*
X85406428Y-97881285D01*
X83263571Y-97595571D02*
X83263571Y-98595571D01*
X83906428Y-97595571D02*
X83906428Y-98381285D01*
X83835000Y-98524142D01*
X83692142Y-98595571D01*
X83477857Y-98595571D01*
X83335000Y-98524142D01*
X83263571Y-98452714D01*
X82549285Y-98595571D02*
X82549285Y-97095571D01*
X82549285Y-97667000D02*
X82406428Y-97595571D01*
X82120714Y-97595571D01*
X81977857Y-97667000D01*
X81906428Y-97738428D01*
X81835000Y-97881285D01*
X81835000Y-98309857D01*
X81906428Y-98452714D01*
X81977857Y-98524142D01*
X82120714Y-98595571D01*
X82406428Y-98595571D01*
X82549285Y-98524142D01*
X81335000Y-97595571D02*
X80977857Y-98595571D01*
X80620714Y-97595571D02*
X80977857Y-98595571D01*
X81120714Y-98952714D01*
X81192142Y-99024142D01*
X81335000Y-99095571D01*
X80049285Y-98595571D02*
X80049285Y-97095571D01*
X79192142Y-98595571D02*
X79835000Y-97738428D01*
X79192142Y-97095571D02*
X80049285Y-97952714D01*
X77906428Y-98595571D02*
X77906428Y-97809857D01*
X77977857Y-97667000D01*
X78120714Y-97595571D01*
X78406428Y-97595571D01*
X78549285Y-97667000D01*
X77906428Y-98524142D02*
X78049285Y-98595571D01*
X78406428Y-98595571D01*
X78549285Y-98524142D01*
X78620714Y-98381285D01*
X78620714Y-98238428D01*
X78549285Y-98095571D01*
X78406428Y-98024142D01*
X78049285Y-98024142D01*
X77906428Y-97952714D01*
X77192142Y-98595571D02*
X77192142Y-97595571D01*
X77192142Y-97095571D02*
X77263571Y-97167000D01*
X77192142Y-97238428D01*
X77120714Y-97167000D01*
X77192142Y-97095571D01*
X77192142Y-97238428D01*
X75835000Y-97595571D02*
X75835000Y-98809857D01*
X75906428Y-98952714D01*
X75977857Y-99024142D01*
X76120714Y-99095571D01*
X76335000Y-99095571D01*
X76477857Y-99024142D01*
X75835000Y-98524142D02*
X75977857Y-98595571D01*
X76263571Y-98595571D01*
X76406428Y-98524142D01*
X76477857Y-98452714D01*
X76549285Y-98309857D01*
X76549285Y-97881285D01*
X76477857Y-97738428D01*
X76406428Y-97667000D01*
X76263571Y-97595571D01*
X75977857Y-97595571D01*
X75835000Y-97667000D01*
X75120714Y-98595571D02*
X75120714Y-97595571D01*
X75120714Y-97095571D02*
X75192142Y-97167000D01*
X75120714Y-97238428D01*
X75049285Y-97167000D01*
X75120714Y-97095571D01*
X75120714Y-97238428D01*
X73335000Y-97238428D02*
X73263571Y-97167000D01*
X73120714Y-97095571D01*
X72763571Y-97095571D01*
X72620714Y-97167000D01*
X72549285Y-97238428D01*
X72477857Y-97381285D01*
X72477857Y-97524142D01*
X72549285Y-97738428D01*
X73406428Y-98595571D01*
X72477857Y-98595571D01*
X71549285Y-97095571D02*
X71406428Y-97095571D01*
X71263571Y-97167000D01*
X71192142Y-97238428D01*
X71120714Y-97381285D01*
X71049285Y-97667000D01*
X71049285Y-98024142D01*
X71120714Y-98309857D01*
X71192142Y-98452714D01*
X71263571Y-98524142D01*
X71406428Y-98595571D01*
X71549285Y-98595571D01*
X71692142Y-98524142D01*
X71763571Y-98452714D01*
X71835000Y-98309857D01*
X71906428Y-98024142D01*
X71906428Y-97667000D01*
X71835000Y-97381285D01*
X71763571Y-97238428D01*
X71692142Y-97167000D01*
X71549285Y-97095571D01*
X70477857Y-97238428D02*
X70406428Y-97167000D01*
X70263571Y-97095571D01*
X69906428Y-97095571D01*
X69763571Y-97167000D01*
X69692142Y-97238428D01*
X69620714Y-97381285D01*
X69620714Y-97524142D01*
X69692142Y-97738428D01*
X70549285Y-98595571D01*
X69620714Y-98595571D01*
X69120714Y-97095571D02*
X68192142Y-97095571D01*
X68692142Y-97667000D01*
X68477857Y-97667000D01*
X68335000Y-97738428D01*
X68263571Y-97809857D01*
X68192142Y-97952714D01*
X68192142Y-98309857D01*
X68263571Y-98452714D01*
X68335000Y-98524142D01*
X68477857Y-98595571D01*
X68906428Y-98595571D01*
X69049285Y-98524142D01*
X69120714Y-98452714D01*
X134460285Y-53510571D02*
X134960285Y-52796285D01*
X135317428Y-53510571D02*
X135317428Y-52010571D01*
X134746000Y-52010571D01*
X134603142Y-52082000D01*
X134531714Y-52153428D01*
X134460285Y-52296285D01*
X134460285Y-52510571D01*
X134531714Y-52653428D01*
X134603142Y-52724857D01*
X134746000Y-52796285D01*
X135317428Y-52796285D01*
X133174571Y-52510571D02*
X133174571Y-53510571D01*
X133817428Y-52510571D02*
X133817428Y-53296285D01*
X133746000Y-53439142D01*
X133603142Y-53510571D01*
X133388857Y-53510571D01*
X133246000Y-53439142D01*
X133174571Y-53367714D01*
X132460285Y-53510571D02*
X132460285Y-52010571D01*
X132460285Y-52582000D02*
X132317428Y-52510571D01*
X132031714Y-52510571D01*
X131888857Y-52582000D01*
X131817428Y-52653428D01*
X131746000Y-52796285D01*
X131746000Y-53224857D01*
X131817428Y-53367714D01*
X131888857Y-53439142D01*
X132031714Y-53510571D01*
X132317428Y-53510571D01*
X132460285Y-53439142D01*
X131246000Y-52510571D02*
X130888857Y-53510571D01*
X130531714Y-52510571D02*
X130888857Y-53510571D01*
X131031714Y-53867714D01*
X131103142Y-53939142D01*
X131246000Y-54010571D01*
X129960285Y-53510571D02*
X129960285Y-52010571D01*
X129103142Y-53510571D02*
X129746000Y-52653428D01*
X129103142Y-52010571D02*
X129960285Y-52867714D01*
X127817428Y-53510571D02*
X127817428Y-52724857D01*
X127888857Y-52582000D01*
X128031714Y-52510571D01*
X128317428Y-52510571D01*
X128460285Y-52582000D01*
X127817428Y-53439142D02*
X127960285Y-53510571D01*
X128317428Y-53510571D01*
X128460285Y-53439142D01*
X128531714Y-53296285D01*
X128531714Y-53153428D01*
X128460285Y-53010571D01*
X128317428Y-52939142D01*
X127960285Y-52939142D01*
X127817428Y-52867714D01*
X127103142Y-53510571D02*
X127103142Y-52510571D01*
X127103142Y-52010571D02*
X127174571Y-52082000D01*
X127103142Y-52153428D01*
X127031714Y-52082000D01*
X127103142Y-52010571D01*
X127103142Y-52153428D01*
X125746000Y-52510571D02*
X125746000Y-53724857D01*
X125817428Y-53867714D01*
X125888857Y-53939142D01*
X126031714Y-54010571D01*
X126246000Y-54010571D01*
X126388857Y-53939142D01*
X125746000Y-53439142D02*
X125888857Y-53510571D01*
X126174571Y-53510571D01*
X126317428Y-53439142D01*
X126388857Y-53367714D01*
X126460285Y-53224857D01*
X126460285Y-52796285D01*
X126388857Y-52653428D01*
X126317428Y-52582000D01*
X126174571Y-52510571D01*
X125888857Y-52510571D01*
X125746000Y-52582000D01*
X125031714Y-53510571D02*
X125031714Y-52510571D01*
X125031714Y-52010571D02*
X125103142Y-52082000D01*
X125031714Y-52153428D01*
X124960285Y-52082000D01*
X125031714Y-52010571D01*
X125031714Y-52153428D01*
X123246000Y-52153428D02*
X123174571Y-52082000D01*
X123031714Y-52010571D01*
X122674571Y-52010571D01*
X122531714Y-52082000D01*
X122460285Y-52153428D01*
X122388857Y-52296285D01*
X122388857Y-52439142D01*
X122460285Y-52653428D01*
X123317428Y-53510571D01*
X122388857Y-53510571D01*
X121460285Y-52010571D02*
X121317428Y-52010571D01*
X121174571Y-52082000D01*
X121103142Y-52153428D01*
X121031714Y-52296285D01*
X120960285Y-52582000D01*
X120960285Y-52939142D01*
X121031714Y-53224857D01*
X121103142Y-53367714D01*
X121174571Y-53439142D01*
X121317428Y-53510571D01*
X121460285Y-53510571D01*
X121603142Y-53439142D01*
X121674571Y-53367714D01*
X121746000Y-53224857D01*
X121817428Y-52939142D01*
X121817428Y-52582000D01*
X121746000Y-52296285D01*
X121674571Y-52153428D01*
X121603142Y-52082000D01*
X121460285Y-52010571D01*
X120388857Y-52153428D02*
X120317428Y-52082000D01*
X120174571Y-52010571D01*
X119817428Y-52010571D01*
X119674571Y-52082000D01*
X119603142Y-52153428D01*
X119531714Y-52296285D01*
X119531714Y-52439142D01*
X119603142Y-52653428D01*
X120460285Y-53510571D01*
X119531714Y-53510571D01*
X119031714Y-52010571D02*
X118103142Y-52010571D01*
X118603142Y-52582000D01*
X118388857Y-52582000D01*
X118246000Y-52653428D01*
X118174571Y-52724857D01*
X118103142Y-52867714D01*
X118103142Y-53224857D01*
X118174571Y-53367714D01*
X118246000Y-53439142D01*
X118388857Y-53510571D01*
X118817428Y-53510571D01*
X118960285Y-53439142D01*
X119031714Y-53367714D01*
X84549285Y-53510571D02*
X85049285Y-52796285D01*
X85406428Y-53510571D02*
X85406428Y-52010571D01*
X84835000Y-52010571D01*
X84692142Y-52082000D01*
X84620714Y-52153428D01*
X84549285Y-52296285D01*
X84549285Y-52510571D01*
X84620714Y-52653428D01*
X84692142Y-52724857D01*
X84835000Y-52796285D01*
X85406428Y-52796285D01*
X83263571Y-52510571D02*
X83263571Y-53510571D01*
X83906428Y-52510571D02*
X83906428Y-53296285D01*
X83835000Y-53439142D01*
X83692142Y-53510571D01*
X83477857Y-53510571D01*
X83335000Y-53439142D01*
X83263571Y-53367714D01*
X82549285Y-53510571D02*
X82549285Y-52010571D01*
X82549285Y-52582000D02*
X82406428Y-52510571D01*
X82120714Y-52510571D01*
X81977857Y-52582000D01*
X81906428Y-52653428D01*
X81835000Y-52796285D01*
X81835000Y-53224857D01*
X81906428Y-53367714D01*
X81977857Y-53439142D01*
X82120714Y-53510571D01*
X82406428Y-53510571D01*
X82549285Y-53439142D01*
X81335000Y-52510571D02*
X80977857Y-53510571D01*
X80620714Y-52510571D02*
X80977857Y-53510571D01*
X81120714Y-53867714D01*
X81192142Y-53939142D01*
X81335000Y-54010571D01*
X80049285Y-53510571D02*
X80049285Y-52010571D01*
X79192142Y-53510571D02*
X79835000Y-52653428D01*
X79192142Y-52010571D02*
X80049285Y-52867714D01*
X77906428Y-53510571D02*
X77906428Y-52724857D01*
X77977857Y-52582000D01*
X78120714Y-52510571D01*
X78406428Y-52510571D01*
X78549285Y-52582000D01*
X77906428Y-53439142D02*
X78049285Y-53510571D01*
X78406428Y-53510571D01*
X78549285Y-53439142D01*
X78620714Y-53296285D01*
X78620714Y-53153428D01*
X78549285Y-53010571D01*
X78406428Y-52939142D01*
X78049285Y-52939142D01*
X77906428Y-52867714D01*
X77192142Y-53510571D02*
X77192142Y-52510571D01*
X77192142Y-52010571D02*
X77263571Y-52082000D01*
X77192142Y-52153428D01*
X77120714Y-52082000D01*
X77192142Y-52010571D01*
X77192142Y-52153428D01*
X75835000Y-52510571D02*
X75835000Y-53724857D01*
X75906428Y-53867714D01*
X75977857Y-53939142D01*
X76120714Y-54010571D01*
X76335000Y-54010571D01*
X76477857Y-53939142D01*
X75835000Y-53439142D02*
X75977857Y-53510571D01*
X76263571Y-53510571D01*
X76406428Y-53439142D01*
X76477857Y-53367714D01*
X76549285Y-53224857D01*
X76549285Y-52796285D01*
X76477857Y-52653428D01*
X76406428Y-52582000D01*
X76263571Y-52510571D01*
X75977857Y-52510571D01*
X75835000Y-52582000D01*
X75120714Y-53510571D02*
X75120714Y-52510571D01*
X75120714Y-52010571D02*
X75192142Y-52082000D01*
X75120714Y-52153428D01*
X75049285Y-52082000D01*
X75120714Y-52010571D01*
X75120714Y-52153428D01*
X73335000Y-52153428D02*
X73263571Y-52082000D01*
X73120714Y-52010571D01*
X72763571Y-52010571D01*
X72620714Y-52082000D01*
X72549285Y-52153428D01*
X72477857Y-52296285D01*
X72477857Y-52439142D01*
X72549285Y-52653428D01*
X73406428Y-53510571D01*
X72477857Y-53510571D01*
X71549285Y-52010571D02*
X71406428Y-52010571D01*
X71263571Y-52082000D01*
X71192142Y-52153428D01*
X71120714Y-52296285D01*
X71049285Y-52582000D01*
X71049285Y-52939142D01*
X71120714Y-53224857D01*
X71192142Y-53367714D01*
X71263571Y-53439142D01*
X71406428Y-53510571D01*
X71549285Y-53510571D01*
X71692142Y-53439142D01*
X71763571Y-53367714D01*
X71835000Y-53224857D01*
X71906428Y-52939142D01*
X71906428Y-52582000D01*
X71835000Y-52296285D01*
X71763571Y-52153428D01*
X71692142Y-52082000D01*
X71549285Y-52010571D01*
X70477857Y-52153428D02*
X70406428Y-52082000D01*
X70263571Y-52010571D01*
X69906428Y-52010571D01*
X69763571Y-52082000D01*
X69692142Y-52153428D01*
X69620714Y-52296285D01*
X69620714Y-52439142D01*
X69692142Y-52653428D01*
X70549285Y-53510571D01*
X69620714Y-53510571D01*
X69120714Y-52010571D02*
X68192142Y-52010571D01*
X68692142Y-52582000D01*
X68477857Y-52582000D01*
X68335000Y-52653428D01*
X68263571Y-52724857D01*
X68192142Y-52867714D01*
X68192142Y-53224857D01*
X68263571Y-53367714D01*
X68335000Y-53439142D01*
X68477857Y-53510571D01*
X68906428Y-53510571D01*
X69049285Y-53439142D01*
X69120714Y-53367714D01*
X134460285Y-98595571D02*
X134960285Y-97881285D01*
X135317428Y-98595571D02*
X135317428Y-97095571D01*
X134746000Y-97095571D01*
X134603142Y-97167000D01*
X134531714Y-97238428D01*
X134460285Y-97381285D01*
X134460285Y-97595571D01*
X134531714Y-97738428D01*
X134603142Y-97809857D01*
X134746000Y-97881285D01*
X135317428Y-97881285D01*
X133174571Y-97595571D02*
X133174571Y-98595571D01*
X133817428Y-97595571D02*
X133817428Y-98381285D01*
X133746000Y-98524142D01*
X133603142Y-98595571D01*
X133388857Y-98595571D01*
X133246000Y-98524142D01*
X133174571Y-98452714D01*
X132460285Y-98595571D02*
X132460285Y-97095571D01*
X132460285Y-97667000D02*
X132317428Y-97595571D01*
X132031714Y-97595571D01*
X131888857Y-97667000D01*
X131817428Y-97738428D01*
X131746000Y-97881285D01*
X131746000Y-98309857D01*
X131817428Y-98452714D01*
X131888857Y-98524142D01*
X132031714Y-98595571D01*
X132317428Y-98595571D01*
X132460285Y-98524142D01*
X131246000Y-97595571D02*
X130888857Y-98595571D01*
X130531714Y-97595571D02*
X130888857Y-98595571D01*
X131031714Y-98952714D01*
X131103142Y-99024142D01*
X131246000Y-99095571D01*
X129960285Y-98595571D02*
X129960285Y-97095571D01*
X129103142Y-98595571D02*
X129746000Y-97738428D01*
X129103142Y-97095571D02*
X129960285Y-97952714D01*
X127817428Y-98595571D02*
X127817428Y-97809857D01*
X127888857Y-97667000D01*
X128031714Y-97595571D01*
X128317428Y-97595571D01*
X128460285Y-97667000D01*
X127817428Y-98524142D02*
X127960285Y-98595571D01*
X128317428Y-98595571D01*
X128460285Y-98524142D01*
X128531714Y-98381285D01*
X128531714Y-98238428D01*
X128460285Y-98095571D01*
X128317428Y-98024142D01*
X127960285Y-98024142D01*
X127817428Y-97952714D01*
X127103142Y-98595571D02*
X127103142Y-97595571D01*
X127103142Y-97095571D02*
X127174571Y-97167000D01*
X127103142Y-97238428D01*
X127031714Y-97167000D01*
X127103142Y-97095571D01*
X127103142Y-97238428D01*
X125746000Y-97595571D02*
X125746000Y-98809857D01*
X125817428Y-98952714D01*
X125888857Y-99024142D01*
X126031714Y-99095571D01*
X126246000Y-99095571D01*
X126388857Y-99024142D01*
X125746000Y-98524142D02*
X125888857Y-98595571D01*
X126174571Y-98595571D01*
X126317428Y-98524142D01*
X126388857Y-98452714D01*
X126460285Y-98309857D01*
X126460285Y-97881285D01*
X126388857Y-97738428D01*
X126317428Y-97667000D01*
X126174571Y-97595571D01*
X125888857Y-97595571D01*
X125746000Y-97667000D01*
X125031714Y-98595571D02*
X125031714Y-97595571D01*
X125031714Y-97095571D02*
X125103142Y-97167000D01*
X125031714Y-97238428D01*
X124960285Y-97167000D01*
X125031714Y-97095571D01*
X125031714Y-97238428D01*
X123246000Y-97238428D02*
X123174571Y-97167000D01*
X123031714Y-97095571D01*
X122674571Y-97095571D01*
X122531714Y-97167000D01*
X122460285Y-97238428D01*
X122388857Y-97381285D01*
X122388857Y-97524142D01*
X122460285Y-97738428D01*
X123317428Y-98595571D01*
X122388857Y-98595571D01*
X121460285Y-97095571D02*
X121317428Y-97095571D01*
X121174571Y-97167000D01*
X121103142Y-97238428D01*
X121031714Y-97381285D01*
X120960285Y-97667000D01*
X120960285Y-98024142D01*
X121031714Y-98309857D01*
X121103142Y-98452714D01*
X121174571Y-98524142D01*
X121317428Y-98595571D01*
X121460285Y-98595571D01*
X121603142Y-98524142D01*
X121674571Y-98452714D01*
X121746000Y-98309857D01*
X121817428Y-98024142D01*
X121817428Y-97667000D01*
X121746000Y-97381285D01*
X121674571Y-97238428D01*
X121603142Y-97167000D01*
X121460285Y-97095571D01*
X120388857Y-97238428D02*
X120317428Y-97167000D01*
X120174571Y-97095571D01*
X119817428Y-97095571D01*
X119674571Y-97167000D01*
X119603142Y-97238428D01*
X119531714Y-97381285D01*
X119531714Y-97524142D01*
X119603142Y-97738428D01*
X120460285Y-98595571D01*
X119531714Y-98595571D01*
X119031714Y-97095571D02*
X118103142Y-97095571D01*
X118603142Y-97667000D01*
X118388857Y-97667000D01*
X118246000Y-97738428D01*
X118174571Y-97809857D01*
X118103142Y-97952714D01*
X118103142Y-98309857D01*
X118174571Y-98452714D01*
X118246000Y-98524142D01*
X118388857Y-98595571D01*
X118817428Y-98595571D01*
X118960285Y-98524142D01*
X119031714Y-98452714D01*
X84549285Y-98595571D02*
X85049285Y-97881285D01*
X85406428Y-98595571D02*
X85406428Y-97095571D01*
X84835000Y-97095571D01*
X84692142Y-97167000D01*
X84620714Y-97238428D01*
X84549285Y-97381285D01*
X84549285Y-97595571D01*
X84620714Y-97738428D01*
X84692142Y-97809857D01*
X84835000Y-97881285D01*
X85406428Y-97881285D01*
X83263571Y-97595571D02*
X83263571Y-98595571D01*
X83906428Y-97595571D02*
X83906428Y-98381285D01*
X83835000Y-98524142D01*
X83692142Y-98595571D01*
X83477857Y-98595571D01*
X83335000Y-98524142D01*
X83263571Y-98452714D01*
X82549285Y-98595571D02*
X82549285Y-97095571D01*
X82549285Y-97667000D02*
X82406428Y-97595571D01*
X82120714Y-97595571D01*
X81977857Y-97667000D01*
X81906428Y-97738428D01*
X81835000Y-97881285D01*
X81835000Y-98309857D01*
X81906428Y-98452714D01*
X81977857Y-98524142D01*
X82120714Y-98595571D01*
X82406428Y-98595571D01*
X82549285Y-98524142D01*
X81335000Y-97595571D02*
X80977857Y-98595571D01*
X80620714Y-97595571D02*
X80977857Y-98595571D01*
X81120714Y-98952714D01*
X81192142Y-99024142D01*
X81335000Y-99095571D01*
X80049285Y-98595571D02*
X80049285Y-97095571D01*
X79192142Y-98595571D02*
X79835000Y-97738428D01*
X79192142Y-97095571D02*
X80049285Y-97952714D01*
X77906428Y-98595571D02*
X77906428Y-97809857D01*
X77977857Y-97667000D01*
X78120714Y-97595571D01*
X78406428Y-97595571D01*
X78549285Y-97667000D01*
X77906428Y-98524142D02*
X78049285Y-98595571D01*
X78406428Y-98595571D01*
X78549285Y-98524142D01*
X78620714Y-98381285D01*
X78620714Y-98238428D01*
X78549285Y-98095571D01*
X78406428Y-98024142D01*
X78049285Y-98024142D01*
X77906428Y-97952714D01*
X77192142Y-98595571D02*
X77192142Y-97595571D01*
X77192142Y-97095571D02*
X77263571Y-97167000D01*
X77192142Y-97238428D01*
X77120714Y-97167000D01*
X77192142Y-97095571D01*
X77192142Y-97238428D01*
X75835000Y-97595571D02*
X75835000Y-98809857D01*
X75906428Y-98952714D01*
X75977857Y-99024142D01*
X76120714Y-99095571D01*
X76335000Y-99095571D01*
X76477857Y-99024142D01*
X75835000Y-98524142D02*
X75977857Y-98595571D01*
X76263571Y-98595571D01*
X76406428Y-98524142D01*
X76477857Y-98452714D01*
X76549285Y-98309857D01*
X76549285Y-97881285D01*
X76477857Y-97738428D01*
X76406428Y-97667000D01*
X76263571Y-97595571D01*
X75977857Y-97595571D01*
X75835000Y-97667000D01*
X75120714Y-98595571D02*
X75120714Y-97595571D01*
X75120714Y-97095571D02*
X75192142Y-97167000D01*
X75120714Y-97238428D01*
X75049285Y-97167000D01*
X75120714Y-97095571D01*
X75120714Y-97238428D01*
X73335000Y-97238428D02*
X73263571Y-97167000D01*
X73120714Y-97095571D01*
X72763571Y-97095571D01*
X72620714Y-97167000D01*
X72549285Y-97238428D01*
X72477857Y-97381285D01*
X72477857Y-97524142D01*
X72549285Y-97738428D01*
X73406428Y-98595571D01*
X72477857Y-98595571D01*
X71549285Y-97095571D02*
X71406428Y-97095571D01*
X71263571Y-97167000D01*
X71192142Y-97238428D01*
X71120714Y-97381285D01*
X71049285Y-97667000D01*
X71049285Y-98024142D01*
X71120714Y-98309857D01*
X71192142Y-98452714D01*
X71263571Y-98524142D01*
X71406428Y-98595571D01*
X71549285Y-98595571D01*
X71692142Y-98524142D01*
X71763571Y-98452714D01*
X71835000Y-98309857D01*
X71906428Y-98024142D01*
X71906428Y-97667000D01*
X71835000Y-97381285D01*
X71763571Y-97238428D01*
X71692142Y-97167000D01*
X71549285Y-97095571D01*
X70477857Y-97238428D02*
X70406428Y-97167000D01*
X70263571Y-97095571D01*
X69906428Y-97095571D01*
X69763571Y-97167000D01*
X69692142Y-97238428D01*
X69620714Y-97381285D01*
X69620714Y-97524142D01*
X69692142Y-97738428D01*
X70549285Y-98595571D01*
X69620714Y-98595571D01*
X69120714Y-97095571D02*
X68192142Y-97095571D01*
X68692142Y-97667000D01*
X68477857Y-97667000D01*
X68335000Y-97738428D01*
X68263571Y-97809857D01*
X68192142Y-97952714D01*
X68192142Y-98309857D01*
X68263571Y-98452714D01*
X68335000Y-98524142D01*
X68477857Y-98595571D01*
X68906428Y-98595571D01*
X69049285Y-98524142D01*
X69120714Y-98452714D01*
X134460285Y-53510571D02*
X134960285Y-52796285D01*
X135317428Y-53510571D02*
X135317428Y-52010571D01*
X134746000Y-52010571D01*
X134603142Y-52082000D01*
X134531714Y-52153428D01*
X134460285Y-52296285D01*
X134460285Y-52510571D01*
X134531714Y-52653428D01*
X134603142Y-52724857D01*
X134746000Y-52796285D01*
X135317428Y-52796285D01*
X133174571Y-52510571D02*
X133174571Y-53510571D01*
X133817428Y-52510571D02*
X133817428Y-53296285D01*
X133746000Y-53439142D01*
X133603142Y-53510571D01*
X133388857Y-53510571D01*
X133246000Y-53439142D01*
X133174571Y-53367714D01*
X132460285Y-53510571D02*
X132460285Y-52010571D01*
X132460285Y-52582000D02*
X132317428Y-52510571D01*
X132031714Y-52510571D01*
X131888857Y-52582000D01*
X131817428Y-52653428D01*
X131746000Y-52796285D01*
X131746000Y-53224857D01*
X131817428Y-53367714D01*
X131888857Y-53439142D01*
X132031714Y-53510571D01*
X132317428Y-53510571D01*
X132460285Y-53439142D01*
X131246000Y-52510571D02*
X130888857Y-53510571D01*
X130531714Y-52510571D02*
X130888857Y-53510571D01*
X131031714Y-53867714D01*
X131103142Y-53939142D01*
X131246000Y-54010571D01*
X129960285Y-53510571D02*
X129960285Y-52010571D01*
X129103142Y-53510571D02*
X129746000Y-52653428D01*
X129103142Y-52010571D02*
X129960285Y-52867714D01*
X127817428Y-53510571D02*
X127817428Y-52724857D01*
X127888857Y-52582000D01*
X128031714Y-52510571D01*
X128317428Y-52510571D01*
X128460285Y-52582000D01*
X127817428Y-53439142D02*
X127960285Y-53510571D01*
X128317428Y-53510571D01*
X128460285Y-53439142D01*
X128531714Y-53296285D01*
X128531714Y-53153428D01*
X128460285Y-53010571D01*
X128317428Y-52939142D01*
X127960285Y-52939142D01*
X127817428Y-52867714D01*
X127103142Y-53510571D02*
X127103142Y-52510571D01*
X127103142Y-52010571D02*
X127174571Y-52082000D01*
X127103142Y-52153428D01*
X127031714Y-52082000D01*
X127103142Y-52010571D01*
X127103142Y-52153428D01*
X125746000Y-52510571D02*
X125746000Y-53724857D01*
X125817428Y-53867714D01*
X125888857Y-53939142D01*
X126031714Y-54010571D01*
X126246000Y-54010571D01*
X126388857Y-53939142D01*
X125746000Y-53439142D02*
X125888857Y-53510571D01*
X126174571Y-53510571D01*
X126317428Y-53439142D01*
X126388857Y-53367714D01*
X126460285Y-53224857D01*
X126460285Y-52796285D01*
X126388857Y-52653428D01*
X126317428Y-52582000D01*
X126174571Y-52510571D01*
X125888857Y-52510571D01*
X125746000Y-52582000D01*
X125031714Y-53510571D02*
X125031714Y-52510571D01*
X125031714Y-52010571D02*
X125103142Y-52082000D01*
X125031714Y-52153428D01*
X124960285Y-52082000D01*
X125031714Y-52010571D01*
X125031714Y-52153428D01*
X123246000Y-52153428D02*
X123174571Y-52082000D01*
X123031714Y-52010571D01*
X122674571Y-52010571D01*
X122531714Y-52082000D01*
X122460285Y-52153428D01*
X122388857Y-52296285D01*
X122388857Y-52439142D01*
X122460285Y-52653428D01*
X123317428Y-53510571D01*
X122388857Y-53510571D01*
X121460285Y-52010571D02*
X121317428Y-52010571D01*
X121174571Y-52082000D01*
X121103142Y-52153428D01*
X121031714Y-52296285D01*
X120960285Y-52582000D01*
X120960285Y-52939142D01*
X121031714Y-53224857D01*
X121103142Y-53367714D01*
X121174571Y-53439142D01*
X121317428Y-53510571D01*
X121460285Y-53510571D01*
X121603142Y-53439142D01*
X121674571Y-53367714D01*
X121746000Y-53224857D01*
X121817428Y-52939142D01*
X121817428Y-52582000D01*
X121746000Y-52296285D01*
X121674571Y-52153428D01*
X121603142Y-52082000D01*
X121460285Y-52010571D01*
X120388857Y-52153428D02*
X120317428Y-52082000D01*
X120174571Y-52010571D01*
X119817428Y-52010571D01*
X119674571Y-52082000D01*
X119603142Y-52153428D01*
X119531714Y-52296285D01*
X119531714Y-52439142D01*
X119603142Y-52653428D01*
X120460285Y-53510571D01*
X119531714Y-53510571D01*
X119031714Y-52010571D02*
X118103142Y-52010571D01*
X118603142Y-52582000D01*
X118388857Y-52582000D01*
X118246000Y-52653428D01*
X118174571Y-52724857D01*
X118103142Y-52867714D01*
X118103142Y-53224857D01*
X118174571Y-53367714D01*
X118246000Y-53439142D01*
X118388857Y-53510571D01*
X118817428Y-53510571D01*
X118960285Y-53439142D01*
X119031714Y-53367714D01*
D11*
X64111274Y-59205726D03*
X66928000Y-58039000D03*
X64111274Y-56872274D03*
X63628000Y-58039000D03*
X66444726Y-56872274D03*
D12*
X65278000Y-58039000D03*
D11*
X65278000Y-59689000D03*
X65278000Y-56389000D03*
X66444726Y-59205726D03*
D12*
X86995000Y-92710000D03*
D11*
X88645000Y-92710000D03*
X88161726Y-93876726D03*
X88161726Y-91543274D03*
X85828274Y-93876726D03*
X85345000Y-92710000D03*
X86995000Y-91060000D03*
X85828274Y-91543274D03*
X86995000Y-94360000D03*
X108307274Y-59205726D03*
X111124000Y-58039000D03*
X109474000Y-56389000D03*
X107824000Y-58039000D03*
X110640726Y-59205726D03*
X110640726Y-56872274D03*
X108307274Y-56872274D03*
D12*
X109474000Y-58039000D03*
D11*
X109474000Y-59689000D03*
D13*
X77470000Y-65405000D03*
D14*
X82970000Y-65405000D03*
X71970000Y-65405000D03*
D15*
X73660000Y-62865000D03*
X80010000Y-60325000D03*
D14*
X91020000Y-65405000D03*
D13*
X96520000Y-65405000D03*
D14*
X102020000Y-65405000D03*
D15*
X92710000Y-62865000D03*
X99060000Y-60325000D03*
D14*
X71970000Y-84455000D03*
D13*
X77470000Y-84455000D03*
D14*
X82970000Y-84455000D03*
D15*
X73660000Y-81915000D03*
X80010000Y-79375000D03*
D14*
X102020000Y-84455000D03*
D13*
X96520000Y-84455000D03*
D14*
X91020000Y-84455000D03*
D15*
X92710000Y-81915000D03*
X99060000Y-79375000D03*
D13*
X146431000Y-129540000D03*
D14*
X140931000Y-129540000D03*
X151931000Y-129540000D03*
D15*
X142621000Y-127000000D03*
X148971000Y-124460000D03*
D14*
X102020000Y-110490000D03*
D13*
X96520000Y-110490000D03*
D14*
X91020000Y-110490000D03*
D15*
X92710000Y-107950000D03*
X99060000Y-105410000D03*
D11*
X116839000Y-58039000D03*
D12*
X115189000Y-58039000D03*
D11*
X113539000Y-58039000D03*
X116355726Y-59205726D03*
X115189000Y-56389000D03*
X114022274Y-59205726D03*
X114022274Y-56872274D03*
X116355726Y-56872274D03*
X115189000Y-59689000D03*
D14*
X132881000Y-110490000D03*
D13*
X127381000Y-110490000D03*
D14*
X121881000Y-110490000D03*
D15*
X123571000Y-107950000D03*
X129921000Y-105410000D03*
D14*
X132881000Y-65405000D03*
X121881000Y-65405000D03*
D13*
X127381000Y-65405000D03*
D15*
X123571000Y-62865000D03*
X129921000Y-60325000D03*
D11*
X64111274Y-104290726D03*
X65278000Y-101474000D03*
X63628000Y-103124000D03*
X65278000Y-104774000D03*
X66928000Y-103124000D03*
X64111274Y-101957274D03*
X66444726Y-101957274D03*
D12*
X65278000Y-103124000D03*
D11*
X66444726Y-104290726D03*
D13*
X146431000Y-84455000D03*
D14*
X140931000Y-84455000D03*
X151931000Y-84455000D03*
D15*
X142621000Y-81915000D03*
X148971000Y-79375000D03*
D14*
X140931000Y-65405000D03*
X151931000Y-65405000D03*
D13*
X146431000Y-65405000D03*
D15*
X142621000Y-62865000D03*
X148971000Y-60325000D03*
D14*
X132881000Y-129540000D03*
X121881000Y-129540000D03*
D13*
X127381000Y-129540000D03*
D15*
X123571000Y-127000000D03*
X129921000Y-124460000D03*
D14*
X121881000Y-84455000D03*
D13*
X127381000Y-84455000D03*
D14*
X132881000Y-84455000D03*
D15*
X123571000Y-81915000D03*
X129921000Y-79375000D03*
D14*
X102020000Y-129540000D03*
D13*
X96520000Y-129540000D03*
D14*
X91020000Y-129540000D03*
D15*
X92710000Y-127000000D03*
X99060000Y-124460000D03*
D14*
X151931000Y-110490000D03*
D13*
X146431000Y-110490000D03*
D14*
X140931000Y-110490000D03*
D15*
X142621000Y-107950000D03*
X148971000Y-105410000D03*
D14*
X82970000Y-129540000D03*
D13*
X77470000Y-129540000D03*
D14*
X71970000Y-129540000D03*
D15*
X73660000Y-127000000D03*
X80010000Y-124460000D03*
D11*
X157735000Y-58039000D03*
X159385000Y-56389000D03*
X160551726Y-56872274D03*
X159385000Y-59689000D03*
X158218274Y-59205726D03*
D12*
X159385000Y-58039000D03*
D11*
X158218274Y-56872274D03*
X160551726Y-59205726D03*
X161035000Y-58039000D03*
X86995000Y-136145000D03*
D12*
X86995000Y-137795000D03*
D11*
X88161726Y-136628274D03*
X85828274Y-138961726D03*
X88161726Y-138961726D03*
X86995000Y-139445000D03*
X85828274Y-136628274D03*
X85345000Y-137795000D03*
X88645000Y-137795000D03*
X108307274Y-101957274D03*
X110640726Y-101957274D03*
X109474000Y-104774000D03*
X109474000Y-101474000D03*
D12*
X109474000Y-103124000D03*
D11*
X111124000Y-103124000D03*
X110640726Y-104290726D03*
X107824000Y-103124000D03*
X108307274Y-104290726D03*
X159385000Y-101474000D03*
X160551726Y-104290726D03*
X161035000Y-103124000D03*
X158218274Y-101957274D03*
X159385000Y-104774000D03*
X157735000Y-103124000D03*
D12*
X159385000Y-103124000D03*
D11*
X160551726Y-101957274D03*
X158218274Y-104290726D03*
X114022274Y-104290726D03*
X116839000Y-103124000D03*
X114022274Y-101957274D03*
X116355726Y-104290726D03*
D12*
X115189000Y-103124000D03*
D11*
X115189000Y-101474000D03*
X115189000Y-104774000D03*
X113539000Y-103124000D03*
X116355726Y-101957274D03*
D14*
X71970000Y-110490000D03*
D13*
X77470000Y-110490000D03*
D14*
X82970000Y-110490000D03*
D15*
X73660000Y-107950000D03*
X80010000Y-105410000D03*
D11*
X136906000Y-136145000D03*
X138556000Y-137795000D03*
D12*
X136906000Y-137795000D03*
D11*
X138072726Y-138961726D03*
X138072726Y-136628274D03*
X135256000Y-137795000D03*
X135739274Y-138961726D03*
X135739274Y-136628274D03*
X136906000Y-139445000D03*
X135739274Y-91543274D03*
X136906000Y-94360000D03*
X138072726Y-93876726D03*
X138556000Y-92710000D03*
X135739274Y-93876726D03*
D12*
X136906000Y-92710000D03*
D11*
X138072726Y-91543274D03*
X136906000Y-91060000D03*
X135256000Y-92710000D03*
D16*
X84545000Y-76530000D03*
X84545000Y-73330000D03*
X89445000Y-73330000D03*
X89445000Y-76530000D03*
D17*
X74970000Y-69481000D03*
X74970000Y-70981000D03*
X79970000Y-70981000D03*
X79970000Y-69481000D03*
X94020000Y-69481000D03*
X94020000Y-70981000D03*
X99020000Y-70981000D03*
X99020000Y-69481000D03*
X94020000Y-88658000D03*
X94020000Y-90158000D03*
X99020000Y-90158000D03*
X99020000Y-88658000D03*
D18*
X67480500Y-69387000D03*
X67480500Y-62377000D03*
D19*
X64990500Y-63627000D03*
X64990500Y-68127000D03*
D18*
X107365000Y-69377000D03*
X107365000Y-62367000D03*
D19*
X109855000Y-68127000D03*
X109855000Y-63627000D03*
D18*
X67480500Y-87813000D03*
X67480500Y-80803000D03*
D19*
X64990500Y-82053000D03*
X64990500Y-86553000D03*
D18*
X107365000Y-87792000D03*
X107365000Y-80782000D03*
D19*
X109855000Y-86542000D03*
X109855000Y-82042000D03*
D18*
X107365000Y-132877000D03*
X107365000Y-125867000D03*
D19*
X109855000Y-131627000D03*
X109855000Y-127127000D03*
D18*
X157276000Y-80782000D03*
X157276000Y-87792000D03*
D19*
X159766000Y-86542000D03*
X159766000Y-82042000D03*
D18*
X157276000Y-107452000D03*
X157276000Y-114462000D03*
D19*
X159766000Y-113212000D03*
X159766000Y-108712000D03*
D18*
X157276000Y-69377000D03*
X157276000Y-62367000D03*
D19*
X159766000Y-68127000D03*
X159766000Y-63627000D03*
D18*
X117391500Y-125888000D03*
X117391500Y-132898000D03*
D19*
X114901500Y-127138000D03*
X114901500Y-131638000D03*
D18*
X117391500Y-114472000D03*
X117391500Y-107462000D03*
D19*
X114901500Y-108712000D03*
X114901500Y-113212000D03*
D20*
X154051000Y-53086000D03*
D21*
X154051000Y-55626000D03*
X154051000Y-58166000D03*
X154051000Y-60706000D03*
X154051000Y-63246000D03*
X154051000Y-65786000D03*
X154051000Y-68326000D03*
X138811000Y-68326000D03*
X138811000Y-65786000D03*
X138811000Y-63246000D03*
X138811000Y-60706000D03*
X138811000Y-58166000D03*
X138811000Y-55626000D03*
X138811000Y-53086000D03*
D18*
X107365000Y-107452000D03*
X107365000Y-114462000D03*
D19*
X109855000Y-113212000D03*
X109855000Y-108712000D03*
D16*
X134456000Y-121615000D03*
X134456000Y-118415000D03*
X139356000Y-118415000D03*
X139356000Y-121615000D03*
D17*
X143931000Y-88658000D03*
X143931000Y-90158000D03*
X148931000Y-90158000D03*
X148931000Y-88658000D03*
D20*
X104140000Y-98171000D03*
D21*
X104140000Y-100711000D03*
X104140000Y-103251000D03*
X104140000Y-105791000D03*
X104140000Y-108331000D03*
X104140000Y-110871000D03*
X104140000Y-113411000D03*
X88900000Y-113411000D03*
X88900000Y-110871000D03*
X88900000Y-108331000D03*
X88900000Y-105791000D03*
X88900000Y-103251000D03*
X88900000Y-100711000D03*
X88900000Y-98171000D03*
D18*
X157276000Y-132877000D03*
X157276000Y-125867000D03*
D19*
X159766000Y-131627000D03*
X159766000Y-127127000D03*
D17*
X94020000Y-133743000D03*
X94020000Y-135243000D03*
X99020000Y-135243000D03*
X99020000Y-133743000D03*
X124881000Y-114566000D03*
X124881000Y-116066000D03*
X129881000Y-116066000D03*
X129881000Y-114566000D03*
D16*
X84545000Y-121615000D03*
X84545000Y-118415000D03*
X89445000Y-118415000D03*
X89445000Y-121615000D03*
D17*
X143931000Y-69481000D03*
X143931000Y-70981000D03*
X148931000Y-70981000D03*
X148931000Y-69481000D03*
X124627000Y-133743000D03*
X124627000Y-135243000D03*
X129627000Y-135243000D03*
X129627000Y-133743000D03*
D18*
X67480500Y-114472000D03*
X67480500Y-107462000D03*
D19*
X64990500Y-108712000D03*
X64990500Y-113212000D03*
D17*
X124881000Y-69481000D03*
X124881000Y-70981000D03*
X129881000Y-70981000D03*
X129881000Y-69481000D03*
X143931000Y-114566000D03*
X143931000Y-116066000D03*
X148931000Y-116066000D03*
X148931000Y-114566000D03*
D20*
X104140000Y-53086000D03*
D21*
X104140000Y-55626000D03*
X104140000Y-58166000D03*
X104140000Y-60706000D03*
X104140000Y-63246000D03*
X104140000Y-65786000D03*
X104140000Y-68326000D03*
X88900000Y-68326000D03*
X88900000Y-65786000D03*
X88900000Y-63246000D03*
X88900000Y-60706000D03*
X88900000Y-58166000D03*
X88900000Y-55626000D03*
X88900000Y-53086000D03*
D18*
X117391500Y-80803000D03*
X117391500Y-87813000D03*
D19*
X114901500Y-82053000D03*
X114901500Y-86553000D03*
D18*
X67480500Y-125888000D03*
X67480500Y-132898000D03*
D19*
X64990500Y-127138000D03*
X64990500Y-131638000D03*
D16*
X134456000Y-76530000D03*
X134456000Y-73330000D03*
X139356000Y-73330000D03*
X139356000Y-76530000D03*
D17*
X74716000Y-133743000D03*
X74716000Y-135243000D03*
X79716000Y-135243000D03*
X79716000Y-133743000D03*
X94020000Y-114566000D03*
X94020000Y-116066000D03*
X99020000Y-116066000D03*
X99020000Y-114566000D03*
X74716000Y-88658000D03*
X74716000Y-90158000D03*
X79716000Y-90158000D03*
X79716000Y-88658000D03*
X143931000Y-133743000D03*
X143931000Y-135243000D03*
X148931000Y-135243000D03*
X148931000Y-133743000D03*
D18*
X117391500Y-62377000D03*
X117391500Y-69387000D03*
D19*
X114901500Y-63627000D03*
X114901500Y-68127000D03*
D17*
X74970000Y-114566000D03*
X74970000Y-116066000D03*
X79970000Y-116066000D03*
X79970000Y-114566000D03*
X124627000Y-88658000D03*
X124627000Y-90158000D03*
X129627000Y-90158000D03*
X129627000Y-88658000D03*
D20*
X154051000Y-98171000D03*
D21*
X154051000Y-100711000D03*
X154051000Y-103251000D03*
X154051000Y-105791000D03*
X154051000Y-108331000D03*
X154051000Y-110871000D03*
X154051000Y-113411000D03*
X138811000Y-113411000D03*
X138811000Y-110871000D03*
X138811000Y-108331000D03*
X138811000Y-105791000D03*
X138811000Y-103251000D03*
X138811000Y-100711000D03*
X138811000Y-98171000D03*
M02*
