M48
; DRILL file {KiCad 6.0.2+dfsg-1} date 2023年03月24日 00時01分20秒
; FORMAT={-:-/ absolute / inch / decimal}
; #@! TF.CreationDate,2023-03-24T00:01:20+09:00
; #@! TF.GenerationSoftware,Kicad,Pcbnew,6.0.2+dfsg-1
; #@! TF.FileFunction,MixedPlating,1,2
FMAT,2
INCH
; #@! TA.AperFunction,Plated,PTH,ViaDrill
T1C0.0157
; #@! TA.AperFunction,Plated,PTH,ComponentDrill
T2C0.0157
; #@! TA.AperFunction,Plated,PTH,ComponentDrill
T3C0.0315
; #@! TA.AperFunction,Plated,PTH,ComponentDrill
T4C0.0335
; #@! TA.AperFunction,Plated,PTH,ComponentDrill
T5C0.0390
; #@! TA.AperFunction,Plated,PTH,ComponentDrill
T6C0.0512
; #@! TA.AperFunction,Plated,PTH,ComponentDrill
T7C0.0866
; #@! TA.AperFunction,NonPlated,NPTH,ComponentDrill
T8C0.0748
; #@! TA.AperFunction,NonPlated,NPTH,ComponentDrill
T9C0.1575
%
G90
G05
T1
X2.64Y-3.59
X2.64Y-5.365
X2.82Y-3.055
X2.82Y-4.83
X3.005Y-3.61
X3.005Y-5.385
X3.355Y-2.51
X3.355Y-4.285
X3.54Y-3.415
X3.54Y-5.19
X3.642Y-2.7783
X3.642Y-4.5533
X3.795Y-2.95
X3.795Y-4.725
X3.835Y-2.03
X3.835Y-3.805
X4.08Y-3.595
X4.08Y-5.37
X4.18Y-2.615
X4.18Y-4.39
X4.34Y-2.77
X4.34Y-4.545
X4.345Y-2.045
X4.345Y-3.82
X4.35Y-3.505
X4.35Y-5.28
X4.605Y-3.59
X4.605Y-5.365
X4.785Y-3.055
X4.785Y-4.83
X4.97Y-3.61
X4.97Y-5.385
X5.32Y-2.51
X5.32Y-4.285
X5.505Y-3.415
X5.505Y-5.19
X5.607Y-2.7783
X5.607Y-4.5533
X5.76Y-2.95
X5.76Y-4.725
X5.8Y-2.03
X5.8Y-3.805
X6.045Y-3.595
X6.045Y-5.37
X6.145Y-2.615
X6.145Y-4.39
X6.305Y-2.77
X6.305Y-4.545
X6.31Y-2.045
X6.31Y-3.82
X6.315Y-3.505
X6.315Y-5.28
T2
X2.505Y-2.285
X2.505Y-4.06
X2.5241Y-2.2391
X2.5241Y-2.3309
X2.5241Y-4.0141
X2.5241Y-4.1059
X2.57Y-2.22
X2.57Y-2.35
X2.57Y-3.995
X2.57Y-4.125
X2.6159Y-2.2391
X2.6159Y-2.3309
X2.6159Y-4.0141
X2.6159Y-4.1059
X2.635Y-2.285
X2.635Y-4.06
X3.36Y-3.65
X3.36Y-5.425
X3.3791Y-3.6041
X3.3791Y-3.6959
X3.3791Y-5.3791
X3.3791Y-5.4709
X3.425Y-3.585
X3.425Y-3.715
X3.425Y-5.36
X3.425Y-5.49
X3.4709Y-3.6041
X3.4709Y-3.6959
X3.4709Y-5.3791
X3.4709Y-5.4709
X3.49Y-3.65
X3.49Y-5.425
X4.245Y-2.285
X4.245Y-4.06
X4.2641Y-2.2391
X4.2641Y-2.3309
X4.2641Y-4.0141
X4.2641Y-4.1059
X4.31Y-2.22
X4.31Y-2.35
X4.31Y-3.995
X4.31Y-4.125
X4.3559Y-2.2391
X4.3559Y-2.3309
X4.3559Y-4.0141
X4.3559Y-4.1059
X4.375Y-2.285
X4.375Y-4.06
X4.47Y-2.285
X4.47Y-4.06
X4.4891Y-2.2391
X4.4891Y-2.3309
X4.4891Y-4.0141
X4.4891Y-4.1059
X4.535Y-2.22
X4.535Y-2.35
X4.535Y-3.995
X4.535Y-4.125
X4.5809Y-2.2391
X4.5809Y-2.3309
X4.5809Y-4.0141
X4.5809Y-4.1059
X4.6Y-2.285
X4.6Y-4.06
X5.325Y-3.65
X5.325Y-5.425
X5.3441Y-3.6041
X5.3441Y-3.6959
X5.3441Y-5.3791
X5.3441Y-5.4709
X5.39Y-3.585
X5.39Y-3.715
X5.39Y-5.36
X5.39Y-5.49
X5.4359Y-3.6041
X5.4359Y-3.6959
X5.4359Y-5.3791
X5.4359Y-5.4709
X5.455Y-3.65
X5.455Y-5.425
X6.21Y-2.285
X6.21Y-4.06
X6.2291Y-2.2391
X6.2291Y-2.3309
X6.2291Y-4.0141
X6.2291Y-4.1059
X6.275Y-2.22
X6.275Y-2.35
X6.275Y-3.995
X6.275Y-4.125
X6.3209Y-2.2391
X6.3209Y-2.3309
X6.3209Y-4.0141
X6.3209Y-4.1059
X6.34Y-2.285
X6.34Y-4.06
T4
X3.5Y-2.09
X3.5Y-2.19
X3.5Y-2.29
X3.5Y-2.39
X3.5Y-2.49
X3.5Y-2.59
X3.5Y-2.69
X3.5Y-3.865
X3.5Y-3.965
X3.5Y-4.065
X3.5Y-4.165
X3.5Y-4.265
X3.5Y-4.365
X3.5Y-4.465
X4.1Y-2.09
X4.1Y-2.19
X4.1Y-2.29
X4.1Y-2.39
X4.1Y-2.49
X4.1Y-2.59
X4.1Y-2.69
X4.1Y-3.865
X4.1Y-3.965
X4.1Y-4.065
X4.1Y-4.165
X4.1Y-4.265
X4.1Y-4.365
X4.1Y-4.465
X5.465Y-2.09
X5.465Y-2.19
X5.465Y-2.29
X5.465Y-2.39
X5.465Y-2.49
X5.465Y-2.59
X5.465Y-2.69
X5.465Y-3.865
X5.465Y-3.965
X5.465Y-4.065
X5.465Y-4.165
X5.465Y-4.265
X5.465Y-4.365
X5.465Y-4.465
X6.065Y-2.09
X6.065Y-2.19
X6.065Y-2.29
X6.065Y-2.39
X6.065Y-2.49
X6.065Y-2.59
X6.065Y-2.69
X6.065Y-3.865
X6.065Y-3.965
X6.065Y-4.065
X6.065Y-4.165
X6.065Y-4.265
X6.065Y-4.365
X6.065Y-4.465
T5
X2.5587Y-2.505
X2.5587Y-2.6822
X2.5587Y-3.2304
X2.5587Y-3.4076
X2.5587Y-4.28
X2.5587Y-4.4572
X2.5587Y-5.0054
X2.5587Y-5.1826
X4.325Y-2.505
X4.325Y-2.6822
X4.325Y-3.23
X4.325Y-3.4072
X4.325Y-4.28
X4.325Y-4.4572
X4.325Y-5.005
X4.325Y-5.1822
X4.5237Y-2.505
X4.5237Y-2.6822
X4.5237Y-3.2304
X4.5237Y-3.4076
X4.5237Y-4.28
X4.5237Y-4.4572
X4.5237Y-5.0054
X4.5237Y-5.1826
X6.29Y-2.505
X6.29Y-2.6822
X6.29Y-3.23
X6.29Y-3.4072
X6.29Y-4.28
X6.29Y-4.4572
X6.29Y-5.005
X6.29Y-5.1822
T6
X2.6567Y-2.4558
X2.6567Y-2.7318
X2.6567Y-3.1812
X2.6567Y-3.4572
X2.6567Y-4.2308
X2.6567Y-4.5068
X2.6567Y-4.9562
X2.6567Y-5.2322
X4.227Y-2.4554
X4.227Y-2.7314
X4.227Y-3.1804
X4.227Y-3.4564
X4.227Y-4.2304
X4.227Y-4.5064
X4.227Y-4.9554
X4.227Y-5.2314
X4.6217Y-2.4558
X4.6217Y-2.7318
X4.6217Y-3.1812
X4.6217Y-3.4572
X4.6217Y-4.2308
X4.6217Y-4.5068
X4.6217Y-4.9562
X4.6217Y-5.2322
X6.192Y-2.4554
X6.192Y-2.7314
X6.192Y-3.1804
X6.192Y-3.4564
X6.192Y-4.2304
X6.192Y-4.5064
X6.192Y-4.9554
X6.192Y-5.2314
T7
X2.57Y-2.285
X2.57Y-4.06
X3.425Y-3.65
X3.425Y-5.425
X4.31Y-2.285
X4.31Y-4.06
X4.535Y-2.285
X4.535Y-4.06
X5.39Y-3.65
X5.39Y-5.425
X6.275Y-2.285
X6.275Y-4.06
T8
X2.8335Y-2.575
X2.8335Y-3.325
X2.8335Y-4.35
X2.8335Y-5.1
X3.2665Y-2.575
X3.2665Y-3.325
X3.2665Y-4.35
X3.2665Y-5.1
X3.5835Y-2.575
X3.5835Y-3.325
X3.5835Y-4.35
X3.5835Y-5.1
X4.0165Y-2.575
X4.0165Y-3.325
X4.0165Y-4.35
X4.0165Y-5.1
X4.7985Y-2.575
X4.7985Y-3.325
X4.7985Y-4.35
X4.7985Y-5.1
X5.2315Y-2.575
X5.2315Y-3.325
X5.2315Y-4.35
X5.2315Y-5.1
X5.5485Y-2.575
X5.5485Y-3.325
X5.5485Y-4.35
X5.5485Y-5.1
X5.9815Y-2.575
X5.9815Y-3.325
X5.9815Y-4.35
X5.9815Y-5.1
T9
X3.05Y-2.575
X3.05Y-3.325
X3.05Y-4.35
X3.05Y-5.1
X3.8Y-2.575
X3.8Y-3.325
X3.8Y-4.35
X3.8Y-5.1
X5.015Y-2.575
X5.015Y-3.325
X5.015Y-4.35
X5.015Y-5.1
X5.765Y-2.575
X5.765Y-3.325
X5.765Y-4.35
X5.765Y-5.1
T3
G00X2.8921Y-2.475
M15
G01X2.9079Y-2.475
M16
G05
G00X2.8921Y-3.225
M15
G01X2.9079Y-3.225
M16
G05
G00X2.8921Y-4.25
M15
G01X2.9079Y-4.25
M16
G05
G00X2.8921Y-5.0
M15
G01X2.9079Y-5.0
M16
G05
G00X3.1421Y-2.375
M15
G01X3.1579Y-2.375
M16
G05
G00X3.1421Y-3.125
M15
G01X3.1579Y-3.125
M16
G05
G00X3.1421Y-4.15
M15
G01X3.1579Y-4.15
M16
G05
G00X3.1421Y-4.9
M15
G01X3.1579Y-4.9
M16
G05
G00X3.6421Y-2.475
M15
G01X3.6579Y-2.475
M16
G05
G00X3.6421Y-3.225
M15
G01X3.6579Y-3.225
M16
G05
G00X3.6421Y-4.25
M15
G01X3.6579Y-4.25
M16
G05
G00X3.6421Y-5.0
M15
G01X3.6579Y-5.0
M16
G05
G00X3.8921Y-2.375
M15
G01X3.9079Y-2.375
M16
G05
G00X3.8921Y-3.125
M15
G01X3.9079Y-3.125
M16
G05
G00X3.8921Y-4.15
M15
G01X3.9079Y-4.15
M16
G05
G00X3.8921Y-4.9
M15
G01X3.9079Y-4.9
M16
G05
G00X4.8571Y-2.475
M15
G01X4.8729Y-2.475
M16
G05
G00X4.8571Y-3.225
M15
G01X4.8729Y-3.225
M16
G05
G00X4.8571Y-4.25
M15
G01X4.8729Y-4.25
M16
G05
G00X4.8571Y-5.0
M15
G01X4.8729Y-5.0
M16
G05
G00X5.1071Y-2.375
M15
G01X5.1229Y-2.375
M16
G05
G00X5.1071Y-3.125
M15
G01X5.1229Y-3.125
M16
G05
G00X5.1071Y-4.15
M15
G01X5.1229Y-4.15
M16
G05
G00X5.1071Y-4.9
M15
G01X5.1229Y-4.9
M16
G05
G00X5.6071Y-2.475
M15
G01X5.6229Y-2.475
M16
G05
G00X5.6071Y-3.225
M15
G01X5.6229Y-3.225
M16
G05
G00X5.6071Y-4.25
M15
G01X5.6229Y-4.25
M16
G05
G00X5.6071Y-5.0
M15
G01X5.6229Y-5.0
M16
G05
G00X5.8571Y-2.375
M15
G01X5.8729Y-2.375
M16
G05
G00X5.8571Y-3.125
M15
G01X5.8729Y-3.125
M16
G05
G00X5.8571Y-4.15
M15
G01X5.8729Y-4.15
M16
G05
G00X5.8571Y-4.9
M15
G01X5.8729Y-4.9
M16
G05
T0
M30
