%TF.GenerationSoftware,KiCad,Pcbnew,6.0.2+dfsg-1*%
%TF.CreationDate,2023-03-24T00:01:14+09:00*%
%TF.ProjectId,pcb-panel,7063622d-7061-46e6-956c-2e6b69636164,rev?*%
%TF.SameCoordinates,Original*%
%TF.FileFunction,Profile,NP*%
%FSLAX46Y46*%
G04 Gerber Fmt 4.6, Leading zero omitted, Abs format (unit mm)*
G04 Created by KiCad (PCBNEW 6.0.2+dfsg-1) date 2023-03-24 00:01:14*
%MOMM*%
%LPD*%
G01*
G04 APERTURE LIST*
%TA.AperFunction,Profile*%
%ADD10C,0.050000*%
%TD*%
%TA.AperFunction,Profile*%
%ADD11C,0.120000*%
%TD*%
G04 APERTURE END LIST*
D10*
X62484000Y-92075000D02*
G75*
G03*
X65659000Y-95250000I3175000J0D01*
G01*
X62484000Y-53340000D02*
X62484000Y-92075000D01*
X109220000Y-50165000D02*
X65659000Y-50165000D01*
X162306000Y-92075000D02*
X162306000Y-53340000D01*
X115570000Y-95250000D02*
G75*
G03*
X112395000Y-98425000I0J-3175000D01*
G01*
X159131000Y-95250000D02*
G75*
G03*
X162306000Y-92075000I0J3175000D01*
G01*
X115570000Y-140335000D02*
X159131000Y-140335000D01*
X112395000Y-92075000D02*
G75*
G03*
X115570000Y-95250000I3175000J0D01*
G01*
X62484000Y-98425000D02*
X62484000Y-137160000D01*
X162306000Y-98425000D02*
G75*
G03*
X159131000Y-95250000I-3175000J0D01*
G01*
X159131000Y-50165000D02*
X115570000Y-50165000D01*
X65659000Y-50165000D02*
G75*
G03*
X62484000Y-53340000I0J-3175000D01*
G01*
X159131000Y-140335000D02*
G75*
G03*
X162306000Y-137160000I0J3175000D01*
G01*
X112395000Y-137160000D02*
G75*
G03*
X115570000Y-140335000I3175000J0D01*
G01*
X109220000Y-95250000D02*
G75*
G03*
X112395000Y-92075000I0J3175000D01*
G01*
X115570000Y-50165000D02*
G75*
G03*
X112395000Y-53340000I0J-3175000D01*
G01*
X112395000Y-98425000D02*
G75*
G03*
X109220000Y-95250000I-3175000J0D01*
G01*
X65659000Y-140335000D02*
X109220000Y-140335000D01*
X109220000Y-140335000D02*
G75*
G03*
X112395000Y-137160000I0J3175000D01*
G01*
X65659000Y-95250000D02*
G75*
G03*
X62484000Y-98425000I0J-3175000D01*
G01*
X162306000Y-137160000D02*
X162306000Y-98425000D01*
X62484000Y-137160000D02*
G75*
G03*
X65659000Y-140335000I3175000J0D01*
G01*
X112395000Y-53340000D02*
G75*
G03*
X109220000Y-50165000I-3175000J0D01*
G01*
X162306000Y-53340000D02*
G75*
G03*
X159131000Y-50165000I-3175000J0D01*
G01*
D11*
X75770000Y-68731000D02*
X79170000Y-68731000D01*
X79170000Y-71731000D02*
X75770000Y-71731000D01*
X79170000Y-68731000D02*
X79170000Y-71731000D01*
X75770000Y-71731000D02*
X75770000Y-68731000D01*
X98220000Y-68731000D02*
X98220000Y-71731000D01*
X94820000Y-68731000D02*
X98220000Y-68731000D01*
X94820000Y-71731000D02*
X94820000Y-68731000D01*
X98220000Y-71731000D02*
X94820000Y-71731000D01*
X94820000Y-87908000D02*
X98220000Y-87908000D01*
X98220000Y-87908000D02*
X98220000Y-90908000D01*
X94820000Y-90908000D02*
X94820000Y-87908000D01*
X98220000Y-90908000D02*
X94820000Y-90908000D01*
X144731000Y-90908000D02*
X144731000Y-87908000D01*
X148131000Y-90908000D02*
X144731000Y-90908000D01*
X148131000Y-87908000D02*
X148131000Y-90908000D01*
X144731000Y-87908000D02*
X148131000Y-87908000D01*
X98220000Y-135993000D02*
X94820000Y-135993000D01*
X94820000Y-132993000D02*
X98220000Y-132993000D01*
X98220000Y-132993000D02*
X98220000Y-135993000D01*
X94820000Y-135993000D02*
X94820000Y-132993000D01*
X129081000Y-113816000D02*
X129081000Y-116816000D01*
X129081000Y-116816000D02*
X125681000Y-116816000D01*
X125681000Y-116816000D02*
X125681000Y-113816000D01*
X125681000Y-113816000D02*
X129081000Y-113816000D01*
X148131000Y-68731000D02*
X148131000Y-71731000D01*
X144731000Y-71731000D02*
X144731000Y-68731000D01*
X144731000Y-68731000D02*
X148131000Y-68731000D01*
X148131000Y-71731000D02*
X144731000Y-71731000D01*
X128827000Y-135993000D02*
X125427000Y-135993000D01*
X125427000Y-135993000D02*
X125427000Y-132993000D01*
X128827000Y-132993000D02*
X128827000Y-135993000D01*
X125427000Y-132993000D02*
X128827000Y-132993000D01*
X129081000Y-71731000D02*
X125681000Y-71731000D01*
X129081000Y-68731000D02*
X129081000Y-71731000D01*
X125681000Y-71731000D02*
X125681000Y-68731000D01*
X125681000Y-68731000D02*
X129081000Y-68731000D01*
X144731000Y-113816000D02*
X148131000Y-113816000D01*
X148131000Y-116816000D02*
X144731000Y-116816000D01*
X144731000Y-116816000D02*
X144731000Y-113816000D01*
X148131000Y-113816000D02*
X148131000Y-116816000D01*
X75516000Y-135993000D02*
X75516000Y-132993000D01*
X75516000Y-132993000D02*
X78916000Y-132993000D01*
X78916000Y-135993000D02*
X75516000Y-135993000D01*
X78916000Y-132993000D02*
X78916000Y-135993000D01*
X98220000Y-116816000D02*
X94820000Y-116816000D01*
X98220000Y-113816000D02*
X98220000Y-116816000D01*
X94820000Y-116816000D02*
X94820000Y-113816000D01*
X94820000Y-113816000D02*
X98220000Y-113816000D01*
X78916000Y-90908000D02*
X75516000Y-90908000D01*
X75516000Y-90908000D02*
X75516000Y-87908000D01*
X78916000Y-87908000D02*
X78916000Y-90908000D01*
X75516000Y-87908000D02*
X78916000Y-87908000D01*
X144731000Y-135993000D02*
X144731000Y-132993000D01*
X144731000Y-132993000D02*
X148131000Y-132993000D01*
X148131000Y-132993000D02*
X148131000Y-135993000D01*
X148131000Y-135993000D02*
X144731000Y-135993000D01*
X79170000Y-116816000D02*
X75770000Y-116816000D01*
X75770000Y-116816000D02*
X75770000Y-113816000D01*
X75770000Y-113816000D02*
X79170000Y-113816000D01*
X79170000Y-113816000D02*
X79170000Y-116816000D01*
X125427000Y-90908000D02*
X125427000Y-87908000D01*
X128827000Y-87908000D02*
X128827000Y-90908000D01*
X125427000Y-87908000D02*
X128827000Y-87908000D01*
X128827000Y-90908000D02*
X125427000Y-90908000D01*
M02*
