%TF.GenerationSoftware,KiCad,Pcbnew,6.0.2+dfsg-1*%
%TF.CreationDate,2023-03-24T00:01:14+09:00*%
%TF.ProjectId,pcb-panel,7063622d-7061-46e6-956c-2e6b69636164,rev?*%
%TF.SameCoordinates,Original*%
%TF.FileFunction,Legend,Bot*%
%TF.FilePolarity,Positive*%
%FSLAX46Y46*%
G04 Gerber Fmt 4.6, Leading zero omitted, Abs format (unit mm)*
G04 Created by KiCad (PCBNEW 6.0.2+dfsg-1) date 2023-03-24 00:01:14*
%MOMM*%
%LPD*%
G01*
G04 APERTURE LIST*
%ADD10C,0.100000*%
%ADD11C,0.150000*%
%ADD12C,0.120000*%
%ADD13C,0.254000*%
G04 APERTURE END LIST*
D10*
X137285714Y-100682904D02*
X137285714Y-99882904D01*
X137019047Y-100454333D01*
X136752380Y-99882904D01*
X136752380Y-100682904D01*
X136028571Y-100682904D02*
X136028571Y-100263857D01*
X136066666Y-100187666D01*
X136142857Y-100149571D01*
X136295238Y-100149571D01*
X136371428Y-100187666D01*
X136028571Y-100644809D02*
X136104761Y-100682904D01*
X136295238Y-100682904D01*
X136371428Y-100644809D01*
X136409523Y-100568619D01*
X136409523Y-100492428D01*
X136371428Y-100416238D01*
X136295238Y-100378142D01*
X136104761Y-100378142D01*
X136028571Y-100340047D01*
X135761904Y-100149571D02*
X135457142Y-100149571D01*
X135647619Y-99882904D02*
X135647619Y-100568619D01*
X135609523Y-100644809D01*
X135533333Y-100682904D01*
X135457142Y-100682904D01*
X135228571Y-100644809D02*
X135152380Y-100682904D01*
X135000000Y-100682904D01*
X134923809Y-100644809D01*
X134885714Y-100568619D01*
X134885714Y-100530523D01*
X134923809Y-100454333D01*
X135000000Y-100416238D01*
X135114285Y-100416238D01*
X135190476Y-100378142D01*
X135228571Y-100301952D01*
X135228571Y-100263857D01*
X135190476Y-100187666D01*
X135114285Y-100149571D01*
X135000000Y-100149571D01*
X134923809Y-100187666D01*
X134200000Y-100149571D02*
X134200000Y-100682904D01*
X134542857Y-100149571D02*
X134542857Y-100568619D01*
X134504761Y-100644809D01*
X134428571Y-100682904D01*
X134314285Y-100682904D01*
X134238095Y-100644809D01*
X134200000Y-100606714D01*
X133819047Y-100682904D02*
X133819047Y-100149571D01*
X133819047Y-100225761D02*
X133780952Y-100187666D01*
X133704761Y-100149571D01*
X133590476Y-100149571D01*
X133514285Y-100187666D01*
X133476190Y-100263857D01*
X133476190Y-100682904D01*
X133476190Y-100263857D02*
X133438095Y-100187666D01*
X133361904Y-100149571D01*
X133247619Y-100149571D01*
X133171428Y-100187666D01*
X133133333Y-100263857D01*
X133133333Y-100682904D01*
X132638095Y-100682904D02*
X132714285Y-100644809D01*
X132752380Y-100606714D01*
X132790476Y-100530523D01*
X132790476Y-100301952D01*
X132752380Y-100225761D01*
X132714285Y-100187666D01*
X132638095Y-100149571D01*
X132523809Y-100149571D01*
X132447619Y-100187666D01*
X132409523Y-100225761D01*
X132371428Y-100301952D01*
X132371428Y-100530523D01*
X132409523Y-100606714D01*
X132447619Y-100644809D01*
X132523809Y-100682904D01*
X132638095Y-100682904D01*
X132142857Y-100149571D02*
X131838095Y-100149571D01*
X132028571Y-99882904D02*
X132028571Y-100568619D01*
X131990476Y-100644809D01*
X131914285Y-100682904D01*
X131838095Y-100682904D01*
X131457142Y-100682904D02*
X131533333Y-100644809D01*
X131571428Y-100606714D01*
X131609523Y-100530523D01*
X131609523Y-100301952D01*
X131571428Y-100225761D01*
X131533333Y-100187666D01*
X131457142Y-100149571D01*
X131342857Y-100149571D01*
X131266666Y-100187666D01*
X131228571Y-100225761D01*
X131190476Y-100301952D01*
X131190476Y-100530523D01*
X131228571Y-100606714D01*
X131266666Y-100644809D01*
X131342857Y-100682904D01*
X131457142Y-100682904D01*
X130238095Y-100682904D02*
X130238095Y-99882904D01*
X129933333Y-99882904D01*
X129857142Y-99921000D01*
X129819047Y-99959095D01*
X129780952Y-100035285D01*
X129780952Y-100149571D01*
X129819047Y-100225761D01*
X129857142Y-100263857D01*
X129933333Y-100301952D01*
X130238095Y-100301952D01*
X129133333Y-100644809D02*
X129209523Y-100682904D01*
X129361904Y-100682904D01*
X129438095Y-100644809D01*
X129476190Y-100568619D01*
X129476190Y-100263857D01*
X129438095Y-100187666D01*
X129361904Y-100149571D01*
X129209523Y-100149571D01*
X129133333Y-100187666D01*
X129095238Y-100263857D01*
X129095238Y-100340047D01*
X129476190Y-100416238D01*
X128752380Y-100682904D02*
X128752380Y-100149571D01*
X128752380Y-100301952D02*
X128714285Y-100225761D01*
X128676190Y-100187666D01*
X128600000Y-100149571D01*
X128523809Y-100149571D01*
X128371428Y-100149571D02*
X128066666Y-100149571D01*
X128257142Y-100682904D02*
X128257142Y-99997190D01*
X128219047Y-99921000D01*
X128142857Y-99882904D01*
X128066666Y-99882904D01*
X127685714Y-100682904D02*
X127761904Y-100644809D01*
X127800000Y-100606714D01*
X127838095Y-100530523D01*
X127838095Y-100301952D01*
X127800000Y-100225761D01*
X127761904Y-100187666D01*
X127685714Y-100149571D01*
X127571428Y-100149571D01*
X127495238Y-100187666D01*
X127457142Y-100225761D01*
X127419047Y-100301952D01*
X127419047Y-100530523D01*
X127457142Y-100606714D01*
X127495238Y-100644809D01*
X127571428Y-100682904D01*
X127685714Y-100682904D01*
X127076190Y-100682904D02*
X127076190Y-100149571D01*
X127076190Y-100301952D02*
X127038095Y-100225761D01*
X127000000Y-100187666D01*
X126923809Y-100149571D01*
X126847619Y-100149571D01*
X126580952Y-100682904D02*
X126580952Y-100149571D01*
X126580952Y-100225761D02*
X126542857Y-100187666D01*
X126466666Y-100149571D01*
X126352380Y-100149571D01*
X126276190Y-100187666D01*
X126238095Y-100263857D01*
X126238095Y-100682904D01*
X126238095Y-100263857D02*
X126200000Y-100187666D01*
X126123809Y-100149571D01*
X126009523Y-100149571D01*
X125933333Y-100187666D01*
X125895238Y-100263857D01*
X125895238Y-100682904D01*
X125514285Y-100682904D02*
X125514285Y-100149571D01*
X125514285Y-99882904D02*
X125552380Y-99921000D01*
X125514285Y-99959095D01*
X125476190Y-99921000D01*
X125514285Y-99882904D01*
X125514285Y-99959095D01*
X125133333Y-100149571D02*
X125133333Y-100682904D01*
X125133333Y-100225761D02*
X125095238Y-100187666D01*
X125019047Y-100149571D01*
X124904761Y-100149571D01*
X124828571Y-100187666D01*
X124790476Y-100263857D01*
X124790476Y-100682904D01*
X124066666Y-100149571D02*
X124066666Y-100797190D01*
X124104761Y-100873380D01*
X124142857Y-100911476D01*
X124219047Y-100949571D01*
X124333333Y-100949571D01*
X124409523Y-100911476D01*
X124066666Y-100644809D02*
X124142857Y-100682904D01*
X124295238Y-100682904D01*
X124371428Y-100644809D01*
X124409523Y-100606714D01*
X124447619Y-100530523D01*
X124447619Y-100301952D01*
X124409523Y-100225761D01*
X124371428Y-100187666D01*
X124295238Y-100149571D01*
X124142857Y-100149571D01*
X124066666Y-100187666D01*
X123114285Y-100454333D02*
X122733333Y-100454333D01*
X123190476Y-100682904D02*
X122923809Y-99882904D01*
X122657142Y-100682904D01*
X122390476Y-100682904D02*
X122390476Y-100149571D01*
X122390476Y-100301952D02*
X122352380Y-100225761D01*
X122314285Y-100187666D01*
X122238095Y-100149571D01*
X122161904Y-100149571D01*
X122009523Y-100149571D02*
X121704761Y-100149571D01*
X121895238Y-99882904D02*
X121895238Y-100568619D01*
X121857142Y-100644809D01*
X121780952Y-100682904D01*
X121704761Y-100682904D01*
X121476190Y-100644809D02*
X121400000Y-100682904D01*
X121247619Y-100682904D01*
X121171428Y-100644809D01*
X121133333Y-100568619D01*
X121133333Y-100530523D01*
X121171428Y-100454333D01*
X121247619Y-100416238D01*
X121361904Y-100416238D01*
X121438095Y-100378142D01*
X121476190Y-100301952D01*
X121476190Y-100263857D01*
X121438095Y-100187666D01*
X121361904Y-100149571D01*
X121247619Y-100149571D01*
X121171428Y-100187666D01*
X119723809Y-100606714D02*
X119761904Y-100644809D01*
X119876190Y-100682904D01*
X119952380Y-100682904D01*
X120066666Y-100644809D01*
X120142857Y-100568619D01*
X120180952Y-100492428D01*
X120219047Y-100340047D01*
X120219047Y-100225761D01*
X120180952Y-100073380D01*
X120142857Y-99997190D01*
X120066666Y-99921000D01*
X119952380Y-99882904D01*
X119876190Y-99882904D01*
X119761904Y-99921000D01*
X119723809Y-99959095D01*
X119076190Y-100644809D02*
X119152380Y-100682904D01*
X119304761Y-100682904D01*
X119380952Y-100644809D01*
X119419047Y-100568619D01*
X119419047Y-100263857D01*
X119380952Y-100187666D01*
X119304761Y-100149571D01*
X119152380Y-100149571D01*
X119076190Y-100187666D01*
X119038095Y-100263857D01*
X119038095Y-100340047D01*
X119419047Y-100416238D01*
X118695238Y-100149571D02*
X118695238Y-100682904D01*
X118695238Y-100225761D02*
X118657142Y-100187666D01*
X118580952Y-100149571D01*
X118466666Y-100149571D01*
X118390476Y-100187666D01*
X118352380Y-100263857D01*
X118352380Y-100682904D01*
X118085714Y-100149571D02*
X117780952Y-100149571D01*
X117971428Y-99882904D02*
X117971428Y-100568619D01*
X117933333Y-100644809D01*
X117857142Y-100682904D01*
X117780952Y-100682904D01*
X117514285Y-100682904D02*
X117514285Y-100149571D01*
X117514285Y-100301952D02*
X117476190Y-100225761D01*
X117438095Y-100187666D01*
X117361904Y-100149571D01*
X117285714Y-100149571D01*
X116714285Y-100644809D02*
X116790476Y-100682904D01*
X116942857Y-100682904D01*
X117019047Y-100644809D01*
X117057142Y-100568619D01*
X117057142Y-100263857D01*
X117019047Y-100187666D01*
X116942857Y-100149571D01*
X116790476Y-100149571D01*
X116714285Y-100187666D01*
X116676190Y-100263857D01*
X116676190Y-100340047D01*
X117057142Y-100416238D01*
X132047619Y-101970904D02*
X132047619Y-101170904D01*
X131780952Y-101742333D01*
X131514285Y-101170904D01*
X131514285Y-101970904D01*
X130790476Y-101970904D02*
X130790476Y-101551857D01*
X130828571Y-101475666D01*
X130904761Y-101437571D01*
X131057142Y-101437571D01*
X131133333Y-101475666D01*
X130790476Y-101932809D02*
X130866666Y-101970904D01*
X131057142Y-101970904D01*
X131133333Y-101932809D01*
X131171428Y-101856619D01*
X131171428Y-101780428D01*
X131133333Y-101704238D01*
X131057142Y-101666142D01*
X130866666Y-101666142D01*
X130790476Y-101628047D01*
X130485714Y-101437571D02*
X130295238Y-101970904D01*
X130104761Y-101437571D02*
X130295238Y-101970904D01*
X130371428Y-102161380D01*
X130409523Y-102199476D01*
X130485714Y-102237571D01*
X128771428Y-101970904D02*
X129228571Y-101970904D01*
X129000000Y-101970904D02*
X129000000Y-101170904D01*
X129076190Y-101285190D01*
X129152380Y-101361380D01*
X129228571Y-101399476D01*
X128009523Y-101970904D02*
X128466666Y-101970904D01*
X128238095Y-101970904D02*
X128238095Y-101170904D01*
X128314285Y-101285190D01*
X128390476Y-101361380D01*
X128466666Y-101399476D01*
X127780952Y-101437571D02*
X127476190Y-101437571D01*
X127666666Y-101170904D02*
X127666666Y-101856619D01*
X127628571Y-101932809D01*
X127552380Y-101970904D01*
X127476190Y-101970904D01*
X127209523Y-101970904D02*
X127209523Y-101170904D01*
X126866666Y-101970904D02*
X126866666Y-101551857D01*
X126904761Y-101475666D01*
X126980952Y-101437571D01*
X127095238Y-101437571D01*
X127171428Y-101475666D01*
X127209523Y-101513761D01*
X125876190Y-101666142D02*
X125266666Y-101666142D01*
X123857142Y-101970904D02*
X124314285Y-101970904D01*
X124085714Y-101970904D02*
X124085714Y-101170904D01*
X124161904Y-101285190D01*
X124238095Y-101361380D01*
X124314285Y-101399476D01*
X123590476Y-101170904D02*
X123095238Y-101170904D01*
X123361904Y-101475666D01*
X123247619Y-101475666D01*
X123171428Y-101513761D01*
X123133333Y-101551857D01*
X123095238Y-101628047D01*
X123095238Y-101818523D01*
X123133333Y-101894714D01*
X123171428Y-101932809D01*
X123247619Y-101970904D01*
X123476190Y-101970904D01*
X123552380Y-101932809D01*
X123590476Y-101894714D01*
X122866666Y-101437571D02*
X122561904Y-101437571D01*
X122752380Y-101170904D02*
X122752380Y-101856619D01*
X122714285Y-101932809D01*
X122638095Y-101970904D01*
X122561904Y-101970904D01*
X122295238Y-101970904D02*
X122295238Y-101170904D01*
X121952380Y-101970904D02*
X121952380Y-101551857D01*
X121990476Y-101475666D01*
X122066666Y-101437571D01*
X122180952Y-101437571D01*
X122257142Y-101475666D01*
X122295238Y-101513761D01*
X137285714Y-55597904D02*
X137285714Y-54797904D01*
X137019047Y-55369333D01*
X136752380Y-54797904D01*
X136752380Y-55597904D01*
X136028571Y-55597904D02*
X136028571Y-55178857D01*
X136066666Y-55102666D01*
X136142857Y-55064571D01*
X136295238Y-55064571D01*
X136371428Y-55102666D01*
X136028571Y-55559809D02*
X136104761Y-55597904D01*
X136295238Y-55597904D01*
X136371428Y-55559809D01*
X136409523Y-55483619D01*
X136409523Y-55407428D01*
X136371428Y-55331238D01*
X136295238Y-55293142D01*
X136104761Y-55293142D01*
X136028571Y-55255047D01*
X135761904Y-55064571D02*
X135457142Y-55064571D01*
X135647619Y-54797904D02*
X135647619Y-55483619D01*
X135609523Y-55559809D01*
X135533333Y-55597904D01*
X135457142Y-55597904D01*
X135228571Y-55559809D02*
X135152380Y-55597904D01*
X135000000Y-55597904D01*
X134923809Y-55559809D01*
X134885714Y-55483619D01*
X134885714Y-55445523D01*
X134923809Y-55369333D01*
X135000000Y-55331238D01*
X135114285Y-55331238D01*
X135190476Y-55293142D01*
X135228571Y-55216952D01*
X135228571Y-55178857D01*
X135190476Y-55102666D01*
X135114285Y-55064571D01*
X135000000Y-55064571D01*
X134923809Y-55102666D01*
X134200000Y-55064571D02*
X134200000Y-55597904D01*
X134542857Y-55064571D02*
X134542857Y-55483619D01*
X134504761Y-55559809D01*
X134428571Y-55597904D01*
X134314285Y-55597904D01*
X134238095Y-55559809D01*
X134200000Y-55521714D01*
X133819047Y-55597904D02*
X133819047Y-55064571D01*
X133819047Y-55140761D02*
X133780952Y-55102666D01*
X133704761Y-55064571D01*
X133590476Y-55064571D01*
X133514285Y-55102666D01*
X133476190Y-55178857D01*
X133476190Y-55597904D01*
X133476190Y-55178857D02*
X133438095Y-55102666D01*
X133361904Y-55064571D01*
X133247619Y-55064571D01*
X133171428Y-55102666D01*
X133133333Y-55178857D01*
X133133333Y-55597904D01*
X132638095Y-55597904D02*
X132714285Y-55559809D01*
X132752380Y-55521714D01*
X132790476Y-55445523D01*
X132790476Y-55216952D01*
X132752380Y-55140761D01*
X132714285Y-55102666D01*
X132638095Y-55064571D01*
X132523809Y-55064571D01*
X132447619Y-55102666D01*
X132409523Y-55140761D01*
X132371428Y-55216952D01*
X132371428Y-55445523D01*
X132409523Y-55521714D01*
X132447619Y-55559809D01*
X132523809Y-55597904D01*
X132638095Y-55597904D01*
X132142857Y-55064571D02*
X131838095Y-55064571D01*
X132028571Y-54797904D02*
X132028571Y-55483619D01*
X131990476Y-55559809D01*
X131914285Y-55597904D01*
X131838095Y-55597904D01*
X131457142Y-55597904D02*
X131533333Y-55559809D01*
X131571428Y-55521714D01*
X131609523Y-55445523D01*
X131609523Y-55216952D01*
X131571428Y-55140761D01*
X131533333Y-55102666D01*
X131457142Y-55064571D01*
X131342857Y-55064571D01*
X131266666Y-55102666D01*
X131228571Y-55140761D01*
X131190476Y-55216952D01*
X131190476Y-55445523D01*
X131228571Y-55521714D01*
X131266666Y-55559809D01*
X131342857Y-55597904D01*
X131457142Y-55597904D01*
X130238095Y-55597904D02*
X130238095Y-54797904D01*
X129933333Y-54797904D01*
X129857142Y-54836000D01*
X129819047Y-54874095D01*
X129780952Y-54950285D01*
X129780952Y-55064571D01*
X129819047Y-55140761D01*
X129857142Y-55178857D01*
X129933333Y-55216952D01*
X130238095Y-55216952D01*
X129133333Y-55559809D02*
X129209523Y-55597904D01*
X129361904Y-55597904D01*
X129438095Y-55559809D01*
X129476190Y-55483619D01*
X129476190Y-55178857D01*
X129438095Y-55102666D01*
X129361904Y-55064571D01*
X129209523Y-55064571D01*
X129133333Y-55102666D01*
X129095238Y-55178857D01*
X129095238Y-55255047D01*
X129476190Y-55331238D01*
X128752380Y-55597904D02*
X128752380Y-55064571D01*
X128752380Y-55216952D02*
X128714285Y-55140761D01*
X128676190Y-55102666D01*
X128600000Y-55064571D01*
X128523809Y-55064571D01*
X128371428Y-55064571D02*
X128066666Y-55064571D01*
X128257142Y-55597904D02*
X128257142Y-54912190D01*
X128219047Y-54836000D01*
X128142857Y-54797904D01*
X128066666Y-54797904D01*
X127685714Y-55597904D02*
X127761904Y-55559809D01*
X127800000Y-55521714D01*
X127838095Y-55445523D01*
X127838095Y-55216952D01*
X127800000Y-55140761D01*
X127761904Y-55102666D01*
X127685714Y-55064571D01*
X127571428Y-55064571D01*
X127495238Y-55102666D01*
X127457142Y-55140761D01*
X127419047Y-55216952D01*
X127419047Y-55445523D01*
X127457142Y-55521714D01*
X127495238Y-55559809D01*
X127571428Y-55597904D01*
X127685714Y-55597904D01*
X127076190Y-55597904D02*
X127076190Y-55064571D01*
X127076190Y-55216952D02*
X127038095Y-55140761D01*
X127000000Y-55102666D01*
X126923809Y-55064571D01*
X126847619Y-55064571D01*
X126580952Y-55597904D02*
X126580952Y-55064571D01*
X126580952Y-55140761D02*
X126542857Y-55102666D01*
X126466666Y-55064571D01*
X126352380Y-55064571D01*
X126276190Y-55102666D01*
X126238095Y-55178857D01*
X126238095Y-55597904D01*
X126238095Y-55178857D02*
X126200000Y-55102666D01*
X126123809Y-55064571D01*
X126009523Y-55064571D01*
X125933333Y-55102666D01*
X125895238Y-55178857D01*
X125895238Y-55597904D01*
X125514285Y-55597904D02*
X125514285Y-55064571D01*
X125514285Y-54797904D02*
X125552380Y-54836000D01*
X125514285Y-54874095D01*
X125476190Y-54836000D01*
X125514285Y-54797904D01*
X125514285Y-54874095D01*
X125133333Y-55064571D02*
X125133333Y-55597904D01*
X125133333Y-55140761D02*
X125095238Y-55102666D01*
X125019047Y-55064571D01*
X124904761Y-55064571D01*
X124828571Y-55102666D01*
X124790476Y-55178857D01*
X124790476Y-55597904D01*
X124066666Y-55064571D02*
X124066666Y-55712190D01*
X124104761Y-55788380D01*
X124142857Y-55826476D01*
X124219047Y-55864571D01*
X124333333Y-55864571D01*
X124409523Y-55826476D01*
X124066666Y-55559809D02*
X124142857Y-55597904D01*
X124295238Y-55597904D01*
X124371428Y-55559809D01*
X124409523Y-55521714D01*
X124447619Y-55445523D01*
X124447619Y-55216952D01*
X124409523Y-55140761D01*
X124371428Y-55102666D01*
X124295238Y-55064571D01*
X124142857Y-55064571D01*
X124066666Y-55102666D01*
X123114285Y-55369333D02*
X122733333Y-55369333D01*
X123190476Y-55597904D02*
X122923809Y-54797904D01*
X122657142Y-55597904D01*
X122390476Y-55597904D02*
X122390476Y-55064571D01*
X122390476Y-55216952D02*
X122352380Y-55140761D01*
X122314285Y-55102666D01*
X122238095Y-55064571D01*
X122161904Y-55064571D01*
X122009523Y-55064571D02*
X121704761Y-55064571D01*
X121895238Y-54797904D02*
X121895238Y-55483619D01*
X121857142Y-55559809D01*
X121780952Y-55597904D01*
X121704761Y-55597904D01*
X121476190Y-55559809D02*
X121400000Y-55597904D01*
X121247619Y-55597904D01*
X121171428Y-55559809D01*
X121133333Y-55483619D01*
X121133333Y-55445523D01*
X121171428Y-55369333D01*
X121247619Y-55331238D01*
X121361904Y-55331238D01*
X121438095Y-55293142D01*
X121476190Y-55216952D01*
X121476190Y-55178857D01*
X121438095Y-55102666D01*
X121361904Y-55064571D01*
X121247619Y-55064571D01*
X121171428Y-55102666D01*
X119723809Y-55521714D02*
X119761904Y-55559809D01*
X119876190Y-55597904D01*
X119952380Y-55597904D01*
X120066666Y-55559809D01*
X120142857Y-55483619D01*
X120180952Y-55407428D01*
X120219047Y-55255047D01*
X120219047Y-55140761D01*
X120180952Y-54988380D01*
X120142857Y-54912190D01*
X120066666Y-54836000D01*
X119952380Y-54797904D01*
X119876190Y-54797904D01*
X119761904Y-54836000D01*
X119723809Y-54874095D01*
X119076190Y-55559809D02*
X119152380Y-55597904D01*
X119304761Y-55597904D01*
X119380952Y-55559809D01*
X119419047Y-55483619D01*
X119419047Y-55178857D01*
X119380952Y-55102666D01*
X119304761Y-55064571D01*
X119152380Y-55064571D01*
X119076190Y-55102666D01*
X119038095Y-55178857D01*
X119038095Y-55255047D01*
X119419047Y-55331238D01*
X118695238Y-55064571D02*
X118695238Y-55597904D01*
X118695238Y-55140761D02*
X118657142Y-55102666D01*
X118580952Y-55064571D01*
X118466666Y-55064571D01*
X118390476Y-55102666D01*
X118352380Y-55178857D01*
X118352380Y-55597904D01*
X118085714Y-55064571D02*
X117780952Y-55064571D01*
X117971428Y-54797904D02*
X117971428Y-55483619D01*
X117933333Y-55559809D01*
X117857142Y-55597904D01*
X117780952Y-55597904D01*
X117514285Y-55597904D02*
X117514285Y-55064571D01*
X117514285Y-55216952D02*
X117476190Y-55140761D01*
X117438095Y-55102666D01*
X117361904Y-55064571D01*
X117285714Y-55064571D01*
X116714285Y-55559809D02*
X116790476Y-55597904D01*
X116942857Y-55597904D01*
X117019047Y-55559809D01*
X117057142Y-55483619D01*
X117057142Y-55178857D01*
X117019047Y-55102666D01*
X116942857Y-55064571D01*
X116790476Y-55064571D01*
X116714285Y-55102666D01*
X116676190Y-55178857D01*
X116676190Y-55255047D01*
X117057142Y-55331238D01*
X132047619Y-56885904D02*
X132047619Y-56085904D01*
X131780952Y-56657333D01*
X131514285Y-56085904D01*
X131514285Y-56885904D01*
X130790476Y-56885904D02*
X130790476Y-56466857D01*
X130828571Y-56390666D01*
X130904761Y-56352571D01*
X131057142Y-56352571D01*
X131133333Y-56390666D01*
X130790476Y-56847809D02*
X130866666Y-56885904D01*
X131057142Y-56885904D01*
X131133333Y-56847809D01*
X131171428Y-56771619D01*
X131171428Y-56695428D01*
X131133333Y-56619238D01*
X131057142Y-56581142D01*
X130866666Y-56581142D01*
X130790476Y-56543047D01*
X130485714Y-56352571D02*
X130295238Y-56885904D01*
X130104761Y-56352571D02*
X130295238Y-56885904D01*
X130371428Y-57076380D01*
X130409523Y-57114476D01*
X130485714Y-57152571D01*
X128771428Y-56885904D02*
X129228571Y-56885904D01*
X129000000Y-56885904D02*
X129000000Y-56085904D01*
X129076190Y-56200190D01*
X129152380Y-56276380D01*
X129228571Y-56314476D01*
X128009523Y-56885904D02*
X128466666Y-56885904D01*
X128238095Y-56885904D02*
X128238095Y-56085904D01*
X128314285Y-56200190D01*
X128390476Y-56276380D01*
X128466666Y-56314476D01*
X127780952Y-56352571D02*
X127476190Y-56352571D01*
X127666666Y-56085904D02*
X127666666Y-56771619D01*
X127628571Y-56847809D01*
X127552380Y-56885904D01*
X127476190Y-56885904D01*
X127209523Y-56885904D02*
X127209523Y-56085904D01*
X126866666Y-56885904D02*
X126866666Y-56466857D01*
X126904761Y-56390666D01*
X126980952Y-56352571D01*
X127095238Y-56352571D01*
X127171428Y-56390666D01*
X127209523Y-56428761D01*
X125876190Y-56581142D02*
X125266666Y-56581142D01*
X123857142Y-56885904D02*
X124314285Y-56885904D01*
X124085714Y-56885904D02*
X124085714Y-56085904D01*
X124161904Y-56200190D01*
X124238095Y-56276380D01*
X124314285Y-56314476D01*
X123590476Y-56085904D02*
X123095238Y-56085904D01*
X123361904Y-56390666D01*
X123247619Y-56390666D01*
X123171428Y-56428761D01*
X123133333Y-56466857D01*
X123095238Y-56543047D01*
X123095238Y-56733523D01*
X123133333Y-56809714D01*
X123171428Y-56847809D01*
X123247619Y-56885904D01*
X123476190Y-56885904D01*
X123552380Y-56847809D01*
X123590476Y-56809714D01*
X122866666Y-56352571D02*
X122561904Y-56352571D01*
X122752380Y-56085904D02*
X122752380Y-56771619D01*
X122714285Y-56847809D01*
X122638095Y-56885904D01*
X122561904Y-56885904D01*
X122295238Y-56885904D02*
X122295238Y-56085904D01*
X121952380Y-56885904D02*
X121952380Y-56466857D01*
X121990476Y-56390666D01*
X122066666Y-56352571D01*
X122180952Y-56352571D01*
X122257142Y-56390666D01*
X122295238Y-56428761D01*
X87374714Y-55597904D02*
X87374714Y-54797904D01*
X87108047Y-55369333D01*
X86841380Y-54797904D01*
X86841380Y-55597904D01*
X86117571Y-55597904D02*
X86117571Y-55178857D01*
X86155666Y-55102666D01*
X86231857Y-55064571D01*
X86384238Y-55064571D01*
X86460428Y-55102666D01*
X86117571Y-55559809D02*
X86193761Y-55597904D01*
X86384238Y-55597904D01*
X86460428Y-55559809D01*
X86498523Y-55483619D01*
X86498523Y-55407428D01*
X86460428Y-55331238D01*
X86384238Y-55293142D01*
X86193761Y-55293142D01*
X86117571Y-55255047D01*
X85850904Y-55064571D02*
X85546142Y-55064571D01*
X85736619Y-54797904D02*
X85736619Y-55483619D01*
X85698523Y-55559809D01*
X85622333Y-55597904D01*
X85546142Y-55597904D01*
X85317571Y-55559809D02*
X85241380Y-55597904D01*
X85089000Y-55597904D01*
X85012809Y-55559809D01*
X84974714Y-55483619D01*
X84974714Y-55445523D01*
X85012809Y-55369333D01*
X85089000Y-55331238D01*
X85203285Y-55331238D01*
X85279476Y-55293142D01*
X85317571Y-55216952D01*
X85317571Y-55178857D01*
X85279476Y-55102666D01*
X85203285Y-55064571D01*
X85089000Y-55064571D01*
X85012809Y-55102666D01*
X84289000Y-55064571D02*
X84289000Y-55597904D01*
X84631857Y-55064571D02*
X84631857Y-55483619D01*
X84593761Y-55559809D01*
X84517571Y-55597904D01*
X84403285Y-55597904D01*
X84327095Y-55559809D01*
X84289000Y-55521714D01*
X83908047Y-55597904D02*
X83908047Y-55064571D01*
X83908047Y-55140761D02*
X83869952Y-55102666D01*
X83793761Y-55064571D01*
X83679476Y-55064571D01*
X83603285Y-55102666D01*
X83565190Y-55178857D01*
X83565190Y-55597904D01*
X83565190Y-55178857D02*
X83527095Y-55102666D01*
X83450904Y-55064571D01*
X83336619Y-55064571D01*
X83260428Y-55102666D01*
X83222333Y-55178857D01*
X83222333Y-55597904D01*
X82727095Y-55597904D02*
X82803285Y-55559809D01*
X82841380Y-55521714D01*
X82879476Y-55445523D01*
X82879476Y-55216952D01*
X82841380Y-55140761D01*
X82803285Y-55102666D01*
X82727095Y-55064571D01*
X82612809Y-55064571D01*
X82536619Y-55102666D01*
X82498523Y-55140761D01*
X82460428Y-55216952D01*
X82460428Y-55445523D01*
X82498523Y-55521714D01*
X82536619Y-55559809D01*
X82612809Y-55597904D01*
X82727095Y-55597904D01*
X82231857Y-55064571D02*
X81927095Y-55064571D01*
X82117571Y-54797904D02*
X82117571Y-55483619D01*
X82079476Y-55559809D01*
X82003285Y-55597904D01*
X81927095Y-55597904D01*
X81546142Y-55597904D02*
X81622333Y-55559809D01*
X81660428Y-55521714D01*
X81698523Y-55445523D01*
X81698523Y-55216952D01*
X81660428Y-55140761D01*
X81622333Y-55102666D01*
X81546142Y-55064571D01*
X81431857Y-55064571D01*
X81355666Y-55102666D01*
X81317571Y-55140761D01*
X81279476Y-55216952D01*
X81279476Y-55445523D01*
X81317571Y-55521714D01*
X81355666Y-55559809D01*
X81431857Y-55597904D01*
X81546142Y-55597904D01*
X80327095Y-55597904D02*
X80327095Y-54797904D01*
X80022333Y-54797904D01*
X79946142Y-54836000D01*
X79908047Y-54874095D01*
X79869952Y-54950285D01*
X79869952Y-55064571D01*
X79908047Y-55140761D01*
X79946142Y-55178857D01*
X80022333Y-55216952D01*
X80327095Y-55216952D01*
X79222333Y-55559809D02*
X79298523Y-55597904D01*
X79450904Y-55597904D01*
X79527095Y-55559809D01*
X79565190Y-55483619D01*
X79565190Y-55178857D01*
X79527095Y-55102666D01*
X79450904Y-55064571D01*
X79298523Y-55064571D01*
X79222333Y-55102666D01*
X79184238Y-55178857D01*
X79184238Y-55255047D01*
X79565190Y-55331238D01*
X78841380Y-55597904D02*
X78841380Y-55064571D01*
X78841380Y-55216952D02*
X78803285Y-55140761D01*
X78765190Y-55102666D01*
X78689000Y-55064571D01*
X78612809Y-55064571D01*
X78460428Y-55064571D02*
X78155666Y-55064571D01*
X78346142Y-55597904D02*
X78346142Y-54912190D01*
X78308047Y-54836000D01*
X78231857Y-54797904D01*
X78155666Y-54797904D01*
X77774714Y-55597904D02*
X77850904Y-55559809D01*
X77889000Y-55521714D01*
X77927095Y-55445523D01*
X77927095Y-55216952D01*
X77889000Y-55140761D01*
X77850904Y-55102666D01*
X77774714Y-55064571D01*
X77660428Y-55064571D01*
X77584238Y-55102666D01*
X77546142Y-55140761D01*
X77508047Y-55216952D01*
X77508047Y-55445523D01*
X77546142Y-55521714D01*
X77584238Y-55559809D01*
X77660428Y-55597904D01*
X77774714Y-55597904D01*
X77165190Y-55597904D02*
X77165190Y-55064571D01*
X77165190Y-55216952D02*
X77127095Y-55140761D01*
X77089000Y-55102666D01*
X77012809Y-55064571D01*
X76936619Y-55064571D01*
X76669952Y-55597904D02*
X76669952Y-55064571D01*
X76669952Y-55140761D02*
X76631857Y-55102666D01*
X76555666Y-55064571D01*
X76441380Y-55064571D01*
X76365190Y-55102666D01*
X76327095Y-55178857D01*
X76327095Y-55597904D01*
X76327095Y-55178857D02*
X76289000Y-55102666D01*
X76212809Y-55064571D01*
X76098523Y-55064571D01*
X76022333Y-55102666D01*
X75984238Y-55178857D01*
X75984238Y-55597904D01*
X75603285Y-55597904D02*
X75603285Y-55064571D01*
X75603285Y-54797904D02*
X75641380Y-54836000D01*
X75603285Y-54874095D01*
X75565190Y-54836000D01*
X75603285Y-54797904D01*
X75603285Y-54874095D01*
X75222333Y-55064571D02*
X75222333Y-55597904D01*
X75222333Y-55140761D02*
X75184238Y-55102666D01*
X75108047Y-55064571D01*
X74993761Y-55064571D01*
X74917571Y-55102666D01*
X74879476Y-55178857D01*
X74879476Y-55597904D01*
X74155666Y-55064571D02*
X74155666Y-55712190D01*
X74193761Y-55788380D01*
X74231857Y-55826476D01*
X74308047Y-55864571D01*
X74422333Y-55864571D01*
X74498523Y-55826476D01*
X74155666Y-55559809D02*
X74231857Y-55597904D01*
X74384238Y-55597904D01*
X74460428Y-55559809D01*
X74498523Y-55521714D01*
X74536619Y-55445523D01*
X74536619Y-55216952D01*
X74498523Y-55140761D01*
X74460428Y-55102666D01*
X74384238Y-55064571D01*
X74231857Y-55064571D01*
X74155666Y-55102666D01*
X73203285Y-55369333D02*
X72822333Y-55369333D01*
X73279476Y-55597904D02*
X73012809Y-54797904D01*
X72746142Y-55597904D01*
X72479476Y-55597904D02*
X72479476Y-55064571D01*
X72479476Y-55216952D02*
X72441380Y-55140761D01*
X72403285Y-55102666D01*
X72327095Y-55064571D01*
X72250904Y-55064571D01*
X72098523Y-55064571D02*
X71793761Y-55064571D01*
X71984238Y-54797904D02*
X71984238Y-55483619D01*
X71946142Y-55559809D01*
X71869952Y-55597904D01*
X71793761Y-55597904D01*
X71565190Y-55559809D02*
X71489000Y-55597904D01*
X71336619Y-55597904D01*
X71260428Y-55559809D01*
X71222333Y-55483619D01*
X71222333Y-55445523D01*
X71260428Y-55369333D01*
X71336619Y-55331238D01*
X71450904Y-55331238D01*
X71527095Y-55293142D01*
X71565190Y-55216952D01*
X71565190Y-55178857D01*
X71527095Y-55102666D01*
X71450904Y-55064571D01*
X71336619Y-55064571D01*
X71260428Y-55102666D01*
X69812809Y-55521714D02*
X69850904Y-55559809D01*
X69965190Y-55597904D01*
X70041380Y-55597904D01*
X70155666Y-55559809D01*
X70231857Y-55483619D01*
X70269952Y-55407428D01*
X70308047Y-55255047D01*
X70308047Y-55140761D01*
X70269952Y-54988380D01*
X70231857Y-54912190D01*
X70155666Y-54836000D01*
X70041380Y-54797904D01*
X69965190Y-54797904D01*
X69850904Y-54836000D01*
X69812809Y-54874095D01*
X69165190Y-55559809D02*
X69241380Y-55597904D01*
X69393761Y-55597904D01*
X69469952Y-55559809D01*
X69508047Y-55483619D01*
X69508047Y-55178857D01*
X69469952Y-55102666D01*
X69393761Y-55064571D01*
X69241380Y-55064571D01*
X69165190Y-55102666D01*
X69127095Y-55178857D01*
X69127095Y-55255047D01*
X69508047Y-55331238D01*
X68784238Y-55064571D02*
X68784238Y-55597904D01*
X68784238Y-55140761D02*
X68746142Y-55102666D01*
X68669952Y-55064571D01*
X68555666Y-55064571D01*
X68479476Y-55102666D01*
X68441380Y-55178857D01*
X68441380Y-55597904D01*
X68174714Y-55064571D02*
X67869952Y-55064571D01*
X68060428Y-54797904D02*
X68060428Y-55483619D01*
X68022333Y-55559809D01*
X67946142Y-55597904D01*
X67869952Y-55597904D01*
X67603285Y-55597904D02*
X67603285Y-55064571D01*
X67603285Y-55216952D02*
X67565190Y-55140761D01*
X67527095Y-55102666D01*
X67450904Y-55064571D01*
X67374714Y-55064571D01*
X66803285Y-55559809D02*
X66879476Y-55597904D01*
X67031857Y-55597904D01*
X67108047Y-55559809D01*
X67146142Y-55483619D01*
X67146142Y-55178857D01*
X67108047Y-55102666D01*
X67031857Y-55064571D01*
X66879476Y-55064571D01*
X66803285Y-55102666D01*
X66765190Y-55178857D01*
X66765190Y-55255047D01*
X67146142Y-55331238D01*
X82136619Y-56885904D02*
X82136619Y-56085904D01*
X81869952Y-56657333D01*
X81603285Y-56085904D01*
X81603285Y-56885904D01*
X80879476Y-56885904D02*
X80879476Y-56466857D01*
X80917571Y-56390666D01*
X80993761Y-56352571D01*
X81146142Y-56352571D01*
X81222333Y-56390666D01*
X80879476Y-56847809D02*
X80955666Y-56885904D01*
X81146142Y-56885904D01*
X81222333Y-56847809D01*
X81260428Y-56771619D01*
X81260428Y-56695428D01*
X81222333Y-56619238D01*
X81146142Y-56581142D01*
X80955666Y-56581142D01*
X80879476Y-56543047D01*
X80574714Y-56352571D02*
X80384238Y-56885904D01*
X80193761Y-56352571D02*
X80384238Y-56885904D01*
X80460428Y-57076380D01*
X80498523Y-57114476D01*
X80574714Y-57152571D01*
X78860428Y-56885904D02*
X79317571Y-56885904D01*
X79089000Y-56885904D02*
X79089000Y-56085904D01*
X79165190Y-56200190D01*
X79241380Y-56276380D01*
X79317571Y-56314476D01*
X78098523Y-56885904D02*
X78555666Y-56885904D01*
X78327095Y-56885904D02*
X78327095Y-56085904D01*
X78403285Y-56200190D01*
X78479476Y-56276380D01*
X78555666Y-56314476D01*
X77869952Y-56352571D02*
X77565190Y-56352571D01*
X77755666Y-56085904D02*
X77755666Y-56771619D01*
X77717571Y-56847809D01*
X77641380Y-56885904D01*
X77565190Y-56885904D01*
X77298523Y-56885904D02*
X77298523Y-56085904D01*
X76955666Y-56885904D02*
X76955666Y-56466857D01*
X76993761Y-56390666D01*
X77069952Y-56352571D01*
X77184238Y-56352571D01*
X77260428Y-56390666D01*
X77298523Y-56428761D01*
X75965190Y-56581142D02*
X75355666Y-56581142D01*
X73946142Y-56885904D02*
X74403285Y-56885904D01*
X74174714Y-56885904D02*
X74174714Y-56085904D01*
X74250904Y-56200190D01*
X74327095Y-56276380D01*
X74403285Y-56314476D01*
X73679476Y-56085904D02*
X73184238Y-56085904D01*
X73450904Y-56390666D01*
X73336619Y-56390666D01*
X73260428Y-56428761D01*
X73222333Y-56466857D01*
X73184238Y-56543047D01*
X73184238Y-56733523D01*
X73222333Y-56809714D01*
X73260428Y-56847809D01*
X73336619Y-56885904D01*
X73565190Y-56885904D01*
X73641380Y-56847809D01*
X73679476Y-56809714D01*
X72955666Y-56352571D02*
X72650904Y-56352571D01*
X72841380Y-56085904D02*
X72841380Y-56771619D01*
X72803285Y-56847809D01*
X72727095Y-56885904D01*
X72650904Y-56885904D01*
X72384238Y-56885904D02*
X72384238Y-56085904D01*
X72041380Y-56885904D02*
X72041380Y-56466857D01*
X72079476Y-56390666D01*
X72155666Y-56352571D01*
X72269952Y-56352571D01*
X72346142Y-56390666D01*
X72384238Y-56428761D01*
D11*
X152645285Y-102390380D02*
X152645285Y-101390380D01*
X152264333Y-101390380D01*
X152169095Y-101438000D01*
X152121476Y-101485619D01*
X152073857Y-101580857D01*
X152073857Y-101723714D01*
X152121476Y-101818952D01*
X152169095Y-101866571D01*
X152264333Y-101914190D01*
X152645285Y-101914190D01*
X151073857Y-102295142D02*
X151121476Y-102342761D01*
X151264333Y-102390380D01*
X151359571Y-102390380D01*
X151502428Y-102342761D01*
X151597666Y-102247523D01*
X151645285Y-102152285D01*
X151692904Y-101961809D01*
X151692904Y-101818952D01*
X151645285Y-101628476D01*
X151597666Y-101533238D01*
X151502428Y-101438000D01*
X151359571Y-101390380D01*
X151264333Y-101390380D01*
X151121476Y-101438000D01*
X151073857Y-101485619D01*
X150311952Y-101866571D02*
X150169095Y-101914190D01*
X150121476Y-101961809D01*
X150073857Y-102057047D01*
X150073857Y-102199904D01*
X150121476Y-102295142D01*
X150169095Y-102342761D01*
X150264333Y-102390380D01*
X150645285Y-102390380D01*
X150645285Y-101390380D01*
X150311952Y-101390380D01*
X150216714Y-101438000D01*
X150169095Y-101485619D01*
X150121476Y-101580857D01*
X150121476Y-101676095D01*
X150169095Y-101771333D01*
X150216714Y-101818952D01*
X150311952Y-101866571D01*
X150645285Y-101866571D01*
X148883380Y-102390380D02*
X148883380Y-101390380D01*
X148645285Y-101390380D01*
X148502428Y-101438000D01*
X148407190Y-101533238D01*
X148359571Y-101628476D01*
X148311952Y-101818952D01*
X148311952Y-101961809D01*
X148359571Y-102152285D01*
X148407190Y-102247523D01*
X148502428Y-102342761D01*
X148645285Y-102390380D01*
X148883380Y-102390380D01*
X147502428Y-102342761D02*
X147597666Y-102390380D01*
X147788142Y-102390380D01*
X147883380Y-102342761D01*
X147931000Y-102247523D01*
X147931000Y-101866571D01*
X147883380Y-101771333D01*
X147788142Y-101723714D01*
X147597666Y-101723714D01*
X147502428Y-101771333D01*
X147454809Y-101866571D01*
X147454809Y-101961809D01*
X147931000Y-102057047D01*
X147073857Y-102342761D02*
X146978619Y-102390380D01*
X146788142Y-102390380D01*
X146692904Y-102342761D01*
X146645285Y-102247523D01*
X146645285Y-102199904D01*
X146692904Y-102104666D01*
X146788142Y-102057047D01*
X146931000Y-102057047D01*
X147026238Y-102009428D01*
X147073857Y-101914190D01*
X147073857Y-101866571D01*
X147026238Y-101771333D01*
X146931000Y-101723714D01*
X146788142Y-101723714D01*
X146692904Y-101771333D01*
X146216714Y-102390380D02*
X146216714Y-101723714D01*
X146216714Y-101390380D02*
X146264333Y-101438000D01*
X146216714Y-101485619D01*
X146169095Y-101438000D01*
X146216714Y-101390380D01*
X146216714Y-101485619D01*
X145311952Y-101723714D02*
X145311952Y-102533238D01*
X145359571Y-102628476D01*
X145407190Y-102676095D01*
X145502428Y-102723714D01*
X145645285Y-102723714D01*
X145740523Y-102676095D01*
X145311952Y-102342761D02*
X145407190Y-102390380D01*
X145597666Y-102390380D01*
X145692904Y-102342761D01*
X145740523Y-102295142D01*
X145788142Y-102199904D01*
X145788142Y-101914190D01*
X145740523Y-101818952D01*
X145692904Y-101771333D01*
X145597666Y-101723714D01*
X145407190Y-101723714D01*
X145311952Y-101771333D01*
X144835761Y-101723714D02*
X144835761Y-102390380D01*
X144835761Y-101818952D02*
X144788142Y-101771333D01*
X144692904Y-101723714D01*
X144550047Y-101723714D01*
X144454809Y-101771333D01*
X144407190Y-101866571D01*
X144407190Y-102390380D01*
X143550047Y-102342761D02*
X143645285Y-102390380D01*
X143835761Y-102390380D01*
X143931000Y-102342761D01*
X143978619Y-102247523D01*
X143978619Y-101866571D01*
X143931000Y-101771333D01*
X143835761Y-101723714D01*
X143645285Y-101723714D01*
X143550047Y-101771333D01*
X143502428Y-101866571D01*
X143502428Y-101961809D01*
X143978619Y-102057047D01*
X142645285Y-102390380D02*
X142645285Y-101390380D01*
X142645285Y-102342761D02*
X142740523Y-102390380D01*
X142931000Y-102390380D01*
X143026238Y-102342761D01*
X143073857Y-102295142D01*
X143121476Y-102199904D01*
X143121476Y-101914190D01*
X143073857Y-101818952D01*
X143026238Y-101771333D01*
X142931000Y-101723714D01*
X142740523Y-101723714D01*
X142645285Y-101771333D01*
X141407190Y-102390380D02*
X141407190Y-101390380D01*
X141407190Y-101771333D02*
X141311952Y-101723714D01*
X141121476Y-101723714D01*
X141026238Y-101771333D01*
X140978619Y-101818952D01*
X140931000Y-101914190D01*
X140931000Y-102199904D01*
X140978619Y-102295142D01*
X141026238Y-102342761D01*
X141121476Y-102390380D01*
X141311952Y-102390380D01*
X141407190Y-102342761D01*
X140597666Y-101723714D02*
X140359571Y-102390380D01*
X140121476Y-101723714D02*
X140359571Y-102390380D01*
X140454809Y-102628476D01*
X140502428Y-102676095D01*
X140597666Y-102723714D01*
X150716714Y-103524190D02*
X150764333Y-103476571D01*
X150859571Y-103428952D01*
X150954809Y-103428952D01*
X151050047Y-103476571D01*
X151097666Y-103524190D01*
X151145285Y-103619428D01*
X151145285Y-103714666D01*
X151097666Y-103809904D01*
X151050047Y-103857523D01*
X150954809Y-103905142D01*
X150859571Y-103905142D01*
X150764333Y-103857523D01*
X150716714Y-103809904D01*
X150716714Y-103428952D02*
X150716714Y-103809904D01*
X150669095Y-103857523D01*
X150621476Y-103857523D01*
X150526238Y-103809904D01*
X150478619Y-103714666D01*
X150478619Y-103476571D01*
X150573857Y-103333714D01*
X150716714Y-103238476D01*
X150907190Y-103190857D01*
X151097666Y-103238476D01*
X151240523Y-103333714D01*
X151335761Y-103476571D01*
X151383380Y-103667047D01*
X151335761Y-103857523D01*
X151240523Y-104000380D01*
X151097666Y-104095619D01*
X150907190Y-104143238D01*
X150716714Y-104095619D01*
X150573857Y-104000380D01*
X150097666Y-103952761D02*
X150002428Y-104000380D01*
X149811952Y-104000380D01*
X149716714Y-103952761D01*
X149669095Y-103857523D01*
X149669095Y-103809904D01*
X149716714Y-103714666D01*
X149811952Y-103667047D01*
X149954809Y-103667047D01*
X150050047Y-103619428D01*
X150097666Y-103524190D01*
X150097666Y-103476571D01*
X150050047Y-103381333D01*
X149954809Y-103333714D01*
X149811952Y-103333714D01*
X149716714Y-103381333D01*
X149335761Y-103333714D02*
X149145285Y-104000380D01*
X148954809Y-103524190D01*
X148764333Y-104000380D01*
X148573857Y-103333714D01*
X147764333Y-104000380D02*
X147764333Y-103476571D01*
X147811952Y-103381333D01*
X147907190Y-103333714D01*
X148097666Y-103333714D01*
X148192904Y-103381333D01*
X147764333Y-103952761D02*
X147859571Y-104000380D01*
X148097666Y-104000380D01*
X148192904Y-103952761D01*
X148240523Y-103857523D01*
X148240523Y-103762285D01*
X148192904Y-103667047D01*
X148097666Y-103619428D01*
X147859571Y-103619428D01*
X147764333Y-103571809D01*
X147288142Y-103333714D02*
X147288142Y-104000380D01*
X147288142Y-103428952D02*
X147240523Y-103381333D01*
X147145285Y-103333714D01*
X147002428Y-103333714D01*
X146907190Y-103381333D01*
X146859571Y-103476571D01*
X146859571Y-104000380D01*
X146621476Y-104095619D02*
X145859571Y-104095619D01*
X145621476Y-104000380D02*
X145621476Y-103333714D01*
X145621476Y-103428952D02*
X145573857Y-103381333D01*
X145478619Y-103333714D01*
X145335761Y-103333714D01*
X145240523Y-103381333D01*
X145192904Y-103476571D01*
X145192904Y-104000380D01*
X145192904Y-103476571D02*
X145145285Y-103381333D01*
X145050047Y-103333714D01*
X144907190Y-103333714D01*
X144811952Y-103381333D01*
X144764333Y-103476571D01*
X144764333Y-104000380D01*
X143859571Y-104000380D02*
X143859571Y-103476571D01*
X143907190Y-103381333D01*
X144002428Y-103333714D01*
X144192904Y-103333714D01*
X144288142Y-103381333D01*
X143859571Y-103952761D02*
X143954809Y-104000380D01*
X144192904Y-104000380D01*
X144288142Y-103952761D01*
X144335761Y-103857523D01*
X144335761Y-103762285D01*
X144288142Y-103667047D01*
X144192904Y-103619428D01*
X143954809Y-103619428D01*
X143859571Y-103571809D01*
X143526238Y-103333714D02*
X143145285Y-103333714D01*
X143383380Y-103000380D02*
X143383380Y-103857523D01*
X143335761Y-103952761D01*
X143240523Y-104000380D01*
X143145285Y-104000380D01*
X142383380Y-103952761D02*
X142478619Y-104000380D01*
X142669095Y-104000380D01*
X142764333Y-103952761D01*
X142811952Y-103905142D01*
X142859571Y-103809904D01*
X142859571Y-103524190D01*
X142811952Y-103428952D01*
X142764333Y-103381333D01*
X142669095Y-103333714D01*
X142478619Y-103333714D01*
X142383380Y-103381333D01*
X141954809Y-104000380D02*
X141954809Y-103000380D01*
X141526238Y-104000380D02*
X141526238Y-103476571D01*
X141573857Y-103381333D01*
X141669095Y-103333714D01*
X141811952Y-103333714D01*
X141907190Y-103381333D01*
X141954809Y-103428952D01*
D10*
X87374714Y-100682904D02*
X87374714Y-99882904D01*
X87108047Y-100454333D01*
X86841380Y-99882904D01*
X86841380Y-100682904D01*
X86117571Y-100682904D02*
X86117571Y-100263857D01*
X86155666Y-100187666D01*
X86231857Y-100149571D01*
X86384238Y-100149571D01*
X86460428Y-100187666D01*
X86117571Y-100644809D02*
X86193761Y-100682904D01*
X86384238Y-100682904D01*
X86460428Y-100644809D01*
X86498523Y-100568619D01*
X86498523Y-100492428D01*
X86460428Y-100416238D01*
X86384238Y-100378142D01*
X86193761Y-100378142D01*
X86117571Y-100340047D01*
X85850904Y-100149571D02*
X85546142Y-100149571D01*
X85736619Y-99882904D02*
X85736619Y-100568619D01*
X85698523Y-100644809D01*
X85622333Y-100682904D01*
X85546142Y-100682904D01*
X85317571Y-100644809D02*
X85241380Y-100682904D01*
X85089000Y-100682904D01*
X85012809Y-100644809D01*
X84974714Y-100568619D01*
X84974714Y-100530523D01*
X85012809Y-100454333D01*
X85089000Y-100416238D01*
X85203285Y-100416238D01*
X85279476Y-100378142D01*
X85317571Y-100301952D01*
X85317571Y-100263857D01*
X85279476Y-100187666D01*
X85203285Y-100149571D01*
X85089000Y-100149571D01*
X85012809Y-100187666D01*
X84289000Y-100149571D02*
X84289000Y-100682904D01*
X84631857Y-100149571D02*
X84631857Y-100568619D01*
X84593761Y-100644809D01*
X84517571Y-100682904D01*
X84403285Y-100682904D01*
X84327095Y-100644809D01*
X84289000Y-100606714D01*
X83908047Y-100682904D02*
X83908047Y-100149571D01*
X83908047Y-100225761D02*
X83869952Y-100187666D01*
X83793761Y-100149571D01*
X83679476Y-100149571D01*
X83603285Y-100187666D01*
X83565190Y-100263857D01*
X83565190Y-100682904D01*
X83565190Y-100263857D02*
X83527095Y-100187666D01*
X83450904Y-100149571D01*
X83336619Y-100149571D01*
X83260428Y-100187666D01*
X83222333Y-100263857D01*
X83222333Y-100682904D01*
X82727095Y-100682904D02*
X82803285Y-100644809D01*
X82841380Y-100606714D01*
X82879476Y-100530523D01*
X82879476Y-100301952D01*
X82841380Y-100225761D01*
X82803285Y-100187666D01*
X82727095Y-100149571D01*
X82612809Y-100149571D01*
X82536619Y-100187666D01*
X82498523Y-100225761D01*
X82460428Y-100301952D01*
X82460428Y-100530523D01*
X82498523Y-100606714D01*
X82536619Y-100644809D01*
X82612809Y-100682904D01*
X82727095Y-100682904D01*
X82231857Y-100149571D02*
X81927095Y-100149571D01*
X82117571Y-99882904D02*
X82117571Y-100568619D01*
X82079476Y-100644809D01*
X82003285Y-100682904D01*
X81927095Y-100682904D01*
X81546142Y-100682904D02*
X81622333Y-100644809D01*
X81660428Y-100606714D01*
X81698523Y-100530523D01*
X81698523Y-100301952D01*
X81660428Y-100225761D01*
X81622333Y-100187666D01*
X81546142Y-100149571D01*
X81431857Y-100149571D01*
X81355666Y-100187666D01*
X81317571Y-100225761D01*
X81279476Y-100301952D01*
X81279476Y-100530523D01*
X81317571Y-100606714D01*
X81355666Y-100644809D01*
X81431857Y-100682904D01*
X81546142Y-100682904D01*
X80327095Y-100682904D02*
X80327095Y-99882904D01*
X80022333Y-99882904D01*
X79946142Y-99921000D01*
X79908047Y-99959095D01*
X79869952Y-100035285D01*
X79869952Y-100149571D01*
X79908047Y-100225761D01*
X79946142Y-100263857D01*
X80022333Y-100301952D01*
X80327095Y-100301952D01*
X79222333Y-100644809D02*
X79298523Y-100682904D01*
X79450904Y-100682904D01*
X79527095Y-100644809D01*
X79565190Y-100568619D01*
X79565190Y-100263857D01*
X79527095Y-100187666D01*
X79450904Y-100149571D01*
X79298523Y-100149571D01*
X79222333Y-100187666D01*
X79184238Y-100263857D01*
X79184238Y-100340047D01*
X79565190Y-100416238D01*
X78841380Y-100682904D02*
X78841380Y-100149571D01*
X78841380Y-100301952D02*
X78803285Y-100225761D01*
X78765190Y-100187666D01*
X78689000Y-100149571D01*
X78612809Y-100149571D01*
X78460428Y-100149571D02*
X78155666Y-100149571D01*
X78346142Y-100682904D02*
X78346142Y-99997190D01*
X78308047Y-99921000D01*
X78231857Y-99882904D01*
X78155666Y-99882904D01*
X77774714Y-100682904D02*
X77850904Y-100644809D01*
X77889000Y-100606714D01*
X77927095Y-100530523D01*
X77927095Y-100301952D01*
X77889000Y-100225761D01*
X77850904Y-100187666D01*
X77774714Y-100149571D01*
X77660428Y-100149571D01*
X77584238Y-100187666D01*
X77546142Y-100225761D01*
X77508047Y-100301952D01*
X77508047Y-100530523D01*
X77546142Y-100606714D01*
X77584238Y-100644809D01*
X77660428Y-100682904D01*
X77774714Y-100682904D01*
X77165190Y-100682904D02*
X77165190Y-100149571D01*
X77165190Y-100301952D02*
X77127095Y-100225761D01*
X77089000Y-100187666D01*
X77012809Y-100149571D01*
X76936619Y-100149571D01*
X76669952Y-100682904D02*
X76669952Y-100149571D01*
X76669952Y-100225761D02*
X76631857Y-100187666D01*
X76555666Y-100149571D01*
X76441380Y-100149571D01*
X76365190Y-100187666D01*
X76327095Y-100263857D01*
X76327095Y-100682904D01*
X76327095Y-100263857D02*
X76289000Y-100187666D01*
X76212809Y-100149571D01*
X76098523Y-100149571D01*
X76022333Y-100187666D01*
X75984238Y-100263857D01*
X75984238Y-100682904D01*
X75603285Y-100682904D02*
X75603285Y-100149571D01*
X75603285Y-99882904D02*
X75641380Y-99921000D01*
X75603285Y-99959095D01*
X75565190Y-99921000D01*
X75603285Y-99882904D01*
X75603285Y-99959095D01*
X75222333Y-100149571D02*
X75222333Y-100682904D01*
X75222333Y-100225761D02*
X75184238Y-100187666D01*
X75108047Y-100149571D01*
X74993761Y-100149571D01*
X74917571Y-100187666D01*
X74879476Y-100263857D01*
X74879476Y-100682904D01*
X74155666Y-100149571D02*
X74155666Y-100797190D01*
X74193761Y-100873380D01*
X74231857Y-100911476D01*
X74308047Y-100949571D01*
X74422333Y-100949571D01*
X74498523Y-100911476D01*
X74155666Y-100644809D02*
X74231857Y-100682904D01*
X74384238Y-100682904D01*
X74460428Y-100644809D01*
X74498523Y-100606714D01*
X74536619Y-100530523D01*
X74536619Y-100301952D01*
X74498523Y-100225761D01*
X74460428Y-100187666D01*
X74384238Y-100149571D01*
X74231857Y-100149571D01*
X74155666Y-100187666D01*
X73203285Y-100454333D02*
X72822333Y-100454333D01*
X73279476Y-100682904D02*
X73012809Y-99882904D01*
X72746142Y-100682904D01*
X72479476Y-100682904D02*
X72479476Y-100149571D01*
X72479476Y-100301952D02*
X72441380Y-100225761D01*
X72403285Y-100187666D01*
X72327095Y-100149571D01*
X72250904Y-100149571D01*
X72098523Y-100149571D02*
X71793761Y-100149571D01*
X71984238Y-99882904D02*
X71984238Y-100568619D01*
X71946142Y-100644809D01*
X71869952Y-100682904D01*
X71793761Y-100682904D01*
X71565190Y-100644809D02*
X71489000Y-100682904D01*
X71336619Y-100682904D01*
X71260428Y-100644809D01*
X71222333Y-100568619D01*
X71222333Y-100530523D01*
X71260428Y-100454333D01*
X71336619Y-100416238D01*
X71450904Y-100416238D01*
X71527095Y-100378142D01*
X71565190Y-100301952D01*
X71565190Y-100263857D01*
X71527095Y-100187666D01*
X71450904Y-100149571D01*
X71336619Y-100149571D01*
X71260428Y-100187666D01*
X69812809Y-100606714D02*
X69850904Y-100644809D01*
X69965190Y-100682904D01*
X70041380Y-100682904D01*
X70155666Y-100644809D01*
X70231857Y-100568619D01*
X70269952Y-100492428D01*
X70308047Y-100340047D01*
X70308047Y-100225761D01*
X70269952Y-100073380D01*
X70231857Y-99997190D01*
X70155666Y-99921000D01*
X70041380Y-99882904D01*
X69965190Y-99882904D01*
X69850904Y-99921000D01*
X69812809Y-99959095D01*
X69165190Y-100644809D02*
X69241380Y-100682904D01*
X69393761Y-100682904D01*
X69469952Y-100644809D01*
X69508047Y-100568619D01*
X69508047Y-100263857D01*
X69469952Y-100187666D01*
X69393761Y-100149571D01*
X69241380Y-100149571D01*
X69165190Y-100187666D01*
X69127095Y-100263857D01*
X69127095Y-100340047D01*
X69508047Y-100416238D01*
X68784238Y-100149571D02*
X68784238Y-100682904D01*
X68784238Y-100225761D02*
X68746142Y-100187666D01*
X68669952Y-100149571D01*
X68555666Y-100149571D01*
X68479476Y-100187666D01*
X68441380Y-100263857D01*
X68441380Y-100682904D01*
X68174714Y-100149571D02*
X67869952Y-100149571D01*
X68060428Y-99882904D02*
X68060428Y-100568619D01*
X68022333Y-100644809D01*
X67946142Y-100682904D01*
X67869952Y-100682904D01*
X67603285Y-100682904D02*
X67603285Y-100149571D01*
X67603285Y-100301952D02*
X67565190Y-100225761D01*
X67527095Y-100187666D01*
X67450904Y-100149571D01*
X67374714Y-100149571D01*
X66803285Y-100644809D02*
X66879476Y-100682904D01*
X67031857Y-100682904D01*
X67108047Y-100644809D01*
X67146142Y-100568619D01*
X67146142Y-100263857D01*
X67108047Y-100187666D01*
X67031857Y-100149571D01*
X66879476Y-100149571D01*
X66803285Y-100187666D01*
X66765190Y-100263857D01*
X66765190Y-100340047D01*
X67146142Y-100416238D01*
X82136619Y-101970904D02*
X82136619Y-101170904D01*
X81869952Y-101742333D01*
X81603285Y-101170904D01*
X81603285Y-101970904D01*
X80879476Y-101970904D02*
X80879476Y-101551857D01*
X80917571Y-101475666D01*
X80993761Y-101437571D01*
X81146142Y-101437571D01*
X81222333Y-101475666D01*
X80879476Y-101932809D02*
X80955666Y-101970904D01*
X81146142Y-101970904D01*
X81222333Y-101932809D01*
X81260428Y-101856619D01*
X81260428Y-101780428D01*
X81222333Y-101704238D01*
X81146142Y-101666142D01*
X80955666Y-101666142D01*
X80879476Y-101628047D01*
X80574714Y-101437571D02*
X80384238Y-101970904D01*
X80193761Y-101437571D02*
X80384238Y-101970904D01*
X80460428Y-102161380D01*
X80498523Y-102199476D01*
X80574714Y-102237571D01*
X78860428Y-101970904D02*
X79317571Y-101970904D01*
X79089000Y-101970904D02*
X79089000Y-101170904D01*
X79165190Y-101285190D01*
X79241380Y-101361380D01*
X79317571Y-101399476D01*
X78098523Y-101970904D02*
X78555666Y-101970904D01*
X78327095Y-101970904D02*
X78327095Y-101170904D01*
X78403285Y-101285190D01*
X78479476Y-101361380D01*
X78555666Y-101399476D01*
X77869952Y-101437571D02*
X77565190Y-101437571D01*
X77755666Y-101170904D02*
X77755666Y-101856619D01*
X77717571Y-101932809D01*
X77641380Y-101970904D01*
X77565190Y-101970904D01*
X77298523Y-101970904D02*
X77298523Y-101170904D01*
X76955666Y-101970904D02*
X76955666Y-101551857D01*
X76993761Y-101475666D01*
X77069952Y-101437571D01*
X77184238Y-101437571D01*
X77260428Y-101475666D01*
X77298523Y-101513761D01*
X75965190Y-101666142D02*
X75355666Y-101666142D01*
X73946142Y-101970904D02*
X74403285Y-101970904D01*
X74174714Y-101970904D02*
X74174714Y-101170904D01*
X74250904Y-101285190D01*
X74327095Y-101361380D01*
X74403285Y-101399476D01*
X73679476Y-101170904D02*
X73184238Y-101170904D01*
X73450904Y-101475666D01*
X73336619Y-101475666D01*
X73260428Y-101513761D01*
X73222333Y-101551857D01*
X73184238Y-101628047D01*
X73184238Y-101818523D01*
X73222333Y-101894714D01*
X73260428Y-101932809D01*
X73336619Y-101970904D01*
X73565190Y-101970904D01*
X73641380Y-101932809D01*
X73679476Y-101894714D01*
X72955666Y-101437571D02*
X72650904Y-101437571D01*
X72841380Y-101170904D02*
X72841380Y-101856619D01*
X72803285Y-101932809D01*
X72727095Y-101970904D01*
X72650904Y-101970904D01*
X72384238Y-101970904D02*
X72384238Y-101170904D01*
X72041380Y-101970904D02*
X72041380Y-101551857D01*
X72079476Y-101475666D01*
X72155666Y-101437571D01*
X72269952Y-101437571D01*
X72346142Y-101475666D01*
X72384238Y-101513761D01*
D11*
X102734285Y-102390380D02*
X102734285Y-101390380D01*
X102353333Y-101390380D01*
X102258095Y-101438000D01*
X102210476Y-101485619D01*
X102162857Y-101580857D01*
X102162857Y-101723714D01*
X102210476Y-101818952D01*
X102258095Y-101866571D01*
X102353333Y-101914190D01*
X102734285Y-101914190D01*
X101162857Y-102295142D02*
X101210476Y-102342761D01*
X101353333Y-102390380D01*
X101448571Y-102390380D01*
X101591428Y-102342761D01*
X101686666Y-102247523D01*
X101734285Y-102152285D01*
X101781904Y-101961809D01*
X101781904Y-101818952D01*
X101734285Y-101628476D01*
X101686666Y-101533238D01*
X101591428Y-101438000D01*
X101448571Y-101390380D01*
X101353333Y-101390380D01*
X101210476Y-101438000D01*
X101162857Y-101485619D01*
X100400952Y-101866571D02*
X100258095Y-101914190D01*
X100210476Y-101961809D01*
X100162857Y-102057047D01*
X100162857Y-102199904D01*
X100210476Y-102295142D01*
X100258095Y-102342761D01*
X100353333Y-102390380D01*
X100734285Y-102390380D01*
X100734285Y-101390380D01*
X100400952Y-101390380D01*
X100305714Y-101438000D01*
X100258095Y-101485619D01*
X100210476Y-101580857D01*
X100210476Y-101676095D01*
X100258095Y-101771333D01*
X100305714Y-101818952D01*
X100400952Y-101866571D01*
X100734285Y-101866571D01*
X98972380Y-102390380D02*
X98972380Y-101390380D01*
X98734285Y-101390380D01*
X98591428Y-101438000D01*
X98496190Y-101533238D01*
X98448571Y-101628476D01*
X98400952Y-101818952D01*
X98400952Y-101961809D01*
X98448571Y-102152285D01*
X98496190Y-102247523D01*
X98591428Y-102342761D01*
X98734285Y-102390380D01*
X98972380Y-102390380D01*
X97591428Y-102342761D02*
X97686666Y-102390380D01*
X97877142Y-102390380D01*
X97972380Y-102342761D01*
X98020000Y-102247523D01*
X98020000Y-101866571D01*
X97972380Y-101771333D01*
X97877142Y-101723714D01*
X97686666Y-101723714D01*
X97591428Y-101771333D01*
X97543809Y-101866571D01*
X97543809Y-101961809D01*
X98020000Y-102057047D01*
X97162857Y-102342761D02*
X97067619Y-102390380D01*
X96877142Y-102390380D01*
X96781904Y-102342761D01*
X96734285Y-102247523D01*
X96734285Y-102199904D01*
X96781904Y-102104666D01*
X96877142Y-102057047D01*
X97020000Y-102057047D01*
X97115238Y-102009428D01*
X97162857Y-101914190D01*
X97162857Y-101866571D01*
X97115238Y-101771333D01*
X97020000Y-101723714D01*
X96877142Y-101723714D01*
X96781904Y-101771333D01*
X96305714Y-102390380D02*
X96305714Y-101723714D01*
X96305714Y-101390380D02*
X96353333Y-101438000D01*
X96305714Y-101485619D01*
X96258095Y-101438000D01*
X96305714Y-101390380D01*
X96305714Y-101485619D01*
X95400952Y-101723714D02*
X95400952Y-102533238D01*
X95448571Y-102628476D01*
X95496190Y-102676095D01*
X95591428Y-102723714D01*
X95734285Y-102723714D01*
X95829523Y-102676095D01*
X95400952Y-102342761D02*
X95496190Y-102390380D01*
X95686666Y-102390380D01*
X95781904Y-102342761D01*
X95829523Y-102295142D01*
X95877142Y-102199904D01*
X95877142Y-101914190D01*
X95829523Y-101818952D01*
X95781904Y-101771333D01*
X95686666Y-101723714D01*
X95496190Y-101723714D01*
X95400952Y-101771333D01*
X94924761Y-101723714D02*
X94924761Y-102390380D01*
X94924761Y-101818952D02*
X94877142Y-101771333D01*
X94781904Y-101723714D01*
X94639047Y-101723714D01*
X94543809Y-101771333D01*
X94496190Y-101866571D01*
X94496190Y-102390380D01*
X93639047Y-102342761D02*
X93734285Y-102390380D01*
X93924761Y-102390380D01*
X94020000Y-102342761D01*
X94067619Y-102247523D01*
X94067619Y-101866571D01*
X94020000Y-101771333D01*
X93924761Y-101723714D01*
X93734285Y-101723714D01*
X93639047Y-101771333D01*
X93591428Y-101866571D01*
X93591428Y-101961809D01*
X94067619Y-102057047D01*
X92734285Y-102390380D02*
X92734285Y-101390380D01*
X92734285Y-102342761D02*
X92829523Y-102390380D01*
X93020000Y-102390380D01*
X93115238Y-102342761D01*
X93162857Y-102295142D01*
X93210476Y-102199904D01*
X93210476Y-101914190D01*
X93162857Y-101818952D01*
X93115238Y-101771333D01*
X93020000Y-101723714D01*
X92829523Y-101723714D01*
X92734285Y-101771333D01*
X91496190Y-102390380D02*
X91496190Y-101390380D01*
X91496190Y-101771333D02*
X91400952Y-101723714D01*
X91210476Y-101723714D01*
X91115238Y-101771333D01*
X91067619Y-101818952D01*
X91020000Y-101914190D01*
X91020000Y-102199904D01*
X91067619Y-102295142D01*
X91115238Y-102342761D01*
X91210476Y-102390380D01*
X91400952Y-102390380D01*
X91496190Y-102342761D01*
X90686666Y-101723714D02*
X90448571Y-102390380D01*
X90210476Y-101723714D02*
X90448571Y-102390380D01*
X90543809Y-102628476D01*
X90591428Y-102676095D01*
X90686666Y-102723714D01*
X100805714Y-103524190D02*
X100853333Y-103476571D01*
X100948571Y-103428952D01*
X101043809Y-103428952D01*
X101139047Y-103476571D01*
X101186666Y-103524190D01*
X101234285Y-103619428D01*
X101234285Y-103714666D01*
X101186666Y-103809904D01*
X101139047Y-103857523D01*
X101043809Y-103905142D01*
X100948571Y-103905142D01*
X100853333Y-103857523D01*
X100805714Y-103809904D01*
X100805714Y-103428952D02*
X100805714Y-103809904D01*
X100758095Y-103857523D01*
X100710476Y-103857523D01*
X100615238Y-103809904D01*
X100567619Y-103714666D01*
X100567619Y-103476571D01*
X100662857Y-103333714D01*
X100805714Y-103238476D01*
X100996190Y-103190857D01*
X101186666Y-103238476D01*
X101329523Y-103333714D01*
X101424761Y-103476571D01*
X101472380Y-103667047D01*
X101424761Y-103857523D01*
X101329523Y-104000380D01*
X101186666Y-104095619D01*
X100996190Y-104143238D01*
X100805714Y-104095619D01*
X100662857Y-104000380D01*
X100186666Y-103952761D02*
X100091428Y-104000380D01*
X99900952Y-104000380D01*
X99805714Y-103952761D01*
X99758095Y-103857523D01*
X99758095Y-103809904D01*
X99805714Y-103714666D01*
X99900952Y-103667047D01*
X100043809Y-103667047D01*
X100139047Y-103619428D01*
X100186666Y-103524190D01*
X100186666Y-103476571D01*
X100139047Y-103381333D01*
X100043809Y-103333714D01*
X99900952Y-103333714D01*
X99805714Y-103381333D01*
X99424761Y-103333714D02*
X99234285Y-104000380D01*
X99043809Y-103524190D01*
X98853333Y-104000380D01*
X98662857Y-103333714D01*
X97853333Y-104000380D02*
X97853333Y-103476571D01*
X97900952Y-103381333D01*
X97996190Y-103333714D01*
X98186666Y-103333714D01*
X98281904Y-103381333D01*
X97853333Y-103952761D02*
X97948571Y-104000380D01*
X98186666Y-104000380D01*
X98281904Y-103952761D01*
X98329523Y-103857523D01*
X98329523Y-103762285D01*
X98281904Y-103667047D01*
X98186666Y-103619428D01*
X97948571Y-103619428D01*
X97853333Y-103571809D01*
X97377142Y-103333714D02*
X97377142Y-104000380D01*
X97377142Y-103428952D02*
X97329523Y-103381333D01*
X97234285Y-103333714D01*
X97091428Y-103333714D01*
X96996190Y-103381333D01*
X96948571Y-103476571D01*
X96948571Y-104000380D01*
X96710476Y-104095619D02*
X95948571Y-104095619D01*
X95710476Y-104000380D02*
X95710476Y-103333714D01*
X95710476Y-103428952D02*
X95662857Y-103381333D01*
X95567619Y-103333714D01*
X95424761Y-103333714D01*
X95329523Y-103381333D01*
X95281904Y-103476571D01*
X95281904Y-104000380D01*
X95281904Y-103476571D02*
X95234285Y-103381333D01*
X95139047Y-103333714D01*
X94996190Y-103333714D01*
X94900952Y-103381333D01*
X94853333Y-103476571D01*
X94853333Y-104000380D01*
X93948571Y-104000380D02*
X93948571Y-103476571D01*
X93996190Y-103381333D01*
X94091428Y-103333714D01*
X94281904Y-103333714D01*
X94377142Y-103381333D01*
X93948571Y-103952761D02*
X94043809Y-104000380D01*
X94281904Y-104000380D01*
X94377142Y-103952761D01*
X94424761Y-103857523D01*
X94424761Y-103762285D01*
X94377142Y-103667047D01*
X94281904Y-103619428D01*
X94043809Y-103619428D01*
X93948571Y-103571809D01*
X93615238Y-103333714D02*
X93234285Y-103333714D01*
X93472380Y-103000380D02*
X93472380Y-103857523D01*
X93424761Y-103952761D01*
X93329523Y-104000380D01*
X93234285Y-104000380D01*
X92472380Y-103952761D02*
X92567619Y-104000380D01*
X92758095Y-104000380D01*
X92853333Y-103952761D01*
X92900952Y-103905142D01*
X92948571Y-103809904D01*
X92948571Y-103524190D01*
X92900952Y-103428952D01*
X92853333Y-103381333D01*
X92758095Y-103333714D01*
X92567619Y-103333714D01*
X92472380Y-103381333D01*
X92043809Y-104000380D02*
X92043809Y-103000380D01*
X91615238Y-104000380D02*
X91615238Y-103476571D01*
X91662857Y-103381333D01*
X91758095Y-103333714D01*
X91900952Y-103333714D01*
X91996190Y-103381333D01*
X92043809Y-103428952D01*
X152645285Y-57305380D02*
X152645285Y-56305380D01*
X152264333Y-56305380D01*
X152169095Y-56353000D01*
X152121476Y-56400619D01*
X152073857Y-56495857D01*
X152073857Y-56638714D01*
X152121476Y-56733952D01*
X152169095Y-56781571D01*
X152264333Y-56829190D01*
X152645285Y-56829190D01*
X151073857Y-57210142D02*
X151121476Y-57257761D01*
X151264333Y-57305380D01*
X151359571Y-57305380D01*
X151502428Y-57257761D01*
X151597666Y-57162523D01*
X151645285Y-57067285D01*
X151692904Y-56876809D01*
X151692904Y-56733952D01*
X151645285Y-56543476D01*
X151597666Y-56448238D01*
X151502428Y-56353000D01*
X151359571Y-56305380D01*
X151264333Y-56305380D01*
X151121476Y-56353000D01*
X151073857Y-56400619D01*
X150311952Y-56781571D02*
X150169095Y-56829190D01*
X150121476Y-56876809D01*
X150073857Y-56972047D01*
X150073857Y-57114904D01*
X150121476Y-57210142D01*
X150169095Y-57257761D01*
X150264333Y-57305380D01*
X150645285Y-57305380D01*
X150645285Y-56305380D01*
X150311952Y-56305380D01*
X150216714Y-56353000D01*
X150169095Y-56400619D01*
X150121476Y-56495857D01*
X150121476Y-56591095D01*
X150169095Y-56686333D01*
X150216714Y-56733952D01*
X150311952Y-56781571D01*
X150645285Y-56781571D01*
X148883380Y-57305380D02*
X148883380Y-56305380D01*
X148645285Y-56305380D01*
X148502428Y-56353000D01*
X148407190Y-56448238D01*
X148359571Y-56543476D01*
X148311952Y-56733952D01*
X148311952Y-56876809D01*
X148359571Y-57067285D01*
X148407190Y-57162523D01*
X148502428Y-57257761D01*
X148645285Y-57305380D01*
X148883380Y-57305380D01*
X147502428Y-57257761D02*
X147597666Y-57305380D01*
X147788142Y-57305380D01*
X147883380Y-57257761D01*
X147931000Y-57162523D01*
X147931000Y-56781571D01*
X147883380Y-56686333D01*
X147788142Y-56638714D01*
X147597666Y-56638714D01*
X147502428Y-56686333D01*
X147454809Y-56781571D01*
X147454809Y-56876809D01*
X147931000Y-56972047D01*
X147073857Y-57257761D02*
X146978619Y-57305380D01*
X146788142Y-57305380D01*
X146692904Y-57257761D01*
X146645285Y-57162523D01*
X146645285Y-57114904D01*
X146692904Y-57019666D01*
X146788142Y-56972047D01*
X146931000Y-56972047D01*
X147026238Y-56924428D01*
X147073857Y-56829190D01*
X147073857Y-56781571D01*
X147026238Y-56686333D01*
X146931000Y-56638714D01*
X146788142Y-56638714D01*
X146692904Y-56686333D01*
X146216714Y-57305380D02*
X146216714Y-56638714D01*
X146216714Y-56305380D02*
X146264333Y-56353000D01*
X146216714Y-56400619D01*
X146169095Y-56353000D01*
X146216714Y-56305380D01*
X146216714Y-56400619D01*
X145311952Y-56638714D02*
X145311952Y-57448238D01*
X145359571Y-57543476D01*
X145407190Y-57591095D01*
X145502428Y-57638714D01*
X145645285Y-57638714D01*
X145740523Y-57591095D01*
X145311952Y-57257761D02*
X145407190Y-57305380D01*
X145597666Y-57305380D01*
X145692904Y-57257761D01*
X145740523Y-57210142D01*
X145788142Y-57114904D01*
X145788142Y-56829190D01*
X145740523Y-56733952D01*
X145692904Y-56686333D01*
X145597666Y-56638714D01*
X145407190Y-56638714D01*
X145311952Y-56686333D01*
X144835761Y-56638714D02*
X144835761Y-57305380D01*
X144835761Y-56733952D02*
X144788142Y-56686333D01*
X144692904Y-56638714D01*
X144550047Y-56638714D01*
X144454809Y-56686333D01*
X144407190Y-56781571D01*
X144407190Y-57305380D01*
X143550047Y-57257761D02*
X143645285Y-57305380D01*
X143835761Y-57305380D01*
X143931000Y-57257761D01*
X143978619Y-57162523D01*
X143978619Y-56781571D01*
X143931000Y-56686333D01*
X143835761Y-56638714D01*
X143645285Y-56638714D01*
X143550047Y-56686333D01*
X143502428Y-56781571D01*
X143502428Y-56876809D01*
X143978619Y-56972047D01*
X142645285Y-57305380D02*
X142645285Y-56305380D01*
X142645285Y-57257761D02*
X142740523Y-57305380D01*
X142931000Y-57305380D01*
X143026238Y-57257761D01*
X143073857Y-57210142D01*
X143121476Y-57114904D01*
X143121476Y-56829190D01*
X143073857Y-56733952D01*
X143026238Y-56686333D01*
X142931000Y-56638714D01*
X142740523Y-56638714D01*
X142645285Y-56686333D01*
X141407190Y-57305380D02*
X141407190Y-56305380D01*
X141407190Y-56686333D02*
X141311952Y-56638714D01*
X141121476Y-56638714D01*
X141026238Y-56686333D01*
X140978619Y-56733952D01*
X140931000Y-56829190D01*
X140931000Y-57114904D01*
X140978619Y-57210142D01*
X141026238Y-57257761D01*
X141121476Y-57305380D01*
X141311952Y-57305380D01*
X141407190Y-57257761D01*
X140597666Y-56638714D02*
X140359571Y-57305380D01*
X140121476Y-56638714D02*
X140359571Y-57305380D01*
X140454809Y-57543476D01*
X140502428Y-57591095D01*
X140597666Y-57638714D01*
X150716714Y-58439190D02*
X150764333Y-58391571D01*
X150859571Y-58343952D01*
X150954809Y-58343952D01*
X151050047Y-58391571D01*
X151097666Y-58439190D01*
X151145285Y-58534428D01*
X151145285Y-58629666D01*
X151097666Y-58724904D01*
X151050047Y-58772523D01*
X150954809Y-58820142D01*
X150859571Y-58820142D01*
X150764333Y-58772523D01*
X150716714Y-58724904D01*
X150716714Y-58343952D02*
X150716714Y-58724904D01*
X150669095Y-58772523D01*
X150621476Y-58772523D01*
X150526238Y-58724904D01*
X150478619Y-58629666D01*
X150478619Y-58391571D01*
X150573857Y-58248714D01*
X150716714Y-58153476D01*
X150907190Y-58105857D01*
X151097666Y-58153476D01*
X151240523Y-58248714D01*
X151335761Y-58391571D01*
X151383380Y-58582047D01*
X151335761Y-58772523D01*
X151240523Y-58915380D01*
X151097666Y-59010619D01*
X150907190Y-59058238D01*
X150716714Y-59010619D01*
X150573857Y-58915380D01*
X150097666Y-58867761D02*
X150002428Y-58915380D01*
X149811952Y-58915380D01*
X149716714Y-58867761D01*
X149669095Y-58772523D01*
X149669095Y-58724904D01*
X149716714Y-58629666D01*
X149811952Y-58582047D01*
X149954809Y-58582047D01*
X150050047Y-58534428D01*
X150097666Y-58439190D01*
X150097666Y-58391571D01*
X150050047Y-58296333D01*
X149954809Y-58248714D01*
X149811952Y-58248714D01*
X149716714Y-58296333D01*
X149335761Y-58248714D02*
X149145285Y-58915380D01*
X148954809Y-58439190D01*
X148764333Y-58915380D01*
X148573857Y-58248714D01*
X147764333Y-58915380D02*
X147764333Y-58391571D01*
X147811952Y-58296333D01*
X147907190Y-58248714D01*
X148097666Y-58248714D01*
X148192904Y-58296333D01*
X147764333Y-58867761D02*
X147859571Y-58915380D01*
X148097666Y-58915380D01*
X148192904Y-58867761D01*
X148240523Y-58772523D01*
X148240523Y-58677285D01*
X148192904Y-58582047D01*
X148097666Y-58534428D01*
X147859571Y-58534428D01*
X147764333Y-58486809D01*
X147288142Y-58248714D02*
X147288142Y-58915380D01*
X147288142Y-58343952D02*
X147240523Y-58296333D01*
X147145285Y-58248714D01*
X147002428Y-58248714D01*
X146907190Y-58296333D01*
X146859571Y-58391571D01*
X146859571Y-58915380D01*
X146621476Y-59010619D02*
X145859571Y-59010619D01*
X145621476Y-58915380D02*
X145621476Y-58248714D01*
X145621476Y-58343952D02*
X145573857Y-58296333D01*
X145478619Y-58248714D01*
X145335761Y-58248714D01*
X145240523Y-58296333D01*
X145192904Y-58391571D01*
X145192904Y-58915380D01*
X145192904Y-58391571D02*
X145145285Y-58296333D01*
X145050047Y-58248714D01*
X144907190Y-58248714D01*
X144811952Y-58296333D01*
X144764333Y-58391571D01*
X144764333Y-58915380D01*
X143859571Y-58915380D02*
X143859571Y-58391571D01*
X143907190Y-58296333D01*
X144002428Y-58248714D01*
X144192904Y-58248714D01*
X144288142Y-58296333D01*
X143859571Y-58867761D02*
X143954809Y-58915380D01*
X144192904Y-58915380D01*
X144288142Y-58867761D01*
X144335761Y-58772523D01*
X144335761Y-58677285D01*
X144288142Y-58582047D01*
X144192904Y-58534428D01*
X143954809Y-58534428D01*
X143859571Y-58486809D01*
X143526238Y-58248714D02*
X143145285Y-58248714D01*
X143383380Y-57915380D02*
X143383380Y-58772523D01*
X143335761Y-58867761D01*
X143240523Y-58915380D01*
X143145285Y-58915380D01*
X142383380Y-58867761D02*
X142478619Y-58915380D01*
X142669095Y-58915380D01*
X142764333Y-58867761D01*
X142811952Y-58820142D01*
X142859571Y-58724904D01*
X142859571Y-58439190D01*
X142811952Y-58343952D01*
X142764333Y-58296333D01*
X142669095Y-58248714D01*
X142478619Y-58248714D01*
X142383380Y-58296333D01*
X141954809Y-58915380D02*
X141954809Y-57915380D01*
X141526238Y-58915380D02*
X141526238Y-58391571D01*
X141573857Y-58296333D01*
X141669095Y-58248714D01*
X141811952Y-58248714D01*
X141907190Y-58296333D01*
X141954809Y-58343952D01*
X102734285Y-57305380D02*
X102734285Y-56305380D01*
X102353333Y-56305380D01*
X102258095Y-56353000D01*
X102210476Y-56400619D01*
X102162857Y-56495857D01*
X102162857Y-56638714D01*
X102210476Y-56733952D01*
X102258095Y-56781571D01*
X102353333Y-56829190D01*
X102734285Y-56829190D01*
X101162857Y-57210142D02*
X101210476Y-57257761D01*
X101353333Y-57305380D01*
X101448571Y-57305380D01*
X101591428Y-57257761D01*
X101686666Y-57162523D01*
X101734285Y-57067285D01*
X101781904Y-56876809D01*
X101781904Y-56733952D01*
X101734285Y-56543476D01*
X101686666Y-56448238D01*
X101591428Y-56353000D01*
X101448571Y-56305380D01*
X101353333Y-56305380D01*
X101210476Y-56353000D01*
X101162857Y-56400619D01*
X100400952Y-56781571D02*
X100258095Y-56829190D01*
X100210476Y-56876809D01*
X100162857Y-56972047D01*
X100162857Y-57114904D01*
X100210476Y-57210142D01*
X100258095Y-57257761D01*
X100353333Y-57305380D01*
X100734285Y-57305380D01*
X100734285Y-56305380D01*
X100400952Y-56305380D01*
X100305714Y-56353000D01*
X100258095Y-56400619D01*
X100210476Y-56495857D01*
X100210476Y-56591095D01*
X100258095Y-56686333D01*
X100305714Y-56733952D01*
X100400952Y-56781571D01*
X100734285Y-56781571D01*
X98972380Y-57305380D02*
X98972380Y-56305380D01*
X98734285Y-56305380D01*
X98591428Y-56353000D01*
X98496190Y-56448238D01*
X98448571Y-56543476D01*
X98400952Y-56733952D01*
X98400952Y-56876809D01*
X98448571Y-57067285D01*
X98496190Y-57162523D01*
X98591428Y-57257761D01*
X98734285Y-57305380D01*
X98972380Y-57305380D01*
X97591428Y-57257761D02*
X97686666Y-57305380D01*
X97877142Y-57305380D01*
X97972380Y-57257761D01*
X98020000Y-57162523D01*
X98020000Y-56781571D01*
X97972380Y-56686333D01*
X97877142Y-56638714D01*
X97686666Y-56638714D01*
X97591428Y-56686333D01*
X97543809Y-56781571D01*
X97543809Y-56876809D01*
X98020000Y-56972047D01*
X97162857Y-57257761D02*
X97067619Y-57305380D01*
X96877142Y-57305380D01*
X96781904Y-57257761D01*
X96734285Y-57162523D01*
X96734285Y-57114904D01*
X96781904Y-57019666D01*
X96877142Y-56972047D01*
X97020000Y-56972047D01*
X97115238Y-56924428D01*
X97162857Y-56829190D01*
X97162857Y-56781571D01*
X97115238Y-56686333D01*
X97020000Y-56638714D01*
X96877142Y-56638714D01*
X96781904Y-56686333D01*
X96305714Y-57305380D02*
X96305714Y-56638714D01*
X96305714Y-56305380D02*
X96353333Y-56353000D01*
X96305714Y-56400619D01*
X96258095Y-56353000D01*
X96305714Y-56305380D01*
X96305714Y-56400619D01*
X95400952Y-56638714D02*
X95400952Y-57448238D01*
X95448571Y-57543476D01*
X95496190Y-57591095D01*
X95591428Y-57638714D01*
X95734285Y-57638714D01*
X95829523Y-57591095D01*
X95400952Y-57257761D02*
X95496190Y-57305380D01*
X95686666Y-57305380D01*
X95781904Y-57257761D01*
X95829523Y-57210142D01*
X95877142Y-57114904D01*
X95877142Y-56829190D01*
X95829523Y-56733952D01*
X95781904Y-56686333D01*
X95686666Y-56638714D01*
X95496190Y-56638714D01*
X95400952Y-56686333D01*
X94924761Y-56638714D02*
X94924761Y-57305380D01*
X94924761Y-56733952D02*
X94877142Y-56686333D01*
X94781904Y-56638714D01*
X94639047Y-56638714D01*
X94543809Y-56686333D01*
X94496190Y-56781571D01*
X94496190Y-57305380D01*
X93639047Y-57257761D02*
X93734285Y-57305380D01*
X93924761Y-57305380D01*
X94020000Y-57257761D01*
X94067619Y-57162523D01*
X94067619Y-56781571D01*
X94020000Y-56686333D01*
X93924761Y-56638714D01*
X93734285Y-56638714D01*
X93639047Y-56686333D01*
X93591428Y-56781571D01*
X93591428Y-56876809D01*
X94067619Y-56972047D01*
X92734285Y-57305380D02*
X92734285Y-56305380D01*
X92734285Y-57257761D02*
X92829523Y-57305380D01*
X93020000Y-57305380D01*
X93115238Y-57257761D01*
X93162857Y-57210142D01*
X93210476Y-57114904D01*
X93210476Y-56829190D01*
X93162857Y-56733952D01*
X93115238Y-56686333D01*
X93020000Y-56638714D01*
X92829523Y-56638714D01*
X92734285Y-56686333D01*
X91496190Y-57305380D02*
X91496190Y-56305380D01*
X91496190Y-56686333D02*
X91400952Y-56638714D01*
X91210476Y-56638714D01*
X91115238Y-56686333D01*
X91067619Y-56733952D01*
X91020000Y-56829190D01*
X91020000Y-57114904D01*
X91067619Y-57210142D01*
X91115238Y-57257761D01*
X91210476Y-57305380D01*
X91400952Y-57305380D01*
X91496190Y-57257761D01*
X90686666Y-56638714D02*
X90448571Y-57305380D01*
X90210476Y-56638714D02*
X90448571Y-57305380D01*
X90543809Y-57543476D01*
X90591428Y-57591095D01*
X90686666Y-57638714D01*
X100805714Y-58439190D02*
X100853333Y-58391571D01*
X100948571Y-58343952D01*
X101043809Y-58343952D01*
X101139047Y-58391571D01*
X101186666Y-58439190D01*
X101234285Y-58534428D01*
X101234285Y-58629666D01*
X101186666Y-58724904D01*
X101139047Y-58772523D01*
X101043809Y-58820142D01*
X100948571Y-58820142D01*
X100853333Y-58772523D01*
X100805714Y-58724904D01*
X100805714Y-58343952D02*
X100805714Y-58724904D01*
X100758095Y-58772523D01*
X100710476Y-58772523D01*
X100615238Y-58724904D01*
X100567619Y-58629666D01*
X100567619Y-58391571D01*
X100662857Y-58248714D01*
X100805714Y-58153476D01*
X100996190Y-58105857D01*
X101186666Y-58153476D01*
X101329523Y-58248714D01*
X101424761Y-58391571D01*
X101472380Y-58582047D01*
X101424761Y-58772523D01*
X101329523Y-58915380D01*
X101186666Y-59010619D01*
X100996190Y-59058238D01*
X100805714Y-59010619D01*
X100662857Y-58915380D01*
X100186666Y-58867761D02*
X100091428Y-58915380D01*
X99900952Y-58915380D01*
X99805714Y-58867761D01*
X99758095Y-58772523D01*
X99758095Y-58724904D01*
X99805714Y-58629666D01*
X99900952Y-58582047D01*
X100043809Y-58582047D01*
X100139047Y-58534428D01*
X100186666Y-58439190D01*
X100186666Y-58391571D01*
X100139047Y-58296333D01*
X100043809Y-58248714D01*
X99900952Y-58248714D01*
X99805714Y-58296333D01*
X99424761Y-58248714D02*
X99234285Y-58915380D01*
X99043809Y-58439190D01*
X98853333Y-58915380D01*
X98662857Y-58248714D01*
X97853333Y-58915380D02*
X97853333Y-58391571D01*
X97900952Y-58296333D01*
X97996190Y-58248714D01*
X98186666Y-58248714D01*
X98281904Y-58296333D01*
X97853333Y-58867761D02*
X97948571Y-58915380D01*
X98186666Y-58915380D01*
X98281904Y-58867761D01*
X98329523Y-58772523D01*
X98329523Y-58677285D01*
X98281904Y-58582047D01*
X98186666Y-58534428D01*
X97948571Y-58534428D01*
X97853333Y-58486809D01*
X97377142Y-58248714D02*
X97377142Y-58915380D01*
X97377142Y-58343952D02*
X97329523Y-58296333D01*
X97234285Y-58248714D01*
X97091428Y-58248714D01*
X96996190Y-58296333D01*
X96948571Y-58391571D01*
X96948571Y-58915380D01*
X96710476Y-59010619D02*
X95948571Y-59010619D01*
X95710476Y-58915380D02*
X95710476Y-58248714D01*
X95710476Y-58343952D02*
X95662857Y-58296333D01*
X95567619Y-58248714D01*
X95424761Y-58248714D01*
X95329523Y-58296333D01*
X95281904Y-58391571D01*
X95281904Y-58915380D01*
X95281904Y-58391571D02*
X95234285Y-58296333D01*
X95139047Y-58248714D01*
X94996190Y-58248714D01*
X94900952Y-58296333D01*
X94853333Y-58391571D01*
X94853333Y-58915380D01*
X93948571Y-58915380D02*
X93948571Y-58391571D01*
X93996190Y-58296333D01*
X94091428Y-58248714D01*
X94281904Y-58248714D01*
X94377142Y-58296333D01*
X93948571Y-58867761D02*
X94043809Y-58915380D01*
X94281904Y-58915380D01*
X94377142Y-58867761D01*
X94424761Y-58772523D01*
X94424761Y-58677285D01*
X94377142Y-58582047D01*
X94281904Y-58534428D01*
X94043809Y-58534428D01*
X93948571Y-58486809D01*
X93615238Y-58248714D02*
X93234285Y-58248714D01*
X93472380Y-57915380D02*
X93472380Y-58772523D01*
X93424761Y-58867761D01*
X93329523Y-58915380D01*
X93234285Y-58915380D01*
X92472380Y-58867761D02*
X92567619Y-58915380D01*
X92758095Y-58915380D01*
X92853333Y-58867761D01*
X92900952Y-58820142D01*
X92948571Y-58724904D01*
X92948571Y-58439190D01*
X92900952Y-58343952D01*
X92853333Y-58296333D01*
X92758095Y-58248714D01*
X92567619Y-58248714D01*
X92472380Y-58296333D01*
X92043809Y-58915380D02*
X92043809Y-57915380D01*
X91615238Y-58915380D02*
X91615238Y-58391571D01*
X91662857Y-58296333D01*
X91758095Y-58248714D01*
X91900952Y-58248714D01*
X91996190Y-58296333D01*
X92043809Y-58343952D01*
X87161666Y-78882380D02*
X87637857Y-78882380D01*
X87637857Y-77882380D01*
X86304523Y-78882380D02*
X86875952Y-78882380D01*
X86590238Y-78882380D02*
X86590238Y-77882380D01*
X86685476Y-78025238D01*
X86780714Y-78120476D01*
X86875952Y-78168095D01*
X82559285Y-76982380D02*
X83130714Y-76982380D01*
X82845000Y-76982380D02*
X82845000Y-75982380D01*
X82940238Y-76125238D01*
X83035476Y-76220476D01*
X83130714Y-76268095D01*
X77636666Y-72975380D02*
X78112857Y-72975380D01*
X78112857Y-71975380D01*
X77350952Y-72070619D02*
X77303333Y-72023000D01*
X77208095Y-71975380D01*
X76970000Y-71975380D01*
X76874761Y-72023000D01*
X76827142Y-72070619D01*
X76779523Y-72165857D01*
X76779523Y-72261095D01*
X76827142Y-72403952D01*
X77398571Y-72975380D01*
X76779523Y-72975380D01*
X96686666Y-72975380D02*
X97162857Y-72975380D01*
X97162857Y-71975380D01*
X96448571Y-71975380D02*
X95829523Y-71975380D01*
X96162857Y-72356333D01*
X96020000Y-72356333D01*
X95924761Y-72403952D01*
X95877142Y-72451571D01*
X95829523Y-72546809D01*
X95829523Y-72784904D01*
X95877142Y-72880142D01*
X95924761Y-72927761D01*
X96020000Y-72975380D01*
X96305714Y-72975380D01*
X96400952Y-72927761D01*
X96448571Y-72880142D01*
X96686666Y-92152380D02*
X97162857Y-92152380D01*
X97162857Y-91152380D01*
X95924761Y-91485714D02*
X95924761Y-92152380D01*
X96162857Y-91104761D02*
X96400952Y-91819047D01*
X95781904Y-91819047D01*
X67075261Y-64543666D02*
X67122880Y-64686523D01*
X67122880Y-64924619D01*
X67075261Y-65019857D01*
X67027642Y-65067476D01*
X66932404Y-65115095D01*
X66837166Y-65115095D01*
X66741928Y-65067476D01*
X66694309Y-65019857D01*
X66646690Y-64924619D01*
X66599071Y-64734142D01*
X66551452Y-64638904D01*
X66503833Y-64591285D01*
X66408595Y-64543666D01*
X66313357Y-64543666D01*
X66218119Y-64591285D01*
X66170500Y-64638904D01*
X66122880Y-64734142D01*
X66122880Y-64972238D01*
X66170500Y-65115095D01*
X66122880Y-65448428D02*
X67122880Y-65686523D01*
X66408595Y-65877000D01*
X67122880Y-66067476D01*
X66122880Y-66305571D01*
X67122880Y-67210333D02*
X67122880Y-66638904D01*
X67122880Y-66924619D02*
X66122880Y-66924619D01*
X66265738Y-66829380D01*
X66360976Y-66734142D01*
X66408595Y-66638904D01*
X108579761Y-64543666D02*
X108627380Y-64686523D01*
X108627380Y-64924619D01*
X108579761Y-65019857D01*
X108532142Y-65067476D01*
X108436904Y-65115095D01*
X108341666Y-65115095D01*
X108246428Y-65067476D01*
X108198809Y-65019857D01*
X108151190Y-64924619D01*
X108103571Y-64734142D01*
X108055952Y-64638904D01*
X108008333Y-64591285D01*
X107913095Y-64543666D01*
X107817857Y-64543666D01*
X107722619Y-64591285D01*
X107675000Y-64638904D01*
X107627380Y-64734142D01*
X107627380Y-64972238D01*
X107675000Y-65115095D01*
X107627380Y-65448428D02*
X108627380Y-65686523D01*
X107913095Y-65877000D01*
X108627380Y-66067476D01*
X107627380Y-66305571D01*
X107960714Y-67115095D02*
X108627380Y-67115095D01*
X107579761Y-66877000D02*
X108294047Y-66638904D01*
X108294047Y-67257952D01*
X67075261Y-82969666D02*
X67122880Y-83112523D01*
X67122880Y-83350619D01*
X67075261Y-83445857D01*
X67027642Y-83493476D01*
X66932404Y-83541095D01*
X66837166Y-83541095D01*
X66741928Y-83493476D01*
X66694309Y-83445857D01*
X66646690Y-83350619D01*
X66599071Y-83160142D01*
X66551452Y-83064904D01*
X66503833Y-83017285D01*
X66408595Y-82969666D01*
X66313357Y-82969666D01*
X66218119Y-83017285D01*
X66170500Y-83064904D01*
X66122880Y-83160142D01*
X66122880Y-83398238D01*
X66170500Y-83541095D01*
X66122880Y-83874428D02*
X67122880Y-84112523D01*
X66408595Y-84303000D01*
X67122880Y-84493476D01*
X66122880Y-84731571D01*
X66122880Y-85588714D02*
X66122880Y-85112523D01*
X66599071Y-85064904D01*
X66551452Y-85112523D01*
X66503833Y-85207761D01*
X66503833Y-85445857D01*
X66551452Y-85541095D01*
X66599071Y-85588714D01*
X66694309Y-85636333D01*
X66932404Y-85636333D01*
X67027642Y-85588714D01*
X67075261Y-85541095D01*
X67122880Y-85445857D01*
X67122880Y-85207761D01*
X67075261Y-85112523D01*
X67027642Y-85064904D01*
X108579761Y-82958666D02*
X108627380Y-83101523D01*
X108627380Y-83339619D01*
X108579761Y-83434857D01*
X108532142Y-83482476D01*
X108436904Y-83530095D01*
X108341666Y-83530095D01*
X108246428Y-83482476D01*
X108198809Y-83434857D01*
X108151190Y-83339619D01*
X108103571Y-83149142D01*
X108055952Y-83053904D01*
X108008333Y-83006285D01*
X107913095Y-82958666D01*
X107817857Y-82958666D01*
X107722619Y-83006285D01*
X107675000Y-83053904D01*
X107627380Y-83149142D01*
X107627380Y-83387238D01*
X107675000Y-83530095D01*
X107627380Y-83863428D02*
X108627380Y-84101523D01*
X107913095Y-84292000D01*
X108627380Y-84482476D01*
X107627380Y-84720571D01*
X108055952Y-85244380D02*
X108008333Y-85149142D01*
X107960714Y-85101523D01*
X107865476Y-85053904D01*
X107817857Y-85053904D01*
X107722619Y-85101523D01*
X107675000Y-85149142D01*
X107627380Y-85244380D01*
X107627380Y-85434857D01*
X107675000Y-85530095D01*
X107722619Y-85577714D01*
X107817857Y-85625333D01*
X107865476Y-85625333D01*
X107960714Y-85577714D01*
X108008333Y-85530095D01*
X108055952Y-85434857D01*
X108055952Y-85244380D01*
X108103571Y-85149142D01*
X108151190Y-85101523D01*
X108246428Y-85053904D01*
X108436904Y-85053904D01*
X108532142Y-85101523D01*
X108579761Y-85149142D01*
X108627380Y-85244380D01*
X108627380Y-85434857D01*
X108579761Y-85530095D01*
X108532142Y-85577714D01*
X108436904Y-85625333D01*
X108246428Y-85625333D01*
X108151190Y-85577714D01*
X108103571Y-85530095D01*
X108055952Y-85434857D01*
X108579761Y-128043666D02*
X108627380Y-128186523D01*
X108627380Y-128424619D01*
X108579761Y-128519857D01*
X108532142Y-128567476D01*
X108436904Y-128615095D01*
X108341666Y-128615095D01*
X108246428Y-128567476D01*
X108198809Y-128519857D01*
X108151190Y-128424619D01*
X108103571Y-128234142D01*
X108055952Y-128138904D01*
X108008333Y-128091285D01*
X107913095Y-128043666D01*
X107817857Y-128043666D01*
X107722619Y-128091285D01*
X107675000Y-128138904D01*
X107627380Y-128234142D01*
X107627380Y-128472238D01*
X107675000Y-128615095D01*
X107627380Y-128948428D02*
X108627380Y-129186523D01*
X107913095Y-129377000D01*
X108627380Y-129567476D01*
X107627380Y-129805571D01*
X108055952Y-130329380D02*
X108008333Y-130234142D01*
X107960714Y-130186523D01*
X107865476Y-130138904D01*
X107817857Y-130138904D01*
X107722619Y-130186523D01*
X107675000Y-130234142D01*
X107627380Y-130329380D01*
X107627380Y-130519857D01*
X107675000Y-130615095D01*
X107722619Y-130662714D01*
X107817857Y-130710333D01*
X107865476Y-130710333D01*
X107960714Y-130662714D01*
X108008333Y-130615095D01*
X108055952Y-130519857D01*
X108055952Y-130329380D01*
X108103571Y-130234142D01*
X108151190Y-130186523D01*
X108246428Y-130138904D01*
X108436904Y-130138904D01*
X108532142Y-130186523D01*
X108579761Y-130234142D01*
X108627380Y-130329380D01*
X108627380Y-130519857D01*
X108579761Y-130615095D01*
X108532142Y-130662714D01*
X108436904Y-130710333D01*
X108246428Y-130710333D01*
X108151190Y-130662714D01*
X108103571Y-130615095D01*
X108055952Y-130519857D01*
X158490761Y-82958666D02*
X158538380Y-83101523D01*
X158538380Y-83339619D01*
X158490761Y-83434857D01*
X158443142Y-83482476D01*
X158347904Y-83530095D01*
X158252666Y-83530095D01*
X158157428Y-83482476D01*
X158109809Y-83434857D01*
X158062190Y-83339619D01*
X158014571Y-83149142D01*
X157966952Y-83053904D01*
X157919333Y-83006285D01*
X157824095Y-82958666D01*
X157728857Y-82958666D01*
X157633619Y-83006285D01*
X157586000Y-83053904D01*
X157538380Y-83149142D01*
X157538380Y-83387238D01*
X157586000Y-83530095D01*
X157538380Y-83863428D02*
X158538380Y-84101523D01*
X157824095Y-84292000D01*
X158538380Y-84482476D01*
X157538380Y-84720571D01*
X157966952Y-85244380D02*
X157919333Y-85149142D01*
X157871714Y-85101523D01*
X157776476Y-85053904D01*
X157728857Y-85053904D01*
X157633619Y-85101523D01*
X157586000Y-85149142D01*
X157538380Y-85244380D01*
X157538380Y-85434857D01*
X157586000Y-85530095D01*
X157633619Y-85577714D01*
X157728857Y-85625333D01*
X157776476Y-85625333D01*
X157871714Y-85577714D01*
X157919333Y-85530095D01*
X157966952Y-85434857D01*
X157966952Y-85244380D01*
X158014571Y-85149142D01*
X158062190Y-85101523D01*
X158157428Y-85053904D01*
X158347904Y-85053904D01*
X158443142Y-85101523D01*
X158490761Y-85149142D01*
X158538380Y-85244380D01*
X158538380Y-85434857D01*
X158490761Y-85530095D01*
X158443142Y-85577714D01*
X158347904Y-85625333D01*
X158157428Y-85625333D01*
X158062190Y-85577714D01*
X158014571Y-85530095D01*
X157966952Y-85434857D01*
X158490761Y-109628666D02*
X158538380Y-109771523D01*
X158538380Y-110009619D01*
X158490761Y-110104857D01*
X158443142Y-110152476D01*
X158347904Y-110200095D01*
X158252666Y-110200095D01*
X158157428Y-110152476D01*
X158109809Y-110104857D01*
X158062190Y-110009619D01*
X158014571Y-109819142D01*
X157966952Y-109723904D01*
X157919333Y-109676285D01*
X157824095Y-109628666D01*
X157728857Y-109628666D01*
X157633619Y-109676285D01*
X157586000Y-109723904D01*
X157538380Y-109819142D01*
X157538380Y-110057238D01*
X157586000Y-110200095D01*
X157538380Y-110533428D02*
X158538380Y-110771523D01*
X157824095Y-110962000D01*
X158538380Y-111152476D01*
X157538380Y-111390571D01*
X157871714Y-112200095D02*
X158538380Y-112200095D01*
X157490761Y-111962000D02*
X158205047Y-111723904D01*
X158205047Y-112342952D01*
X158490761Y-64543666D02*
X158538380Y-64686523D01*
X158538380Y-64924619D01*
X158490761Y-65019857D01*
X158443142Y-65067476D01*
X158347904Y-65115095D01*
X158252666Y-65115095D01*
X158157428Y-65067476D01*
X158109809Y-65019857D01*
X158062190Y-64924619D01*
X158014571Y-64734142D01*
X157966952Y-64638904D01*
X157919333Y-64591285D01*
X157824095Y-64543666D01*
X157728857Y-64543666D01*
X157633619Y-64591285D01*
X157586000Y-64638904D01*
X157538380Y-64734142D01*
X157538380Y-64972238D01*
X157586000Y-65115095D01*
X157538380Y-65448428D02*
X158538380Y-65686523D01*
X157824095Y-65877000D01*
X158538380Y-66067476D01*
X157538380Y-66305571D01*
X157871714Y-67115095D02*
X158538380Y-67115095D01*
X157490761Y-66877000D02*
X158205047Y-66638904D01*
X158205047Y-67257952D01*
X116986261Y-128054666D02*
X117033880Y-128197523D01*
X117033880Y-128435619D01*
X116986261Y-128530857D01*
X116938642Y-128578476D01*
X116843404Y-128626095D01*
X116748166Y-128626095D01*
X116652928Y-128578476D01*
X116605309Y-128530857D01*
X116557690Y-128435619D01*
X116510071Y-128245142D01*
X116462452Y-128149904D01*
X116414833Y-128102285D01*
X116319595Y-128054666D01*
X116224357Y-128054666D01*
X116129119Y-128102285D01*
X116081500Y-128149904D01*
X116033880Y-128245142D01*
X116033880Y-128483238D01*
X116081500Y-128626095D01*
X116033880Y-128959428D02*
X117033880Y-129197523D01*
X116319595Y-129388000D01*
X117033880Y-129578476D01*
X116033880Y-129816571D01*
X116033880Y-130673714D02*
X116033880Y-130197523D01*
X116510071Y-130149904D01*
X116462452Y-130197523D01*
X116414833Y-130292761D01*
X116414833Y-130530857D01*
X116462452Y-130626095D01*
X116510071Y-130673714D01*
X116605309Y-130721333D01*
X116843404Y-130721333D01*
X116938642Y-130673714D01*
X116986261Y-130626095D01*
X117033880Y-130530857D01*
X117033880Y-130292761D01*
X116986261Y-130197523D01*
X116938642Y-130149904D01*
X116986261Y-109628666D02*
X117033880Y-109771523D01*
X117033880Y-110009619D01*
X116986261Y-110104857D01*
X116938642Y-110152476D01*
X116843404Y-110200095D01*
X116748166Y-110200095D01*
X116652928Y-110152476D01*
X116605309Y-110104857D01*
X116557690Y-110009619D01*
X116510071Y-109819142D01*
X116462452Y-109723904D01*
X116414833Y-109676285D01*
X116319595Y-109628666D01*
X116224357Y-109628666D01*
X116129119Y-109676285D01*
X116081500Y-109723904D01*
X116033880Y-109819142D01*
X116033880Y-110057238D01*
X116081500Y-110200095D01*
X116033880Y-110533428D02*
X117033880Y-110771523D01*
X116319595Y-110962000D01*
X117033880Y-111152476D01*
X116033880Y-111390571D01*
X117033880Y-112295333D02*
X117033880Y-111723904D01*
X117033880Y-112009619D02*
X116033880Y-112009619D01*
X116176738Y-111914380D01*
X116271976Y-111819142D01*
X116319595Y-111723904D01*
D12*
X150615761Y-68395809D02*
X150501475Y-68433904D01*
X150310999Y-68433904D01*
X150234809Y-68395809D01*
X150196713Y-68357714D01*
X150158618Y-68281523D01*
X150158618Y-68205333D01*
X150196713Y-68129142D01*
X150234809Y-68091047D01*
X150310999Y-68052952D01*
X150463380Y-68014857D01*
X150539570Y-67976761D01*
X150577666Y-67938666D01*
X150615761Y-67862476D01*
X150615761Y-67786285D01*
X150577666Y-67710095D01*
X150539570Y-67672000D01*
X150463380Y-67633904D01*
X150272904Y-67633904D01*
X150158618Y-67672000D01*
X149510999Y-68395809D02*
X149587190Y-68433904D01*
X149739570Y-68433904D01*
X149815761Y-68395809D01*
X149853856Y-68319619D01*
X149853856Y-68014857D01*
X149815761Y-67938666D01*
X149739570Y-67900571D01*
X149587190Y-67900571D01*
X149510999Y-67938666D01*
X149472904Y-68014857D01*
X149472904Y-68091047D01*
X149853856Y-68167238D01*
X148825285Y-68395809D02*
X148901475Y-68433904D01*
X149053856Y-68433904D01*
X149130047Y-68395809D01*
X149168142Y-68319619D01*
X149168142Y-68014857D01*
X149130047Y-67938666D01*
X149053856Y-67900571D01*
X148901475Y-67900571D01*
X148825285Y-67938666D01*
X148787190Y-68014857D01*
X148787190Y-68091047D01*
X149168142Y-68167238D01*
X148139570Y-68395809D02*
X148215761Y-68433904D01*
X148368142Y-68433904D01*
X148444332Y-68395809D01*
X148482428Y-68319619D01*
X148482428Y-68014857D01*
X148444332Y-67938666D01*
X148368142Y-67900571D01*
X148215761Y-67900571D01*
X148139570Y-67938666D01*
X148101475Y-68014857D01*
X148101475Y-68091047D01*
X148482428Y-68167238D01*
X147415761Y-68433904D02*
X147415761Y-67633904D01*
X147415761Y-68395809D02*
X147491951Y-68433904D01*
X147644332Y-68433904D01*
X147720523Y-68395809D01*
X147758618Y-68357714D01*
X147796713Y-68281523D01*
X147796713Y-68052952D01*
X147758618Y-67976761D01*
X147720523Y-67938666D01*
X147644332Y-67900571D01*
X147491951Y-67900571D01*
X147415761Y-67938666D01*
X146691951Y-67900571D02*
X146691951Y-68433904D01*
X147034809Y-67900571D02*
X147034809Y-68319619D01*
X146996713Y-68395809D01*
X146920523Y-68433904D01*
X146806237Y-68433904D01*
X146730047Y-68395809D01*
X146691951Y-68357714D01*
X146310999Y-68433904D02*
X146310999Y-67900571D01*
X146310999Y-67633904D02*
X146349094Y-67672000D01*
X146310999Y-67710095D01*
X146272904Y-67672000D01*
X146310999Y-67633904D01*
X146310999Y-67710095D01*
X145930047Y-67900571D02*
X145930047Y-68433904D01*
X145930047Y-67976761D02*
X145891951Y-67938666D01*
X145815761Y-67900571D01*
X145701475Y-67900571D01*
X145625285Y-67938666D01*
X145587190Y-68014857D01*
X145587190Y-68433904D01*
X145091951Y-68433904D02*
X145168142Y-68395809D01*
X145206237Y-68357714D01*
X145244332Y-68281523D01*
X145244332Y-68052952D01*
X145206237Y-67976761D01*
X145168142Y-67938666D01*
X145091951Y-67900571D01*
X144977666Y-67900571D01*
X144901475Y-67938666D01*
X144863380Y-67976761D01*
X144825285Y-68052952D01*
X144825285Y-68281523D01*
X144863380Y-68357714D01*
X144901475Y-68395809D01*
X144977666Y-68433904D01*
X145091951Y-68433904D01*
X144558618Y-67633904D02*
X144025285Y-68433904D01*
X144025285Y-67633904D02*
X144558618Y-68433904D01*
X143720523Y-68433904D02*
X143720523Y-67633904D01*
X143377666Y-68205333D02*
X142996713Y-68205333D01*
X143453856Y-68433904D02*
X143187190Y-67633904D01*
X142920523Y-68433904D01*
X142501475Y-67633904D02*
X142349094Y-67633904D01*
X142272904Y-67672000D01*
X142196713Y-67748190D01*
X142158618Y-67900571D01*
X142158618Y-68167238D01*
X142196713Y-68319619D01*
X142272904Y-68395809D01*
X142349094Y-68433904D01*
X142501475Y-68433904D01*
X142577666Y-68395809D01*
X142653856Y-68319619D01*
X142691951Y-68167238D01*
X142691951Y-67900571D01*
X142653856Y-67748190D01*
X142577666Y-67672000D01*
X142501475Y-67633904D01*
D11*
X108579761Y-109628666D02*
X108627380Y-109771523D01*
X108627380Y-110009619D01*
X108579761Y-110104857D01*
X108532142Y-110152476D01*
X108436904Y-110200095D01*
X108341666Y-110200095D01*
X108246428Y-110152476D01*
X108198809Y-110104857D01*
X108151190Y-110009619D01*
X108103571Y-109819142D01*
X108055952Y-109723904D01*
X108008333Y-109676285D01*
X107913095Y-109628666D01*
X107817857Y-109628666D01*
X107722619Y-109676285D01*
X107675000Y-109723904D01*
X107627380Y-109819142D01*
X107627380Y-110057238D01*
X107675000Y-110200095D01*
X107627380Y-110533428D02*
X108627380Y-110771523D01*
X107913095Y-110962000D01*
X108627380Y-111152476D01*
X107627380Y-111390571D01*
X107960714Y-112200095D02*
X108627380Y-112200095D01*
X107579761Y-111962000D02*
X108294047Y-111723904D01*
X108294047Y-112342952D01*
X137072666Y-123967380D02*
X137548857Y-123967380D01*
X137548857Y-122967380D01*
X136215523Y-123967380D02*
X136786952Y-123967380D01*
X136501238Y-123967380D02*
X136501238Y-122967380D01*
X136596476Y-123110238D01*
X136691714Y-123205476D01*
X136786952Y-123253095D01*
X132470285Y-122067380D02*
X133041714Y-122067380D01*
X132756000Y-122067380D02*
X132756000Y-121067380D01*
X132851238Y-121210238D01*
X132946476Y-121305476D01*
X133041714Y-121353095D01*
X146597666Y-92152380D02*
X147073857Y-92152380D01*
X147073857Y-91152380D01*
X145835761Y-91485714D02*
X145835761Y-92152380D01*
X146073857Y-91104761D02*
X146311952Y-91819047D01*
X145692904Y-91819047D01*
D12*
X100704761Y-113480809D02*
X100590475Y-113518904D01*
X100399999Y-113518904D01*
X100323809Y-113480809D01*
X100285713Y-113442714D01*
X100247618Y-113366523D01*
X100247618Y-113290333D01*
X100285713Y-113214142D01*
X100323809Y-113176047D01*
X100399999Y-113137952D01*
X100552380Y-113099857D01*
X100628570Y-113061761D01*
X100666666Y-113023666D01*
X100704761Y-112947476D01*
X100704761Y-112871285D01*
X100666666Y-112795095D01*
X100628570Y-112757000D01*
X100552380Y-112718904D01*
X100361904Y-112718904D01*
X100247618Y-112757000D01*
X99599999Y-113480809D02*
X99676190Y-113518904D01*
X99828570Y-113518904D01*
X99904761Y-113480809D01*
X99942856Y-113404619D01*
X99942856Y-113099857D01*
X99904761Y-113023666D01*
X99828570Y-112985571D01*
X99676190Y-112985571D01*
X99599999Y-113023666D01*
X99561904Y-113099857D01*
X99561904Y-113176047D01*
X99942856Y-113252238D01*
X98914285Y-113480809D02*
X98990475Y-113518904D01*
X99142856Y-113518904D01*
X99219047Y-113480809D01*
X99257142Y-113404619D01*
X99257142Y-113099857D01*
X99219047Y-113023666D01*
X99142856Y-112985571D01*
X98990475Y-112985571D01*
X98914285Y-113023666D01*
X98876190Y-113099857D01*
X98876190Y-113176047D01*
X99257142Y-113252238D01*
X98228570Y-113480809D02*
X98304761Y-113518904D01*
X98457142Y-113518904D01*
X98533332Y-113480809D01*
X98571428Y-113404619D01*
X98571428Y-113099857D01*
X98533332Y-113023666D01*
X98457142Y-112985571D01*
X98304761Y-112985571D01*
X98228570Y-113023666D01*
X98190475Y-113099857D01*
X98190475Y-113176047D01*
X98571428Y-113252238D01*
X97504761Y-113518904D02*
X97504761Y-112718904D01*
X97504761Y-113480809D02*
X97580951Y-113518904D01*
X97733332Y-113518904D01*
X97809523Y-113480809D01*
X97847618Y-113442714D01*
X97885713Y-113366523D01*
X97885713Y-113137952D01*
X97847618Y-113061761D01*
X97809523Y-113023666D01*
X97733332Y-112985571D01*
X97580951Y-112985571D01*
X97504761Y-113023666D01*
X96780951Y-112985571D02*
X96780951Y-113518904D01*
X97123809Y-112985571D02*
X97123809Y-113404619D01*
X97085713Y-113480809D01*
X97009523Y-113518904D01*
X96895237Y-113518904D01*
X96819047Y-113480809D01*
X96780951Y-113442714D01*
X96399999Y-113518904D02*
X96399999Y-112985571D01*
X96399999Y-112718904D02*
X96438094Y-112757000D01*
X96399999Y-112795095D01*
X96361904Y-112757000D01*
X96399999Y-112718904D01*
X96399999Y-112795095D01*
X96019047Y-112985571D02*
X96019047Y-113518904D01*
X96019047Y-113061761D02*
X95980951Y-113023666D01*
X95904761Y-112985571D01*
X95790475Y-112985571D01*
X95714285Y-113023666D01*
X95676190Y-113099857D01*
X95676190Y-113518904D01*
X95180951Y-113518904D02*
X95257142Y-113480809D01*
X95295237Y-113442714D01*
X95333332Y-113366523D01*
X95333332Y-113137952D01*
X95295237Y-113061761D01*
X95257142Y-113023666D01*
X95180951Y-112985571D01*
X95066666Y-112985571D01*
X94990475Y-113023666D01*
X94952380Y-113061761D01*
X94914285Y-113137952D01*
X94914285Y-113366523D01*
X94952380Y-113442714D01*
X94990475Y-113480809D01*
X95066666Y-113518904D01*
X95180951Y-113518904D01*
X94647618Y-112718904D02*
X94114285Y-113518904D01*
X94114285Y-112718904D02*
X94647618Y-113518904D01*
X93809523Y-113518904D02*
X93809523Y-112718904D01*
X93466666Y-113290333D02*
X93085713Y-113290333D01*
X93542856Y-113518904D02*
X93276190Y-112718904D01*
X93009523Y-113518904D01*
X92590475Y-112718904D02*
X92438094Y-112718904D01*
X92361904Y-112757000D01*
X92285713Y-112833190D01*
X92247618Y-112985571D01*
X92247618Y-113252238D01*
X92285713Y-113404619D01*
X92361904Y-113480809D01*
X92438094Y-113518904D01*
X92590475Y-113518904D01*
X92666666Y-113480809D01*
X92742856Y-113404619D01*
X92780951Y-113252238D01*
X92780951Y-112985571D01*
X92742856Y-112833190D01*
X92666666Y-112757000D01*
X92590475Y-112718904D01*
D11*
X158490761Y-128043666D02*
X158538380Y-128186523D01*
X158538380Y-128424619D01*
X158490761Y-128519857D01*
X158443142Y-128567476D01*
X158347904Y-128615095D01*
X158252666Y-128615095D01*
X158157428Y-128567476D01*
X158109809Y-128519857D01*
X158062190Y-128424619D01*
X158014571Y-128234142D01*
X157966952Y-128138904D01*
X157919333Y-128091285D01*
X157824095Y-128043666D01*
X157728857Y-128043666D01*
X157633619Y-128091285D01*
X157586000Y-128138904D01*
X157538380Y-128234142D01*
X157538380Y-128472238D01*
X157586000Y-128615095D01*
X157538380Y-128948428D02*
X158538380Y-129186523D01*
X157824095Y-129377000D01*
X158538380Y-129567476D01*
X157538380Y-129805571D01*
X157966952Y-130329380D02*
X157919333Y-130234142D01*
X157871714Y-130186523D01*
X157776476Y-130138904D01*
X157728857Y-130138904D01*
X157633619Y-130186523D01*
X157586000Y-130234142D01*
X157538380Y-130329380D01*
X157538380Y-130519857D01*
X157586000Y-130615095D01*
X157633619Y-130662714D01*
X157728857Y-130710333D01*
X157776476Y-130710333D01*
X157871714Y-130662714D01*
X157919333Y-130615095D01*
X157966952Y-130519857D01*
X157966952Y-130329380D01*
X158014571Y-130234142D01*
X158062190Y-130186523D01*
X158157428Y-130138904D01*
X158347904Y-130138904D01*
X158443142Y-130186523D01*
X158490761Y-130234142D01*
X158538380Y-130329380D01*
X158538380Y-130519857D01*
X158490761Y-130615095D01*
X158443142Y-130662714D01*
X158347904Y-130710333D01*
X158157428Y-130710333D01*
X158062190Y-130662714D01*
X158014571Y-130615095D01*
X157966952Y-130519857D01*
X96686666Y-137237380D02*
X97162857Y-137237380D01*
X97162857Y-136237380D01*
X95924761Y-136570714D02*
X95924761Y-137237380D01*
X96162857Y-136189761D02*
X96400952Y-136904047D01*
X95781904Y-136904047D01*
X127547666Y-118060380D02*
X128023857Y-118060380D01*
X128023857Y-117060380D01*
X127261952Y-117155619D02*
X127214333Y-117108000D01*
X127119095Y-117060380D01*
X126881000Y-117060380D01*
X126785761Y-117108000D01*
X126738142Y-117155619D01*
X126690523Y-117250857D01*
X126690523Y-117346095D01*
X126738142Y-117488952D01*
X127309571Y-118060380D01*
X126690523Y-118060380D01*
X87161666Y-123967380D02*
X87637857Y-123967380D01*
X87637857Y-122967380D01*
X86304523Y-123967380D02*
X86875952Y-123967380D01*
X86590238Y-123967380D02*
X86590238Y-122967380D01*
X86685476Y-123110238D01*
X86780714Y-123205476D01*
X86875952Y-123253095D01*
X82559285Y-122067380D02*
X83130714Y-122067380D01*
X82845000Y-122067380D02*
X82845000Y-121067380D01*
X82940238Y-121210238D01*
X83035476Y-121305476D01*
X83130714Y-121353095D01*
X146597666Y-72975380D02*
X147073857Y-72975380D01*
X147073857Y-71975380D01*
X146359571Y-71975380D02*
X145740523Y-71975380D01*
X146073857Y-72356333D01*
X145931000Y-72356333D01*
X145835761Y-72403952D01*
X145788142Y-72451571D01*
X145740523Y-72546809D01*
X145740523Y-72784904D01*
X145788142Y-72880142D01*
X145835761Y-72927761D01*
X145931000Y-72975380D01*
X146216714Y-72975380D01*
X146311952Y-72927761D01*
X146359571Y-72880142D01*
X127293666Y-137745380D02*
X127769857Y-137745380D01*
X127769857Y-136745380D01*
X126484142Y-136745380D02*
X126960333Y-136745380D01*
X127007952Y-137221571D01*
X126960333Y-137173952D01*
X126865095Y-137126333D01*
X126627000Y-137126333D01*
X126531761Y-137173952D01*
X126484142Y-137221571D01*
X126436523Y-137316809D01*
X126436523Y-137554904D01*
X126484142Y-137650142D01*
X126531761Y-137697761D01*
X126627000Y-137745380D01*
X126865095Y-137745380D01*
X126960333Y-137697761D01*
X127007952Y-137650142D01*
X67075261Y-109628666D02*
X67122880Y-109771523D01*
X67122880Y-110009619D01*
X67075261Y-110104857D01*
X67027642Y-110152476D01*
X66932404Y-110200095D01*
X66837166Y-110200095D01*
X66741928Y-110152476D01*
X66694309Y-110104857D01*
X66646690Y-110009619D01*
X66599071Y-109819142D01*
X66551452Y-109723904D01*
X66503833Y-109676285D01*
X66408595Y-109628666D01*
X66313357Y-109628666D01*
X66218119Y-109676285D01*
X66170500Y-109723904D01*
X66122880Y-109819142D01*
X66122880Y-110057238D01*
X66170500Y-110200095D01*
X66122880Y-110533428D02*
X67122880Y-110771523D01*
X66408595Y-110962000D01*
X67122880Y-111152476D01*
X66122880Y-111390571D01*
X67122880Y-112295333D02*
X67122880Y-111723904D01*
X67122880Y-112009619D02*
X66122880Y-112009619D01*
X66265738Y-111914380D01*
X66360976Y-111819142D01*
X66408595Y-111723904D01*
X127547666Y-72975380D02*
X128023857Y-72975380D01*
X128023857Y-71975380D01*
X127261952Y-72070619D02*
X127214333Y-72023000D01*
X127119095Y-71975380D01*
X126881000Y-71975380D01*
X126785761Y-72023000D01*
X126738142Y-72070619D01*
X126690523Y-72165857D01*
X126690523Y-72261095D01*
X126738142Y-72403952D01*
X127309571Y-72975380D01*
X126690523Y-72975380D01*
X146597666Y-118060380D02*
X147073857Y-118060380D01*
X147073857Y-117060380D01*
X146359571Y-117060380D02*
X145740523Y-117060380D01*
X146073857Y-117441333D01*
X145931000Y-117441333D01*
X145835761Y-117488952D01*
X145788142Y-117536571D01*
X145740523Y-117631809D01*
X145740523Y-117869904D01*
X145788142Y-117965142D01*
X145835761Y-118012761D01*
X145931000Y-118060380D01*
X146216714Y-118060380D01*
X146311952Y-118012761D01*
X146359571Y-117965142D01*
D12*
X100704761Y-68395809D02*
X100590475Y-68433904D01*
X100399999Y-68433904D01*
X100323809Y-68395809D01*
X100285713Y-68357714D01*
X100247618Y-68281523D01*
X100247618Y-68205333D01*
X100285713Y-68129142D01*
X100323809Y-68091047D01*
X100399999Y-68052952D01*
X100552380Y-68014857D01*
X100628570Y-67976761D01*
X100666666Y-67938666D01*
X100704761Y-67862476D01*
X100704761Y-67786285D01*
X100666666Y-67710095D01*
X100628570Y-67672000D01*
X100552380Y-67633904D01*
X100361904Y-67633904D01*
X100247618Y-67672000D01*
X99599999Y-68395809D02*
X99676190Y-68433904D01*
X99828570Y-68433904D01*
X99904761Y-68395809D01*
X99942856Y-68319619D01*
X99942856Y-68014857D01*
X99904761Y-67938666D01*
X99828570Y-67900571D01*
X99676190Y-67900571D01*
X99599999Y-67938666D01*
X99561904Y-68014857D01*
X99561904Y-68091047D01*
X99942856Y-68167238D01*
X98914285Y-68395809D02*
X98990475Y-68433904D01*
X99142856Y-68433904D01*
X99219047Y-68395809D01*
X99257142Y-68319619D01*
X99257142Y-68014857D01*
X99219047Y-67938666D01*
X99142856Y-67900571D01*
X98990475Y-67900571D01*
X98914285Y-67938666D01*
X98876190Y-68014857D01*
X98876190Y-68091047D01*
X99257142Y-68167238D01*
X98228570Y-68395809D02*
X98304761Y-68433904D01*
X98457142Y-68433904D01*
X98533332Y-68395809D01*
X98571428Y-68319619D01*
X98571428Y-68014857D01*
X98533332Y-67938666D01*
X98457142Y-67900571D01*
X98304761Y-67900571D01*
X98228570Y-67938666D01*
X98190475Y-68014857D01*
X98190475Y-68091047D01*
X98571428Y-68167238D01*
X97504761Y-68433904D02*
X97504761Y-67633904D01*
X97504761Y-68395809D02*
X97580951Y-68433904D01*
X97733332Y-68433904D01*
X97809523Y-68395809D01*
X97847618Y-68357714D01*
X97885713Y-68281523D01*
X97885713Y-68052952D01*
X97847618Y-67976761D01*
X97809523Y-67938666D01*
X97733332Y-67900571D01*
X97580951Y-67900571D01*
X97504761Y-67938666D01*
X96780951Y-67900571D02*
X96780951Y-68433904D01*
X97123809Y-67900571D02*
X97123809Y-68319619D01*
X97085713Y-68395809D01*
X97009523Y-68433904D01*
X96895237Y-68433904D01*
X96819047Y-68395809D01*
X96780951Y-68357714D01*
X96399999Y-68433904D02*
X96399999Y-67900571D01*
X96399999Y-67633904D02*
X96438094Y-67672000D01*
X96399999Y-67710095D01*
X96361904Y-67672000D01*
X96399999Y-67633904D01*
X96399999Y-67710095D01*
X96019047Y-67900571D02*
X96019047Y-68433904D01*
X96019047Y-67976761D02*
X95980951Y-67938666D01*
X95904761Y-67900571D01*
X95790475Y-67900571D01*
X95714285Y-67938666D01*
X95676190Y-68014857D01*
X95676190Y-68433904D01*
X95180951Y-68433904D02*
X95257142Y-68395809D01*
X95295237Y-68357714D01*
X95333332Y-68281523D01*
X95333332Y-68052952D01*
X95295237Y-67976761D01*
X95257142Y-67938666D01*
X95180951Y-67900571D01*
X95066666Y-67900571D01*
X94990475Y-67938666D01*
X94952380Y-67976761D01*
X94914285Y-68052952D01*
X94914285Y-68281523D01*
X94952380Y-68357714D01*
X94990475Y-68395809D01*
X95066666Y-68433904D01*
X95180951Y-68433904D01*
X94647618Y-67633904D02*
X94114285Y-68433904D01*
X94114285Y-67633904D02*
X94647618Y-68433904D01*
X93809523Y-68433904D02*
X93809523Y-67633904D01*
X93466666Y-68205333D02*
X93085713Y-68205333D01*
X93542856Y-68433904D02*
X93276190Y-67633904D01*
X93009523Y-68433904D01*
X92590475Y-67633904D02*
X92438094Y-67633904D01*
X92361904Y-67672000D01*
X92285713Y-67748190D01*
X92247618Y-67900571D01*
X92247618Y-68167238D01*
X92285713Y-68319619D01*
X92361904Y-68395809D01*
X92438094Y-68433904D01*
X92590475Y-68433904D01*
X92666666Y-68395809D01*
X92742856Y-68319619D01*
X92780951Y-68167238D01*
X92780951Y-67900571D01*
X92742856Y-67748190D01*
X92666666Y-67672000D01*
X92590475Y-67633904D01*
D11*
X116986261Y-82969666D02*
X117033880Y-83112523D01*
X117033880Y-83350619D01*
X116986261Y-83445857D01*
X116938642Y-83493476D01*
X116843404Y-83541095D01*
X116748166Y-83541095D01*
X116652928Y-83493476D01*
X116605309Y-83445857D01*
X116557690Y-83350619D01*
X116510071Y-83160142D01*
X116462452Y-83064904D01*
X116414833Y-83017285D01*
X116319595Y-82969666D01*
X116224357Y-82969666D01*
X116129119Y-83017285D01*
X116081500Y-83064904D01*
X116033880Y-83160142D01*
X116033880Y-83398238D01*
X116081500Y-83541095D01*
X116033880Y-83874428D02*
X117033880Y-84112523D01*
X116319595Y-84303000D01*
X117033880Y-84493476D01*
X116033880Y-84731571D01*
X116033880Y-85588714D02*
X116033880Y-85112523D01*
X116510071Y-85064904D01*
X116462452Y-85112523D01*
X116414833Y-85207761D01*
X116414833Y-85445857D01*
X116462452Y-85541095D01*
X116510071Y-85588714D01*
X116605309Y-85636333D01*
X116843404Y-85636333D01*
X116938642Y-85588714D01*
X116986261Y-85541095D01*
X117033880Y-85445857D01*
X117033880Y-85207761D01*
X116986261Y-85112523D01*
X116938642Y-85064904D01*
X67075261Y-128054666D02*
X67122880Y-128197523D01*
X67122880Y-128435619D01*
X67075261Y-128530857D01*
X67027642Y-128578476D01*
X66932404Y-128626095D01*
X66837166Y-128626095D01*
X66741928Y-128578476D01*
X66694309Y-128530857D01*
X66646690Y-128435619D01*
X66599071Y-128245142D01*
X66551452Y-128149904D01*
X66503833Y-128102285D01*
X66408595Y-128054666D01*
X66313357Y-128054666D01*
X66218119Y-128102285D01*
X66170500Y-128149904D01*
X66122880Y-128245142D01*
X66122880Y-128483238D01*
X66170500Y-128626095D01*
X66122880Y-128959428D02*
X67122880Y-129197523D01*
X66408595Y-129388000D01*
X67122880Y-129578476D01*
X66122880Y-129816571D01*
X66122880Y-130673714D02*
X66122880Y-130197523D01*
X66599071Y-130149904D01*
X66551452Y-130197523D01*
X66503833Y-130292761D01*
X66503833Y-130530857D01*
X66551452Y-130626095D01*
X66599071Y-130673714D01*
X66694309Y-130721333D01*
X66932404Y-130721333D01*
X67027642Y-130673714D01*
X67075261Y-130626095D01*
X67122880Y-130530857D01*
X67122880Y-130292761D01*
X67075261Y-130197523D01*
X67027642Y-130149904D01*
X137072666Y-78882380D02*
X137548857Y-78882380D01*
X137548857Y-77882380D01*
X136215523Y-78882380D02*
X136786952Y-78882380D01*
X136501238Y-78882380D02*
X136501238Y-77882380D01*
X136596476Y-78025238D01*
X136691714Y-78120476D01*
X136786952Y-78168095D01*
X132470285Y-76982380D02*
X133041714Y-76982380D01*
X132756000Y-76982380D02*
X132756000Y-75982380D01*
X132851238Y-76125238D01*
X132946476Y-76220476D01*
X133041714Y-76268095D01*
X77382666Y-137745380D02*
X77858857Y-137745380D01*
X77858857Y-136745380D01*
X76573142Y-136745380D02*
X77049333Y-136745380D01*
X77096952Y-137221571D01*
X77049333Y-137173952D01*
X76954095Y-137126333D01*
X76716000Y-137126333D01*
X76620761Y-137173952D01*
X76573142Y-137221571D01*
X76525523Y-137316809D01*
X76525523Y-137554904D01*
X76573142Y-137650142D01*
X76620761Y-137697761D01*
X76716000Y-137745380D01*
X76954095Y-137745380D01*
X77049333Y-137697761D01*
X77096952Y-137650142D01*
X96686666Y-118060380D02*
X97162857Y-118060380D01*
X97162857Y-117060380D01*
X96448571Y-117060380D02*
X95829523Y-117060380D01*
X96162857Y-117441333D01*
X96020000Y-117441333D01*
X95924761Y-117488952D01*
X95877142Y-117536571D01*
X95829523Y-117631809D01*
X95829523Y-117869904D01*
X95877142Y-117965142D01*
X95924761Y-118012761D01*
X96020000Y-118060380D01*
X96305714Y-118060380D01*
X96400952Y-118012761D01*
X96448571Y-117965142D01*
X77382666Y-92660380D02*
X77858857Y-92660380D01*
X77858857Y-91660380D01*
X76573142Y-91660380D02*
X77049333Y-91660380D01*
X77096952Y-92136571D01*
X77049333Y-92088952D01*
X76954095Y-92041333D01*
X76716000Y-92041333D01*
X76620761Y-92088952D01*
X76573142Y-92136571D01*
X76525523Y-92231809D01*
X76525523Y-92469904D01*
X76573142Y-92565142D01*
X76620761Y-92612761D01*
X76716000Y-92660380D01*
X76954095Y-92660380D01*
X77049333Y-92612761D01*
X77096952Y-92565142D01*
X146597666Y-137237380D02*
X147073857Y-137237380D01*
X147073857Y-136237380D01*
X145835761Y-136570714D02*
X145835761Y-137237380D01*
X146073857Y-136189761D02*
X146311952Y-136904047D01*
X145692904Y-136904047D01*
X116986261Y-64543666D02*
X117033880Y-64686523D01*
X117033880Y-64924619D01*
X116986261Y-65019857D01*
X116938642Y-65067476D01*
X116843404Y-65115095D01*
X116748166Y-65115095D01*
X116652928Y-65067476D01*
X116605309Y-65019857D01*
X116557690Y-64924619D01*
X116510071Y-64734142D01*
X116462452Y-64638904D01*
X116414833Y-64591285D01*
X116319595Y-64543666D01*
X116224357Y-64543666D01*
X116129119Y-64591285D01*
X116081500Y-64638904D01*
X116033880Y-64734142D01*
X116033880Y-64972238D01*
X116081500Y-65115095D01*
X116033880Y-65448428D02*
X117033880Y-65686523D01*
X116319595Y-65877000D01*
X117033880Y-66067476D01*
X116033880Y-66305571D01*
X117033880Y-67210333D02*
X117033880Y-66638904D01*
X117033880Y-66924619D02*
X116033880Y-66924619D01*
X116176738Y-66829380D01*
X116271976Y-66734142D01*
X116319595Y-66638904D01*
X77636666Y-118060380D02*
X78112857Y-118060380D01*
X78112857Y-117060380D01*
X77350952Y-117155619D02*
X77303333Y-117108000D01*
X77208095Y-117060380D01*
X76970000Y-117060380D01*
X76874761Y-117108000D01*
X76827142Y-117155619D01*
X76779523Y-117250857D01*
X76779523Y-117346095D01*
X76827142Y-117488952D01*
X77398571Y-118060380D01*
X76779523Y-118060380D01*
X127293666Y-92660380D02*
X127769857Y-92660380D01*
X127769857Y-91660380D01*
X126484142Y-91660380D02*
X126960333Y-91660380D01*
X127007952Y-92136571D01*
X126960333Y-92088952D01*
X126865095Y-92041333D01*
X126627000Y-92041333D01*
X126531761Y-92088952D01*
X126484142Y-92136571D01*
X126436523Y-92231809D01*
X126436523Y-92469904D01*
X126484142Y-92565142D01*
X126531761Y-92612761D01*
X126627000Y-92660380D01*
X126865095Y-92660380D01*
X126960333Y-92612761D01*
X127007952Y-92565142D01*
D12*
X150615761Y-113480809D02*
X150501475Y-113518904D01*
X150310999Y-113518904D01*
X150234809Y-113480809D01*
X150196713Y-113442714D01*
X150158618Y-113366523D01*
X150158618Y-113290333D01*
X150196713Y-113214142D01*
X150234809Y-113176047D01*
X150310999Y-113137952D01*
X150463380Y-113099857D01*
X150539570Y-113061761D01*
X150577666Y-113023666D01*
X150615761Y-112947476D01*
X150615761Y-112871285D01*
X150577666Y-112795095D01*
X150539570Y-112757000D01*
X150463380Y-112718904D01*
X150272904Y-112718904D01*
X150158618Y-112757000D01*
X149510999Y-113480809D02*
X149587190Y-113518904D01*
X149739570Y-113518904D01*
X149815761Y-113480809D01*
X149853856Y-113404619D01*
X149853856Y-113099857D01*
X149815761Y-113023666D01*
X149739570Y-112985571D01*
X149587190Y-112985571D01*
X149510999Y-113023666D01*
X149472904Y-113099857D01*
X149472904Y-113176047D01*
X149853856Y-113252238D01*
X148825285Y-113480809D02*
X148901475Y-113518904D01*
X149053856Y-113518904D01*
X149130047Y-113480809D01*
X149168142Y-113404619D01*
X149168142Y-113099857D01*
X149130047Y-113023666D01*
X149053856Y-112985571D01*
X148901475Y-112985571D01*
X148825285Y-113023666D01*
X148787190Y-113099857D01*
X148787190Y-113176047D01*
X149168142Y-113252238D01*
X148139570Y-113480809D02*
X148215761Y-113518904D01*
X148368142Y-113518904D01*
X148444332Y-113480809D01*
X148482428Y-113404619D01*
X148482428Y-113099857D01*
X148444332Y-113023666D01*
X148368142Y-112985571D01*
X148215761Y-112985571D01*
X148139570Y-113023666D01*
X148101475Y-113099857D01*
X148101475Y-113176047D01*
X148482428Y-113252238D01*
X147415761Y-113518904D02*
X147415761Y-112718904D01*
X147415761Y-113480809D02*
X147491951Y-113518904D01*
X147644332Y-113518904D01*
X147720523Y-113480809D01*
X147758618Y-113442714D01*
X147796713Y-113366523D01*
X147796713Y-113137952D01*
X147758618Y-113061761D01*
X147720523Y-113023666D01*
X147644332Y-112985571D01*
X147491951Y-112985571D01*
X147415761Y-113023666D01*
X146691951Y-112985571D02*
X146691951Y-113518904D01*
X147034809Y-112985571D02*
X147034809Y-113404619D01*
X146996713Y-113480809D01*
X146920523Y-113518904D01*
X146806237Y-113518904D01*
X146730047Y-113480809D01*
X146691951Y-113442714D01*
X146310999Y-113518904D02*
X146310999Y-112985571D01*
X146310999Y-112718904D02*
X146349094Y-112757000D01*
X146310999Y-112795095D01*
X146272904Y-112757000D01*
X146310999Y-112718904D01*
X146310999Y-112795095D01*
X145930047Y-112985571D02*
X145930047Y-113518904D01*
X145930047Y-113061761D02*
X145891951Y-113023666D01*
X145815761Y-112985571D01*
X145701475Y-112985571D01*
X145625285Y-113023666D01*
X145587190Y-113099857D01*
X145587190Y-113518904D01*
X145091951Y-113518904D02*
X145168142Y-113480809D01*
X145206237Y-113442714D01*
X145244332Y-113366523D01*
X145244332Y-113137952D01*
X145206237Y-113061761D01*
X145168142Y-113023666D01*
X145091951Y-112985571D01*
X144977666Y-112985571D01*
X144901475Y-113023666D01*
X144863380Y-113061761D01*
X144825285Y-113137952D01*
X144825285Y-113366523D01*
X144863380Y-113442714D01*
X144901475Y-113480809D01*
X144977666Y-113518904D01*
X145091951Y-113518904D01*
X144558618Y-112718904D02*
X144025285Y-113518904D01*
X144025285Y-112718904D02*
X144558618Y-113518904D01*
X143720523Y-113518904D02*
X143720523Y-112718904D01*
X143377666Y-113290333D02*
X142996713Y-113290333D01*
X143453856Y-113518904D02*
X143187190Y-112718904D01*
X142920523Y-113518904D01*
X142501475Y-112718904D02*
X142349094Y-112718904D01*
X142272904Y-112757000D01*
X142196713Y-112833190D01*
X142158618Y-112985571D01*
X142158618Y-113252238D01*
X142196713Y-113404619D01*
X142272904Y-113480809D01*
X142349094Y-113518904D01*
X142501475Y-113518904D01*
X142577666Y-113480809D01*
X142653856Y-113404619D01*
X142691951Y-113252238D01*
X142691951Y-112985571D01*
X142653856Y-112833190D01*
X142577666Y-112757000D01*
X142501475Y-112718904D01*
X90645000Y-72180000D02*
X90645000Y-73330000D01*
X83345000Y-77680000D02*
X90645000Y-77680000D01*
X83345000Y-72180000D02*
X90645000Y-72180000D01*
D11*
X81280000Y-71247000D02*
X80264000Y-72263000D01*
X80264000Y-72263000D02*
X81280000Y-72263000D01*
X81280000Y-72263000D02*
X81280000Y-71247000D01*
G36*
X81280000Y-72263000D02*
G01*
X80264000Y-72263000D01*
X81280000Y-71247000D01*
X81280000Y-72263000D01*
G37*
X81280000Y-72263000D02*
X80264000Y-72263000D01*
X81280000Y-71247000D01*
X81280000Y-72263000D01*
X100330000Y-71247000D02*
X99314000Y-72263000D01*
X99314000Y-72263000D02*
X100330000Y-72263000D01*
X100330000Y-72263000D02*
X100330000Y-71247000D01*
G36*
X100330000Y-72263000D02*
G01*
X99314000Y-72263000D01*
X100330000Y-71247000D01*
X100330000Y-72263000D01*
G37*
X100330000Y-72263000D02*
X99314000Y-72263000D01*
X100330000Y-71247000D01*
X100330000Y-72263000D01*
X100330000Y-90424000D02*
X99314000Y-91440000D01*
X99314000Y-91440000D02*
X100330000Y-91440000D01*
X100330000Y-91440000D02*
X100330000Y-90424000D01*
G36*
X100330000Y-91440000D02*
G01*
X99314000Y-91440000D01*
X100330000Y-90424000D01*
X100330000Y-91440000D01*
G37*
X100330000Y-91440000D02*
X99314000Y-91440000D01*
X100330000Y-90424000D01*
X100330000Y-91440000D01*
D12*
X65960500Y-69217000D02*
X66190500Y-69217000D01*
X69300500Y-69217000D02*
X69300500Y-69737000D01*
X69300500Y-62017000D02*
X69300500Y-62537000D01*
X68790500Y-69737000D02*
X69300500Y-69737000D01*
X62290500Y-62017000D02*
X66190500Y-62017000D01*
X65960500Y-68677000D02*
X65960500Y-69217000D01*
X65960500Y-62537000D02*
X66190500Y-62537000D01*
X62290500Y-69737000D02*
X66190500Y-69737000D01*
X68790500Y-62537000D02*
X69300500Y-62537000D01*
X68790500Y-62017000D02*
X69300500Y-62017000D01*
X62290500Y-62017000D02*
X62290500Y-69737000D01*
X65960500Y-64177000D02*
X65960500Y-67577000D01*
X65960500Y-62537000D02*
X65960500Y-63077000D01*
X68790500Y-69217000D02*
X69300500Y-69217000D01*
X108885000Y-62537000D02*
X108655000Y-62537000D01*
X112555000Y-69737000D02*
X112555000Y-62017000D01*
X106055000Y-69737000D02*
X105545000Y-69737000D01*
X108885000Y-63077000D02*
X108885000Y-62537000D01*
X105545000Y-62537000D02*
X105545000Y-62017000D01*
X112555000Y-69737000D02*
X108655000Y-69737000D01*
X112555000Y-62017000D02*
X108655000Y-62017000D01*
X106055000Y-62537000D02*
X105545000Y-62537000D01*
X108885000Y-69217000D02*
X108655000Y-69217000D01*
X106055000Y-62017000D02*
X105545000Y-62017000D01*
X105545000Y-69737000D02*
X105545000Y-69217000D01*
X108885000Y-67577000D02*
X108885000Y-64177000D01*
X108885000Y-69217000D02*
X108885000Y-68677000D01*
X106055000Y-69217000D02*
X105545000Y-69217000D01*
X68790500Y-80443000D02*
X69300500Y-80443000D01*
X68790500Y-87643000D02*
X69300500Y-87643000D01*
X65960500Y-80963000D02*
X65960500Y-81503000D01*
X65960500Y-87103000D02*
X65960500Y-87643000D01*
X69300500Y-80443000D02*
X69300500Y-80963000D01*
X68790500Y-80963000D02*
X69300500Y-80963000D01*
X65960500Y-82603000D02*
X65960500Y-86003000D01*
X69300500Y-87643000D02*
X69300500Y-88163000D01*
X62290500Y-80443000D02*
X62290500Y-88163000D01*
X62290500Y-80443000D02*
X66190500Y-80443000D01*
X65960500Y-80963000D02*
X66190500Y-80963000D01*
X68790500Y-88163000D02*
X69300500Y-88163000D01*
X62290500Y-88163000D02*
X66190500Y-88163000D01*
X65960500Y-87643000D02*
X66190500Y-87643000D01*
X108885000Y-85992000D02*
X108885000Y-82592000D01*
X106055000Y-87632000D02*
X105545000Y-87632000D01*
X105545000Y-80952000D02*
X105545000Y-80432000D01*
X105545000Y-88152000D02*
X105545000Y-87632000D01*
X112555000Y-88152000D02*
X108655000Y-88152000D01*
X112555000Y-80432000D02*
X108655000Y-80432000D01*
X106055000Y-88152000D02*
X105545000Y-88152000D01*
X108885000Y-87632000D02*
X108655000Y-87632000D01*
X106055000Y-80432000D02*
X105545000Y-80432000D01*
X108885000Y-87632000D02*
X108885000Y-87092000D01*
X108885000Y-81492000D02*
X108885000Y-80952000D01*
X112555000Y-88152000D02*
X112555000Y-80432000D01*
X108885000Y-80952000D02*
X108655000Y-80952000D01*
X106055000Y-80952000D02*
X105545000Y-80952000D01*
X108885000Y-126037000D02*
X108655000Y-126037000D01*
X105545000Y-133237000D02*
X105545000Y-132717000D01*
X106055000Y-133237000D02*
X105545000Y-133237000D01*
X112555000Y-133237000D02*
X108655000Y-133237000D01*
X106055000Y-126037000D02*
X105545000Y-126037000D01*
X108885000Y-126577000D02*
X108885000Y-126037000D01*
X108885000Y-132717000D02*
X108885000Y-132177000D01*
X106055000Y-132717000D02*
X105545000Y-132717000D01*
X112555000Y-133237000D02*
X112555000Y-125517000D01*
X112555000Y-125517000D02*
X108655000Y-125517000D01*
X108885000Y-131077000D02*
X108885000Y-127677000D01*
X105545000Y-126037000D02*
X105545000Y-125517000D01*
X108885000Y-132717000D02*
X108655000Y-132717000D01*
X106055000Y-125517000D02*
X105545000Y-125517000D01*
X158796000Y-87632000D02*
X158566000Y-87632000D01*
X155966000Y-87632000D02*
X155456000Y-87632000D01*
X158796000Y-80952000D02*
X158566000Y-80952000D01*
X162466000Y-80432000D02*
X158566000Y-80432000D01*
X155456000Y-80952000D02*
X155456000Y-80432000D01*
X162466000Y-88152000D02*
X158566000Y-88152000D01*
X158796000Y-85992000D02*
X158796000Y-82592000D01*
X162466000Y-88152000D02*
X162466000Y-80432000D01*
X158796000Y-87632000D02*
X158796000Y-87092000D01*
X155966000Y-88152000D02*
X155456000Y-88152000D01*
X158796000Y-81492000D02*
X158796000Y-80952000D01*
X155966000Y-80432000D02*
X155456000Y-80432000D01*
X155966000Y-80952000D02*
X155456000Y-80952000D01*
X155456000Y-88152000D02*
X155456000Y-87632000D01*
X158796000Y-114302000D02*
X158566000Y-114302000D01*
X155966000Y-114822000D02*
X155456000Y-114822000D01*
X158796000Y-107622000D02*
X158566000Y-107622000D01*
X155456000Y-114822000D02*
X155456000Y-114302000D01*
X158796000Y-108162000D02*
X158796000Y-107622000D01*
X162466000Y-114822000D02*
X162466000Y-107102000D01*
X155966000Y-107622000D02*
X155456000Y-107622000D01*
X162466000Y-114822000D02*
X158566000Y-114822000D01*
X155456000Y-107622000D02*
X155456000Y-107102000D01*
X155966000Y-114302000D02*
X155456000Y-114302000D01*
X158796000Y-114302000D02*
X158796000Y-113762000D01*
X162466000Y-107102000D02*
X158566000Y-107102000D01*
X155966000Y-107102000D02*
X155456000Y-107102000D01*
X158796000Y-112662000D02*
X158796000Y-109262000D01*
X158796000Y-63077000D02*
X158796000Y-62537000D01*
X158796000Y-69217000D02*
X158566000Y-69217000D01*
X155966000Y-62017000D02*
X155456000Y-62017000D01*
X162466000Y-69737000D02*
X162466000Y-62017000D01*
X155966000Y-69217000D02*
X155456000Y-69217000D01*
X158796000Y-69217000D02*
X158796000Y-68677000D01*
X155456000Y-69737000D02*
X155456000Y-69217000D01*
X162466000Y-69737000D02*
X158566000Y-69737000D01*
X158796000Y-62537000D02*
X158566000Y-62537000D01*
X158796000Y-67577000D02*
X158796000Y-64177000D01*
X162466000Y-62017000D02*
X158566000Y-62017000D01*
X155456000Y-62537000D02*
X155456000Y-62017000D01*
X155966000Y-62537000D02*
X155456000Y-62537000D01*
X155966000Y-69737000D02*
X155456000Y-69737000D01*
X115871500Y-132188000D02*
X115871500Y-132728000D01*
X119211500Y-132728000D02*
X119211500Y-133248000D01*
X119211500Y-125528000D02*
X119211500Y-126048000D01*
X118701500Y-126048000D02*
X119211500Y-126048000D01*
X112201500Y-125528000D02*
X116101500Y-125528000D01*
X112201500Y-133248000D02*
X116101500Y-133248000D01*
X115871500Y-127688000D02*
X115871500Y-131088000D01*
X118701500Y-132728000D02*
X119211500Y-132728000D01*
X118701500Y-125528000D02*
X119211500Y-125528000D01*
X118701500Y-133248000D02*
X119211500Y-133248000D01*
X115871500Y-132728000D02*
X116101500Y-132728000D01*
X115871500Y-126048000D02*
X115871500Y-126588000D01*
X115871500Y-126048000D02*
X116101500Y-126048000D01*
X112201500Y-125528000D02*
X112201500Y-133248000D01*
X118701500Y-114822000D02*
X119211500Y-114822000D01*
X112201500Y-114822000D02*
X116101500Y-114822000D01*
X118701500Y-107102000D02*
X119211500Y-107102000D01*
X115871500Y-107622000D02*
X116101500Y-107622000D01*
X112201500Y-107102000D02*
X116101500Y-107102000D01*
X115871500Y-113762000D02*
X115871500Y-114302000D01*
X112201500Y-107102000D02*
X112201500Y-114822000D01*
X115871500Y-114302000D02*
X116101500Y-114302000D01*
X118701500Y-107622000D02*
X119211500Y-107622000D01*
X119211500Y-114302000D02*
X119211500Y-114822000D01*
X119211500Y-107102000D02*
X119211500Y-107622000D01*
X115871500Y-107622000D02*
X115871500Y-108162000D01*
X118701500Y-114302000D02*
X119211500Y-114302000D01*
X115871500Y-109262000D02*
X115871500Y-112662000D01*
X150886800Y-56036180D02*
X150886800Y-50206000D01*
X155330999Y-52006000D02*
X155330999Y-69406000D01*
X153330999Y-71206000D02*
X139530999Y-71206000D01*
X137530999Y-52006000D02*
X137530999Y-69406000D01*
X141887580Y-50206000D02*
X141887580Y-56036180D01*
X141887580Y-56036180D02*
X150886800Y-56036180D01*
X139530999Y-50206000D02*
X153330999Y-50206000D01*
X150886800Y-50206000D02*
X141887580Y-50206000D01*
X141887580Y-50206000D02*
X141887580Y-48514000D01*
X141887580Y-48514000D02*
X150886800Y-48514000D01*
X150886800Y-48514000D02*
X150886800Y-50206000D01*
X139530999Y-50206000D02*
G75*
G03*
X137530999Y-52006000I-1J-2011110D01*
G01*
X137530999Y-69406000D02*
G75*
G03*
X139530999Y-71206000I2000003J211114D01*
G01*
X153330999Y-71206000D02*
G75*
G03*
X155330999Y-69406000I1J2011110D01*
G01*
X155330999Y-52006000D02*
G75*
G03*
X153330999Y-50206000I-2000003J-211114D01*
G01*
D13*
X156718000Y-53086000D02*
G75*
G03*
X156718000Y-53086000I-127000J0D01*
G01*
D12*
X143424219Y-69723000D02*
G75*
G03*
X143424219Y-69723000I-803219J0D01*
G01*
X151044219Y-69723000D02*
G75*
G03*
X151044219Y-69723000I-803219J0D01*
G01*
X108885000Y-114302000D02*
X108885000Y-113762000D01*
X106055000Y-107622000D02*
X105545000Y-107622000D01*
X106055000Y-107102000D02*
X105545000Y-107102000D01*
X108885000Y-107622000D02*
X108655000Y-107622000D01*
X105545000Y-107622000D02*
X105545000Y-107102000D01*
X112555000Y-114822000D02*
X112555000Y-107102000D01*
X112555000Y-114822000D02*
X108655000Y-114822000D01*
X105545000Y-114822000D02*
X105545000Y-114302000D01*
X108885000Y-112662000D02*
X108885000Y-109262000D01*
X106055000Y-114822000D02*
X105545000Y-114822000D01*
X108885000Y-108162000D02*
X108885000Y-107622000D01*
X108885000Y-114302000D02*
X108655000Y-114302000D01*
X106055000Y-114302000D02*
X105545000Y-114302000D01*
X112555000Y-107102000D02*
X108655000Y-107102000D01*
X140556000Y-117265000D02*
X140556000Y-118415000D01*
X133256000Y-117265000D02*
X140556000Y-117265000D01*
X133256000Y-122765000D02*
X140556000Y-122765000D01*
D11*
X150241000Y-90424000D02*
X149225000Y-91440000D01*
X149225000Y-91440000D02*
X150241000Y-91440000D01*
X150241000Y-91440000D02*
X150241000Y-90424000D01*
G36*
X150241000Y-91440000D02*
G01*
X149225000Y-91440000D01*
X150241000Y-90424000D01*
X150241000Y-91440000D01*
G37*
X150241000Y-91440000D02*
X149225000Y-91440000D01*
X150241000Y-90424000D01*
X150241000Y-91440000D01*
D12*
X89619999Y-95291000D02*
X103419999Y-95291000D01*
X103419999Y-116291000D02*
X89619999Y-116291000D01*
X91976580Y-101121180D02*
X100975800Y-101121180D01*
X87619999Y-97091000D02*
X87619999Y-114491000D01*
X105419999Y-97091000D02*
X105419999Y-114491000D01*
X91976580Y-95291000D02*
X91976580Y-101121180D01*
X100975800Y-101121180D02*
X100975800Y-95291000D01*
X100975800Y-95291000D02*
X91976580Y-95291000D01*
X91976580Y-95291000D02*
X91976580Y-93599000D01*
X91976580Y-93599000D02*
X100975800Y-93599000D01*
X100975800Y-93599000D02*
X100975800Y-95291000D01*
X87619999Y-114491000D02*
G75*
G03*
X89619999Y-116291000I2000003J211114D01*
G01*
X105419999Y-97091000D02*
G75*
G03*
X103419999Y-95291000I-2000003J-211114D01*
G01*
X103419999Y-116291000D02*
G75*
G03*
X105419999Y-114491000I1J2011110D01*
G01*
X89619999Y-95291000D02*
G75*
G03*
X87619999Y-97091000I-1J-2011110D01*
G01*
X101133219Y-114808000D02*
G75*
G03*
X101133219Y-114808000I-803219J0D01*
G01*
D13*
X106807000Y-98171000D02*
G75*
G03*
X106807000Y-98171000I-127000J0D01*
G01*
D12*
X93513219Y-114808000D02*
G75*
G03*
X93513219Y-114808000I-803219J0D01*
G01*
X155966000Y-133237000D02*
X155456000Y-133237000D01*
X155456000Y-126037000D02*
X155456000Y-125517000D01*
X158796000Y-132717000D02*
X158796000Y-132177000D01*
X162466000Y-125517000D02*
X158566000Y-125517000D01*
X155456000Y-133237000D02*
X155456000Y-132717000D01*
X155966000Y-126037000D02*
X155456000Y-126037000D01*
X158796000Y-126577000D02*
X158796000Y-126037000D01*
X158796000Y-132717000D02*
X158566000Y-132717000D01*
X155966000Y-132717000D02*
X155456000Y-132717000D01*
X162466000Y-133237000D02*
X162466000Y-125517000D01*
X155966000Y-125517000D02*
X155456000Y-125517000D01*
X162466000Y-133237000D02*
X158566000Y-133237000D01*
X158796000Y-131077000D02*
X158796000Y-127677000D01*
X158796000Y-126037000D02*
X158566000Y-126037000D01*
D11*
X100330000Y-135509000D02*
X99314000Y-136525000D01*
X99314000Y-136525000D02*
X100330000Y-136525000D01*
X100330000Y-136525000D02*
X100330000Y-135509000D01*
G36*
X100330000Y-136525000D02*
G01*
X99314000Y-136525000D01*
X100330000Y-135509000D01*
X100330000Y-136525000D01*
G37*
X100330000Y-136525000D02*
X99314000Y-136525000D01*
X100330000Y-135509000D01*
X100330000Y-136525000D01*
X131191000Y-116332000D02*
X130175000Y-117348000D01*
X130175000Y-117348000D02*
X131191000Y-117348000D01*
X131191000Y-117348000D02*
X131191000Y-116332000D01*
G36*
X131191000Y-117348000D02*
G01*
X130175000Y-117348000D01*
X131191000Y-116332000D01*
X131191000Y-117348000D01*
G37*
X131191000Y-117348000D02*
X130175000Y-117348000D01*
X131191000Y-116332000D01*
X131191000Y-117348000D01*
D12*
X83345000Y-122765000D02*
X90645000Y-122765000D01*
X90645000Y-117265000D02*
X90645000Y-118415000D01*
X83345000Y-117265000D02*
X90645000Y-117265000D01*
D11*
X150241000Y-71247000D02*
X149225000Y-72263000D01*
X149225000Y-72263000D02*
X150241000Y-72263000D01*
X150241000Y-72263000D02*
X150241000Y-71247000D01*
G36*
X150241000Y-72263000D02*
G01*
X149225000Y-72263000D01*
X150241000Y-71247000D01*
X150241000Y-72263000D01*
G37*
X150241000Y-72263000D02*
X149225000Y-72263000D01*
X150241000Y-71247000D01*
X150241000Y-72263000D01*
X130937000Y-135509000D02*
X129921000Y-136525000D01*
X129921000Y-136525000D02*
X130937000Y-136525000D01*
X130937000Y-136525000D02*
X130937000Y-135509000D01*
G36*
X130937000Y-136525000D02*
G01*
X129921000Y-136525000D01*
X130937000Y-135509000D01*
X130937000Y-136525000D01*
G37*
X130937000Y-136525000D02*
X129921000Y-136525000D01*
X130937000Y-135509000D01*
X130937000Y-136525000D01*
D12*
X68790500Y-107102000D02*
X69300500Y-107102000D01*
X68790500Y-114302000D02*
X69300500Y-114302000D01*
X68790500Y-114822000D02*
X69300500Y-114822000D01*
X62290500Y-107102000D02*
X66190500Y-107102000D01*
X68790500Y-107622000D02*
X69300500Y-107622000D01*
X65960500Y-113762000D02*
X65960500Y-114302000D01*
X62290500Y-107102000D02*
X62290500Y-114822000D01*
X69300500Y-107102000D02*
X69300500Y-107622000D01*
X65960500Y-107622000D02*
X66190500Y-107622000D01*
X69300500Y-114302000D02*
X69300500Y-114822000D01*
X65960500Y-109262000D02*
X65960500Y-112662000D01*
X65960500Y-107622000D02*
X65960500Y-108162000D01*
X62290500Y-114822000D02*
X66190500Y-114822000D01*
X65960500Y-114302000D02*
X66190500Y-114302000D01*
D11*
X131191000Y-71247000D02*
X130175000Y-72263000D01*
X130175000Y-72263000D02*
X131191000Y-72263000D01*
X131191000Y-72263000D02*
X131191000Y-71247000D01*
G36*
X131191000Y-72263000D02*
G01*
X130175000Y-72263000D01*
X131191000Y-71247000D01*
X131191000Y-72263000D01*
G37*
X131191000Y-72263000D02*
X130175000Y-72263000D01*
X131191000Y-71247000D01*
X131191000Y-72263000D01*
X150241000Y-116332000D02*
X149225000Y-117348000D01*
X149225000Y-117348000D02*
X150241000Y-117348000D01*
X150241000Y-117348000D02*
X150241000Y-116332000D01*
G36*
X150241000Y-117348000D02*
G01*
X149225000Y-117348000D01*
X150241000Y-116332000D01*
X150241000Y-117348000D01*
G37*
X150241000Y-117348000D02*
X149225000Y-117348000D01*
X150241000Y-116332000D01*
X150241000Y-117348000D01*
D12*
X103419999Y-71206000D02*
X89619999Y-71206000D01*
X89619999Y-50206000D02*
X103419999Y-50206000D01*
X105419999Y-52006000D02*
X105419999Y-69406000D01*
X100975800Y-56036180D02*
X100975800Y-50206000D01*
X91976580Y-56036180D02*
X100975800Y-56036180D01*
X87619999Y-52006000D02*
X87619999Y-69406000D01*
X91976580Y-50206000D02*
X91976580Y-56036180D01*
X100975800Y-50206000D02*
X91976580Y-50206000D01*
X91976580Y-50206000D02*
X91976580Y-48514000D01*
X91976580Y-48514000D02*
X100975800Y-48514000D01*
X100975800Y-48514000D02*
X100975800Y-50206000D01*
X103419999Y-71206000D02*
G75*
G03*
X105419999Y-69406000I1J2011110D01*
G01*
X105419999Y-52006000D02*
G75*
G03*
X103419999Y-50206000I-2000003J-211114D01*
G01*
X89619999Y-50206000D02*
G75*
G03*
X87619999Y-52006000I-1J-2011110D01*
G01*
X87619999Y-69406000D02*
G75*
G03*
X89619999Y-71206000I2000003J211114D01*
G01*
X101133219Y-69723000D02*
G75*
G03*
X101133219Y-69723000I-803219J0D01*
G01*
X93513219Y-69723000D02*
G75*
G03*
X93513219Y-69723000I-803219J0D01*
G01*
D13*
X106807000Y-53086000D02*
G75*
G03*
X106807000Y-53086000I-127000J0D01*
G01*
D12*
X119211500Y-80443000D02*
X119211500Y-80963000D01*
X115871500Y-80963000D02*
X115871500Y-81503000D01*
X118701500Y-87643000D02*
X119211500Y-87643000D01*
X115871500Y-87103000D02*
X115871500Y-87643000D01*
X119211500Y-87643000D02*
X119211500Y-88163000D01*
X118701500Y-80443000D02*
X119211500Y-80443000D01*
X118701500Y-80963000D02*
X119211500Y-80963000D01*
X115871500Y-82603000D02*
X115871500Y-86003000D01*
X112201500Y-80443000D02*
X116101500Y-80443000D01*
X112201500Y-88163000D02*
X116101500Y-88163000D01*
X118701500Y-88163000D02*
X119211500Y-88163000D01*
X115871500Y-80963000D02*
X116101500Y-80963000D01*
X115871500Y-87643000D02*
X116101500Y-87643000D01*
X112201500Y-80443000D02*
X112201500Y-88163000D01*
X68790500Y-125528000D02*
X69300500Y-125528000D01*
X65960500Y-127688000D02*
X65960500Y-131088000D01*
X65960500Y-132188000D02*
X65960500Y-132728000D01*
X69300500Y-132728000D02*
X69300500Y-133248000D01*
X68790500Y-132728000D02*
X69300500Y-132728000D01*
X62290500Y-125528000D02*
X62290500Y-133248000D01*
X62290500Y-133248000D02*
X66190500Y-133248000D01*
X65960500Y-126048000D02*
X66190500Y-126048000D01*
X65960500Y-126048000D02*
X65960500Y-126588000D01*
X68790500Y-133248000D02*
X69300500Y-133248000D01*
X62290500Y-125528000D02*
X66190500Y-125528000D01*
X68790500Y-126048000D02*
X69300500Y-126048000D01*
X69300500Y-125528000D02*
X69300500Y-126048000D01*
X65960500Y-132728000D02*
X66190500Y-132728000D01*
X133256000Y-72180000D02*
X140556000Y-72180000D01*
X133256000Y-77680000D02*
X140556000Y-77680000D01*
X140556000Y-72180000D02*
X140556000Y-73330000D01*
D11*
X81026000Y-135509000D02*
X80010000Y-136525000D01*
X80010000Y-136525000D02*
X81026000Y-136525000D01*
X81026000Y-136525000D02*
X81026000Y-135509000D01*
G36*
X81026000Y-136525000D02*
G01*
X80010000Y-136525000D01*
X81026000Y-135509000D01*
X81026000Y-136525000D01*
G37*
X81026000Y-136525000D02*
X80010000Y-136525000D01*
X81026000Y-135509000D01*
X81026000Y-136525000D01*
X100330000Y-116332000D02*
X99314000Y-117348000D01*
X99314000Y-117348000D02*
X100330000Y-117348000D01*
X100330000Y-117348000D02*
X100330000Y-116332000D01*
G36*
X100330000Y-117348000D02*
G01*
X99314000Y-117348000D01*
X100330000Y-116332000D01*
X100330000Y-117348000D01*
G37*
X100330000Y-117348000D02*
X99314000Y-117348000D01*
X100330000Y-116332000D01*
X100330000Y-117348000D01*
X81026000Y-90424000D02*
X80010000Y-91440000D01*
X80010000Y-91440000D02*
X81026000Y-91440000D01*
X81026000Y-91440000D02*
X81026000Y-90424000D01*
G36*
X81026000Y-91440000D02*
G01*
X80010000Y-91440000D01*
X81026000Y-90424000D01*
X81026000Y-91440000D01*
G37*
X81026000Y-91440000D02*
X80010000Y-91440000D01*
X81026000Y-90424000D01*
X81026000Y-91440000D01*
X150241000Y-135509000D02*
X149225000Y-136525000D01*
X149225000Y-136525000D02*
X150241000Y-136525000D01*
X150241000Y-136525000D02*
X150241000Y-135509000D01*
G36*
X150241000Y-136525000D02*
G01*
X149225000Y-136525000D01*
X150241000Y-135509000D01*
X150241000Y-136525000D01*
G37*
X150241000Y-136525000D02*
X149225000Y-136525000D01*
X150241000Y-135509000D01*
X150241000Y-136525000D01*
D12*
X112201500Y-62017000D02*
X116101500Y-62017000D01*
X118701500Y-69737000D02*
X119211500Y-69737000D01*
X119211500Y-62017000D02*
X119211500Y-62537000D01*
X118701500Y-69217000D02*
X119211500Y-69217000D01*
X115871500Y-62537000D02*
X116101500Y-62537000D01*
X115871500Y-68677000D02*
X115871500Y-69217000D01*
X112201500Y-69737000D02*
X116101500Y-69737000D01*
X119211500Y-69217000D02*
X119211500Y-69737000D01*
X118701500Y-62537000D02*
X119211500Y-62537000D01*
X118701500Y-62017000D02*
X119211500Y-62017000D01*
X115871500Y-69217000D02*
X116101500Y-69217000D01*
X115871500Y-64177000D02*
X115871500Y-67577000D01*
X115871500Y-62537000D02*
X115871500Y-63077000D01*
X112201500Y-62017000D02*
X112201500Y-69737000D01*
D11*
X81280000Y-116332000D02*
X80264000Y-117348000D01*
X80264000Y-117348000D02*
X81280000Y-117348000D01*
X81280000Y-117348000D02*
X81280000Y-116332000D01*
G36*
X81280000Y-117348000D02*
G01*
X80264000Y-117348000D01*
X81280000Y-116332000D01*
X81280000Y-117348000D01*
G37*
X81280000Y-117348000D02*
X80264000Y-117348000D01*
X81280000Y-116332000D01*
X81280000Y-117348000D01*
X130937000Y-90424000D02*
X129921000Y-91440000D01*
X129921000Y-91440000D02*
X130937000Y-91440000D01*
X130937000Y-91440000D02*
X130937000Y-90424000D01*
G36*
X130937000Y-91440000D02*
G01*
X129921000Y-91440000D01*
X130937000Y-90424000D01*
X130937000Y-91440000D01*
G37*
X130937000Y-91440000D02*
X129921000Y-91440000D01*
X130937000Y-90424000D01*
X130937000Y-91440000D01*
D12*
X150886800Y-101121180D02*
X150886800Y-95291000D01*
X141887580Y-95291000D02*
X141887580Y-101121180D01*
X155330999Y-97091000D02*
X155330999Y-114491000D01*
X137530999Y-97091000D02*
X137530999Y-114491000D01*
X139530999Y-95291000D02*
X153330999Y-95291000D01*
X141887580Y-101121180D02*
X150886800Y-101121180D01*
X153330999Y-116291000D02*
X139530999Y-116291000D01*
X150886800Y-95291000D02*
X141887580Y-95291000D01*
X141887580Y-95291000D02*
X141887580Y-93599000D01*
X141887580Y-93599000D02*
X150886800Y-93599000D01*
X150886800Y-93599000D02*
X150886800Y-95291000D01*
X155330999Y-97091000D02*
G75*
G03*
X153330999Y-95291000I-2000003J-211114D01*
G01*
X139530999Y-95291000D02*
G75*
G03*
X137530999Y-97091000I-1J-2011110D01*
G01*
X153330999Y-116291000D02*
G75*
G03*
X155330999Y-114491000I1J2011110D01*
G01*
X137530999Y-114491000D02*
G75*
G03*
X139530999Y-116291000I2000003J211114D01*
G01*
X143424219Y-114808000D02*
G75*
G03*
X143424219Y-114808000I-803219J0D01*
G01*
D13*
X156718000Y-98171000D02*
G75*
G03*
X156718000Y-98171000I-127000J0D01*
G01*
D12*
X151044219Y-114808000D02*
G75*
G03*
X151044219Y-114808000I-803219J0D01*
G01*
M02*
