M48
; DRILL file {KiCad 6.0.2+dfsg-1} date 2023年02月14日 19時21分37秒
; FORMAT={-:-/ absolute / inch / decimal}
; #@! TF.CreationDate,2023-02-14T19:21:37+09:00
; #@! TF.GenerationSoftware,Kicad,Pcbnew,6.0.2+dfsg-1
; #@! TF.FileFunction,MixedPlating,1,2
FMAT,2
INCH
; #@! TA.AperFunction,Plated,PTH,ComponentDrill
T1C0.0157
; #@! TA.AperFunction,Plated,PTH,ComponentDrill
T2C0.0866
%
G90
G05
T1
X2.505Y-2.285
X2.505Y-4.06
X2.5241Y-2.2391
X2.5241Y-2.3309
X2.5241Y-4.0141
X2.5241Y-4.1059
X2.57Y-2.22
X2.57Y-2.35
X2.57Y-3.995
X2.57Y-4.125
X2.6159Y-2.2391
X2.6159Y-2.3309
X2.6159Y-4.0141
X2.6159Y-4.1059
X2.635Y-2.285
X2.635Y-4.06
X3.36Y-3.65
X3.36Y-5.425
X3.3791Y-3.6041
X3.3791Y-3.6959
X3.3791Y-5.3791
X3.3791Y-5.4709
X3.425Y-3.585
X3.425Y-3.715
X3.425Y-5.36
X3.425Y-5.49
X3.4709Y-3.6041
X3.4709Y-3.6959
X3.4709Y-5.3791
X3.4709Y-5.4709
X3.49Y-3.65
X3.49Y-5.425
X4.245Y-2.285
X4.245Y-4.06
X4.2641Y-2.2391
X4.2641Y-2.3309
X4.2641Y-4.0141
X4.2641Y-4.1059
X4.31Y-2.22
X4.31Y-2.35
X4.31Y-3.995
X4.31Y-4.125
X4.3559Y-2.2391
X4.3559Y-2.3309
X4.3559Y-4.0141
X4.3559Y-4.1059
X4.375Y-2.285
X4.375Y-4.06
X4.47Y-2.285
X4.47Y-4.06
X4.4891Y-2.2391
X4.4891Y-2.3309
X4.4891Y-4.0141
X4.4891Y-4.1059
X4.535Y-2.22
X4.535Y-2.35
X4.535Y-3.995
X4.535Y-4.125
X4.5809Y-2.2391
X4.5809Y-2.3309
X4.5809Y-4.0141
X4.5809Y-4.1059
X4.6Y-2.285
X4.6Y-4.06
X5.325Y-3.65
X5.325Y-5.425
X5.3441Y-3.6041
X5.3441Y-3.6959
X5.3441Y-5.3791
X5.3441Y-5.4709
X5.39Y-3.585
X5.39Y-3.715
X5.39Y-5.36
X5.39Y-5.49
X5.4359Y-3.6041
X5.4359Y-3.6959
X5.4359Y-5.3791
X5.4359Y-5.4709
X5.455Y-3.65
X5.455Y-5.425
X6.21Y-2.285
X6.21Y-4.06
X6.2291Y-2.2391
X6.2291Y-2.3309
X6.2291Y-4.0141
X6.2291Y-4.1059
X6.275Y-2.22
X6.275Y-2.35
X6.275Y-3.995
X6.275Y-4.125
X6.3209Y-2.2391
X6.3209Y-2.3309
X6.3209Y-4.0141
X6.3209Y-4.1059
X6.34Y-2.285
X6.34Y-4.06
T2
X2.57Y-2.285
X2.57Y-4.06
X3.425Y-3.65
X3.425Y-5.425
X4.31Y-2.285
X4.31Y-4.06
X4.535Y-2.285
X4.535Y-4.06
X5.39Y-3.65
X5.39Y-5.425
X6.275Y-2.285
X6.275Y-4.06
T0
M30
