%TF.GenerationSoftware,KiCad,Pcbnew,6.0.2+dfsg-1*%
%TF.CreationDate,2023-02-14T19:21:34+09:00*%
%TF.ProjectId,pcb-panel,7063622d-7061-46e6-956c-2e6b69636164,rev?*%
%TF.SameCoordinates,Original*%
%TF.FileFunction,Soldermask,Bot*%
%TF.FilePolarity,Negative*%
%FSLAX46Y46*%
G04 Gerber Fmt 4.6, Leading zero omitted, Abs format (unit mm)*
G04 Created by KiCad (PCBNEW 6.0.2+dfsg-1) date 2023-02-14 19:21:34*
%MOMM*%
%LPD*%
G01*
G04 APERTURE LIST*
%ADD10C,0.802000*%
%ADD11C,4.502000*%
G04 APERTURE END LIST*
G36*
X140316842Y-119578948D02*
G01*
X140330720Y-119606983D01*
X140328645Y-119611009D01*
X140302670Y-119645435D01*
X140265911Y-119690883D01*
X140248884Y-119711935D01*
X140245076Y-119716540D01*
X140169723Y-119807668D01*
X140067621Y-119929795D01*
X139945013Y-120075475D01*
X139804335Y-120241867D01*
X139648022Y-120426131D01*
X139478508Y-120625427D01*
X139298229Y-120836915D01*
X139109621Y-121057754D01*
X138915117Y-121285104D01*
X138717154Y-121516124D01*
X138518167Y-121747975D01*
X138320590Y-121977816D01*
X138126858Y-122202806D01*
X137939407Y-122420106D01*
X137760672Y-122626874D01*
X137593088Y-122820271D01*
X137439090Y-122997456D01*
X137301114Y-123155590D01*
X137181593Y-123291830D01*
X137082965Y-123403339D01*
X137007662Y-123487274D01*
X136958122Y-123540795D01*
X136910924Y-123587417D01*
X136862805Y-123621643D01*
X136823946Y-123624641D01*
X136783032Y-123600252D01*
X136768132Y-123584011D01*
X136724427Y-123532988D01*
X136654674Y-123450125D01*
X136561113Y-123338125D01*
X136445984Y-123199687D01*
X136311526Y-123037515D01*
X136159979Y-122854309D01*
X135993581Y-122652772D01*
X135814573Y-122435605D01*
X135625193Y-122205509D01*
X135427682Y-121965187D01*
X135315435Y-121828513D01*
X135109668Y-121577972D01*
X134907353Y-121331636D01*
X134711459Y-121093123D01*
X134524957Y-120866050D01*
X134350819Y-120654033D01*
X134192014Y-120460690D01*
X134051515Y-120289637D01*
X133932291Y-120144492D01*
X133837313Y-120028871D01*
X133769552Y-119946391D01*
X133656799Y-119807046D01*
X133562105Y-119685269D01*
X133533730Y-119646367D01*
X133811735Y-119646367D01*
X135170287Y-121299269D01*
X135244832Y-121389965D01*
X135473479Y-121668135D01*
X135674277Y-121912381D01*
X135849032Y-122124877D01*
X135999551Y-122307795D01*
X136127637Y-122463308D01*
X136235098Y-122593589D01*
X136323739Y-122700811D01*
X136395366Y-122787146D01*
X136451784Y-122854767D01*
X136494798Y-122905848D01*
X136526215Y-122942561D01*
X136547841Y-122967079D01*
X136561480Y-122981575D01*
X136568939Y-122988221D01*
X136572023Y-122989191D01*
X136572538Y-122986657D01*
X136567426Y-122967837D01*
X136549989Y-122906663D01*
X136521194Y-122806641D01*
X136482089Y-122671393D01*
X136433728Y-122504542D01*
X136377160Y-122309711D01*
X136313437Y-122090524D01*
X136243611Y-121850603D01*
X136168732Y-121593571D01*
X136089852Y-121323052D01*
X135612074Y-119685247D01*
X135846371Y-119685247D01*
X135854237Y-119711353D01*
X135874390Y-119779747D01*
X135905713Y-119886635D01*
X135947143Y-120028371D01*
X135997617Y-120201305D01*
X136056069Y-120401791D01*
X136121436Y-120626181D01*
X136192654Y-120870826D01*
X136268658Y-121132079D01*
X136348386Y-121406292D01*
X136426749Y-121675656D01*
X136502579Y-121935840D01*
X136573577Y-122178975D01*
X136638691Y-122401481D01*
X136696869Y-122599779D01*
X136747059Y-122770290D01*
X136788210Y-122909434D01*
X136811229Y-122986657D01*
X136819270Y-123013632D01*
X136839188Y-123079305D01*
X136846910Y-123102873D01*
X136850159Y-123098558D01*
X136865808Y-123059667D01*
X136885844Y-123003019D01*
X137127862Y-123003019D01*
X137130763Y-123000368D01*
X137158587Y-122969801D01*
X137213699Y-122907509D01*
X137293441Y-122816568D01*
X137395158Y-122700053D01*
X137516190Y-122561037D01*
X137653881Y-122402597D01*
X137805572Y-122227806D01*
X137968607Y-122039740D01*
X138140329Y-121841473D01*
X138318079Y-121636080D01*
X138499200Y-121426635D01*
X138681034Y-121216215D01*
X138860925Y-121007893D01*
X139036215Y-120804744D01*
X139204246Y-120609843D01*
X139362361Y-120426265D01*
X139507902Y-120257085D01*
X139638212Y-120105377D01*
X139750634Y-119974216D01*
X139842509Y-119866677D01*
X139911181Y-119785835D01*
X139953992Y-119734764D01*
X139968285Y-119716540D01*
X139967911Y-119716408D01*
X139939153Y-119714883D01*
X139868605Y-119713061D01*
X139761524Y-119711027D01*
X139623166Y-119708862D01*
X139458786Y-119706649D01*
X139273640Y-119704472D01*
X139072985Y-119702414D01*
X138183883Y-119693932D01*
X137653835Y-121346724D01*
X137573930Y-121596070D01*
X137491761Y-121852886D01*
X137415107Y-122092881D01*
X137345098Y-122312499D01*
X137282864Y-122508181D01*
X137229534Y-122676368D01*
X137186239Y-122813504D01*
X137154109Y-122916030D01*
X137134274Y-122980387D01*
X137127862Y-123003019D01*
X136885844Y-123003019D01*
X136891559Y-122986860D01*
X136924766Y-122887741D01*
X136962781Y-122769915D01*
X136982786Y-122707019D01*
X137020221Y-122589695D01*
X137069185Y-122436510D01*
X137127978Y-122252773D01*
X137194900Y-122043791D01*
X137268252Y-121814875D01*
X137346331Y-121571334D01*
X137427439Y-121318475D01*
X137509875Y-121061609D01*
X137512063Y-121054792D01*
X137590291Y-120810827D01*
X137663876Y-120580836D01*
X137731575Y-120368734D01*
X137792149Y-120178432D01*
X137844355Y-120013843D01*
X137886952Y-119878881D01*
X137918700Y-119777459D01*
X137938357Y-119713488D01*
X137944682Y-119690883D01*
X137931772Y-119690165D01*
X137876346Y-119688596D01*
X137781668Y-119686439D01*
X137652549Y-119683789D01*
X137493799Y-119680739D01*
X137310226Y-119677384D01*
X137106643Y-119673820D01*
X136887858Y-119670139D01*
X136748981Y-119667898D01*
X136516657Y-119664481D01*
X136326147Y-119662272D01*
X136173676Y-119661326D01*
X136055471Y-119661699D01*
X135967759Y-119663444D01*
X135906767Y-119666616D01*
X135868720Y-119671271D01*
X135849846Y-119677463D01*
X135846371Y-119685247D01*
X135612074Y-119685247D01*
X135607670Y-119670149D01*
X135359035Y-119652131D01*
X135287331Y-119648273D01*
X135163138Y-119644328D01*
X135008787Y-119641425D01*
X134833907Y-119639691D01*
X134648125Y-119639253D01*
X134461068Y-119640240D01*
X133811735Y-119646367D01*
X133533730Y-119646367D01*
X133493073Y-119590626D01*
X133451722Y-119525890D01*
X133440070Y-119493831D01*
X133450026Y-119477124D01*
X133487000Y-119425310D01*
X133492697Y-119417685D01*
X135944017Y-119417685D01*
X135948261Y-119418717D01*
X135990267Y-119421799D01*
X136072846Y-119425224D01*
X136190902Y-119428860D01*
X136339341Y-119432576D01*
X136513069Y-119436240D01*
X136706990Y-119439719D01*
X136916010Y-119442881D01*
X137876031Y-119456104D01*
X137875916Y-119455942D01*
X138314301Y-119455942D01*
X138316493Y-119456104D01*
X138333950Y-119457394D01*
X138396223Y-119459634D01*
X138495807Y-119462393D01*
X138627281Y-119465544D01*
X138785223Y-119468957D01*
X138964211Y-119472503D01*
X139158823Y-119476053D01*
X139996570Y-119490703D01*
X139577251Y-118926400D01*
X139555721Y-118897429D01*
X139446138Y-118750065D01*
X139343073Y-118611612D01*
X139250891Y-118487926D01*
X139173961Y-118384864D01*
X139116649Y-118308281D01*
X139083322Y-118264035D01*
X139008710Y-118165972D01*
X138658118Y-118808227D01*
X138618903Y-118880179D01*
X138535631Y-119033754D01*
X138461762Y-119171063D01*
X138399995Y-119287022D01*
X138353030Y-119376544D01*
X138323565Y-119434546D01*
X138314301Y-119455942D01*
X137875916Y-119455942D01*
X137765595Y-119300594D01*
X137572382Y-119029100D01*
X137401768Y-118790573D01*
X137255263Y-118587123D01*
X137133360Y-118419423D01*
X137036552Y-118288145D01*
X136965330Y-118193963D01*
X136920188Y-118137551D01*
X136901618Y-118119581D01*
X136900532Y-118120183D01*
X136878048Y-118144912D01*
X136832639Y-118201612D01*
X136768273Y-118284903D01*
X136688919Y-118389407D01*
X136598544Y-118509744D01*
X136501117Y-118640535D01*
X136400606Y-118776400D01*
X136300980Y-118911961D01*
X136206206Y-119041838D01*
X136120253Y-119160651D01*
X136047089Y-119263022D01*
X135990683Y-119343571D01*
X135955003Y-119396918D01*
X135952901Y-119400891D01*
X135944017Y-119417685D01*
X133492697Y-119417685D01*
X133517299Y-119384756D01*
X133792015Y-119384756D01*
X134272837Y-119399315D01*
X134529597Y-119406481D01*
X134771524Y-119411928D01*
X134983975Y-119415300D01*
X135163944Y-119416593D01*
X135308424Y-119415802D01*
X135414408Y-119412924D01*
X135478886Y-119407955D01*
X135498853Y-119400891D01*
X135477738Y-119356319D01*
X135438423Y-119280493D01*
X135384396Y-119179676D01*
X135319069Y-119059936D01*
X135245852Y-118927339D01*
X135168155Y-118787951D01*
X135089390Y-118647840D01*
X135012966Y-118513071D01*
X134942295Y-118389711D01*
X134880786Y-118283828D01*
X134831850Y-118201487D01*
X134798898Y-118148755D01*
X134785341Y-118131699D01*
X134776333Y-118142491D01*
X134740586Y-118186870D01*
X134681331Y-118261089D01*
X134602143Y-118360648D01*
X134506598Y-118481052D01*
X134398270Y-118617803D01*
X134280735Y-118766404D01*
X133792015Y-119384756D01*
X133517299Y-119384756D01*
X133548312Y-119343247D01*
X133630930Y-119234875D01*
X133731825Y-119104139D01*
X133847967Y-118954980D01*
X133976325Y-118791341D01*
X134113869Y-118617164D01*
X134594149Y-118010952D01*
X135003379Y-118010952D01*
X135005490Y-118015720D01*
X135025528Y-118054323D01*
X135064486Y-118127285D01*
X135119596Y-118229483D01*
X135188092Y-118355796D01*
X135267207Y-118501104D01*
X135354175Y-118660284D01*
X135392801Y-118730725D01*
X135477430Y-118884020D01*
X135553709Y-119020782D01*
X135618769Y-119135957D01*
X135669744Y-119224490D01*
X135703765Y-119281327D01*
X135717964Y-119301413D01*
X135718368Y-119301277D01*
X135737381Y-119280091D01*
X135779934Y-119226568D01*
X135842006Y-119146114D01*
X135919581Y-119044134D01*
X136008638Y-118926032D01*
X136105158Y-118797213D01*
X136205123Y-118663082D01*
X136304515Y-118529044D01*
X136399314Y-118400504D01*
X136485500Y-118282866D01*
X136559057Y-118181536D01*
X136615964Y-118101919D01*
X136649785Y-118052921D01*
X137144798Y-118052921D01*
X137606552Y-118694547D01*
X137683089Y-118800615D01*
X137788624Y-118945890D01*
X137883430Y-119075252D01*
X137964122Y-119184142D01*
X138027316Y-119268003D01*
X138069626Y-119322277D01*
X138087668Y-119342408D01*
X138091552Y-119339623D01*
X138115665Y-119305440D01*
X138158178Y-119236434D01*
X138216168Y-119137630D01*
X138286715Y-119014052D01*
X138366897Y-118870725D01*
X138453793Y-118712673D01*
X138800555Y-118076704D01*
X138596489Y-118058689D01*
X138541462Y-118055130D01*
X138431557Y-118051073D01*
X138290082Y-118048079D01*
X138126274Y-118046280D01*
X137949371Y-118045809D01*
X137768611Y-118046797D01*
X137144798Y-118052921D01*
X136649785Y-118052921D01*
X136652203Y-118049418D01*
X136663755Y-118029440D01*
X136658596Y-118028544D01*
X136615689Y-118026296D01*
X136534906Y-118023907D01*
X136422819Y-118021452D01*
X136286001Y-118019002D01*
X136131023Y-118016632D01*
X135964457Y-118014415D01*
X135792874Y-118012424D01*
X135622847Y-118010731D01*
X135460948Y-118009411D01*
X135313748Y-118008536D01*
X135187819Y-118008179D01*
X135089733Y-118008414D01*
X135026063Y-118009314D01*
X135003379Y-118010952D01*
X134594149Y-118010952D01*
X134777442Y-117779599D01*
X135181749Y-117779231D01*
X135242473Y-117779281D01*
X135392356Y-117779992D01*
X135572077Y-117781461D01*
X135777335Y-117783609D01*
X136003830Y-117786361D01*
X136247263Y-117789639D01*
X136503334Y-117793367D01*
X136767742Y-117797468D01*
X137036188Y-117801866D01*
X137304372Y-117806482D01*
X137567993Y-117811242D01*
X137822753Y-117816068D01*
X138064351Y-117820882D01*
X138288486Y-117825610D01*
X138490860Y-117830173D01*
X138667172Y-117834495D01*
X138813122Y-117838500D01*
X138924410Y-117842110D01*
X138996737Y-117845249D01*
X139025803Y-117847840D01*
X139026972Y-117848426D01*
X139053079Y-117874417D01*
X139102968Y-117933703D01*
X139173124Y-118021547D01*
X139179267Y-118029440D01*
X139216053Y-118076704D01*
X139260034Y-118133212D01*
X139360184Y-118263961D01*
X139470060Y-118409057D01*
X139586149Y-118563763D01*
X139704936Y-118723343D01*
X139822907Y-118883059D01*
X139936550Y-119038174D01*
X140042350Y-119183952D01*
X140136793Y-119315655D01*
X140216365Y-119428547D01*
X140258934Y-119490703D01*
X140277553Y-119517890D01*
X140316842Y-119578948D01*
G37*
G36*
X90405842Y-119578948D02*
G01*
X90419720Y-119606983D01*
X90417645Y-119611009D01*
X90391670Y-119645435D01*
X90354911Y-119690883D01*
X90337884Y-119711935D01*
X90334076Y-119716540D01*
X90258723Y-119807668D01*
X90156621Y-119929795D01*
X90034013Y-120075475D01*
X89893335Y-120241867D01*
X89737022Y-120426131D01*
X89567508Y-120625427D01*
X89387229Y-120836915D01*
X89198621Y-121057754D01*
X89004117Y-121285104D01*
X88806154Y-121516124D01*
X88607167Y-121747975D01*
X88409590Y-121977816D01*
X88215858Y-122202806D01*
X88028407Y-122420106D01*
X87849672Y-122626874D01*
X87682088Y-122820271D01*
X87528090Y-122997456D01*
X87390114Y-123155590D01*
X87270593Y-123291830D01*
X87171965Y-123403339D01*
X87096662Y-123487274D01*
X87047122Y-123540795D01*
X86999924Y-123587417D01*
X86951805Y-123621643D01*
X86912946Y-123624641D01*
X86872032Y-123600252D01*
X86857132Y-123584011D01*
X86813427Y-123532988D01*
X86743674Y-123450125D01*
X86650113Y-123338125D01*
X86534984Y-123199687D01*
X86400526Y-123037515D01*
X86248979Y-122854309D01*
X86082581Y-122652772D01*
X85903573Y-122435605D01*
X85714193Y-122205509D01*
X85516682Y-121965187D01*
X85404435Y-121828513D01*
X85198668Y-121577972D01*
X84996353Y-121331636D01*
X84800459Y-121093123D01*
X84613957Y-120866050D01*
X84439819Y-120654033D01*
X84281014Y-120460690D01*
X84140515Y-120289637D01*
X84021291Y-120144492D01*
X83926313Y-120028871D01*
X83858552Y-119946391D01*
X83745799Y-119807046D01*
X83651105Y-119685269D01*
X83622730Y-119646367D01*
X83900735Y-119646367D01*
X85259287Y-121299269D01*
X85333832Y-121389965D01*
X85562479Y-121668135D01*
X85763277Y-121912381D01*
X85938032Y-122124877D01*
X86088551Y-122307795D01*
X86216637Y-122463308D01*
X86324098Y-122593589D01*
X86412739Y-122700811D01*
X86484366Y-122787146D01*
X86540784Y-122854767D01*
X86583798Y-122905848D01*
X86615215Y-122942561D01*
X86636841Y-122967079D01*
X86650480Y-122981575D01*
X86657939Y-122988221D01*
X86661023Y-122989191D01*
X86661538Y-122986657D01*
X86656426Y-122967837D01*
X86638989Y-122906663D01*
X86610194Y-122806641D01*
X86571089Y-122671393D01*
X86522728Y-122504542D01*
X86466160Y-122309711D01*
X86402437Y-122090524D01*
X86332611Y-121850603D01*
X86257732Y-121593571D01*
X86178852Y-121323052D01*
X85701074Y-119685247D01*
X85935371Y-119685247D01*
X85943237Y-119711353D01*
X85963390Y-119779747D01*
X85994713Y-119886635D01*
X86036143Y-120028371D01*
X86086617Y-120201305D01*
X86145069Y-120401791D01*
X86210436Y-120626181D01*
X86281654Y-120870826D01*
X86357658Y-121132079D01*
X86437386Y-121406292D01*
X86515749Y-121675656D01*
X86591579Y-121935840D01*
X86662577Y-122178975D01*
X86727691Y-122401481D01*
X86785869Y-122599779D01*
X86836059Y-122770290D01*
X86877210Y-122909434D01*
X86900229Y-122986657D01*
X86908270Y-123013632D01*
X86928188Y-123079305D01*
X86935910Y-123102873D01*
X86939159Y-123098558D01*
X86954808Y-123059667D01*
X86974844Y-123003019D01*
X87216862Y-123003019D01*
X87219763Y-123000368D01*
X87247587Y-122969801D01*
X87302699Y-122907509D01*
X87382441Y-122816568D01*
X87484158Y-122700053D01*
X87605190Y-122561037D01*
X87742881Y-122402597D01*
X87894572Y-122227806D01*
X88057607Y-122039740D01*
X88229329Y-121841473D01*
X88407079Y-121636080D01*
X88588200Y-121426635D01*
X88770034Y-121216215D01*
X88949925Y-121007893D01*
X89125215Y-120804744D01*
X89293246Y-120609843D01*
X89451361Y-120426265D01*
X89596902Y-120257085D01*
X89727212Y-120105377D01*
X89839634Y-119974216D01*
X89931509Y-119866677D01*
X90000181Y-119785835D01*
X90042992Y-119734764D01*
X90057285Y-119716540D01*
X90056911Y-119716408D01*
X90028153Y-119714883D01*
X89957605Y-119713061D01*
X89850524Y-119711027D01*
X89712166Y-119708862D01*
X89547786Y-119706649D01*
X89362640Y-119704472D01*
X89161985Y-119702414D01*
X88272883Y-119693932D01*
X87742835Y-121346724D01*
X87662930Y-121596070D01*
X87580761Y-121852886D01*
X87504107Y-122092881D01*
X87434098Y-122312499D01*
X87371864Y-122508181D01*
X87318534Y-122676368D01*
X87275239Y-122813504D01*
X87243109Y-122916030D01*
X87223274Y-122980387D01*
X87216862Y-123003019D01*
X86974844Y-123003019D01*
X86980559Y-122986860D01*
X87013766Y-122887741D01*
X87051781Y-122769915D01*
X87071786Y-122707019D01*
X87109221Y-122589695D01*
X87158185Y-122436510D01*
X87216978Y-122252773D01*
X87283900Y-122043791D01*
X87357252Y-121814875D01*
X87435331Y-121571334D01*
X87516439Y-121318475D01*
X87598875Y-121061609D01*
X87601063Y-121054792D01*
X87679291Y-120810827D01*
X87752876Y-120580836D01*
X87820575Y-120368734D01*
X87881149Y-120178432D01*
X87933355Y-120013843D01*
X87975952Y-119878881D01*
X88007700Y-119777459D01*
X88027357Y-119713488D01*
X88033682Y-119690883D01*
X88020772Y-119690165D01*
X87965346Y-119688596D01*
X87870668Y-119686439D01*
X87741549Y-119683789D01*
X87582799Y-119680739D01*
X87399226Y-119677384D01*
X87195643Y-119673820D01*
X86976858Y-119670139D01*
X86837981Y-119667898D01*
X86605657Y-119664481D01*
X86415147Y-119662272D01*
X86262676Y-119661326D01*
X86144471Y-119661699D01*
X86056759Y-119663444D01*
X85995767Y-119666616D01*
X85957720Y-119671271D01*
X85938846Y-119677463D01*
X85935371Y-119685247D01*
X85701074Y-119685247D01*
X85696670Y-119670149D01*
X85448035Y-119652131D01*
X85376331Y-119648273D01*
X85252138Y-119644328D01*
X85097787Y-119641425D01*
X84922907Y-119639691D01*
X84737125Y-119639253D01*
X84550068Y-119640240D01*
X83900735Y-119646367D01*
X83622730Y-119646367D01*
X83582073Y-119590626D01*
X83540722Y-119525890D01*
X83529070Y-119493831D01*
X83539026Y-119477124D01*
X83576000Y-119425310D01*
X83581697Y-119417685D01*
X86033017Y-119417685D01*
X86037261Y-119418717D01*
X86079267Y-119421799D01*
X86161846Y-119425224D01*
X86279902Y-119428860D01*
X86428341Y-119432576D01*
X86602069Y-119436240D01*
X86795990Y-119439719D01*
X87005010Y-119442881D01*
X87965031Y-119456104D01*
X87964916Y-119455942D01*
X88403301Y-119455942D01*
X88405493Y-119456104D01*
X88422950Y-119457394D01*
X88485223Y-119459634D01*
X88584807Y-119462393D01*
X88716281Y-119465544D01*
X88874223Y-119468957D01*
X89053211Y-119472503D01*
X89247823Y-119476053D01*
X90085570Y-119490703D01*
X89666251Y-118926400D01*
X89644721Y-118897429D01*
X89535138Y-118750065D01*
X89432073Y-118611612D01*
X89339891Y-118487926D01*
X89262961Y-118384864D01*
X89205649Y-118308281D01*
X89172322Y-118264035D01*
X89097710Y-118165972D01*
X88747118Y-118808227D01*
X88707903Y-118880179D01*
X88624631Y-119033754D01*
X88550762Y-119171063D01*
X88488995Y-119287022D01*
X88442030Y-119376544D01*
X88412565Y-119434546D01*
X88403301Y-119455942D01*
X87964916Y-119455942D01*
X87854595Y-119300594D01*
X87661382Y-119029100D01*
X87490768Y-118790573D01*
X87344263Y-118587123D01*
X87222360Y-118419423D01*
X87125552Y-118288145D01*
X87054330Y-118193963D01*
X87009188Y-118137551D01*
X86990618Y-118119581D01*
X86989532Y-118120183D01*
X86967048Y-118144912D01*
X86921639Y-118201612D01*
X86857273Y-118284903D01*
X86777919Y-118389407D01*
X86687544Y-118509744D01*
X86590117Y-118640535D01*
X86489606Y-118776400D01*
X86389980Y-118911961D01*
X86295206Y-119041838D01*
X86209253Y-119160651D01*
X86136089Y-119263022D01*
X86079683Y-119343571D01*
X86044003Y-119396918D01*
X86041901Y-119400891D01*
X86033017Y-119417685D01*
X83581697Y-119417685D01*
X83606299Y-119384756D01*
X83881015Y-119384756D01*
X84361837Y-119399315D01*
X84618597Y-119406481D01*
X84860524Y-119411928D01*
X85072975Y-119415300D01*
X85252944Y-119416593D01*
X85397424Y-119415802D01*
X85503408Y-119412924D01*
X85567886Y-119407955D01*
X85587853Y-119400891D01*
X85566738Y-119356319D01*
X85527423Y-119280493D01*
X85473396Y-119179676D01*
X85408069Y-119059936D01*
X85334852Y-118927339D01*
X85257155Y-118787951D01*
X85178390Y-118647840D01*
X85101966Y-118513071D01*
X85031295Y-118389711D01*
X84969786Y-118283828D01*
X84920850Y-118201487D01*
X84887898Y-118148755D01*
X84874341Y-118131699D01*
X84865333Y-118142491D01*
X84829586Y-118186870D01*
X84770331Y-118261089D01*
X84691143Y-118360648D01*
X84595598Y-118481052D01*
X84487270Y-118617803D01*
X84369735Y-118766404D01*
X83881015Y-119384756D01*
X83606299Y-119384756D01*
X83637312Y-119343247D01*
X83719930Y-119234875D01*
X83820825Y-119104139D01*
X83936967Y-118954980D01*
X84065325Y-118791341D01*
X84202869Y-118617164D01*
X84683149Y-118010952D01*
X85092379Y-118010952D01*
X85094490Y-118015720D01*
X85114528Y-118054323D01*
X85153486Y-118127285D01*
X85208596Y-118229483D01*
X85277092Y-118355796D01*
X85356207Y-118501104D01*
X85443175Y-118660284D01*
X85481801Y-118730725D01*
X85566430Y-118884020D01*
X85642709Y-119020782D01*
X85707769Y-119135957D01*
X85758744Y-119224490D01*
X85792765Y-119281327D01*
X85806964Y-119301413D01*
X85807368Y-119301277D01*
X85826381Y-119280091D01*
X85868934Y-119226568D01*
X85931006Y-119146114D01*
X86008581Y-119044134D01*
X86097638Y-118926032D01*
X86194158Y-118797213D01*
X86294123Y-118663082D01*
X86393515Y-118529044D01*
X86488314Y-118400504D01*
X86574500Y-118282866D01*
X86648057Y-118181536D01*
X86704964Y-118101919D01*
X86738785Y-118052921D01*
X87233798Y-118052921D01*
X87695552Y-118694547D01*
X87772089Y-118800615D01*
X87877624Y-118945890D01*
X87972430Y-119075252D01*
X88053122Y-119184142D01*
X88116316Y-119268003D01*
X88158626Y-119322277D01*
X88176668Y-119342408D01*
X88180552Y-119339623D01*
X88204665Y-119305440D01*
X88247178Y-119236434D01*
X88305168Y-119137630D01*
X88375715Y-119014052D01*
X88455897Y-118870725D01*
X88542793Y-118712673D01*
X88889555Y-118076704D01*
X88685489Y-118058689D01*
X88630462Y-118055130D01*
X88520557Y-118051073D01*
X88379082Y-118048079D01*
X88215274Y-118046280D01*
X88038371Y-118045809D01*
X87857611Y-118046797D01*
X87233798Y-118052921D01*
X86738785Y-118052921D01*
X86741203Y-118049418D01*
X86752755Y-118029440D01*
X86747596Y-118028544D01*
X86704689Y-118026296D01*
X86623906Y-118023907D01*
X86511819Y-118021452D01*
X86375001Y-118019002D01*
X86220023Y-118016632D01*
X86053457Y-118014415D01*
X85881874Y-118012424D01*
X85711847Y-118010731D01*
X85549948Y-118009411D01*
X85402748Y-118008536D01*
X85276819Y-118008179D01*
X85178733Y-118008414D01*
X85115063Y-118009314D01*
X85092379Y-118010952D01*
X84683149Y-118010952D01*
X84866442Y-117779599D01*
X85270749Y-117779231D01*
X85331473Y-117779281D01*
X85481356Y-117779992D01*
X85661077Y-117781461D01*
X85866335Y-117783609D01*
X86092830Y-117786361D01*
X86336263Y-117789639D01*
X86592334Y-117793367D01*
X86856742Y-117797468D01*
X87125188Y-117801866D01*
X87393372Y-117806482D01*
X87656993Y-117811242D01*
X87911753Y-117816068D01*
X88153351Y-117820882D01*
X88377486Y-117825610D01*
X88579860Y-117830173D01*
X88756172Y-117834495D01*
X88902122Y-117838500D01*
X89013410Y-117842110D01*
X89085737Y-117845249D01*
X89114803Y-117847840D01*
X89115972Y-117848426D01*
X89142079Y-117874417D01*
X89191968Y-117933703D01*
X89262124Y-118021547D01*
X89268267Y-118029440D01*
X89305053Y-118076704D01*
X89349034Y-118133212D01*
X89449184Y-118263961D01*
X89559060Y-118409057D01*
X89675149Y-118563763D01*
X89793936Y-118723343D01*
X89911907Y-118883059D01*
X90025550Y-119038174D01*
X90131350Y-119183952D01*
X90225793Y-119315655D01*
X90305365Y-119428547D01*
X90347934Y-119490703D01*
X90366553Y-119517890D01*
X90405842Y-119578948D01*
G37*
G36*
X140316842Y-74493948D02*
G01*
X140330720Y-74521983D01*
X140328645Y-74526009D01*
X140302670Y-74560435D01*
X140265911Y-74605883D01*
X140248884Y-74626935D01*
X140245076Y-74631540D01*
X140169723Y-74722668D01*
X140067621Y-74844795D01*
X139945013Y-74990475D01*
X139804335Y-75156867D01*
X139648022Y-75341131D01*
X139478508Y-75540427D01*
X139298229Y-75751915D01*
X139109621Y-75972754D01*
X138915117Y-76200104D01*
X138717154Y-76431124D01*
X138518167Y-76662975D01*
X138320590Y-76892816D01*
X138126858Y-77117806D01*
X137939407Y-77335106D01*
X137760672Y-77541874D01*
X137593088Y-77735271D01*
X137439090Y-77912456D01*
X137301114Y-78070590D01*
X137181593Y-78206830D01*
X137082965Y-78318339D01*
X137007662Y-78402274D01*
X136958122Y-78455795D01*
X136910924Y-78502417D01*
X136862805Y-78536643D01*
X136823946Y-78539641D01*
X136783032Y-78515252D01*
X136768132Y-78499011D01*
X136724427Y-78447988D01*
X136654674Y-78365125D01*
X136561113Y-78253125D01*
X136445984Y-78114687D01*
X136311526Y-77952515D01*
X136159979Y-77769309D01*
X135993581Y-77567772D01*
X135814573Y-77350605D01*
X135625193Y-77120509D01*
X135427682Y-76880187D01*
X135315435Y-76743513D01*
X135109668Y-76492972D01*
X134907353Y-76246636D01*
X134711459Y-76008123D01*
X134524957Y-75781050D01*
X134350819Y-75569033D01*
X134192014Y-75375690D01*
X134051515Y-75204637D01*
X133932291Y-75059492D01*
X133837313Y-74943871D01*
X133769552Y-74861391D01*
X133656799Y-74722046D01*
X133562105Y-74600269D01*
X133533730Y-74561367D01*
X133811735Y-74561367D01*
X135170287Y-76214269D01*
X135244832Y-76304965D01*
X135473479Y-76583135D01*
X135674277Y-76827381D01*
X135849032Y-77039877D01*
X135999551Y-77222795D01*
X136127637Y-77378308D01*
X136235098Y-77508589D01*
X136323739Y-77615811D01*
X136395366Y-77702146D01*
X136451784Y-77769767D01*
X136494798Y-77820848D01*
X136526215Y-77857561D01*
X136547841Y-77882079D01*
X136561480Y-77896575D01*
X136568939Y-77903221D01*
X136572023Y-77904191D01*
X136572538Y-77901657D01*
X136567426Y-77882837D01*
X136549989Y-77821663D01*
X136521194Y-77721641D01*
X136482089Y-77586393D01*
X136433728Y-77419542D01*
X136377160Y-77224711D01*
X136313437Y-77005524D01*
X136243611Y-76765603D01*
X136168732Y-76508571D01*
X136089852Y-76238052D01*
X135612074Y-74600247D01*
X135846371Y-74600247D01*
X135854237Y-74626353D01*
X135874390Y-74694747D01*
X135905713Y-74801635D01*
X135947143Y-74943371D01*
X135997617Y-75116305D01*
X136056069Y-75316791D01*
X136121436Y-75541181D01*
X136192654Y-75785826D01*
X136268658Y-76047079D01*
X136348386Y-76321292D01*
X136426749Y-76590656D01*
X136502579Y-76850840D01*
X136573577Y-77093975D01*
X136638691Y-77316481D01*
X136696869Y-77514779D01*
X136747059Y-77685290D01*
X136788210Y-77824434D01*
X136811229Y-77901657D01*
X136819270Y-77928632D01*
X136839188Y-77994305D01*
X136846910Y-78017873D01*
X136850159Y-78013558D01*
X136865808Y-77974667D01*
X136885844Y-77918019D01*
X137127862Y-77918019D01*
X137130763Y-77915368D01*
X137158587Y-77884801D01*
X137213699Y-77822509D01*
X137293441Y-77731568D01*
X137395158Y-77615053D01*
X137516190Y-77476037D01*
X137653881Y-77317597D01*
X137805572Y-77142806D01*
X137968607Y-76954740D01*
X138140329Y-76756473D01*
X138318079Y-76551080D01*
X138499200Y-76341635D01*
X138681034Y-76131215D01*
X138860925Y-75922893D01*
X139036215Y-75719744D01*
X139204246Y-75524843D01*
X139362361Y-75341265D01*
X139507902Y-75172085D01*
X139638212Y-75020377D01*
X139750634Y-74889216D01*
X139842509Y-74781677D01*
X139911181Y-74700835D01*
X139953992Y-74649764D01*
X139968285Y-74631540D01*
X139967911Y-74631408D01*
X139939153Y-74629883D01*
X139868605Y-74628061D01*
X139761524Y-74626027D01*
X139623166Y-74623862D01*
X139458786Y-74621649D01*
X139273640Y-74619472D01*
X139072985Y-74617414D01*
X138183883Y-74608932D01*
X137653835Y-76261724D01*
X137573930Y-76511070D01*
X137491761Y-76767886D01*
X137415107Y-77007881D01*
X137345098Y-77227499D01*
X137282864Y-77423181D01*
X137229534Y-77591368D01*
X137186239Y-77728504D01*
X137154109Y-77831030D01*
X137134274Y-77895387D01*
X137127862Y-77918019D01*
X136885844Y-77918019D01*
X136891559Y-77901860D01*
X136924766Y-77802741D01*
X136962781Y-77684915D01*
X136982786Y-77622019D01*
X137020221Y-77504695D01*
X137069185Y-77351510D01*
X137127978Y-77167773D01*
X137194900Y-76958791D01*
X137268252Y-76729875D01*
X137346331Y-76486334D01*
X137427439Y-76233475D01*
X137509875Y-75976609D01*
X137512063Y-75969792D01*
X137590291Y-75725827D01*
X137663876Y-75495836D01*
X137731575Y-75283734D01*
X137792149Y-75093432D01*
X137844355Y-74928843D01*
X137886952Y-74793881D01*
X137918700Y-74692459D01*
X137938357Y-74628488D01*
X137944682Y-74605883D01*
X137931772Y-74605165D01*
X137876346Y-74603596D01*
X137781668Y-74601439D01*
X137652549Y-74598789D01*
X137493799Y-74595739D01*
X137310226Y-74592384D01*
X137106643Y-74588820D01*
X136887858Y-74585139D01*
X136748981Y-74582898D01*
X136516657Y-74579481D01*
X136326147Y-74577272D01*
X136173676Y-74576326D01*
X136055471Y-74576699D01*
X135967759Y-74578444D01*
X135906767Y-74581616D01*
X135868720Y-74586271D01*
X135849846Y-74592463D01*
X135846371Y-74600247D01*
X135612074Y-74600247D01*
X135607670Y-74585149D01*
X135359035Y-74567131D01*
X135287331Y-74563273D01*
X135163138Y-74559328D01*
X135008787Y-74556425D01*
X134833907Y-74554691D01*
X134648125Y-74554253D01*
X134461068Y-74555240D01*
X133811735Y-74561367D01*
X133533730Y-74561367D01*
X133493073Y-74505626D01*
X133451722Y-74440890D01*
X133440070Y-74408831D01*
X133450026Y-74392124D01*
X133487000Y-74340310D01*
X133492697Y-74332685D01*
X135944017Y-74332685D01*
X135948261Y-74333717D01*
X135990267Y-74336799D01*
X136072846Y-74340224D01*
X136190902Y-74343860D01*
X136339341Y-74347576D01*
X136513069Y-74351240D01*
X136706990Y-74354719D01*
X136916010Y-74357881D01*
X137876031Y-74371104D01*
X137875916Y-74370942D01*
X138314301Y-74370942D01*
X138316493Y-74371104D01*
X138333950Y-74372394D01*
X138396223Y-74374634D01*
X138495807Y-74377393D01*
X138627281Y-74380544D01*
X138785223Y-74383957D01*
X138964211Y-74387503D01*
X139158823Y-74391053D01*
X139996570Y-74405703D01*
X139577251Y-73841400D01*
X139555721Y-73812429D01*
X139446138Y-73665065D01*
X139343073Y-73526612D01*
X139250891Y-73402926D01*
X139173961Y-73299864D01*
X139116649Y-73223281D01*
X139083322Y-73179035D01*
X139008710Y-73080972D01*
X138658118Y-73723227D01*
X138618903Y-73795179D01*
X138535631Y-73948754D01*
X138461762Y-74086063D01*
X138399995Y-74202022D01*
X138353030Y-74291544D01*
X138323565Y-74349546D01*
X138314301Y-74370942D01*
X137875916Y-74370942D01*
X137765595Y-74215594D01*
X137572382Y-73944100D01*
X137401768Y-73705573D01*
X137255263Y-73502123D01*
X137133360Y-73334423D01*
X137036552Y-73203145D01*
X136965330Y-73108963D01*
X136920188Y-73052551D01*
X136901618Y-73034581D01*
X136900532Y-73035183D01*
X136878048Y-73059912D01*
X136832639Y-73116612D01*
X136768273Y-73199903D01*
X136688919Y-73304407D01*
X136598544Y-73424744D01*
X136501117Y-73555535D01*
X136400606Y-73691400D01*
X136300980Y-73826961D01*
X136206206Y-73956838D01*
X136120253Y-74075651D01*
X136047089Y-74178022D01*
X135990683Y-74258571D01*
X135955003Y-74311918D01*
X135952901Y-74315891D01*
X135944017Y-74332685D01*
X133492697Y-74332685D01*
X133517299Y-74299756D01*
X133792015Y-74299756D01*
X134272837Y-74314315D01*
X134529597Y-74321481D01*
X134771524Y-74326928D01*
X134983975Y-74330300D01*
X135163944Y-74331593D01*
X135308424Y-74330802D01*
X135414408Y-74327924D01*
X135478886Y-74322955D01*
X135498853Y-74315891D01*
X135477738Y-74271319D01*
X135438423Y-74195493D01*
X135384396Y-74094676D01*
X135319069Y-73974936D01*
X135245852Y-73842339D01*
X135168155Y-73702951D01*
X135089390Y-73562840D01*
X135012966Y-73428071D01*
X134942295Y-73304711D01*
X134880786Y-73198828D01*
X134831850Y-73116487D01*
X134798898Y-73063755D01*
X134785341Y-73046699D01*
X134776333Y-73057491D01*
X134740586Y-73101870D01*
X134681331Y-73176089D01*
X134602143Y-73275648D01*
X134506598Y-73396052D01*
X134398270Y-73532803D01*
X134280735Y-73681404D01*
X133792015Y-74299756D01*
X133517299Y-74299756D01*
X133548312Y-74258247D01*
X133630930Y-74149875D01*
X133731825Y-74019139D01*
X133847967Y-73869980D01*
X133976325Y-73706341D01*
X134113869Y-73532164D01*
X134594149Y-72925952D01*
X135003379Y-72925952D01*
X135005490Y-72930720D01*
X135025528Y-72969323D01*
X135064486Y-73042285D01*
X135119596Y-73144483D01*
X135188092Y-73270796D01*
X135267207Y-73416104D01*
X135354175Y-73575284D01*
X135392801Y-73645725D01*
X135477430Y-73799020D01*
X135553709Y-73935782D01*
X135618769Y-74050957D01*
X135669744Y-74139490D01*
X135703765Y-74196327D01*
X135717964Y-74216413D01*
X135718368Y-74216277D01*
X135737381Y-74195091D01*
X135779934Y-74141568D01*
X135842006Y-74061114D01*
X135919581Y-73959134D01*
X136008638Y-73841032D01*
X136105158Y-73712213D01*
X136205123Y-73578082D01*
X136304515Y-73444044D01*
X136399314Y-73315504D01*
X136485500Y-73197866D01*
X136559057Y-73096536D01*
X136615964Y-73016919D01*
X136649785Y-72967921D01*
X137144798Y-72967921D01*
X137606552Y-73609547D01*
X137683089Y-73715615D01*
X137788624Y-73860890D01*
X137883430Y-73990252D01*
X137964122Y-74099142D01*
X138027316Y-74183003D01*
X138069626Y-74237277D01*
X138087668Y-74257408D01*
X138091552Y-74254623D01*
X138115665Y-74220440D01*
X138158178Y-74151434D01*
X138216168Y-74052630D01*
X138286715Y-73929052D01*
X138366897Y-73785725D01*
X138453793Y-73627673D01*
X138800555Y-72991704D01*
X138596489Y-72973689D01*
X138541462Y-72970130D01*
X138431557Y-72966073D01*
X138290082Y-72963079D01*
X138126274Y-72961280D01*
X137949371Y-72960809D01*
X137768611Y-72961797D01*
X137144798Y-72967921D01*
X136649785Y-72967921D01*
X136652203Y-72964418D01*
X136663755Y-72944440D01*
X136658596Y-72943544D01*
X136615689Y-72941296D01*
X136534906Y-72938907D01*
X136422819Y-72936452D01*
X136286001Y-72934002D01*
X136131023Y-72931632D01*
X135964457Y-72929415D01*
X135792874Y-72927424D01*
X135622847Y-72925731D01*
X135460948Y-72924411D01*
X135313748Y-72923536D01*
X135187819Y-72923179D01*
X135089733Y-72923414D01*
X135026063Y-72924314D01*
X135003379Y-72925952D01*
X134594149Y-72925952D01*
X134777442Y-72694599D01*
X135181749Y-72694231D01*
X135242473Y-72694281D01*
X135392356Y-72694992D01*
X135572077Y-72696461D01*
X135777335Y-72698609D01*
X136003830Y-72701361D01*
X136247263Y-72704639D01*
X136503334Y-72708367D01*
X136767742Y-72712468D01*
X137036188Y-72716866D01*
X137304372Y-72721482D01*
X137567993Y-72726242D01*
X137822753Y-72731068D01*
X138064351Y-72735882D01*
X138288486Y-72740610D01*
X138490860Y-72745173D01*
X138667172Y-72749495D01*
X138813122Y-72753500D01*
X138924410Y-72757110D01*
X138996737Y-72760249D01*
X139025803Y-72762840D01*
X139026972Y-72763426D01*
X139053079Y-72789417D01*
X139102968Y-72848703D01*
X139173124Y-72936547D01*
X139179267Y-72944440D01*
X139216053Y-72991704D01*
X139260034Y-73048212D01*
X139360184Y-73178961D01*
X139470060Y-73324057D01*
X139586149Y-73478763D01*
X139704936Y-73638343D01*
X139822907Y-73798059D01*
X139936550Y-73953174D01*
X140042350Y-74098952D01*
X140136793Y-74230655D01*
X140216365Y-74343547D01*
X140258934Y-74405703D01*
X140277553Y-74432890D01*
X140316842Y-74493948D01*
G37*
G36*
X90405842Y-74493948D02*
G01*
X90419720Y-74521983D01*
X90417645Y-74526009D01*
X90391670Y-74560435D01*
X90354911Y-74605883D01*
X90337884Y-74626935D01*
X90334076Y-74631540D01*
X90258723Y-74722668D01*
X90156621Y-74844795D01*
X90034013Y-74990475D01*
X89893335Y-75156867D01*
X89737022Y-75341131D01*
X89567508Y-75540427D01*
X89387229Y-75751915D01*
X89198621Y-75972754D01*
X89004117Y-76200104D01*
X88806154Y-76431124D01*
X88607167Y-76662975D01*
X88409590Y-76892816D01*
X88215858Y-77117806D01*
X88028407Y-77335106D01*
X87849672Y-77541874D01*
X87682088Y-77735271D01*
X87528090Y-77912456D01*
X87390114Y-78070590D01*
X87270593Y-78206830D01*
X87171965Y-78318339D01*
X87096662Y-78402274D01*
X87047122Y-78455795D01*
X86999924Y-78502417D01*
X86951805Y-78536643D01*
X86912946Y-78539641D01*
X86872032Y-78515252D01*
X86857132Y-78499011D01*
X86813427Y-78447988D01*
X86743674Y-78365125D01*
X86650113Y-78253125D01*
X86534984Y-78114687D01*
X86400526Y-77952515D01*
X86248979Y-77769309D01*
X86082581Y-77567772D01*
X85903573Y-77350605D01*
X85714193Y-77120509D01*
X85516682Y-76880187D01*
X85404435Y-76743513D01*
X85198668Y-76492972D01*
X84996353Y-76246636D01*
X84800459Y-76008123D01*
X84613957Y-75781050D01*
X84439819Y-75569033D01*
X84281014Y-75375690D01*
X84140515Y-75204637D01*
X84021291Y-75059492D01*
X83926313Y-74943871D01*
X83858552Y-74861391D01*
X83745799Y-74722046D01*
X83651105Y-74600269D01*
X83622730Y-74561367D01*
X83900735Y-74561367D01*
X85259287Y-76214269D01*
X85333832Y-76304965D01*
X85562479Y-76583135D01*
X85763277Y-76827381D01*
X85938032Y-77039877D01*
X86088551Y-77222795D01*
X86216637Y-77378308D01*
X86324098Y-77508589D01*
X86412739Y-77615811D01*
X86484366Y-77702146D01*
X86540784Y-77769767D01*
X86583798Y-77820848D01*
X86615215Y-77857561D01*
X86636841Y-77882079D01*
X86650480Y-77896575D01*
X86657939Y-77903221D01*
X86661023Y-77904191D01*
X86661538Y-77901657D01*
X86656426Y-77882837D01*
X86638989Y-77821663D01*
X86610194Y-77721641D01*
X86571089Y-77586393D01*
X86522728Y-77419542D01*
X86466160Y-77224711D01*
X86402437Y-77005524D01*
X86332611Y-76765603D01*
X86257732Y-76508571D01*
X86178852Y-76238052D01*
X85701074Y-74600247D01*
X85935371Y-74600247D01*
X85943237Y-74626353D01*
X85963390Y-74694747D01*
X85994713Y-74801635D01*
X86036143Y-74943371D01*
X86086617Y-75116305D01*
X86145069Y-75316791D01*
X86210436Y-75541181D01*
X86281654Y-75785826D01*
X86357658Y-76047079D01*
X86437386Y-76321292D01*
X86515749Y-76590656D01*
X86591579Y-76850840D01*
X86662577Y-77093975D01*
X86727691Y-77316481D01*
X86785869Y-77514779D01*
X86836059Y-77685290D01*
X86877210Y-77824434D01*
X86900229Y-77901657D01*
X86908270Y-77928632D01*
X86928188Y-77994305D01*
X86935910Y-78017873D01*
X86939159Y-78013558D01*
X86954808Y-77974667D01*
X86974844Y-77918019D01*
X87216862Y-77918019D01*
X87219763Y-77915368D01*
X87247587Y-77884801D01*
X87302699Y-77822509D01*
X87382441Y-77731568D01*
X87484158Y-77615053D01*
X87605190Y-77476037D01*
X87742881Y-77317597D01*
X87894572Y-77142806D01*
X88057607Y-76954740D01*
X88229329Y-76756473D01*
X88407079Y-76551080D01*
X88588200Y-76341635D01*
X88770034Y-76131215D01*
X88949925Y-75922893D01*
X89125215Y-75719744D01*
X89293246Y-75524843D01*
X89451361Y-75341265D01*
X89596902Y-75172085D01*
X89727212Y-75020377D01*
X89839634Y-74889216D01*
X89931509Y-74781677D01*
X90000181Y-74700835D01*
X90042992Y-74649764D01*
X90057285Y-74631540D01*
X90056911Y-74631408D01*
X90028153Y-74629883D01*
X89957605Y-74628061D01*
X89850524Y-74626027D01*
X89712166Y-74623862D01*
X89547786Y-74621649D01*
X89362640Y-74619472D01*
X89161985Y-74617414D01*
X88272883Y-74608932D01*
X87742835Y-76261724D01*
X87662930Y-76511070D01*
X87580761Y-76767886D01*
X87504107Y-77007881D01*
X87434098Y-77227499D01*
X87371864Y-77423181D01*
X87318534Y-77591368D01*
X87275239Y-77728504D01*
X87243109Y-77831030D01*
X87223274Y-77895387D01*
X87216862Y-77918019D01*
X86974844Y-77918019D01*
X86980559Y-77901860D01*
X87013766Y-77802741D01*
X87051781Y-77684915D01*
X87071786Y-77622019D01*
X87109221Y-77504695D01*
X87158185Y-77351510D01*
X87216978Y-77167773D01*
X87283900Y-76958791D01*
X87357252Y-76729875D01*
X87435331Y-76486334D01*
X87516439Y-76233475D01*
X87598875Y-75976609D01*
X87601063Y-75969792D01*
X87679291Y-75725827D01*
X87752876Y-75495836D01*
X87820575Y-75283734D01*
X87881149Y-75093432D01*
X87933355Y-74928843D01*
X87975952Y-74793881D01*
X88007700Y-74692459D01*
X88027357Y-74628488D01*
X88033682Y-74605883D01*
X88020772Y-74605165D01*
X87965346Y-74603596D01*
X87870668Y-74601439D01*
X87741549Y-74598789D01*
X87582799Y-74595739D01*
X87399226Y-74592384D01*
X87195643Y-74588820D01*
X86976858Y-74585139D01*
X86837981Y-74582898D01*
X86605657Y-74579481D01*
X86415147Y-74577272D01*
X86262676Y-74576326D01*
X86144471Y-74576699D01*
X86056759Y-74578444D01*
X85995767Y-74581616D01*
X85957720Y-74586271D01*
X85938846Y-74592463D01*
X85935371Y-74600247D01*
X85701074Y-74600247D01*
X85696670Y-74585149D01*
X85448035Y-74567131D01*
X85376331Y-74563273D01*
X85252138Y-74559328D01*
X85097787Y-74556425D01*
X84922907Y-74554691D01*
X84737125Y-74554253D01*
X84550068Y-74555240D01*
X83900735Y-74561367D01*
X83622730Y-74561367D01*
X83582073Y-74505626D01*
X83540722Y-74440890D01*
X83529070Y-74408831D01*
X83539026Y-74392124D01*
X83576000Y-74340310D01*
X83581697Y-74332685D01*
X86033017Y-74332685D01*
X86037261Y-74333717D01*
X86079267Y-74336799D01*
X86161846Y-74340224D01*
X86279902Y-74343860D01*
X86428341Y-74347576D01*
X86602069Y-74351240D01*
X86795990Y-74354719D01*
X87005010Y-74357881D01*
X87965031Y-74371104D01*
X87964916Y-74370942D01*
X88403301Y-74370942D01*
X88405493Y-74371104D01*
X88422950Y-74372394D01*
X88485223Y-74374634D01*
X88584807Y-74377393D01*
X88716281Y-74380544D01*
X88874223Y-74383957D01*
X89053211Y-74387503D01*
X89247823Y-74391053D01*
X90085570Y-74405703D01*
X89666251Y-73841400D01*
X89644721Y-73812429D01*
X89535138Y-73665065D01*
X89432073Y-73526612D01*
X89339891Y-73402926D01*
X89262961Y-73299864D01*
X89205649Y-73223281D01*
X89172322Y-73179035D01*
X89097710Y-73080972D01*
X88747118Y-73723227D01*
X88707903Y-73795179D01*
X88624631Y-73948754D01*
X88550762Y-74086063D01*
X88488995Y-74202022D01*
X88442030Y-74291544D01*
X88412565Y-74349546D01*
X88403301Y-74370942D01*
X87964916Y-74370942D01*
X87854595Y-74215594D01*
X87661382Y-73944100D01*
X87490768Y-73705573D01*
X87344263Y-73502123D01*
X87222360Y-73334423D01*
X87125552Y-73203145D01*
X87054330Y-73108963D01*
X87009188Y-73052551D01*
X86990618Y-73034581D01*
X86989532Y-73035183D01*
X86967048Y-73059912D01*
X86921639Y-73116612D01*
X86857273Y-73199903D01*
X86777919Y-73304407D01*
X86687544Y-73424744D01*
X86590117Y-73555535D01*
X86489606Y-73691400D01*
X86389980Y-73826961D01*
X86295206Y-73956838D01*
X86209253Y-74075651D01*
X86136089Y-74178022D01*
X86079683Y-74258571D01*
X86044003Y-74311918D01*
X86041901Y-74315891D01*
X86033017Y-74332685D01*
X83581697Y-74332685D01*
X83606299Y-74299756D01*
X83881015Y-74299756D01*
X84361837Y-74314315D01*
X84618597Y-74321481D01*
X84860524Y-74326928D01*
X85072975Y-74330300D01*
X85252944Y-74331593D01*
X85397424Y-74330802D01*
X85503408Y-74327924D01*
X85567886Y-74322955D01*
X85587853Y-74315891D01*
X85566738Y-74271319D01*
X85527423Y-74195493D01*
X85473396Y-74094676D01*
X85408069Y-73974936D01*
X85334852Y-73842339D01*
X85257155Y-73702951D01*
X85178390Y-73562840D01*
X85101966Y-73428071D01*
X85031295Y-73304711D01*
X84969786Y-73198828D01*
X84920850Y-73116487D01*
X84887898Y-73063755D01*
X84874341Y-73046699D01*
X84865333Y-73057491D01*
X84829586Y-73101870D01*
X84770331Y-73176089D01*
X84691143Y-73275648D01*
X84595598Y-73396052D01*
X84487270Y-73532803D01*
X84369735Y-73681404D01*
X83881015Y-74299756D01*
X83606299Y-74299756D01*
X83637312Y-74258247D01*
X83719930Y-74149875D01*
X83820825Y-74019139D01*
X83936967Y-73869980D01*
X84065325Y-73706341D01*
X84202869Y-73532164D01*
X84683149Y-72925952D01*
X85092379Y-72925952D01*
X85094490Y-72930720D01*
X85114528Y-72969323D01*
X85153486Y-73042285D01*
X85208596Y-73144483D01*
X85277092Y-73270796D01*
X85356207Y-73416104D01*
X85443175Y-73575284D01*
X85481801Y-73645725D01*
X85566430Y-73799020D01*
X85642709Y-73935782D01*
X85707769Y-74050957D01*
X85758744Y-74139490D01*
X85792765Y-74196327D01*
X85806964Y-74216413D01*
X85807368Y-74216277D01*
X85826381Y-74195091D01*
X85868934Y-74141568D01*
X85931006Y-74061114D01*
X86008581Y-73959134D01*
X86097638Y-73841032D01*
X86194158Y-73712213D01*
X86294123Y-73578082D01*
X86393515Y-73444044D01*
X86488314Y-73315504D01*
X86574500Y-73197866D01*
X86648057Y-73096536D01*
X86704964Y-73016919D01*
X86738785Y-72967921D01*
X87233798Y-72967921D01*
X87695552Y-73609547D01*
X87772089Y-73715615D01*
X87877624Y-73860890D01*
X87972430Y-73990252D01*
X88053122Y-74099142D01*
X88116316Y-74183003D01*
X88158626Y-74237277D01*
X88176668Y-74257408D01*
X88180552Y-74254623D01*
X88204665Y-74220440D01*
X88247178Y-74151434D01*
X88305168Y-74052630D01*
X88375715Y-73929052D01*
X88455897Y-73785725D01*
X88542793Y-73627673D01*
X88889555Y-72991704D01*
X88685489Y-72973689D01*
X88630462Y-72970130D01*
X88520557Y-72966073D01*
X88379082Y-72963079D01*
X88215274Y-72961280D01*
X88038371Y-72960809D01*
X87857611Y-72961797D01*
X87233798Y-72967921D01*
X86738785Y-72967921D01*
X86741203Y-72964418D01*
X86752755Y-72944440D01*
X86747596Y-72943544D01*
X86704689Y-72941296D01*
X86623906Y-72938907D01*
X86511819Y-72936452D01*
X86375001Y-72934002D01*
X86220023Y-72931632D01*
X86053457Y-72929415D01*
X85881874Y-72927424D01*
X85711847Y-72925731D01*
X85549948Y-72924411D01*
X85402748Y-72923536D01*
X85276819Y-72923179D01*
X85178733Y-72923414D01*
X85115063Y-72924314D01*
X85092379Y-72925952D01*
X84683149Y-72925952D01*
X84866442Y-72694599D01*
X85270749Y-72694231D01*
X85331473Y-72694281D01*
X85481356Y-72694992D01*
X85661077Y-72696461D01*
X85866335Y-72698609D01*
X86092830Y-72701361D01*
X86336263Y-72704639D01*
X86592334Y-72708367D01*
X86856742Y-72712468D01*
X87125188Y-72716866D01*
X87393372Y-72721482D01*
X87656993Y-72726242D01*
X87911753Y-72731068D01*
X88153351Y-72735882D01*
X88377486Y-72740610D01*
X88579860Y-72745173D01*
X88756172Y-72749495D01*
X88902122Y-72753500D01*
X89013410Y-72757110D01*
X89085737Y-72760249D01*
X89114803Y-72762840D01*
X89115972Y-72763426D01*
X89142079Y-72789417D01*
X89191968Y-72848703D01*
X89262124Y-72936547D01*
X89268267Y-72944440D01*
X89305053Y-72991704D01*
X89349034Y-73048212D01*
X89449184Y-73178961D01*
X89559060Y-73324057D01*
X89675149Y-73478763D01*
X89793936Y-73638343D01*
X89911907Y-73798059D01*
X90025550Y-73953174D01*
X90131350Y-74098952D01*
X90225793Y-74230655D01*
X90305365Y-74343547D01*
X90347934Y-74405703D01*
X90366553Y-74432890D01*
X90405842Y-74493948D01*
G37*
G36*
X140316842Y-119578948D02*
G01*
X140330720Y-119606983D01*
X140328645Y-119611009D01*
X140302670Y-119645435D01*
X140265911Y-119690883D01*
X140248884Y-119711935D01*
X140245076Y-119716540D01*
X140169723Y-119807668D01*
X140067621Y-119929795D01*
X139945013Y-120075475D01*
X139804335Y-120241867D01*
X139648022Y-120426131D01*
X139478508Y-120625427D01*
X139298229Y-120836915D01*
X139109621Y-121057754D01*
X138915117Y-121285104D01*
X138717154Y-121516124D01*
X138518167Y-121747975D01*
X138320590Y-121977816D01*
X138126858Y-122202806D01*
X137939407Y-122420106D01*
X137760672Y-122626874D01*
X137593088Y-122820271D01*
X137439090Y-122997456D01*
X137301114Y-123155590D01*
X137181593Y-123291830D01*
X137082965Y-123403339D01*
X137007662Y-123487274D01*
X136958122Y-123540795D01*
X136910924Y-123587417D01*
X136862805Y-123621643D01*
X136823946Y-123624641D01*
X136783032Y-123600252D01*
X136768132Y-123584011D01*
X136724427Y-123532988D01*
X136654674Y-123450125D01*
X136561113Y-123338125D01*
X136445984Y-123199687D01*
X136311526Y-123037515D01*
X136159979Y-122854309D01*
X135993581Y-122652772D01*
X135814573Y-122435605D01*
X135625193Y-122205509D01*
X135427682Y-121965187D01*
X135315435Y-121828513D01*
X135109668Y-121577972D01*
X134907353Y-121331636D01*
X134711459Y-121093123D01*
X134524957Y-120866050D01*
X134350819Y-120654033D01*
X134192014Y-120460690D01*
X134051515Y-120289637D01*
X133932291Y-120144492D01*
X133837313Y-120028871D01*
X133769552Y-119946391D01*
X133656799Y-119807046D01*
X133562105Y-119685269D01*
X133533730Y-119646367D01*
X133811735Y-119646367D01*
X135170287Y-121299269D01*
X135244832Y-121389965D01*
X135473479Y-121668135D01*
X135674277Y-121912381D01*
X135849032Y-122124877D01*
X135999551Y-122307795D01*
X136127637Y-122463308D01*
X136235098Y-122593589D01*
X136323739Y-122700811D01*
X136395366Y-122787146D01*
X136451784Y-122854767D01*
X136494798Y-122905848D01*
X136526215Y-122942561D01*
X136547841Y-122967079D01*
X136561480Y-122981575D01*
X136568939Y-122988221D01*
X136572023Y-122989191D01*
X136572538Y-122986657D01*
X136567426Y-122967837D01*
X136549989Y-122906663D01*
X136521194Y-122806641D01*
X136482089Y-122671393D01*
X136433728Y-122504542D01*
X136377160Y-122309711D01*
X136313437Y-122090524D01*
X136243611Y-121850603D01*
X136168732Y-121593571D01*
X136089852Y-121323052D01*
X135612074Y-119685247D01*
X135846371Y-119685247D01*
X135854237Y-119711353D01*
X135874390Y-119779747D01*
X135905713Y-119886635D01*
X135947143Y-120028371D01*
X135997617Y-120201305D01*
X136056069Y-120401791D01*
X136121436Y-120626181D01*
X136192654Y-120870826D01*
X136268658Y-121132079D01*
X136348386Y-121406292D01*
X136426749Y-121675656D01*
X136502579Y-121935840D01*
X136573577Y-122178975D01*
X136638691Y-122401481D01*
X136696869Y-122599779D01*
X136747059Y-122770290D01*
X136788210Y-122909434D01*
X136811229Y-122986657D01*
X136819270Y-123013632D01*
X136839188Y-123079305D01*
X136846910Y-123102873D01*
X136850159Y-123098558D01*
X136865808Y-123059667D01*
X136885844Y-123003019D01*
X137127862Y-123003019D01*
X137130763Y-123000368D01*
X137158587Y-122969801D01*
X137213699Y-122907509D01*
X137293441Y-122816568D01*
X137395158Y-122700053D01*
X137516190Y-122561037D01*
X137653881Y-122402597D01*
X137805572Y-122227806D01*
X137968607Y-122039740D01*
X138140329Y-121841473D01*
X138318079Y-121636080D01*
X138499200Y-121426635D01*
X138681034Y-121216215D01*
X138860925Y-121007893D01*
X139036215Y-120804744D01*
X139204246Y-120609843D01*
X139362361Y-120426265D01*
X139507902Y-120257085D01*
X139638212Y-120105377D01*
X139750634Y-119974216D01*
X139842509Y-119866677D01*
X139911181Y-119785835D01*
X139953992Y-119734764D01*
X139968285Y-119716540D01*
X139967911Y-119716408D01*
X139939153Y-119714883D01*
X139868605Y-119713061D01*
X139761524Y-119711027D01*
X139623166Y-119708862D01*
X139458786Y-119706649D01*
X139273640Y-119704472D01*
X139072985Y-119702414D01*
X138183883Y-119693932D01*
X137653835Y-121346724D01*
X137573930Y-121596070D01*
X137491761Y-121852886D01*
X137415107Y-122092881D01*
X137345098Y-122312499D01*
X137282864Y-122508181D01*
X137229534Y-122676368D01*
X137186239Y-122813504D01*
X137154109Y-122916030D01*
X137134274Y-122980387D01*
X137127862Y-123003019D01*
X136885844Y-123003019D01*
X136891559Y-122986860D01*
X136924766Y-122887741D01*
X136962781Y-122769915D01*
X136982786Y-122707019D01*
X137020221Y-122589695D01*
X137069185Y-122436510D01*
X137127978Y-122252773D01*
X137194900Y-122043791D01*
X137268252Y-121814875D01*
X137346331Y-121571334D01*
X137427439Y-121318475D01*
X137509875Y-121061609D01*
X137512063Y-121054792D01*
X137590291Y-120810827D01*
X137663876Y-120580836D01*
X137731575Y-120368734D01*
X137792149Y-120178432D01*
X137844355Y-120013843D01*
X137886952Y-119878881D01*
X137918700Y-119777459D01*
X137938357Y-119713488D01*
X137944682Y-119690883D01*
X137931772Y-119690165D01*
X137876346Y-119688596D01*
X137781668Y-119686439D01*
X137652549Y-119683789D01*
X137493799Y-119680739D01*
X137310226Y-119677384D01*
X137106643Y-119673820D01*
X136887858Y-119670139D01*
X136748981Y-119667898D01*
X136516657Y-119664481D01*
X136326147Y-119662272D01*
X136173676Y-119661326D01*
X136055471Y-119661699D01*
X135967759Y-119663444D01*
X135906767Y-119666616D01*
X135868720Y-119671271D01*
X135849846Y-119677463D01*
X135846371Y-119685247D01*
X135612074Y-119685247D01*
X135607670Y-119670149D01*
X135359035Y-119652131D01*
X135287331Y-119648273D01*
X135163138Y-119644328D01*
X135008787Y-119641425D01*
X134833907Y-119639691D01*
X134648125Y-119639253D01*
X134461068Y-119640240D01*
X133811735Y-119646367D01*
X133533730Y-119646367D01*
X133493073Y-119590626D01*
X133451722Y-119525890D01*
X133440070Y-119493831D01*
X133450026Y-119477124D01*
X133487000Y-119425310D01*
X133492697Y-119417685D01*
X135944017Y-119417685D01*
X135948261Y-119418717D01*
X135990267Y-119421799D01*
X136072846Y-119425224D01*
X136190902Y-119428860D01*
X136339341Y-119432576D01*
X136513069Y-119436240D01*
X136706990Y-119439719D01*
X136916010Y-119442881D01*
X137876031Y-119456104D01*
X137875916Y-119455942D01*
X138314301Y-119455942D01*
X138316493Y-119456104D01*
X138333950Y-119457394D01*
X138396223Y-119459634D01*
X138495807Y-119462393D01*
X138627281Y-119465544D01*
X138785223Y-119468957D01*
X138964211Y-119472503D01*
X139158823Y-119476053D01*
X139996570Y-119490703D01*
X139577251Y-118926400D01*
X139555721Y-118897429D01*
X139446138Y-118750065D01*
X139343073Y-118611612D01*
X139250891Y-118487926D01*
X139173961Y-118384864D01*
X139116649Y-118308281D01*
X139083322Y-118264035D01*
X139008710Y-118165972D01*
X138658118Y-118808227D01*
X138618903Y-118880179D01*
X138535631Y-119033754D01*
X138461762Y-119171063D01*
X138399995Y-119287022D01*
X138353030Y-119376544D01*
X138323565Y-119434546D01*
X138314301Y-119455942D01*
X137875916Y-119455942D01*
X137765595Y-119300594D01*
X137572382Y-119029100D01*
X137401768Y-118790573D01*
X137255263Y-118587123D01*
X137133360Y-118419423D01*
X137036552Y-118288145D01*
X136965330Y-118193963D01*
X136920188Y-118137551D01*
X136901618Y-118119581D01*
X136900532Y-118120183D01*
X136878048Y-118144912D01*
X136832639Y-118201612D01*
X136768273Y-118284903D01*
X136688919Y-118389407D01*
X136598544Y-118509744D01*
X136501117Y-118640535D01*
X136400606Y-118776400D01*
X136300980Y-118911961D01*
X136206206Y-119041838D01*
X136120253Y-119160651D01*
X136047089Y-119263022D01*
X135990683Y-119343571D01*
X135955003Y-119396918D01*
X135952901Y-119400891D01*
X135944017Y-119417685D01*
X133492697Y-119417685D01*
X133517299Y-119384756D01*
X133792015Y-119384756D01*
X134272837Y-119399315D01*
X134529597Y-119406481D01*
X134771524Y-119411928D01*
X134983975Y-119415300D01*
X135163944Y-119416593D01*
X135308424Y-119415802D01*
X135414408Y-119412924D01*
X135478886Y-119407955D01*
X135498853Y-119400891D01*
X135477738Y-119356319D01*
X135438423Y-119280493D01*
X135384396Y-119179676D01*
X135319069Y-119059936D01*
X135245852Y-118927339D01*
X135168155Y-118787951D01*
X135089390Y-118647840D01*
X135012966Y-118513071D01*
X134942295Y-118389711D01*
X134880786Y-118283828D01*
X134831850Y-118201487D01*
X134798898Y-118148755D01*
X134785341Y-118131699D01*
X134776333Y-118142491D01*
X134740586Y-118186870D01*
X134681331Y-118261089D01*
X134602143Y-118360648D01*
X134506598Y-118481052D01*
X134398270Y-118617803D01*
X134280735Y-118766404D01*
X133792015Y-119384756D01*
X133517299Y-119384756D01*
X133548312Y-119343247D01*
X133630930Y-119234875D01*
X133731825Y-119104139D01*
X133847967Y-118954980D01*
X133976325Y-118791341D01*
X134113869Y-118617164D01*
X134594149Y-118010952D01*
X135003379Y-118010952D01*
X135005490Y-118015720D01*
X135025528Y-118054323D01*
X135064486Y-118127285D01*
X135119596Y-118229483D01*
X135188092Y-118355796D01*
X135267207Y-118501104D01*
X135354175Y-118660284D01*
X135392801Y-118730725D01*
X135477430Y-118884020D01*
X135553709Y-119020782D01*
X135618769Y-119135957D01*
X135669744Y-119224490D01*
X135703765Y-119281327D01*
X135717964Y-119301413D01*
X135718368Y-119301277D01*
X135737381Y-119280091D01*
X135779934Y-119226568D01*
X135842006Y-119146114D01*
X135919581Y-119044134D01*
X136008638Y-118926032D01*
X136105158Y-118797213D01*
X136205123Y-118663082D01*
X136304515Y-118529044D01*
X136399314Y-118400504D01*
X136485500Y-118282866D01*
X136559057Y-118181536D01*
X136615964Y-118101919D01*
X136649785Y-118052921D01*
X137144798Y-118052921D01*
X137606552Y-118694547D01*
X137683089Y-118800615D01*
X137788624Y-118945890D01*
X137883430Y-119075252D01*
X137964122Y-119184142D01*
X138027316Y-119268003D01*
X138069626Y-119322277D01*
X138087668Y-119342408D01*
X138091552Y-119339623D01*
X138115665Y-119305440D01*
X138158178Y-119236434D01*
X138216168Y-119137630D01*
X138286715Y-119014052D01*
X138366897Y-118870725D01*
X138453793Y-118712673D01*
X138800555Y-118076704D01*
X138596489Y-118058689D01*
X138541462Y-118055130D01*
X138431557Y-118051073D01*
X138290082Y-118048079D01*
X138126274Y-118046280D01*
X137949371Y-118045809D01*
X137768611Y-118046797D01*
X137144798Y-118052921D01*
X136649785Y-118052921D01*
X136652203Y-118049418D01*
X136663755Y-118029440D01*
X136658596Y-118028544D01*
X136615689Y-118026296D01*
X136534906Y-118023907D01*
X136422819Y-118021452D01*
X136286001Y-118019002D01*
X136131023Y-118016632D01*
X135964457Y-118014415D01*
X135792874Y-118012424D01*
X135622847Y-118010731D01*
X135460948Y-118009411D01*
X135313748Y-118008536D01*
X135187819Y-118008179D01*
X135089733Y-118008414D01*
X135026063Y-118009314D01*
X135003379Y-118010952D01*
X134594149Y-118010952D01*
X134777442Y-117779599D01*
X135181749Y-117779231D01*
X135242473Y-117779281D01*
X135392356Y-117779992D01*
X135572077Y-117781461D01*
X135777335Y-117783609D01*
X136003830Y-117786361D01*
X136247263Y-117789639D01*
X136503334Y-117793367D01*
X136767742Y-117797468D01*
X137036188Y-117801866D01*
X137304372Y-117806482D01*
X137567993Y-117811242D01*
X137822753Y-117816068D01*
X138064351Y-117820882D01*
X138288486Y-117825610D01*
X138490860Y-117830173D01*
X138667172Y-117834495D01*
X138813122Y-117838500D01*
X138924410Y-117842110D01*
X138996737Y-117845249D01*
X139025803Y-117847840D01*
X139026972Y-117848426D01*
X139053079Y-117874417D01*
X139102968Y-117933703D01*
X139173124Y-118021547D01*
X139179267Y-118029440D01*
X139216053Y-118076704D01*
X139260034Y-118133212D01*
X139360184Y-118263961D01*
X139470060Y-118409057D01*
X139586149Y-118563763D01*
X139704936Y-118723343D01*
X139822907Y-118883059D01*
X139936550Y-119038174D01*
X140042350Y-119183952D01*
X140136793Y-119315655D01*
X140216365Y-119428547D01*
X140258934Y-119490703D01*
X140277553Y-119517890D01*
X140316842Y-119578948D01*
G37*
G36*
X90405842Y-119578948D02*
G01*
X90419720Y-119606983D01*
X90417645Y-119611009D01*
X90391670Y-119645435D01*
X90354911Y-119690883D01*
X90337884Y-119711935D01*
X90334076Y-119716540D01*
X90258723Y-119807668D01*
X90156621Y-119929795D01*
X90034013Y-120075475D01*
X89893335Y-120241867D01*
X89737022Y-120426131D01*
X89567508Y-120625427D01*
X89387229Y-120836915D01*
X89198621Y-121057754D01*
X89004117Y-121285104D01*
X88806154Y-121516124D01*
X88607167Y-121747975D01*
X88409590Y-121977816D01*
X88215858Y-122202806D01*
X88028407Y-122420106D01*
X87849672Y-122626874D01*
X87682088Y-122820271D01*
X87528090Y-122997456D01*
X87390114Y-123155590D01*
X87270593Y-123291830D01*
X87171965Y-123403339D01*
X87096662Y-123487274D01*
X87047122Y-123540795D01*
X86999924Y-123587417D01*
X86951805Y-123621643D01*
X86912946Y-123624641D01*
X86872032Y-123600252D01*
X86857132Y-123584011D01*
X86813427Y-123532988D01*
X86743674Y-123450125D01*
X86650113Y-123338125D01*
X86534984Y-123199687D01*
X86400526Y-123037515D01*
X86248979Y-122854309D01*
X86082581Y-122652772D01*
X85903573Y-122435605D01*
X85714193Y-122205509D01*
X85516682Y-121965187D01*
X85404435Y-121828513D01*
X85198668Y-121577972D01*
X84996353Y-121331636D01*
X84800459Y-121093123D01*
X84613957Y-120866050D01*
X84439819Y-120654033D01*
X84281014Y-120460690D01*
X84140515Y-120289637D01*
X84021291Y-120144492D01*
X83926313Y-120028871D01*
X83858552Y-119946391D01*
X83745799Y-119807046D01*
X83651105Y-119685269D01*
X83622730Y-119646367D01*
X83900735Y-119646367D01*
X85259287Y-121299269D01*
X85333832Y-121389965D01*
X85562479Y-121668135D01*
X85763277Y-121912381D01*
X85938032Y-122124877D01*
X86088551Y-122307795D01*
X86216637Y-122463308D01*
X86324098Y-122593589D01*
X86412739Y-122700811D01*
X86484366Y-122787146D01*
X86540784Y-122854767D01*
X86583798Y-122905848D01*
X86615215Y-122942561D01*
X86636841Y-122967079D01*
X86650480Y-122981575D01*
X86657939Y-122988221D01*
X86661023Y-122989191D01*
X86661538Y-122986657D01*
X86656426Y-122967837D01*
X86638989Y-122906663D01*
X86610194Y-122806641D01*
X86571089Y-122671393D01*
X86522728Y-122504542D01*
X86466160Y-122309711D01*
X86402437Y-122090524D01*
X86332611Y-121850603D01*
X86257732Y-121593571D01*
X86178852Y-121323052D01*
X85701074Y-119685247D01*
X85935371Y-119685247D01*
X85943237Y-119711353D01*
X85963390Y-119779747D01*
X85994713Y-119886635D01*
X86036143Y-120028371D01*
X86086617Y-120201305D01*
X86145069Y-120401791D01*
X86210436Y-120626181D01*
X86281654Y-120870826D01*
X86357658Y-121132079D01*
X86437386Y-121406292D01*
X86515749Y-121675656D01*
X86591579Y-121935840D01*
X86662577Y-122178975D01*
X86727691Y-122401481D01*
X86785869Y-122599779D01*
X86836059Y-122770290D01*
X86877210Y-122909434D01*
X86900229Y-122986657D01*
X86908270Y-123013632D01*
X86928188Y-123079305D01*
X86935910Y-123102873D01*
X86939159Y-123098558D01*
X86954808Y-123059667D01*
X86974844Y-123003019D01*
X87216862Y-123003019D01*
X87219763Y-123000368D01*
X87247587Y-122969801D01*
X87302699Y-122907509D01*
X87382441Y-122816568D01*
X87484158Y-122700053D01*
X87605190Y-122561037D01*
X87742881Y-122402597D01*
X87894572Y-122227806D01*
X88057607Y-122039740D01*
X88229329Y-121841473D01*
X88407079Y-121636080D01*
X88588200Y-121426635D01*
X88770034Y-121216215D01*
X88949925Y-121007893D01*
X89125215Y-120804744D01*
X89293246Y-120609843D01*
X89451361Y-120426265D01*
X89596902Y-120257085D01*
X89727212Y-120105377D01*
X89839634Y-119974216D01*
X89931509Y-119866677D01*
X90000181Y-119785835D01*
X90042992Y-119734764D01*
X90057285Y-119716540D01*
X90056911Y-119716408D01*
X90028153Y-119714883D01*
X89957605Y-119713061D01*
X89850524Y-119711027D01*
X89712166Y-119708862D01*
X89547786Y-119706649D01*
X89362640Y-119704472D01*
X89161985Y-119702414D01*
X88272883Y-119693932D01*
X87742835Y-121346724D01*
X87662930Y-121596070D01*
X87580761Y-121852886D01*
X87504107Y-122092881D01*
X87434098Y-122312499D01*
X87371864Y-122508181D01*
X87318534Y-122676368D01*
X87275239Y-122813504D01*
X87243109Y-122916030D01*
X87223274Y-122980387D01*
X87216862Y-123003019D01*
X86974844Y-123003019D01*
X86980559Y-122986860D01*
X87013766Y-122887741D01*
X87051781Y-122769915D01*
X87071786Y-122707019D01*
X87109221Y-122589695D01*
X87158185Y-122436510D01*
X87216978Y-122252773D01*
X87283900Y-122043791D01*
X87357252Y-121814875D01*
X87435331Y-121571334D01*
X87516439Y-121318475D01*
X87598875Y-121061609D01*
X87601063Y-121054792D01*
X87679291Y-120810827D01*
X87752876Y-120580836D01*
X87820575Y-120368734D01*
X87881149Y-120178432D01*
X87933355Y-120013843D01*
X87975952Y-119878881D01*
X88007700Y-119777459D01*
X88027357Y-119713488D01*
X88033682Y-119690883D01*
X88020772Y-119690165D01*
X87965346Y-119688596D01*
X87870668Y-119686439D01*
X87741549Y-119683789D01*
X87582799Y-119680739D01*
X87399226Y-119677384D01*
X87195643Y-119673820D01*
X86976858Y-119670139D01*
X86837981Y-119667898D01*
X86605657Y-119664481D01*
X86415147Y-119662272D01*
X86262676Y-119661326D01*
X86144471Y-119661699D01*
X86056759Y-119663444D01*
X85995767Y-119666616D01*
X85957720Y-119671271D01*
X85938846Y-119677463D01*
X85935371Y-119685247D01*
X85701074Y-119685247D01*
X85696670Y-119670149D01*
X85448035Y-119652131D01*
X85376331Y-119648273D01*
X85252138Y-119644328D01*
X85097787Y-119641425D01*
X84922907Y-119639691D01*
X84737125Y-119639253D01*
X84550068Y-119640240D01*
X83900735Y-119646367D01*
X83622730Y-119646367D01*
X83582073Y-119590626D01*
X83540722Y-119525890D01*
X83529070Y-119493831D01*
X83539026Y-119477124D01*
X83576000Y-119425310D01*
X83581697Y-119417685D01*
X86033017Y-119417685D01*
X86037261Y-119418717D01*
X86079267Y-119421799D01*
X86161846Y-119425224D01*
X86279902Y-119428860D01*
X86428341Y-119432576D01*
X86602069Y-119436240D01*
X86795990Y-119439719D01*
X87005010Y-119442881D01*
X87965031Y-119456104D01*
X87964916Y-119455942D01*
X88403301Y-119455942D01*
X88405493Y-119456104D01*
X88422950Y-119457394D01*
X88485223Y-119459634D01*
X88584807Y-119462393D01*
X88716281Y-119465544D01*
X88874223Y-119468957D01*
X89053211Y-119472503D01*
X89247823Y-119476053D01*
X90085570Y-119490703D01*
X89666251Y-118926400D01*
X89644721Y-118897429D01*
X89535138Y-118750065D01*
X89432073Y-118611612D01*
X89339891Y-118487926D01*
X89262961Y-118384864D01*
X89205649Y-118308281D01*
X89172322Y-118264035D01*
X89097710Y-118165972D01*
X88747118Y-118808227D01*
X88707903Y-118880179D01*
X88624631Y-119033754D01*
X88550762Y-119171063D01*
X88488995Y-119287022D01*
X88442030Y-119376544D01*
X88412565Y-119434546D01*
X88403301Y-119455942D01*
X87964916Y-119455942D01*
X87854595Y-119300594D01*
X87661382Y-119029100D01*
X87490768Y-118790573D01*
X87344263Y-118587123D01*
X87222360Y-118419423D01*
X87125552Y-118288145D01*
X87054330Y-118193963D01*
X87009188Y-118137551D01*
X86990618Y-118119581D01*
X86989532Y-118120183D01*
X86967048Y-118144912D01*
X86921639Y-118201612D01*
X86857273Y-118284903D01*
X86777919Y-118389407D01*
X86687544Y-118509744D01*
X86590117Y-118640535D01*
X86489606Y-118776400D01*
X86389980Y-118911961D01*
X86295206Y-119041838D01*
X86209253Y-119160651D01*
X86136089Y-119263022D01*
X86079683Y-119343571D01*
X86044003Y-119396918D01*
X86041901Y-119400891D01*
X86033017Y-119417685D01*
X83581697Y-119417685D01*
X83606299Y-119384756D01*
X83881015Y-119384756D01*
X84361837Y-119399315D01*
X84618597Y-119406481D01*
X84860524Y-119411928D01*
X85072975Y-119415300D01*
X85252944Y-119416593D01*
X85397424Y-119415802D01*
X85503408Y-119412924D01*
X85567886Y-119407955D01*
X85587853Y-119400891D01*
X85566738Y-119356319D01*
X85527423Y-119280493D01*
X85473396Y-119179676D01*
X85408069Y-119059936D01*
X85334852Y-118927339D01*
X85257155Y-118787951D01*
X85178390Y-118647840D01*
X85101966Y-118513071D01*
X85031295Y-118389711D01*
X84969786Y-118283828D01*
X84920850Y-118201487D01*
X84887898Y-118148755D01*
X84874341Y-118131699D01*
X84865333Y-118142491D01*
X84829586Y-118186870D01*
X84770331Y-118261089D01*
X84691143Y-118360648D01*
X84595598Y-118481052D01*
X84487270Y-118617803D01*
X84369735Y-118766404D01*
X83881015Y-119384756D01*
X83606299Y-119384756D01*
X83637312Y-119343247D01*
X83719930Y-119234875D01*
X83820825Y-119104139D01*
X83936967Y-118954980D01*
X84065325Y-118791341D01*
X84202869Y-118617164D01*
X84683149Y-118010952D01*
X85092379Y-118010952D01*
X85094490Y-118015720D01*
X85114528Y-118054323D01*
X85153486Y-118127285D01*
X85208596Y-118229483D01*
X85277092Y-118355796D01*
X85356207Y-118501104D01*
X85443175Y-118660284D01*
X85481801Y-118730725D01*
X85566430Y-118884020D01*
X85642709Y-119020782D01*
X85707769Y-119135957D01*
X85758744Y-119224490D01*
X85792765Y-119281327D01*
X85806964Y-119301413D01*
X85807368Y-119301277D01*
X85826381Y-119280091D01*
X85868934Y-119226568D01*
X85931006Y-119146114D01*
X86008581Y-119044134D01*
X86097638Y-118926032D01*
X86194158Y-118797213D01*
X86294123Y-118663082D01*
X86393515Y-118529044D01*
X86488314Y-118400504D01*
X86574500Y-118282866D01*
X86648057Y-118181536D01*
X86704964Y-118101919D01*
X86738785Y-118052921D01*
X87233798Y-118052921D01*
X87695552Y-118694547D01*
X87772089Y-118800615D01*
X87877624Y-118945890D01*
X87972430Y-119075252D01*
X88053122Y-119184142D01*
X88116316Y-119268003D01*
X88158626Y-119322277D01*
X88176668Y-119342408D01*
X88180552Y-119339623D01*
X88204665Y-119305440D01*
X88247178Y-119236434D01*
X88305168Y-119137630D01*
X88375715Y-119014052D01*
X88455897Y-118870725D01*
X88542793Y-118712673D01*
X88889555Y-118076704D01*
X88685489Y-118058689D01*
X88630462Y-118055130D01*
X88520557Y-118051073D01*
X88379082Y-118048079D01*
X88215274Y-118046280D01*
X88038371Y-118045809D01*
X87857611Y-118046797D01*
X87233798Y-118052921D01*
X86738785Y-118052921D01*
X86741203Y-118049418D01*
X86752755Y-118029440D01*
X86747596Y-118028544D01*
X86704689Y-118026296D01*
X86623906Y-118023907D01*
X86511819Y-118021452D01*
X86375001Y-118019002D01*
X86220023Y-118016632D01*
X86053457Y-118014415D01*
X85881874Y-118012424D01*
X85711847Y-118010731D01*
X85549948Y-118009411D01*
X85402748Y-118008536D01*
X85276819Y-118008179D01*
X85178733Y-118008414D01*
X85115063Y-118009314D01*
X85092379Y-118010952D01*
X84683149Y-118010952D01*
X84866442Y-117779599D01*
X85270749Y-117779231D01*
X85331473Y-117779281D01*
X85481356Y-117779992D01*
X85661077Y-117781461D01*
X85866335Y-117783609D01*
X86092830Y-117786361D01*
X86336263Y-117789639D01*
X86592334Y-117793367D01*
X86856742Y-117797468D01*
X87125188Y-117801866D01*
X87393372Y-117806482D01*
X87656993Y-117811242D01*
X87911753Y-117816068D01*
X88153351Y-117820882D01*
X88377486Y-117825610D01*
X88579860Y-117830173D01*
X88756172Y-117834495D01*
X88902122Y-117838500D01*
X89013410Y-117842110D01*
X89085737Y-117845249D01*
X89114803Y-117847840D01*
X89115972Y-117848426D01*
X89142079Y-117874417D01*
X89191968Y-117933703D01*
X89262124Y-118021547D01*
X89268267Y-118029440D01*
X89305053Y-118076704D01*
X89349034Y-118133212D01*
X89449184Y-118263961D01*
X89559060Y-118409057D01*
X89675149Y-118563763D01*
X89793936Y-118723343D01*
X89911907Y-118883059D01*
X90025550Y-119038174D01*
X90131350Y-119183952D01*
X90225793Y-119315655D01*
X90305365Y-119428547D01*
X90347934Y-119490703D01*
X90366553Y-119517890D01*
X90405842Y-119578948D01*
G37*
G36*
X140316842Y-74493948D02*
G01*
X140330720Y-74521983D01*
X140328645Y-74526009D01*
X140302670Y-74560435D01*
X140265911Y-74605883D01*
X140248884Y-74626935D01*
X140245076Y-74631540D01*
X140169723Y-74722668D01*
X140067621Y-74844795D01*
X139945013Y-74990475D01*
X139804335Y-75156867D01*
X139648022Y-75341131D01*
X139478508Y-75540427D01*
X139298229Y-75751915D01*
X139109621Y-75972754D01*
X138915117Y-76200104D01*
X138717154Y-76431124D01*
X138518167Y-76662975D01*
X138320590Y-76892816D01*
X138126858Y-77117806D01*
X137939407Y-77335106D01*
X137760672Y-77541874D01*
X137593088Y-77735271D01*
X137439090Y-77912456D01*
X137301114Y-78070590D01*
X137181593Y-78206830D01*
X137082965Y-78318339D01*
X137007662Y-78402274D01*
X136958122Y-78455795D01*
X136910924Y-78502417D01*
X136862805Y-78536643D01*
X136823946Y-78539641D01*
X136783032Y-78515252D01*
X136768132Y-78499011D01*
X136724427Y-78447988D01*
X136654674Y-78365125D01*
X136561113Y-78253125D01*
X136445984Y-78114687D01*
X136311526Y-77952515D01*
X136159979Y-77769309D01*
X135993581Y-77567772D01*
X135814573Y-77350605D01*
X135625193Y-77120509D01*
X135427682Y-76880187D01*
X135315435Y-76743513D01*
X135109668Y-76492972D01*
X134907353Y-76246636D01*
X134711459Y-76008123D01*
X134524957Y-75781050D01*
X134350819Y-75569033D01*
X134192014Y-75375690D01*
X134051515Y-75204637D01*
X133932291Y-75059492D01*
X133837313Y-74943871D01*
X133769552Y-74861391D01*
X133656799Y-74722046D01*
X133562105Y-74600269D01*
X133533730Y-74561367D01*
X133811735Y-74561367D01*
X135170287Y-76214269D01*
X135244832Y-76304965D01*
X135473479Y-76583135D01*
X135674277Y-76827381D01*
X135849032Y-77039877D01*
X135999551Y-77222795D01*
X136127637Y-77378308D01*
X136235098Y-77508589D01*
X136323739Y-77615811D01*
X136395366Y-77702146D01*
X136451784Y-77769767D01*
X136494798Y-77820848D01*
X136526215Y-77857561D01*
X136547841Y-77882079D01*
X136561480Y-77896575D01*
X136568939Y-77903221D01*
X136572023Y-77904191D01*
X136572538Y-77901657D01*
X136567426Y-77882837D01*
X136549989Y-77821663D01*
X136521194Y-77721641D01*
X136482089Y-77586393D01*
X136433728Y-77419542D01*
X136377160Y-77224711D01*
X136313437Y-77005524D01*
X136243611Y-76765603D01*
X136168732Y-76508571D01*
X136089852Y-76238052D01*
X135612074Y-74600247D01*
X135846371Y-74600247D01*
X135854237Y-74626353D01*
X135874390Y-74694747D01*
X135905713Y-74801635D01*
X135947143Y-74943371D01*
X135997617Y-75116305D01*
X136056069Y-75316791D01*
X136121436Y-75541181D01*
X136192654Y-75785826D01*
X136268658Y-76047079D01*
X136348386Y-76321292D01*
X136426749Y-76590656D01*
X136502579Y-76850840D01*
X136573577Y-77093975D01*
X136638691Y-77316481D01*
X136696869Y-77514779D01*
X136747059Y-77685290D01*
X136788210Y-77824434D01*
X136811229Y-77901657D01*
X136819270Y-77928632D01*
X136839188Y-77994305D01*
X136846910Y-78017873D01*
X136850159Y-78013558D01*
X136865808Y-77974667D01*
X136885844Y-77918019D01*
X137127862Y-77918019D01*
X137130763Y-77915368D01*
X137158587Y-77884801D01*
X137213699Y-77822509D01*
X137293441Y-77731568D01*
X137395158Y-77615053D01*
X137516190Y-77476037D01*
X137653881Y-77317597D01*
X137805572Y-77142806D01*
X137968607Y-76954740D01*
X138140329Y-76756473D01*
X138318079Y-76551080D01*
X138499200Y-76341635D01*
X138681034Y-76131215D01*
X138860925Y-75922893D01*
X139036215Y-75719744D01*
X139204246Y-75524843D01*
X139362361Y-75341265D01*
X139507902Y-75172085D01*
X139638212Y-75020377D01*
X139750634Y-74889216D01*
X139842509Y-74781677D01*
X139911181Y-74700835D01*
X139953992Y-74649764D01*
X139968285Y-74631540D01*
X139967911Y-74631408D01*
X139939153Y-74629883D01*
X139868605Y-74628061D01*
X139761524Y-74626027D01*
X139623166Y-74623862D01*
X139458786Y-74621649D01*
X139273640Y-74619472D01*
X139072985Y-74617414D01*
X138183883Y-74608932D01*
X137653835Y-76261724D01*
X137573930Y-76511070D01*
X137491761Y-76767886D01*
X137415107Y-77007881D01*
X137345098Y-77227499D01*
X137282864Y-77423181D01*
X137229534Y-77591368D01*
X137186239Y-77728504D01*
X137154109Y-77831030D01*
X137134274Y-77895387D01*
X137127862Y-77918019D01*
X136885844Y-77918019D01*
X136891559Y-77901860D01*
X136924766Y-77802741D01*
X136962781Y-77684915D01*
X136982786Y-77622019D01*
X137020221Y-77504695D01*
X137069185Y-77351510D01*
X137127978Y-77167773D01*
X137194900Y-76958791D01*
X137268252Y-76729875D01*
X137346331Y-76486334D01*
X137427439Y-76233475D01*
X137509875Y-75976609D01*
X137512063Y-75969792D01*
X137590291Y-75725827D01*
X137663876Y-75495836D01*
X137731575Y-75283734D01*
X137792149Y-75093432D01*
X137844355Y-74928843D01*
X137886952Y-74793881D01*
X137918700Y-74692459D01*
X137938357Y-74628488D01*
X137944682Y-74605883D01*
X137931772Y-74605165D01*
X137876346Y-74603596D01*
X137781668Y-74601439D01*
X137652549Y-74598789D01*
X137493799Y-74595739D01*
X137310226Y-74592384D01*
X137106643Y-74588820D01*
X136887858Y-74585139D01*
X136748981Y-74582898D01*
X136516657Y-74579481D01*
X136326147Y-74577272D01*
X136173676Y-74576326D01*
X136055471Y-74576699D01*
X135967759Y-74578444D01*
X135906767Y-74581616D01*
X135868720Y-74586271D01*
X135849846Y-74592463D01*
X135846371Y-74600247D01*
X135612074Y-74600247D01*
X135607670Y-74585149D01*
X135359035Y-74567131D01*
X135287331Y-74563273D01*
X135163138Y-74559328D01*
X135008787Y-74556425D01*
X134833907Y-74554691D01*
X134648125Y-74554253D01*
X134461068Y-74555240D01*
X133811735Y-74561367D01*
X133533730Y-74561367D01*
X133493073Y-74505626D01*
X133451722Y-74440890D01*
X133440070Y-74408831D01*
X133450026Y-74392124D01*
X133487000Y-74340310D01*
X133492697Y-74332685D01*
X135944017Y-74332685D01*
X135948261Y-74333717D01*
X135990267Y-74336799D01*
X136072846Y-74340224D01*
X136190902Y-74343860D01*
X136339341Y-74347576D01*
X136513069Y-74351240D01*
X136706990Y-74354719D01*
X136916010Y-74357881D01*
X137876031Y-74371104D01*
X137875916Y-74370942D01*
X138314301Y-74370942D01*
X138316493Y-74371104D01*
X138333950Y-74372394D01*
X138396223Y-74374634D01*
X138495807Y-74377393D01*
X138627281Y-74380544D01*
X138785223Y-74383957D01*
X138964211Y-74387503D01*
X139158823Y-74391053D01*
X139996570Y-74405703D01*
X139577251Y-73841400D01*
X139555721Y-73812429D01*
X139446138Y-73665065D01*
X139343073Y-73526612D01*
X139250891Y-73402926D01*
X139173961Y-73299864D01*
X139116649Y-73223281D01*
X139083322Y-73179035D01*
X139008710Y-73080972D01*
X138658118Y-73723227D01*
X138618903Y-73795179D01*
X138535631Y-73948754D01*
X138461762Y-74086063D01*
X138399995Y-74202022D01*
X138353030Y-74291544D01*
X138323565Y-74349546D01*
X138314301Y-74370942D01*
X137875916Y-74370942D01*
X137765595Y-74215594D01*
X137572382Y-73944100D01*
X137401768Y-73705573D01*
X137255263Y-73502123D01*
X137133360Y-73334423D01*
X137036552Y-73203145D01*
X136965330Y-73108963D01*
X136920188Y-73052551D01*
X136901618Y-73034581D01*
X136900532Y-73035183D01*
X136878048Y-73059912D01*
X136832639Y-73116612D01*
X136768273Y-73199903D01*
X136688919Y-73304407D01*
X136598544Y-73424744D01*
X136501117Y-73555535D01*
X136400606Y-73691400D01*
X136300980Y-73826961D01*
X136206206Y-73956838D01*
X136120253Y-74075651D01*
X136047089Y-74178022D01*
X135990683Y-74258571D01*
X135955003Y-74311918D01*
X135952901Y-74315891D01*
X135944017Y-74332685D01*
X133492697Y-74332685D01*
X133517299Y-74299756D01*
X133792015Y-74299756D01*
X134272837Y-74314315D01*
X134529597Y-74321481D01*
X134771524Y-74326928D01*
X134983975Y-74330300D01*
X135163944Y-74331593D01*
X135308424Y-74330802D01*
X135414408Y-74327924D01*
X135478886Y-74322955D01*
X135498853Y-74315891D01*
X135477738Y-74271319D01*
X135438423Y-74195493D01*
X135384396Y-74094676D01*
X135319069Y-73974936D01*
X135245852Y-73842339D01*
X135168155Y-73702951D01*
X135089390Y-73562840D01*
X135012966Y-73428071D01*
X134942295Y-73304711D01*
X134880786Y-73198828D01*
X134831850Y-73116487D01*
X134798898Y-73063755D01*
X134785341Y-73046699D01*
X134776333Y-73057491D01*
X134740586Y-73101870D01*
X134681331Y-73176089D01*
X134602143Y-73275648D01*
X134506598Y-73396052D01*
X134398270Y-73532803D01*
X134280735Y-73681404D01*
X133792015Y-74299756D01*
X133517299Y-74299756D01*
X133548312Y-74258247D01*
X133630930Y-74149875D01*
X133731825Y-74019139D01*
X133847967Y-73869980D01*
X133976325Y-73706341D01*
X134113869Y-73532164D01*
X134594149Y-72925952D01*
X135003379Y-72925952D01*
X135005490Y-72930720D01*
X135025528Y-72969323D01*
X135064486Y-73042285D01*
X135119596Y-73144483D01*
X135188092Y-73270796D01*
X135267207Y-73416104D01*
X135354175Y-73575284D01*
X135392801Y-73645725D01*
X135477430Y-73799020D01*
X135553709Y-73935782D01*
X135618769Y-74050957D01*
X135669744Y-74139490D01*
X135703765Y-74196327D01*
X135717964Y-74216413D01*
X135718368Y-74216277D01*
X135737381Y-74195091D01*
X135779934Y-74141568D01*
X135842006Y-74061114D01*
X135919581Y-73959134D01*
X136008638Y-73841032D01*
X136105158Y-73712213D01*
X136205123Y-73578082D01*
X136304515Y-73444044D01*
X136399314Y-73315504D01*
X136485500Y-73197866D01*
X136559057Y-73096536D01*
X136615964Y-73016919D01*
X136649785Y-72967921D01*
X137144798Y-72967921D01*
X137606552Y-73609547D01*
X137683089Y-73715615D01*
X137788624Y-73860890D01*
X137883430Y-73990252D01*
X137964122Y-74099142D01*
X138027316Y-74183003D01*
X138069626Y-74237277D01*
X138087668Y-74257408D01*
X138091552Y-74254623D01*
X138115665Y-74220440D01*
X138158178Y-74151434D01*
X138216168Y-74052630D01*
X138286715Y-73929052D01*
X138366897Y-73785725D01*
X138453793Y-73627673D01*
X138800555Y-72991704D01*
X138596489Y-72973689D01*
X138541462Y-72970130D01*
X138431557Y-72966073D01*
X138290082Y-72963079D01*
X138126274Y-72961280D01*
X137949371Y-72960809D01*
X137768611Y-72961797D01*
X137144798Y-72967921D01*
X136649785Y-72967921D01*
X136652203Y-72964418D01*
X136663755Y-72944440D01*
X136658596Y-72943544D01*
X136615689Y-72941296D01*
X136534906Y-72938907D01*
X136422819Y-72936452D01*
X136286001Y-72934002D01*
X136131023Y-72931632D01*
X135964457Y-72929415D01*
X135792874Y-72927424D01*
X135622847Y-72925731D01*
X135460948Y-72924411D01*
X135313748Y-72923536D01*
X135187819Y-72923179D01*
X135089733Y-72923414D01*
X135026063Y-72924314D01*
X135003379Y-72925952D01*
X134594149Y-72925952D01*
X134777442Y-72694599D01*
X135181749Y-72694231D01*
X135242473Y-72694281D01*
X135392356Y-72694992D01*
X135572077Y-72696461D01*
X135777335Y-72698609D01*
X136003830Y-72701361D01*
X136247263Y-72704639D01*
X136503334Y-72708367D01*
X136767742Y-72712468D01*
X137036188Y-72716866D01*
X137304372Y-72721482D01*
X137567993Y-72726242D01*
X137822753Y-72731068D01*
X138064351Y-72735882D01*
X138288486Y-72740610D01*
X138490860Y-72745173D01*
X138667172Y-72749495D01*
X138813122Y-72753500D01*
X138924410Y-72757110D01*
X138996737Y-72760249D01*
X139025803Y-72762840D01*
X139026972Y-72763426D01*
X139053079Y-72789417D01*
X139102968Y-72848703D01*
X139173124Y-72936547D01*
X139179267Y-72944440D01*
X139216053Y-72991704D01*
X139260034Y-73048212D01*
X139360184Y-73178961D01*
X139470060Y-73324057D01*
X139586149Y-73478763D01*
X139704936Y-73638343D01*
X139822907Y-73798059D01*
X139936550Y-73953174D01*
X140042350Y-74098952D01*
X140136793Y-74230655D01*
X140216365Y-74343547D01*
X140258934Y-74405703D01*
X140277553Y-74432890D01*
X140316842Y-74493948D01*
G37*
G36*
X90405842Y-74493948D02*
G01*
X90419720Y-74521983D01*
X90417645Y-74526009D01*
X90391670Y-74560435D01*
X90354911Y-74605883D01*
X90337884Y-74626935D01*
X90334076Y-74631540D01*
X90258723Y-74722668D01*
X90156621Y-74844795D01*
X90034013Y-74990475D01*
X89893335Y-75156867D01*
X89737022Y-75341131D01*
X89567508Y-75540427D01*
X89387229Y-75751915D01*
X89198621Y-75972754D01*
X89004117Y-76200104D01*
X88806154Y-76431124D01*
X88607167Y-76662975D01*
X88409590Y-76892816D01*
X88215858Y-77117806D01*
X88028407Y-77335106D01*
X87849672Y-77541874D01*
X87682088Y-77735271D01*
X87528090Y-77912456D01*
X87390114Y-78070590D01*
X87270593Y-78206830D01*
X87171965Y-78318339D01*
X87096662Y-78402274D01*
X87047122Y-78455795D01*
X86999924Y-78502417D01*
X86951805Y-78536643D01*
X86912946Y-78539641D01*
X86872032Y-78515252D01*
X86857132Y-78499011D01*
X86813427Y-78447988D01*
X86743674Y-78365125D01*
X86650113Y-78253125D01*
X86534984Y-78114687D01*
X86400526Y-77952515D01*
X86248979Y-77769309D01*
X86082581Y-77567772D01*
X85903573Y-77350605D01*
X85714193Y-77120509D01*
X85516682Y-76880187D01*
X85404435Y-76743513D01*
X85198668Y-76492972D01*
X84996353Y-76246636D01*
X84800459Y-76008123D01*
X84613957Y-75781050D01*
X84439819Y-75569033D01*
X84281014Y-75375690D01*
X84140515Y-75204637D01*
X84021291Y-75059492D01*
X83926313Y-74943871D01*
X83858552Y-74861391D01*
X83745799Y-74722046D01*
X83651105Y-74600269D01*
X83622730Y-74561367D01*
X83900735Y-74561367D01*
X85259287Y-76214269D01*
X85333832Y-76304965D01*
X85562479Y-76583135D01*
X85763277Y-76827381D01*
X85938032Y-77039877D01*
X86088551Y-77222795D01*
X86216637Y-77378308D01*
X86324098Y-77508589D01*
X86412739Y-77615811D01*
X86484366Y-77702146D01*
X86540784Y-77769767D01*
X86583798Y-77820848D01*
X86615215Y-77857561D01*
X86636841Y-77882079D01*
X86650480Y-77896575D01*
X86657939Y-77903221D01*
X86661023Y-77904191D01*
X86661538Y-77901657D01*
X86656426Y-77882837D01*
X86638989Y-77821663D01*
X86610194Y-77721641D01*
X86571089Y-77586393D01*
X86522728Y-77419542D01*
X86466160Y-77224711D01*
X86402437Y-77005524D01*
X86332611Y-76765603D01*
X86257732Y-76508571D01*
X86178852Y-76238052D01*
X85701074Y-74600247D01*
X85935371Y-74600247D01*
X85943237Y-74626353D01*
X85963390Y-74694747D01*
X85994713Y-74801635D01*
X86036143Y-74943371D01*
X86086617Y-75116305D01*
X86145069Y-75316791D01*
X86210436Y-75541181D01*
X86281654Y-75785826D01*
X86357658Y-76047079D01*
X86437386Y-76321292D01*
X86515749Y-76590656D01*
X86591579Y-76850840D01*
X86662577Y-77093975D01*
X86727691Y-77316481D01*
X86785869Y-77514779D01*
X86836059Y-77685290D01*
X86877210Y-77824434D01*
X86900229Y-77901657D01*
X86908270Y-77928632D01*
X86928188Y-77994305D01*
X86935910Y-78017873D01*
X86939159Y-78013558D01*
X86954808Y-77974667D01*
X86974844Y-77918019D01*
X87216862Y-77918019D01*
X87219763Y-77915368D01*
X87247587Y-77884801D01*
X87302699Y-77822509D01*
X87382441Y-77731568D01*
X87484158Y-77615053D01*
X87605190Y-77476037D01*
X87742881Y-77317597D01*
X87894572Y-77142806D01*
X88057607Y-76954740D01*
X88229329Y-76756473D01*
X88407079Y-76551080D01*
X88588200Y-76341635D01*
X88770034Y-76131215D01*
X88949925Y-75922893D01*
X89125215Y-75719744D01*
X89293246Y-75524843D01*
X89451361Y-75341265D01*
X89596902Y-75172085D01*
X89727212Y-75020377D01*
X89839634Y-74889216D01*
X89931509Y-74781677D01*
X90000181Y-74700835D01*
X90042992Y-74649764D01*
X90057285Y-74631540D01*
X90056911Y-74631408D01*
X90028153Y-74629883D01*
X89957605Y-74628061D01*
X89850524Y-74626027D01*
X89712166Y-74623862D01*
X89547786Y-74621649D01*
X89362640Y-74619472D01*
X89161985Y-74617414D01*
X88272883Y-74608932D01*
X87742835Y-76261724D01*
X87662930Y-76511070D01*
X87580761Y-76767886D01*
X87504107Y-77007881D01*
X87434098Y-77227499D01*
X87371864Y-77423181D01*
X87318534Y-77591368D01*
X87275239Y-77728504D01*
X87243109Y-77831030D01*
X87223274Y-77895387D01*
X87216862Y-77918019D01*
X86974844Y-77918019D01*
X86980559Y-77901860D01*
X87013766Y-77802741D01*
X87051781Y-77684915D01*
X87071786Y-77622019D01*
X87109221Y-77504695D01*
X87158185Y-77351510D01*
X87216978Y-77167773D01*
X87283900Y-76958791D01*
X87357252Y-76729875D01*
X87435331Y-76486334D01*
X87516439Y-76233475D01*
X87598875Y-75976609D01*
X87601063Y-75969792D01*
X87679291Y-75725827D01*
X87752876Y-75495836D01*
X87820575Y-75283734D01*
X87881149Y-75093432D01*
X87933355Y-74928843D01*
X87975952Y-74793881D01*
X88007700Y-74692459D01*
X88027357Y-74628488D01*
X88033682Y-74605883D01*
X88020772Y-74605165D01*
X87965346Y-74603596D01*
X87870668Y-74601439D01*
X87741549Y-74598789D01*
X87582799Y-74595739D01*
X87399226Y-74592384D01*
X87195643Y-74588820D01*
X86976858Y-74585139D01*
X86837981Y-74582898D01*
X86605657Y-74579481D01*
X86415147Y-74577272D01*
X86262676Y-74576326D01*
X86144471Y-74576699D01*
X86056759Y-74578444D01*
X85995767Y-74581616D01*
X85957720Y-74586271D01*
X85938846Y-74592463D01*
X85935371Y-74600247D01*
X85701074Y-74600247D01*
X85696670Y-74585149D01*
X85448035Y-74567131D01*
X85376331Y-74563273D01*
X85252138Y-74559328D01*
X85097787Y-74556425D01*
X84922907Y-74554691D01*
X84737125Y-74554253D01*
X84550068Y-74555240D01*
X83900735Y-74561367D01*
X83622730Y-74561367D01*
X83582073Y-74505626D01*
X83540722Y-74440890D01*
X83529070Y-74408831D01*
X83539026Y-74392124D01*
X83576000Y-74340310D01*
X83581697Y-74332685D01*
X86033017Y-74332685D01*
X86037261Y-74333717D01*
X86079267Y-74336799D01*
X86161846Y-74340224D01*
X86279902Y-74343860D01*
X86428341Y-74347576D01*
X86602069Y-74351240D01*
X86795990Y-74354719D01*
X87005010Y-74357881D01*
X87965031Y-74371104D01*
X87964916Y-74370942D01*
X88403301Y-74370942D01*
X88405493Y-74371104D01*
X88422950Y-74372394D01*
X88485223Y-74374634D01*
X88584807Y-74377393D01*
X88716281Y-74380544D01*
X88874223Y-74383957D01*
X89053211Y-74387503D01*
X89247823Y-74391053D01*
X90085570Y-74405703D01*
X89666251Y-73841400D01*
X89644721Y-73812429D01*
X89535138Y-73665065D01*
X89432073Y-73526612D01*
X89339891Y-73402926D01*
X89262961Y-73299864D01*
X89205649Y-73223281D01*
X89172322Y-73179035D01*
X89097710Y-73080972D01*
X88747118Y-73723227D01*
X88707903Y-73795179D01*
X88624631Y-73948754D01*
X88550762Y-74086063D01*
X88488995Y-74202022D01*
X88442030Y-74291544D01*
X88412565Y-74349546D01*
X88403301Y-74370942D01*
X87964916Y-74370942D01*
X87854595Y-74215594D01*
X87661382Y-73944100D01*
X87490768Y-73705573D01*
X87344263Y-73502123D01*
X87222360Y-73334423D01*
X87125552Y-73203145D01*
X87054330Y-73108963D01*
X87009188Y-73052551D01*
X86990618Y-73034581D01*
X86989532Y-73035183D01*
X86967048Y-73059912D01*
X86921639Y-73116612D01*
X86857273Y-73199903D01*
X86777919Y-73304407D01*
X86687544Y-73424744D01*
X86590117Y-73555535D01*
X86489606Y-73691400D01*
X86389980Y-73826961D01*
X86295206Y-73956838D01*
X86209253Y-74075651D01*
X86136089Y-74178022D01*
X86079683Y-74258571D01*
X86044003Y-74311918D01*
X86041901Y-74315891D01*
X86033017Y-74332685D01*
X83581697Y-74332685D01*
X83606299Y-74299756D01*
X83881015Y-74299756D01*
X84361837Y-74314315D01*
X84618597Y-74321481D01*
X84860524Y-74326928D01*
X85072975Y-74330300D01*
X85252944Y-74331593D01*
X85397424Y-74330802D01*
X85503408Y-74327924D01*
X85567886Y-74322955D01*
X85587853Y-74315891D01*
X85566738Y-74271319D01*
X85527423Y-74195493D01*
X85473396Y-74094676D01*
X85408069Y-73974936D01*
X85334852Y-73842339D01*
X85257155Y-73702951D01*
X85178390Y-73562840D01*
X85101966Y-73428071D01*
X85031295Y-73304711D01*
X84969786Y-73198828D01*
X84920850Y-73116487D01*
X84887898Y-73063755D01*
X84874341Y-73046699D01*
X84865333Y-73057491D01*
X84829586Y-73101870D01*
X84770331Y-73176089D01*
X84691143Y-73275648D01*
X84595598Y-73396052D01*
X84487270Y-73532803D01*
X84369735Y-73681404D01*
X83881015Y-74299756D01*
X83606299Y-74299756D01*
X83637312Y-74258247D01*
X83719930Y-74149875D01*
X83820825Y-74019139D01*
X83936967Y-73869980D01*
X84065325Y-73706341D01*
X84202869Y-73532164D01*
X84683149Y-72925952D01*
X85092379Y-72925952D01*
X85094490Y-72930720D01*
X85114528Y-72969323D01*
X85153486Y-73042285D01*
X85208596Y-73144483D01*
X85277092Y-73270796D01*
X85356207Y-73416104D01*
X85443175Y-73575284D01*
X85481801Y-73645725D01*
X85566430Y-73799020D01*
X85642709Y-73935782D01*
X85707769Y-74050957D01*
X85758744Y-74139490D01*
X85792765Y-74196327D01*
X85806964Y-74216413D01*
X85807368Y-74216277D01*
X85826381Y-74195091D01*
X85868934Y-74141568D01*
X85931006Y-74061114D01*
X86008581Y-73959134D01*
X86097638Y-73841032D01*
X86194158Y-73712213D01*
X86294123Y-73578082D01*
X86393515Y-73444044D01*
X86488314Y-73315504D01*
X86574500Y-73197866D01*
X86648057Y-73096536D01*
X86704964Y-73016919D01*
X86738785Y-72967921D01*
X87233798Y-72967921D01*
X87695552Y-73609547D01*
X87772089Y-73715615D01*
X87877624Y-73860890D01*
X87972430Y-73990252D01*
X88053122Y-74099142D01*
X88116316Y-74183003D01*
X88158626Y-74237277D01*
X88176668Y-74257408D01*
X88180552Y-74254623D01*
X88204665Y-74220440D01*
X88247178Y-74151434D01*
X88305168Y-74052630D01*
X88375715Y-73929052D01*
X88455897Y-73785725D01*
X88542793Y-73627673D01*
X88889555Y-72991704D01*
X88685489Y-72973689D01*
X88630462Y-72970130D01*
X88520557Y-72966073D01*
X88379082Y-72963079D01*
X88215274Y-72961280D01*
X88038371Y-72960809D01*
X87857611Y-72961797D01*
X87233798Y-72967921D01*
X86738785Y-72967921D01*
X86741203Y-72964418D01*
X86752755Y-72944440D01*
X86747596Y-72943544D01*
X86704689Y-72941296D01*
X86623906Y-72938907D01*
X86511819Y-72936452D01*
X86375001Y-72934002D01*
X86220023Y-72931632D01*
X86053457Y-72929415D01*
X85881874Y-72927424D01*
X85711847Y-72925731D01*
X85549948Y-72924411D01*
X85402748Y-72923536D01*
X85276819Y-72923179D01*
X85178733Y-72923414D01*
X85115063Y-72924314D01*
X85092379Y-72925952D01*
X84683149Y-72925952D01*
X84866442Y-72694599D01*
X85270749Y-72694231D01*
X85331473Y-72694281D01*
X85481356Y-72694992D01*
X85661077Y-72696461D01*
X85866335Y-72698609D01*
X86092830Y-72701361D01*
X86336263Y-72704639D01*
X86592334Y-72708367D01*
X86856742Y-72712468D01*
X87125188Y-72716866D01*
X87393372Y-72721482D01*
X87656993Y-72726242D01*
X87911753Y-72731068D01*
X88153351Y-72735882D01*
X88377486Y-72740610D01*
X88579860Y-72745173D01*
X88756172Y-72749495D01*
X88902122Y-72753500D01*
X89013410Y-72757110D01*
X89085737Y-72760249D01*
X89114803Y-72762840D01*
X89115972Y-72763426D01*
X89142079Y-72789417D01*
X89191968Y-72848703D01*
X89262124Y-72936547D01*
X89268267Y-72944440D01*
X89305053Y-72991704D01*
X89349034Y-73048212D01*
X89449184Y-73178961D01*
X89559060Y-73324057D01*
X89675149Y-73478763D01*
X89793936Y-73638343D01*
X89911907Y-73798059D01*
X90025550Y-73953174D01*
X90131350Y-74098952D01*
X90225793Y-74230655D01*
X90305365Y-74343547D01*
X90347934Y-74405703D01*
X90366553Y-74432890D01*
X90405842Y-74493948D01*
G37*
D10*
X158218274Y-104290726D03*
X161035000Y-103124000D03*
X159385000Y-101474000D03*
X157735000Y-103124000D03*
X160551726Y-104290726D03*
X160551726Y-101957274D03*
X158218274Y-101957274D03*
D11*
X159385000Y-103124000D03*
D10*
X159385000Y-104774000D03*
X114022274Y-104290726D03*
X116839000Y-103124000D03*
X114022274Y-101957274D03*
X113539000Y-103124000D03*
X116355726Y-101957274D03*
D11*
X115189000Y-103124000D03*
D10*
X115189000Y-104774000D03*
X115189000Y-101474000D03*
X116355726Y-104290726D03*
D11*
X136906000Y-137795000D03*
D10*
X138556000Y-137795000D03*
X138072726Y-138961726D03*
X138072726Y-136628274D03*
X135739274Y-138961726D03*
X135256000Y-137795000D03*
X136906000Y-136145000D03*
X135739274Y-136628274D03*
X136906000Y-139445000D03*
X64111274Y-104290726D03*
X66928000Y-103124000D03*
X64111274Y-101957274D03*
X63628000Y-103124000D03*
X66444726Y-101957274D03*
D11*
X65278000Y-103124000D03*
D10*
X65278000Y-104774000D03*
X65278000Y-101474000D03*
X66444726Y-104290726D03*
D11*
X86995000Y-137795000D03*
D10*
X88645000Y-137795000D03*
X88161726Y-138961726D03*
X88161726Y-136628274D03*
X85828274Y-138961726D03*
X85345000Y-137795000D03*
X86995000Y-136145000D03*
X85828274Y-136628274D03*
X86995000Y-139445000D03*
X108307274Y-104290726D03*
X111124000Y-103124000D03*
X109474000Y-101474000D03*
X107824000Y-103124000D03*
X110640726Y-104290726D03*
X110640726Y-101957274D03*
X108307274Y-101957274D03*
D11*
X109474000Y-103124000D03*
D10*
X109474000Y-104774000D03*
X158218274Y-59205726D03*
X161035000Y-58039000D03*
X159385000Y-56389000D03*
X157735000Y-58039000D03*
X160551726Y-59205726D03*
X160551726Y-56872274D03*
X158218274Y-56872274D03*
D11*
X159385000Y-58039000D03*
D10*
X159385000Y-59689000D03*
D11*
X136906000Y-92710000D03*
D10*
X138556000Y-92710000D03*
X138072726Y-93876726D03*
X138072726Y-91543274D03*
X135739274Y-93876726D03*
X135256000Y-92710000D03*
X136906000Y-91060000D03*
X135739274Y-91543274D03*
X136906000Y-94360000D03*
X114022274Y-59205726D03*
X116839000Y-58039000D03*
X114022274Y-56872274D03*
X113539000Y-58039000D03*
X116355726Y-56872274D03*
D11*
X115189000Y-58039000D03*
D10*
X115189000Y-59689000D03*
X115189000Y-56389000D03*
X116355726Y-59205726D03*
X64111274Y-59205726D03*
X66928000Y-58039000D03*
X64111274Y-56872274D03*
X63628000Y-58039000D03*
X66444726Y-56872274D03*
D11*
X65278000Y-58039000D03*
D10*
X65278000Y-59689000D03*
X65278000Y-56389000D03*
X66444726Y-59205726D03*
D11*
X86995000Y-92710000D03*
D10*
X88645000Y-92710000D03*
X88161726Y-93876726D03*
X88161726Y-91543274D03*
X85828274Y-93876726D03*
X85345000Y-92710000D03*
X86995000Y-91060000D03*
X85828274Y-91543274D03*
X86995000Y-94360000D03*
X108307274Y-59205726D03*
X111124000Y-58039000D03*
X109474000Y-56389000D03*
X107824000Y-58039000D03*
X110640726Y-59205726D03*
X110640726Y-56872274D03*
X108307274Y-56872274D03*
D11*
X109474000Y-58039000D03*
D10*
X109474000Y-59689000D03*
M02*
