%TF.GenerationSoftware,KiCad,Pcbnew,6.0.2+dfsg-1*%
%TF.CreationDate,2023-03-24T00:20:44+09:00*%
%TF.ProjectId,pcb-panel,7063622d-7061-46e6-956c-2e6b69636164,rev?*%
%TF.SameCoordinates,Original*%
%TF.FileFunction,Copper,L1,Top*%
%TF.FilePolarity,Positive*%
%FSLAX46Y46*%
G04 Gerber Fmt 4.6, Leading zero omitted, Abs format (unit mm)*
G04 Created by KiCad (PCBNEW 6.0.2+dfsg-1) date 2023-03-24 00:20:44*
%MOMM*%
%LPD*%
G01*
G04 APERTURE LIST*
%TA.AperFunction,ComponentPad*%
%ADD10C,0.700000*%
%TD*%
%TA.AperFunction,ComponentPad*%
%ADD11C,4.400000*%
%TD*%
G04 APERTURE END LIST*
D10*
X64111274Y-59205726D03*
X66928000Y-58039000D03*
X64111274Y-56872274D03*
X63628000Y-58039000D03*
X66444726Y-56872274D03*
D11*
X65278000Y-58039000D03*
D10*
X65278000Y-59689000D03*
X65278000Y-56389000D03*
X66444726Y-59205726D03*
D11*
X86995000Y-92710000D03*
D10*
X88645000Y-92710000D03*
X88161726Y-93876726D03*
X88161726Y-91543274D03*
X85828274Y-93876726D03*
X85345000Y-92710000D03*
X86995000Y-91060000D03*
X85828274Y-91543274D03*
X86995000Y-94360000D03*
X108307274Y-59205726D03*
X111124000Y-58039000D03*
X109474000Y-56389000D03*
X107824000Y-58039000D03*
X110640726Y-59205726D03*
X110640726Y-56872274D03*
X108307274Y-56872274D03*
D11*
X109474000Y-58039000D03*
D10*
X109474000Y-59689000D03*
X157735000Y-103124000D03*
X158218274Y-101957274D03*
X159385000Y-101474000D03*
X160551726Y-104290726D03*
X159385000Y-104774000D03*
X161035000Y-103124000D03*
D11*
X159385000Y-103124000D03*
D10*
X158218274Y-104290726D03*
X160551726Y-101957274D03*
X158218274Y-59205726D03*
D11*
X159385000Y-58039000D03*
D10*
X157735000Y-58039000D03*
X159385000Y-56389000D03*
X161035000Y-58039000D03*
X160551726Y-59205726D03*
X160551726Y-56872274D03*
X158218274Y-56872274D03*
X159385000Y-59689000D03*
X114022274Y-59205726D03*
X115189000Y-56389000D03*
X115189000Y-59689000D03*
X116355726Y-56872274D03*
X116355726Y-59205726D03*
X114022274Y-56872274D03*
X113539000Y-58039000D03*
X116839000Y-58039000D03*
D11*
X115189000Y-58039000D03*
D10*
X66444726Y-104290726D03*
D11*
X65278000Y-103124000D03*
D10*
X66444726Y-101957274D03*
X65278000Y-104774000D03*
X65278000Y-101474000D03*
X63628000Y-103124000D03*
X64111274Y-104290726D03*
X64111274Y-101957274D03*
X66928000Y-103124000D03*
D11*
X136906000Y-137795000D03*
D10*
X136906000Y-139445000D03*
X138556000Y-137795000D03*
X135739274Y-138961726D03*
X136906000Y-136145000D03*
X135256000Y-137795000D03*
X138072726Y-138961726D03*
X138072726Y-136628274D03*
X135739274Y-136628274D03*
X115189000Y-104774000D03*
X116839000Y-103124000D03*
X115189000Y-101474000D03*
X116355726Y-104290726D03*
D11*
X115189000Y-103124000D03*
D10*
X116355726Y-101957274D03*
X113539000Y-103124000D03*
X114022274Y-101957274D03*
X114022274Y-104290726D03*
X109474000Y-104774000D03*
X110640726Y-101957274D03*
X110640726Y-104290726D03*
D11*
X109474000Y-103124000D03*
D10*
X108307274Y-104290726D03*
X111124000Y-103124000D03*
X107824000Y-103124000D03*
X108307274Y-101957274D03*
X109474000Y-101474000D03*
X85345000Y-137795000D03*
X88161726Y-136628274D03*
D11*
X86995000Y-137795000D03*
D10*
X88161726Y-138961726D03*
X85828274Y-138961726D03*
X88645000Y-137795000D03*
X86995000Y-136145000D03*
X86995000Y-139445000D03*
X85828274Y-136628274D03*
X138072726Y-91543274D03*
X136906000Y-91060000D03*
X138556000Y-92710000D03*
D11*
X136906000Y-92710000D03*
D10*
X136906000Y-94360000D03*
X138072726Y-93876726D03*
X135256000Y-92710000D03*
X135739274Y-91543274D03*
X135739274Y-93876726D03*
M02*
