G04 #@! TF.GenerationSoftware,KiCad,Pcbnew,5.1.5+dfsg1-2build2*
G04 #@! TF.CreationDate,2021-10-19T21:18:03+09:00*
G04 #@! TF.ProjectId,pcb,7063622e-6b69-4636-9164-5f7063625858,rev?*
G04 #@! TF.SameCoordinates,Original*
G04 #@! TF.FileFunction,Soldermask,Top*
G04 #@! TF.FilePolarity,Negative*
%FSLAX46Y46*%
G04 Gerber Fmt 4.6, Leading zero omitted, Abs format (unit mm)*
G04 Created by KiCad (PCBNEW 5.1.5+dfsg1-2build2) date 2021-10-19 21:18:03*
%MOMM*%
%LPD*%
G04 APERTURE LIST*
%ADD10C,0.100000*%
G04 APERTURE END LIST*
D10*
G36*
X137435880Y-135554776D02*
G01*
X137816593Y-135630504D01*
X138226249Y-135800189D01*
X138594929Y-136046534D01*
X138908466Y-136360071D01*
X139154811Y-136728751D01*
X139324496Y-137138407D01*
X139411000Y-137573296D01*
X139411000Y-138016704D01*
X139324496Y-138451593D01*
X139154811Y-138861249D01*
X138908466Y-139229929D01*
X138594929Y-139543466D01*
X138226249Y-139789811D01*
X137816593Y-139959496D01*
X137435880Y-140035224D01*
X137381705Y-140046000D01*
X136938295Y-140046000D01*
X136884120Y-140035224D01*
X136503407Y-139959496D01*
X136093751Y-139789811D01*
X135725071Y-139543466D01*
X135411534Y-139229929D01*
X135165189Y-138861249D01*
X134995504Y-138451593D01*
X134909000Y-138016704D01*
X134909000Y-137573296D01*
X134995504Y-137138407D01*
X135165189Y-136728751D01*
X135411534Y-136360071D01*
X135725071Y-136046534D01*
X136093751Y-135800189D01*
X136503407Y-135630504D01*
X136884120Y-135554776D01*
X136938295Y-135544000D01*
X137381705Y-135544000D01*
X137435880Y-135554776D01*
G37*
G36*
X87905880Y-135554776D02*
G01*
X88286593Y-135630504D01*
X88696249Y-135800189D01*
X89064929Y-136046534D01*
X89378466Y-136360071D01*
X89624811Y-136728751D01*
X89794496Y-137138407D01*
X89881000Y-137573296D01*
X89881000Y-138016704D01*
X89794496Y-138451593D01*
X89624811Y-138861249D01*
X89378466Y-139229929D01*
X89064929Y-139543466D01*
X88696249Y-139789811D01*
X88286593Y-139959496D01*
X87905880Y-140035224D01*
X87851705Y-140046000D01*
X87408295Y-140046000D01*
X87354120Y-140035224D01*
X86973407Y-139959496D01*
X86563751Y-139789811D01*
X86195071Y-139543466D01*
X85881534Y-139229929D01*
X85635189Y-138861249D01*
X85465504Y-138451593D01*
X85379000Y-138016704D01*
X85379000Y-137573296D01*
X85465504Y-137138407D01*
X85635189Y-136728751D01*
X85881534Y-136360071D01*
X86195071Y-136046534D01*
X86563751Y-135800189D01*
X86973407Y-135630504D01*
X87354120Y-135554776D01*
X87408295Y-135544000D01*
X87851705Y-135544000D01*
X87905880Y-135554776D01*
G37*
G36*
X68109795Y-134220156D02*
G01*
X68216150Y-134241311D01*
X68316334Y-134282809D01*
X68416520Y-134324307D01*
X68596844Y-134444795D01*
X68750205Y-134598156D01*
X68870693Y-134778480D01*
X68953689Y-134978851D01*
X68983071Y-135126560D01*
X68996000Y-135191561D01*
X68996000Y-135408439D01*
X68966619Y-135556149D01*
X68953689Y-135621149D01*
X68870693Y-135821520D01*
X68750205Y-136001844D01*
X68596844Y-136155205D01*
X68416520Y-136275693D01*
X68317286Y-136316797D01*
X68216150Y-136358689D01*
X68109794Y-136379845D01*
X68003440Y-136401000D01*
X67786560Y-136401000D01*
X67680206Y-136379845D01*
X67573850Y-136358689D01*
X67472714Y-136316797D01*
X67373480Y-136275693D01*
X67193156Y-136155205D01*
X67039795Y-136001844D01*
X66919307Y-135821520D01*
X66836311Y-135621149D01*
X66823382Y-135556149D01*
X66794000Y-135408439D01*
X66794000Y-135191561D01*
X66806930Y-135126560D01*
X66836311Y-134978851D01*
X66919307Y-134778480D01*
X67039795Y-134598156D01*
X67193156Y-134444795D01*
X67373480Y-134324307D01*
X67473666Y-134282809D01*
X67573850Y-134241311D01*
X67680205Y-134220156D01*
X67786560Y-134199000D01*
X68003440Y-134199000D01*
X68109795Y-134220156D01*
G37*
G36*
X117639795Y-134220156D02*
G01*
X117746150Y-134241311D01*
X117846334Y-134282809D01*
X117946520Y-134324307D01*
X118126844Y-134444795D01*
X118280205Y-134598156D01*
X118400693Y-134778480D01*
X118483689Y-134978851D01*
X118513071Y-135126560D01*
X118526000Y-135191561D01*
X118526000Y-135408439D01*
X118496619Y-135556149D01*
X118483689Y-135621149D01*
X118400693Y-135821520D01*
X118280205Y-136001844D01*
X118126844Y-136155205D01*
X117946520Y-136275693D01*
X117847286Y-136316797D01*
X117746150Y-136358689D01*
X117639794Y-136379845D01*
X117533440Y-136401000D01*
X117316560Y-136401000D01*
X117210206Y-136379845D01*
X117103850Y-136358689D01*
X117002714Y-136316797D01*
X116903480Y-136275693D01*
X116723156Y-136155205D01*
X116569795Y-136001844D01*
X116449307Y-135821520D01*
X116366311Y-135621149D01*
X116353382Y-135556149D01*
X116324000Y-135408439D01*
X116324000Y-135191561D01*
X116336930Y-135126560D01*
X116366311Y-134978851D01*
X116449307Y-134778480D01*
X116569795Y-134598156D01*
X116723156Y-134444795D01*
X116903480Y-134324307D01*
X117003666Y-134282809D01*
X117103850Y-134241311D01*
X117210205Y-134220156D01*
X117316560Y-134199000D01*
X117533440Y-134199000D01*
X117639795Y-134220156D01*
G37*
G36*
X107579794Y-134155155D02*
G01*
X107686150Y-134176311D01*
X107886520Y-134259307D01*
X108066844Y-134379795D01*
X108220205Y-134533156D01*
X108340693Y-134713480D01*
X108367617Y-134778480D01*
X108423689Y-134913850D01*
X108444845Y-135020206D01*
X108466000Y-135126560D01*
X108466000Y-135343440D01*
X108423689Y-135556149D01*
X108340693Y-135756520D01*
X108220205Y-135936844D01*
X108066844Y-136090205D01*
X107886520Y-136210693D01*
X107786334Y-136252191D01*
X107686150Y-136293689D01*
X107579795Y-136314844D01*
X107473440Y-136336000D01*
X107256560Y-136336000D01*
X107150205Y-136314844D01*
X107043850Y-136293689D01*
X106943666Y-136252191D01*
X106843480Y-136210693D01*
X106663156Y-136090205D01*
X106509795Y-135936844D01*
X106389307Y-135756520D01*
X106306311Y-135556149D01*
X106264000Y-135343440D01*
X106264000Y-135126560D01*
X106285155Y-135020206D01*
X106306311Y-134913850D01*
X106362383Y-134778480D01*
X106389307Y-134713480D01*
X106509795Y-134533156D01*
X106663156Y-134379795D01*
X106843480Y-134259307D01*
X107043850Y-134176311D01*
X107150206Y-134155155D01*
X107256560Y-134134000D01*
X107473440Y-134134000D01*
X107579794Y-134155155D01*
G37*
G36*
X157109794Y-134155155D02*
G01*
X157216150Y-134176311D01*
X157416520Y-134259307D01*
X157596844Y-134379795D01*
X157750205Y-134533156D01*
X157870693Y-134713480D01*
X157897617Y-134778480D01*
X157953689Y-134913850D01*
X157974845Y-135020206D01*
X157996000Y-135126560D01*
X157996000Y-135343440D01*
X157953689Y-135556149D01*
X157870693Y-135756520D01*
X157750205Y-135936844D01*
X157596844Y-136090205D01*
X157416520Y-136210693D01*
X157316334Y-136252191D01*
X157216150Y-136293689D01*
X157109795Y-136314844D01*
X157003440Y-136336000D01*
X156786560Y-136336000D01*
X156680205Y-136314844D01*
X156573850Y-136293689D01*
X156473666Y-136252191D01*
X156373480Y-136210693D01*
X156193156Y-136090205D01*
X156039795Y-135936844D01*
X155919307Y-135756520D01*
X155836311Y-135556149D01*
X155794000Y-135343440D01*
X155794000Y-135126560D01*
X155815155Y-135020206D01*
X155836311Y-134913850D01*
X155892383Y-134778480D01*
X155919307Y-134713480D01*
X156039795Y-134533156D01*
X156193156Y-134379795D01*
X156373480Y-134259307D01*
X156573850Y-134176311D01*
X156680206Y-134155155D01*
X156786560Y-134134000D01*
X157003440Y-134134000D01*
X157109794Y-134155155D01*
G37*
G36*
X65675104Y-133149585D02*
G01*
X65843626Y-133219389D01*
X65995291Y-133320728D01*
X66124272Y-133449709D01*
X66225611Y-133601374D01*
X66295415Y-133769896D01*
X66331000Y-133948797D01*
X66331000Y-134131203D01*
X66295415Y-134310104D01*
X66225611Y-134478626D01*
X66124272Y-134630291D01*
X65995291Y-134759272D01*
X65843626Y-134860611D01*
X65675104Y-134930415D01*
X65496203Y-134966000D01*
X65313797Y-134966000D01*
X65134896Y-134930415D01*
X64966374Y-134860611D01*
X64814709Y-134759272D01*
X64685728Y-134630291D01*
X64584389Y-134478626D01*
X64514585Y-134310104D01*
X64479000Y-134131203D01*
X64479000Y-133948797D01*
X64514585Y-133769896D01*
X64584389Y-133601374D01*
X64685728Y-133449709D01*
X64814709Y-133320728D01*
X64966374Y-133219389D01*
X65134896Y-133149585D01*
X65313797Y-133114000D01*
X65496203Y-133114000D01*
X65675104Y-133149585D01*
G37*
G36*
X115205104Y-133149585D02*
G01*
X115373626Y-133219389D01*
X115525291Y-133320728D01*
X115654272Y-133449709D01*
X115755611Y-133601374D01*
X115825415Y-133769896D01*
X115861000Y-133948797D01*
X115861000Y-134131203D01*
X115825415Y-134310104D01*
X115755611Y-134478626D01*
X115654272Y-134630291D01*
X115525291Y-134759272D01*
X115373626Y-134860611D01*
X115205104Y-134930415D01*
X115026203Y-134966000D01*
X114843797Y-134966000D01*
X114664896Y-134930415D01*
X114496374Y-134860611D01*
X114344709Y-134759272D01*
X114215728Y-134630291D01*
X114114389Y-134478626D01*
X114044585Y-134310104D01*
X114009000Y-134131203D01*
X114009000Y-133948797D01*
X114044585Y-133769896D01*
X114114389Y-133601374D01*
X114215728Y-133449709D01*
X114344709Y-133320728D01*
X114496374Y-133219389D01*
X114664896Y-133149585D01*
X114843797Y-133114000D01*
X115026203Y-133114000D01*
X115205104Y-133149585D01*
G37*
G36*
X110125104Y-133094585D02*
G01*
X110293626Y-133164389D01*
X110445291Y-133265728D01*
X110574272Y-133394709D01*
X110675611Y-133546374D01*
X110745415Y-133714896D01*
X110781000Y-133893797D01*
X110781000Y-134076203D01*
X110745415Y-134255104D01*
X110675611Y-134423626D01*
X110574272Y-134575291D01*
X110445291Y-134704272D01*
X110293626Y-134805611D01*
X110125104Y-134875415D01*
X109946203Y-134911000D01*
X109763797Y-134911000D01*
X109584896Y-134875415D01*
X109416374Y-134805611D01*
X109264709Y-134704272D01*
X109135728Y-134575291D01*
X109034389Y-134423626D01*
X108964585Y-134255104D01*
X108929000Y-134076203D01*
X108929000Y-133893797D01*
X108964585Y-133714896D01*
X109034389Y-133546374D01*
X109135728Y-133394709D01*
X109264709Y-133265728D01*
X109416374Y-133164389D01*
X109584896Y-133094585D01*
X109763797Y-133059000D01*
X109946203Y-133059000D01*
X110125104Y-133094585D01*
G37*
G36*
X159655104Y-133094585D02*
G01*
X159823626Y-133164389D01*
X159975291Y-133265728D01*
X160104272Y-133394709D01*
X160205611Y-133546374D01*
X160275415Y-133714896D01*
X160311000Y-133893797D01*
X160311000Y-134076203D01*
X160275415Y-134255104D01*
X160205611Y-134423626D01*
X160104272Y-134575291D01*
X159975291Y-134704272D01*
X159823626Y-134805611D01*
X159655104Y-134875415D01*
X159476203Y-134911000D01*
X159293797Y-134911000D01*
X159114896Y-134875415D01*
X158946374Y-134805611D01*
X158794709Y-134704272D01*
X158665728Y-134575291D01*
X158564389Y-134423626D01*
X158494585Y-134255104D01*
X158459000Y-134076203D01*
X158459000Y-133893797D01*
X158494585Y-133714896D01*
X158564389Y-133546374D01*
X158665728Y-133394709D01*
X158794709Y-133265728D01*
X158946374Y-133164389D01*
X159114896Y-133094585D01*
X159293797Y-133059000D01*
X159476203Y-133059000D01*
X159655104Y-133094585D01*
G37*
G36*
X97118254Y-127567818D02*
G01*
X97491511Y-127722426D01*
X97491513Y-127722427D01*
X97763031Y-127903850D01*
X97827436Y-127946884D01*
X98113116Y-128232564D01*
X98337574Y-128568489D01*
X98492182Y-128941746D01*
X98571000Y-129337993D01*
X98571000Y-129742007D01*
X98492182Y-130138254D01*
X98371165Y-130430414D01*
X98337573Y-130511513D01*
X98113116Y-130847436D01*
X97827436Y-131133116D01*
X97491513Y-131357573D01*
X97491512Y-131357574D01*
X97491511Y-131357574D01*
X97118254Y-131512182D01*
X96722007Y-131591000D01*
X96317993Y-131591000D01*
X95921746Y-131512182D01*
X95548489Y-131357574D01*
X95548488Y-131357574D01*
X95548487Y-131357573D01*
X95212564Y-131133116D01*
X94926884Y-130847436D01*
X94702427Y-130511513D01*
X94668835Y-130430414D01*
X94547818Y-130138254D01*
X94469000Y-129742007D01*
X94469000Y-129337993D01*
X94547818Y-128941746D01*
X94702426Y-128568489D01*
X94926884Y-128232564D01*
X95212564Y-127946884D01*
X95276969Y-127903850D01*
X95548487Y-127722427D01*
X95548489Y-127722426D01*
X95921746Y-127567818D01*
X96317993Y-127489000D01*
X96722007Y-127489000D01*
X97118254Y-127567818D01*
G37*
G36*
X146648254Y-127567818D02*
G01*
X147021511Y-127722426D01*
X147021513Y-127722427D01*
X147293031Y-127903850D01*
X147357436Y-127946884D01*
X147643116Y-128232564D01*
X147867574Y-128568489D01*
X148022182Y-128941746D01*
X148101000Y-129337993D01*
X148101000Y-129742007D01*
X148022182Y-130138254D01*
X147901165Y-130430414D01*
X147867573Y-130511513D01*
X147643116Y-130847436D01*
X147357436Y-131133116D01*
X147021513Y-131357573D01*
X147021512Y-131357574D01*
X147021511Y-131357574D01*
X146648254Y-131512182D01*
X146252007Y-131591000D01*
X145847993Y-131591000D01*
X145451746Y-131512182D01*
X145078489Y-131357574D01*
X145078488Y-131357574D01*
X145078487Y-131357573D01*
X144742564Y-131133116D01*
X144456884Y-130847436D01*
X144232427Y-130511513D01*
X144198835Y-130430414D01*
X144077818Y-130138254D01*
X143999000Y-129742007D01*
X143999000Y-129337993D01*
X144077818Y-128941746D01*
X144232426Y-128568489D01*
X144456884Y-128232564D01*
X144742564Y-127946884D01*
X144806969Y-127903850D01*
X145078487Y-127722427D01*
X145078489Y-127722426D01*
X145451746Y-127567818D01*
X145847993Y-127489000D01*
X146252007Y-127489000D01*
X146648254Y-127567818D01*
G37*
G36*
X127598254Y-127567818D02*
G01*
X127971511Y-127722426D01*
X127971513Y-127722427D01*
X128243031Y-127903850D01*
X128307436Y-127946884D01*
X128593116Y-128232564D01*
X128817574Y-128568489D01*
X128972182Y-128941746D01*
X129051000Y-129337993D01*
X129051000Y-129742007D01*
X128972182Y-130138254D01*
X128851165Y-130430414D01*
X128817573Y-130511513D01*
X128593116Y-130847436D01*
X128307436Y-131133116D01*
X127971513Y-131357573D01*
X127971512Y-131357574D01*
X127971511Y-131357574D01*
X127598254Y-131512182D01*
X127202007Y-131591000D01*
X126797993Y-131591000D01*
X126401746Y-131512182D01*
X126028489Y-131357574D01*
X126028488Y-131357574D01*
X126028487Y-131357573D01*
X125692564Y-131133116D01*
X125406884Y-130847436D01*
X125182427Y-130511513D01*
X125148835Y-130430414D01*
X125027818Y-130138254D01*
X124949000Y-129742007D01*
X124949000Y-129337993D01*
X125027818Y-128941746D01*
X125182426Y-128568489D01*
X125406884Y-128232564D01*
X125692564Y-127946884D01*
X125756969Y-127903850D01*
X126028487Y-127722427D01*
X126028489Y-127722426D01*
X126401746Y-127567818D01*
X126797993Y-127489000D01*
X127202007Y-127489000D01*
X127598254Y-127567818D01*
G37*
G36*
X78068254Y-127567818D02*
G01*
X78441511Y-127722426D01*
X78441513Y-127722427D01*
X78713031Y-127903850D01*
X78777436Y-127946884D01*
X79063116Y-128232564D01*
X79287574Y-128568489D01*
X79442182Y-128941746D01*
X79521000Y-129337993D01*
X79521000Y-129742007D01*
X79442182Y-130138254D01*
X79321165Y-130430414D01*
X79287573Y-130511513D01*
X79063116Y-130847436D01*
X78777436Y-131133116D01*
X78441513Y-131357573D01*
X78441512Y-131357574D01*
X78441511Y-131357574D01*
X78068254Y-131512182D01*
X77672007Y-131591000D01*
X77267993Y-131591000D01*
X76871746Y-131512182D01*
X76498489Y-131357574D01*
X76498488Y-131357574D01*
X76498487Y-131357573D01*
X76162564Y-131133116D01*
X75876884Y-130847436D01*
X75652427Y-130511513D01*
X75618835Y-130430414D01*
X75497818Y-130138254D01*
X75419000Y-129742007D01*
X75419000Y-129337993D01*
X75497818Y-128941746D01*
X75652426Y-128568489D01*
X75876884Y-128232564D01*
X76162564Y-127946884D01*
X76226969Y-127903850D01*
X76498487Y-127722427D01*
X76498489Y-127722426D01*
X76871746Y-127567818D01*
X77267993Y-127489000D01*
X77672007Y-127489000D01*
X78068254Y-127567818D01*
G37*
G36*
X140841981Y-128577468D02*
G01*
X140930176Y-128614000D01*
X141016086Y-128649585D01*
X141024151Y-128652926D01*
X141188100Y-128762473D01*
X141327527Y-128901900D01*
X141424061Y-129046374D01*
X141437075Y-129065851D01*
X141459175Y-129119205D01*
X141512532Y-129248019D01*
X141551000Y-129441410D01*
X141551000Y-129638590D01*
X141516884Y-129810104D01*
X141512532Y-129831980D01*
X141451790Y-129978625D01*
X141437074Y-130014151D01*
X141327527Y-130178100D01*
X141188100Y-130317527D01*
X141024151Y-130427074D01*
X141024150Y-130427075D01*
X141024149Y-130427075D01*
X140970795Y-130449175D01*
X140841981Y-130502532D01*
X140648591Y-130541000D01*
X140451409Y-130541000D01*
X140258019Y-130502532D01*
X140129205Y-130449175D01*
X140075851Y-130427075D01*
X140075850Y-130427075D01*
X140075849Y-130427074D01*
X139911900Y-130317527D01*
X139772473Y-130178100D01*
X139662926Y-130014151D01*
X139648211Y-129978625D01*
X139587468Y-129831980D01*
X139583117Y-129810104D01*
X139549000Y-129638590D01*
X139549000Y-129441410D01*
X139587468Y-129248019D01*
X139640825Y-129119205D01*
X139662925Y-129065851D01*
X139675939Y-129046374D01*
X139772473Y-128901900D01*
X139911900Y-128762473D01*
X140075849Y-128652926D01*
X140083915Y-128649585D01*
X140169824Y-128614000D01*
X140258019Y-128577468D01*
X140451409Y-128539000D01*
X140648591Y-128539000D01*
X140841981Y-128577468D01*
G37*
G36*
X151841981Y-128577468D02*
G01*
X151930176Y-128614000D01*
X152016086Y-128649585D01*
X152024151Y-128652926D01*
X152188100Y-128762473D01*
X152327527Y-128901900D01*
X152424061Y-129046374D01*
X152437075Y-129065851D01*
X152459175Y-129119205D01*
X152512532Y-129248019D01*
X152551000Y-129441410D01*
X152551000Y-129638590D01*
X152516884Y-129810104D01*
X152512532Y-129831980D01*
X152451790Y-129978625D01*
X152437074Y-130014151D01*
X152327527Y-130178100D01*
X152188100Y-130317527D01*
X152024151Y-130427074D01*
X152024150Y-130427075D01*
X152024149Y-130427075D01*
X151970795Y-130449175D01*
X151841981Y-130502532D01*
X151648591Y-130541000D01*
X151451409Y-130541000D01*
X151258019Y-130502532D01*
X151129205Y-130449175D01*
X151075851Y-130427075D01*
X151075850Y-130427075D01*
X151075849Y-130427074D01*
X150911900Y-130317527D01*
X150772473Y-130178100D01*
X150662926Y-130014151D01*
X150648211Y-129978625D01*
X150587468Y-129831980D01*
X150583117Y-129810104D01*
X150549000Y-129638590D01*
X150549000Y-129441410D01*
X150587468Y-129248019D01*
X150640825Y-129119205D01*
X150662925Y-129065851D01*
X150675939Y-129046374D01*
X150772473Y-128901900D01*
X150911900Y-128762473D01*
X151075849Y-128652926D01*
X151083915Y-128649585D01*
X151169824Y-128614000D01*
X151258019Y-128577468D01*
X151451409Y-128539000D01*
X151648591Y-128539000D01*
X151841981Y-128577468D01*
G37*
G36*
X132791981Y-128577468D02*
G01*
X132880176Y-128614000D01*
X132966086Y-128649585D01*
X132974151Y-128652926D01*
X133138100Y-128762473D01*
X133277527Y-128901900D01*
X133374061Y-129046374D01*
X133387075Y-129065851D01*
X133409175Y-129119205D01*
X133462532Y-129248019D01*
X133501000Y-129441410D01*
X133501000Y-129638590D01*
X133466884Y-129810104D01*
X133462532Y-129831980D01*
X133401790Y-129978625D01*
X133387074Y-130014151D01*
X133277527Y-130178100D01*
X133138100Y-130317527D01*
X132974151Y-130427074D01*
X132974150Y-130427075D01*
X132974149Y-130427075D01*
X132920795Y-130449175D01*
X132791981Y-130502532D01*
X132598591Y-130541000D01*
X132401409Y-130541000D01*
X132208019Y-130502532D01*
X132079205Y-130449175D01*
X132025851Y-130427075D01*
X132025850Y-130427075D01*
X132025849Y-130427074D01*
X131861900Y-130317527D01*
X131722473Y-130178100D01*
X131612926Y-130014151D01*
X131598211Y-129978625D01*
X131537468Y-129831980D01*
X131533117Y-129810104D01*
X131499000Y-129638590D01*
X131499000Y-129441410D01*
X131537468Y-129248019D01*
X131590825Y-129119205D01*
X131612925Y-129065851D01*
X131625939Y-129046374D01*
X131722473Y-128901900D01*
X131861900Y-128762473D01*
X132025849Y-128652926D01*
X132033915Y-128649585D01*
X132119824Y-128614000D01*
X132208019Y-128577468D01*
X132401409Y-128539000D01*
X132598591Y-128539000D01*
X132791981Y-128577468D01*
G37*
G36*
X121791981Y-128577468D02*
G01*
X121880176Y-128614000D01*
X121966086Y-128649585D01*
X121974151Y-128652926D01*
X122138100Y-128762473D01*
X122277527Y-128901900D01*
X122374061Y-129046374D01*
X122387075Y-129065851D01*
X122409175Y-129119205D01*
X122462532Y-129248019D01*
X122501000Y-129441410D01*
X122501000Y-129638590D01*
X122466884Y-129810104D01*
X122462532Y-129831980D01*
X122401790Y-129978625D01*
X122387074Y-130014151D01*
X122277527Y-130178100D01*
X122138100Y-130317527D01*
X121974151Y-130427074D01*
X121974150Y-130427075D01*
X121974149Y-130427075D01*
X121920795Y-130449175D01*
X121791981Y-130502532D01*
X121598591Y-130541000D01*
X121401409Y-130541000D01*
X121208019Y-130502532D01*
X121079205Y-130449175D01*
X121025851Y-130427075D01*
X121025850Y-130427075D01*
X121025849Y-130427074D01*
X120861900Y-130317527D01*
X120722473Y-130178100D01*
X120612926Y-130014151D01*
X120598211Y-129978625D01*
X120537468Y-129831980D01*
X120533117Y-129810104D01*
X120499000Y-129638590D01*
X120499000Y-129441410D01*
X120537468Y-129248019D01*
X120590825Y-129119205D01*
X120612925Y-129065851D01*
X120625939Y-129046374D01*
X120722473Y-128901900D01*
X120861900Y-128762473D01*
X121025849Y-128652926D01*
X121033915Y-128649585D01*
X121119824Y-128614000D01*
X121208019Y-128577468D01*
X121401409Y-128539000D01*
X121598591Y-128539000D01*
X121791981Y-128577468D01*
G37*
G36*
X83261981Y-128577468D02*
G01*
X83350176Y-128614000D01*
X83436086Y-128649585D01*
X83444151Y-128652926D01*
X83608100Y-128762473D01*
X83747527Y-128901900D01*
X83844061Y-129046374D01*
X83857075Y-129065851D01*
X83879175Y-129119205D01*
X83932532Y-129248019D01*
X83971000Y-129441410D01*
X83971000Y-129638590D01*
X83936884Y-129810104D01*
X83932532Y-129831980D01*
X83871790Y-129978625D01*
X83857074Y-130014151D01*
X83747527Y-130178100D01*
X83608100Y-130317527D01*
X83444151Y-130427074D01*
X83444150Y-130427075D01*
X83444149Y-130427075D01*
X83390795Y-130449175D01*
X83261981Y-130502532D01*
X83068591Y-130541000D01*
X82871409Y-130541000D01*
X82678019Y-130502532D01*
X82549205Y-130449175D01*
X82495851Y-130427075D01*
X82495850Y-130427075D01*
X82495849Y-130427074D01*
X82331900Y-130317527D01*
X82192473Y-130178100D01*
X82082926Y-130014151D01*
X82068211Y-129978625D01*
X82007468Y-129831980D01*
X82003117Y-129810104D01*
X81969000Y-129638590D01*
X81969000Y-129441410D01*
X82007468Y-129248019D01*
X82060825Y-129119205D01*
X82082925Y-129065851D01*
X82095939Y-129046374D01*
X82192473Y-128901900D01*
X82331900Y-128762473D01*
X82495849Y-128652926D01*
X82503915Y-128649585D01*
X82589824Y-128614000D01*
X82678019Y-128577468D01*
X82871409Y-128539000D01*
X83068591Y-128539000D01*
X83261981Y-128577468D01*
G37*
G36*
X72261981Y-128577468D02*
G01*
X72350176Y-128614000D01*
X72436086Y-128649585D01*
X72444151Y-128652926D01*
X72608100Y-128762473D01*
X72747527Y-128901900D01*
X72844061Y-129046374D01*
X72857075Y-129065851D01*
X72879175Y-129119205D01*
X72932532Y-129248019D01*
X72971000Y-129441410D01*
X72971000Y-129638590D01*
X72936884Y-129810104D01*
X72932532Y-129831980D01*
X72871790Y-129978625D01*
X72857074Y-130014151D01*
X72747527Y-130178100D01*
X72608100Y-130317527D01*
X72444151Y-130427074D01*
X72444150Y-130427075D01*
X72444149Y-130427075D01*
X72390795Y-130449175D01*
X72261981Y-130502532D01*
X72068591Y-130541000D01*
X71871409Y-130541000D01*
X71678019Y-130502532D01*
X71549205Y-130449175D01*
X71495851Y-130427075D01*
X71495850Y-130427075D01*
X71495849Y-130427074D01*
X71331900Y-130317527D01*
X71192473Y-130178100D01*
X71082926Y-130014151D01*
X71068211Y-129978625D01*
X71007468Y-129831980D01*
X71003117Y-129810104D01*
X70969000Y-129638590D01*
X70969000Y-129441410D01*
X71007468Y-129248019D01*
X71060825Y-129119205D01*
X71082925Y-129065851D01*
X71095939Y-129046374D01*
X71192473Y-128901900D01*
X71331900Y-128762473D01*
X71495849Y-128652926D01*
X71503915Y-128649585D01*
X71589824Y-128614000D01*
X71678019Y-128577468D01*
X71871409Y-128539000D01*
X72068591Y-128539000D01*
X72261981Y-128577468D01*
G37*
G36*
X91311981Y-128577468D02*
G01*
X91400176Y-128614000D01*
X91486086Y-128649585D01*
X91494151Y-128652926D01*
X91658100Y-128762473D01*
X91797527Y-128901900D01*
X91894061Y-129046374D01*
X91907075Y-129065851D01*
X91929175Y-129119205D01*
X91982532Y-129248019D01*
X92021000Y-129441410D01*
X92021000Y-129638590D01*
X91986884Y-129810104D01*
X91982532Y-129831980D01*
X91921790Y-129978625D01*
X91907074Y-130014151D01*
X91797527Y-130178100D01*
X91658100Y-130317527D01*
X91494151Y-130427074D01*
X91494150Y-130427075D01*
X91494149Y-130427075D01*
X91440795Y-130449175D01*
X91311981Y-130502532D01*
X91118591Y-130541000D01*
X90921409Y-130541000D01*
X90728019Y-130502532D01*
X90599205Y-130449175D01*
X90545851Y-130427075D01*
X90545850Y-130427075D01*
X90545849Y-130427074D01*
X90381900Y-130317527D01*
X90242473Y-130178100D01*
X90132926Y-130014151D01*
X90118211Y-129978625D01*
X90057468Y-129831980D01*
X90053117Y-129810104D01*
X90019000Y-129638590D01*
X90019000Y-129441410D01*
X90057468Y-129248019D01*
X90110825Y-129119205D01*
X90132925Y-129065851D01*
X90145939Y-129046374D01*
X90242473Y-128901900D01*
X90381900Y-128762473D01*
X90545849Y-128652926D01*
X90553915Y-128649585D01*
X90639824Y-128614000D01*
X90728019Y-128577468D01*
X90921409Y-128539000D01*
X91118591Y-128539000D01*
X91311981Y-128577468D01*
G37*
G36*
X102311981Y-128577468D02*
G01*
X102400176Y-128614000D01*
X102486086Y-128649585D01*
X102494151Y-128652926D01*
X102658100Y-128762473D01*
X102797527Y-128901900D01*
X102894061Y-129046374D01*
X102907075Y-129065851D01*
X102929175Y-129119205D01*
X102982532Y-129248019D01*
X103021000Y-129441410D01*
X103021000Y-129638590D01*
X102986884Y-129810104D01*
X102982532Y-129831980D01*
X102921790Y-129978625D01*
X102907074Y-130014151D01*
X102797527Y-130178100D01*
X102658100Y-130317527D01*
X102494151Y-130427074D01*
X102494150Y-130427075D01*
X102494149Y-130427075D01*
X102440795Y-130449175D01*
X102311981Y-130502532D01*
X102118591Y-130541000D01*
X101921409Y-130541000D01*
X101728019Y-130502532D01*
X101599205Y-130449175D01*
X101545851Y-130427075D01*
X101545850Y-130427075D01*
X101545849Y-130427074D01*
X101381900Y-130317527D01*
X101242473Y-130178100D01*
X101132926Y-130014151D01*
X101118211Y-129978625D01*
X101057468Y-129831980D01*
X101053117Y-129810104D01*
X101019000Y-129638590D01*
X101019000Y-129441410D01*
X101057468Y-129248019D01*
X101110825Y-129119205D01*
X101132925Y-129065851D01*
X101145939Y-129046374D01*
X101242473Y-128901900D01*
X101381900Y-128762473D01*
X101545849Y-128652926D01*
X101553915Y-128649585D01*
X101639824Y-128614000D01*
X101728019Y-128577468D01*
X101921409Y-128539000D01*
X102118591Y-128539000D01*
X102311981Y-128577468D01*
G37*
G36*
X115205104Y-128649585D02*
G01*
X115373626Y-128719389D01*
X115525291Y-128820728D01*
X115654272Y-128949709D01*
X115755611Y-129101374D01*
X115825415Y-129269896D01*
X115861000Y-129448797D01*
X115861000Y-129631203D01*
X115825415Y-129810104D01*
X115755611Y-129978626D01*
X115654272Y-130130291D01*
X115525291Y-130259272D01*
X115373626Y-130360611D01*
X115205104Y-130430415D01*
X115026203Y-130466000D01*
X114843797Y-130466000D01*
X114664896Y-130430415D01*
X114496374Y-130360611D01*
X114344709Y-130259272D01*
X114215728Y-130130291D01*
X114114389Y-129978626D01*
X114044585Y-129810104D01*
X114009000Y-129631203D01*
X114009000Y-129448797D01*
X114044585Y-129269896D01*
X114114389Y-129101374D01*
X114215728Y-128949709D01*
X114344709Y-128820728D01*
X114496374Y-128719389D01*
X114664896Y-128649585D01*
X114843797Y-128614000D01*
X115026203Y-128614000D01*
X115205104Y-128649585D01*
G37*
G36*
X65675104Y-128649585D02*
G01*
X65843626Y-128719389D01*
X65995291Y-128820728D01*
X66124272Y-128949709D01*
X66225611Y-129101374D01*
X66295415Y-129269896D01*
X66331000Y-129448797D01*
X66331000Y-129631203D01*
X66295415Y-129810104D01*
X66225611Y-129978626D01*
X66124272Y-130130291D01*
X65995291Y-130259272D01*
X65843626Y-130360611D01*
X65675104Y-130430415D01*
X65496203Y-130466000D01*
X65313797Y-130466000D01*
X65134896Y-130430415D01*
X64966374Y-130360611D01*
X64814709Y-130259272D01*
X64685728Y-130130291D01*
X64584389Y-129978626D01*
X64514585Y-129810104D01*
X64479000Y-129631203D01*
X64479000Y-129448797D01*
X64514585Y-129269896D01*
X64584389Y-129101374D01*
X64685728Y-128949709D01*
X64814709Y-128820728D01*
X64966374Y-128719389D01*
X65134896Y-128649585D01*
X65313797Y-128614000D01*
X65496203Y-128614000D01*
X65675104Y-128649585D01*
G37*
G36*
X159655104Y-128594585D02*
G01*
X159823626Y-128664389D01*
X159975291Y-128765728D01*
X160104272Y-128894709D01*
X160205611Y-129046374D01*
X160275415Y-129214896D01*
X160311000Y-129393797D01*
X160311000Y-129576203D01*
X160275415Y-129755104D01*
X160205611Y-129923626D01*
X160104272Y-130075291D01*
X159975291Y-130204272D01*
X159823626Y-130305611D01*
X159655104Y-130375415D01*
X159476203Y-130411000D01*
X159293797Y-130411000D01*
X159114896Y-130375415D01*
X158946374Y-130305611D01*
X158794709Y-130204272D01*
X158665728Y-130075291D01*
X158564389Y-129923626D01*
X158494585Y-129755104D01*
X158459000Y-129576203D01*
X158459000Y-129393797D01*
X158494585Y-129214896D01*
X158564389Y-129046374D01*
X158665728Y-128894709D01*
X158794709Y-128765728D01*
X158946374Y-128664389D01*
X159114896Y-128594585D01*
X159293797Y-128559000D01*
X159476203Y-128559000D01*
X159655104Y-128594585D01*
G37*
G36*
X110125104Y-128594585D02*
G01*
X110293626Y-128664389D01*
X110445291Y-128765728D01*
X110574272Y-128894709D01*
X110675611Y-129046374D01*
X110745415Y-129214896D01*
X110781000Y-129393797D01*
X110781000Y-129576203D01*
X110745415Y-129755104D01*
X110675611Y-129923626D01*
X110574272Y-130075291D01*
X110445291Y-130204272D01*
X110293626Y-130305611D01*
X110125104Y-130375415D01*
X109946203Y-130411000D01*
X109763797Y-130411000D01*
X109584896Y-130375415D01*
X109416374Y-130305611D01*
X109264709Y-130204272D01*
X109135728Y-130075291D01*
X109034389Y-129923626D01*
X108964585Y-129755104D01*
X108929000Y-129576203D01*
X108929000Y-129393797D01*
X108964585Y-129214896D01*
X109034389Y-129046374D01*
X109135728Y-128894709D01*
X109264709Y-128765728D01*
X109416374Y-128664389D01*
X109584896Y-128594585D01*
X109763797Y-128559000D01*
X109946203Y-128559000D01*
X110125104Y-128594585D01*
G37*
G36*
X68109795Y-127210156D02*
G01*
X68216150Y-127231311D01*
X68316334Y-127272809D01*
X68416520Y-127314307D01*
X68596844Y-127434795D01*
X68750205Y-127588156D01*
X68870693Y-127768480D01*
X68953689Y-127968851D01*
X68983071Y-128116560D01*
X68996000Y-128181561D01*
X68996000Y-128398439D01*
X68953689Y-128611150D01*
X68870693Y-128811520D01*
X68750205Y-128991844D01*
X68596844Y-129145205D01*
X68416520Y-129265693D01*
X68216150Y-129348689D01*
X68109794Y-129369845D01*
X68003440Y-129391000D01*
X67786560Y-129391000D01*
X67680206Y-129369845D01*
X67573850Y-129348689D01*
X67373480Y-129265693D01*
X67193156Y-129145205D01*
X67039795Y-128991844D01*
X66919307Y-128811520D01*
X66877809Y-128711334D01*
X66836311Y-128611150D01*
X66794000Y-128398439D01*
X66794000Y-128181561D01*
X66806930Y-128116560D01*
X66836311Y-127968851D01*
X66919307Y-127768480D01*
X67039795Y-127588156D01*
X67193156Y-127434795D01*
X67373480Y-127314307D01*
X67473666Y-127272809D01*
X67573850Y-127231311D01*
X67680205Y-127210156D01*
X67786560Y-127189000D01*
X68003440Y-127189000D01*
X68109795Y-127210156D01*
G37*
G36*
X117639795Y-127210156D02*
G01*
X117746150Y-127231311D01*
X117846334Y-127272809D01*
X117946520Y-127314307D01*
X118126844Y-127434795D01*
X118280205Y-127588156D01*
X118400693Y-127768480D01*
X118483689Y-127968851D01*
X118513071Y-128116560D01*
X118526000Y-128181561D01*
X118526000Y-128398439D01*
X118483689Y-128611150D01*
X118400693Y-128811520D01*
X118280205Y-128991844D01*
X118126844Y-129145205D01*
X117946520Y-129265693D01*
X117746150Y-129348689D01*
X117639794Y-129369845D01*
X117533440Y-129391000D01*
X117316560Y-129391000D01*
X117210206Y-129369845D01*
X117103850Y-129348689D01*
X116903480Y-129265693D01*
X116723156Y-129145205D01*
X116569795Y-128991844D01*
X116449307Y-128811520D01*
X116407809Y-128711334D01*
X116366311Y-128611150D01*
X116324000Y-128398439D01*
X116324000Y-128181561D01*
X116336930Y-128116560D01*
X116366311Y-127968851D01*
X116449307Y-127768480D01*
X116569795Y-127588156D01*
X116723156Y-127434795D01*
X116903480Y-127314307D01*
X117003666Y-127272809D01*
X117103850Y-127231311D01*
X117210205Y-127210156D01*
X117316560Y-127189000D01*
X117533440Y-127189000D01*
X117639795Y-127210156D01*
G37*
G36*
X157109794Y-127145155D02*
G01*
X157216150Y-127166311D01*
X157416520Y-127249307D01*
X157596844Y-127369795D01*
X157750205Y-127523156D01*
X157870693Y-127703480D01*
X157878541Y-127722427D01*
X157953689Y-127903850D01*
X157974844Y-128010205D01*
X157996000Y-128116560D01*
X157996000Y-128333440D01*
X157974845Y-128439794D01*
X157953689Y-128546150D01*
X157933626Y-128594585D01*
X157870693Y-128746520D01*
X157750205Y-128926844D01*
X157596844Y-129080205D01*
X157416520Y-129200693D01*
X157382228Y-129214897D01*
X157216150Y-129283689D01*
X157109795Y-129304844D01*
X157003440Y-129326000D01*
X156786560Y-129326000D01*
X156680205Y-129304844D01*
X156573850Y-129283689D01*
X156407772Y-129214897D01*
X156373480Y-129200693D01*
X156193156Y-129080205D01*
X156039795Y-128926844D01*
X155919307Y-128746520D01*
X155856374Y-128594585D01*
X155836311Y-128546150D01*
X155815155Y-128439794D01*
X155794000Y-128333440D01*
X155794000Y-128116560D01*
X155815156Y-128010205D01*
X155836311Y-127903850D01*
X155911459Y-127722427D01*
X155919307Y-127703480D01*
X156039795Y-127523156D01*
X156193156Y-127369795D01*
X156373480Y-127249307D01*
X156573850Y-127166311D01*
X156680206Y-127145155D01*
X156786560Y-127124000D01*
X157003440Y-127124000D01*
X157109794Y-127145155D01*
G37*
G36*
X107579794Y-127145155D02*
G01*
X107686150Y-127166311D01*
X107886520Y-127249307D01*
X108066844Y-127369795D01*
X108220205Y-127523156D01*
X108340693Y-127703480D01*
X108348541Y-127722427D01*
X108423689Y-127903850D01*
X108444844Y-128010205D01*
X108466000Y-128116560D01*
X108466000Y-128333440D01*
X108444845Y-128439794D01*
X108423689Y-128546150D01*
X108403626Y-128594585D01*
X108340693Y-128746520D01*
X108220205Y-128926844D01*
X108066844Y-129080205D01*
X107886520Y-129200693D01*
X107852228Y-129214897D01*
X107686150Y-129283689D01*
X107579795Y-129304844D01*
X107473440Y-129326000D01*
X107256560Y-129326000D01*
X107150205Y-129304844D01*
X107043850Y-129283689D01*
X106877772Y-129214897D01*
X106843480Y-129200693D01*
X106663156Y-129080205D01*
X106509795Y-128926844D01*
X106389307Y-128746520D01*
X106326374Y-128594585D01*
X106306311Y-128546150D01*
X106285155Y-128439794D01*
X106264000Y-128333440D01*
X106264000Y-128116560D01*
X106285156Y-128010205D01*
X106306311Y-127903850D01*
X106381459Y-127722427D01*
X106389307Y-127703480D01*
X106509795Y-127523156D01*
X106663156Y-127369795D01*
X106843480Y-127249307D01*
X107043850Y-127166311D01*
X107150206Y-127145155D01*
X107256560Y-127124000D01*
X107473440Y-127124000D01*
X107579794Y-127145155D01*
G37*
G36*
X146648254Y-108517818D02*
G01*
X147021511Y-108672426D01*
X147021513Y-108672427D01*
X147357436Y-108896884D01*
X147643116Y-109182564D01*
X147864475Y-109513850D01*
X147867574Y-109518489D01*
X148022182Y-109891746D01*
X148101000Y-110287993D01*
X148101000Y-110692007D01*
X148022182Y-111088254D01*
X147871293Y-111452532D01*
X147867573Y-111461513D01*
X147643116Y-111797436D01*
X147357436Y-112083116D01*
X147021513Y-112307573D01*
X147021512Y-112307574D01*
X147021511Y-112307574D01*
X146648254Y-112462182D01*
X146252007Y-112541000D01*
X145847993Y-112541000D01*
X145451746Y-112462182D01*
X145078489Y-112307574D01*
X145078488Y-112307574D01*
X145078487Y-112307573D01*
X144742564Y-112083116D01*
X144456884Y-111797436D01*
X144232427Y-111461513D01*
X144228707Y-111452532D01*
X144077818Y-111088254D01*
X143999000Y-110692007D01*
X143999000Y-110287993D01*
X144077818Y-109891746D01*
X144232426Y-109518489D01*
X144235526Y-109513850D01*
X144456884Y-109182564D01*
X144742564Y-108896884D01*
X145078487Y-108672427D01*
X145078489Y-108672426D01*
X145451746Y-108517818D01*
X145847993Y-108439000D01*
X146252007Y-108439000D01*
X146648254Y-108517818D01*
G37*
G36*
X97118254Y-108517818D02*
G01*
X97491511Y-108672426D01*
X97491513Y-108672427D01*
X97827436Y-108896884D01*
X98113116Y-109182564D01*
X98334475Y-109513850D01*
X98337574Y-109518489D01*
X98492182Y-109891746D01*
X98571000Y-110287993D01*
X98571000Y-110692007D01*
X98492182Y-111088254D01*
X98341293Y-111452532D01*
X98337573Y-111461513D01*
X98113116Y-111797436D01*
X97827436Y-112083116D01*
X97491513Y-112307573D01*
X97491512Y-112307574D01*
X97491511Y-112307574D01*
X97118254Y-112462182D01*
X96722007Y-112541000D01*
X96317993Y-112541000D01*
X95921746Y-112462182D01*
X95548489Y-112307574D01*
X95548488Y-112307574D01*
X95548487Y-112307573D01*
X95212564Y-112083116D01*
X94926884Y-111797436D01*
X94702427Y-111461513D01*
X94698707Y-111452532D01*
X94547818Y-111088254D01*
X94469000Y-110692007D01*
X94469000Y-110287993D01*
X94547818Y-109891746D01*
X94702426Y-109518489D01*
X94705526Y-109513850D01*
X94926884Y-109182564D01*
X95212564Y-108896884D01*
X95548487Y-108672427D01*
X95548489Y-108672426D01*
X95921746Y-108517818D01*
X96317993Y-108439000D01*
X96722007Y-108439000D01*
X97118254Y-108517818D01*
G37*
G36*
X127598254Y-108517818D02*
G01*
X127971511Y-108672426D01*
X127971513Y-108672427D01*
X128307436Y-108896884D01*
X128593116Y-109182564D01*
X128814475Y-109513850D01*
X128817574Y-109518489D01*
X128972182Y-109891746D01*
X129051000Y-110287993D01*
X129051000Y-110692007D01*
X128972182Y-111088254D01*
X128821293Y-111452532D01*
X128817573Y-111461513D01*
X128593116Y-111797436D01*
X128307436Y-112083116D01*
X127971513Y-112307573D01*
X127971512Y-112307574D01*
X127971511Y-112307574D01*
X127598254Y-112462182D01*
X127202007Y-112541000D01*
X126797993Y-112541000D01*
X126401746Y-112462182D01*
X126028489Y-112307574D01*
X126028488Y-112307574D01*
X126028487Y-112307573D01*
X125692564Y-112083116D01*
X125406884Y-111797436D01*
X125182427Y-111461513D01*
X125178707Y-111452532D01*
X125027818Y-111088254D01*
X124949000Y-110692007D01*
X124949000Y-110287993D01*
X125027818Y-109891746D01*
X125182426Y-109518489D01*
X125185526Y-109513850D01*
X125406884Y-109182564D01*
X125692564Y-108896884D01*
X126028487Y-108672427D01*
X126028489Y-108672426D01*
X126401746Y-108517818D01*
X126797993Y-108439000D01*
X127202007Y-108439000D01*
X127598254Y-108517818D01*
G37*
G36*
X78068254Y-108517818D02*
G01*
X78441511Y-108672426D01*
X78441513Y-108672427D01*
X78777436Y-108896884D01*
X79063116Y-109182564D01*
X79284475Y-109513850D01*
X79287574Y-109518489D01*
X79442182Y-109891746D01*
X79521000Y-110287993D01*
X79521000Y-110692007D01*
X79442182Y-111088254D01*
X79291293Y-111452532D01*
X79287573Y-111461513D01*
X79063116Y-111797436D01*
X78777436Y-112083116D01*
X78441513Y-112307573D01*
X78441512Y-112307574D01*
X78441511Y-112307574D01*
X78068254Y-112462182D01*
X77672007Y-112541000D01*
X77267993Y-112541000D01*
X76871746Y-112462182D01*
X76498489Y-112307574D01*
X76498488Y-112307574D01*
X76498487Y-112307573D01*
X76162564Y-112083116D01*
X75876884Y-111797436D01*
X75652427Y-111461513D01*
X75648707Y-111452532D01*
X75497818Y-111088254D01*
X75419000Y-110692007D01*
X75419000Y-110287993D01*
X75497818Y-109891746D01*
X75652426Y-109518489D01*
X75655526Y-109513850D01*
X75876884Y-109182564D01*
X76162564Y-108896884D01*
X76498487Y-108672427D01*
X76498489Y-108672426D01*
X76871746Y-108517818D01*
X77267993Y-108439000D01*
X77672007Y-108439000D01*
X78068254Y-108517818D01*
G37*
G36*
X91311981Y-109527468D02*
G01*
X91494151Y-109602926D01*
X91658100Y-109712473D01*
X91797527Y-109851900D01*
X91907074Y-110015849D01*
X91965189Y-110156149D01*
X91982532Y-110198020D01*
X92021000Y-110391409D01*
X92021000Y-110588591D01*
X91982532Y-110781980D01*
X91909337Y-110958689D01*
X91907074Y-110964151D01*
X91797527Y-111128100D01*
X91658100Y-111267527D01*
X91494151Y-111377074D01*
X91311981Y-111452532D01*
X91118591Y-111491000D01*
X90921409Y-111491000D01*
X90728019Y-111452532D01*
X90545849Y-111377074D01*
X90381900Y-111267527D01*
X90242473Y-111128100D01*
X90132926Y-110964151D01*
X90130664Y-110958689D01*
X90057468Y-110781980D01*
X90019000Y-110588591D01*
X90019000Y-110391409D01*
X90057468Y-110198020D01*
X90074812Y-110156149D01*
X90132926Y-110015849D01*
X90242473Y-109851900D01*
X90381900Y-109712473D01*
X90545849Y-109602926D01*
X90728019Y-109527468D01*
X90921409Y-109489000D01*
X91118591Y-109489000D01*
X91311981Y-109527468D01*
G37*
G36*
X102311981Y-109527468D02*
G01*
X102494151Y-109602926D01*
X102658100Y-109712473D01*
X102797527Y-109851900D01*
X102907074Y-110015849D01*
X102965189Y-110156149D01*
X102982532Y-110198020D01*
X103021000Y-110391409D01*
X103021000Y-110588591D01*
X102982532Y-110781980D01*
X102909337Y-110958689D01*
X102907074Y-110964151D01*
X102797527Y-111128100D01*
X102658100Y-111267527D01*
X102494151Y-111377074D01*
X102311981Y-111452532D01*
X102118591Y-111491000D01*
X101921409Y-111491000D01*
X101728019Y-111452532D01*
X101545849Y-111377074D01*
X101381900Y-111267527D01*
X101242473Y-111128100D01*
X101132926Y-110964151D01*
X101130664Y-110958689D01*
X101057468Y-110781980D01*
X101019000Y-110588591D01*
X101019000Y-110391409D01*
X101057468Y-110198020D01*
X101074812Y-110156149D01*
X101132926Y-110015849D01*
X101242473Y-109851900D01*
X101381900Y-109712473D01*
X101545849Y-109602926D01*
X101728019Y-109527468D01*
X101921409Y-109489000D01*
X102118591Y-109489000D01*
X102311981Y-109527468D01*
G37*
G36*
X140841981Y-109527468D02*
G01*
X141024151Y-109602926D01*
X141188100Y-109712473D01*
X141327527Y-109851900D01*
X141437074Y-110015849D01*
X141495189Y-110156149D01*
X141512532Y-110198020D01*
X141551000Y-110391409D01*
X141551000Y-110588591D01*
X141512532Y-110781980D01*
X141439337Y-110958689D01*
X141437074Y-110964151D01*
X141327527Y-111128100D01*
X141188100Y-111267527D01*
X141024151Y-111377074D01*
X140841981Y-111452532D01*
X140648591Y-111491000D01*
X140451409Y-111491000D01*
X140258019Y-111452532D01*
X140075849Y-111377074D01*
X139911900Y-111267527D01*
X139772473Y-111128100D01*
X139662926Y-110964151D01*
X139660664Y-110958689D01*
X139587468Y-110781980D01*
X139549000Y-110588591D01*
X139549000Y-110391409D01*
X139587468Y-110198020D01*
X139604812Y-110156149D01*
X139662926Y-110015849D01*
X139772473Y-109851900D01*
X139911900Y-109712473D01*
X140075849Y-109602926D01*
X140258019Y-109527468D01*
X140451409Y-109489000D01*
X140648591Y-109489000D01*
X140841981Y-109527468D01*
G37*
G36*
X132791981Y-109527468D02*
G01*
X132974151Y-109602926D01*
X133138100Y-109712473D01*
X133277527Y-109851900D01*
X133387074Y-110015849D01*
X133445189Y-110156149D01*
X133462532Y-110198020D01*
X133501000Y-110391409D01*
X133501000Y-110588591D01*
X133462532Y-110781980D01*
X133389337Y-110958689D01*
X133387074Y-110964151D01*
X133277527Y-111128100D01*
X133138100Y-111267527D01*
X132974151Y-111377074D01*
X132791981Y-111452532D01*
X132598591Y-111491000D01*
X132401409Y-111491000D01*
X132208019Y-111452532D01*
X132025849Y-111377074D01*
X131861900Y-111267527D01*
X131722473Y-111128100D01*
X131612926Y-110964151D01*
X131610664Y-110958689D01*
X131537468Y-110781980D01*
X131499000Y-110588591D01*
X131499000Y-110391409D01*
X131537468Y-110198020D01*
X131554812Y-110156149D01*
X131612926Y-110015849D01*
X131722473Y-109851900D01*
X131861900Y-109712473D01*
X132025849Y-109602926D01*
X132208019Y-109527468D01*
X132401409Y-109489000D01*
X132598591Y-109489000D01*
X132791981Y-109527468D01*
G37*
G36*
X151841981Y-109527468D02*
G01*
X152024151Y-109602926D01*
X152188100Y-109712473D01*
X152327527Y-109851900D01*
X152437074Y-110015849D01*
X152495189Y-110156149D01*
X152512532Y-110198020D01*
X152551000Y-110391409D01*
X152551000Y-110588591D01*
X152512532Y-110781980D01*
X152439337Y-110958689D01*
X152437074Y-110964151D01*
X152327527Y-111128100D01*
X152188100Y-111267527D01*
X152024151Y-111377074D01*
X151841981Y-111452532D01*
X151648591Y-111491000D01*
X151451409Y-111491000D01*
X151258019Y-111452532D01*
X151075849Y-111377074D01*
X150911900Y-111267527D01*
X150772473Y-111128100D01*
X150662926Y-110964151D01*
X150660664Y-110958689D01*
X150587468Y-110781980D01*
X150549000Y-110588591D01*
X150549000Y-110391409D01*
X150587468Y-110198020D01*
X150604812Y-110156149D01*
X150662926Y-110015849D01*
X150772473Y-109851900D01*
X150911900Y-109712473D01*
X151075849Y-109602926D01*
X151258019Y-109527468D01*
X151451409Y-109489000D01*
X151648591Y-109489000D01*
X151841981Y-109527468D01*
G37*
G36*
X121791981Y-109527468D02*
G01*
X121974151Y-109602926D01*
X122138100Y-109712473D01*
X122277527Y-109851900D01*
X122387074Y-110015849D01*
X122445189Y-110156149D01*
X122462532Y-110198020D01*
X122501000Y-110391409D01*
X122501000Y-110588591D01*
X122462532Y-110781980D01*
X122389337Y-110958689D01*
X122387074Y-110964151D01*
X122277527Y-111128100D01*
X122138100Y-111267527D01*
X121974151Y-111377074D01*
X121791981Y-111452532D01*
X121598591Y-111491000D01*
X121401409Y-111491000D01*
X121208019Y-111452532D01*
X121025849Y-111377074D01*
X120861900Y-111267527D01*
X120722473Y-111128100D01*
X120612926Y-110964151D01*
X120610664Y-110958689D01*
X120537468Y-110781980D01*
X120499000Y-110588591D01*
X120499000Y-110391409D01*
X120537468Y-110198020D01*
X120554812Y-110156149D01*
X120612926Y-110015849D01*
X120722473Y-109851900D01*
X120861900Y-109712473D01*
X121025849Y-109602926D01*
X121208019Y-109527468D01*
X121401409Y-109489000D01*
X121598591Y-109489000D01*
X121791981Y-109527468D01*
G37*
G36*
X72261981Y-109527468D02*
G01*
X72444151Y-109602926D01*
X72608100Y-109712473D01*
X72747527Y-109851900D01*
X72857074Y-110015849D01*
X72915189Y-110156149D01*
X72932532Y-110198020D01*
X72971000Y-110391409D01*
X72971000Y-110588591D01*
X72932532Y-110781980D01*
X72859337Y-110958689D01*
X72857074Y-110964151D01*
X72747527Y-111128100D01*
X72608100Y-111267527D01*
X72444151Y-111377074D01*
X72261981Y-111452532D01*
X72068591Y-111491000D01*
X71871409Y-111491000D01*
X71678019Y-111452532D01*
X71495849Y-111377074D01*
X71331900Y-111267527D01*
X71192473Y-111128100D01*
X71082926Y-110964151D01*
X71080664Y-110958689D01*
X71007468Y-110781980D01*
X70969000Y-110588591D01*
X70969000Y-110391409D01*
X71007468Y-110198020D01*
X71024812Y-110156149D01*
X71082926Y-110015849D01*
X71192473Y-109851900D01*
X71331900Y-109712473D01*
X71495849Y-109602926D01*
X71678019Y-109527468D01*
X71871409Y-109489000D01*
X72068591Y-109489000D01*
X72261981Y-109527468D01*
G37*
G36*
X83261981Y-109527468D02*
G01*
X83444151Y-109602926D01*
X83608100Y-109712473D01*
X83747527Y-109851900D01*
X83857074Y-110015849D01*
X83915189Y-110156149D01*
X83932532Y-110198020D01*
X83971000Y-110391409D01*
X83971000Y-110588591D01*
X83932532Y-110781980D01*
X83859337Y-110958689D01*
X83857074Y-110964151D01*
X83747527Y-111128100D01*
X83608100Y-111267527D01*
X83444151Y-111377074D01*
X83261981Y-111452532D01*
X83068591Y-111491000D01*
X82871409Y-111491000D01*
X82678019Y-111452532D01*
X82495849Y-111377074D01*
X82331900Y-111267527D01*
X82192473Y-111128100D01*
X82082926Y-110964151D01*
X82080664Y-110958689D01*
X82007468Y-110781980D01*
X81969000Y-110588591D01*
X81969000Y-110391409D01*
X82007468Y-110198020D01*
X82024812Y-110156149D01*
X82082926Y-110015849D01*
X82192473Y-109851900D01*
X82331900Y-109712473D01*
X82495849Y-109602926D01*
X82678019Y-109527468D01*
X82871409Y-109489000D01*
X83068591Y-109489000D01*
X83261981Y-109527468D01*
G37*
G36*
X117639794Y-108820155D02*
G01*
X117746150Y-108841311D01*
X117846334Y-108882809D01*
X117946520Y-108924307D01*
X118126844Y-109044795D01*
X118280205Y-109198156D01*
X118400693Y-109378480D01*
X118400693Y-109378481D01*
X118458687Y-109518489D01*
X118483689Y-109578851D01*
X118513071Y-109726560D01*
X118526000Y-109791561D01*
X118526000Y-110008439D01*
X118483689Y-110221150D01*
X118456001Y-110287994D01*
X118400693Y-110421520D01*
X118280205Y-110601844D01*
X118126844Y-110755205D01*
X117946520Y-110875693D01*
X117746150Y-110958689D01*
X117639795Y-110979844D01*
X117533440Y-111001000D01*
X117316560Y-111001000D01*
X117210205Y-110979844D01*
X117103850Y-110958689D01*
X116903480Y-110875693D01*
X116723156Y-110755205D01*
X116569795Y-110601844D01*
X116449307Y-110421520D01*
X116393999Y-110287994D01*
X116366311Y-110221150D01*
X116324000Y-110008439D01*
X116324000Y-109791561D01*
X116336930Y-109726560D01*
X116366311Y-109578851D01*
X116391314Y-109518489D01*
X116449307Y-109378481D01*
X116449307Y-109378480D01*
X116569795Y-109198156D01*
X116723156Y-109044795D01*
X116903480Y-108924307D01*
X117003666Y-108882809D01*
X117103850Y-108841311D01*
X117210206Y-108820155D01*
X117316560Y-108799000D01*
X117533440Y-108799000D01*
X117639794Y-108820155D01*
G37*
G36*
X68109794Y-108820155D02*
G01*
X68216150Y-108841311D01*
X68316334Y-108882809D01*
X68416520Y-108924307D01*
X68596844Y-109044795D01*
X68750205Y-109198156D01*
X68870693Y-109378480D01*
X68870693Y-109378481D01*
X68928687Y-109518489D01*
X68953689Y-109578851D01*
X68983071Y-109726560D01*
X68996000Y-109791561D01*
X68996000Y-110008439D01*
X68953689Y-110221150D01*
X68926001Y-110287994D01*
X68870693Y-110421520D01*
X68750205Y-110601844D01*
X68596844Y-110755205D01*
X68416520Y-110875693D01*
X68216150Y-110958689D01*
X68109795Y-110979844D01*
X68003440Y-111001000D01*
X67786560Y-111001000D01*
X67680205Y-110979844D01*
X67573850Y-110958689D01*
X67373480Y-110875693D01*
X67193156Y-110755205D01*
X67039795Y-110601844D01*
X66919307Y-110421520D01*
X66863999Y-110287994D01*
X66836311Y-110221150D01*
X66794000Y-110008439D01*
X66794000Y-109791561D01*
X66806930Y-109726560D01*
X66836311Y-109578851D01*
X66861314Y-109518489D01*
X66919307Y-109378481D01*
X66919307Y-109378480D01*
X67039795Y-109198156D01*
X67193156Y-109044795D01*
X67373480Y-108924307D01*
X67473666Y-108882809D01*
X67573850Y-108841311D01*
X67680206Y-108820155D01*
X67786560Y-108799000D01*
X68003440Y-108799000D01*
X68109794Y-108820155D01*
G37*
G36*
X157109795Y-108755156D02*
G01*
X157216150Y-108776311D01*
X157416520Y-108859307D01*
X157596844Y-108979795D01*
X157750205Y-109133156D01*
X157870693Y-109313480D01*
X157897617Y-109378480D01*
X157953689Y-109513850D01*
X157971407Y-109602925D01*
X157996000Y-109726560D01*
X157996000Y-109943440D01*
X157953689Y-110156149D01*
X157870693Y-110356520D01*
X157750205Y-110536844D01*
X157596844Y-110690205D01*
X157416520Y-110810693D01*
X157316334Y-110852191D01*
X157216150Y-110893689D01*
X157109794Y-110914845D01*
X157003440Y-110936000D01*
X156786560Y-110936000D01*
X156680206Y-110914845D01*
X156573850Y-110893689D01*
X156473666Y-110852191D01*
X156373480Y-110810693D01*
X156193156Y-110690205D01*
X156039795Y-110536844D01*
X155919307Y-110356520D01*
X155836311Y-110156149D01*
X155794000Y-109943440D01*
X155794000Y-109726560D01*
X155818593Y-109602925D01*
X155836311Y-109513850D01*
X155892383Y-109378480D01*
X155919307Y-109313480D01*
X156039795Y-109133156D01*
X156193156Y-108979795D01*
X156373480Y-108859307D01*
X156573850Y-108776311D01*
X156680205Y-108755156D01*
X156786560Y-108734000D01*
X157003440Y-108734000D01*
X157109795Y-108755156D01*
G37*
G36*
X107579795Y-108755156D02*
G01*
X107686150Y-108776311D01*
X107886520Y-108859307D01*
X108066844Y-108979795D01*
X108220205Y-109133156D01*
X108340693Y-109313480D01*
X108367617Y-109378480D01*
X108423689Y-109513850D01*
X108441407Y-109602925D01*
X108466000Y-109726560D01*
X108466000Y-109943440D01*
X108423689Y-110156149D01*
X108340693Y-110356520D01*
X108220205Y-110536844D01*
X108066844Y-110690205D01*
X107886520Y-110810693D01*
X107786334Y-110852191D01*
X107686150Y-110893689D01*
X107579794Y-110914845D01*
X107473440Y-110936000D01*
X107256560Y-110936000D01*
X107150206Y-110914845D01*
X107043850Y-110893689D01*
X106943666Y-110852191D01*
X106843480Y-110810693D01*
X106663156Y-110690205D01*
X106509795Y-110536844D01*
X106389307Y-110356520D01*
X106306311Y-110156149D01*
X106264000Y-109943440D01*
X106264000Y-109726560D01*
X106288593Y-109602925D01*
X106306311Y-109513850D01*
X106362383Y-109378480D01*
X106389307Y-109313480D01*
X106509795Y-109133156D01*
X106663156Y-108979795D01*
X106843480Y-108859307D01*
X107043850Y-108776311D01*
X107150205Y-108755156D01*
X107256560Y-108734000D01*
X107473440Y-108734000D01*
X107579795Y-108755156D01*
G37*
G36*
X115205104Y-107749585D02*
G01*
X115373626Y-107819389D01*
X115525291Y-107920728D01*
X115654272Y-108049709D01*
X115755611Y-108201374D01*
X115825415Y-108369896D01*
X115861000Y-108548797D01*
X115861000Y-108731203D01*
X115825415Y-108910104D01*
X115755611Y-109078626D01*
X115654272Y-109230291D01*
X115525291Y-109359272D01*
X115373626Y-109460611D01*
X115205104Y-109530415D01*
X115026203Y-109566000D01*
X114843797Y-109566000D01*
X114664896Y-109530415D01*
X114496374Y-109460611D01*
X114344709Y-109359272D01*
X114215728Y-109230291D01*
X114114389Y-109078626D01*
X114044585Y-108910104D01*
X114009000Y-108731203D01*
X114009000Y-108548797D01*
X114044585Y-108369896D01*
X114114389Y-108201374D01*
X114215728Y-108049709D01*
X114344709Y-107920728D01*
X114496374Y-107819389D01*
X114664896Y-107749585D01*
X114843797Y-107714000D01*
X115026203Y-107714000D01*
X115205104Y-107749585D01*
G37*
G36*
X65675104Y-107749585D02*
G01*
X65843626Y-107819389D01*
X65995291Y-107920728D01*
X66124272Y-108049709D01*
X66225611Y-108201374D01*
X66295415Y-108369896D01*
X66331000Y-108548797D01*
X66331000Y-108731203D01*
X66295415Y-108910104D01*
X66225611Y-109078626D01*
X66124272Y-109230291D01*
X65995291Y-109359272D01*
X65843626Y-109460611D01*
X65675104Y-109530415D01*
X65496203Y-109566000D01*
X65313797Y-109566000D01*
X65134896Y-109530415D01*
X64966374Y-109460611D01*
X64814709Y-109359272D01*
X64685728Y-109230291D01*
X64584389Y-109078626D01*
X64514585Y-108910104D01*
X64479000Y-108731203D01*
X64479000Y-108548797D01*
X64514585Y-108369896D01*
X64584389Y-108201374D01*
X64685728Y-108049709D01*
X64814709Y-107920728D01*
X64966374Y-107819389D01*
X65134896Y-107749585D01*
X65313797Y-107714000D01*
X65496203Y-107714000D01*
X65675104Y-107749585D01*
G37*
G36*
X110125104Y-107694585D02*
G01*
X110293626Y-107764389D01*
X110445291Y-107865728D01*
X110574272Y-107994709D01*
X110675611Y-108146374D01*
X110745415Y-108314896D01*
X110781000Y-108493797D01*
X110781000Y-108676203D01*
X110745415Y-108855104D01*
X110675611Y-109023626D01*
X110574272Y-109175291D01*
X110445291Y-109304272D01*
X110293626Y-109405611D01*
X110125104Y-109475415D01*
X109946203Y-109511000D01*
X109763797Y-109511000D01*
X109584896Y-109475415D01*
X109416374Y-109405611D01*
X109264709Y-109304272D01*
X109135728Y-109175291D01*
X109034389Y-109023626D01*
X108964585Y-108855104D01*
X108929000Y-108676203D01*
X108929000Y-108493797D01*
X108964585Y-108314896D01*
X109034389Y-108146374D01*
X109135728Y-107994709D01*
X109264709Y-107865728D01*
X109416374Y-107764389D01*
X109584896Y-107694585D01*
X109763797Y-107659000D01*
X109946203Y-107659000D01*
X110125104Y-107694585D01*
G37*
G36*
X159655104Y-107694585D02*
G01*
X159823626Y-107764389D01*
X159975291Y-107865728D01*
X160104272Y-107994709D01*
X160205611Y-108146374D01*
X160275415Y-108314896D01*
X160311000Y-108493797D01*
X160311000Y-108676203D01*
X160275415Y-108855104D01*
X160205611Y-109023626D01*
X160104272Y-109175291D01*
X159975291Y-109304272D01*
X159823626Y-109405611D01*
X159655104Y-109475415D01*
X159476203Y-109511000D01*
X159293797Y-109511000D01*
X159114896Y-109475415D01*
X158946374Y-109405611D01*
X158794709Y-109304272D01*
X158665728Y-109175291D01*
X158564389Y-109023626D01*
X158494585Y-108855104D01*
X158459000Y-108676203D01*
X158459000Y-108493797D01*
X158494585Y-108314896D01*
X158564389Y-108146374D01*
X158665728Y-107994709D01*
X158794709Y-107865728D01*
X158946374Y-107764389D01*
X159114896Y-107694585D01*
X159293797Y-107659000D01*
X159476203Y-107659000D01*
X159655104Y-107694585D01*
G37*
G36*
X65675104Y-103249585D02*
G01*
X65843626Y-103319389D01*
X65995291Y-103420728D01*
X66124272Y-103549709D01*
X66225611Y-103701374D01*
X66295415Y-103869896D01*
X66331000Y-104048797D01*
X66331000Y-104231203D01*
X66295415Y-104410104D01*
X66225611Y-104578626D01*
X66124272Y-104730291D01*
X65995291Y-104859272D01*
X65843626Y-104960611D01*
X65675104Y-105030415D01*
X65496203Y-105066000D01*
X65313797Y-105066000D01*
X65134896Y-105030415D01*
X64966374Y-104960611D01*
X64814709Y-104859272D01*
X64685728Y-104730291D01*
X64584389Y-104578626D01*
X64514585Y-104410104D01*
X64479000Y-104231203D01*
X64479000Y-104048797D01*
X64514585Y-103869896D01*
X64584389Y-103701374D01*
X64685728Y-103549709D01*
X64814709Y-103420728D01*
X64966374Y-103319389D01*
X65134896Y-103249585D01*
X65313797Y-103214000D01*
X65496203Y-103214000D01*
X65675104Y-103249585D01*
G37*
G36*
X115205104Y-103249585D02*
G01*
X115373626Y-103319389D01*
X115525291Y-103420728D01*
X115654272Y-103549709D01*
X115755611Y-103701374D01*
X115825415Y-103869896D01*
X115861000Y-104048797D01*
X115861000Y-104231203D01*
X115825415Y-104410104D01*
X115755611Y-104578626D01*
X115654272Y-104730291D01*
X115525291Y-104859272D01*
X115373626Y-104960611D01*
X115205104Y-105030415D01*
X115026203Y-105066000D01*
X114843797Y-105066000D01*
X114664896Y-105030415D01*
X114496374Y-104960611D01*
X114344709Y-104859272D01*
X114215728Y-104730291D01*
X114114389Y-104578626D01*
X114044585Y-104410104D01*
X114009000Y-104231203D01*
X114009000Y-104048797D01*
X114044585Y-103869896D01*
X114114389Y-103701374D01*
X114215728Y-103549709D01*
X114344709Y-103420728D01*
X114496374Y-103319389D01*
X114664896Y-103249585D01*
X114843797Y-103214000D01*
X115026203Y-103214000D01*
X115205104Y-103249585D01*
G37*
G36*
X110125104Y-103194585D02*
G01*
X110293626Y-103264389D01*
X110445291Y-103365728D01*
X110574272Y-103494709D01*
X110675611Y-103646374D01*
X110745415Y-103814896D01*
X110781000Y-103993797D01*
X110781000Y-104176203D01*
X110745415Y-104355104D01*
X110675611Y-104523626D01*
X110574272Y-104675291D01*
X110445291Y-104804272D01*
X110293626Y-104905611D01*
X110125104Y-104975415D01*
X109946203Y-105011000D01*
X109763797Y-105011000D01*
X109584896Y-104975415D01*
X109416374Y-104905611D01*
X109264709Y-104804272D01*
X109135728Y-104675291D01*
X109034389Y-104523626D01*
X108964585Y-104355104D01*
X108929000Y-104176203D01*
X108929000Y-103993797D01*
X108964585Y-103814896D01*
X109034389Y-103646374D01*
X109135728Y-103494709D01*
X109264709Y-103365728D01*
X109416374Y-103264389D01*
X109584896Y-103194585D01*
X109763797Y-103159000D01*
X109946203Y-103159000D01*
X110125104Y-103194585D01*
G37*
G36*
X159655104Y-103194585D02*
G01*
X159823626Y-103264389D01*
X159975291Y-103365728D01*
X160104272Y-103494709D01*
X160205611Y-103646374D01*
X160275415Y-103814896D01*
X160311000Y-103993797D01*
X160311000Y-104176203D01*
X160275415Y-104355104D01*
X160205611Y-104523626D01*
X160104272Y-104675291D01*
X159975291Y-104804272D01*
X159823626Y-104905611D01*
X159655104Y-104975415D01*
X159476203Y-105011000D01*
X159293797Y-105011000D01*
X159114896Y-104975415D01*
X158946374Y-104905611D01*
X158794709Y-104804272D01*
X158665728Y-104675291D01*
X158564389Y-104523626D01*
X158494585Y-104355104D01*
X158459000Y-104176203D01*
X158459000Y-103993797D01*
X158494585Y-103814896D01*
X158564389Y-103646374D01*
X158665728Y-103494709D01*
X158794709Y-103365728D01*
X158946374Y-103264389D01*
X159114896Y-103194585D01*
X159293797Y-103159000D01*
X159476203Y-103159000D01*
X159655104Y-103194585D01*
G37*
G36*
X117639795Y-101810156D02*
G01*
X117746150Y-101831311D01*
X117946520Y-101914307D01*
X118126844Y-102034795D01*
X118280205Y-102188156D01*
X118400693Y-102368480D01*
X118483689Y-102568851D01*
X118513071Y-102716560D01*
X118526000Y-102781561D01*
X118526000Y-102998439D01*
X118483689Y-103211150D01*
X118442191Y-103311334D01*
X118400693Y-103411520D01*
X118280205Y-103591844D01*
X118126844Y-103745205D01*
X117946520Y-103865693D01*
X117746150Y-103948689D01*
X117639795Y-103969844D01*
X117533440Y-103991000D01*
X117316560Y-103991000D01*
X117210206Y-103969845D01*
X117103850Y-103948689D01*
X117003666Y-103907191D01*
X116903480Y-103865693D01*
X116723156Y-103745205D01*
X116569795Y-103591844D01*
X116449307Y-103411520D01*
X116407809Y-103311334D01*
X116366311Y-103211150D01*
X116324000Y-102998439D01*
X116324000Y-102781561D01*
X116336930Y-102716560D01*
X116366311Y-102568851D01*
X116449307Y-102368480D01*
X116569795Y-102188156D01*
X116723156Y-102034795D01*
X116903480Y-101914307D01*
X117003666Y-101872809D01*
X117103850Y-101831311D01*
X117210205Y-101810156D01*
X117316560Y-101789000D01*
X117533440Y-101789000D01*
X117639795Y-101810156D01*
G37*
G36*
X68109795Y-101810156D02*
G01*
X68216150Y-101831311D01*
X68416520Y-101914307D01*
X68596844Y-102034795D01*
X68750205Y-102188156D01*
X68870693Y-102368480D01*
X68953689Y-102568851D01*
X68983071Y-102716560D01*
X68996000Y-102781561D01*
X68996000Y-102998439D01*
X68953689Y-103211150D01*
X68912191Y-103311334D01*
X68870693Y-103411520D01*
X68750205Y-103591844D01*
X68596844Y-103745205D01*
X68416520Y-103865693D01*
X68216150Y-103948689D01*
X68109795Y-103969844D01*
X68003440Y-103991000D01*
X67786560Y-103991000D01*
X67680206Y-103969845D01*
X67573850Y-103948689D01*
X67473666Y-103907191D01*
X67373480Y-103865693D01*
X67193156Y-103745205D01*
X67039795Y-103591844D01*
X66919307Y-103411520D01*
X66877809Y-103311334D01*
X66836311Y-103211150D01*
X66794000Y-102998439D01*
X66794000Y-102781561D01*
X66806930Y-102716560D01*
X66836311Y-102568851D01*
X66919307Y-102368480D01*
X67039795Y-102188156D01*
X67193156Y-102034795D01*
X67373480Y-101914307D01*
X67473666Y-101872809D01*
X67573850Y-101831311D01*
X67680205Y-101810156D01*
X67786560Y-101789000D01*
X68003440Y-101789000D01*
X68109795Y-101810156D01*
G37*
G36*
X157109795Y-101745156D02*
G01*
X157216150Y-101766311D01*
X157316334Y-101807809D01*
X157416520Y-101849307D01*
X157596844Y-101969795D01*
X157750205Y-102123156D01*
X157870693Y-102303480D01*
X157870693Y-102303481D01*
X157953689Y-102503850D01*
X157974845Y-102610206D01*
X157996000Y-102716560D01*
X157996000Y-102933440D01*
X157953689Y-103146149D01*
X157870693Y-103346520D01*
X157750205Y-103526844D01*
X157596844Y-103680205D01*
X157416520Y-103800693D01*
X157382228Y-103814897D01*
X157216150Y-103883689D01*
X157109794Y-103904845D01*
X157003440Y-103926000D01*
X156786560Y-103926000D01*
X156680206Y-103904845D01*
X156573850Y-103883689D01*
X156407772Y-103814897D01*
X156373480Y-103800693D01*
X156193156Y-103680205D01*
X156039795Y-103526844D01*
X155919307Y-103346520D01*
X155836311Y-103146149D01*
X155794000Y-102933440D01*
X155794000Y-102716560D01*
X155815155Y-102610206D01*
X155836311Y-102503850D01*
X155919307Y-102303481D01*
X155919307Y-102303480D01*
X156039795Y-102123156D01*
X156193156Y-101969795D01*
X156373480Y-101849307D01*
X156573850Y-101766311D01*
X156680205Y-101745156D01*
X156786560Y-101724000D01*
X157003440Y-101724000D01*
X157109795Y-101745156D01*
G37*
G36*
X107579795Y-101745156D02*
G01*
X107686150Y-101766311D01*
X107786334Y-101807809D01*
X107886520Y-101849307D01*
X108066844Y-101969795D01*
X108220205Y-102123156D01*
X108340693Y-102303480D01*
X108340693Y-102303481D01*
X108423689Y-102503850D01*
X108444845Y-102610206D01*
X108466000Y-102716560D01*
X108466000Y-102933440D01*
X108423689Y-103146149D01*
X108340693Y-103346520D01*
X108220205Y-103526844D01*
X108066844Y-103680205D01*
X107886520Y-103800693D01*
X107852228Y-103814897D01*
X107686150Y-103883689D01*
X107579794Y-103904845D01*
X107473440Y-103926000D01*
X107256560Y-103926000D01*
X107150206Y-103904845D01*
X107043850Y-103883689D01*
X106877772Y-103814897D01*
X106843480Y-103800693D01*
X106663156Y-103680205D01*
X106509795Y-103526844D01*
X106389307Y-103346520D01*
X106306311Y-103146149D01*
X106264000Y-102933440D01*
X106264000Y-102716560D01*
X106285155Y-102610206D01*
X106306311Y-102503850D01*
X106389307Y-102303481D01*
X106389307Y-102303480D01*
X106509795Y-102123156D01*
X106663156Y-101969795D01*
X106843480Y-101849307D01*
X107043850Y-101766311D01*
X107150205Y-101745156D01*
X107256560Y-101724000D01*
X107473440Y-101724000D01*
X107579795Y-101745156D01*
G37*
G36*
X130369795Y-99835156D02*
G01*
X130476150Y-99856311D01*
X130576334Y-99897809D01*
X130676520Y-99939307D01*
X130856844Y-100059795D01*
X131010205Y-100213156D01*
X131130693Y-100393480D01*
X131158491Y-100460590D01*
X131211886Y-100589496D01*
X131213689Y-100593851D01*
X131256000Y-100806560D01*
X131256000Y-101023440D01*
X131213689Y-101236149D01*
X131130693Y-101436520D01*
X131010205Y-101616844D01*
X130856844Y-101770205D01*
X130676520Y-101890693D01*
X130619510Y-101914307D01*
X130476150Y-101973689D01*
X130369794Y-101994845D01*
X130263440Y-102016000D01*
X130046560Y-102016000D01*
X129940206Y-101994845D01*
X129833850Y-101973689D01*
X129690490Y-101914307D01*
X129633480Y-101890693D01*
X129453156Y-101770205D01*
X129299795Y-101616844D01*
X129179307Y-101436520D01*
X129096311Y-101236149D01*
X129054000Y-101023440D01*
X129054000Y-100806560D01*
X129096311Y-100593851D01*
X129098115Y-100589496D01*
X129151509Y-100460590D01*
X129179307Y-100393480D01*
X129299795Y-100213156D01*
X129453156Y-100059795D01*
X129633480Y-99939307D01*
X129733666Y-99897809D01*
X129833850Y-99856311D01*
X129940205Y-99835156D01*
X130046560Y-99814000D01*
X130263440Y-99814000D01*
X130369795Y-99835156D01*
G37*
G36*
X80839795Y-99835156D02*
G01*
X80946150Y-99856311D01*
X81046334Y-99897809D01*
X81146520Y-99939307D01*
X81326844Y-100059795D01*
X81480205Y-100213156D01*
X81600693Y-100393480D01*
X81628491Y-100460590D01*
X81681886Y-100589496D01*
X81683689Y-100593851D01*
X81726000Y-100806560D01*
X81726000Y-101023440D01*
X81683689Y-101236149D01*
X81600693Y-101436520D01*
X81480205Y-101616844D01*
X81326844Y-101770205D01*
X81146520Y-101890693D01*
X81089510Y-101914307D01*
X80946150Y-101973689D01*
X80839794Y-101994845D01*
X80733440Y-102016000D01*
X80516560Y-102016000D01*
X80410206Y-101994845D01*
X80303850Y-101973689D01*
X80160490Y-101914307D01*
X80103480Y-101890693D01*
X79923156Y-101770205D01*
X79769795Y-101616844D01*
X79649307Y-101436520D01*
X79566311Y-101236149D01*
X79524000Y-101023440D01*
X79524000Y-100806560D01*
X79566311Y-100593851D01*
X79568115Y-100589496D01*
X79621509Y-100460590D01*
X79649307Y-100393480D01*
X79769795Y-100213156D01*
X79923156Y-100059795D01*
X80103480Y-99939307D01*
X80203666Y-99897809D01*
X80303850Y-99856311D01*
X80410205Y-99835156D01*
X80516560Y-99814000D01*
X80733440Y-99814000D01*
X80839795Y-99835156D01*
G37*
G36*
X123359795Y-99835156D02*
G01*
X123466150Y-99856311D01*
X123566334Y-99897809D01*
X123666520Y-99939307D01*
X123846844Y-100059795D01*
X124000205Y-100213156D01*
X124120693Y-100393480D01*
X124148491Y-100460590D01*
X124201886Y-100589496D01*
X124203689Y-100593851D01*
X124246000Y-100806560D01*
X124246000Y-101023440D01*
X124203689Y-101236149D01*
X124120693Y-101436520D01*
X124000205Y-101616844D01*
X123846844Y-101770205D01*
X123666520Y-101890693D01*
X123609510Y-101914307D01*
X123466150Y-101973689D01*
X123359794Y-101994845D01*
X123253440Y-102016000D01*
X123036560Y-102016000D01*
X122930206Y-101994845D01*
X122823850Y-101973689D01*
X122680490Y-101914307D01*
X122623480Y-101890693D01*
X122443156Y-101770205D01*
X122289795Y-101616844D01*
X122169307Y-101436520D01*
X122086311Y-101236149D01*
X122044000Y-101023440D01*
X122044000Y-100806560D01*
X122086311Y-100593851D01*
X122088115Y-100589496D01*
X122141509Y-100460590D01*
X122169307Y-100393480D01*
X122289795Y-100213156D01*
X122443156Y-100059795D01*
X122623480Y-99939307D01*
X122723666Y-99897809D01*
X122823850Y-99856311D01*
X122930205Y-99835156D01*
X123036560Y-99814000D01*
X123253440Y-99814000D01*
X123359795Y-99835156D01*
G37*
G36*
X73829795Y-99835156D02*
G01*
X73936150Y-99856311D01*
X74036334Y-99897809D01*
X74136520Y-99939307D01*
X74316844Y-100059795D01*
X74470205Y-100213156D01*
X74590693Y-100393480D01*
X74618491Y-100460590D01*
X74671886Y-100589496D01*
X74673689Y-100593851D01*
X74716000Y-100806560D01*
X74716000Y-101023440D01*
X74673689Y-101236149D01*
X74590693Y-101436520D01*
X74470205Y-101616844D01*
X74316844Y-101770205D01*
X74136520Y-101890693D01*
X74079510Y-101914307D01*
X73936150Y-101973689D01*
X73829794Y-101994845D01*
X73723440Y-102016000D01*
X73506560Y-102016000D01*
X73400206Y-101994845D01*
X73293850Y-101973689D01*
X73150490Y-101914307D01*
X73093480Y-101890693D01*
X72913156Y-101770205D01*
X72759795Y-101616844D01*
X72639307Y-101436520D01*
X72556311Y-101236149D01*
X72514000Y-101023440D01*
X72514000Y-100806560D01*
X72556311Y-100593851D01*
X72558115Y-100589496D01*
X72611509Y-100460590D01*
X72639307Y-100393480D01*
X72759795Y-100213156D01*
X72913156Y-100059795D01*
X73093480Y-99939307D01*
X73193666Y-99897809D01*
X73293850Y-99856311D01*
X73400205Y-99835156D01*
X73506560Y-99814000D01*
X73723440Y-99814000D01*
X73829795Y-99835156D01*
G37*
G36*
X109495880Y-96184776D02*
G01*
X109876593Y-96260504D01*
X110286249Y-96430189D01*
X110654929Y-96676534D01*
X110968466Y-96990071D01*
X111214811Y-97358751D01*
X111384496Y-97768407D01*
X111471000Y-98203296D01*
X111471000Y-98646704D01*
X111384496Y-99081593D01*
X111214811Y-99491249D01*
X110968466Y-99859929D01*
X110654929Y-100173466D01*
X110286249Y-100419811D01*
X109876593Y-100589496D01*
X109495880Y-100665224D01*
X109441705Y-100676000D01*
X108998295Y-100676000D01*
X108944120Y-100665224D01*
X108563407Y-100589496D01*
X108153751Y-100419811D01*
X107785071Y-100173466D01*
X107471534Y-99859929D01*
X107225189Y-99491249D01*
X107055504Y-99081593D01*
X106969000Y-98646704D01*
X106969000Y-98203296D01*
X107055504Y-97768407D01*
X107225189Y-97358751D01*
X107471534Y-96990071D01*
X107785071Y-96676534D01*
X108153751Y-96430189D01*
X108563407Y-96260504D01*
X108944120Y-96184776D01*
X108998295Y-96174000D01*
X109441705Y-96174000D01*
X109495880Y-96184776D01*
G37*
G36*
X115845880Y-96184776D02*
G01*
X116226593Y-96260504D01*
X116636249Y-96430189D01*
X117004929Y-96676534D01*
X117318466Y-96990071D01*
X117564811Y-97358751D01*
X117734496Y-97768407D01*
X117821000Y-98203296D01*
X117821000Y-98646704D01*
X117734496Y-99081593D01*
X117564811Y-99491249D01*
X117318466Y-99859929D01*
X117004929Y-100173466D01*
X116636249Y-100419811D01*
X116226593Y-100589496D01*
X115845880Y-100665224D01*
X115791705Y-100676000D01*
X115348295Y-100676000D01*
X115294120Y-100665224D01*
X114913407Y-100589496D01*
X114503751Y-100419811D01*
X114135071Y-100173466D01*
X113821534Y-99859929D01*
X113575189Y-99491249D01*
X113405504Y-99081593D01*
X113319000Y-98646704D01*
X113319000Y-98203296D01*
X113405504Y-97768407D01*
X113575189Y-97358751D01*
X113821534Y-96990071D01*
X114135071Y-96676534D01*
X114503751Y-96430189D01*
X114913407Y-96260504D01*
X115294120Y-96184776D01*
X115348295Y-96174000D01*
X115791705Y-96174000D01*
X115845880Y-96184776D01*
G37*
G36*
X66315880Y-96184776D02*
G01*
X66696593Y-96260504D01*
X67106249Y-96430189D01*
X67474929Y-96676534D01*
X67788466Y-96990071D01*
X68034811Y-97358751D01*
X68204496Y-97768407D01*
X68291000Y-98203296D01*
X68291000Y-98646704D01*
X68204496Y-99081593D01*
X68034811Y-99491249D01*
X67788466Y-99859929D01*
X67474929Y-100173466D01*
X67106249Y-100419811D01*
X66696593Y-100589496D01*
X66315880Y-100665224D01*
X66261705Y-100676000D01*
X65818295Y-100676000D01*
X65764120Y-100665224D01*
X65383407Y-100589496D01*
X64973751Y-100419811D01*
X64605071Y-100173466D01*
X64291534Y-99859929D01*
X64045189Y-99491249D01*
X63875504Y-99081593D01*
X63789000Y-98646704D01*
X63789000Y-98203296D01*
X63875504Y-97768407D01*
X64045189Y-97358751D01*
X64291534Y-96990071D01*
X64605071Y-96676534D01*
X64973751Y-96430189D01*
X65383407Y-96260504D01*
X65764120Y-96184776D01*
X65818295Y-96174000D01*
X66261705Y-96174000D01*
X66315880Y-96184776D01*
G37*
G36*
X159025880Y-96184776D02*
G01*
X159406593Y-96260504D01*
X159816249Y-96430189D01*
X160184929Y-96676534D01*
X160498466Y-96990071D01*
X160744811Y-97358751D01*
X160914496Y-97768407D01*
X161001000Y-98203296D01*
X161001000Y-98646704D01*
X160914496Y-99081593D01*
X160744811Y-99491249D01*
X160498466Y-99859929D01*
X160184929Y-100173466D01*
X159816249Y-100419811D01*
X159406593Y-100589496D01*
X159025880Y-100665224D01*
X158971705Y-100676000D01*
X158528295Y-100676000D01*
X158474120Y-100665224D01*
X158093407Y-100589496D01*
X157683751Y-100419811D01*
X157315071Y-100173466D01*
X157001534Y-99859929D01*
X156755189Y-99491249D01*
X156585504Y-99081593D01*
X156499000Y-98646704D01*
X156499000Y-98203296D01*
X156585504Y-97768407D01*
X156755189Y-97358751D01*
X157001534Y-96990071D01*
X157315071Y-96676534D01*
X157683751Y-96430189D01*
X158093407Y-96260504D01*
X158474120Y-96184776D01*
X158528295Y-96174000D01*
X158971705Y-96174000D01*
X159025880Y-96184776D01*
G37*
G36*
X129175104Y-97534585D02*
G01*
X129343626Y-97604389D01*
X129495291Y-97705728D01*
X129624272Y-97834709D01*
X129725611Y-97986374D01*
X129795415Y-98154896D01*
X129831000Y-98333797D01*
X129831000Y-98516203D01*
X129795415Y-98695104D01*
X129725611Y-98863626D01*
X129624272Y-99015291D01*
X129495291Y-99144272D01*
X129343626Y-99245611D01*
X129175104Y-99315415D01*
X128996203Y-99351000D01*
X128813797Y-99351000D01*
X128634896Y-99315415D01*
X128466374Y-99245611D01*
X128314709Y-99144272D01*
X128185728Y-99015291D01*
X128084389Y-98863626D01*
X128014585Y-98695104D01*
X127979000Y-98516203D01*
X127979000Y-98333797D01*
X128014585Y-98154896D01*
X128084389Y-97986374D01*
X128185728Y-97834709D01*
X128314709Y-97705728D01*
X128466374Y-97604389D01*
X128634896Y-97534585D01*
X128813797Y-97499000D01*
X128996203Y-97499000D01*
X129175104Y-97534585D01*
G37*
G36*
X124675104Y-97534585D02*
G01*
X124843626Y-97604389D01*
X124995291Y-97705728D01*
X125124272Y-97834709D01*
X125225611Y-97986374D01*
X125295415Y-98154896D01*
X125331000Y-98333797D01*
X125331000Y-98516203D01*
X125295415Y-98695104D01*
X125225611Y-98863626D01*
X125124272Y-99015291D01*
X124995291Y-99144272D01*
X124843626Y-99245611D01*
X124675104Y-99315415D01*
X124496203Y-99351000D01*
X124313797Y-99351000D01*
X124134896Y-99315415D01*
X123966374Y-99245611D01*
X123814709Y-99144272D01*
X123685728Y-99015291D01*
X123584389Y-98863626D01*
X123514585Y-98695104D01*
X123479000Y-98516203D01*
X123479000Y-98333797D01*
X123514585Y-98154896D01*
X123584389Y-97986374D01*
X123685728Y-97834709D01*
X123814709Y-97705728D01*
X123966374Y-97604389D01*
X124134896Y-97534585D01*
X124313797Y-97499000D01*
X124496203Y-97499000D01*
X124675104Y-97534585D01*
G37*
G36*
X79645104Y-97534585D02*
G01*
X79813626Y-97604389D01*
X79965291Y-97705728D01*
X80094272Y-97834709D01*
X80195611Y-97986374D01*
X80265415Y-98154896D01*
X80301000Y-98333797D01*
X80301000Y-98516203D01*
X80265415Y-98695104D01*
X80195611Y-98863626D01*
X80094272Y-99015291D01*
X79965291Y-99144272D01*
X79813626Y-99245611D01*
X79645104Y-99315415D01*
X79466203Y-99351000D01*
X79283797Y-99351000D01*
X79104896Y-99315415D01*
X78936374Y-99245611D01*
X78784709Y-99144272D01*
X78655728Y-99015291D01*
X78554389Y-98863626D01*
X78484585Y-98695104D01*
X78449000Y-98516203D01*
X78449000Y-98333797D01*
X78484585Y-98154896D01*
X78554389Y-97986374D01*
X78655728Y-97834709D01*
X78784709Y-97705728D01*
X78936374Y-97604389D01*
X79104896Y-97534585D01*
X79283797Y-97499000D01*
X79466203Y-97499000D01*
X79645104Y-97534585D01*
G37*
G36*
X75145104Y-97534585D02*
G01*
X75313626Y-97604389D01*
X75465291Y-97705728D01*
X75594272Y-97834709D01*
X75695611Y-97986374D01*
X75765415Y-98154896D01*
X75801000Y-98333797D01*
X75801000Y-98516203D01*
X75765415Y-98695104D01*
X75695611Y-98863626D01*
X75594272Y-99015291D01*
X75465291Y-99144272D01*
X75313626Y-99245611D01*
X75145104Y-99315415D01*
X74966203Y-99351000D01*
X74783797Y-99351000D01*
X74604896Y-99315415D01*
X74436374Y-99245611D01*
X74284709Y-99144272D01*
X74155728Y-99015291D01*
X74054389Y-98863626D01*
X73984585Y-98695104D01*
X73949000Y-98516203D01*
X73949000Y-98333797D01*
X73984585Y-98154896D01*
X74054389Y-97986374D01*
X74155728Y-97834709D01*
X74284709Y-97705728D01*
X74436374Y-97604389D01*
X74604896Y-97534585D01*
X74783797Y-97499000D01*
X74966203Y-97499000D01*
X75145104Y-97534585D01*
G37*
G36*
X137435880Y-90469776D02*
G01*
X137816593Y-90545504D01*
X138226249Y-90715189D01*
X138594929Y-90961534D01*
X138908466Y-91275071D01*
X139154811Y-91643751D01*
X139324496Y-92053407D01*
X139411000Y-92488296D01*
X139411000Y-92931704D01*
X139324496Y-93366593D01*
X139154811Y-93776249D01*
X138908466Y-94144929D01*
X138594929Y-94458466D01*
X138226249Y-94704811D01*
X137816593Y-94874496D01*
X137435880Y-94950224D01*
X137381705Y-94961000D01*
X136938295Y-94961000D01*
X136884120Y-94950224D01*
X136503407Y-94874496D01*
X136093751Y-94704811D01*
X135725071Y-94458466D01*
X135411534Y-94144929D01*
X135165189Y-93776249D01*
X134995504Y-93366593D01*
X134909000Y-92931704D01*
X134909000Y-92488296D01*
X134995504Y-92053407D01*
X135165189Y-91643751D01*
X135411534Y-91275071D01*
X135725071Y-90961534D01*
X136093751Y-90715189D01*
X136503407Y-90545504D01*
X136884120Y-90469776D01*
X136938295Y-90459000D01*
X137381705Y-90459000D01*
X137435880Y-90469776D01*
G37*
G36*
X87905880Y-90469776D02*
G01*
X88286593Y-90545504D01*
X88696249Y-90715189D01*
X89064929Y-90961534D01*
X89378466Y-91275071D01*
X89624811Y-91643751D01*
X89794496Y-92053407D01*
X89881000Y-92488296D01*
X89881000Y-92931704D01*
X89794496Y-93366593D01*
X89624811Y-93776249D01*
X89378466Y-94144929D01*
X89064929Y-94458466D01*
X88696249Y-94704811D01*
X88286593Y-94874496D01*
X87905880Y-94950224D01*
X87851705Y-94961000D01*
X87408295Y-94961000D01*
X87354120Y-94950224D01*
X86973407Y-94874496D01*
X86563751Y-94704811D01*
X86195071Y-94458466D01*
X85881534Y-94144929D01*
X85635189Y-93776249D01*
X85465504Y-93366593D01*
X85379000Y-92931704D01*
X85379000Y-92488296D01*
X85465504Y-92053407D01*
X85635189Y-91643751D01*
X85881534Y-91275071D01*
X86195071Y-90961534D01*
X86563751Y-90715189D01*
X86973407Y-90545504D01*
X87354120Y-90469776D01*
X87408295Y-90459000D01*
X87851705Y-90459000D01*
X87905880Y-90469776D01*
G37*
G36*
X68109794Y-89135155D02*
G01*
X68216150Y-89156311D01*
X68316334Y-89197809D01*
X68416520Y-89239307D01*
X68596844Y-89359795D01*
X68750205Y-89513156D01*
X68870693Y-89693480D01*
X68953689Y-89893851D01*
X68983071Y-90041560D01*
X68996000Y-90106561D01*
X68996000Y-90323439D01*
X68966619Y-90471149D01*
X68953689Y-90536149D01*
X68870693Y-90736520D01*
X68750205Y-90916844D01*
X68596844Y-91070205D01*
X68416520Y-91190693D01*
X68317286Y-91231797D01*
X68216150Y-91273689D01*
X68109795Y-91294844D01*
X68003440Y-91316000D01*
X67786560Y-91316000D01*
X67680205Y-91294844D01*
X67573850Y-91273689D01*
X67472714Y-91231797D01*
X67373480Y-91190693D01*
X67193156Y-91070205D01*
X67039795Y-90916844D01*
X66919307Y-90736520D01*
X66836311Y-90536149D01*
X66823382Y-90471149D01*
X66794000Y-90323439D01*
X66794000Y-90106561D01*
X66806930Y-90041560D01*
X66836311Y-89893851D01*
X66919307Y-89693480D01*
X67039795Y-89513156D01*
X67193156Y-89359795D01*
X67373480Y-89239307D01*
X67573850Y-89156311D01*
X67680206Y-89135155D01*
X67786560Y-89114000D01*
X68003440Y-89114000D01*
X68109794Y-89135155D01*
G37*
G36*
X117639794Y-89135155D02*
G01*
X117746150Y-89156311D01*
X117846334Y-89197809D01*
X117946520Y-89239307D01*
X118126844Y-89359795D01*
X118280205Y-89513156D01*
X118400693Y-89693480D01*
X118483689Y-89893851D01*
X118513071Y-90041560D01*
X118526000Y-90106561D01*
X118526000Y-90323439D01*
X118496619Y-90471149D01*
X118483689Y-90536149D01*
X118400693Y-90736520D01*
X118280205Y-90916844D01*
X118126844Y-91070205D01*
X117946520Y-91190693D01*
X117847286Y-91231797D01*
X117746150Y-91273689D01*
X117639795Y-91294844D01*
X117533440Y-91316000D01*
X117316560Y-91316000D01*
X117210205Y-91294844D01*
X117103850Y-91273689D01*
X117002714Y-91231797D01*
X116903480Y-91190693D01*
X116723156Y-91070205D01*
X116569795Y-90916844D01*
X116449307Y-90736520D01*
X116366311Y-90536149D01*
X116353382Y-90471149D01*
X116324000Y-90323439D01*
X116324000Y-90106561D01*
X116336930Y-90041560D01*
X116366311Y-89893851D01*
X116449307Y-89693480D01*
X116569795Y-89513156D01*
X116723156Y-89359795D01*
X116903480Y-89239307D01*
X117103850Y-89156311D01*
X117210206Y-89135155D01*
X117316560Y-89114000D01*
X117533440Y-89114000D01*
X117639794Y-89135155D01*
G37*
G36*
X157109794Y-89070155D02*
G01*
X157216150Y-89091311D01*
X157416520Y-89174307D01*
X157596844Y-89294795D01*
X157750205Y-89448156D01*
X157870693Y-89628480D01*
X157897617Y-89693480D01*
X157953689Y-89828850D01*
X157974844Y-89935205D01*
X157996000Y-90041560D01*
X157996000Y-90258440D01*
X157953689Y-90471149D01*
X157870693Y-90671520D01*
X157750205Y-90851844D01*
X157596844Y-91005205D01*
X157416520Y-91125693D01*
X157216150Y-91208689D01*
X157109795Y-91229844D01*
X157003440Y-91251000D01*
X156786560Y-91251000D01*
X156680205Y-91229844D01*
X156573850Y-91208689D01*
X156473666Y-91167191D01*
X156373480Y-91125693D01*
X156193156Y-91005205D01*
X156039795Y-90851844D01*
X155919307Y-90671520D01*
X155836311Y-90471149D01*
X155794000Y-90258440D01*
X155794000Y-90041560D01*
X155815156Y-89935205D01*
X155836311Y-89828850D01*
X155892383Y-89693480D01*
X155919307Y-89628480D01*
X156039795Y-89448156D01*
X156193156Y-89294795D01*
X156373480Y-89174307D01*
X156473666Y-89132809D01*
X156573850Y-89091311D01*
X156680206Y-89070155D01*
X156786560Y-89049000D01*
X157003440Y-89049000D01*
X157109794Y-89070155D01*
G37*
G36*
X107579794Y-89070155D02*
G01*
X107686150Y-89091311D01*
X107886520Y-89174307D01*
X108066844Y-89294795D01*
X108220205Y-89448156D01*
X108340693Y-89628480D01*
X108367617Y-89693480D01*
X108423689Y-89828850D01*
X108444844Y-89935205D01*
X108466000Y-90041560D01*
X108466000Y-90258440D01*
X108423689Y-90471149D01*
X108340693Y-90671520D01*
X108220205Y-90851844D01*
X108066844Y-91005205D01*
X107886520Y-91125693D01*
X107686150Y-91208689D01*
X107579795Y-91229844D01*
X107473440Y-91251000D01*
X107256560Y-91251000D01*
X107150205Y-91229844D01*
X107043850Y-91208689D01*
X106943666Y-91167191D01*
X106843480Y-91125693D01*
X106663156Y-91005205D01*
X106509795Y-90851844D01*
X106389307Y-90671520D01*
X106306311Y-90471149D01*
X106264000Y-90258440D01*
X106264000Y-90041560D01*
X106285156Y-89935205D01*
X106306311Y-89828850D01*
X106362383Y-89693480D01*
X106389307Y-89628480D01*
X106509795Y-89448156D01*
X106663156Y-89294795D01*
X106843480Y-89174307D01*
X106943666Y-89132809D01*
X107043850Y-89091311D01*
X107150206Y-89070155D01*
X107256560Y-89049000D01*
X107473440Y-89049000D01*
X107579794Y-89070155D01*
G37*
G36*
X115205104Y-88064585D02*
G01*
X115373626Y-88134389D01*
X115525291Y-88235728D01*
X115654272Y-88364709D01*
X115755611Y-88516374D01*
X115825415Y-88684896D01*
X115861000Y-88863797D01*
X115861000Y-89046203D01*
X115825415Y-89225104D01*
X115755611Y-89393626D01*
X115654272Y-89545291D01*
X115525291Y-89674272D01*
X115373626Y-89775611D01*
X115205104Y-89845415D01*
X115026203Y-89881000D01*
X114843797Y-89881000D01*
X114664896Y-89845415D01*
X114496374Y-89775611D01*
X114344709Y-89674272D01*
X114215728Y-89545291D01*
X114114389Y-89393626D01*
X114044585Y-89225104D01*
X114009000Y-89046203D01*
X114009000Y-88863797D01*
X114044585Y-88684896D01*
X114114389Y-88516374D01*
X114215728Y-88364709D01*
X114344709Y-88235728D01*
X114496374Y-88134389D01*
X114664896Y-88064585D01*
X114843797Y-88029000D01*
X115026203Y-88029000D01*
X115205104Y-88064585D01*
G37*
G36*
X65675104Y-88064585D02*
G01*
X65843626Y-88134389D01*
X65995291Y-88235728D01*
X66124272Y-88364709D01*
X66225611Y-88516374D01*
X66295415Y-88684896D01*
X66331000Y-88863797D01*
X66331000Y-89046203D01*
X66295415Y-89225104D01*
X66225611Y-89393626D01*
X66124272Y-89545291D01*
X65995291Y-89674272D01*
X65843626Y-89775611D01*
X65675104Y-89845415D01*
X65496203Y-89881000D01*
X65313797Y-89881000D01*
X65134896Y-89845415D01*
X64966374Y-89775611D01*
X64814709Y-89674272D01*
X64685728Y-89545291D01*
X64584389Y-89393626D01*
X64514585Y-89225104D01*
X64479000Y-89046203D01*
X64479000Y-88863797D01*
X64514585Y-88684896D01*
X64584389Y-88516374D01*
X64685728Y-88364709D01*
X64814709Y-88235728D01*
X64966374Y-88134389D01*
X65134896Y-88064585D01*
X65313797Y-88029000D01*
X65496203Y-88029000D01*
X65675104Y-88064585D01*
G37*
G36*
X159655104Y-88009585D02*
G01*
X159823626Y-88079389D01*
X159975291Y-88180728D01*
X160104272Y-88309709D01*
X160205611Y-88461374D01*
X160275415Y-88629896D01*
X160311000Y-88808797D01*
X160311000Y-88991203D01*
X160275415Y-89170104D01*
X160205611Y-89338626D01*
X160104272Y-89490291D01*
X159975291Y-89619272D01*
X159823626Y-89720611D01*
X159655104Y-89790415D01*
X159476203Y-89826000D01*
X159293797Y-89826000D01*
X159114896Y-89790415D01*
X158946374Y-89720611D01*
X158794709Y-89619272D01*
X158665728Y-89490291D01*
X158564389Y-89338626D01*
X158494585Y-89170104D01*
X158459000Y-88991203D01*
X158459000Y-88808797D01*
X158494585Y-88629896D01*
X158564389Y-88461374D01*
X158665728Y-88309709D01*
X158794709Y-88180728D01*
X158946374Y-88079389D01*
X159114896Y-88009585D01*
X159293797Y-87974000D01*
X159476203Y-87974000D01*
X159655104Y-88009585D01*
G37*
G36*
X110125104Y-88009585D02*
G01*
X110293626Y-88079389D01*
X110445291Y-88180728D01*
X110574272Y-88309709D01*
X110675611Y-88461374D01*
X110745415Y-88629896D01*
X110781000Y-88808797D01*
X110781000Y-88991203D01*
X110745415Y-89170104D01*
X110675611Y-89338626D01*
X110574272Y-89490291D01*
X110445291Y-89619272D01*
X110293626Y-89720611D01*
X110125104Y-89790415D01*
X109946203Y-89826000D01*
X109763797Y-89826000D01*
X109584896Y-89790415D01*
X109416374Y-89720611D01*
X109264709Y-89619272D01*
X109135728Y-89490291D01*
X109034389Y-89338626D01*
X108964585Y-89170104D01*
X108929000Y-88991203D01*
X108929000Y-88808797D01*
X108964585Y-88629896D01*
X109034389Y-88461374D01*
X109135728Y-88309709D01*
X109264709Y-88180728D01*
X109416374Y-88079389D01*
X109584896Y-88009585D01*
X109763797Y-87974000D01*
X109946203Y-87974000D01*
X110125104Y-88009585D01*
G37*
G36*
X146648254Y-82482818D02*
G01*
X147021511Y-82637426D01*
X147021513Y-82637427D01*
X147293031Y-82818850D01*
X147357436Y-82861884D01*
X147643116Y-83147564D01*
X147867574Y-83483489D01*
X148022182Y-83856746D01*
X148101000Y-84252993D01*
X148101000Y-84657007D01*
X148022182Y-85053254D01*
X147901165Y-85345414D01*
X147867573Y-85426513D01*
X147643116Y-85762436D01*
X147357436Y-86048116D01*
X147021513Y-86272573D01*
X147021512Y-86272574D01*
X147021511Y-86272574D01*
X146648254Y-86427182D01*
X146252007Y-86506000D01*
X145847993Y-86506000D01*
X145451746Y-86427182D01*
X145078489Y-86272574D01*
X145078488Y-86272574D01*
X145078487Y-86272573D01*
X144742564Y-86048116D01*
X144456884Y-85762436D01*
X144232427Y-85426513D01*
X144198835Y-85345414D01*
X144077818Y-85053254D01*
X143999000Y-84657007D01*
X143999000Y-84252993D01*
X144077818Y-83856746D01*
X144232426Y-83483489D01*
X144456884Y-83147564D01*
X144742564Y-82861884D01*
X144806969Y-82818850D01*
X145078487Y-82637427D01*
X145078489Y-82637426D01*
X145451746Y-82482818D01*
X145847993Y-82404000D01*
X146252007Y-82404000D01*
X146648254Y-82482818D01*
G37*
G36*
X78068254Y-82482818D02*
G01*
X78441511Y-82637426D01*
X78441513Y-82637427D01*
X78713031Y-82818850D01*
X78777436Y-82861884D01*
X79063116Y-83147564D01*
X79287574Y-83483489D01*
X79442182Y-83856746D01*
X79521000Y-84252993D01*
X79521000Y-84657007D01*
X79442182Y-85053254D01*
X79321165Y-85345414D01*
X79287573Y-85426513D01*
X79063116Y-85762436D01*
X78777436Y-86048116D01*
X78441513Y-86272573D01*
X78441512Y-86272574D01*
X78441511Y-86272574D01*
X78068254Y-86427182D01*
X77672007Y-86506000D01*
X77267993Y-86506000D01*
X76871746Y-86427182D01*
X76498489Y-86272574D01*
X76498488Y-86272574D01*
X76498487Y-86272573D01*
X76162564Y-86048116D01*
X75876884Y-85762436D01*
X75652427Y-85426513D01*
X75618835Y-85345414D01*
X75497818Y-85053254D01*
X75419000Y-84657007D01*
X75419000Y-84252993D01*
X75497818Y-83856746D01*
X75652426Y-83483489D01*
X75876884Y-83147564D01*
X76162564Y-82861884D01*
X76226969Y-82818850D01*
X76498487Y-82637427D01*
X76498489Y-82637426D01*
X76871746Y-82482818D01*
X77267993Y-82404000D01*
X77672007Y-82404000D01*
X78068254Y-82482818D01*
G37*
G36*
X97118254Y-82482818D02*
G01*
X97491511Y-82637426D01*
X97491513Y-82637427D01*
X97763031Y-82818850D01*
X97827436Y-82861884D01*
X98113116Y-83147564D01*
X98337574Y-83483489D01*
X98492182Y-83856746D01*
X98571000Y-84252993D01*
X98571000Y-84657007D01*
X98492182Y-85053254D01*
X98371165Y-85345414D01*
X98337573Y-85426513D01*
X98113116Y-85762436D01*
X97827436Y-86048116D01*
X97491513Y-86272573D01*
X97491512Y-86272574D01*
X97491511Y-86272574D01*
X97118254Y-86427182D01*
X96722007Y-86506000D01*
X96317993Y-86506000D01*
X95921746Y-86427182D01*
X95548489Y-86272574D01*
X95548488Y-86272574D01*
X95548487Y-86272573D01*
X95212564Y-86048116D01*
X94926884Y-85762436D01*
X94702427Y-85426513D01*
X94668835Y-85345414D01*
X94547818Y-85053254D01*
X94469000Y-84657007D01*
X94469000Y-84252993D01*
X94547818Y-83856746D01*
X94702426Y-83483489D01*
X94926884Y-83147564D01*
X95212564Y-82861884D01*
X95276969Y-82818850D01*
X95548487Y-82637427D01*
X95548489Y-82637426D01*
X95921746Y-82482818D01*
X96317993Y-82404000D01*
X96722007Y-82404000D01*
X97118254Y-82482818D01*
G37*
G36*
X127598254Y-82482818D02*
G01*
X127971511Y-82637426D01*
X127971513Y-82637427D01*
X128243031Y-82818850D01*
X128307436Y-82861884D01*
X128593116Y-83147564D01*
X128817574Y-83483489D01*
X128972182Y-83856746D01*
X129051000Y-84252993D01*
X129051000Y-84657007D01*
X128972182Y-85053254D01*
X128851165Y-85345414D01*
X128817573Y-85426513D01*
X128593116Y-85762436D01*
X128307436Y-86048116D01*
X127971513Y-86272573D01*
X127971512Y-86272574D01*
X127971511Y-86272574D01*
X127598254Y-86427182D01*
X127202007Y-86506000D01*
X126797993Y-86506000D01*
X126401746Y-86427182D01*
X126028489Y-86272574D01*
X126028488Y-86272574D01*
X126028487Y-86272573D01*
X125692564Y-86048116D01*
X125406884Y-85762436D01*
X125182427Y-85426513D01*
X125148835Y-85345414D01*
X125027818Y-85053254D01*
X124949000Y-84657007D01*
X124949000Y-84252993D01*
X125027818Y-83856746D01*
X125182426Y-83483489D01*
X125406884Y-83147564D01*
X125692564Y-82861884D01*
X125756969Y-82818850D01*
X126028487Y-82637427D01*
X126028489Y-82637426D01*
X126401746Y-82482818D01*
X126797993Y-82404000D01*
X127202007Y-82404000D01*
X127598254Y-82482818D01*
G37*
G36*
X151745285Y-83473234D02*
G01*
X151841981Y-83492468D01*
X151930176Y-83529000D01*
X152016086Y-83564585D01*
X152024151Y-83567926D01*
X152188100Y-83677473D01*
X152327527Y-83816900D01*
X152424061Y-83961374D01*
X152437075Y-83980851D01*
X152459175Y-84034205D01*
X152512532Y-84163019D01*
X152551000Y-84356410D01*
X152551000Y-84553590D01*
X152516884Y-84725104D01*
X152512532Y-84746980D01*
X152451790Y-84893625D01*
X152437074Y-84929151D01*
X152327527Y-85093100D01*
X152188100Y-85232527D01*
X152024151Y-85342074D01*
X152024150Y-85342075D01*
X152024149Y-85342075D01*
X151970795Y-85364175D01*
X151841981Y-85417532D01*
X151745285Y-85436766D01*
X151648591Y-85456000D01*
X151451409Y-85456000D01*
X151354715Y-85436766D01*
X151258019Y-85417532D01*
X151129205Y-85364175D01*
X151075851Y-85342075D01*
X151075850Y-85342075D01*
X151075849Y-85342074D01*
X150911900Y-85232527D01*
X150772473Y-85093100D01*
X150662926Y-84929151D01*
X150648211Y-84893625D01*
X150587468Y-84746980D01*
X150583117Y-84725104D01*
X150549000Y-84553590D01*
X150549000Y-84356410D01*
X150587468Y-84163019D01*
X150640825Y-84034205D01*
X150662925Y-83980851D01*
X150675939Y-83961374D01*
X150772473Y-83816900D01*
X150911900Y-83677473D01*
X151075849Y-83567926D01*
X151083915Y-83564585D01*
X151169824Y-83529000D01*
X151258019Y-83492468D01*
X151451409Y-83454000D01*
X151648591Y-83454000D01*
X151745285Y-83473234D01*
G37*
G36*
X132695285Y-83473234D02*
G01*
X132791981Y-83492468D01*
X132880176Y-83529000D01*
X132966086Y-83564585D01*
X132974151Y-83567926D01*
X133138100Y-83677473D01*
X133277527Y-83816900D01*
X133374061Y-83961374D01*
X133387075Y-83980851D01*
X133409175Y-84034205D01*
X133462532Y-84163019D01*
X133501000Y-84356410D01*
X133501000Y-84553590D01*
X133466884Y-84725104D01*
X133462532Y-84746980D01*
X133401790Y-84893625D01*
X133387074Y-84929151D01*
X133277527Y-85093100D01*
X133138100Y-85232527D01*
X132974151Y-85342074D01*
X132974150Y-85342075D01*
X132974149Y-85342075D01*
X132920795Y-85364175D01*
X132791981Y-85417532D01*
X132695285Y-85436766D01*
X132598591Y-85456000D01*
X132401409Y-85456000D01*
X132304715Y-85436766D01*
X132208019Y-85417532D01*
X132079205Y-85364175D01*
X132025851Y-85342075D01*
X132025850Y-85342075D01*
X132025849Y-85342074D01*
X131861900Y-85232527D01*
X131722473Y-85093100D01*
X131612926Y-84929151D01*
X131598211Y-84893625D01*
X131537468Y-84746980D01*
X131533117Y-84725104D01*
X131499000Y-84553590D01*
X131499000Y-84356410D01*
X131537468Y-84163019D01*
X131590825Y-84034205D01*
X131612925Y-83980851D01*
X131625939Y-83961374D01*
X131722473Y-83816900D01*
X131861900Y-83677473D01*
X132025849Y-83567926D01*
X132033915Y-83564585D01*
X132119824Y-83529000D01*
X132208019Y-83492468D01*
X132401409Y-83454000D01*
X132598591Y-83454000D01*
X132695285Y-83473234D01*
G37*
G36*
X140745285Y-83473234D02*
G01*
X140841981Y-83492468D01*
X140930176Y-83529000D01*
X141016086Y-83564585D01*
X141024151Y-83567926D01*
X141188100Y-83677473D01*
X141327527Y-83816900D01*
X141424061Y-83961374D01*
X141437075Y-83980851D01*
X141459175Y-84034205D01*
X141512532Y-84163019D01*
X141551000Y-84356410D01*
X141551000Y-84553590D01*
X141516884Y-84725104D01*
X141512532Y-84746980D01*
X141451790Y-84893625D01*
X141437074Y-84929151D01*
X141327527Y-85093100D01*
X141188100Y-85232527D01*
X141024151Y-85342074D01*
X141024150Y-85342075D01*
X141024149Y-85342075D01*
X140970795Y-85364175D01*
X140841981Y-85417532D01*
X140745285Y-85436766D01*
X140648591Y-85456000D01*
X140451409Y-85456000D01*
X140354715Y-85436766D01*
X140258019Y-85417532D01*
X140129205Y-85364175D01*
X140075851Y-85342075D01*
X140075850Y-85342075D01*
X140075849Y-85342074D01*
X139911900Y-85232527D01*
X139772473Y-85093100D01*
X139662926Y-84929151D01*
X139648211Y-84893625D01*
X139587468Y-84746980D01*
X139583117Y-84725104D01*
X139549000Y-84553590D01*
X139549000Y-84356410D01*
X139587468Y-84163019D01*
X139640825Y-84034205D01*
X139662925Y-83980851D01*
X139675939Y-83961374D01*
X139772473Y-83816900D01*
X139911900Y-83677473D01*
X140075849Y-83567926D01*
X140083915Y-83564585D01*
X140169824Y-83529000D01*
X140258019Y-83492468D01*
X140451409Y-83454000D01*
X140648591Y-83454000D01*
X140745285Y-83473234D01*
G37*
G36*
X91215285Y-83473234D02*
G01*
X91311981Y-83492468D01*
X91400176Y-83529000D01*
X91486086Y-83564585D01*
X91494151Y-83567926D01*
X91658100Y-83677473D01*
X91797527Y-83816900D01*
X91894061Y-83961374D01*
X91907075Y-83980851D01*
X91929175Y-84034205D01*
X91982532Y-84163019D01*
X92021000Y-84356410D01*
X92021000Y-84553590D01*
X91986884Y-84725104D01*
X91982532Y-84746980D01*
X91921790Y-84893625D01*
X91907074Y-84929151D01*
X91797527Y-85093100D01*
X91658100Y-85232527D01*
X91494151Y-85342074D01*
X91494150Y-85342075D01*
X91494149Y-85342075D01*
X91440795Y-85364175D01*
X91311981Y-85417532D01*
X91215285Y-85436766D01*
X91118591Y-85456000D01*
X90921409Y-85456000D01*
X90824715Y-85436766D01*
X90728019Y-85417532D01*
X90599205Y-85364175D01*
X90545851Y-85342075D01*
X90545850Y-85342075D01*
X90545849Y-85342074D01*
X90381900Y-85232527D01*
X90242473Y-85093100D01*
X90132926Y-84929151D01*
X90118211Y-84893625D01*
X90057468Y-84746980D01*
X90053117Y-84725104D01*
X90019000Y-84553590D01*
X90019000Y-84356410D01*
X90057468Y-84163019D01*
X90110825Y-84034205D01*
X90132925Y-83980851D01*
X90145939Y-83961374D01*
X90242473Y-83816900D01*
X90381900Y-83677473D01*
X90545849Y-83567926D01*
X90553915Y-83564585D01*
X90639824Y-83529000D01*
X90728019Y-83492468D01*
X90824715Y-83473234D01*
X90921409Y-83454000D01*
X91118591Y-83454000D01*
X91215285Y-83473234D01*
G37*
G36*
X102215285Y-83473234D02*
G01*
X102311981Y-83492468D01*
X102400176Y-83529000D01*
X102486086Y-83564585D01*
X102494151Y-83567926D01*
X102658100Y-83677473D01*
X102797527Y-83816900D01*
X102894061Y-83961374D01*
X102907075Y-83980851D01*
X102929175Y-84034205D01*
X102982532Y-84163019D01*
X103021000Y-84356410D01*
X103021000Y-84553590D01*
X102986884Y-84725104D01*
X102982532Y-84746980D01*
X102921790Y-84893625D01*
X102907074Y-84929151D01*
X102797527Y-85093100D01*
X102658100Y-85232527D01*
X102494151Y-85342074D01*
X102494150Y-85342075D01*
X102494149Y-85342075D01*
X102440795Y-85364175D01*
X102311981Y-85417532D01*
X102215285Y-85436766D01*
X102118591Y-85456000D01*
X101921409Y-85456000D01*
X101824715Y-85436766D01*
X101728019Y-85417532D01*
X101599205Y-85364175D01*
X101545851Y-85342075D01*
X101545850Y-85342075D01*
X101545849Y-85342074D01*
X101381900Y-85232527D01*
X101242473Y-85093100D01*
X101132926Y-84929151D01*
X101118211Y-84893625D01*
X101057468Y-84746980D01*
X101053117Y-84725104D01*
X101019000Y-84553590D01*
X101019000Y-84356410D01*
X101057468Y-84163019D01*
X101110825Y-84034205D01*
X101132925Y-83980851D01*
X101145939Y-83961374D01*
X101242473Y-83816900D01*
X101381900Y-83677473D01*
X101545849Y-83567926D01*
X101553915Y-83564585D01*
X101639824Y-83529000D01*
X101728019Y-83492468D01*
X101824715Y-83473234D01*
X101921409Y-83454000D01*
X102118591Y-83454000D01*
X102215285Y-83473234D01*
G37*
G36*
X121695285Y-83473234D02*
G01*
X121791981Y-83492468D01*
X121880176Y-83529000D01*
X121966086Y-83564585D01*
X121974151Y-83567926D01*
X122138100Y-83677473D01*
X122277527Y-83816900D01*
X122374061Y-83961374D01*
X122387075Y-83980851D01*
X122409175Y-84034205D01*
X122462532Y-84163019D01*
X122501000Y-84356410D01*
X122501000Y-84553590D01*
X122466884Y-84725104D01*
X122462532Y-84746980D01*
X122401790Y-84893625D01*
X122387074Y-84929151D01*
X122277527Y-85093100D01*
X122138100Y-85232527D01*
X121974151Y-85342074D01*
X121974150Y-85342075D01*
X121974149Y-85342075D01*
X121920795Y-85364175D01*
X121791981Y-85417532D01*
X121695285Y-85436766D01*
X121598591Y-85456000D01*
X121401409Y-85456000D01*
X121304715Y-85436766D01*
X121208019Y-85417532D01*
X121079205Y-85364175D01*
X121025851Y-85342075D01*
X121025850Y-85342075D01*
X121025849Y-85342074D01*
X120861900Y-85232527D01*
X120722473Y-85093100D01*
X120612926Y-84929151D01*
X120598211Y-84893625D01*
X120537468Y-84746980D01*
X120533117Y-84725104D01*
X120499000Y-84553590D01*
X120499000Y-84356410D01*
X120537468Y-84163019D01*
X120590825Y-84034205D01*
X120612925Y-83980851D01*
X120625939Y-83961374D01*
X120722473Y-83816900D01*
X120861900Y-83677473D01*
X121025849Y-83567926D01*
X121033915Y-83564585D01*
X121119824Y-83529000D01*
X121208019Y-83492468D01*
X121401409Y-83454000D01*
X121598591Y-83454000D01*
X121695285Y-83473234D01*
G37*
G36*
X83165285Y-83473234D02*
G01*
X83261981Y-83492468D01*
X83350176Y-83529000D01*
X83436086Y-83564585D01*
X83444151Y-83567926D01*
X83608100Y-83677473D01*
X83747527Y-83816900D01*
X83844061Y-83961374D01*
X83857075Y-83980851D01*
X83879175Y-84034205D01*
X83932532Y-84163019D01*
X83971000Y-84356410D01*
X83971000Y-84553590D01*
X83936884Y-84725104D01*
X83932532Y-84746980D01*
X83871790Y-84893625D01*
X83857074Y-84929151D01*
X83747527Y-85093100D01*
X83608100Y-85232527D01*
X83444151Y-85342074D01*
X83444150Y-85342075D01*
X83444149Y-85342075D01*
X83390795Y-85364175D01*
X83261981Y-85417532D01*
X83165285Y-85436766D01*
X83068591Y-85456000D01*
X82871409Y-85456000D01*
X82774715Y-85436766D01*
X82678019Y-85417532D01*
X82549205Y-85364175D01*
X82495851Y-85342075D01*
X82495850Y-85342075D01*
X82495849Y-85342074D01*
X82331900Y-85232527D01*
X82192473Y-85093100D01*
X82082926Y-84929151D01*
X82068211Y-84893625D01*
X82007468Y-84746980D01*
X82003117Y-84725104D01*
X81969000Y-84553590D01*
X81969000Y-84356410D01*
X82007468Y-84163019D01*
X82060825Y-84034205D01*
X82082925Y-83980851D01*
X82095939Y-83961374D01*
X82192473Y-83816900D01*
X82331900Y-83677473D01*
X82495849Y-83567926D01*
X82503915Y-83564585D01*
X82589824Y-83529000D01*
X82678019Y-83492468D01*
X82774715Y-83473234D01*
X82871409Y-83454000D01*
X83068591Y-83454000D01*
X83165285Y-83473234D01*
G37*
G36*
X72165285Y-83473234D02*
G01*
X72261981Y-83492468D01*
X72350176Y-83529000D01*
X72436086Y-83564585D01*
X72444151Y-83567926D01*
X72608100Y-83677473D01*
X72747527Y-83816900D01*
X72844061Y-83961374D01*
X72857075Y-83980851D01*
X72879175Y-84034205D01*
X72932532Y-84163019D01*
X72971000Y-84356410D01*
X72971000Y-84553590D01*
X72936884Y-84725104D01*
X72932532Y-84746980D01*
X72871790Y-84893625D01*
X72857074Y-84929151D01*
X72747527Y-85093100D01*
X72608100Y-85232527D01*
X72444151Y-85342074D01*
X72444150Y-85342075D01*
X72444149Y-85342075D01*
X72390795Y-85364175D01*
X72261981Y-85417532D01*
X72165285Y-85436766D01*
X72068591Y-85456000D01*
X71871409Y-85456000D01*
X71774715Y-85436766D01*
X71678019Y-85417532D01*
X71549205Y-85364175D01*
X71495851Y-85342075D01*
X71495850Y-85342075D01*
X71495849Y-85342074D01*
X71331900Y-85232527D01*
X71192473Y-85093100D01*
X71082926Y-84929151D01*
X71068211Y-84893625D01*
X71007468Y-84746980D01*
X71003117Y-84725104D01*
X70969000Y-84553590D01*
X70969000Y-84356410D01*
X71007468Y-84163019D01*
X71060825Y-84034205D01*
X71082925Y-83980851D01*
X71095939Y-83961374D01*
X71192473Y-83816900D01*
X71331900Y-83677473D01*
X71495849Y-83567926D01*
X71503915Y-83564585D01*
X71589824Y-83529000D01*
X71678019Y-83492468D01*
X71774715Y-83473234D01*
X71871409Y-83454000D01*
X72068591Y-83454000D01*
X72165285Y-83473234D01*
G37*
G36*
X65675104Y-83564585D02*
G01*
X65843626Y-83634389D01*
X65995291Y-83735728D01*
X66124272Y-83864709D01*
X66225611Y-84016374D01*
X66295415Y-84184896D01*
X66331000Y-84363797D01*
X66331000Y-84546203D01*
X66295415Y-84725104D01*
X66225611Y-84893626D01*
X66124272Y-85045291D01*
X65995291Y-85174272D01*
X65843626Y-85275611D01*
X65675104Y-85345415D01*
X65496203Y-85381000D01*
X65313797Y-85381000D01*
X65134896Y-85345415D01*
X64966374Y-85275611D01*
X64814709Y-85174272D01*
X64685728Y-85045291D01*
X64584389Y-84893626D01*
X64514585Y-84725104D01*
X64479000Y-84546203D01*
X64479000Y-84363797D01*
X64514585Y-84184896D01*
X64584389Y-84016374D01*
X64685728Y-83864709D01*
X64814709Y-83735728D01*
X64966374Y-83634389D01*
X65134896Y-83564585D01*
X65313797Y-83529000D01*
X65496203Y-83529000D01*
X65675104Y-83564585D01*
G37*
G36*
X115205104Y-83564585D02*
G01*
X115373626Y-83634389D01*
X115525291Y-83735728D01*
X115654272Y-83864709D01*
X115755611Y-84016374D01*
X115825415Y-84184896D01*
X115861000Y-84363797D01*
X115861000Y-84546203D01*
X115825415Y-84725104D01*
X115755611Y-84893626D01*
X115654272Y-85045291D01*
X115525291Y-85174272D01*
X115373626Y-85275611D01*
X115205104Y-85345415D01*
X115026203Y-85381000D01*
X114843797Y-85381000D01*
X114664896Y-85345415D01*
X114496374Y-85275611D01*
X114344709Y-85174272D01*
X114215728Y-85045291D01*
X114114389Y-84893626D01*
X114044585Y-84725104D01*
X114009000Y-84546203D01*
X114009000Y-84363797D01*
X114044585Y-84184896D01*
X114114389Y-84016374D01*
X114215728Y-83864709D01*
X114344709Y-83735728D01*
X114496374Y-83634389D01*
X114664896Y-83564585D01*
X114843797Y-83529000D01*
X115026203Y-83529000D01*
X115205104Y-83564585D01*
G37*
G36*
X110125104Y-83509585D02*
G01*
X110293626Y-83579389D01*
X110445291Y-83680728D01*
X110574272Y-83809709D01*
X110675611Y-83961374D01*
X110745415Y-84129896D01*
X110781000Y-84308797D01*
X110781000Y-84491203D01*
X110745415Y-84670104D01*
X110675611Y-84838626D01*
X110574272Y-84990291D01*
X110445291Y-85119272D01*
X110293626Y-85220611D01*
X110125104Y-85290415D01*
X109946203Y-85326000D01*
X109763797Y-85326000D01*
X109584896Y-85290415D01*
X109416374Y-85220611D01*
X109264709Y-85119272D01*
X109135728Y-84990291D01*
X109034389Y-84838626D01*
X108964585Y-84670104D01*
X108929000Y-84491203D01*
X108929000Y-84308797D01*
X108964585Y-84129896D01*
X109034389Y-83961374D01*
X109135728Y-83809709D01*
X109264709Y-83680728D01*
X109416374Y-83579389D01*
X109584896Y-83509585D01*
X109763797Y-83474000D01*
X109946203Y-83474000D01*
X110125104Y-83509585D01*
G37*
G36*
X159655104Y-83509585D02*
G01*
X159823626Y-83579389D01*
X159975291Y-83680728D01*
X160104272Y-83809709D01*
X160205611Y-83961374D01*
X160275415Y-84129896D01*
X160311000Y-84308797D01*
X160311000Y-84491203D01*
X160275415Y-84670104D01*
X160205611Y-84838626D01*
X160104272Y-84990291D01*
X159975291Y-85119272D01*
X159823626Y-85220611D01*
X159655104Y-85290415D01*
X159476203Y-85326000D01*
X159293797Y-85326000D01*
X159114896Y-85290415D01*
X158946374Y-85220611D01*
X158794709Y-85119272D01*
X158665728Y-84990291D01*
X158564389Y-84838626D01*
X158494585Y-84670104D01*
X158459000Y-84491203D01*
X158459000Y-84308797D01*
X158494585Y-84129896D01*
X158564389Y-83961374D01*
X158665728Y-83809709D01*
X158794709Y-83680728D01*
X158946374Y-83579389D01*
X159114896Y-83509585D01*
X159293797Y-83474000D01*
X159476203Y-83474000D01*
X159655104Y-83509585D01*
G37*
G36*
X117639795Y-82125156D02*
G01*
X117746150Y-82146311D01*
X117946520Y-82229307D01*
X118126844Y-82349795D01*
X118280205Y-82503156D01*
X118400693Y-82683480D01*
X118483689Y-82883851D01*
X118513071Y-83031560D01*
X118526000Y-83096561D01*
X118526000Y-83313439D01*
X118483689Y-83526150D01*
X118400693Y-83726520D01*
X118280205Y-83906844D01*
X118126844Y-84060205D01*
X117946520Y-84180693D01*
X117846334Y-84222191D01*
X117746150Y-84263689D01*
X117639794Y-84284845D01*
X117533440Y-84306000D01*
X117316560Y-84306000D01*
X117210206Y-84284845D01*
X117103850Y-84263689D01*
X117003666Y-84222191D01*
X116903480Y-84180693D01*
X116723156Y-84060205D01*
X116569795Y-83906844D01*
X116449307Y-83726520D01*
X116407809Y-83626334D01*
X116366311Y-83526150D01*
X116324000Y-83313439D01*
X116324000Y-83096561D01*
X116336930Y-83031560D01*
X116366311Y-82883851D01*
X116449307Y-82683480D01*
X116569795Y-82503156D01*
X116723156Y-82349795D01*
X116903480Y-82229307D01*
X117103850Y-82146311D01*
X117210205Y-82125156D01*
X117316560Y-82104000D01*
X117533440Y-82104000D01*
X117639795Y-82125156D01*
G37*
G36*
X68109795Y-82125156D02*
G01*
X68216150Y-82146311D01*
X68416520Y-82229307D01*
X68596844Y-82349795D01*
X68750205Y-82503156D01*
X68870693Y-82683480D01*
X68953689Y-82883851D01*
X68983071Y-83031560D01*
X68996000Y-83096561D01*
X68996000Y-83313439D01*
X68953689Y-83526150D01*
X68912191Y-83626334D01*
X68870693Y-83726520D01*
X68750205Y-83906844D01*
X68596844Y-84060205D01*
X68416520Y-84180693D01*
X68316334Y-84222191D01*
X68216150Y-84263689D01*
X68109794Y-84284845D01*
X68003440Y-84306000D01*
X67786560Y-84306000D01*
X67680206Y-84284845D01*
X67573850Y-84263689D01*
X67473666Y-84222191D01*
X67373480Y-84180693D01*
X67193156Y-84060205D01*
X67039795Y-83906844D01*
X66919307Y-83726520D01*
X66877809Y-83626334D01*
X66836311Y-83526150D01*
X66794000Y-83313439D01*
X66794000Y-83096561D01*
X66806930Y-83031560D01*
X66836311Y-82883851D01*
X66919307Y-82683480D01*
X67039795Y-82503156D01*
X67193156Y-82349795D01*
X67373480Y-82229307D01*
X67573850Y-82146311D01*
X67680205Y-82125156D01*
X67786560Y-82104000D01*
X68003440Y-82104000D01*
X68109795Y-82125156D01*
G37*
G36*
X107579795Y-82060156D02*
G01*
X107686150Y-82081311D01*
X107786334Y-82122809D01*
X107886520Y-82164307D01*
X108066844Y-82284795D01*
X108220205Y-82438156D01*
X108340693Y-82618480D01*
X108348541Y-82637427D01*
X108423689Y-82818850D01*
X108444844Y-82925205D01*
X108466000Y-83031560D01*
X108466000Y-83248440D01*
X108444845Y-83354794D01*
X108423689Y-83461150D01*
X108403626Y-83509585D01*
X108340693Y-83661520D01*
X108220205Y-83841844D01*
X108066844Y-83995205D01*
X107886520Y-84115693D01*
X107852228Y-84129897D01*
X107686150Y-84198689D01*
X107579794Y-84219845D01*
X107473440Y-84241000D01*
X107256560Y-84241000D01*
X107150206Y-84219845D01*
X107043850Y-84198689D01*
X106877772Y-84129897D01*
X106843480Y-84115693D01*
X106663156Y-83995205D01*
X106509795Y-83841844D01*
X106389307Y-83661520D01*
X106326374Y-83509585D01*
X106306311Y-83461150D01*
X106285155Y-83354794D01*
X106264000Y-83248440D01*
X106264000Y-83031560D01*
X106285156Y-82925205D01*
X106306311Y-82818850D01*
X106381459Y-82637427D01*
X106389307Y-82618480D01*
X106509795Y-82438156D01*
X106663156Y-82284795D01*
X106843480Y-82164307D01*
X106943666Y-82122809D01*
X107043850Y-82081311D01*
X107150205Y-82060156D01*
X107256560Y-82039000D01*
X107473440Y-82039000D01*
X107579795Y-82060156D01*
G37*
G36*
X157109795Y-82060156D02*
G01*
X157216150Y-82081311D01*
X157316334Y-82122809D01*
X157416520Y-82164307D01*
X157596844Y-82284795D01*
X157750205Y-82438156D01*
X157870693Y-82618480D01*
X157878541Y-82637427D01*
X157953689Y-82818850D01*
X157974844Y-82925205D01*
X157996000Y-83031560D01*
X157996000Y-83248440D01*
X157974844Y-83354795D01*
X157953689Y-83461150D01*
X157933626Y-83509585D01*
X157870693Y-83661520D01*
X157750205Y-83841844D01*
X157596844Y-83995205D01*
X157416520Y-84115693D01*
X157382228Y-84129897D01*
X157216150Y-84198689D01*
X157109794Y-84219845D01*
X157003440Y-84241000D01*
X156786560Y-84241000D01*
X156680206Y-84219845D01*
X156573850Y-84198689D01*
X156407772Y-84129897D01*
X156373480Y-84115693D01*
X156193156Y-83995205D01*
X156039795Y-83841844D01*
X155919307Y-83661520D01*
X155856374Y-83509585D01*
X155836311Y-83461150D01*
X155815156Y-83354795D01*
X155794000Y-83248440D01*
X155794000Y-83031560D01*
X155815156Y-82925205D01*
X155836311Y-82818850D01*
X155911459Y-82637427D01*
X155919307Y-82618480D01*
X156039795Y-82438156D01*
X156193156Y-82284795D01*
X156373480Y-82164307D01*
X156473666Y-82122809D01*
X156573850Y-82081311D01*
X156680206Y-82060155D01*
X156786560Y-82039000D01*
X157003440Y-82039000D01*
X157109795Y-82060156D01*
G37*
G36*
X127598254Y-63432818D02*
G01*
X127971511Y-63587426D01*
X127971513Y-63587427D01*
X128307436Y-63811884D01*
X128593116Y-64097564D01*
X128814475Y-64428850D01*
X128817574Y-64433489D01*
X128972182Y-64806746D01*
X129051000Y-65202993D01*
X129051000Y-65607007D01*
X128972182Y-66003254D01*
X128821293Y-66367532D01*
X128817573Y-66376513D01*
X128593116Y-66712436D01*
X128307436Y-66998116D01*
X127971513Y-67222573D01*
X127971512Y-67222574D01*
X127971511Y-67222574D01*
X127598254Y-67377182D01*
X127202007Y-67456000D01*
X126797993Y-67456000D01*
X126401746Y-67377182D01*
X126028489Y-67222574D01*
X126028488Y-67222574D01*
X126028487Y-67222573D01*
X125692564Y-66998116D01*
X125406884Y-66712436D01*
X125182427Y-66376513D01*
X125178707Y-66367532D01*
X125027818Y-66003254D01*
X124949000Y-65607007D01*
X124949000Y-65202993D01*
X125027818Y-64806746D01*
X125182426Y-64433489D01*
X125185526Y-64428850D01*
X125406884Y-64097564D01*
X125692564Y-63811884D01*
X126028487Y-63587427D01*
X126028489Y-63587426D01*
X126401746Y-63432818D01*
X126797993Y-63354000D01*
X127202007Y-63354000D01*
X127598254Y-63432818D01*
G37*
G36*
X97118254Y-63432818D02*
G01*
X97491511Y-63587426D01*
X97491513Y-63587427D01*
X97827436Y-63811884D01*
X98113116Y-64097564D01*
X98334475Y-64428850D01*
X98337574Y-64433489D01*
X98492182Y-64806746D01*
X98571000Y-65202993D01*
X98571000Y-65607007D01*
X98492182Y-66003254D01*
X98341293Y-66367532D01*
X98337573Y-66376513D01*
X98113116Y-66712436D01*
X97827436Y-66998116D01*
X97491513Y-67222573D01*
X97491512Y-67222574D01*
X97491511Y-67222574D01*
X97118254Y-67377182D01*
X96722007Y-67456000D01*
X96317993Y-67456000D01*
X95921746Y-67377182D01*
X95548489Y-67222574D01*
X95548488Y-67222574D01*
X95548487Y-67222573D01*
X95212564Y-66998116D01*
X94926884Y-66712436D01*
X94702427Y-66376513D01*
X94698707Y-66367532D01*
X94547818Y-66003254D01*
X94469000Y-65607007D01*
X94469000Y-65202993D01*
X94547818Y-64806746D01*
X94702426Y-64433489D01*
X94705526Y-64428850D01*
X94926884Y-64097564D01*
X95212564Y-63811884D01*
X95548487Y-63587427D01*
X95548489Y-63587426D01*
X95921746Y-63432818D01*
X96317993Y-63354000D01*
X96722007Y-63354000D01*
X97118254Y-63432818D01*
G37*
G36*
X146648254Y-63432818D02*
G01*
X147021511Y-63587426D01*
X147021513Y-63587427D01*
X147357436Y-63811884D01*
X147643116Y-64097564D01*
X147864475Y-64428850D01*
X147867574Y-64433489D01*
X148022182Y-64806746D01*
X148101000Y-65202993D01*
X148101000Y-65607007D01*
X148022182Y-66003254D01*
X147871293Y-66367532D01*
X147867573Y-66376513D01*
X147643116Y-66712436D01*
X147357436Y-66998116D01*
X147021513Y-67222573D01*
X147021512Y-67222574D01*
X147021511Y-67222574D01*
X146648254Y-67377182D01*
X146252007Y-67456000D01*
X145847993Y-67456000D01*
X145451746Y-67377182D01*
X145078489Y-67222574D01*
X145078488Y-67222574D01*
X145078487Y-67222573D01*
X144742564Y-66998116D01*
X144456884Y-66712436D01*
X144232427Y-66376513D01*
X144228707Y-66367532D01*
X144077818Y-66003254D01*
X143999000Y-65607007D01*
X143999000Y-65202993D01*
X144077818Y-64806746D01*
X144232426Y-64433489D01*
X144235526Y-64428850D01*
X144456884Y-64097564D01*
X144742564Y-63811884D01*
X145078487Y-63587427D01*
X145078489Y-63587426D01*
X145451746Y-63432818D01*
X145847993Y-63354000D01*
X146252007Y-63354000D01*
X146648254Y-63432818D01*
G37*
G36*
X78068254Y-63432818D02*
G01*
X78441511Y-63587426D01*
X78441513Y-63587427D01*
X78777436Y-63811884D01*
X79063116Y-64097564D01*
X79284475Y-64428850D01*
X79287574Y-64433489D01*
X79442182Y-64806746D01*
X79521000Y-65202993D01*
X79521000Y-65607007D01*
X79442182Y-66003254D01*
X79291293Y-66367532D01*
X79287573Y-66376513D01*
X79063116Y-66712436D01*
X78777436Y-66998116D01*
X78441513Y-67222573D01*
X78441512Y-67222574D01*
X78441511Y-67222574D01*
X78068254Y-67377182D01*
X77672007Y-67456000D01*
X77267993Y-67456000D01*
X76871746Y-67377182D01*
X76498489Y-67222574D01*
X76498488Y-67222574D01*
X76498487Y-67222573D01*
X76162564Y-66998116D01*
X75876884Y-66712436D01*
X75652427Y-66376513D01*
X75648707Y-66367532D01*
X75497818Y-66003254D01*
X75419000Y-65607007D01*
X75419000Y-65202993D01*
X75497818Y-64806746D01*
X75652426Y-64433489D01*
X75655526Y-64428850D01*
X75876884Y-64097564D01*
X76162564Y-63811884D01*
X76498487Y-63587427D01*
X76498489Y-63587426D01*
X76871746Y-63432818D01*
X77267993Y-63354000D01*
X77672007Y-63354000D01*
X78068254Y-63432818D01*
G37*
G36*
X140841981Y-64442468D02*
G01*
X141024151Y-64517926D01*
X141188100Y-64627473D01*
X141327527Y-64766900D01*
X141437074Y-64930849D01*
X141495189Y-65071149D01*
X141512532Y-65113020D01*
X141551000Y-65306409D01*
X141551000Y-65503591D01*
X141512532Y-65696980D01*
X141439337Y-65873689D01*
X141437074Y-65879151D01*
X141327527Y-66043100D01*
X141188100Y-66182527D01*
X141024151Y-66292074D01*
X140841981Y-66367532D01*
X140745285Y-66386766D01*
X140648591Y-66406000D01*
X140451409Y-66406000D01*
X140354715Y-66386766D01*
X140258019Y-66367532D01*
X140075849Y-66292074D01*
X139911900Y-66182527D01*
X139772473Y-66043100D01*
X139662926Y-65879151D01*
X139660664Y-65873689D01*
X139587468Y-65696980D01*
X139549000Y-65503591D01*
X139549000Y-65306409D01*
X139587468Y-65113020D01*
X139604812Y-65071149D01*
X139662926Y-64930849D01*
X139772473Y-64766900D01*
X139911900Y-64627473D01*
X140075849Y-64517926D01*
X140258019Y-64442468D01*
X140451409Y-64404000D01*
X140648591Y-64404000D01*
X140841981Y-64442468D01*
G37*
G36*
X72261981Y-64442468D02*
G01*
X72444151Y-64517926D01*
X72608100Y-64627473D01*
X72747527Y-64766900D01*
X72857074Y-64930849D01*
X72915189Y-65071149D01*
X72932532Y-65113020D01*
X72971000Y-65306409D01*
X72971000Y-65503591D01*
X72932532Y-65696980D01*
X72859337Y-65873689D01*
X72857074Y-65879151D01*
X72747527Y-66043100D01*
X72608100Y-66182527D01*
X72444151Y-66292074D01*
X72261981Y-66367532D01*
X72165285Y-66386766D01*
X72068591Y-66406000D01*
X71871409Y-66406000D01*
X71774715Y-66386766D01*
X71678019Y-66367532D01*
X71495849Y-66292074D01*
X71331900Y-66182527D01*
X71192473Y-66043100D01*
X71082926Y-65879151D01*
X71080664Y-65873689D01*
X71007468Y-65696980D01*
X70969000Y-65503591D01*
X70969000Y-65306409D01*
X71007468Y-65113020D01*
X71024812Y-65071149D01*
X71082926Y-64930849D01*
X71192473Y-64766900D01*
X71331900Y-64627473D01*
X71495849Y-64517926D01*
X71678019Y-64442468D01*
X71871409Y-64404000D01*
X72068591Y-64404000D01*
X72261981Y-64442468D01*
G37*
G36*
X151841981Y-64442468D02*
G01*
X152024151Y-64517926D01*
X152188100Y-64627473D01*
X152327527Y-64766900D01*
X152437074Y-64930849D01*
X152495189Y-65071149D01*
X152512532Y-65113020D01*
X152551000Y-65306409D01*
X152551000Y-65503591D01*
X152512532Y-65696980D01*
X152439337Y-65873689D01*
X152437074Y-65879151D01*
X152327527Y-66043100D01*
X152188100Y-66182527D01*
X152024151Y-66292074D01*
X151841981Y-66367532D01*
X151745285Y-66386766D01*
X151648591Y-66406000D01*
X151451409Y-66406000D01*
X151354715Y-66386766D01*
X151258019Y-66367532D01*
X151075849Y-66292074D01*
X150911900Y-66182527D01*
X150772473Y-66043100D01*
X150662926Y-65879151D01*
X150660664Y-65873689D01*
X150587468Y-65696980D01*
X150549000Y-65503591D01*
X150549000Y-65306409D01*
X150587468Y-65113020D01*
X150604812Y-65071149D01*
X150662926Y-64930849D01*
X150772473Y-64766900D01*
X150911900Y-64627473D01*
X151075849Y-64517926D01*
X151258019Y-64442468D01*
X151451409Y-64404000D01*
X151648591Y-64404000D01*
X151841981Y-64442468D01*
G37*
G36*
X132791981Y-64442468D02*
G01*
X132974151Y-64517926D01*
X133138100Y-64627473D01*
X133277527Y-64766900D01*
X133387074Y-64930849D01*
X133445189Y-65071149D01*
X133462532Y-65113020D01*
X133501000Y-65306409D01*
X133501000Y-65503591D01*
X133462532Y-65696980D01*
X133389337Y-65873689D01*
X133387074Y-65879151D01*
X133277527Y-66043100D01*
X133138100Y-66182527D01*
X132974151Y-66292074D01*
X132791981Y-66367532D01*
X132695285Y-66386766D01*
X132598591Y-66406000D01*
X132401409Y-66406000D01*
X132304715Y-66386766D01*
X132208019Y-66367532D01*
X132025849Y-66292074D01*
X131861900Y-66182527D01*
X131722473Y-66043100D01*
X131612926Y-65879151D01*
X131610664Y-65873689D01*
X131537468Y-65696980D01*
X131499000Y-65503591D01*
X131499000Y-65306409D01*
X131537468Y-65113020D01*
X131554812Y-65071149D01*
X131612926Y-64930849D01*
X131722473Y-64766900D01*
X131861900Y-64627473D01*
X132025849Y-64517926D01*
X132208019Y-64442468D01*
X132401409Y-64404000D01*
X132598591Y-64404000D01*
X132791981Y-64442468D01*
G37*
G36*
X121791981Y-64442468D02*
G01*
X121974151Y-64517926D01*
X122138100Y-64627473D01*
X122277527Y-64766900D01*
X122387074Y-64930849D01*
X122445189Y-65071149D01*
X122462532Y-65113020D01*
X122501000Y-65306409D01*
X122501000Y-65503591D01*
X122462532Y-65696980D01*
X122389337Y-65873689D01*
X122387074Y-65879151D01*
X122277527Y-66043100D01*
X122138100Y-66182527D01*
X121974151Y-66292074D01*
X121791981Y-66367532D01*
X121695285Y-66386766D01*
X121598591Y-66406000D01*
X121401409Y-66406000D01*
X121304715Y-66386766D01*
X121208019Y-66367532D01*
X121025849Y-66292074D01*
X120861900Y-66182527D01*
X120722473Y-66043100D01*
X120612926Y-65879151D01*
X120610664Y-65873689D01*
X120537468Y-65696980D01*
X120499000Y-65503591D01*
X120499000Y-65306409D01*
X120537468Y-65113020D01*
X120554812Y-65071149D01*
X120612926Y-64930849D01*
X120722473Y-64766900D01*
X120861900Y-64627473D01*
X121025849Y-64517926D01*
X121208019Y-64442468D01*
X121401409Y-64404000D01*
X121598591Y-64404000D01*
X121791981Y-64442468D01*
G37*
G36*
X102311981Y-64442468D02*
G01*
X102494151Y-64517926D01*
X102658100Y-64627473D01*
X102797527Y-64766900D01*
X102907074Y-64930849D01*
X102965189Y-65071149D01*
X102982532Y-65113020D01*
X103021000Y-65306409D01*
X103021000Y-65503591D01*
X102982532Y-65696980D01*
X102909337Y-65873689D01*
X102907074Y-65879151D01*
X102797527Y-66043100D01*
X102658100Y-66182527D01*
X102494151Y-66292074D01*
X102311981Y-66367532D01*
X102215285Y-66386766D01*
X102118591Y-66406000D01*
X101921409Y-66406000D01*
X101824715Y-66386766D01*
X101728019Y-66367532D01*
X101545849Y-66292074D01*
X101381900Y-66182527D01*
X101242473Y-66043100D01*
X101132926Y-65879151D01*
X101130664Y-65873689D01*
X101057468Y-65696980D01*
X101019000Y-65503591D01*
X101019000Y-65306409D01*
X101057468Y-65113020D01*
X101074812Y-65071149D01*
X101132926Y-64930849D01*
X101242473Y-64766900D01*
X101381900Y-64627473D01*
X101545849Y-64517926D01*
X101728019Y-64442468D01*
X101921409Y-64404000D01*
X102118591Y-64404000D01*
X102311981Y-64442468D01*
G37*
G36*
X91311981Y-64442468D02*
G01*
X91494151Y-64517926D01*
X91658100Y-64627473D01*
X91797527Y-64766900D01*
X91907074Y-64930849D01*
X91965189Y-65071149D01*
X91982532Y-65113020D01*
X92021000Y-65306409D01*
X92021000Y-65503591D01*
X91982532Y-65696980D01*
X91909337Y-65873689D01*
X91907074Y-65879151D01*
X91797527Y-66043100D01*
X91658100Y-66182527D01*
X91494151Y-66292074D01*
X91311981Y-66367532D01*
X91215285Y-66386766D01*
X91118591Y-66406000D01*
X90921409Y-66406000D01*
X90824715Y-66386766D01*
X90728019Y-66367532D01*
X90545849Y-66292074D01*
X90381900Y-66182527D01*
X90242473Y-66043100D01*
X90132926Y-65879151D01*
X90130664Y-65873689D01*
X90057468Y-65696980D01*
X90019000Y-65503591D01*
X90019000Y-65306409D01*
X90057468Y-65113020D01*
X90074812Y-65071149D01*
X90132926Y-64930849D01*
X90242473Y-64766900D01*
X90381900Y-64627473D01*
X90545849Y-64517926D01*
X90728019Y-64442468D01*
X90921409Y-64404000D01*
X91118591Y-64404000D01*
X91311981Y-64442468D01*
G37*
G36*
X83261981Y-64442468D02*
G01*
X83444151Y-64517926D01*
X83608100Y-64627473D01*
X83747527Y-64766900D01*
X83857074Y-64930849D01*
X83915189Y-65071149D01*
X83932532Y-65113020D01*
X83971000Y-65306409D01*
X83971000Y-65503591D01*
X83932532Y-65696980D01*
X83859337Y-65873689D01*
X83857074Y-65879151D01*
X83747527Y-66043100D01*
X83608100Y-66182527D01*
X83444151Y-66292074D01*
X83261981Y-66367532D01*
X83165285Y-66386766D01*
X83068591Y-66406000D01*
X82871409Y-66406000D01*
X82774715Y-66386766D01*
X82678019Y-66367532D01*
X82495849Y-66292074D01*
X82331900Y-66182527D01*
X82192473Y-66043100D01*
X82082926Y-65879151D01*
X82080664Y-65873689D01*
X82007468Y-65696980D01*
X81969000Y-65503591D01*
X81969000Y-65306409D01*
X82007468Y-65113020D01*
X82024812Y-65071149D01*
X82082926Y-64930849D01*
X82192473Y-64766900D01*
X82331900Y-64627473D01*
X82495849Y-64517926D01*
X82678019Y-64442468D01*
X82871409Y-64404000D01*
X83068591Y-64404000D01*
X83261981Y-64442468D01*
G37*
G36*
X117639794Y-63735155D02*
G01*
X117746150Y-63756311D01*
X117946520Y-63839307D01*
X118126844Y-63959795D01*
X118280205Y-64113156D01*
X118400693Y-64293480D01*
X118400693Y-64293481D01*
X118458687Y-64433489D01*
X118483689Y-64493851D01*
X118513071Y-64641560D01*
X118526000Y-64706561D01*
X118526000Y-64923439D01*
X118483689Y-65136150D01*
X118456001Y-65202994D01*
X118400693Y-65336520D01*
X118280205Y-65516844D01*
X118126844Y-65670205D01*
X117946520Y-65790693D01*
X117746150Y-65873689D01*
X117639794Y-65894845D01*
X117533440Y-65916000D01*
X117316560Y-65916000D01*
X117210206Y-65894845D01*
X117103850Y-65873689D01*
X116903480Y-65790693D01*
X116723156Y-65670205D01*
X116569795Y-65516844D01*
X116449307Y-65336520D01*
X116393999Y-65202994D01*
X116366311Y-65136150D01*
X116324000Y-64923439D01*
X116324000Y-64706561D01*
X116336930Y-64641560D01*
X116366311Y-64493851D01*
X116391314Y-64433489D01*
X116449307Y-64293481D01*
X116449307Y-64293480D01*
X116569795Y-64113156D01*
X116723156Y-63959795D01*
X116903480Y-63839307D01*
X117103850Y-63756311D01*
X117210206Y-63735155D01*
X117316560Y-63714000D01*
X117533440Y-63714000D01*
X117639794Y-63735155D01*
G37*
G36*
X68109794Y-63735155D02*
G01*
X68216150Y-63756311D01*
X68416520Y-63839307D01*
X68596844Y-63959795D01*
X68750205Y-64113156D01*
X68870693Y-64293480D01*
X68870693Y-64293481D01*
X68928687Y-64433489D01*
X68953689Y-64493851D01*
X68983071Y-64641560D01*
X68996000Y-64706561D01*
X68996000Y-64923439D01*
X68953689Y-65136150D01*
X68926001Y-65202994D01*
X68870693Y-65336520D01*
X68750205Y-65516844D01*
X68596844Y-65670205D01*
X68416520Y-65790693D01*
X68216150Y-65873689D01*
X68109794Y-65894845D01*
X68003440Y-65916000D01*
X67786560Y-65916000D01*
X67680206Y-65894845D01*
X67573850Y-65873689D01*
X67373480Y-65790693D01*
X67193156Y-65670205D01*
X67039795Y-65516844D01*
X66919307Y-65336520D01*
X66863999Y-65202994D01*
X66836311Y-65136150D01*
X66794000Y-64923439D01*
X66794000Y-64706561D01*
X66806930Y-64641560D01*
X66836311Y-64493851D01*
X66861314Y-64433489D01*
X66919307Y-64293481D01*
X66919307Y-64293480D01*
X67039795Y-64113156D01*
X67193156Y-63959795D01*
X67373480Y-63839307D01*
X67573850Y-63756311D01*
X67680206Y-63735155D01*
X67786560Y-63714000D01*
X68003440Y-63714000D01*
X68109794Y-63735155D01*
G37*
G36*
X107579794Y-63670155D02*
G01*
X107686150Y-63691311D01*
X107786334Y-63732809D01*
X107886520Y-63774307D01*
X108066844Y-63894795D01*
X108220205Y-64048156D01*
X108340693Y-64228480D01*
X108367617Y-64293480D01*
X108423689Y-64428850D01*
X108441407Y-64517925D01*
X108466000Y-64641560D01*
X108466000Y-64858440D01*
X108423689Y-65071149D01*
X108340693Y-65271520D01*
X108220205Y-65451844D01*
X108066844Y-65605205D01*
X107886520Y-65725693D01*
X107686150Y-65808689D01*
X107579795Y-65829844D01*
X107473440Y-65851000D01*
X107256560Y-65851000D01*
X107150205Y-65829844D01*
X107043850Y-65808689D01*
X106843480Y-65725693D01*
X106663156Y-65605205D01*
X106509795Y-65451844D01*
X106389307Y-65271520D01*
X106306311Y-65071149D01*
X106264000Y-64858440D01*
X106264000Y-64641560D01*
X106288593Y-64517925D01*
X106306311Y-64428850D01*
X106362383Y-64293480D01*
X106389307Y-64228480D01*
X106509795Y-64048156D01*
X106663156Y-63894795D01*
X106843480Y-63774307D01*
X106943666Y-63732809D01*
X107043850Y-63691311D01*
X107150206Y-63670155D01*
X107256560Y-63649000D01*
X107473440Y-63649000D01*
X107579794Y-63670155D01*
G37*
G36*
X157109794Y-63670155D02*
G01*
X157216150Y-63691311D01*
X157316334Y-63732809D01*
X157416520Y-63774307D01*
X157596844Y-63894795D01*
X157750205Y-64048156D01*
X157870693Y-64228480D01*
X157897617Y-64293480D01*
X157953689Y-64428850D01*
X157971407Y-64517925D01*
X157996000Y-64641560D01*
X157996000Y-64858440D01*
X157953689Y-65071149D01*
X157870693Y-65271520D01*
X157750205Y-65451844D01*
X157596844Y-65605205D01*
X157416520Y-65725693D01*
X157316334Y-65767191D01*
X157216150Y-65808689D01*
X157109795Y-65829844D01*
X157003440Y-65851000D01*
X156786560Y-65851000D01*
X156680205Y-65829844D01*
X156573850Y-65808689D01*
X156373480Y-65725693D01*
X156193156Y-65605205D01*
X156039795Y-65451844D01*
X155919307Y-65271520D01*
X155836311Y-65071149D01*
X155794000Y-64858440D01*
X155794000Y-64641560D01*
X155818593Y-64517925D01*
X155836311Y-64428850D01*
X155892383Y-64293480D01*
X155919307Y-64228480D01*
X156039795Y-64048156D01*
X156193156Y-63894795D01*
X156373480Y-63774307D01*
X156573850Y-63691311D01*
X156680206Y-63670155D01*
X156786560Y-63649000D01*
X157003440Y-63649000D01*
X157109794Y-63670155D01*
G37*
G36*
X65675104Y-62664585D02*
G01*
X65843626Y-62734389D01*
X65995291Y-62835728D01*
X66124272Y-62964709D01*
X66225611Y-63116374D01*
X66295415Y-63284896D01*
X66331000Y-63463797D01*
X66331000Y-63646203D01*
X66295415Y-63825104D01*
X66225611Y-63993626D01*
X66124272Y-64145291D01*
X65995291Y-64274272D01*
X65843626Y-64375611D01*
X65675104Y-64445415D01*
X65496203Y-64481000D01*
X65313797Y-64481000D01*
X65134896Y-64445415D01*
X64966374Y-64375611D01*
X64814709Y-64274272D01*
X64685728Y-64145291D01*
X64584389Y-63993626D01*
X64514585Y-63825104D01*
X64479000Y-63646203D01*
X64479000Y-63463797D01*
X64514585Y-63284896D01*
X64584389Y-63116374D01*
X64685728Y-62964709D01*
X64814709Y-62835728D01*
X64966374Y-62734389D01*
X65134896Y-62664585D01*
X65313797Y-62629000D01*
X65496203Y-62629000D01*
X65675104Y-62664585D01*
G37*
G36*
X115205104Y-62664585D02*
G01*
X115373626Y-62734389D01*
X115525291Y-62835728D01*
X115654272Y-62964709D01*
X115755611Y-63116374D01*
X115825415Y-63284896D01*
X115861000Y-63463797D01*
X115861000Y-63646203D01*
X115825415Y-63825104D01*
X115755611Y-63993626D01*
X115654272Y-64145291D01*
X115525291Y-64274272D01*
X115373626Y-64375611D01*
X115205104Y-64445415D01*
X115026203Y-64481000D01*
X114843797Y-64481000D01*
X114664896Y-64445415D01*
X114496374Y-64375611D01*
X114344709Y-64274272D01*
X114215728Y-64145291D01*
X114114389Y-63993626D01*
X114044585Y-63825104D01*
X114009000Y-63646203D01*
X114009000Y-63463797D01*
X114044585Y-63284896D01*
X114114389Y-63116374D01*
X114215728Y-62964709D01*
X114344709Y-62835728D01*
X114496374Y-62734389D01*
X114664896Y-62664585D01*
X114843797Y-62629000D01*
X115026203Y-62629000D01*
X115205104Y-62664585D01*
G37*
G36*
X159655104Y-62609585D02*
G01*
X159823626Y-62679389D01*
X159975291Y-62780728D01*
X160104272Y-62909709D01*
X160205611Y-63061374D01*
X160275415Y-63229896D01*
X160311000Y-63408797D01*
X160311000Y-63591203D01*
X160275415Y-63770104D01*
X160205611Y-63938626D01*
X160104272Y-64090291D01*
X159975291Y-64219272D01*
X159823626Y-64320611D01*
X159655104Y-64390415D01*
X159476203Y-64426000D01*
X159293797Y-64426000D01*
X159114896Y-64390415D01*
X158946374Y-64320611D01*
X158794709Y-64219272D01*
X158665728Y-64090291D01*
X158564389Y-63938626D01*
X158494585Y-63770104D01*
X158459000Y-63591203D01*
X158459000Y-63408797D01*
X158494585Y-63229896D01*
X158564389Y-63061374D01*
X158665728Y-62909709D01*
X158794709Y-62780728D01*
X158946374Y-62679389D01*
X159114896Y-62609585D01*
X159293797Y-62574000D01*
X159476203Y-62574000D01*
X159655104Y-62609585D01*
G37*
G36*
X110125104Y-62609585D02*
G01*
X110293626Y-62679389D01*
X110445291Y-62780728D01*
X110574272Y-62909709D01*
X110675611Y-63061374D01*
X110745415Y-63229896D01*
X110781000Y-63408797D01*
X110781000Y-63591203D01*
X110745415Y-63770104D01*
X110675611Y-63938626D01*
X110574272Y-64090291D01*
X110445291Y-64219272D01*
X110293626Y-64320611D01*
X110125104Y-64390415D01*
X109946203Y-64426000D01*
X109763797Y-64426000D01*
X109584896Y-64390415D01*
X109416374Y-64320611D01*
X109264709Y-64219272D01*
X109135728Y-64090291D01*
X109034389Y-63938626D01*
X108964585Y-63770104D01*
X108929000Y-63591203D01*
X108929000Y-63408797D01*
X108964585Y-63229896D01*
X109034389Y-63061374D01*
X109135728Y-62909709D01*
X109264709Y-62780728D01*
X109416374Y-62679389D01*
X109584896Y-62609585D01*
X109763797Y-62574000D01*
X109946203Y-62574000D01*
X110125104Y-62609585D01*
G37*
G36*
X65675104Y-58164585D02*
G01*
X65843626Y-58234389D01*
X65995291Y-58335728D01*
X66124272Y-58464709D01*
X66225611Y-58616374D01*
X66295415Y-58784896D01*
X66331000Y-58963797D01*
X66331000Y-59146203D01*
X66295415Y-59325104D01*
X66225611Y-59493626D01*
X66124272Y-59645291D01*
X65995291Y-59774272D01*
X65843626Y-59875611D01*
X65675104Y-59945415D01*
X65496203Y-59981000D01*
X65313797Y-59981000D01*
X65134896Y-59945415D01*
X64966374Y-59875611D01*
X64814709Y-59774272D01*
X64685728Y-59645291D01*
X64584389Y-59493626D01*
X64514585Y-59325104D01*
X64479000Y-59146203D01*
X64479000Y-58963797D01*
X64514585Y-58784896D01*
X64584389Y-58616374D01*
X64685728Y-58464709D01*
X64814709Y-58335728D01*
X64966374Y-58234389D01*
X65134896Y-58164585D01*
X65313797Y-58129000D01*
X65496203Y-58129000D01*
X65675104Y-58164585D01*
G37*
G36*
X115205104Y-58164585D02*
G01*
X115373626Y-58234389D01*
X115525291Y-58335728D01*
X115654272Y-58464709D01*
X115755611Y-58616374D01*
X115825415Y-58784896D01*
X115861000Y-58963797D01*
X115861000Y-59146203D01*
X115825415Y-59325104D01*
X115755611Y-59493626D01*
X115654272Y-59645291D01*
X115525291Y-59774272D01*
X115373626Y-59875611D01*
X115205104Y-59945415D01*
X115026203Y-59981000D01*
X114843797Y-59981000D01*
X114664896Y-59945415D01*
X114496374Y-59875611D01*
X114344709Y-59774272D01*
X114215728Y-59645291D01*
X114114389Y-59493626D01*
X114044585Y-59325104D01*
X114009000Y-59146203D01*
X114009000Y-58963797D01*
X114044585Y-58784896D01*
X114114389Y-58616374D01*
X114215728Y-58464709D01*
X114344709Y-58335728D01*
X114496374Y-58234389D01*
X114664896Y-58164585D01*
X114843797Y-58129000D01*
X115026203Y-58129000D01*
X115205104Y-58164585D01*
G37*
G36*
X110125104Y-58109585D02*
G01*
X110293626Y-58179389D01*
X110445291Y-58280728D01*
X110574272Y-58409709D01*
X110675611Y-58561374D01*
X110745415Y-58729896D01*
X110781000Y-58908797D01*
X110781000Y-59091203D01*
X110745415Y-59270104D01*
X110675611Y-59438626D01*
X110574272Y-59590291D01*
X110445291Y-59719272D01*
X110293626Y-59820611D01*
X110125104Y-59890415D01*
X109946203Y-59926000D01*
X109763797Y-59926000D01*
X109584896Y-59890415D01*
X109416374Y-59820611D01*
X109264709Y-59719272D01*
X109135728Y-59590291D01*
X109034389Y-59438626D01*
X108964585Y-59270104D01*
X108929000Y-59091203D01*
X108929000Y-58908797D01*
X108964585Y-58729896D01*
X109034389Y-58561374D01*
X109135728Y-58409709D01*
X109264709Y-58280728D01*
X109416374Y-58179389D01*
X109584896Y-58109585D01*
X109763797Y-58074000D01*
X109946203Y-58074000D01*
X110125104Y-58109585D01*
G37*
G36*
X159655104Y-58109585D02*
G01*
X159823626Y-58179389D01*
X159975291Y-58280728D01*
X160104272Y-58409709D01*
X160205611Y-58561374D01*
X160275415Y-58729896D01*
X160311000Y-58908797D01*
X160311000Y-59091203D01*
X160275415Y-59270104D01*
X160205611Y-59438626D01*
X160104272Y-59590291D01*
X159975291Y-59719272D01*
X159823626Y-59820611D01*
X159655104Y-59890415D01*
X159476203Y-59926000D01*
X159293797Y-59926000D01*
X159114896Y-59890415D01*
X158946374Y-59820611D01*
X158794709Y-59719272D01*
X158665728Y-59590291D01*
X158564389Y-59438626D01*
X158494585Y-59270104D01*
X158459000Y-59091203D01*
X158459000Y-58908797D01*
X158494585Y-58729896D01*
X158564389Y-58561374D01*
X158665728Y-58409709D01*
X158794709Y-58280728D01*
X158946374Y-58179389D01*
X159114896Y-58109585D01*
X159293797Y-58074000D01*
X159476203Y-58074000D01*
X159655104Y-58109585D01*
G37*
G36*
X68109794Y-56725155D02*
G01*
X68216150Y-56746311D01*
X68316334Y-56787809D01*
X68416520Y-56829307D01*
X68596844Y-56949795D01*
X68750205Y-57103156D01*
X68870693Y-57283480D01*
X68953689Y-57483851D01*
X68983071Y-57631560D01*
X68996000Y-57696561D01*
X68996000Y-57913439D01*
X68953689Y-58126150D01*
X68912191Y-58226334D01*
X68870693Y-58326520D01*
X68750205Y-58506844D01*
X68596844Y-58660205D01*
X68416520Y-58780693D01*
X68216150Y-58863689D01*
X68109794Y-58884845D01*
X68003440Y-58906000D01*
X67786560Y-58906000D01*
X67680206Y-58884845D01*
X67573850Y-58863689D01*
X67373480Y-58780693D01*
X67193156Y-58660205D01*
X67039795Y-58506844D01*
X66919307Y-58326520D01*
X66877809Y-58226334D01*
X66836311Y-58126150D01*
X66794000Y-57913439D01*
X66794000Y-57696561D01*
X66806930Y-57631560D01*
X66836311Y-57483851D01*
X66919307Y-57283480D01*
X67039795Y-57103156D01*
X67193156Y-56949795D01*
X67373480Y-56829307D01*
X67473666Y-56787809D01*
X67573850Y-56746311D01*
X67680206Y-56725155D01*
X67786560Y-56704000D01*
X68003440Y-56704000D01*
X68109794Y-56725155D01*
G37*
G36*
X117639794Y-56725155D02*
G01*
X117746150Y-56746311D01*
X117846334Y-56787809D01*
X117946520Y-56829307D01*
X118126844Y-56949795D01*
X118280205Y-57103156D01*
X118400693Y-57283480D01*
X118483689Y-57483851D01*
X118513071Y-57631560D01*
X118526000Y-57696561D01*
X118526000Y-57913439D01*
X118483689Y-58126150D01*
X118442191Y-58226334D01*
X118400693Y-58326520D01*
X118280205Y-58506844D01*
X118126844Y-58660205D01*
X117946520Y-58780693D01*
X117746150Y-58863689D01*
X117639794Y-58884845D01*
X117533440Y-58906000D01*
X117316560Y-58906000D01*
X117210206Y-58884845D01*
X117103850Y-58863689D01*
X116903480Y-58780693D01*
X116723156Y-58660205D01*
X116569795Y-58506844D01*
X116449307Y-58326520D01*
X116407809Y-58226334D01*
X116366311Y-58126150D01*
X116324000Y-57913439D01*
X116324000Y-57696561D01*
X116336930Y-57631560D01*
X116366311Y-57483851D01*
X116449307Y-57283480D01*
X116569795Y-57103156D01*
X116723156Y-56949795D01*
X116903480Y-56829307D01*
X117003666Y-56787809D01*
X117103850Y-56746311D01*
X117210206Y-56725155D01*
X117316560Y-56704000D01*
X117533440Y-56704000D01*
X117639794Y-56725155D01*
G37*
G36*
X107579795Y-56660156D02*
G01*
X107686150Y-56681311D01*
X107886520Y-56764307D01*
X108066844Y-56884795D01*
X108220205Y-57038156D01*
X108340693Y-57218480D01*
X108340693Y-57218481D01*
X108423689Y-57418850D01*
X108444844Y-57525205D01*
X108466000Y-57631560D01*
X108466000Y-57848440D01*
X108423689Y-58061149D01*
X108340693Y-58261520D01*
X108220205Y-58441844D01*
X108066844Y-58595205D01*
X107886520Y-58715693D01*
X107852228Y-58729897D01*
X107686150Y-58798689D01*
X107579794Y-58819845D01*
X107473440Y-58841000D01*
X107256560Y-58841000D01*
X107150206Y-58819845D01*
X107043850Y-58798689D01*
X106877772Y-58729897D01*
X106843480Y-58715693D01*
X106663156Y-58595205D01*
X106509795Y-58441844D01*
X106389307Y-58261520D01*
X106306311Y-58061149D01*
X106264000Y-57848440D01*
X106264000Y-57631560D01*
X106285156Y-57525205D01*
X106306311Y-57418850D01*
X106389307Y-57218481D01*
X106389307Y-57218480D01*
X106509795Y-57038156D01*
X106663156Y-56884795D01*
X106843480Y-56764307D01*
X107043850Y-56681311D01*
X107150205Y-56660156D01*
X107256560Y-56639000D01*
X107473440Y-56639000D01*
X107579795Y-56660156D01*
G37*
G36*
X157109795Y-56660156D02*
G01*
X157216150Y-56681311D01*
X157416520Y-56764307D01*
X157596844Y-56884795D01*
X157750205Y-57038156D01*
X157870693Y-57218480D01*
X157870693Y-57218481D01*
X157953689Y-57418850D01*
X157974844Y-57525205D01*
X157996000Y-57631560D01*
X157996000Y-57848440D01*
X157953689Y-58061149D01*
X157870693Y-58261520D01*
X157750205Y-58441844D01*
X157596844Y-58595205D01*
X157416520Y-58715693D01*
X157382228Y-58729897D01*
X157216150Y-58798689D01*
X157109794Y-58819845D01*
X157003440Y-58841000D01*
X156786560Y-58841000D01*
X156680206Y-58819845D01*
X156573850Y-58798689D01*
X156407772Y-58729897D01*
X156373480Y-58715693D01*
X156193156Y-58595205D01*
X156039795Y-58441844D01*
X155919307Y-58261520D01*
X155836311Y-58061149D01*
X155794000Y-57848440D01*
X155794000Y-57631560D01*
X155815156Y-57525205D01*
X155836311Y-57418850D01*
X155919307Y-57218481D01*
X155919307Y-57218480D01*
X156039795Y-57038156D01*
X156193156Y-56884795D01*
X156373480Y-56764307D01*
X156573850Y-56681311D01*
X156680205Y-56660156D01*
X156786560Y-56639000D01*
X157003440Y-56639000D01*
X157109795Y-56660156D01*
G37*
G36*
X73829795Y-54750156D02*
G01*
X73936150Y-54771311D01*
X74136520Y-54854307D01*
X74316844Y-54974795D01*
X74470205Y-55128156D01*
X74590693Y-55308480D01*
X74618491Y-55375590D01*
X74671886Y-55504496D01*
X74673689Y-55508851D01*
X74716000Y-55721560D01*
X74716000Y-55938440D01*
X74673689Y-56151149D01*
X74590693Y-56351520D01*
X74470205Y-56531844D01*
X74316844Y-56685205D01*
X74136520Y-56805693D01*
X74079510Y-56829307D01*
X73936150Y-56888689D01*
X73829795Y-56909844D01*
X73723440Y-56931000D01*
X73506560Y-56931000D01*
X73400205Y-56909844D01*
X73293850Y-56888689D01*
X73150490Y-56829307D01*
X73093480Y-56805693D01*
X72913156Y-56685205D01*
X72759795Y-56531844D01*
X72639307Y-56351520D01*
X72556311Y-56151149D01*
X72514000Y-55938440D01*
X72514000Y-55721560D01*
X72556311Y-55508851D01*
X72558115Y-55504496D01*
X72611509Y-55375590D01*
X72639307Y-55308480D01*
X72759795Y-55128156D01*
X72913156Y-54974795D01*
X73093480Y-54854307D01*
X73193666Y-54812809D01*
X73293850Y-54771311D01*
X73400205Y-54750156D01*
X73506560Y-54729000D01*
X73723440Y-54729000D01*
X73829795Y-54750156D01*
G37*
G36*
X80839795Y-54750156D02*
G01*
X80946150Y-54771311D01*
X81146520Y-54854307D01*
X81326844Y-54974795D01*
X81480205Y-55128156D01*
X81600693Y-55308480D01*
X81628491Y-55375590D01*
X81681886Y-55504496D01*
X81683689Y-55508851D01*
X81726000Y-55721560D01*
X81726000Y-55938440D01*
X81683689Y-56151149D01*
X81600693Y-56351520D01*
X81480205Y-56531844D01*
X81326844Y-56685205D01*
X81146520Y-56805693D01*
X81089510Y-56829307D01*
X80946150Y-56888689D01*
X80839795Y-56909844D01*
X80733440Y-56931000D01*
X80516560Y-56931000D01*
X80410205Y-56909844D01*
X80303850Y-56888689D01*
X80160490Y-56829307D01*
X80103480Y-56805693D01*
X79923156Y-56685205D01*
X79769795Y-56531844D01*
X79649307Y-56351520D01*
X79566311Y-56151149D01*
X79524000Y-55938440D01*
X79524000Y-55721560D01*
X79566311Y-55508851D01*
X79568115Y-55504496D01*
X79621509Y-55375590D01*
X79649307Y-55308480D01*
X79769795Y-55128156D01*
X79923156Y-54974795D01*
X80103480Y-54854307D01*
X80203666Y-54812809D01*
X80303850Y-54771311D01*
X80410205Y-54750156D01*
X80516560Y-54729000D01*
X80733440Y-54729000D01*
X80839795Y-54750156D01*
G37*
G36*
X130369795Y-54750156D02*
G01*
X130476150Y-54771311D01*
X130676520Y-54854307D01*
X130856844Y-54974795D01*
X131010205Y-55128156D01*
X131130693Y-55308480D01*
X131158491Y-55375590D01*
X131211886Y-55504496D01*
X131213689Y-55508851D01*
X131256000Y-55721560D01*
X131256000Y-55938440D01*
X131213689Y-56151149D01*
X131130693Y-56351520D01*
X131010205Y-56531844D01*
X130856844Y-56685205D01*
X130676520Y-56805693D01*
X130619510Y-56829307D01*
X130476150Y-56888689D01*
X130369795Y-56909844D01*
X130263440Y-56931000D01*
X130046560Y-56931000D01*
X129940205Y-56909844D01*
X129833850Y-56888689D01*
X129690490Y-56829307D01*
X129633480Y-56805693D01*
X129453156Y-56685205D01*
X129299795Y-56531844D01*
X129179307Y-56351520D01*
X129096311Y-56151149D01*
X129054000Y-55938440D01*
X129054000Y-55721560D01*
X129096311Y-55508851D01*
X129098115Y-55504496D01*
X129151509Y-55375590D01*
X129179307Y-55308480D01*
X129299795Y-55128156D01*
X129453156Y-54974795D01*
X129633480Y-54854307D01*
X129733666Y-54812809D01*
X129833850Y-54771311D01*
X129940205Y-54750156D01*
X130046560Y-54729000D01*
X130263440Y-54729000D01*
X130369795Y-54750156D01*
G37*
G36*
X123359795Y-54750156D02*
G01*
X123466150Y-54771311D01*
X123666520Y-54854307D01*
X123846844Y-54974795D01*
X124000205Y-55128156D01*
X124120693Y-55308480D01*
X124148491Y-55375590D01*
X124201886Y-55504496D01*
X124203689Y-55508851D01*
X124246000Y-55721560D01*
X124246000Y-55938440D01*
X124203689Y-56151149D01*
X124120693Y-56351520D01*
X124000205Y-56531844D01*
X123846844Y-56685205D01*
X123666520Y-56805693D01*
X123609510Y-56829307D01*
X123466150Y-56888689D01*
X123359795Y-56909844D01*
X123253440Y-56931000D01*
X123036560Y-56931000D01*
X122930205Y-56909844D01*
X122823850Y-56888689D01*
X122680490Y-56829307D01*
X122623480Y-56805693D01*
X122443156Y-56685205D01*
X122289795Y-56531844D01*
X122169307Y-56351520D01*
X122086311Y-56151149D01*
X122044000Y-55938440D01*
X122044000Y-55721560D01*
X122086311Y-55508851D01*
X122088115Y-55504496D01*
X122141509Y-55375590D01*
X122169307Y-55308480D01*
X122289795Y-55128156D01*
X122443156Y-54974795D01*
X122623480Y-54854307D01*
X122723666Y-54812809D01*
X122823850Y-54771311D01*
X122930205Y-54750156D01*
X123036560Y-54729000D01*
X123253440Y-54729000D01*
X123359795Y-54750156D01*
G37*
G36*
X115845880Y-51099776D02*
G01*
X116226593Y-51175504D01*
X116636249Y-51345189D01*
X117004929Y-51591534D01*
X117318466Y-51905071D01*
X117564811Y-52273751D01*
X117734496Y-52683407D01*
X117821000Y-53118296D01*
X117821000Y-53561704D01*
X117734496Y-53996593D01*
X117564811Y-54406249D01*
X117318466Y-54774929D01*
X117004929Y-55088466D01*
X116636249Y-55334811D01*
X116226593Y-55504496D01*
X115845880Y-55580224D01*
X115791705Y-55591000D01*
X115348295Y-55591000D01*
X115294120Y-55580224D01*
X114913407Y-55504496D01*
X114503751Y-55334811D01*
X114135071Y-55088466D01*
X113821534Y-54774929D01*
X113575189Y-54406249D01*
X113405504Y-53996593D01*
X113319000Y-53561704D01*
X113319000Y-53118296D01*
X113405504Y-52683407D01*
X113575189Y-52273751D01*
X113821534Y-51905071D01*
X114135071Y-51591534D01*
X114503751Y-51345189D01*
X114913407Y-51175504D01*
X115294120Y-51099776D01*
X115348295Y-51089000D01*
X115791705Y-51089000D01*
X115845880Y-51099776D01*
G37*
G36*
X159025880Y-51099776D02*
G01*
X159406593Y-51175504D01*
X159816249Y-51345189D01*
X160184929Y-51591534D01*
X160498466Y-51905071D01*
X160744811Y-52273751D01*
X160914496Y-52683407D01*
X161001000Y-53118296D01*
X161001000Y-53561704D01*
X160914496Y-53996593D01*
X160744811Y-54406249D01*
X160498466Y-54774929D01*
X160184929Y-55088466D01*
X159816249Y-55334811D01*
X159406593Y-55504496D01*
X159025880Y-55580224D01*
X158971705Y-55591000D01*
X158528295Y-55591000D01*
X158474120Y-55580224D01*
X158093407Y-55504496D01*
X157683751Y-55334811D01*
X157315071Y-55088466D01*
X157001534Y-54774929D01*
X156755189Y-54406249D01*
X156585504Y-53996593D01*
X156499000Y-53561704D01*
X156499000Y-53118296D01*
X156585504Y-52683407D01*
X156755189Y-52273751D01*
X157001534Y-51905071D01*
X157315071Y-51591534D01*
X157683751Y-51345189D01*
X158093407Y-51175504D01*
X158474120Y-51099776D01*
X158528295Y-51089000D01*
X158971705Y-51089000D01*
X159025880Y-51099776D01*
G37*
G36*
X109495880Y-51099776D02*
G01*
X109876593Y-51175504D01*
X110286249Y-51345189D01*
X110654929Y-51591534D01*
X110968466Y-51905071D01*
X111214811Y-52273751D01*
X111384496Y-52683407D01*
X111471000Y-53118296D01*
X111471000Y-53561704D01*
X111384496Y-53996593D01*
X111214811Y-54406249D01*
X110968466Y-54774929D01*
X110654929Y-55088466D01*
X110286249Y-55334811D01*
X109876593Y-55504496D01*
X109495880Y-55580224D01*
X109441705Y-55591000D01*
X108998295Y-55591000D01*
X108944120Y-55580224D01*
X108563407Y-55504496D01*
X108153751Y-55334811D01*
X107785071Y-55088466D01*
X107471534Y-54774929D01*
X107225189Y-54406249D01*
X107055504Y-53996593D01*
X106969000Y-53561704D01*
X106969000Y-53118296D01*
X107055504Y-52683407D01*
X107225189Y-52273751D01*
X107471534Y-51905071D01*
X107785071Y-51591534D01*
X108153751Y-51345189D01*
X108563407Y-51175504D01*
X108944120Y-51099776D01*
X108998295Y-51089000D01*
X109441705Y-51089000D01*
X109495880Y-51099776D01*
G37*
G36*
X66315880Y-51099776D02*
G01*
X66696593Y-51175504D01*
X67106249Y-51345189D01*
X67474929Y-51591534D01*
X67788466Y-51905071D01*
X68034811Y-52273751D01*
X68204496Y-52683407D01*
X68291000Y-53118296D01*
X68291000Y-53561704D01*
X68204496Y-53996593D01*
X68034811Y-54406249D01*
X67788466Y-54774929D01*
X67474929Y-55088466D01*
X67106249Y-55334811D01*
X66696593Y-55504496D01*
X66315880Y-55580224D01*
X66261705Y-55591000D01*
X65818295Y-55591000D01*
X65764120Y-55580224D01*
X65383407Y-55504496D01*
X64973751Y-55334811D01*
X64605071Y-55088466D01*
X64291534Y-54774929D01*
X64045189Y-54406249D01*
X63875504Y-53996593D01*
X63789000Y-53561704D01*
X63789000Y-53118296D01*
X63875504Y-52683407D01*
X64045189Y-52273751D01*
X64291534Y-51905071D01*
X64605071Y-51591534D01*
X64973751Y-51345189D01*
X65383407Y-51175504D01*
X65764120Y-51099776D01*
X65818295Y-51089000D01*
X66261705Y-51089000D01*
X66315880Y-51099776D01*
G37*
G36*
X129175104Y-52449585D02*
G01*
X129343626Y-52519389D01*
X129495291Y-52620728D01*
X129624272Y-52749709D01*
X129725611Y-52901374D01*
X129795415Y-53069896D01*
X129831000Y-53248797D01*
X129831000Y-53431203D01*
X129795415Y-53610104D01*
X129725611Y-53778626D01*
X129624272Y-53930291D01*
X129495291Y-54059272D01*
X129343626Y-54160611D01*
X129175104Y-54230415D01*
X128996203Y-54266000D01*
X128813797Y-54266000D01*
X128634896Y-54230415D01*
X128466374Y-54160611D01*
X128314709Y-54059272D01*
X128185728Y-53930291D01*
X128084389Y-53778626D01*
X128014585Y-53610104D01*
X127979000Y-53431203D01*
X127979000Y-53248797D01*
X128014585Y-53069896D01*
X128084389Y-52901374D01*
X128185728Y-52749709D01*
X128314709Y-52620728D01*
X128466374Y-52519389D01*
X128634896Y-52449585D01*
X128813797Y-52414000D01*
X128996203Y-52414000D01*
X129175104Y-52449585D01*
G37*
G36*
X124675104Y-52449585D02*
G01*
X124843626Y-52519389D01*
X124995291Y-52620728D01*
X125124272Y-52749709D01*
X125225611Y-52901374D01*
X125295415Y-53069896D01*
X125331000Y-53248797D01*
X125331000Y-53431203D01*
X125295415Y-53610104D01*
X125225611Y-53778626D01*
X125124272Y-53930291D01*
X124995291Y-54059272D01*
X124843626Y-54160611D01*
X124675104Y-54230415D01*
X124496203Y-54266000D01*
X124313797Y-54266000D01*
X124134896Y-54230415D01*
X123966374Y-54160611D01*
X123814709Y-54059272D01*
X123685728Y-53930291D01*
X123584389Y-53778626D01*
X123514585Y-53610104D01*
X123479000Y-53431203D01*
X123479000Y-53248797D01*
X123514585Y-53069896D01*
X123584389Y-52901374D01*
X123685728Y-52749709D01*
X123814709Y-52620728D01*
X123966374Y-52519389D01*
X124134896Y-52449585D01*
X124313797Y-52414000D01*
X124496203Y-52414000D01*
X124675104Y-52449585D01*
G37*
G36*
X75145104Y-52449585D02*
G01*
X75313626Y-52519389D01*
X75465291Y-52620728D01*
X75594272Y-52749709D01*
X75695611Y-52901374D01*
X75765415Y-53069896D01*
X75801000Y-53248797D01*
X75801000Y-53431203D01*
X75765415Y-53610104D01*
X75695611Y-53778626D01*
X75594272Y-53930291D01*
X75465291Y-54059272D01*
X75313626Y-54160611D01*
X75145104Y-54230415D01*
X74966203Y-54266000D01*
X74783797Y-54266000D01*
X74604896Y-54230415D01*
X74436374Y-54160611D01*
X74284709Y-54059272D01*
X74155728Y-53930291D01*
X74054389Y-53778626D01*
X73984585Y-53610104D01*
X73949000Y-53431203D01*
X73949000Y-53248797D01*
X73984585Y-53069896D01*
X74054389Y-52901374D01*
X74155728Y-52749709D01*
X74284709Y-52620728D01*
X74436374Y-52519389D01*
X74604896Y-52449585D01*
X74783797Y-52414000D01*
X74966203Y-52414000D01*
X75145104Y-52449585D01*
G37*
G36*
X79645104Y-52449585D02*
G01*
X79813626Y-52519389D01*
X79965291Y-52620728D01*
X80094272Y-52749709D01*
X80195611Y-52901374D01*
X80265415Y-53069896D01*
X80301000Y-53248797D01*
X80301000Y-53431203D01*
X80265415Y-53610104D01*
X80195611Y-53778626D01*
X80094272Y-53930291D01*
X79965291Y-54059272D01*
X79813626Y-54160611D01*
X79645104Y-54230415D01*
X79466203Y-54266000D01*
X79283797Y-54266000D01*
X79104896Y-54230415D01*
X78936374Y-54160611D01*
X78784709Y-54059272D01*
X78655728Y-53930291D01*
X78554389Y-53778626D01*
X78484585Y-53610104D01*
X78449000Y-53431203D01*
X78449000Y-53248797D01*
X78484585Y-53069896D01*
X78554389Y-52901374D01*
X78655728Y-52749709D01*
X78784709Y-52620728D01*
X78936374Y-52519389D01*
X79104896Y-52449585D01*
X79283797Y-52414000D01*
X79466203Y-52414000D01*
X79645104Y-52449585D01*
G37*
M02*
