%TF.GenerationSoftware,KiCad,Pcbnew,6.0.2+dfsg-1*%
%TF.CreationDate,2023-03-24T00:20:44+09:00*%
%TF.ProjectId,pcb-panel,7063622d-7061-46e6-956c-2e6b69636164,rev?*%
%TF.SameCoordinates,Original*%
%TF.FileFunction,Copper,L2,Bot*%
%TF.FilePolarity,Positive*%
%FSLAX46Y46*%
G04 Gerber Fmt 4.6, Leading zero omitted, Abs format (unit mm)*
G04 Created by KiCad (PCBNEW 6.0.2+dfsg-1) date 2023-03-24 00:20:44*
%MOMM*%
%LPD*%
G01*
G04 APERTURE LIST*
%TA.AperFunction,ComponentPad*%
%ADD10C,0.700000*%
%TD*%
%TA.AperFunction,ComponentPad*%
%ADD11C,4.400000*%
%TD*%
G04 APERTURE END LIST*
G36*
X90405842Y-74493948D02*
G01*
X90419720Y-74521983D01*
X90417645Y-74526009D01*
X90391670Y-74560435D01*
X90354911Y-74605883D01*
X90337884Y-74626935D01*
X90334076Y-74631540D01*
X90258723Y-74722668D01*
X90156621Y-74844795D01*
X90034013Y-74990475D01*
X89893335Y-75156867D01*
X89737022Y-75341131D01*
X89567508Y-75540427D01*
X89387229Y-75751915D01*
X89198621Y-75972754D01*
X89004117Y-76200104D01*
X88806154Y-76431124D01*
X88607167Y-76662975D01*
X88409590Y-76892816D01*
X88215858Y-77117806D01*
X88028407Y-77335106D01*
X87849672Y-77541874D01*
X87682088Y-77735271D01*
X87528090Y-77912456D01*
X87390114Y-78070590D01*
X87270593Y-78206830D01*
X87171965Y-78318339D01*
X87096662Y-78402274D01*
X87047122Y-78455795D01*
X86999924Y-78502417D01*
X86951805Y-78536643D01*
X86912946Y-78539641D01*
X86872032Y-78515252D01*
X86857132Y-78499011D01*
X86813427Y-78447988D01*
X86743674Y-78365125D01*
X86650113Y-78253125D01*
X86534984Y-78114687D01*
X86400526Y-77952515D01*
X86248979Y-77769309D01*
X86082581Y-77567772D01*
X85903573Y-77350605D01*
X85714193Y-77120509D01*
X85516682Y-76880187D01*
X85404435Y-76743513D01*
X85198668Y-76492972D01*
X84996353Y-76246636D01*
X84800459Y-76008123D01*
X84613957Y-75781050D01*
X84439819Y-75569033D01*
X84281014Y-75375690D01*
X84140515Y-75204637D01*
X84021291Y-75059492D01*
X83926313Y-74943871D01*
X83858552Y-74861391D01*
X83745799Y-74722046D01*
X83651105Y-74600269D01*
X83622730Y-74561367D01*
X83900735Y-74561367D01*
X85259287Y-76214269D01*
X85333832Y-76304965D01*
X85562479Y-76583135D01*
X85763277Y-76827381D01*
X85938032Y-77039877D01*
X86088551Y-77222795D01*
X86216637Y-77378308D01*
X86324098Y-77508589D01*
X86412739Y-77615811D01*
X86484366Y-77702146D01*
X86540784Y-77769767D01*
X86583798Y-77820848D01*
X86615215Y-77857561D01*
X86636841Y-77882079D01*
X86650480Y-77896575D01*
X86657939Y-77903221D01*
X86661023Y-77904191D01*
X86661538Y-77901657D01*
X86656426Y-77882837D01*
X86638989Y-77821663D01*
X86610194Y-77721641D01*
X86571089Y-77586393D01*
X86522728Y-77419542D01*
X86466160Y-77224711D01*
X86402437Y-77005524D01*
X86332611Y-76765603D01*
X86257732Y-76508571D01*
X86178852Y-76238052D01*
X85701074Y-74600247D01*
X85935371Y-74600247D01*
X85943237Y-74626353D01*
X85963390Y-74694747D01*
X85994713Y-74801635D01*
X86036143Y-74943371D01*
X86086617Y-75116305D01*
X86145069Y-75316791D01*
X86210436Y-75541181D01*
X86281654Y-75785826D01*
X86357658Y-76047079D01*
X86437386Y-76321292D01*
X86515749Y-76590656D01*
X86591579Y-76850840D01*
X86662577Y-77093975D01*
X86727691Y-77316481D01*
X86785869Y-77514779D01*
X86836059Y-77685290D01*
X86877210Y-77824434D01*
X86900229Y-77901657D01*
X86908270Y-77928632D01*
X86928188Y-77994305D01*
X86935910Y-78017873D01*
X86939159Y-78013558D01*
X86954808Y-77974667D01*
X86974844Y-77918019D01*
X87216862Y-77918019D01*
X87219763Y-77915368D01*
X87247587Y-77884801D01*
X87302699Y-77822509D01*
X87382441Y-77731568D01*
X87484158Y-77615053D01*
X87605190Y-77476037D01*
X87742881Y-77317597D01*
X87894572Y-77142806D01*
X88057607Y-76954740D01*
X88229329Y-76756473D01*
X88407079Y-76551080D01*
X88588200Y-76341635D01*
X88770034Y-76131215D01*
X88949925Y-75922893D01*
X89125215Y-75719744D01*
X89293246Y-75524843D01*
X89451361Y-75341265D01*
X89596902Y-75172085D01*
X89727212Y-75020377D01*
X89839634Y-74889216D01*
X89931509Y-74781677D01*
X90000181Y-74700835D01*
X90042992Y-74649764D01*
X90057285Y-74631540D01*
X90056911Y-74631408D01*
X90028153Y-74629883D01*
X89957605Y-74628061D01*
X89850524Y-74626027D01*
X89712166Y-74623862D01*
X89547786Y-74621649D01*
X89362640Y-74619472D01*
X89161985Y-74617414D01*
X88272883Y-74608932D01*
X87742835Y-76261724D01*
X87662930Y-76511070D01*
X87580761Y-76767886D01*
X87504107Y-77007881D01*
X87434098Y-77227499D01*
X87371864Y-77423181D01*
X87318534Y-77591368D01*
X87275239Y-77728504D01*
X87243109Y-77831030D01*
X87223274Y-77895387D01*
X87216862Y-77918019D01*
X86974844Y-77918019D01*
X86980559Y-77901860D01*
X87013766Y-77802741D01*
X87051781Y-77684915D01*
X87071786Y-77622019D01*
X87109221Y-77504695D01*
X87158185Y-77351510D01*
X87216978Y-77167773D01*
X87283900Y-76958791D01*
X87357252Y-76729875D01*
X87435331Y-76486334D01*
X87516439Y-76233475D01*
X87598875Y-75976609D01*
X87601063Y-75969792D01*
X87679291Y-75725827D01*
X87752876Y-75495836D01*
X87820575Y-75283734D01*
X87881149Y-75093432D01*
X87933355Y-74928843D01*
X87975952Y-74793881D01*
X88007700Y-74692459D01*
X88027357Y-74628488D01*
X88033682Y-74605883D01*
X88020772Y-74605165D01*
X87965346Y-74603596D01*
X87870668Y-74601439D01*
X87741549Y-74598789D01*
X87582799Y-74595739D01*
X87399226Y-74592384D01*
X87195643Y-74588820D01*
X86976858Y-74585139D01*
X86837981Y-74582898D01*
X86605657Y-74579481D01*
X86415147Y-74577272D01*
X86262676Y-74576326D01*
X86144471Y-74576699D01*
X86056759Y-74578444D01*
X85995767Y-74581616D01*
X85957720Y-74586271D01*
X85938846Y-74592463D01*
X85935371Y-74600247D01*
X85701074Y-74600247D01*
X85696670Y-74585149D01*
X85448035Y-74567131D01*
X85376331Y-74563273D01*
X85252138Y-74559328D01*
X85097787Y-74556425D01*
X84922907Y-74554691D01*
X84737125Y-74554253D01*
X84550068Y-74555240D01*
X83900735Y-74561367D01*
X83622730Y-74561367D01*
X83582073Y-74505626D01*
X83540722Y-74440890D01*
X83529070Y-74408831D01*
X83539026Y-74392124D01*
X83576000Y-74340310D01*
X83581697Y-74332685D01*
X86033017Y-74332685D01*
X86037261Y-74333717D01*
X86079267Y-74336799D01*
X86161846Y-74340224D01*
X86279902Y-74343860D01*
X86428341Y-74347576D01*
X86602069Y-74351240D01*
X86795990Y-74354719D01*
X87005010Y-74357881D01*
X87965031Y-74371104D01*
X87964916Y-74370942D01*
X88403301Y-74370942D01*
X88405493Y-74371104D01*
X88422950Y-74372394D01*
X88485223Y-74374634D01*
X88584807Y-74377393D01*
X88716281Y-74380544D01*
X88874223Y-74383957D01*
X89053211Y-74387503D01*
X89247823Y-74391053D01*
X90085570Y-74405703D01*
X89666251Y-73841400D01*
X89644721Y-73812429D01*
X89535138Y-73665065D01*
X89432073Y-73526612D01*
X89339891Y-73402926D01*
X89262961Y-73299864D01*
X89205649Y-73223281D01*
X89172322Y-73179035D01*
X89097710Y-73080972D01*
X88747118Y-73723227D01*
X88707903Y-73795179D01*
X88624631Y-73948754D01*
X88550762Y-74086063D01*
X88488995Y-74202022D01*
X88442030Y-74291544D01*
X88412565Y-74349546D01*
X88403301Y-74370942D01*
X87964916Y-74370942D01*
X87854595Y-74215594D01*
X87661382Y-73944100D01*
X87490768Y-73705573D01*
X87344263Y-73502123D01*
X87222360Y-73334423D01*
X87125552Y-73203145D01*
X87054330Y-73108963D01*
X87009188Y-73052551D01*
X86990618Y-73034581D01*
X86989532Y-73035183D01*
X86967048Y-73059912D01*
X86921639Y-73116612D01*
X86857273Y-73199903D01*
X86777919Y-73304407D01*
X86687544Y-73424744D01*
X86590117Y-73555535D01*
X86489606Y-73691400D01*
X86389980Y-73826961D01*
X86295206Y-73956838D01*
X86209253Y-74075651D01*
X86136089Y-74178022D01*
X86079683Y-74258571D01*
X86044003Y-74311918D01*
X86041901Y-74315891D01*
X86033017Y-74332685D01*
X83581697Y-74332685D01*
X83606299Y-74299756D01*
X83881015Y-74299756D01*
X84361837Y-74314315D01*
X84618597Y-74321481D01*
X84860524Y-74326928D01*
X85072975Y-74330300D01*
X85252944Y-74331593D01*
X85397424Y-74330802D01*
X85503408Y-74327924D01*
X85567886Y-74322955D01*
X85587853Y-74315891D01*
X85566738Y-74271319D01*
X85527423Y-74195493D01*
X85473396Y-74094676D01*
X85408069Y-73974936D01*
X85334852Y-73842339D01*
X85257155Y-73702951D01*
X85178390Y-73562840D01*
X85101966Y-73428071D01*
X85031295Y-73304711D01*
X84969786Y-73198828D01*
X84920850Y-73116487D01*
X84887898Y-73063755D01*
X84874341Y-73046699D01*
X84865333Y-73057491D01*
X84829586Y-73101870D01*
X84770331Y-73176089D01*
X84691143Y-73275648D01*
X84595598Y-73396052D01*
X84487270Y-73532803D01*
X84369735Y-73681404D01*
X83881015Y-74299756D01*
X83606299Y-74299756D01*
X83637312Y-74258247D01*
X83719930Y-74149875D01*
X83820825Y-74019139D01*
X83936967Y-73869980D01*
X84065325Y-73706341D01*
X84202869Y-73532164D01*
X84683149Y-72925952D01*
X85092379Y-72925952D01*
X85094490Y-72930720D01*
X85114528Y-72969323D01*
X85153486Y-73042285D01*
X85208596Y-73144483D01*
X85277092Y-73270796D01*
X85356207Y-73416104D01*
X85443175Y-73575284D01*
X85481801Y-73645725D01*
X85566430Y-73799020D01*
X85642709Y-73935782D01*
X85707769Y-74050957D01*
X85758744Y-74139490D01*
X85792765Y-74196327D01*
X85806964Y-74216413D01*
X85807368Y-74216277D01*
X85826381Y-74195091D01*
X85868934Y-74141568D01*
X85931006Y-74061114D01*
X86008581Y-73959134D01*
X86097638Y-73841032D01*
X86194158Y-73712213D01*
X86294123Y-73578082D01*
X86393515Y-73444044D01*
X86488314Y-73315504D01*
X86574500Y-73197866D01*
X86648057Y-73096536D01*
X86704964Y-73016919D01*
X86738785Y-72967921D01*
X87233798Y-72967921D01*
X87695552Y-73609547D01*
X87772089Y-73715615D01*
X87877624Y-73860890D01*
X87972430Y-73990252D01*
X88053122Y-74099142D01*
X88116316Y-74183003D01*
X88158626Y-74237277D01*
X88176668Y-74257408D01*
X88180552Y-74254623D01*
X88204665Y-74220440D01*
X88247178Y-74151434D01*
X88305168Y-74052630D01*
X88375715Y-73929052D01*
X88455897Y-73785725D01*
X88542793Y-73627673D01*
X88889555Y-72991704D01*
X88685489Y-72973689D01*
X88630462Y-72970130D01*
X88520557Y-72966073D01*
X88379082Y-72963079D01*
X88215274Y-72961280D01*
X88038371Y-72960809D01*
X87857611Y-72961797D01*
X87233798Y-72967921D01*
X86738785Y-72967921D01*
X86741203Y-72964418D01*
X86752755Y-72944440D01*
X86747596Y-72943544D01*
X86704689Y-72941296D01*
X86623906Y-72938907D01*
X86511819Y-72936452D01*
X86375001Y-72934002D01*
X86220023Y-72931632D01*
X86053457Y-72929415D01*
X85881874Y-72927424D01*
X85711847Y-72925731D01*
X85549948Y-72924411D01*
X85402748Y-72923536D01*
X85276819Y-72923179D01*
X85178733Y-72923414D01*
X85115063Y-72924314D01*
X85092379Y-72925952D01*
X84683149Y-72925952D01*
X84866442Y-72694599D01*
X85270749Y-72694231D01*
X85331473Y-72694281D01*
X85481356Y-72694992D01*
X85661077Y-72696461D01*
X85866335Y-72698609D01*
X86092830Y-72701361D01*
X86336263Y-72704639D01*
X86592334Y-72708367D01*
X86856742Y-72712468D01*
X87125188Y-72716866D01*
X87393372Y-72721482D01*
X87656993Y-72726242D01*
X87911753Y-72731068D01*
X88153351Y-72735882D01*
X88377486Y-72740610D01*
X88579860Y-72745173D01*
X88756172Y-72749495D01*
X88902122Y-72753500D01*
X89013410Y-72757110D01*
X89085737Y-72760249D01*
X89114803Y-72762840D01*
X89115972Y-72763426D01*
X89142079Y-72789417D01*
X89191968Y-72848703D01*
X89262124Y-72936547D01*
X89268267Y-72944440D01*
X89305053Y-72991704D01*
X89349034Y-73048212D01*
X89449184Y-73178961D01*
X89559060Y-73324057D01*
X89675149Y-73478763D01*
X89793936Y-73638343D01*
X89911907Y-73798059D01*
X90025550Y-73953174D01*
X90131350Y-74098952D01*
X90225793Y-74230655D01*
X90305365Y-74343547D01*
X90347934Y-74405703D01*
X90366553Y-74432890D01*
X90405842Y-74493948D01*
G37*
G36*
X140316842Y-74493948D02*
G01*
X140330720Y-74521983D01*
X140328645Y-74526009D01*
X140302670Y-74560435D01*
X140265911Y-74605883D01*
X140248884Y-74626935D01*
X140245076Y-74631540D01*
X140169723Y-74722668D01*
X140067621Y-74844795D01*
X139945013Y-74990475D01*
X139804335Y-75156867D01*
X139648022Y-75341131D01*
X139478508Y-75540427D01*
X139298229Y-75751915D01*
X139109621Y-75972754D01*
X138915117Y-76200104D01*
X138717154Y-76431124D01*
X138518167Y-76662975D01*
X138320590Y-76892816D01*
X138126858Y-77117806D01*
X137939407Y-77335106D01*
X137760672Y-77541874D01*
X137593088Y-77735271D01*
X137439090Y-77912456D01*
X137301114Y-78070590D01*
X137181593Y-78206830D01*
X137082965Y-78318339D01*
X137007662Y-78402274D01*
X136958122Y-78455795D01*
X136910924Y-78502417D01*
X136862805Y-78536643D01*
X136823946Y-78539641D01*
X136783032Y-78515252D01*
X136768132Y-78499011D01*
X136724427Y-78447988D01*
X136654674Y-78365125D01*
X136561113Y-78253125D01*
X136445984Y-78114687D01*
X136311526Y-77952515D01*
X136159979Y-77769309D01*
X135993581Y-77567772D01*
X135814573Y-77350605D01*
X135625193Y-77120509D01*
X135427682Y-76880187D01*
X135315435Y-76743513D01*
X135109668Y-76492972D01*
X134907353Y-76246636D01*
X134711459Y-76008123D01*
X134524957Y-75781050D01*
X134350819Y-75569033D01*
X134192014Y-75375690D01*
X134051515Y-75204637D01*
X133932291Y-75059492D01*
X133837313Y-74943871D01*
X133769552Y-74861391D01*
X133656799Y-74722046D01*
X133562105Y-74600269D01*
X133533730Y-74561367D01*
X133811735Y-74561367D01*
X135170287Y-76214269D01*
X135244832Y-76304965D01*
X135473479Y-76583135D01*
X135674277Y-76827381D01*
X135849032Y-77039877D01*
X135999551Y-77222795D01*
X136127637Y-77378308D01*
X136235098Y-77508589D01*
X136323739Y-77615811D01*
X136395366Y-77702146D01*
X136451784Y-77769767D01*
X136494798Y-77820848D01*
X136526215Y-77857561D01*
X136547841Y-77882079D01*
X136561480Y-77896575D01*
X136568939Y-77903221D01*
X136572023Y-77904191D01*
X136572538Y-77901657D01*
X136567426Y-77882837D01*
X136549989Y-77821663D01*
X136521194Y-77721641D01*
X136482089Y-77586393D01*
X136433728Y-77419542D01*
X136377160Y-77224711D01*
X136313437Y-77005524D01*
X136243611Y-76765603D01*
X136168732Y-76508571D01*
X136089852Y-76238052D01*
X135612074Y-74600247D01*
X135846371Y-74600247D01*
X135854237Y-74626353D01*
X135874390Y-74694747D01*
X135905713Y-74801635D01*
X135947143Y-74943371D01*
X135997617Y-75116305D01*
X136056069Y-75316791D01*
X136121436Y-75541181D01*
X136192654Y-75785826D01*
X136268658Y-76047079D01*
X136348386Y-76321292D01*
X136426749Y-76590656D01*
X136502579Y-76850840D01*
X136573577Y-77093975D01*
X136638691Y-77316481D01*
X136696869Y-77514779D01*
X136747059Y-77685290D01*
X136788210Y-77824434D01*
X136811229Y-77901657D01*
X136819270Y-77928632D01*
X136839188Y-77994305D01*
X136846910Y-78017873D01*
X136850159Y-78013558D01*
X136865808Y-77974667D01*
X136885844Y-77918019D01*
X137127862Y-77918019D01*
X137130763Y-77915368D01*
X137158587Y-77884801D01*
X137213699Y-77822509D01*
X137293441Y-77731568D01*
X137395158Y-77615053D01*
X137516190Y-77476037D01*
X137653881Y-77317597D01*
X137805572Y-77142806D01*
X137968607Y-76954740D01*
X138140329Y-76756473D01*
X138318079Y-76551080D01*
X138499200Y-76341635D01*
X138681034Y-76131215D01*
X138860925Y-75922893D01*
X139036215Y-75719744D01*
X139204246Y-75524843D01*
X139362361Y-75341265D01*
X139507902Y-75172085D01*
X139638212Y-75020377D01*
X139750634Y-74889216D01*
X139842509Y-74781677D01*
X139911181Y-74700835D01*
X139953992Y-74649764D01*
X139968285Y-74631540D01*
X139967911Y-74631408D01*
X139939153Y-74629883D01*
X139868605Y-74628061D01*
X139761524Y-74626027D01*
X139623166Y-74623862D01*
X139458786Y-74621649D01*
X139273640Y-74619472D01*
X139072985Y-74617414D01*
X138183883Y-74608932D01*
X137653835Y-76261724D01*
X137573930Y-76511070D01*
X137491761Y-76767886D01*
X137415107Y-77007881D01*
X137345098Y-77227499D01*
X137282864Y-77423181D01*
X137229534Y-77591368D01*
X137186239Y-77728504D01*
X137154109Y-77831030D01*
X137134274Y-77895387D01*
X137127862Y-77918019D01*
X136885844Y-77918019D01*
X136891559Y-77901860D01*
X136924766Y-77802741D01*
X136962781Y-77684915D01*
X136982786Y-77622019D01*
X137020221Y-77504695D01*
X137069185Y-77351510D01*
X137127978Y-77167773D01*
X137194900Y-76958791D01*
X137268252Y-76729875D01*
X137346331Y-76486334D01*
X137427439Y-76233475D01*
X137509875Y-75976609D01*
X137512063Y-75969792D01*
X137590291Y-75725827D01*
X137663876Y-75495836D01*
X137731575Y-75283734D01*
X137792149Y-75093432D01*
X137844355Y-74928843D01*
X137886952Y-74793881D01*
X137918700Y-74692459D01*
X137938357Y-74628488D01*
X137944682Y-74605883D01*
X137931772Y-74605165D01*
X137876346Y-74603596D01*
X137781668Y-74601439D01*
X137652549Y-74598789D01*
X137493799Y-74595739D01*
X137310226Y-74592384D01*
X137106643Y-74588820D01*
X136887858Y-74585139D01*
X136748981Y-74582898D01*
X136516657Y-74579481D01*
X136326147Y-74577272D01*
X136173676Y-74576326D01*
X136055471Y-74576699D01*
X135967759Y-74578444D01*
X135906767Y-74581616D01*
X135868720Y-74586271D01*
X135849846Y-74592463D01*
X135846371Y-74600247D01*
X135612074Y-74600247D01*
X135607670Y-74585149D01*
X135359035Y-74567131D01*
X135287331Y-74563273D01*
X135163138Y-74559328D01*
X135008787Y-74556425D01*
X134833907Y-74554691D01*
X134648125Y-74554253D01*
X134461068Y-74555240D01*
X133811735Y-74561367D01*
X133533730Y-74561367D01*
X133493073Y-74505626D01*
X133451722Y-74440890D01*
X133440070Y-74408831D01*
X133450026Y-74392124D01*
X133487000Y-74340310D01*
X133492697Y-74332685D01*
X135944017Y-74332685D01*
X135948261Y-74333717D01*
X135990267Y-74336799D01*
X136072846Y-74340224D01*
X136190902Y-74343860D01*
X136339341Y-74347576D01*
X136513069Y-74351240D01*
X136706990Y-74354719D01*
X136916010Y-74357881D01*
X137876031Y-74371104D01*
X137875916Y-74370942D01*
X138314301Y-74370942D01*
X138316493Y-74371104D01*
X138333950Y-74372394D01*
X138396223Y-74374634D01*
X138495807Y-74377393D01*
X138627281Y-74380544D01*
X138785223Y-74383957D01*
X138964211Y-74387503D01*
X139158823Y-74391053D01*
X139996570Y-74405703D01*
X139577251Y-73841400D01*
X139555721Y-73812429D01*
X139446138Y-73665065D01*
X139343073Y-73526612D01*
X139250891Y-73402926D01*
X139173961Y-73299864D01*
X139116649Y-73223281D01*
X139083322Y-73179035D01*
X139008710Y-73080972D01*
X138658118Y-73723227D01*
X138618903Y-73795179D01*
X138535631Y-73948754D01*
X138461762Y-74086063D01*
X138399995Y-74202022D01*
X138353030Y-74291544D01*
X138323565Y-74349546D01*
X138314301Y-74370942D01*
X137875916Y-74370942D01*
X137765595Y-74215594D01*
X137572382Y-73944100D01*
X137401768Y-73705573D01*
X137255263Y-73502123D01*
X137133360Y-73334423D01*
X137036552Y-73203145D01*
X136965330Y-73108963D01*
X136920188Y-73052551D01*
X136901618Y-73034581D01*
X136900532Y-73035183D01*
X136878048Y-73059912D01*
X136832639Y-73116612D01*
X136768273Y-73199903D01*
X136688919Y-73304407D01*
X136598544Y-73424744D01*
X136501117Y-73555535D01*
X136400606Y-73691400D01*
X136300980Y-73826961D01*
X136206206Y-73956838D01*
X136120253Y-74075651D01*
X136047089Y-74178022D01*
X135990683Y-74258571D01*
X135955003Y-74311918D01*
X135952901Y-74315891D01*
X135944017Y-74332685D01*
X133492697Y-74332685D01*
X133517299Y-74299756D01*
X133792015Y-74299756D01*
X134272837Y-74314315D01*
X134529597Y-74321481D01*
X134771524Y-74326928D01*
X134983975Y-74330300D01*
X135163944Y-74331593D01*
X135308424Y-74330802D01*
X135414408Y-74327924D01*
X135478886Y-74322955D01*
X135498853Y-74315891D01*
X135477738Y-74271319D01*
X135438423Y-74195493D01*
X135384396Y-74094676D01*
X135319069Y-73974936D01*
X135245852Y-73842339D01*
X135168155Y-73702951D01*
X135089390Y-73562840D01*
X135012966Y-73428071D01*
X134942295Y-73304711D01*
X134880786Y-73198828D01*
X134831850Y-73116487D01*
X134798898Y-73063755D01*
X134785341Y-73046699D01*
X134776333Y-73057491D01*
X134740586Y-73101870D01*
X134681331Y-73176089D01*
X134602143Y-73275648D01*
X134506598Y-73396052D01*
X134398270Y-73532803D01*
X134280735Y-73681404D01*
X133792015Y-74299756D01*
X133517299Y-74299756D01*
X133548312Y-74258247D01*
X133630930Y-74149875D01*
X133731825Y-74019139D01*
X133847967Y-73869980D01*
X133976325Y-73706341D01*
X134113869Y-73532164D01*
X134594149Y-72925952D01*
X135003379Y-72925952D01*
X135005490Y-72930720D01*
X135025528Y-72969323D01*
X135064486Y-73042285D01*
X135119596Y-73144483D01*
X135188092Y-73270796D01*
X135267207Y-73416104D01*
X135354175Y-73575284D01*
X135392801Y-73645725D01*
X135477430Y-73799020D01*
X135553709Y-73935782D01*
X135618769Y-74050957D01*
X135669744Y-74139490D01*
X135703765Y-74196327D01*
X135717964Y-74216413D01*
X135718368Y-74216277D01*
X135737381Y-74195091D01*
X135779934Y-74141568D01*
X135842006Y-74061114D01*
X135919581Y-73959134D01*
X136008638Y-73841032D01*
X136105158Y-73712213D01*
X136205123Y-73578082D01*
X136304515Y-73444044D01*
X136399314Y-73315504D01*
X136485500Y-73197866D01*
X136559057Y-73096536D01*
X136615964Y-73016919D01*
X136649785Y-72967921D01*
X137144798Y-72967921D01*
X137606552Y-73609547D01*
X137683089Y-73715615D01*
X137788624Y-73860890D01*
X137883430Y-73990252D01*
X137964122Y-74099142D01*
X138027316Y-74183003D01*
X138069626Y-74237277D01*
X138087668Y-74257408D01*
X138091552Y-74254623D01*
X138115665Y-74220440D01*
X138158178Y-74151434D01*
X138216168Y-74052630D01*
X138286715Y-73929052D01*
X138366897Y-73785725D01*
X138453793Y-73627673D01*
X138800555Y-72991704D01*
X138596489Y-72973689D01*
X138541462Y-72970130D01*
X138431557Y-72966073D01*
X138290082Y-72963079D01*
X138126274Y-72961280D01*
X137949371Y-72960809D01*
X137768611Y-72961797D01*
X137144798Y-72967921D01*
X136649785Y-72967921D01*
X136652203Y-72964418D01*
X136663755Y-72944440D01*
X136658596Y-72943544D01*
X136615689Y-72941296D01*
X136534906Y-72938907D01*
X136422819Y-72936452D01*
X136286001Y-72934002D01*
X136131023Y-72931632D01*
X135964457Y-72929415D01*
X135792874Y-72927424D01*
X135622847Y-72925731D01*
X135460948Y-72924411D01*
X135313748Y-72923536D01*
X135187819Y-72923179D01*
X135089733Y-72923414D01*
X135026063Y-72924314D01*
X135003379Y-72925952D01*
X134594149Y-72925952D01*
X134777442Y-72694599D01*
X135181749Y-72694231D01*
X135242473Y-72694281D01*
X135392356Y-72694992D01*
X135572077Y-72696461D01*
X135777335Y-72698609D01*
X136003830Y-72701361D01*
X136247263Y-72704639D01*
X136503334Y-72708367D01*
X136767742Y-72712468D01*
X137036188Y-72716866D01*
X137304372Y-72721482D01*
X137567993Y-72726242D01*
X137822753Y-72731068D01*
X138064351Y-72735882D01*
X138288486Y-72740610D01*
X138490860Y-72745173D01*
X138667172Y-72749495D01*
X138813122Y-72753500D01*
X138924410Y-72757110D01*
X138996737Y-72760249D01*
X139025803Y-72762840D01*
X139026972Y-72763426D01*
X139053079Y-72789417D01*
X139102968Y-72848703D01*
X139173124Y-72936547D01*
X139179267Y-72944440D01*
X139216053Y-72991704D01*
X139260034Y-73048212D01*
X139360184Y-73178961D01*
X139470060Y-73324057D01*
X139586149Y-73478763D01*
X139704936Y-73638343D01*
X139822907Y-73798059D01*
X139936550Y-73953174D01*
X140042350Y-74098952D01*
X140136793Y-74230655D01*
X140216365Y-74343547D01*
X140258934Y-74405703D01*
X140277553Y-74432890D01*
X140316842Y-74493948D01*
G37*
G36*
X90405842Y-119578948D02*
G01*
X90419720Y-119606983D01*
X90417645Y-119611009D01*
X90391670Y-119645435D01*
X90354911Y-119690883D01*
X90337884Y-119711935D01*
X90334076Y-119716540D01*
X90258723Y-119807668D01*
X90156621Y-119929795D01*
X90034013Y-120075475D01*
X89893335Y-120241867D01*
X89737022Y-120426131D01*
X89567508Y-120625427D01*
X89387229Y-120836915D01*
X89198621Y-121057754D01*
X89004117Y-121285104D01*
X88806154Y-121516124D01*
X88607167Y-121747975D01*
X88409590Y-121977816D01*
X88215858Y-122202806D01*
X88028407Y-122420106D01*
X87849672Y-122626874D01*
X87682088Y-122820271D01*
X87528090Y-122997456D01*
X87390114Y-123155590D01*
X87270593Y-123291830D01*
X87171965Y-123403339D01*
X87096662Y-123487274D01*
X87047122Y-123540795D01*
X86999924Y-123587417D01*
X86951805Y-123621643D01*
X86912946Y-123624641D01*
X86872032Y-123600252D01*
X86857132Y-123584011D01*
X86813427Y-123532988D01*
X86743674Y-123450125D01*
X86650113Y-123338125D01*
X86534984Y-123199687D01*
X86400526Y-123037515D01*
X86248979Y-122854309D01*
X86082581Y-122652772D01*
X85903573Y-122435605D01*
X85714193Y-122205509D01*
X85516682Y-121965187D01*
X85404435Y-121828513D01*
X85198668Y-121577972D01*
X84996353Y-121331636D01*
X84800459Y-121093123D01*
X84613957Y-120866050D01*
X84439819Y-120654033D01*
X84281014Y-120460690D01*
X84140515Y-120289637D01*
X84021291Y-120144492D01*
X83926313Y-120028871D01*
X83858552Y-119946391D01*
X83745799Y-119807046D01*
X83651105Y-119685269D01*
X83622730Y-119646367D01*
X83900735Y-119646367D01*
X85259287Y-121299269D01*
X85333832Y-121389965D01*
X85562479Y-121668135D01*
X85763277Y-121912381D01*
X85938032Y-122124877D01*
X86088551Y-122307795D01*
X86216637Y-122463308D01*
X86324098Y-122593589D01*
X86412739Y-122700811D01*
X86484366Y-122787146D01*
X86540784Y-122854767D01*
X86583798Y-122905848D01*
X86615215Y-122942561D01*
X86636841Y-122967079D01*
X86650480Y-122981575D01*
X86657939Y-122988221D01*
X86661023Y-122989191D01*
X86661538Y-122986657D01*
X86656426Y-122967837D01*
X86638989Y-122906663D01*
X86610194Y-122806641D01*
X86571089Y-122671393D01*
X86522728Y-122504542D01*
X86466160Y-122309711D01*
X86402437Y-122090524D01*
X86332611Y-121850603D01*
X86257732Y-121593571D01*
X86178852Y-121323052D01*
X85701074Y-119685247D01*
X85935371Y-119685247D01*
X85943237Y-119711353D01*
X85963390Y-119779747D01*
X85994713Y-119886635D01*
X86036143Y-120028371D01*
X86086617Y-120201305D01*
X86145069Y-120401791D01*
X86210436Y-120626181D01*
X86281654Y-120870826D01*
X86357658Y-121132079D01*
X86437386Y-121406292D01*
X86515749Y-121675656D01*
X86591579Y-121935840D01*
X86662577Y-122178975D01*
X86727691Y-122401481D01*
X86785869Y-122599779D01*
X86836059Y-122770290D01*
X86877210Y-122909434D01*
X86900229Y-122986657D01*
X86908270Y-123013632D01*
X86928188Y-123079305D01*
X86935910Y-123102873D01*
X86939159Y-123098558D01*
X86954808Y-123059667D01*
X86974844Y-123003019D01*
X87216862Y-123003019D01*
X87219763Y-123000368D01*
X87247587Y-122969801D01*
X87302699Y-122907509D01*
X87382441Y-122816568D01*
X87484158Y-122700053D01*
X87605190Y-122561037D01*
X87742881Y-122402597D01*
X87894572Y-122227806D01*
X88057607Y-122039740D01*
X88229329Y-121841473D01*
X88407079Y-121636080D01*
X88588200Y-121426635D01*
X88770034Y-121216215D01*
X88949925Y-121007893D01*
X89125215Y-120804744D01*
X89293246Y-120609843D01*
X89451361Y-120426265D01*
X89596902Y-120257085D01*
X89727212Y-120105377D01*
X89839634Y-119974216D01*
X89931509Y-119866677D01*
X90000181Y-119785835D01*
X90042992Y-119734764D01*
X90057285Y-119716540D01*
X90056911Y-119716408D01*
X90028153Y-119714883D01*
X89957605Y-119713061D01*
X89850524Y-119711027D01*
X89712166Y-119708862D01*
X89547786Y-119706649D01*
X89362640Y-119704472D01*
X89161985Y-119702414D01*
X88272883Y-119693932D01*
X87742835Y-121346724D01*
X87662930Y-121596070D01*
X87580761Y-121852886D01*
X87504107Y-122092881D01*
X87434098Y-122312499D01*
X87371864Y-122508181D01*
X87318534Y-122676368D01*
X87275239Y-122813504D01*
X87243109Y-122916030D01*
X87223274Y-122980387D01*
X87216862Y-123003019D01*
X86974844Y-123003019D01*
X86980559Y-122986860D01*
X87013766Y-122887741D01*
X87051781Y-122769915D01*
X87071786Y-122707019D01*
X87109221Y-122589695D01*
X87158185Y-122436510D01*
X87216978Y-122252773D01*
X87283900Y-122043791D01*
X87357252Y-121814875D01*
X87435331Y-121571334D01*
X87516439Y-121318475D01*
X87598875Y-121061609D01*
X87601063Y-121054792D01*
X87679291Y-120810827D01*
X87752876Y-120580836D01*
X87820575Y-120368734D01*
X87881149Y-120178432D01*
X87933355Y-120013843D01*
X87975952Y-119878881D01*
X88007700Y-119777459D01*
X88027357Y-119713488D01*
X88033682Y-119690883D01*
X88020772Y-119690165D01*
X87965346Y-119688596D01*
X87870668Y-119686439D01*
X87741549Y-119683789D01*
X87582799Y-119680739D01*
X87399226Y-119677384D01*
X87195643Y-119673820D01*
X86976858Y-119670139D01*
X86837981Y-119667898D01*
X86605657Y-119664481D01*
X86415147Y-119662272D01*
X86262676Y-119661326D01*
X86144471Y-119661699D01*
X86056759Y-119663444D01*
X85995767Y-119666616D01*
X85957720Y-119671271D01*
X85938846Y-119677463D01*
X85935371Y-119685247D01*
X85701074Y-119685247D01*
X85696670Y-119670149D01*
X85448035Y-119652131D01*
X85376331Y-119648273D01*
X85252138Y-119644328D01*
X85097787Y-119641425D01*
X84922907Y-119639691D01*
X84737125Y-119639253D01*
X84550068Y-119640240D01*
X83900735Y-119646367D01*
X83622730Y-119646367D01*
X83582073Y-119590626D01*
X83540722Y-119525890D01*
X83529070Y-119493831D01*
X83539026Y-119477124D01*
X83576000Y-119425310D01*
X83581697Y-119417685D01*
X86033017Y-119417685D01*
X86037261Y-119418717D01*
X86079267Y-119421799D01*
X86161846Y-119425224D01*
X86279902Y-119428860D01*
X86428341Y-119432576D01*
X86602069Y-119436240D01*
X86795990Y-119439719D01*
X87005010Y-119442881D01*
X87965031Y-119456104D01*
X87964916Y-119455942D01*
X88403301Y-119455942D01*
X88405493Y-119456104D01*
X88422950Y-119457394D01*
X88485223Y-119459634D01*
X88584807Y-119462393D01*
X88716281Y-119465544D01*
X88874223Y-119468957D01*
X89053211Y-119472503D01*
X89247823Y-119476053D01*
X90085570Y-119490703D01*
X89666251Y-118926400D01*
X89644721Y-118897429D01*
X89535138Y-118750065D01*
X89432073Y-118611612D01*
X89339891Y-118487926D01*
X89262961Y-118384864D01*
X89205649Y-118308281D01*
X89172322Y-118264035D01*
X89097710Y-118165972D01*
X88747118Y-118808227D01*
X88707903Y-118880179D01*
X88624631Y-119033754D01*
X88550762Y-119171063D01*
X88488995Y-119287022D01*
X88442030Y-119376544D01*
X88412565Y-119434546D01*
X88403301Y-119455942D01*
X87964916Y-119455942D01*
X87854595Y-119300594D01*
X87661382Y-119029100D01*
X87490768Y-118790573D01*
X87344263Y-118587123D01*
X87222360Y-118419423D01*
X87125552Y-118288145D01*
X87054330Y-118193963D01*
X87009188Y-118137551D01*
X86990618Y-118119581D01*
X86989532Y-118120183D01*
X86967048Y-118144912D01*
X86921639Y-118201612D01*
X86857273Y-118284903D01*
X86777919Y-118389407D01*
X86687544Y-118509744D01*
X86590117Y-118640535D01*
X86489606Y-118776400D01*
X86389980Y-118911961D01*
X86295206Y-119041838D01*
X86209253Y-119160651D01*
X86136089Y-119263022D01*
X86079683Y-119343571D01*
X86044003Y-119396918D01*
X86041901Y-119400891D01*
X86033017Y-119417685D01*
X83581697Y-119417685D01*
X83606299Y-119384756D01*
X83881015Y-119384756D01*
X84361837Y-119399315D01*
X84618597Y-119406481D01*
X84860524Y-119411928D01*
X85072975Y-119415300D01*
X85252944Y-119416593D01*
X85397424Y-119415802D01*
X85503408Y-119412924D01*
X85567886Y-119407955D01*
X85587853Y-119400891D01*
X85566738Y-119356319D01*
X85527423Y-119280493D01*
X85473396Y-119179676D01*
X85408069Y-119059936D01*
X85334852Y-118927339D01*
X85257155Y-118787951D01*
X85178390Y-118647840D01*
X85101966Y-118513071D01*
X85031295Y-118389711D01*
X84969786Y-118283828D01*
X84920850Y-118201487D01*
X84887898Y-118148755D01*
X84874341Y-118131699D01*
X84865333Y-118142491D01*
X84829586Y-118186870D01*
X84770331Y-118261089D01*
X84691143Y-118360648D01*
X84595598Y-118481052D01*
X84487270Y-118617803D01*
X84369735Y-118766404D01*
X83881015Y-119384756D01*
X83606299Y-119384756D01*
X83637312Y-119343247D01*
X83719930Y-119234875D01*
X83820825Y-119104139D01*
X83936967Y-118954980D01*
X84065325Y-118791341D01*
X84202869Y-118617164D01*
X84683149Y-118010952D01*
X85092379Y-118010952D01*
X85094490Y-118015720D01*
X85114528Y-118054323D01*
X85153486Y-118127285D01*
X85208596Y-118229483D01*
X85277092Y-118355796D01*
X85356207Y-118501104D01*
X85443175Y-118660284D01*
X85481801Y-118730725D01*
X85566430Y-118884020D01*
X85642709Y-119020782D01*
X85707769Y-119135957D01*
X85758744Y-119224490D01*
X85792765Y-119281327D01*
X85806964Y-119301413D01*
X85807368Y-119301277D01*
X85826381Y-119280091D01*
X85868934Y-119226568D01*
X85931006Y-119146114D01*
X86008581Y-119044134D01*
X86097638Y-118926032D01*
X86194158Y-118797213D01*
X86294123Y-118663082D01*
X86393515Y-118529044D01*
X86488314Y-118400504D01*
X86574500Y-118282866D01*
X86648057Y-118181536D01*
X86704964Y-118101919D01*
X86738785Y-118052921D01*
X87233798Y-118052921D01*
X87695552Y-118694547D01*
X87772089Y-118800615D01*
X87877624Y-118945890D01*
X87972430Y-119075252D01*
X88053122Y-119184142D01*
X88116316Y-119268003D01*
X88158626Y-119322277D01*
X88176668Y-119342408D01*
X88180552Y-119339623D01*
X88204665Y-119305440D01*
X88247178Y-119236434D01*
X88305168Y-119137630D01*
X88375715Y-119014052D01*
X88455897Y-118870725D01*
X88542793Y-118712673D01*
X88889555Y-118076704D01*
X88685489Y-118058689D01*
X88630462Y-118055130D01*
X88520557Y-118051073D01*
X88379082Y-118048079D01*
X88215274Y-118046280D01*
X88038371Y-118045809D01*
X87857611Y-118046797D01*
X87233798Y-118052921D01*
X86738785Y-118052921D01*
X86741203Y-118049418D01*
X86752755Y-118029440D01*
X86747596Y-118028544D01*
X86704689Y-118026296D01*
X86623906Y-118023907D01*
X86511819Y-118021452D01*
X86375001Y-118019002D01*
X86220023Y-118016632D01*
X86053457Y-118014415D01*
X85881874Y-118012424D01*
X85711847Y-118010731D01*
X85549948Y-118009411D01*
X85402748Y-118008536D01*
X85276819Y-118008179D01*
X85178733Y-118008414D01*
X85115063Y-118009314D01*
X85092379Y-118010952D01*
X84683149Y-118010952D01*
X84866442Y-117779599D01*
X85270749Y-117779231D01*
X85331473Y-117779281D01*
X85481356Y-117779992D01*
X85661077Y-117781461D01*
X85866335Y-117783609D01*
X86092830Y-117786361D01*
X86336263Y-117789639D01*
X86592334Y-117793367D01*
X86856742Y-117797468D01*
X87125188Y-117801866D01*
X87393372Y-117806482D01*
X87656993Y-117811242D01*
X87911753Y-117816068D01*
X88153351Y-117820882D01*
X88377486Y-117825610D01*
X88579860Y-117830173D01*
X88756172Y-117834495D01*
X88902122Y-117838500D01*
X89013410Y-117842110D01*
X89085737Y-117845249D01*
X89114803Y-117847840D01*
X89115972Y-117848426D01*
X89142079Y-117874417D01*
X89191968Y-117933703D01*
X89262124Y-118021547D01*
X89268267Y-118029440D01*
X89305053Y-118076704D01*
X89349034Y-118133212D01*
X89449184Y-118263961D01*
X89559060Y-118409057D01*
X89675149Y-118563763D01*
X89793936Y-118723343D01*
X89911907Y-118883059D01*
X90025550Y-119038174D01*
X90131350Y-119183952D01*
X90225793Y-119315655D01*
X90305365Y-119428547D01*
X90347934Y-119490703D01*
X90366553Y-119517890D01*
X90405842Y-119578948D01*
G37*
G36*
X140316842Y-119578948D02*
G01*
X140330720Y-119606983D01*
X140328645Y-119611009D01*
X140302670Y-119645435D01*
X140265911Y-119690883D01*
X140248884Y-119711935D01*
X140245076Y-119716540D01*
X140169723Y-119807668D01*
X140067621Y-119929795D01*
X139945013Y-120075475D01*
X139804335Y-120241867D01*
X139648022Y-120426131D01*
X139478508Y-120625427D01*
X139298229Y-120836915D01*
X139109621Y-121057754D01*
X138915117Y-121285104D01*
X138717154Y-121516124D01*
X138518167Y-121747975D01*
X138320590Y-121977816D01*
X138126858Y-122202806D01*
X137939407Y-122420106D01*
X137760672Y-122626874D01*
X137593088Y-122820271D01*
X137439090Y-122997456D01*
X137301114Y-123155590D01*
X137181593Y-123291830D01*
X137082965Y-123403339D01*
X137007662Y-123487274D01*
X136958122Y-123540795D01*
X136910924Y-123587417D01*
X136862805Y-123621643D01*
X136823946Y-123624641D01*
X136783032Y-123600252D01*
X136768132Y-123584011D01*
X136724427Y-123532988D01*
X136654674Y-123450125D01*
X136561113Y-123338125D01*
X136445984Y-123199687D01*
X136311526Y-123037515D01*
X136159979Y-122854309D01*
X135993581Y-122652772D01*
X135814573Y-122435605D01*
X135625193Y-122205509D01*
X135427682Y-121965187D01*
X135315435Y-121828513D01*
X135109668Y-121577972D01*
X134907353Y-121331636D01*
X134711459Y-121093123D01*
X134524957Y-120866050D01*
X134350819Y-120654033D01*
X134192014Y-120460690D01*
X134051515Y-120289637D01*
X133932291Y-120144492D01*
X133837313Y-120028871D01*
X133769552Y-119946391D01*
X133656799Y-119807046D01*
X133562105Y-119685269D01*
X133533730Y-119646367D01*
X133811735Y-119646367D01*
X135170287Y-121299269D01*
X135244832Y-121389965D01*
X135473479Y-121668135D01*
X135674277Y-121912381D01*
X135849032Y-122124877D01*
X135999551Y-122307795D01*
X136127637Y-122463308D01*
X136235098Y-122593589D01*
X136323739Y-122700811D01*
X136395366Y-122787146D01*
X136451784Y-122854767D01*
X136494798Y-122905848D01*
X136526215Y-122942561D01*
X136547841Y-122967079D01*
X136561480Y-122981575D01*
X136568939Y-122988221D01*
X136572023Y-122989191D01*
X136572538Y-122986657D01*
X136567426Y-122967837D01*
X136549989Y-122906663D01*
X136521194Y-122806641D01*
X136482089Y-122671393D01*
X136433728Y-122504542D01*
X136377160Y-122309711D01*
X136313437Y-122090524D01*
X136243611Y-121850603D01*
X136168732Y-121593571D01*
X136089852Y-121323052D01*
X135612074Y-119685247D01*
X135846371Y-119685247D01*
X135854237Y-119711353D01*
X135874390Y-119779747D01*
X135905713Y-119886635D01*
X135947143Y-120028371D01*
X135997617Y-120201305D01*
X136056069Y-120401791D01*
X136121436Y-120626181D01*
X136192654Y-120870826D01*
X136268658Y-121132079D01*
X136348386Y-121406292D01*
X136426749Y-121675656D01*
X136502579Y-121935840D01*
X136573577Y-122178975D01*
X136638691Y-122401481D01*
X136696869Y-122599779D01*
X136747059Y-122770290D01*
X136788210Y-122909434D01*
X136811229Y-122986657D01*
X136819270Y-123013632D01*
X136839188Y-123079305D01*
X136846910Y-123102873D01*
X136850159Y-123098558D01*
X136865808Y-123059667D01*
X136885844Y-123003019D01*
X137127862Y-123003019D01*
X137130763Y-123000368D01*
X137158587Y-122969801D01*
X137213699Y-122907509D01*
X137293441Y-122816568D01*
X137395158Y-122700053D01*
X137516190Y-122561037D01*
X137653881Y-122402597D01*
X137805572Y-122227806D01*
X137968607Y-122039740D01*
X138140329Y-121841473D01*
X138318079Y-121636080D01*
X138499200Y-121426635D01*
X138681034Y-121216215D01*
X138860925Y-121007893D01*
X139036215Y-120804744D01*
X139204246Y-120609843D01*
X139362361Y-120426265D01*
X139507902Y-120257085D01*
X139638212Y-120105377D01*
X139750634Y-119974216D01*
X139842509Y-119866677D01*
X139911181Y-119785835D01*
X139953992Y-119734764D01*
X139968285Y-119716540D01*
X139967911Y-119716408D01*
X139939153Y-119714883D01*
X139868605Y-119713061D01*
X139761524Y-119711027D01*
X139623166Y-119708862D01*
X139458786Y-119706649D01*
X139273640Y-119704472D01*
X139072985Y-119702414D01*
X138183883Y-119693932D01*
X137653835Y-121346724D01*
X137573930Y-121596070D01*
X137491761Y-121852886D01*
X137415107Y-122092881D01*
X137345098Y-122312499D01*
X137282864Y-122508181D01*
X137229534Y-122676368D01*
X137186239Y-122813504D01*
X137154109Y-122916030D01*
X137134274Y-122980387D01*
X137127862Y-123003019D01*
X136885844Y-123003019D01*
X136891559Y-122986860D01*
X136924766Y-122887741D01*
X136962781Y-122769915D01*
X136982786Y-122707019D01*
X137020221Y-122589695D01*
X137069185Y-122436510D01*
X137127978Y-122252773D01*
X137194900Y-122043791D01*
X137268252Y-121814875D01*
X137346331Y-121571334D01*
X137427439Y-121318475D01*
X137509875Y-121061609D01*
X137512063Y-121054792D01*
X137590291Y-120810827D01*
X137663876Y-120580836D01*
X137731575Y-120368734D01*
X137792149Y-120178432D01*
X137844355Y-120013843D01*
X137886952Y-119878881D01*
X137918700Y-119777459D01*
X137938357Y-119713488D01*
X137944682Y-119690883D01*
X137931772Y-119690165D01*
X137876346Y-119688596D01*
X137781668Y-119686439D01*
X137652549Y-119683789D01*
X137493799Y-119680739D01*
X137310226Y-119677384D01*
X137106643Y-119673820D01*
X136887858Y-119670139D01*
X136748981Y-119667898D01*
X136516657Y-119664481D01*
X136326147Y-119662272D01*
X136173676Y-119661326D01*
X136055471Y-119661699D01*
X135967759Y-119663444D01*
X135906767Y-119666616D01*
X135868720Y-119671271D01*
X135849846Y-119677463D01*
X135846371Y-119685247D01*
X135612074Y-119685247D01*
X135607670Y-119670149D01*
X135359035Y-119652131D01*
X135287331Y-119648273D01*
X135163138Y-119644328D01*
X135008787Y-119641425D01*
X134833907Y-119639691D01*
X134648125Y-119639253D01*
X134461068Y-119640240D01*
X133811735Y-119646367D01*
X133533730Y-119646367D01*
X133493073Y-119590626D01*
X133451722Y-119525890D01*
X133440070Y-119493831D01*
X133450026Y-119477124D01*
X133487000Y-119425310D01*
X133492697Y-119417685D01*
X135944017Y-119417685D01*
X135948261Y-119418717D01*
X135990267Y-119421799D01*
X136072846Y-119425224D01*
X136190902Y-119428860D01*
X136339341Y-119432576D01*
X136513069Y-119436240D01*
X136706990Y-119439719D01*
X136916010Y-119442881D01*
X137876031Y-119456104D01*
X137875916Y-119455942D01*
X138314301Y-119455942D01*
X138316493Y-119456104D01*
X138333950Y-119457394D01*
X138396223Y-119459634D01*
X138495807Y-119462393D01*
X138627281Y-119465544D01*
X138785223Y-119468957D01*
X138964211Y-119472503D01*
X139158823Y-119476053D01*
X139996570Y-119490703D01*
X139577251Y-118926400D01*
X139555721Y-118897429D01*
X139446138Y-118750065D01*
X139343073Y-118611612D01*
X139250891Y-118487926D01*
X139173961Y-118384864D01*
X139116649Y-118308281D01*
X139083322Y-118264035D01*
X139008710Y-118165972D01*
X138658118Y-118808227D01*
X138618903Y-118880179D01*
X138535631Y-119033754D01*
X138461762Y-119171063D01*
X138399995Y-119287022D01*
X138353030Y-119376544D01*
X138323565Y-119434546D01*
X138314301Y-119455942D01*
X137875916Y-119455942D01*
X137765595Y-119300594D01*
X137572382Y-119029100D01*
X137401768Y-118790573D01*
X137255263Y-118587123D01*
X137133360Y-118419423D01*
X137036552Y-118288145D01*
X136965330Y-118193963D01*
X136920188Y-118137551D01*
X136901618Y-118119581D01*
X136900532Y-118120183D01*
X136878048Y-118144912D01*
X136832639Y-118201612D01*
X136768273Y-118284903D01*
X136688919Y-118389407D01*
X136598544Y-118509744D01*
X136501117Y-118640535D01*
X136400606Y-118776400D01*
X136300980Y-118911961D01*
X136206206Y-119041838D01*
X136120253Y-119160651D01*
X136047089Y-119263022D01*
X135990683Y-119343571D01*
X135955003Y-119396918D01*
X135952901Y-119400891D01*
X135944017Y-119417685D01*
X133492697Y-119417685D01*
X133517299Y-119384756D01*
X133792015Y-119384756D01*
X134272837Y-119399315D01*
X134529597Y-119406481D01*
X134771524Y-119411928D01*
X134983975Y-119415300D01*
X135163944Y-119416593D01*
X135308424Y-119415802D01*
X135414408Y-119412924D01*
X135478886Y-119407955D01*
X135498853Y-119400891D01*
X135477738Y-119356319D01*
X135438423Y-119280493D01*
X135384396Y-119179676D01*
X135319069Y-119059936D01*
X135245852Y-118927339D01*
X135168155Y-118787951D01*
X135089390Y-118647840D01*
X135012966Y-118513071D01*
X134942295Y-118389711D01*
X134880786Y-118283828D01*
X134831850Y-118201487D01*
X134798898Y-118148755D01*
X134785341Y-118131699D01*
X134776333Y-118142491D01*
X134740586Y-118186870D01*
X134681331Y-118261089D01*
X134602143Y-118360648D01*
X134506598Y-118481052D01*
X134398270Y-118617803D01*
X134280735Y-118766404D01*
X133792015Y-119384756D01*
X133517299Y-119384756D01*
X133548312Y-119343247D01*
X133630930Y-119234875D01*
X133731825Y-119104139D01*
X133847967Y-118954980D01*
X133976325Y-118791341D01*
X134113869Y-118617164D01*
X134594149Y-118010952D01*
X135003379Y-118010952D01*
X135005490Y-118015720D01*
X135025528Y-118054323D01*
X135064486Y-118127285D01*
X135119596Y-118229483D01*
X135188092Y-118355796D01*
X135267207Y-118501104D01*
X135354175Y-118660284D01*
X135392801Y-118730725D01*
X135477430Y-118884020D01*
X135553709Y-119020782D01*
X135618769Y-119135957D01*
X135669744Y-119224490D01*
X135703765Y-119281327D01*
X135717964Y-119301413D01*
X135718368Y-119301277D01*
X135737381Y-119280091D01*
X135779934Y-119226568D01*
X135842006Y-119146114D01*
X135919581Y-119044134D01*
X136008638Y-118926032D01*
X136105158Y-118797213D01*
X136205123Y-118663082D01*
X136304515Y-118529044D01*
X136399314Y-118400504D01*
X136485500Y-118282866D01*
X136559057Y-118181536D01*
X136615964Y-118101919D01*
X136649785Y-118052921D01*
X137144798Y-118052921D01*
X137606552Y-118694547D01*
X137683089Y-118800615D01*
X137788624Y-118945890D01*
X137883430Y-119075252D01*
X137964122Y-119184142D01*
X138027316Y-119268003D01*
X138069626Y-119322277D01*
X138087668Y-119342408D01*
X138091552Y-119339623D01*
X138115665Y-119305440D01*
X138158178Y-119236434D01*
X138216168Y-119137630D01*
X138286715Y-119014052D01*
X138366897Y-118870725D01*
X138453793Y-118712673D01*
X138800555Y-118076704D01*
X138596489Y-118058689D01*
X138541462Y-118055130D01*
X138431557Y-118051073D01*
X138290082Y-118048079D01*
X138126274Y-118046280D01*
X137949371Y-118045809D01*
X137768611Y-118046797D01*
X137144798Y-118052921D01*
X136649785Y-118052921D01*
X136652203Y-118049418D01*
X136663755Y-118029440D01*
X136658596Y-118028544D01*
X136615689Y-118026296D01*
X136534906Y-118023907D01*
X136422819Y-118021452D01*
X136286001Y-118019002D01*
X136131023Y-118016632D01*
X135964457Y-118014415D01*
X135792874Y-118012424D01*
X135622847Y-118010731D01*
X135460948Y-118009411D01*
X135313748Y-118008536D01*
X135187819Y-118008179D01*
X135089733Y-118008414D01*
X135026063Y-118009314D01*
X135003379Y-118010952D01*
X134594149Y-118010952D01*
X134777442Y-117779599D01*
X135181749Y-117779231D01*
X135242473Y-117779281D01*
X135392356Y-117779992D01*
X135572077Y-117781461D01*
X135777335Y-117783609D01*
X136003830Y-117786361D01*
X136247263Y-117789639D01*
X136503334Y-117793367D01*
X136767742Y-117797468D01*
X137036188Y-117801866D01*
X137304372Y-117806482D01*
X137567993Y-117811242D01*
X137822753Y-117816068D01*
X138064351Y-117820882D01*
X138288486Y-117825610D01*
X138490860Y-117830173D01*
X138667172Y-117834495D01*
X138813122Y-117838500D01*
X138924410Y-117842110D01*
X138996737Y-117845249D01*
X139025803Y-117847840D01*
X139026972Y-117848426D01*
X139053079Y-117874417D01*
X139102968Y-117933703D01*
X139173124Y-118021547D01*
X139179267Y-118029440D01*
X139216053Y-118076704D01*
X139260034Y-118133212D01*
X139360184Y-118263961D01*
X139470060Y-118409057D01*
X139586149Y-118563763D01*
X139704936Y-118723343D01*
X139822907Y-118883059D01*
X139936550Y-119038174D01*
X140042350Y-119183952D01*
X140136793Y-119315655D01*
X140216365Y-119428547D01*
X140258934Y-119490703D01*
X140277553Y-119517890D01*
X140316842Y-119578948D01*
G37*
D10*
X64111274Y-59205726D03*
X66928000Y-58039000D03*
X64111274Y-56872274D03*
X63628000Y-58039000D03*
X66444726Y-56872274D03*
D11*
X65278000Y-58039000D03*
D10*
X65278000Y-59689000D03*
X65278000Y-56389000D03*
X66444726Y-59205726D03*
D11*
X86995000Y-92710000D03*
D10*
X88645000Y-92710000D03*
X88161726Y-93876726D03*
X88161726Y-91543274D03*
X85828274Y-93876726D03*
X85345000Y-92710000D03*
X86995000Y-91060000D03*
X85828274Y-91543274D03*
X86995000Y-94360000D03*
X108307274Y-59205726D03*
X111124000Y-58039000D03*
X109474000Y-56389000D03*
X107824000Y-58039000D03*
X110640726Y-59205726D03*
X110640726Y-56872274D03*
X108307274Y-56872274D03*
D11*
X109474000Y-58039000D03*
D10*
X109474000Y-59689000D03*
X157735000Y-103124000D03*
X158218274Y-101957274D03*
X159385000Y-101474000D03*
X160551726Y-104290726D03*
X159385000Y-104774000D03*
X161035000Y-103124000D03*
D11*
X159385000Y-103124000D03*
D10*
X158218274Y-104290726D03*
X160551726Y-101957274D03*
X158218274Y-59205726D03*
D11*
X159385000Y-58039000D03*
D10*
X157735000Y-58039000D03*
X159385000Y-56389000D03*
X161035000Y-58039000D03*
X160551726Y-59205726D03*
X160551726Y-56872274D03*
X158218274Y-56872274D03*
X159385000Y-59689000D03*
X114022274Y-59205726D03*
X115189000Y-56389000D03*
X115189000Y-59689000D03*
X116355726Y-56872274D03*
X116355726Y-59205726D03*
X114022274Y-56872274D03*
X113539000Y-58039000D03*
X116839000Y-58039000D03*
D11*
X115189000Y-58039000D03*
D10*
X66444726Y-104290726D03*
D11*
X65278000Y-103124000D03*
D10*
X66444726Y-101957274D03*
X65278000Y-104774000D03*
X65278000Y-101474000D03*
X63628000Y-103124000D03*
X64111274Y-104290726D03*
X64111274Y-101957274D03*
X66928000Y-103124000D03*
D11*
X136906000Y-137795000D03*
D10*
X136906000Y-139445000D03*
X138556000Y-137795000D03*
X135739274Y-138961726D03*
X136906000Y-136145000D03*
X135256000Y-137795000D03*
X138072726Y-138961726D03*
X138072726Y-136628274D03*
X135739274Y-136628274D03*
X115189000Y-104774000D03*
X116839000Y-103124000D03*
X115189000Y-101474000D03*
X116355726Y-104290726D03*
D11*
X115189000Y-103124000D03*
D10*
X116355726Y-101957274D03*
X113539000Y-103124000D03*
X114022274Y-101957274D03*
X114022274Y-104290726D03*
X109474000Y-104774000D03*
X110640726Y-101957274D03*
X110640726Y-104290726D03*
D11*
X109474000Y-103124000D03*
D10*
X108307274Y-104290726D03*
X111124000Y-103124000D03*
X107824000Y-103124000D03*
X108307274Y-101957274D03*
X109474000Y-101474000D03*
X85345000Y-137795000D03*
X88161726Y-136628274D03*
D11*
X86995000Y-137795000D03*
D10*
X88161726Y-138961726D03*
X85828274Y-138961726D03*
X88645000Y-137795000D03*
X86995000Y-136145000D03*
X86995000Y-139445000D03*
X85828274Y-136628274D03*
X138072726Y-91543274D03*
X136906000Y-91060000D03*
X138556000Y-92710000D03*
D11*
X136906000Y-92710000D03*
D10*
X136906000Y-94360000D03*
X138072726Y-93876726D03*
X135256000Y-92710000D03*
X135739274Y-91543274D03*
X135739274Y-93876726D03*
%TA.AperFunction,Conductor*%
G36*
X159101057Y-50674500D02*
G01*
X159115858Y-50676805D01*
X159115861Y-50676805D01*
X159124730Y-50678186D01*
X159133632Y-50677022D01*
X159133634Y-50677022D01*
X159137962Y-50676456D01*
X159142695Y-50675837D01*
X159166093Y-50674971D01*
X159422550Y-50689374D01*
X159436579Y-50690954D01*
X159717492Y-50738683D01*
X159731257Y-50741824D01*
X160005065Y-50820707D01*
X160018385Y-50825368D01*
X160281635Y-50934410D01*
X160294358Y-50940537D01*
X160403236Y-51000712D01*
X160543738Y-51078365D01*
X160555701Y-51085882D01*
X160788073Y-51250758D01*
X160799121Y-51259568D01*
X161011578Y-51449431D01*
X161021569Y-51459422D01*
X161211432Y-51671879D01*
X161220242Y-51682927D01*
X161385118Y-51915299D01*
X161392635Y-51927262D01*
X161530461Y-52176638D01*
X161536590Y-52189365D01*
X161645632Y-52452615D01*
X161650293Y-52465935D01*
X161694856Y-52620616D01*
X161729175Y-52739740D01*
X161732319Y-52753515D01*
X161780045Y-53034414D01*
X161781627Y-53048455D01*
X161795620Y-53297622D01*
X161794318Y-53324068D01*
X161794196Y-53324850D01*
X161794196Y-53324856D01*
X161792814Y-53333730D01*
X161794638Y-53347678D01*
X161796936Y-53365251D01*
X161798000Y-53381589D01*
X161798000Y-56363115D01*
X161777998Y-56431236D01*
X161724342Y-56477729D01*
X161654068Y-56487833D01*
X161589488Y-56458339D01*
X161572643Y-56440602D01*
X161482991Y-56325647D01*
X161471199Y-56317178D01*
X161459486Y-56323725D01*
X159757020Y-58026190D01*
X159749408Y-58040131D01*
X159749539Y-58041966D01*
X159753790Y-58048580D01*
X161458285Y-59753074D01*
X161471408Y-59760240D01*
X161481709Y-59752851D01*
X161574287Y-59639136D01*
X161632807Y-59598937D01*
X161703770Y-59596757D01*
X161764646Y-59633289D01*
X161796108Y-59696934D01*
X161798000Y-59718686D01*
X161798000Y-92025672D01*
X161796500Y-92045057D01*
X161794289Y-92059260D01*
X161792814Y-92068730D01*
X161793978Y-92077632D01*
X161793978Y-92077634D01*
X161795163Y-92086692D01*
X161796029Y-92110093D01*
X161782804Y-92345592D01*
X161781627Y-92366545D01*
X161780045Y-92380586D01*
X161732319Y-92661485D01*
X161729176Y-92675257D01*
X161650293Y-92949065D01*
X161645632Y-92962385D01*
X161536592Y-93225631D01*
X161530461Y-93238362D01*
X161392635Y-93487738D01*
X161385118Y-93499701D01*
X161220242Y-93732073D01*
X161211433Y-93743120D01*
X161021569Y-93955578D01*
X161011578Y-93965569D01*
X160799121Y-94155432D01*
X160788073Y-94164242D01*
X160555701Y-94329118D01*
X160543738Y-94336635D01*
X160294358Y-94474463D01*
X160281635Y-94480590D01*
X160018385Y-94589632D01*
X160005065Y-94594293D01*
X159731257Y-94673176D01*
X159717492Y-94676317D01*
X159436579Y-94724046D01*
X159422550Y-94725626D01*
X159284313Y-94733390D01*
X159179818Y-94739259D01*
X159166569Y-94739305D01*
X159161400Y-94739051D01*
X159153189Y-94738162D01*
X159153188Y-94738171D01*
X159148340Y-94737737D01*
X159143539Y-94736929D01*
X159137538Y-94736856D01*
X159137270Y-94736814D01*
X159137001Y-94736849D01*
X159131000Y-94736776D01*
X159062733Y-94746552D01*
X159061316Y-94746746D01*
X159048034Y-94748483D01*
X158992984Y-94755682D01*
X158990088Y-94756956D01*
X158986955Y-94757405D01*
X158929798Y-94783393D01*
X158924253Y-94785914D01*
X158922847Y-94786543D01*
X158859793Y-94814287D01*
X158857371Y-94816323D01*
X158854490Y-94817633D01*
X158848411Y-94822871D01*
X158802268Y-94862631D01*
X158801123Y-94863605D01*
X158748404Y-94907920D01*
X158746652Y-94910552D01*
X158744253Y-94912619D01*
X158708753Y-94967390D01*
X158706748Y-94970483D01*
X158705975Y-94971659D01*
X158667772Y-95029051D01*
X158666828Y-95032071D01*
X158665107Y-95034727D01*
X158662813Y-95042399D01*
X158645374Y-95100709D01*
X158644924Y-95102181D01*
X158626769Y-95160292D01*
X158624378Y-95167945D01*
X158624320Y-95171108D01*
X158623413Y-95174141D01*
X158623050Y-95233620D01*
X158622992Y-95243052D01*
X158622974Y-95244527D01*
X158622873Y-95250000D01*
X137854218Y-95250000D01*
X138121496Y-95135169D01*
X138128263Y-95131765D01*
X138404042Y-94971580D01*
X138410349Y-94967390D01*
X138620305Y-94808889D01*
X138628761Y-94797496D01*
X138622045Y-94785256D01*
X136918810Y-93082020D01*
X136904869Y-93074408D01*
X136903034Y-93074539D01*
X136896420Y-93078790D01*
X135191818Y-94783393D01*
X135184703Y-94796423D01*
X135192227Y-94806854D01*
X135331483Y-94919020D01*
X135337657Y-94923408D01*
X135608271Y-95092178D01*
X135614931Y-95095794D01*
X135903852Y-95230827D01*
X135910905Y-95233620D01*
X135960872Y-95250000D01*
X116078127Y-95250000D01*
X116079289Y-95186565D01*
X116078457Y-95183512D01*
X116078476Y-95180348D01*
X116059514Y-95114006D01*
X116059173Y-95112782D01*
X116041014Y-95046174D01*
X116039357Y-95043475D01*
X116038488Y-95040435D01*
X116032971Y-95031690D01*
X116001735Y-94982184D01*
X116000922Y-94980878D01*
X115969067Y-94928998D01*
X115964874Y-94922169D01*
X115962530Y-94920047D01*
X115960840Y-94917369D01*
X115909152Y-94871720D01*
X115908061Y-94870744D01*
X115862940Y-94829903D01*
X115856991Y-94824518D01*
X115854143Y-94823138D01*
X115851772Y-94821044D01*
X115821548Y-94806854D01*
X115789421Y-94791770D01*
X115788032Y-94791107D01*
X115733255Y-94764567D01*
X115733249Y-94764565D01*
X115726037Y-94761071D01*
X115722917Y-94760546D01*
X115720052Y-94759201D01*
X115712124Y-94757967D01*
X115712122Y-94757966D01*
X115677341Y-94752551D01*
X115651946Y-94748597D01*
X115650539Y-94748369D01*
X115582539Y-94736929D01*
X115576538Y-94736856D01*
X115576270Y-94736814D01*
X115576001Y-94736849D01*
X115570000Y-94736776D01*
X115565178Y-94737466D01*
X115561621Y-94737698D01*
X115555821Y-94738254D01*
X115534437Y-94739304D01*
X115521194Y-94739258D01*
X115362617Y-94730353D01*
X115278452Y-94725627D01*
X115264421Y-94724046D01*
X114983508Y-94676317D01*
X114969743Y-94673176D01*
X114695935Y-94594293D01*
X114682615Y-94589632D01*
X114419365Y-94480590D01*
X114406642Y-94474463D01*
X114157262Y-94336635D01*
X114145299Y-94329118D01*
X113912927Y-94164242D01*
X113901879Y-94155432D01*
X113689422Y-93965569D01*
X113679431Y-93955578D01*
X113489567Y-93743120D01*
X113480758Y-93732073D01*
X113315882Y-93499701D01*
X113308365Y-93487738D01*
X113170539Y-93238362D01*
X113164408Y-93225631D01*
X113055368Y-92962385D01*
X113050707Y-92949065D01*
X112974741Y-92685383D01*
X134193388Y-92685383D01*
X134209245Y-93003914D01*
X134210076Y-93011443D01*
X134264085Y-93325759D01*
X134265818Y-93333146D01*
X134357196Y-93638695D01*
X134359799Y-93645808D01*
X134487227Y-93938173D01*
X134490669Y-93944929D01*
X134652296Y-94219865D01*
X134656519Y-94226150D01*
X134807463Y-94423934D01*
X134818989Y-94432396D01*
X134831054Y-94425735D01*
X136533980Y-92722810D01*
X136540357Y-92711131D01*
X137270408Y-92711131D01*
X137270539Y-92712966D01*
X137274790Y-92719580D01*
X138979285Y-94424074D01*
X138992408Y-94431240D01*
X139002709Y-94423851D01*
X139106751Y-94296055D01*
X139111164Y-94289914D01*
X139281349Y-94020187D01*
X139285005Y-94013536D01*
X139421544Y-93725335D01*
X139424375Y-93718295D01*
X139525306Y-93415767D01*
X139527270Y-93408433D01*
X139591122Y-93095989D01*
X139592194Y-93088465D01*
X139618173Y-92769051D01*
X139618378Y-92764576D01*
X139618927Y-92712221D01*
X139618817Y-92707789D01*
X139599529Y-92387853D01*
X139598621Y-92380351D01*
X139541319Y-92066593D01*
X139539518Y-92059260D01*
X139444935Y-91754655D01*
X139442263Y-91747583D01*
X139311781Y-91456570D01*
X139308264Y-91449843D01*
X139143771Y-91176621D01*
X139139481Y-91170377D01*
X139003991Y-90996647D01*
X138992199Y-90988178D01*
X138980486Y-90994725D01*
X137278020Y-92697190D01*
X137270408Y-92711131D01*
X136540357Y-92711131D01*
X136541592Y-92708869D01*
X136541461Y-92707034D01*
X136537210Y-92700420D01*
X134832445Y-90995656D01*
X134819510Y-90988592D01*
X134808949Y-90996252D01*
X134688766Y-91147072D01*
X134684410Y-91153270D01*
X134517059Y-91424764D01*
X134513479Y-91431440D01*
X134379956Y-91721074D01*
X134377206Y-91728125D01*
X134279444Y-92031708D01*
X134277561Y-92039041D01*
X134216979Y-92352170D01*
X134215992Y-92359670D01*
X134193467Y-92677802D01*
X134193388Y-92685383D01*
X112974741Y-92685383D01*
X112971824Y-92675257D01*
X112968681Y-92661485D01*
X112920955Y-92380586D01*
X112919373Y-92366545D01*
X112918197Y-92345592D01*
X112905742Y-92123810D01*
X112905695Y-92110577D01*
X112905948Y-92105415D01*
X112906838Y-92097187D01*
X112906829Y-92097186D01*
X112907263Y-92092342D01*
X112908071Y-92087539D01*
X112908224Y-92075000D01*
X112887595Y-91930955D01*
X112827367Y-91798490D01*
X112799238Y-91765845D01*
X112738239Y-91695051D01*
X112738237Y-91695049D01*
X112732381Y-91688253D01*
X112610273Y-91609107D01*
X112470859Y-91567413D01*
X112461883Y-91567358D01*
X112461882Y-91567358D01*
X112445050Y-91567255D01*
X112395000Y-91566950D01*
X112395000Y-90623423D01*
X135183917Y-90623423D01*
X135190520Y-90635309D01*
X136893190Y-92337980D01*
X136907131Y-92345592D01*
X136908966Y-92345461D01*
X136915580Y-92341210D01*
X138620559Y-90636230D01*
X138627571Y-90623389D01*
X138619777Y-90612701D01*
X138457298Y-90484613D01*
X138451075Y-90480288D01*
X138178702Y-90314357D01*
X138172025Y-90310822D01*
X137881686Y-90178813D01*
X137874616Y-90176099D01*
X137570537Y-90079932D01*
X137563186Y-90078085D01*
X137249746Y-90019142D01*
X137242237Y-90018194D01*
X136923989Y-89997335D01*
X136916424Y-89997295D01*
X136597964Y-90014821D01*
X136590450Y-90015690D01*
X136276405Y-90071348D01*
X136269044Y-90073115D01*
X135963980Y-90166092D01*
X135956860Y-90168740D01*
X135665182Y-90297690D01*
X135658445Y-90301167D01*
X135384355Y-90464233D01*
X135378091Y-90468490D01*
X135192385Y-90611762D01*
X135183917Y-90623423D01*
X112395000Y-90623423D01*
X112395000Y-74944691D01*
X130560501Y-74944691D01*
X130580091Y-75443291D01*
X130638740Y-75938816D01*
X130736087Y-76428213D01*
X130871532Y-76908463D01*
X131044239Y-77376606D01*
X131253144Y-77829755D01*
X131496958Y-78265117D01*
X131774179Y-78680007D01*
X132083097Y-79071868D01*
X132421808Y-79438283D01*
X132788223Y-79776994D01*
X133180084Y-80085912D01*
X133594974Y-80363133D01*
X133854680Y-80508575D01*
X134028187Y-80605744D01*
X134028197Y-80605749D01*
X134030336Y-80606947D01*
X134483485Y-80815852D01*
X134951628Y-80988559D01*
X134954012Y-80989231D01*
X134954017Y-80989233D01*
X135429490Y-81123331D01*
X135429502Y-81123334D01*
X135431878Y-81124004D01*
X135434298Y-81124485D01*
X135434309Y-81124488D01*
X135748867Y-81187057D01*
X135921275Y-81221351D01*
X136081174Y-81240276D01*
X136414346Y-81279710D01*
X136414357Y-81279711D01*
X136416800Y-81280000D01*
X136915400Y-81299590D01*
X137414000Y-81280000D01*
X137416443Y-81279711D01*
X137416454Y-81279710D01*
X137749626Y-81240276D01*
X137909525Y-81221351D01*
X138081933Y-81187057D01*
X138396491Y-81124488D01*
X138396502Y-81124485D01*
X138398922Y-81124004D01*
X138401298Y-81123334D01*
X138401310Y-81123331D01*
X138876783Y-80989233D01*
X138876788Y-80989231D01*
X138879172Y-80988559D01*
X139347315Y-80815852D01*
X139800464Y-80606947D01*
X139802603Y-80605749D01*
X139802613Y-80605744D01*
X139976120Y-80508575D01*
X140235826Y-80363133D01*
X140650716Y-80085912D01*
X141042577Y-79776994D01*
X141408992Y-79438283D01*
X141747703Y-79071868D01*
X142056621Y-78680007D01*
X142333842Y-78265117D01*
X142577656Y-77829755D01*
X142786561Y-77376606D01*
X142959268Y-76908463D01*
X143094713Y-76428213D01*
X143192060Y-75938816D01*
X143250709Y-75443291D01*
X143270299Y-74944691D01*
X143250709Y-74446091D01*
X143192060Y-73950566D01*
X143094713Y-73461169D01*
X142959268Y-72980919D01*
X142786561Y-72512776D01*
X142577656Y-72059627D01*
X142333842Y-71624265D01*
X142056621Y-71209375D01*
X141747703Y-70817514D01*
X141408992Y-70451099D01*
X141042577Y-70112388D01*
X140650716Y-69803470D01*
X140235826Y-69526249D01*
X139976120Y-69380807D01*
X139802613Y-69283638D01*
X139802603Y-69283633D01*
X139800464Y-69282435D01*
X139347315Y-69073530D01*
X138879172Y-68900823D01*
X138876788Y-68900151D01*
X138876783Y-68900149D01*
X138401310Y-68766051D01*
X138401298Y-68766048D01*
X138398922Y-68765378D01*
X138396502Y-68764897D01*
X138396491Y-68764894D01*
X138081933Y-68702325D01*
X137909525Y-68668031D01*
X137749626Y-68649106D01*
X137416454Y-68609672D01*
X137416443Y-68609671D01*
X137414000Y-68609382D01*
X136915400Y-68589792D01*
X136416800Y-68609382D01*
X136414357Y-68609671D01*
X136414346Y-68609672D01*
X136081174Y-68649106D01*
X135921275Y-68668031D01*
X135748867Y-68702325D01*
X135434309Y-68764894D01*
X135434298Y-68764897D01*
X135431878Y-68765378D01*
X135429502Y-68766048D01*
X135429490Y-68766051D01*
X134954017Y-68900149D01*
X134954012Y-68900151D01*
X134951628Y-68900823D01*
X134483485Y-69073530D01*
X134030336Y-69282435D01*
X134028197Y-69283633D01*
X134028187Y-69283638D01*
X133854680Y-69380807D01*
X133594974Y-69526249D01*
X133180084Y-69803470D01*
X132788223Y-70112388D01*
X132421808Y-70451099D01*
X132083097Y-70817514D01*
X131774179Y-71209375D01*
X131496958Y-71624265D01*
X131253144Y-72059627D01*
X131044239Y-72512776D01*
X130871532Y-72980919D01*
X130736087Y-73461169D01*
X130638740Y-73950566D01*
X130580091Y-74446091D01*
X130560501Y-74944691D01*
X112395000Y-74944691D01*
X112395000Y-60125423D01*
X113467703Y-60125423D01*
X113475227Y-60135854D01*
X113614483Y-60248020D01*
X113620657Y-60252408D01*
X113891271Y-60421178D01*
X113897931Y-60424794D01*
X114186852Y-60559827D01*
X114193905Y-60562620D01*
X114496970Y-60661970D01*
X114504282Y-60663888D01*
X114817092Y-60726109D01*
X114824590Y-60727137D01*
X115142610Y-60751328D01*
X115150173Y-60751446D01*
X115468785Y-60737257D01*
X115476326Y-60736465D01*
X115790924Y-60684101D01*
X115798302Y-60682411D01*
X116104355Y-60592625D01*
X116111450Y-60590071D01*
X116404496Y-60464169D01*
X116411263Y-60460765D01*
X116687042Y-60300580D01*
X116693349Y-60296390D01*
X116903305Y-60137889D01*
X116911761Y-60126496D01*
X116911172Y-60125423D01*
X157663703Y-60125423D01*
X157671227Y-60135854D01*
X157810483Y-60248020D01*
X157816657Y-60252408D01*
X158087271Y-60421178D01*
X158093931Y-60424794D01*
X158382852Y-60559827D01*
X158389905Y-60562620D01*
X158692970Y-60661970D01*
X158700282Y-60663888D01*
X159013092Y-60726109D01*
X159020590Y-60727137D01*
X159338610Y-60751328D01*
X159346173Y-60751446D01*
X159664785Y-60737257D01*
X159672326Y-60736465D01*
X159986924Y-60684101D01*
X159994302Y-60682411D01*
X160300355Y-60592625D01*
X160307450Y-60590071D01*
X160600496Y-60464169D01*
X160607263Y-60460765D01*
X160883042Y-60300580D01*
X160889349Y-60296390D01*
X161099305Y-60137889D01*
X161107761Y-60126496D01*
X161101045Y-60114256D01*
X159397810Y-58411020D01*
X159383869Y-58403408D01*
X159382034Y-58403539D01*
X159375420Y-58407790D01*
X157670818Y-60112393D01*
X157663703Y-60125423D01*
X116911172Y-60125423D01*
X116905045Y-60114256D01*
X115201810Y-58411020D01*
X115187869Y-58403408D01*
X115186034Y-58403539D01*
X115179420Y-58407790D01*
X113474818Y-60112393D01*
X113467703Y-60125423D01*
X112395000Y-60125423D01*
X112395000Y-58014383D01*
X112476388Y-58014383D01*
X112492245Y-58332914D01*
X112493076Y-58340443D01*
X112547085Y-58654759D01*
X112548818Y-58662146D01*
X112640196Y-58967695D01*
X112642799Y-58974808D01*
X112770227Y-59267173D01*
X112773669Y-59273929D01*
X112935296Y-59548865D01*
X112939519Y-59555150D01*
X113090463Y-59752934D01*
X113101989Y-59761396D01*
X113114054Y-59754735D01*
X114816980Y-58051810D01*
X114823357Y-58040131D01*
X115553408Y-58040131D01*
X115553539Y-58041966D01*
X115557790Y-58048580D01*
X117262285Y-59753074D01*
X117275408Y-59760240D01*
X117285709Y-59752851D01*
X117389751Y-59625055D01*
X117394164Y-59618914D01*
X117564349Y-59349187D01*
X117568005Y-59342536D01*
X117704544Y-59054335D01*
X117707375Y-59047295D01*
X117808306Y-58744767D01*
X117810270Y-58737433D01*
X117874122Y-58424989D01*
X117875194Y-58417465D01*
X117901173Y-58098051D01*
X117901378Y-58093576D01*
X117901927Y-58041221D01*
X117901817Y-58036789D01*
X117900466Y-58014383D01*
X156672388Y-58014383D01*
X156688245Y-58332914D01*
X156689076Y-58340443D01*
X156743085Y-58654759D01*
X156744818Y-58662146D01*
X156836196Y-58967695D01*
X156838799Y-58974808D01*
X156966227Y-59267173D01*
X156969669Y-59273929D01*
X157131296Y-59548865D01*
X157135519Y-59555150D01*
X157286463Y-59752934D01*
X157297989Y-59761396D01*
X157310054Y-59754735D01*
X159012980Y-58051810D01*
X159020592Y-58037869D01*
X159020461Y-58036034D01*
X159016210Y-58029420D01*
X157311445Y-56324656D01*
X157298510Y-56317592D01*
X157287949Y-56325252D01*
X157167766Y-56476072D01*
X157163410Y-56482270D01*
X156996059Y-56753764D01*
X156992479Y-56760440D01*
X156858956Y-57050074D01*
X156856206Y-57057125D01*
X156758444Y-57360708D01*
X156756561Y-57368041D01*
X156695979Y-57681170D01*
X156694992Y-57688670D01*
X156672467Y-58006802D01*
X156672388Y-58014383D01*
X117900466Y-58014383D01*
X117882529Y-57716853D01*
X117881621Y-57709351D01*
X117824319Y-57395593D01*
X117822518Y-57388260D01*
X117727935Y-57083655D01*
X117725263Y-57076583D01*
X117594781Y-56785570D01*
X117591264Y-56778843D01*
X117426771Y-56505621D01*
X117422481Y-56499377D01*
X117286991Y-56325647D01*
X117275199Y-56317178D01*
X117263486Y-56323725D01*
X115561020Y-58026190D01*
X115553408Y-58040131D01*
X114823357Y-58040131D01*
X114824592Y-58037869D01*
X114824461Y-58036034D01*
X114820210Y-58029420D01*
X113115445Y-56324656D01*
X113102510Y-56317592D01*
X113091949Y-56325252D01*
X112971766Y-56476072D01*
X112967410Y-56482270D01*
X112800059Y-56753764D01*
X112796479Y-56760440D01*
X112662956Y-57050074D01*
X112660206Y-57057125D01*
X112562444Y-57360708D01*
X112560561Y-57368041D01*
X112499979Y-57681170D01*
X112498992Y-57688670D01*
X112476467Y-58006802D01*
X112476388Y-58014383D01*
X112395000Y-58014383D01*
X112395000Y-55952423D01*
X113466917Y-55952423D01*
X113473520Y-55964309D01*
X115176190Y-57666980D01*
X115190131Y-57674592D01*
X115191966Y-57674461D01*
X115198580Y-57670210D01*
X116903559Y-55965230D01*
X116910552Y-55952423D01*
X157662917Y-55952423D01*
X157669520Y-55964309D01*
X159372190Y-57666980D01*
X159386131Y-57674592D01*
X159387966Y-57674461D01*
X159394580Y-57670210D01*
X161099559Y-55965230D01*
X161106571Y-55952389D01*
X161098777Y-55941701D01*
X160936298Y-55813613D01*
X160930075Y-55809288D01*
X160657702Y-55643357D01*
X160651025Y-55639822D01*
X160360686Y-55507813D01*
X160353616Y-55505099D01*
X160049537Y-55408932D01*
X160042186Y-55407085D01*
X159728746Y-55348142D01*
X159721237Y-55347194D01*
X159402989Y-55326335D01*
X159395424Y-55326295D01*
X159076964Y-55343821D01*
X159069450Y-55344690D01*
X158755405Y-55400348D01*
X158748044Y-55402115D01*
X158442980Y-55495092D01*
X158435860Y-55497740D01*
X158144182Y-55626690D01*
X158137445Y-55630167D01*
X157863355Y-55793233D01*
X157857091Y-55797490D01*
X157671385Y-55940762D01*
X157662917Y-55952423D01*
X116910552Y-55952423D01*
X116910571Y-55952389D01*
X116902777Y-55941701D01*
X116740298Y-55813613D01*
X116734075Y-55809288D01*
X116461702Y-55643357D01*
X116455025Y-55639822D01*
X116164686Y-55507813D01*
X116157616Y-55505099D01*
X115853537Y-55408932D01*
X115846186Y-55407085D01*
X115532746Y-55348142D01*
X115525237Y-55347194D01*
X115206989Y-55326335D01*
X115199424Y-55326295D01*
X114880964Y-55343821D01*
X114873450Y-55344690D01*
X114559405Y-55400348D01*
X114552044Y-55402115D01*
X114246980Y-55495092D01*
X114239860Y-55497740D01*
X113948182Y-55626690D01*
X113941445Y-55630167D01*
X113667355Y-55793233D01*
X113661091Y-55797490D01*
X113475385Y-55940762D01*
X113466917Y-55952423D01*
X112395000Y-55952423D01*
X112395000Y-53848126D01*
X112458435Y-53849289D01*
X112516985Y-53833326D01*
X112590167Y-53813375D01*
X112590169Y-53813374D01*
X112598826Y-53811014D01*
X112722831Y-53734874D01*
X112820482Y-53626991D01*
X112828130Y-53611207D01*
X112880015Y-53504116D01*
X112880016Y-53504114D01*
X112883929Y-53496037D01*
X112908071Y-53352539D01*
X112908224Y-53340000D01*
X112907533Y-53335176D01*
X112907302Y-53331626D01*
X112906746Y-53325822D01*
X112905696Y-53304439D01*
X112905742Y-53291195D01*
X112919373Y-53048456D01*
X112920955Y-53034414D01*
X112968681Y-52753515D01*
X112971825Y-52739740D01*
X113006144Y-52620616D01*
X113050707Y-52465935D01*
X113055368Y-52452615D01*
X113164410Y-52189365D01*
X113170539Y-52176638D01*
X113308365Y-51927262D01*
X113315882Y-51915299D01*
X113480758Y-51682927D01*
X113489568Y-51671879D01*
X113679431Y-51459422D01*
X113689422Y-51449431D01*
X113901879Y-51259568D01*
X113912927Y-51250758D01*
X114145299Y-51085882D01*
X114157262Y-51078365D01*
X114297764Y-51000712D01*
X114406642Y-50940537D01*
X114419365Y-50934410D01*
X114682615Y-50825368D01*
X114695935Y-50820707D01*
X114969743Y-50741824D01*
X114983508Y-50738683D01*
X115264421Y-50690954D01*
X115278450Y-50689374D01*
X115366784Y-50684413D01*
X115527622Y-50675380D01*
X115554068Y-50676682D01*
X115554850Y-50676804D01*
X115554856Y-50676804D01*
X115563730Y-50678186D01*
X115595252Y-50674064D01*
X115611589Y-50673000D01*
X159081672Y-50673000D01*
X159101057Y-50674500D01*
G37*
%TD.AperFunction*%
%TA.AperFunction,Conductor*%
G36*
X109190057Y-50674500D02*
G01*
X109204858Y-50676805D01*
X109204861Y-50676805D01*
X109213730Y-50678186D01*
X109222632Y-50677022D01*
X109222634Y-50677022D01*
X109226962Y-50676456D01*
X109231695Y-50675837D01*
X109255093Y-50674971D01*
X109511550Y-50689374D01*
X109525579Y-50690954D01*
X109806492Y-50738683D01*
X109820257Y-50741824D01*
X110094065Y-50820707D01*
X110107385Y-50825368D01*
X110370635Y-50934410D01*
X110383358Y-50940537D01*
X110492236Y-51000712D01*
X110632738Y-51078365D01*
X110644701Y-51085882D01*
X110877073Y-51250758D01*
X110888121Y-51259568D01*
X111100578Y-51449431D01*
X111110569Y-51459422D01*
X111300432Y-51671879D01*
X111309242Y-51682927D01*
X111474118Y-51915299D01*
X111481635Y-51927262D01*
X111619461Y-52176638D01*
X111625590Y-52189365D01*
X111734632Y-52452615D01*
X111739293Y-52465935D01*
X111783856Y-52620616D01*
X111818175Y-52739740D01*
X111821319Y-52753515D01*
X111869045Y-53034414D01*
X111870627Y-53048455D01*
X111884259Y-53291188D01*
X111884305Y-53304436D01*
X111883677Y-53317218D01*
X111883236Y-53321539D01*
X111883218Y-53323023D01*
X111883374Y-53323394D01*
X111883351Y-53323859D01*
X111881814Y-53333730D01*
X111882579Y-53339578D01*
X111882558Y-53340000D01*
X111882634Y-53340000D01*
X111883502Y-53346639D01*
X111883502Y-53346641D01*
X111899518Y-53469117D01*
X111900682Y-53478016D01*
X111959287Y-53611207D01*
X112052920Y-53722596D01*
X112174051Y-53803228D01*
X112312945Y-53846622D01*
X112321917Y-53846786D01*
X112321920Y-53846787D01*
X112376407Y-53847785D01*
X112395000Y-53848126D01*
X112395000Y-91566950D01*
X112325348Y-91566524D01*
X112185435Y-91606512D01*
X112062369Y-91684160D01*
X111966044Y-91793228D01*
X111904201Y-91924948D01*
X111902821Y-91933810D01*
X111902820Y-91933814D01*
X111883195Y-92059857D01*
X111883195Y-92059861D01*
X111881814Y-92068730D01*
X111882634Y-92075000D01*
X111882558Y-92075000D01*
X111883174Y-92087539D01*
X111884305Y-92110560D01*
X111884259Y-92123807D01*
X111871804Y-92345592D01*
X111870627Y-92366545D01*
X111869045Y-92380586D01*
X111821319Y-92661485D01*
X111818176Y-92675257D01*
X111739293Y-92949065D01*
X111734632Y-92962385D01*
X111625592Y-93225631D01*
X111619461Y-93238362D01*
X111481635Y-93487738D01*
X111474118Y-93499701D01*
X111309242Y-93732073D01*
X111300433Y-93743120D01*
X111110569Y-93955578D01*
X111100578Y-93965569D01*
X110888121Y-94155432D01*
X110877073Y-94164242D01*
X110644701Y-94329118D01*
X110632738Y-94336635D01*
X110383358Y-94474463D01*
X110370635Y-94480590D01*
X110107385Y-94589632D01*
X110094065Y-94594293D01*
X109820257Y-94673176D01*
X109806492Y-94676317D01*
X109525579Y-94724046D01*
X109511550Y-94725626D01*
X109373313Y-94733390D01*
X109268818Y-94739259D01*
X109255569Y-94739305D01*
X109250400Y-94739051D01*
X109242189Y-94738162D01*
X109242188Y-94738171D01*
X109237340Y-94737737D01*
X109232539Y-94736929D01*
X109226538Y-94736856D01*
X109226270Y-94736814D01*
X109226001Y-94736849D01*
X109220000Y-94736776D01*
X109151733Y-94746552D01*
X109150316Y-94746746D01*
X109137034Y-94748483D01*
X109081984Y-94755682D01*
X109079088Y-94756956D01*
X109075955Y-94757405D01*
X109018798Y-94783393D01*
X109013253Y-94785914D01*
X109011847Y-94786543D01*
X108948793Y-94814287D01*
X108946371Y-94816323D01*
X108943490Y-94817633D01*
X108937411Y-94822871D01*
X108891268Y-94862631D01*
X108890123Y-94863605D01*
X108837404Y-94907920D01*
X108835652Y-94910552D01*
X108833253Y-94912619D01*
X108797753Y-94967390D01*
X108795748Y-94970483D01*
X108794975Y-94971659D01*
X108756772Y-95029051D01*
X108755828Y-95032071D01*
X108754107Y-95034727D01*
X108751813Y-95042399D01*
X108734374Y-95100709D01*
X108733924Y-95102181D01*
X108715769Y-95160292D01*
X108713378Y-95167945D01*
X108713320Y-95171108D01*
X108712413Y-95174141D01*
X108712050Y-95233620D01*
X108711992Y-95243052D01*
X108711974Y-95244527D01*
X108711873Y-95250000D01*
X87943218Y-95250000D01*
X88210496Y-95135169D01*
X88217263Y-95131765D01*
X88493042Y-94971580D01*
X88499349Y-94967390D01*
X88709305Y-94808889D01*
X88717761Y-94797496D01*
X88711045Y-94785256D01*
X87007810Y-93082020D01*
X86993869Y-93074408D01*
X86992034Y-93074539D01*
X86985420Y-93078790D01*
X85280818Y-94783393D01*
X85273703Y-94796423D01*
X85281227Y-94806854D01*
X85420483Y-94919020D01*
X85426657Y-94923408D01*
X85697271Y-95092178D01*
X85703931Y-95095794D01*
X85992852Y-95230827D01*
X85999905Y-95233620D01*
X86049872Y-95250000D01*
X66167127Y-95250000D01*
X66168289Y-95186565D01*
X66167457Y-95183512D01*
X66167476Y-95180348D01*
X66148514Y-95114006D01*
X66148173Y-95112782D01*
X66130014Y-95046174D01*
X66128357Y-95043475D01*
X66127488Y-95040435D01*
X66121971Y-95031690D01*
X66090735Y-94982184D01*
X66089922Y-94980878D01*
X66058067Y-94928998D01*
X66053874Y-94922169D01*
X66051530Y-94920047D01*
X66049840Y-94917369D01*
X65998152Y-94871720D01*
X65997061Y-94870744D01*
X65951940Y-94829903D01*
X65945991Y-94824518D01*
X65943143Y-94823138D01*
X65940772Y-94821044D01*
X65910548Y-94806854D01*
X65878421Y-94791770D01*
X65877032Y-94791107D01*
X65822255Y-94764567D01*
X65822249Y-94764565D01*
X65815037Y-94761071D01*
X65811917Y-94760546D01*
X65809052Y-94759201D01*
X65801124Y-94757967D01*
X65801122Y-94757966D01*
X65766341Y-94752551D01*
X65740946Y-94748597D01*
X65739539Y-94748369D01*
X65671539Y-94736929D01*
X65665538Y-94736856D01*
X65665270Y-94736814D01*
X65665001Y-94736849D01*
X65659000Y-94736776D01*
X65654178Y-94737466D01*
X65650621Y-94737698D01*
X65644821Y-94738254D01*
X65623437Y-94739304D01*
X65610194Y-94739258D01*
X65451617Y-94730353D01*
X65367452Y-94725627D01*
X65353421Y-94724046D01*
X65072508Y-94676317D01*
X65058743Y-94673176D01*
X64784935Y-94594293D01*
X64771615Y-94589632D01*
X64508365Y-94480590D01*
X64495642Y-94474463D01*
X64246262Y-94336635D01*
X64234299Y-94329118D01*
X64001927Y-94164242D01*
X63990879Y-94155432D01*
X63778422Y-93965569D01*
X63768431Y-93955578D01*
X63578567Y-93743120D01*
X63569758Y-93732073D01*
X63404882Y-93499701D01*
X63397365Y-93487738D01*
X63259539Y-93238362D01*
X63253408Y-93225631D01*
X63144368Y-92962385D01*
X63139707Y-92949065D01*
X63063741Y-92685383D01*
X84282388Y-92685383D01*
X84298245Y-93003914D01*
X84299076Y-93011443D01*
X84353085Y-93325759D01*
X84354818Y-93333146D01*
X84446196Y-93638695D01*
X84448799Y-93645808D01*
X84576227Y-93938173D01*
X84579669Y-93944929D01*
X84741296Y-94219865D01*
X84745519Y-94226150D01*
X84896463Y-94423934D01*
X84907989Y-94432396D01*
X84920054Y-94425735D01*
X86622980Y-92722810D01*
X86629357Y-92711131D01*
X87359408Y-92711131D01*
X87359539Y-92712966D01*
X87363790Y-92719580D01*
X89068285Y-94424074D01*
X89081408Y-94431240D01*
X89091709Y-94423851D01*
X89195751Y-94296055D01*
X89200164Y-94289914D01*
X89370349Y-94020187D01*
X89374005Y-94013536D01*
X89510544Y-93725335D01*
X89513375Y-93718295D01*
X89614306Y-93415767D01*
X89616270Y-93408433D01*
X89680122Y-93095989D01*
X89681194Y-93088465D01*
X89707173Y-92769051D01*
X89707378Y-92764576D01*
X89707927Y-92712221D01*
X89707817Y-92707789D01*
X89688529Y-92387853D01*
X89687621Y-92380351D01*
X89630319Y-92066593D01*
X89628518Y-92059260D01*
X89533935Y-91754655D01*
X89531263Y-91747583D01*
X89400781Y-91456570D01*
X89397264Y-91449843D01*
X89232771Y-91176621D01*
X89228481Y-91170377D01*
X89092991Y-90996647D01*
X89081199Y-90988178D01*
X89069486Y-90994725D01*
X87367020Y-92697190D01*
X87359408Y-92711131D01*
X86629357Y-92711131D01*
X86630592Y-92708869D01*
X86630461Y-92707034D01*
X86626210Y-92700420D01*
X84921445Y-90995656D01*
X84908510Y-90988592D01*
X84897949Y-90996252D01*
X84777766Y-91147072D01*
X84773410Y-91153270D01*
X84606059Y-91424764D01*
X84602479Y-91431440D01*
X84468956Y-91721074D01*
X84466206Y-91728125D01*
X84368444Y-92031708D01*
X84366561Y-92039041D01*
X84305979Y-92352170D01*
X84304992Y-92359670D01*
X84282467Y-92677802D01*
X84282388Y-92685383D01*
X63063741Y-92685383D01*
X63060824Y-92675257D01*
X63057681Y-92661485D01*
X63009955Y-92380586D01*
X63008373Y-92366545D01*
X63007566Y-92352170D01*
X62994587Y-92121068D01*
X62995909Y-92097196D01*
X62995829Y-92097189D01*
X62996039Y-92094847D01*
X62996136Y-92093096D01*
X62996265Y-92092332D01*
X62996265Y-92092327D01*
X62997071Y-92087539D01*
X62997224Y-92075000D01*
X62993273Y-92047412D01*
X62992000Y-92029549D01*
X62992000Y-90623423D01*
X85272917Y-90623423D01*
X85279520Y-90635309D01*
X86982190Y-92337980D01*
X86996131Y-92345592D01*
X86997966Y-92345461D01*
X87004580Y-92341210D01*
X88709559Y-90636230D01*
X88716571Y-90623389D01*
X88708777Y-90612701D01*
X88546298Y-90484613D01*
X88540075Y-90480288D01*
X88267702Y-90314357D01*
X88261025Y-90310822D01*
X87970686Y-90178813D01*
X87963616Y-90176099D01*
X87659537Y-90079932D01*
X87652186Y-90078085D01*
X87338746Y-90019142D01*
X87331237Y-90018194D01*
X87012989Y-89997335D01*
X87005424Y-89997295D01*
X86686964Y-90014821D01*
X86679450Y-90015690D01*
X86365405Y-90071348D01*
X86358044Y-90073115D01*
X86052980Y-90166092D01*
X86045860Y-90168740D01*
X85754182Y-90297690D01*
X85747445Y-90301167D01*
X85473355Y-90464233D01*
X85467091Y-90468490D01*
X85281385Y-90611762D01*
X85272917Y-90623423D01*
X62992000Y-90623423D01*
X62992000Y-74944691D01*
X80649501Y-74944691D01*
X80669091Y-75443291D01*
X80727740Y-75938816D01*
X80825087Y-76428213D01*
X80960532Y-76908463D01*
X81133239Y-77376606D01*
X81342144Y-77829755D01*
X81585958Y-78265117D01*
X81863179Y-78680007D01*
X82172097Y-79071868D01*
X82510808Y-79438283D01*
X82877223Y-79776994D01*
X83269084Y-80085912D01*
X83683974Y-80363133D01*
X83943680Y-80508575D01*
X84117187Y-80605744D01*
X84117197Y-80605749D01*
X84119336Y-80606947D01*
X84572485Y-80815852D01*
X85040628Y-80988559D01*
X85043012Y-80989231D01*
X85043017Y-80989233D01*
X85518490Y-81123331D01*
X85518502Y-81123334D01*
X85520878Y-81124004D01*
X85523298Y-81124485D01*
X85523309Y-81124488D01*
X85837867Y-81187057D01*
X86010275Y-81221351D01*
X86170174Y-81240276D01*
X86503346Y-81279710D01*
X86503357Y-81279711D01*
X86505800Y-81280000D01*
X87004400Y-81299590D01*
X87503000Y-81280000D01*
X87505443Y-81279711D01*
X87505454Y-81279710D01*
X87838626Y-81240276D01*
X87998525Y-81221351D01*
X88170933Y-81187057D01*
X88485491Y-81124488D01*
X88485502Y-81124485D01*
X88487922Y-81124004D01*
X88490298Y-81123334D01*
X88490310Y-81123331D01*
X88965783Y-80989233D01*
X88965788Y-80989231D01*
X88968172Y-80988559D01*
X89436315Y-80815852D01*
X89889464Y-80606947D01*
X89891603Y-80605749D01*
X89891613Y-80605744D01*
X90065120Y-80508575D01*
X90324826Y-80363133D01*
X90739716Y-80085912D01*
X91131577Y-79776994D01*
X91497992Y-79438283D01*
X91836703Y-79071868D01*
X92145621Y-78680007D01*
X92422842Y-78265117D01*
X92666656Y-77829755D01*
X92875561Y-77376606D01*
X93048268Y-76908463D01*
X93183713Y-76428213D01*
X93281060Y-75938816D01*
X93339709Y-75443291D01*
X93359299Y-74944691D01*
X93339709Y-74446091D01*
X93281060Y-73950566D01*
X93183713Y-73461169D01*
X93048268Y-72980919D01*
X92875561Y-72512776D01*
X92666656Y-72059627D01*
X92422842Y-71624265D01*
X92145621Y-71209375D01*
X91836703Y-70817514D01*
X91497992Y-70451099D01*
X91131577Y-70112388D01*
X90739716Y-69803470D01*
X90324826Y-69526249D01*
X90065120Y-69380807D01*
X89891613Y-69283638D01*
X89891603Y-69283633D01*
X89889464Y-69282435D01*
X89436315Y-69073530D01*
X88968172Y-68900823D01*
X88965788Y-68900151D01*
X88965783Y-68900149D01*
X88490310Y-68766051D01*
X88490298Y-68766048D01*
X88487922Y-68765378D01*
X88485502Y-68764897D01*
X88485491Y-68764894D01*
X88170933Y-68702325D01*
X87998525Y-68668031D01*
X87838626Y-68649106D01*
X87505454Y-68609672D01*
X87505443Y-68609671D01*
X87503000Y-68609382D01*
X87004400Y-68589792D01*
X86505800Y-68609382D01*
X86503357Y-68609671D01*
X86503346Y-68609672D01*
X86170174Y-68649106D01*
X86010275Y-68668031D01*
X85837867Y-68702325D01*
X85523309Y-68764894D01*
X85523298Y-68764897D01*
X85520878Y-68765378D01*
X85518502Y-68766048D01*
X85518490Y-68766051D01*
X85043017Y-68900149D01*
X85043012Y-68900151D01*
X85040628Y-68900823D01*
X84572485Y-69073530D01*
X84119336Y-69282435D01*
X84117197Y-69283633D01*
X84117187Y-69283638D01*
X83943680Y-69380807D01*
X83683974Y-69526249D01*
X83269084Y-69803470D01*
X82877223Y-70112388D01*
X82510808Y-70451099D01*
X82172097Y-70817514D01*
X81863179Y-71209375D01*
X81585958Y-71624265D01*
X81342144Y-72059627D01*
X81133239Y-72512776D01*
X80960532Y-72980919D01*
X80825087Y-73461169D01*
X80727740Y-73950566D01*
X80669091Y-74446091D01*
X80649501Y-74944691D01*
X62992000Y-74944691D01*
X62992000Y-60125423D01*
X63556703Y-60125423D01*
X63564227Y-60135854D01*
X63703483Y-60248020D01*
X63709657Y-60252408D01*
X63980271Y-60421178D01*
X63986931Y-60424794D01*
X64275852Y-60559827D01*
X64282905Y-60562620D01*
X64585970Y-60661970D01*
X64593282Y-60663888D01*
X64906092Y-60726109D01*
X64913590Y-60727137D01*
X65231610Y-60751328D01*
X65239173Y-60751446D01*
X65557785Y-60737257D01*
X65565326Y-60736465D01*
X65879924Y-60684101D01*
X65887302Y-60682411D01*
X66193355Y-60592625D01*
X66200450Y-60590071D01*
X66493496Y-60464169D01*
X66500263Y-60460765D01*
X66776042Y-60300580D01*
X66782349Y-60296390D01*
X66992305Y-60137889D01*
X67000761Y-60126496D01*
X67000172Y-60125423D01*
X107752703Y-60125423D01*
X107760227Y-60135854D01*
X107899483Y-60248020D01*
X107905657Y-60252408D01*
X108176271Y-60421178D01*
X108182931Y-60424794D01*
X108471852Y-60559827D01*
X108478905Y-60562620D01*
X108781970Y-60661970D01*
X108789282Y-60663888D01*
X109102092Y-60726109D01*
X109109590Y-60727137D01*
X109427610Y-60751328D01*
X109435173Y-60751446D01*
X109753785Y-60737257D01*
X109761326Y-60736465D01*
X110075924Y-60684101D01*
X110083302Y-60682411D01*
X110389355Y-60592625D01*
X110396450Y-60590071D01*
X110689496Y-60464169D01*
X110696263Y-60460765D01*
X110972042Y-60300580D01*
X110978349Y-60296390D01*
X111188305Y-60137889D01*
X111196761Y-60126496D01*
X111190045Y-60114256D01*
X109486810Y-58411020D01*
X109472869Y-58403408D01*
X109471034Y-58403539D01*
X109464420Y-58407790D01*
X107759818Y-60112393D01*
X107752703Y-60125423D01*
X67000172Y-60125423D01*
X66994045Y-60114256D01*
X65290810Y-58411020D01*
X65276869Y-58403408D01*
X65275034Y-58403539D01*
X65268420Y-58407790D01*
X63563818Y-60112393D01*
X63556703Y-60125423D01*
X62992000Y-60125423D01*
X62992000Y-59864121D01*
X63012002Y-59796000D01*
X63065658Y-59749507D01*
X63135932Y-59739403D01*
X63190454Y-59761691D01*
X63203054Y-59754735D01*
X64905980Y-58051810D01*
X64912357Y-58040131D01*
X65642408Y-58040131D01*
X65642539Y-58041966D01*
X65646790Y-58048580D01*
X67351285Y-59753074D01*
X67364408Y-59760240D01*
X67374709Y-59752851D01*
X67478751Y-59625055D01*
X67483164Y-59618914D01*
X67653349Y-59349187D01*
X67657005Y-59342536D01*
X67793544Y-59054335D01*
X67796375Y-59047295D01*
X67897306Y-58744767D01*
X67899270Y-58737433D01*
X67963122Y-58424989D01*
X67964194Y-58417465D01*
X67990173Y-58098051D01*
X67990378Y-58093576D01*
X67990927Y-58041221D01*
X67990817Y-58036789D01*
X67989466Y-58014383D01*
X106761388Y-58014383D01*
X106777245Y-58332914D01*
X106778076Y-58340443D01*
X106832085Y-58654759D01*
X106833818Y-58662146D01*
X106925196Y-58967695D01*
X106927799Y-58974808D01*
X107055227Y-59267173D01*
X107058669Y-59273929D01*
X107220296Y-59548865D01*
X107224519Y-59555150D01*
X107375463Y-59752934D01*
X107386989Y-59761396D01*
X107399054Y-59754735D01*
X109101980Y-58051810D01*
X109108357Y-58040131D01*
X109838408Y-58040131D01*
X109838539Y-58041966D01*
X109842790Y-58048580D01*
X111547285Y-59753074D01*
X111560408Y-59760240D01*
X111570709Y-59752851D01*
X111674751Y-59625055D01*
X111679164Y-59618914D01*
X111849349Y-59349187D01*
X111853005Y-59342536D01*
X111989544Y-59054335D01*
X111992375Y-59047295D01*
X112093306Y-58744767D01*
X112095270Y-58737433D01*
X112159122Y-58424989D01*
X112160194Y-58417465D01*
X112186173Y-58098051D01*
X112186378Y-58093576D01*
X112186927Y-58041221D01*
X112186817Y-58036789D01*
X112167529Y-57716853D01*
X112166621Y-57709351D01*
X112109319Y-57395593D01*
X112107518Y-57388260D01*
X112012935Y-57083655D01*
X112010263Y-57076583D01*
X111879781Y-56785570D01*
X111876264Y-56778843D01*
X111711771Y-56505621D01*
X111707481Y-56499377D01*
X111571991Y-56325647D01*
X111560199Y-56317178D01*
X111548486Y-56323725D01*
X109846020Y-58026190D01*
X109838408Y-58040131D01*
X109108357Y-58040131D01*
X109109592Y-58037869D01*
X109109461Y-58036034D01*
X109105210Y-58029420D01*
X107400445Y-56324656D01*
X107387510Y-56317592D01*
X107376949Y-56325252D01*
X107256766Y-56476072D01*
X107252410Y-56482270D01*
X107085059Y-56753764D01*
X107081479Y-56760440D01*
X106947956Y-57050074D01*
X106945206Y-57057125D01*
X106847444Y-57360708D01*
X106845561Y-57368041D01*
X106784979Y-57681170D01*
X106783992Y-57688670D01*
X106761467Y-58006802D01*
X106761388Y-58014383D01*
X67989466Y-58014383D01*
X67971529Y-57716853D01*
X67970621Y-57709351D01*
X67913319Y-57395593D01*
X67911518Y-57388260D01*
X67816935Y-57083655D01*
X67814263Y-57076583D01*
X67683781Y-56785570D01*
X67680264Y-56778843D01*
X67515771Y-56505621D01*
X67511481Y-56499377D01*
X67375991Y-56325647D01*
X67364199Y-56317178D01*
X67352486Y-56323725D01*
X65650020Y-58026190D01*
X65642408Y-58040131D01*
X64912357Y-58040131D01*
X64913592Y-58037869D01*
X64913461Y-58036034D01*
X64909210Y-58029420D01*
X63204445Y-56324656D01*
X63191318Y-56317488D01*
X63125088Y-56341056D01*
X63055950Y-56324918D01*
X63006512Y-56273963D01*
X62992000Y-56215256D01*
X62992000Y-55952423D01*
X63555917Y-55952423D01*
X63562520Y-55964309D01*
X65265190Y-57666980D01*
X65279131Y-57674592D01*
X65280966Y-57674461D01*
X65287580Y-57670210D01*
X66992559Y-55965230D01*
X66999552Y-55952423D01*
X107751917Y-55952423D01*
X107758520Y-55964309D01*
X109461190Y-57666980D01*
X109475131Y-57674592D01*
X109476966Y-57674461D01*
X109483580Y-57670210D01*
X111188559Y-55965230D01*
X111195571Y-55952389D01*
X111187777Y-55941701D01*
X111025298Y-55813613D01*
X111019075Y-55809288D01*
X110746702Y-55643357D01*
X110740025Y-55639822D01*
X110449686Y-55507813D01*
X110442616Y-55505099D01*
X110138537Y-55408932D01*
X110131186Y-55407085D01*
X109817746Y-55348142D01*
X109810237Y-55347194D01*
X109491989Y-55326335D01*
X109484424Y-55326295D01*
X109165964Y-55343821D01*
X109158450Y-55344690D01*
X108844405Y-55400348D01*
X108837044Y-55402115D01*
X108531980Y-55495092D01*
X108524860Y-55497740D01*
X108233182Y-55626690D01*
X108226445Y-55630167D01*
X107952355Y-55793233D01*
X107946091Y-55797490D01*
X107760385Y-55940762D01*
X107751917Y-55952423D01*
X66999552Y-55952423D01*
X66999571Y-55952389D01*
X66991777Y-55941701D01*
X66829298Y-55813613D01*
X66823075Y-55809288D01*
X66550702Y-55643357D01*
X66544025Y-55639822D01*
X66253686Y-55507813D01*
X66246616Y-55505099D01*
X65942537Y-55408932D01*
X65935186Y-55407085D01*
X65621746Y-55348142D01*
X65614237Y-55347194D01*
X65295989Y-55326335D01*
X65288424Y-55326295D01*
X64969964Y-55343821D01*
X64962450Y-55344690D01*
X64648405Y-55400348D01*
X64641044Y-55402115D01*
X64335980Y-55495092D01*
X64328860Y-55497740D01*
X64037182Y-55626690D01*
X64030445Y-55630167D01*
X63756355Y-55793233D01*
X63750091Y-55797490D01*
X63564385Y-55940762D01*
X63555917Y-55952423D01*
X62992000Y-55952423D01*
X62992000Y-53393207D01*
X62993746Y-53372303D01*
X62996264Y-53357335D01*
X62997071Y-53352539D01*
X62997224Y-53340000D01*
X62995249Y-53326207D01*
X62994175Y-53301282D01*
X63008373Y-53048455D01*
X63009955Y-53034414D01*
X63057681Y-52753515D01*
X63060825Y-52739740D01*
X63095144Y-52620616D01*
X63139707Y-52465935D01*
X63144368Y-52452615D01*
X63253410Y-52189365D01*
X63259539Y-52176638D01*
X63397365Y-51927262D01*
X63404882Y-51915299D01*
X63569758Y-51682927D01*
X63578568Y-51671879D01*
X63768431Y-51459422D01*
X63778422Y-51449431D01*
X63990879Y-51259568D01*
X64001927Y-51250758D01*
X64234299Y-51085882D01*
X64246262Y-51078365D01*
X64386764Y-51000712D01*
X64495642Y-50940537D01*
X64508365Y-50934410D01*
X64771615Y-50825368D01*
X64784935Y-50820707D01*
X65058743Y-50741824D01*
X65072508Y-50738683D01*
X65353421Y-50690954D01*
X65367450Y-50689374D01*
X65455784Y-50684413D01*
X65616622Y-50675380D01*
X65643068Y-50676682D01*
X65643850Y-50676804D01*
X65643856Y-50676804D01*
X65652730Y-50678186D01*
X65684252Y-50674064D01*
X65700589Y-50673000D01*
X109170672Y-50673000D01*
X109190057Y-50674500D01*
G37*
%TD.AperFunction*%
%TA.AperFunction,Conductor*%
G36*
X86302970Y-95332970D02*
G01*
X86310282Y-95334888D01*
X86623092Y-95397109D01*
X86630590Y-95398137D01*
X86948610Y-95422328D01*
X86956173Y-95422446D01*
X87274785Y-95408257D01*
X87282326Y-95407465D01*
X87596924Y-95355101D01*
X87604302Y-95353411D01*
X87910355Y-95263625D01*
X87917450Y-95261071D01*
X87943219Y-95250000D01*
X108711873Y-95250000D01*
X108710711Y-95313435D01*
X108711543Y-95316488D01*
X108711524Y-95319652D01*
X108730486Y-95385994D01*
X108730827Y-95387218D01*
X108748986Y-95453826D01*
X108750643Y-95456525D01*
X108751512Y-95459565D01*
X108755789Y-95466343D01*
X108755789Y-95466344D01*
X108788265Y-95517816D01*
X108789078Y-95519122D01*
X108825126Y-95577831D01*
X108827470Y-95579953D01*
X108829160Y-95582631D01*
X108880848Y-95628280D01*
X108881939Y-95629256D01*
X108933009Y-95675482D01*
X108935857Y-95676862D01*
X108938228Y-95678956D01*
X108952620Y-95685713D01*
X109000579Y-95708230D01*
X109001968Y-95708893D01*
X109056745Y-95735433D01*
X109056751Y-95735435D01*
X109063963Y-95738929D01*
X109067083Y-95739454D01*
X109069948Y-95740799D01*
X109077876Y-95742033D01*
X109077878Y-95742034D01*
X109099215Y-95745356D01*
X109138054Y-95751403D01*
X109139461Y-95751631D01*
X109207461Y-95763071D01*
X109213462Y-95763144D01*
X109213730Y-95763186D01*
X109213999Y-95763151D01*
X109220000Y-95763224D01*
X109224822Y-95762534D01*
X109228379Y-95762302D01*
X109234179Y-95761746D01*
X109255563Y-95760696D01*
X109268806Y-95760742D01*
X109427383Y-95769647D01*
X109511548Y-95774373D01*
X109525579Y-95775954D01*
X109806492Y-95823683D01*
X109820257Y-95826824D01*
X110094065Y-95905707D01*
X110107385Y-95910368D01*
X110370635Y-96019410D01*
X110383358Y-96025537D01*
X110492236Y-96085712D01*
X110632738Y-96163365D01*
X110644701Y-96170882D01*
X110877073Y-96335758D01*
X110888121Y-96344568D01*
X111100578Y-96534431D01*
X111110569Y-96544422D01*
X111300432Y-96756879D01*
X111309242Y-96767927D01*
X111474118Y-97000299D01*
X111481635Y-97012262D01*
X111619461Y-97261638D01*
X111625590Y-97274365D01*
X111734632Y-97537615D01*
X111739293Y-97550935D01*
X111783856Y-97705616D01*
X111818175Y-97824740D01*
X111821319Y-97838515D01*
X111869045Y-98119414D01*
X111870627Y-98133455D01*
X111884259Y-98376188D01*
X111884305Y-98389436D01*
X111883677Y-98402218D01*
X111883236Y-98406539D01*
X111883218Y-98408023D01*
X111883374Y-98408394D01*
X111883351Y-98408859D01*
X111881814Y-98418730D01*
X111882579Y-98424578D01*
X111882558Y-98425000D01*
X111882634Y-98425000D01*
X111883502Y-98431639D01*
X111883502Y-98431641D01*
X111899518Y-98554117D01*
X111900682Y-98563016D01*
X111959287Y-98696207D01*
X112052920Y-98807596D01*
X112174051Y-98888228D01*
X112312945Y-98931622D01*
X112321917Y-98931786D01*
X112321920Y-98931787D01*
X112376407Y-98932785D01*
X112395000Y-98933126D01*
X112395000Y-136651950D01*
X112325348Y-136651524D01*
X112185435Y-136691512D01*
X112062369Y-136769160D01*
X111966044Y-136878228D01*
X111904201Y-137009948D01*
X111902821Y-137018810D01*
X111902820Y-137018814D01*
X111883195Y-137144857D01*
X111883195Y-137144861D01*
X111881814Y-137153730D01*
X111882634Y-137160000D01*
X111882558Y-137160000D01*
X111883174Y-137172539D01*
X111884305Y-137195560D01*
X111884259Y-137208807D01*
X111871804Y-137430592D01*
X111870627Y-137451545D01*
X111869045Y-137465586D01*
X111821319Y-137746485D01*
X111818176Y-137760257D01*
X111739293Y-138034065D01*
X111734632Y-138047385D01*
X111656408Y-138236234D01*
X111625592Y-138310631D01*
X111619461Y-138323362D01*
X111481635Y-138572738D01*
X111474118Y-138584701D01*
X111309242Y-138817073D01*
X111300433Y-138828120D01*
X111110569Y-139040578D01*
X111100578Y-139050569D01*
X110888121Y-139240432D01*
X110877073Y-139249242D01*
X110644701Y-139414118D01*
X110632738Y-139421635D01*
X110383358Y-139559463D01*
X110370635Y-139565590D01*
X110107385Y-139674632D01*
X110094065Y-139679293D01*
X109820257Y-139758176D01*
X109806492Y-139761317D01*
X109525579Y-139809046D01*
X109511550Y-139810626D01*
X109423216Y-139815587D01*
X109262378Y-139824620D01*
X109235932Y-139823318D01*
X109235150Y-139823196D01*
X109235144Y-139823196D01*
X109226270Y-139821814D01*
X109194749Y-139825936D01*
X109178411Y-139827000D01*
X89097752Y-139827000D01*
X89029631Y-139806998D01*
X88983138Y-139753342D01*
X88973034Y-139683068D01*
X89000039Y-139621450D01*
X89195751Y-139381055D01*
X89200164Y-139374914D01*
X89370349Y-139105187D01*
X89374005Y-139098536D01*
X89510544Y-138810335D01*
X89513375Y-138803295D01*
X89614306Y-138500767D01*
X89616270Y-138493433D01*
X89680122Y-138180989D01*
X89681194Y-138173465D01*
X89707173Y-137854051D01*
X89707378Y-137849576D01*
X89707927Y-137797221D01*
X89707817Y-137792789D01*
X89688529Y-137472853D01*
X89687621Y-137465351D01*
X89630319Y-137151593D01*
X89628518Y-137144260D01*
X89533935Y-136839655D01*
X89531263Y-136832583D01*
X89400781Y-136541570D01*
X89397264Y-136534843D01*
X89232771Y-136261621D01*
X89228481Y-136255377D01*
X89092991Y-136081647D01*
X89081199Y-136073178D01*
X89069486Y-136079725D01*
X87354210Y-137795000D01*
X87084095Y-138065115D01*
X87021783Y-138099141D01*
X86950967Y-138094076D01*
X86905905Y-138065115D01*
X86635790Y-137795000D01*
X84921445Y-136080656D01*
X84908510Y-136073593D01*
X84897948Y-136081253D01*
X84777766Y-136232072D01*
X84773410Y-136238270D01*
X84606059Y-136509764D01*
X84602479Y-136516440D01*
X84468956Y-136806074D01*
X84466206Y-136813125D01*
X84368444Y-137116708D01*
X84366561Y-137124041D01*
X84305979Y-137437170D01*
X84304992Y-137444670D01*
X84282467Y-137762802D01*
X84282388Y-137770383D01*
X84298245Y-138088914D01*
X84299076Y-138096443D01*
X84353085Y-138410759D01*
X84354818Y-138418146D01*
X84446196Y-138723695D01*
X84448799Y-138730808D01*
X84576227Y-139023173D01*
X84579669Y-139029929D01*
X84741296Y-139304865D01*
X84745519Y-139311150D01*
X84939010Y-139564684D01*
X84943961Y-139570420D01*
X84985518Y-139613079D01*
X85018725Y-139675831D01*
X85012733Y-139746574D01*
X84969446Y-139802848D01*
X84902607Y-139826786D01*
X84895264Y-139827000D01*
X65708328Y-139827000D01*
X65688943Y-139825500D01*
X65674142Y-139823195D01*
X65674139Y-139823195D01*
X65665270Y-139821814D01*
X65656368Y-139822978D01*
X65656366Y-139822978D01*
X65652038Y-139823544D01*
X65647305Y-139824163D01*
X65623907Y-139825029D01*
X65367450Y-139810626D01*
X65353421Y-139809046D01*
X65072508Y-139761317D01*
X65058743Y-139758176D01*
X64784935Y-139679293D01*
X64771615Y-139674632D01*
X64508365Y-139565590D01*
X64495642Y-139559463D01*
X64246262Y-139421635D01*
X64234299Y-139414118D01*
X64001927Y-139249242D01*
X63990879Y-139240432D01*
X63778422Y-139050569D01*
X63768431Y-139040578D01*
X63578567Y-138828120D01*
X63569758Y-138817073D01*
X63404882Y-138584701D01*
X63397365Y-138572738D01*
X63259539Y-138323362D01*
X63253408Y-138310631D01*
X63222592Y-138236234D01*
X63144368Y-138047385D01*
X63139707Y-138034065D01*
X63060824Y-137760257D01*
X63057681Y-137746485D01*
X63009955Y-137465586D01*
X63008373Y-137451545D01*
X63007566Y-137437170D01*
X62994587Y-137206068D01*
X62995909Y-137182196D01*
X62995829Y-137182189D01*
X62996039Y-137179847D01*
X62996136Y-137178096D01*
X62996265Y-137177332D01*
X62996265Y-137177327D01*
X62997071Y-137172539D01*
X62997224Y-137160000D01*
X62993273Y-137132412D01*
X62992000Y-137114549D01*
X62992000Y-135708423D01*
X85272917Y-135708423D01*
X85279520Y-135720309D01*
X86982190Y-137422980D01*
X86996131Y-137430592D01*
X86997966Y-137430461D01*
X87004580Y-137426210D01*
X88709559Y-135721230D01*
X88716571Y-135708389D01*
X88708777Y-135697701D01*
X88546298Y-135569613D01*
X88540075Y-135565288D01*
X88267702Y-135399357D01*
X88261025Y-135395822D01*
X87970686Y-135263813D01*
X87963616Y-135261099D01*
X87659537Y-135164932D01*
X87652186Y-135163085D01*
X87338746Y-135104142D01*
X87331237Y-135103194D01*
X87012989Y-135082335D01*
X87005424Y-135082295D01*
X86686964Y-135099821D01*
X86679450Y-135100690D01*
X86365405Y-135156348D01*
X86358044Y-135158115D01*
X86052980Y-135251092D01*
X86045860Y-135253740D01*
X85754182Y-135382690D01*
X85747445Y-135386167D01*
X85473355Y-135549233D01*
X85467091Y-135553490D01*
X85281385Y-135696762D01*
X85272917Y-135708423D01*
X62992000Y-135708423D01*
X62992000Y-120029691D01*
X80649501Y-120029691D01*
X80669091Y-120528291D01*
X80727740Y-121023816D01*
X80825087Y-121513213D01*
X80960532Y-121993463D01*
X81133239Y-122461606D01*
X81342144Y-122914755D01*
X81585958Y-123350117D01*
X81863179Y-123765007D01*
X82172097Y-124156868D01*
X82510808Y-124523283D01*
X82877223Y-124861994D01*
X83269084Y-125170912D01*
X83683974Y-125448133D01*
X83943680Y-125593575D01*
X84117187Y-125690744D01*
X84117197Y-125690749D01*
X84119336Y-125691947D01*
X84572485Y-125900852D01*
X85040628Y-126073559D01*
X85043012Y-126074231D01*
X85043017Y-126074233D01*
X85518490Y-126208331D01*
X85518502Y-126208334D01*
X85520878Y-126209004D01*
X85523298Y-126209485D01*
X85523309Y-126209488D01*
X85837867Y-126272057D01*
X86010275Y-126306351D01*
X86170174Y-126325276D01*
X86503346Y-126364710D01*
X86503357Y-126364711D01*
X86505800Y-126365000D01*
X87004400Y-126384590D01*
X87503000Y-126365000D01*
X87505443Y-126364711D01*
X87505454Y-126364710D01*
X87838626Y-126325276D01*
X87998525Y-126306351D01*
X88170933Y-126272057D01*
X88485491Y-126209488D01*
X88485502Y-126209485D01*
X88487922Y-126209004D01*
X88490298Y-126208334D01*
X88490310Y-126208331D01*
X88965783Y-126074233D01*
X88965788Y-126074231D01*
X88968172Y-126073559D01*
X89436315Y-125900852D01*
X89889464Y-125691947D01*
X89891603Y-125690749D01*
X89891613Y-125690744D01*
X90065120Y-125593575D01*
X90324826Y-125448133D01*
X90739716Y-125170912D01*
X91131577Y-124861994D01*
X91497992Y-124523283D01*
X91836703Y-124156868D01*
X92145621Y-123765007D01*
X92422842Y-123350117D01*
X92666656Y-122914755D01*
X92875561Y-122461606D01*
X93048268Y-121993463D01*
X93183713Y-121513213D01*
X93281060Y-121023816D01*
X93339709Y-120528291D01*
X93359299Y-120029691D01*
X93339709Y-119531091D01*
X93281060Y-119035566D01*
X93183713Y-118546169D01*
X93048268Y-118065919D01*
X92875561Y-117597776D01*
X92666656Y-117144627D01*
X92422842Y-116709265D01*
X92145621Y-116294375D01*
X91836703Y-115902514D01*
X91497992Y-115536099D01*
X91131577Y-115197388D01*
X90739716Y-114888470D01*
X90324826Y-114611249D01*
X90065120Y-114465807D01*
X89891613Y-114368638D01*
X89891603Y-114368633D01*
X89889464Y-114367435D01*
X89436315Y-114158530D01*
X88968172Y-113985823D01*
X88965788Y-113985151D01*
X88965783Y-113985149D01*
X88490310Y-113851051D01*
X88490298Y-113851048D01*
X88487922Y-113850378D01*
X88485502Y-113849897D01*
X88485491Y-113849894D01*
X88170933Y-113787325D01*
X87998525Y-113753031D01*
X87838626Y-113734106D01*
X87505454Y-113694672D01*
X87505443Y-113694671D01*
X87503000Y-113694382D01*
X87004400Y-113674792D01*
X86505800Y-113694382D01*
X86503357Y-113694671D01*
X86503346Y-113694672D01*
X86170174Y-113734106D01*
X86010275Y-113753031D01*
X85837867Y-113787325D01*
X85523309Y-113849894D01*
X85523298Y-113849897D01*
X85520878Y-113850378D01*
X85518502Y-113851048D01*
X85518490Y-113851051D01*
X85043017Y-113985149D01*
X85043012Y-113985151D01*
X85040628Y-113985823D01*
X84572485Y-114158530D01*
X84119336Y-114367435D01*
X84117197Y-114368633D01*
X84117187Y-114368638D01*
X83943680Y-114465807D01*
X83683974Y-114611249D01*
X83269084Y-114888470D01*
X82877223Y-115197388D01*
X82510808Y-115536099D01*
X82172097Y-115902514D01*
X81863179Y-116294375D01*
X81585958Y-116709265D01*
X81342144Y-117144627D01*
X81133239Y-117597776D01*
X80960532Y-118065919D01*
X80825087Y-118546169D01*
X80727740Y-119035566D01*
X80669091Y-119531091D01*
X80649501Y-120029691D01*
X62992000Y-120029691D01*
X62992000Y-105210423D01*
X63556703Y-105210423D01*
X63564227Y-105220854D01*
X63703483Y-105333020D01*
X63709657Y-105337408D01*
X63980271Y-105506178D01*
X63986931Y-105509794D01*
X64275852Y-105644827D01*
X64282905Y-105647620D01*
X64585970Y-105746970D01*
X64593282Y-105748888D01*
X64906092Y-105811109D01*
X64913590Y-105812137D01*
X65231610Y-105836328D01*
X65239173Y-105836446D01*
X65557785Y-105822257D01*
X65565326Y-105821465D01*
X65879924Y-105769101D01*
X65887302Y-105767411D01*
X66193355Y-105677625D01*
X66200450Y-105675071D01*
X66493496Y-105549169D01*
X66500263Y-105545765D01*
X66776042Y-105385580D01*
X66782349Y-105381390D01*
X66992305Y-105222889D01*
X67000761Y-105211496D01*
X67000172Y-105210423D01*
X107752703Y-105210423D01*
X107760227Y-105220854D01*
X107899483Y-105333020D01*
X107905657Y-105337408D01*
X108176271Y-105506178D01*
X108182931Y-105509794D01*
X108471852Y-105644827D01*
X108478905Y-105647620D01*
X108781970Y-105746970D01*
X108789282Y-105748888D01*
X109102092Y-105811109D01*
X109109590Y-105812137D01*
X109427610Y-105836328D01*
X109435173Y-105836446D01*
X109753785Y-105822257D01*
X109761326Y-105821465D01*
X110075924Y-105769101D01*
X110083302Y-105767411D01*
X110389355Y-105677625D01*
X110396450Y-105675071D01*
X110689496Y-105549169D01*
X110696263Y-105545765D01*
X110972042Y-105385580D01*
X110978349Y-105381390D01*
X111188305Y-105222889D01*
X111196761Y-105211496D01*
X111190045Y-105199256D01*
X109486810Y-103496020D01*
X109472869Y-103488408D01*
X109471034Y-103488539D01*
X109464420Y-103492790D01*
X107759818Y-105197393D01*
X107752703Y-105210423D01*
X67000172Y-105210423D01*
X66994045Y-105199256D01*
X65290810Y-103496020D01*
X65276869Y-103488408D01*
X65275034Y-103488539D01*
X65268420Y-103492790D01*
X63563818Y-105197393D01*
X63556703Y-105210423D01*
X62992000Y-105210423D01*
X62992000Y-104949121D01*
X63012002Y-104881000D01*
X63065658Y-104834507D01*
X63135932Y-104824403D01*
X63190454Y-104846691D01*
X63203054Y-104839735D01*
X64905980Y-103136810D01*
X64912357Y-103125131D01*
X65642408Y-103125131D01*
X65642539Y-103126966D01*
X65646790Y-103133580D01*
X67351285Y-104838074D01*
X67364408Y-104845240D01*
X67374709Y-104837851D01*
X67478751Y-104710055D01*
X67483164Y-104703914D01*
X67653349Y-104434187D01*
X67657005Y-104427536D01*
X67793544Y-104139335D01*
X67796375Y-104132295D01*
X67897306Y-103829767D01*
X67899270Y-103822433D01*
X67963122Y-103509989D01*
X67964194Y-103502465D01*
X67990173Y-103183051D01*
X67990378Y-103178576D01*
X67990927Y-103126221D01*
X67990817Y-103121789D01*
X67989466Y-103099383D01*
X106761388Y-103099383D01*
X106777245Y-103417914D01*
X106778076Y-103425443D01*
X106832085Y-103739759D01*
X106833818Y-103747146D01*
X106925196Y-104052695D01*
X106927799Y-104059808D01*
X107055227Y-104352173D01*
X107058669Y-104358929D01*
X107220296Y-104633865D01*
X107224519Y-104640150D01*
X107375463Y-104837934D01*
X107386989Y-104846396D01*
X107399054Y-104839735D01*
X109101980Y-103136810D01*
X109108357Y-103125131D01*
X109838408Y-103125131D01*
X109838539Y-103126966D01*
X109842790Y-103133580D01*
X111547285Y-104838074D01*
X111560408Y-104845240D01*
X111570709Y-104837851D01*
X111674751Y-104710055D01*
X111679164Y-104703914D01*
X111849349Y-104434187D01*
X111853005Y-104427536D01*
X111989544Y-104139335D01*
X111992375Y-104132295D01*
X112093306Y-103829767D01*
X112095270Y-103822433D01*
X112159122Y-103509989D01*
X112160194Y-103502465D01*
X112186173Y-103183051D01*
X112186378Y-103178576D01*
X112186927Y-103126221D01*
X112186817Y-103121789D01*
X112167529Y-102801853D01*
X112166621Y-102794351D01*
X112109319Y-102480593D01*
X112107518Y-102473260D01*
X112012935Y-102168655D01*
X112010263Y-102161583D01*
X111879781Y-101870570D01*
X111876264Y-101863843D01*
X111711771Y-101590621D01*
X111707481Y-101584377D01*
X111571991Y-101410647D01*
X111560199Y-101402178D01*
X111548486Y-101408725D01*
X109846020Y-103111190D01*
X109838408Y-103125131D01*
X109108357Y-103125131D01*
X109109592Y-103122869D01*
X109109461Y-103121034D01*
X109105210Y-103114420D01*
X107400445Y-101409656D01*
X107387510Y-101402592D01*
X107376949Y-101410252D01*
X107256766Y-101561072D01*
X107252410Y-101567270D01*
X107085059Y-101838764D01*
X107081479Y-101845440D01*
X106947956Y-102135074D01*
X106945206Y-102142125D01*
X106847444Y-102445708D01*
X106845561Y-102453041D01*
X106784979Y-102766170D01*
X106783992Y-102773670D01*
X106761467Y-103091802D01*
X106761388Y-103099383D01*
X67989466Y-103099383D01*
X67971529Y-102801853D01*
X67970621Y-102794351D01*
X67913319Y-102480593D01*
X67911518Y-102473260D01*
X67816935Y-102168655D01*
X67814263Y-102161583D01*
X67683781Y-101870570D01*
X67680264Y-101863843D01*
X67515771Y-101590621D01*
X67511481Y-101584377D01*
X67375991Y-101410647D01*
X67364199Y-101402178D01*
X67352486Y-101408725D01*
X65650020Y-103111190D01*
X65642408Y-103125131D01*
X64912357Y-103125131D01*
X64913592Y-103122869D01*
X64913461Y-103121034D01*
X64909210Y-103114420D01*
X63204445Y-101409656D01*
X63191318Y-101402488D01*
X63125088Y-101426056D01*
X63055950Y-101409918D01*
X63006512Y-101358963D01*
X62992000Y-101300256D01*
X62992000Y-101037423D01*
X63555917Y-101037423D01*
X63562520Y-101049309D01*
X65265190Y-102751980D01*
X65279131Y-102759592D01*
X65280966Y-102759461D01*
X65287580Y-102755210D01*
X66992559Y-101050230D01*
X66999552Y-101037423D01*
X107751917Y-101037423D01*
X107758520Y-101049309D01*
X109461190Y-102751980D01*
X109475131Y-102759592D01*
X109476966Y-102759461D01*
X109483580Y-102755210D01*
X111188559Y-101050230D01*
X111195571Y-101037389D01*
X111187777Y-101026701D01*
X111025298Y-100898613D01*
X111019075Y-100894288D01*
X110746702Y-100728357D01*
X110740025Y-100724822D01*
X110449686Y-100592813D01*
X110442616Y-100590099D01*
X110138537Y-100493932D01*
X110131186Y-100492085D01*
X109817746Y-100433142D01*
X109810237Y-100432194D01*
X109491989Y-100411335D01*
X109484424Y-100411295D01*
X109165964Y-100428821D01*
X109158450Y-100429690D01*
X108844405Y-100485348D01*
X108837044Y-100487115D01*
X108531980Y-100580092D01*
X108524860Y-100582740D01*
X108233182Y-100711690D01*
X108226445Y-100715167D01*
X107952355Y-100878233D01*
X107946091Y-100882490D01*
X107760385Y-101025762D01*
X107751917Y-101037423D01*
X66999552Y-101037423D01*
X66999571Y-101037389D01*
X66991777Y-101026701D01*
X66829298Y-100898613D01*
X66823075Y-100894288D01*
X66550702Y-100728357D01*
X66544025Y-100724822D01*
X66253686Y-100592813D01*
X66246616Y-100590099D01*
X65942537Y-100493932D01*
X65935186Y-100492085D01*
X65621746Y-100433142D01*
X65614237Y-100432194D01*
X65295989Y-100411335D01*
X65288424Y-100411295D01*
X64969964Y-100428821D01*
X64962450Y-100429690D01*
X64648405Y-100485348D01*
X64641044Y-100487115D01*
X64335980Y-100580092D01*
X64328860Y-100582740D01*
X64037182Y-100711690D01*
X64030445Y-100715167D01*
X63756355Y-100878233D01*
X63750091Y-100882490D01*
X63564385Y-101025762D01*
X63555917Y-101037423D01*
X62992000Y-101037423D01*
X62992000Y-98478207D01*
X62993746Y-98457303D01*
X62996264Y-98442335D01*
X62997071Y-98437539D01*
X62997224Y-98425000D01*
X62995249Y-98411207D01*
X62994175Y-98386282D01*
X63008373Y-98133455D01*
X63009955Y-98119414D01*
X63057681Y-97838515D01*
X63060825Y-97824740D01*
X63095144Y-97705616D01*
X63139707Y-97550935D01*
X63144368Y-97537615D01*
X63253410Y-97274365D01*
X63259539Y-97261638D01*
X63397365Y-97012262D01*
X63404882Y-97000299D01*
X63569758Y-96767927D01*
X63578568Y-96756879D01*
X63768431Y-96544422D01*
X63778422Y-96534431D01*
X63990879Y-96344568D01*
X64001927Y-96335758D01*
X64234299Y-96170882D01*
X64246262Y-96163365D01*
X64386764Y-96085712D01*
X64495642Y-96025537D01*
X64508365Y-96019410D01*
X64771615Y-95910368D01*
X64784935Y-95905707D01*
X65058743Y-95826824D01*
X65072508Y-95823683D01*
X65353421Y-95775954D01*
X65367450Y-95774374D01*
X65505687Y-95766610D01*
X65610182Y-95760741D01*
X65623431Y-95760695D01*
X65628600Y-95760949D01*
X65636811Y-95761838D01*
X65636812Y-95761829D01*
X65641660Y-95762263D01*
X65646461Y-95763071D01*
X65652462Y-95763144D01*
X65652730Y-95763186D01*
X65652999Y-95763151D01*
X65659000Y-95763224D01*
X65727267Y-95753448D01*
X65728684Y-95753254D01*
X65756536Y-95749612D01*
X65797016Y-95744318D01*
X65799912Y-95743044D01*
X65803045Y-95742595D01*
X65865747Y-95714086D01*
X65867153Y-95713457D01*
X65867529Y-95713291D01*
X65930207Y-95685713D01*
X65932629Y-95683677D01*
X65935510Y-95682367D01*
X65987758Y-95637347D01*
X65988905Y-95636371D01*
X65997370Y-95629256D01*
X66041596Y-95592080D01*
X66043348Y-95589448D01*
X66045747Y-95587381D01*
X66083277Y-95529480D01*
X66084025Y-95528341D01*
X66122228Y-95470949D01*
X66123172Y-95467929D01*
X66124893Y-95465273D01*
X66137736Y-95422328D01*
X66144626Y-95399291D01*
X66145076Y-95397819D01*
X66163231Y-95339708D01*
X66165622Y-95332055D01*
X66165680Y-95328892D01*
X66166587Y-95325859D01*
X66167009Y-95256886D01*
X66167027Y-95255409D01*
X66167127Y-95250000D01*
X86049872Y-95250000D01*
X86302970Y-95332970D01*
G37*
%TD.AperFunction*%
%TA.AperFunction,Conductor*%
G36*
X86327683Y-138207273D02*
G01*
X86372746Y-138236234D01*
X86553766Y-138417254D01*
X86587792Y-138479566D01*
X86582727Y-138550381D01*
X86553766Y-138595444D01*
X85461992Y-139687218D01*
X85399680Y-139721244D01*
X85328865Y-139716179D01*
X85283802Y-139687218D01*
X85102782Y-139506198D01*
X85068756Y-139443886D01*
X85073821Y-139373071D01*
X85102782Y-139328008D01*
X86194556Y-138236234D01*
X86256868Y-138202208D01*
X86327683Y-138207273D01*
G37*
%TD.AperFunction*%
%TA.AperFunction,Conductor*%
G36*
X87750381Y-138207273D02*
G01*
X87795444Y-138236234D01*
X88887218Y-139328008D01*
X88921244Y-139390320D01*
X88916179Y-139461135D01*
X88887218Y-139506198D01*
X88706198Y-139687218D01*
X88643886Y-139721244D01*
X88573071Y-139716179D01*
X88528008Y-139687218D01*
X87436234Y-138595444D01*
X87402208Y-138533132D01*
X87407273Y-138462317D01*
X87436234Y-138417254D01*
X87617254Y-138236234D01*
X87679566Y-138202208D01*
X87750381Y-138207273D01*
G37*
%TD.AperFunction*%
%TA.AperFunction,Conductor*%
G36*
X136213970Y-95332970D02*
G01*
X136221282Y-95334888D01*
X136534092Y-95397109D01*
X136541590Y-95398137D01*
X136859610Y-95422328D01*
X136867173Y-95422446D01*
X137185785Y-95408257D01*
X137193326Y-95407465D01*
X137507924Y-95355101D01*
X137515302Y-95353411D01*
X137821355Y-95263625D01*
X137828450Y-95261071D01*
X137854219Y-95250000D01*
X158622873Y-95250000D01*
X158621711Y-95313435D01*
X158622543Y-95316488D01*
X158622524Y-95319652D01*
X158641486Y-95385994D01*
X158641827Y-95387218D01*
X158659986Y-95453826D01*
X158661643Y-95456525D01*
X158662512Y-95459565D01*
X158666789Y-95466343D01*
X158666789Y-95466344D01*
X158699265Y-95517816D01*
X158700078Y-95519122D01*
X158736126Y-95577831D01*
X158738470Y-95579953D01*
X158740160Y-95582631D01*
X158791848Y-95628280D01*
X158792939Y-95629256D01*
X158844009Y-95675482D01*
X158846857Y-95676862D01*
X158849228Y-95678956D01*
X158863620Y-95685713D01*
X158911579Y-95708230D01*
X158912968Y-95708893D01*
X158967745Y-95735433D01*
X158967751Y-95735435D01*
X158974963Y-95738929D01*
X158978083Y-95739454D01*
X158980948Y-95740799D01*
X158988876Y-95742033D01*
X158988878Y-95742034D01*
X159010215Y-95745356D01*
X159049054Y-95751403D01*
X159050461Y-95751631D01*
X159118461Y-95763071D01*
X159124462Y-95763144D01*
X159124730Y-95763186D01*
X159124999Y-95763151D01*
X159131000Y-95763224D01*
X159135822Y-95762534D01*
X159139379Y-95762302D01*
X159145179Y-95761746D01*
X159166563Y-95760696D01*
X159179806Y-95760742D01*
X159338383Y-95769647D01*
X159422548Y-95774373D01*
X159436579Y-95775954D01*
X159717492Y-95823683D01*
X159731257Y-95826824D01*
X160005065Y-95905707D01*
X160018385Y-95910368D01*
X160281635Y-96019410D01*
X160294358Y-96025537D01*
X160403236Y-96085712D01*
X160543738Y-96163365D01*
X160555701Y-96170882D01*
X160788073Y-96335758D01*
X160799121Y-96344568D01*
X161011578Y-96534431D01*
X161021569Y-96544422D01*
X161211432Y-96756879D01*
X161220242Y-96767927D01*
X161385118Y-97000299D01*
X161392635Y-97012262D01*
X161530461Y-97261638D01*
X161536590Y-97274365D01*
X161645632Y-97537615D01*
X161650293Y-97550935D01*
X161694856Y-97705616D01*
X161729175Y-97824740D01*
X161732319Y-97838515D01*
X161780045Y-98119414D01*
X161781627Y-98133455D01*
X161795620Y-98382622D01*
X161794318Y-98409068D01*
X161794196Y-98409850D01*
X161794196Y-98409856D01*
X161792814Y-98418730D01*
X161794638Y-98432678D01*
X161796936Y-98450251D01*
X161798000Y-98466589D01*
X161798000Y-101448115D01*
X161777998Y-101516236D01*
X161724342Y-101562729D01*
X161654068Y-101572833D01*
X161589488Y-101543339D01*
X161572643Y-101525602D01*
X161482991Y-101410647D01*
X161471199Y-101402178D01*
X161459486Y-101408725D01*
X159757020Y-103111190D01*
X159749408Y-103125131D01*
X159749539Y-103126966D01*
X159753790Y-103133580D01*
X161458285Y-104838074D01*
X161471408Y-104845240D01*
X161481709Y-104837851D01*
X161574287Y-104724136D01*
X161632807Y-104683937D01*
X161703770Y-104681757D01*
X161764646Y-104718289D01*
X161796108Y-104781934D01*
X161798000Y-104803686D01*
X161798000Y-137110672D01*
X161796500Y-137130057D01*
X161794289Y-137144260D01*
X161792814Y-137153730D01*
X161793978Y-137162632D01*
X161793978Y-137162634D01*
X161795163Y-137171692D01*
X161796029Y-137195093D01*
X161782804Y-137430592D01*
X161781627Y-137451545D01*
X161780045Y-137465586D01*
X161732319Y-137746485D01*
X161729176Y-137760257D01*
X161650293Y-138034065D01*
X161645632Y-138047385D01*
X161567408Y-138236234D01*
X161536592Y-138310631D01*
X161530461Y-138323362D01*
X161392635Y-138572738D01*
X161385118Y-138584701D01*
X161220242Y-138817073D01*
X161211433Y-138828120D01*
X161021569Y-139040578D01*
X161011578Y-139050569D01*
X160799121Y-139240432D01*
X160788073Y-139249242D01*
X160555701Y-139414118D01*
X160543738Y-139421635D01*
X160294358Y-139559463D01*
X160281635Y-139565590D01*
X160018385Y-139674632D01*
X160005065Y-139679293D01*
X159731257Y-139758176D01*
X159717492Y-139761317D01*
X159436579Y-139809046D01*
X159422550Y-139810626D01*
X159334216Y-139815587D01*
X159173378Y-139824620D01*
X159146932Y-139823318D01*
X159146150Y-139823196D01*
X159146144Y-139823196D01*
X159137270Y-139821814D01*
X159105749Y-139825936D01*
X159089411Y-139827000D01*
X139008752Y-139827000D01*
X138940631Y-139806998D01*
X138894138Y-139753342D01*
X138884034Y-139683068D01*
X138911039Y-139621450D01*
X139106751Y-139381055D01*
X139111164Y-139374914D01*
X139281349Y-139105187D01*
X139285005Y-139098536D01*
X139421544Y-138810335D01*
X139424375Y-138803295D01*
X139525306Y-138500767D01*
X139527270Y-138493433D01*
X139591122Y-138180989D01*
X139592194Y-138173465D01*
X139618173Y-137854051D01*
X139618378Y-137849576D01*
X139618927Y-137797221D01*
X139618817Y-137792789D01*
X139599529Y-137472853D01*
X139598621Y-137465351D01*
X139541319Y-137151593D01*
X139539518Y-137144260D01*
X139444935Y-136839655D01*
X139442263Y-136832583D01*
X139311781Y-136541570D01*
X139308264Y-136534843D01*
X139143771Y-136261621D01*
X139139481Y-136255377D01*
X139003991Y-136081647D01*
X138992199Y-136073178D01*
X138980486Y-136079725D01*
X137265210Y-137795000D01*
X136995095Y-138065115D01*
X136932783Y-138099141D01*
X136861967Y-138094076D01*
X136816905Y-138065115D01*
X136546790Y-137795000D01*
X134832445Y-136080656D01*
X134819510Y-136073593D01*
X134808948Y-136081253D01*
X134688766Y-136232072D01*
X134684410Y-136238270D01*
X134517059Y-136509764D01*
X134513479Y-136516440D01*
X134379956Y-136806074D01*
X134377206Y-136813125D01*
X134279444Y-137116708D01*
X134277561Y-137124041D01*
X134216979Y-137437170D01*
X134215992Y-137444670D01*
X134193467Y-137762802D01*
X134193388Y-137770383D01*
X134209245Y-138088914D01*
X134210076Y-138096443D01*
X134264085Y-138410759D01*
X134265818Y-138418146D01*
X134357196Y-138723695D01*
X134359799Y-138730808D01*
X134487227Y-139023173D01*
X134490669Y-139029929D01*
X134652296Y-139304865D01*
X134656519Y-139311150D01*
X134850010Y-139564684D01*
X134854961Y-139570420D01*
X134896518Y-139613079D01*
X134929725Y-139675831D01*
X134923733Y-139746574D01*
X134880446Y-139802848D01*
X134813607Y-139826786D01*
X134806264Y-139827000D01*
X115619328Y-139827000D01*
X115599943Y-139825500D01*
X115585142Y-139823195D01*
X115585139Y-139823195D01*
X115576270Y-139821814D01*
X115567368Y-139822978D01*
X115567366Y-139822978D01*
X115563038Y-139823544D01*
X115558305Y-139824163D01*
X115534907Y-139825029D01*
X115278450Y-139810626D01*
X115264421Y-139809046D01*
X114983508Y-139761317D01*
X114969743Y-139758176D01*
X114695935Y-139679293D01*
X114682615Y-139674632D01*
X114419365Y-139565590D01*
X114406642Y-139559463D01*
X114157262Y-139421635D01*
X114145299Y-139414118D01*
X113912927Y-139249242D01*
X113901879Y-139240432D01*
X113689422Y-139050569D01*
X113679431Y-139040578D01*
X113489567Y-138828120D01*
X113480758Y-138817073D01*
X113315882Y-138584701D01*
X113308365Y-138572738D01*
X113170539Y-138323362D01*
X113164408Y-138310631D01*
X113133592Y-138236234D01*
X113055368Y-138047385D01*
X113050707Y-138034065D01*
X112971824Y-137760257D01*
X112968681Y-137746485D01*
X112920955Y-137465586D01*
X112919373Y-137451545D01*
X112918197Y-137430592D01*
X112905742Y-137208810D01*
X112905695Y-137195577D01*
X112905948Y-137190415D01*
X112906838Y-137182187D01*
X112906829Y-137182186D01*
X112907263Y-137177342D01*
X112908071Y-137172539D01*
X112908224Y-137160000D01*
X112887595Y-137015955D01*
X112827367Y-136883490D01*
X112799238Y-136850845D01*
X112738239Y-136780051D01*
X112738237Y-136780049D01*
X112732381Y-136773253D01*
X112610273Y-136694107D01*
X112470859Y-136652413D01*
X112461883Y-136652358D01*
X112461882Y-136652358D01*
X112445050Y-136652255D01*
X112395000Y-136651950D01*
X112395000Y-135708423D01*
X135183917Y-135708423D01*
X135190520Y-135720309D01*
X136893190Y-137422980D01*
X136907131Y-137430592D01*
X136908966Y-137430461D01*
X136915580Y-137426210D01*
X138620559Y-135721230D01*
X138627571Y-135708389D01*
X138619777Y-135697701D01*
X138457298Y-135569613D01*
X138451075Y-135565288D01*
X138178702Y-135399357D01*
X138172025Y-135395822D01*
X137881686Y-135263813D01*
X137874616Y-135261099D01*
X137570537Y-135164932D01*
X137563186Y-135163085D01*
X137249746Y-135104142D01*
X137242237Y-135103194D01*
X136923989Y-135082335D01*
X136916424Y-135082295D01*
X136597964Y-135099821D01*
X136590450Y-135100690D01*
X136276405Y-135156348D01*
X136269044Y-135158115D01*
X135963980Y-135251092D01*
X135956860Y-135253740D01*
X135665182Y-135382690D01*
X135658445Y-135386167D01*
X135384355Y-135549233D01*
X135378091Y-135553490D01*
X135192385Y-135696762D01*
X135183917Y-135708423D01*
X112395000Y-135708423D01*
X112395000Y-120029691D01*
X130560501Y-120029691D01*
X130580091Y-120528291D01*
X130638740Y-121023816D01*
X130736087Y-121513213D01*
X130871532Y-121993463D01*
X131044239Y-122461606D01*
X131253144Y-122914755D01*
X131496958Y-123350117D01*
X131774179Y-123765007D01*
X132083097Y-124156868D01*
X132421808Y-124523283D01*
X132788223Y-124861994D01*
X133180084Y-125170912D01*
X133594974Y-125448133D01*
X133854680Y-125593575D01*
X134028187Y-125690744D01*
X134028197Y-125690749D01*
X134030336Y-125691947D01*
X134483485Y-125900852D01*
X134951628Y-126073559D01*
X134954012Y-126074231D01*
X134954017Y-126074233D01*
X135429490Y-126208331D01*
X135429502Y-126208334D01*
X135431878Y-126209004D01*
X135434298Y-126209485D01*
X135434309Y-126209488D01*
X135748867Y-126272057D01*
X135921275Y-126306351D01*
X136081174Y-126325276D01*
X136414346Y-126364710D01*
X136414357Y-126364711D01*
X136416800Y-126365000D01*
X136915400Y-126384590D01*
X137414000Y-126365000D01*
X137416443Y-126364711D01*
X137416454Y-126364710D01*
X137749626Y-126325276D01*
X137909525Y-126306351D01*
X138081933Y-126272057D01*
X138396491Y-126209488D01*
X138396502Y-126209485D01*
X138398922Y-126209004D01*
X138401298Y-126208334D01*
X138401310Y-126208331D01*
X138876783Y-126074233D01*
X138876788Y-126074231D01*
X138879172Y-126073559D01*
X139347315Y-125900852D01*
X139800464Y-125691947D01*
X139802603Y-125690749D01*
X139802613Y-125690744D01*
X139976120Y-125593575D01*
X140235826Y-125448133D01*
X140650716Y-125170912D01*
X141042577Y-124861994D01*
X141408992Y-124523283D01*
X141747703Y-124156868D01*
X142056621Y-123765007D01*
X142333842Y-123350117D01*
X142577656Y-122914755D01*
X142786561Y-122461606D01*
X142959268Y-121993463D01*
X143094713Y-121513213D01*
X143192060Y-121023816D01*
X143250709Y-120528291D01*
X143270299Y-120029691D01*
X143250709Y-119531091D01*
X143192060Y-119035566D01*
X143094713Y-118546169D01*
X142959268Y-118065919D01*
X142786561Y-117597776D01*
X142577656Y-117144627D01*
X142333842Y-116709265D01*
X142056621Y-116294375D01*
X141747703Y-115902514D01*
X141408992Y-115536099D01*
X141042577Y-115197388D01*
X140650716Y-114888470D01*
X140235826Y-114611249D01*
X139976120Y-114465807D01*
X139802613Y-114368638D01*
X139802603Y-114368633D01*
X139800464Y-114367435D01*
X139347315Y-114158530D01*
X138879172Y-113985823D01*
X138876788Y-113985151D01*
X138876783Y-113985149D01*
X138401310Y-113851051D01*
X138401298Y-113851048D01*
X138398922Y-113850378D01*
X138396502Y-113849897D01*
X138396491Y-113849894D01*
X138081933Y-113787325D01*
X137909525Y-113753031D01*
X137749626Y-113734106D01*
X137416454Y-113694672D01*
X137416443Y-113694671D01*
X137414000Y-113694382D01*
X136915400Y-113674792D01*
X136416800Y-113694382D01*
X136414357Y-113694671D01*
X136414346Y-113694672D01*
X136081174Y-113734106D01*
X135921275Y-113753031D01*
X135748867Y-113787325D01*
X135434309Y-113849894D01*
X135434298Y-113849897D01*
X135431878Y-113850378D01*
X135429502Y-113851048D01*
X135429490Y-113851051D01*
X134954017Y-113985149D01*
X134954012Y-113985151D01*
X134951628Y-113985823D01*
X134483485Y-114158530D01*
X134030336Y-114367435D01*
X134028197Y-114368633D01*
X134028187Y-114368638D01*
X133854680Y-114465807D01*
X133594974Y-114611249D01*
X133180084Y-114888470D01*
X132788223Y-115197388D01*
X132421808Y-115536099D01*
X132083097Y-115902514D01*
X131774179Y-116294375D01*
X131496958Y-116709265D01*
X131253144Y-117144627D01*
X131044239Y-117597776D01*
X130871532Y-118065919D01*
X130736087Y-118546169D01*
X130638740Y-119035566D01*
X130580091Y-119531091D01*
X130560501Y-120029691D01*
X112395000Y-120029691D01*
X112395000Y-105210423D01*
X113467703Y-105210423D01*
X113475227Y-105220854D01*
X113614483Y-105333020D01*
X113620657Y-105337408D01*
X113891271Y-105506178D01*
X113897931Y-105509794D01*
X114186852Y-105644827D01*
X114193905Y-105647620D01*
X114496970Y-105746970D01*
X114504282Y-105748888D01*
X114817092Y-105811109D01*
X114824590Y-105812137D01*
X115142610Y-105836328D01*
X115150173Y-105836446D01*
X115468785Y-105822257D01*
X115476326Y-105821465D01*
X115790924Y-105769101D01*
X115798302Y-105767411D01*
X116104355Y-105677625D01*
X116111450Y-105675071D01*
X116404496Y-105549169D01*
X116411263Y-105545765D01*
X116687042Y-105385580D01*
X116693349Y-105381390D01*
X116903305Y-105222889D01*
X116911761Y-105211496D01*
X116911172Y-105210423D01*
X157663703Y-105210423D01*
X157671227Y-105220854D01*
X157810483Y-105333020D01*
X157816657Y-105337408D01*
X158087271Y-105506178D01*
X158093931Y-105509794D01*
X158382852Y-105644827D01*
X158389905Y-105647620D01*
X158692970Y-105746970D01*
X158700282Y-105748888D01*
X159013092Y-105811109D01*
X159020590Y-105812137D01*
X159338610Y-105836328D01*
X159346173Y-105836446D01*
X159664785Y-105822257D01*
X159672326Y-105821465D01*
X159986924Y-105769101D01*
X159994302Y-105767411D01*
X160300355Y-105677625D01*
X160307450Y-105675071D01*
X160600496Y-105549169D01*
X160607263Y-105545765D01*
X160883042Y-105385580D01*
X160889349Y-105381390D01*
X161099305Y-105222889D01*
X161107761Y-105211496D01*
X161101045Y-105199256D01*
X159397810Y-103496020D01*
X159383869Y-103488408D01*
X159382034Y-103488539D01*
X159375420Y-103492790D01*
X157670818Y-105197393D01*
X157663703Y-105210423D01*
X116911172Y-105210423D01*
X116905045Y-105199256D01*
X115201810Y-103496020D01*
X115187869Y-103488408D01*
X115186034Y-103488539D01*
X115179420Y-103492790D01*
X113474818Y-105197393D01*
X113467703Y-105210423D01*
X112395000Y-105210423D01*
X112395000Y-103099383D01*
X112476388Y-103099383D01*
X112492245Y-103417914D01*
X112493076Y-103425443D01*
X112547085Y-103739759D01*
X112548818Y-103747146D01*
X112640196Y-104052695D01*
X112642799Y-104059808D01*
X112770227Y-104352173D01*
X112773669Y-104358929D01*
X112935296Y-104633865D01*
X112939519Y-104640150D01*
X113090463Y-104837934D01*
X113101989Y-104846396D01*
X113114054Y-104839735D01*
X114816980Y-103136810D01*
X114823357Y-103125131D01*
X115553408Y-103125131D01*
X115553539Y-103126966D01*
X115557790Y-103133580D01*
X117262285Y-104838074D01*
X117275408Y-104845240D01*
X117285709Y-104837851D01*
X117389751Y-104710055D01*
X117394164Y-104703914D01*
X117564349Y-104434187D01*
X117568005Y-104427536D01*
X117704544Y-104139335D01*
X117707375Y-104132295D01*
X117808306Y-103829767D01*
X117810270Y-103822433D01*
X117874122Y-103509989D01*
X117875194Y-103502465D01*
X117901173Y-103183051D01*
X117901378Y-103178576D01*
X117901927Y-103126221D01*
X117901817Y-103121789D01*
X117900466Y-103099383D01*
X156672388Y-103099383D01*
X156688245Y-103417914D01*
X156689076Y-103425443D01*
X156743085Y-103739759D01*
X156744818Y-103747146D01*
X156836196Y-104052695D01*
X156838799Y-104059808D01*
X156966227Y-104352173D01*
X156969669Y-104358929D01*
X157131296Y-104633865D01*
X157135519Y-104640150D01*
X157286463Y-104837934D01*
X157297989Y-104846396D01*
X157310054Y-104839735D01*
X159012980Y-103136810D01*
X159020592Y-103122869D01*
X159020461Y-103121034D01*
X159016210Y-103114420D01*
X157311445Y-101409656D01*
X157298510Y-101402592D01*
X157287949Y-101410252D01*
X157167766Y-101561072D01*
X157163410Y-101567270D01*
X156996059Y-101838764D01*
X156992479Y-101845440D01*
X156858956Y-102135074D01*
X156856206Y-102142125D01*
X156758444Y-102445708D01*
X156756561Y-102453041D01*
X156695979Y-102766170D01*
X156694992Y-102773670D01*
X156672467Y-103091802D01*
X156672388Y-103099383D01*
X117900466Y-103099383D01*
X117882529Y-102801853D01*
X117881621Y-102794351D01*
X117824319Y-102480593D01*
X117822518Y-102473260D01*
X117727935Y-102168655D01*
X117725263Y-102161583D01*
X117594781Y-101870570D01*
X117591264Y-101863843D01*
X117426771Y-101590621D01*
X117422481Y-101584377D01*
X117286991Y-101410647D01*
X117275199Y-101402178D01*
X117263486Y-101408725D01*
X115561020Y-103111190D01*
X115553408Y-103125131D01*
X114823357Y-103125131D01*
X114824592Y-103122869D01*
X114824461Y-103121034D01*
X114820210Y-103114420D01*
X113115445Y-101409656D01*
X113102510Y-101402592D01*
X113091949Y-101410252D01*
X112971766Y-101561072D01*
X112967410Y-101567270D01*
X112800059Y-101838764D01*
X112796479Y-101845440D01*
X112662956Y-102135074D01*
X112660206Y-102142125D01*
X112562444Y-102445708D01*
X112560561Y-102453041D01*
X112499979Y-102766170D01*
X112498992Y-102773670D01*
X112476467Y-103091802D01*
X112476388Y-103099383D01*
X112395000Y-103099383D01*
X112395000Y-101037423D01*
X113466917Y-101037423D01*
X113473520Y-101049309D01*
X115176190Y-102751980D01*
X115190131Y-102759592D01*
X115191966Y-102759461D01*
X115198580Y-102755210D01*
X116903559Y-101050230D01*
X116910552Y-101037423D01*
X157662917Y-101037423D01*
X157669520Y-101049309D01*
X159372190Y-102751980D01*
X159386131Y-102759592D01*
X159387966Y-102759461D01*
X159394580Y-102755210D01*
X161099559Y-101050230D01*
X161106571Y-101037389D01*
X161098777Y-101026701D01*
X160936298Y-100898613D01*
X160930075Y-100894288D01*
X160657702Y-100728357D01*
X160651025Y-100724822D01*
X160360686Y-100592813D01*
X160353616Y-100590099D01*
X160049537Y-100493932D01*
X160042186Y-100492085D01*
X159728746Y-100433142D01*
X159721237Y-100432194D01*
X159402989Y-100411335D01*
X159395424Y-100411295D01*
X159076964Y-100428821D01*
X159069450Y-100429690D01*
X158755405Y-100485348D01*
X158748044Y-100487115D01*
X158442980Y-100580092D01*
X158435860Y-100582740D01*
X158144182Y-100711690D01*
X158137445Y-100715167D01*
X157863355Y-100878233D01*
X157857091Y-100882490D01*
X157671385Y-101025762D01*
X157662917Y-101037423D01*
X116910552Y-101037423D01*
X116910571Y-101037389D01*
X116902777Y-101026701D01*
X116740298Y-100898613D01*
X116734075Y-100894288D01*
X116461702Y-100728357D01*
X116455025Y-100724822D01*
X116164686Y-100592813D01*
X116157616Y-100590099D01*
X115853537Y-100493932D01*
X115846186Y-100492085D01*
X115532746Y-100433142D01*
X115525237Y-100432194D01*
X115206989Y-100411335D01*
X115199424Y-100411295D01*
X114880964Y-100428821D01*
X114873450Y-100429690D01*
X114559405Y-100485348D01*
X114552044Y-100487115D01*
X114246980Y-100580092D01*
X114239860Y-100582740D01*
X113948182Y-100711690D01*
X113941445Y-100715167D01*
X113667355Y-100878233D01*
X113661091Y-100882490D01*
X113475385Y-101025762D01*
X113466917Y-101037423D01*
X112395000Y-101037423D01*
X112395000Y-98933126D01*
X112458435Y-98934289D01*
X112516985Y-98918326D01*
X112590167Y-98898375D01*
X112590169Y-98898374D01*
X112598826Y-98896014D01*
X112722831Y-98819874D01*
X112820482Y-98711991D01*
X112828130Y-98696207D01*
X112880015Y-98589116D01*
X112880016Y-98589114D01*
X112883929Y-98581037D01*
X112908071Y-98437539D01*
X112908224Y-98425000D01*
X112907533Y-98420176D01*
X112907302Y-98416626D01*
X112906746Y-98410822D01*
X112905696Y-98389439D01*
X112905742Y-98376195D01*
X112919373Y-98133456D01*
X112920955Y-98119414D01*
X112968681Y-97838515D01*
X112971825Y-97824740D01*
X113006144Y-97705616D01*
X113050707Y-97550935D01*
X113055368Y-97537615D01*
X113164410Y-97274365D01*
X113170539Y-97261638D01*
X113308365Y-97012262D01*
X113315882Y-97000299D01*
X113480758Y-96767927D01*
X113489568Y-96756879D01*
X113679431Y-96544422D01*
X113689422Y-96534431D01*
X113901879Y-96344568D01*
X113912927Y-96335758D01*
X114145299Y-96170882D01*
X114157262Y-96163365D01*
X114297764Y-96085712D01*
X114406642Y-96025537D01*
X114419365Y-96019410D01*
X114682615Y-95910368D01*
X114695935Y-95905707D01*
X114969743Y-95826824D01*
X114983508Y-95823683D01*
X115264421Y-95775954D01*
X115278450Y-95774374D01*
X115416687Y-95766610D01*
X115521182Y-95760741D01*
X115534431Y-95760695D01*
X115539600Y-95760949D01*
X115547811Y-95761838D01*
X115547812Y-95761829D01*
X115552660Y-95762263D01*
X115557461Y-95763071D01*
X115563462Y-95763144D01*
X115563730Y-95763186D01*
X115563999Y-95763151D01*
X115570000Y-95763224D01*
X115638267Y-95753448D01*
X115639684Y-95753254D01*
X115667536Y-95749612D01*
X115708016Y-95744318D01*
X115710912Y-95743044D01*
X115714045Y-95742595D01*
X115776747Y-95714086D01*
X115778153Y-95713457D01*
X115778529Y-95713291D01*
X115841207Y-95685713D01*
X115843629Y-95683677D01*
X115846510Y-95682367D01*
X115898758Y-95637347D01*
X115899905Y-95636371D01*
X115908370Y-95629256D01*
X115952596Y-95592080D01*
X115954348Y-95589448D01*
X115956747Y-95587381D01*
X115994277Y-95529480D01*
X115995025Y-95528341D01*
X116033228Y-95470949D01*
X116034172Y-95467929D01*
X116035893Y-95465273D01*
X116048736Y-95422328D01*
X116055626Y-95399291D01*
X116056076Y-95397819D01*
X116074231Y-95339708D01*
X116076622Y-95332055D01*
X116076680Y-95328892D01*
X116077587Y-95325859D01*
X116078009Y-95256886D01*
X116078027Y-95255409D01*
X116078127Y-95250000D01*
X135960872Y-95250000D01*
X136213970Y-95332970D01*
G37*
%TD.AperFunction*%
%TA.AperFunction,Conductor*%
G36*
X136238683Y-138207273D02*
G01*
X136283746Y-138236234D01*
X136464766Y-138417254D01*
X136498792Y-138479566D01*
X136493727Y-138550381D01*
X136464766Y-138595444D01*
X135372992Y-139687218D01*
X135310680Y-139721244D01*
X135239865Y-139716179D01*
X135194802Y-139687218D01*
X135013782Y-139506198D01*
X134979756Y-139443886D01*
X134984821Y-139373071D01*
X135013782Y-139328008D01*
X136105556Y-138236234D01*
X136167868Y-138202208D01*
X136238683Y-138207273D01*
G37*
%TD.AperFunction*%
%TA.AperFunction,Conductor*%
G36*
X137661381Y-138207273D02*
G01*
X137706444Y-138236234D01*
X138798218Y-139328008D01*
X138832244Y-139390320D01*
X138827179Y-139461135D01*
X138798218Y-139506198D01*
X138617198Y-139687218D01*
X138554886Y-139721244D01*
X138484071Y-139716179D01*
X138439008Y-139687218D01*
X137347234Y-138595444D01*
X137313208Y-138533132D01*
X137318273Y-138462317D01*
X137347234Y-138417254D01*
X137528254Y-138236234D01*
X137590566Y-138202208D01*
X137661381Y-138207273D01*
G37*
%TD.AperFunction*%
M02*
