%TF.GenerationSoftware,KiCad,Pcbnew,6.0.2+dfsg-1*%
%TF.CreationDate,2023-03-24T00:20:45+09:00*%
%TF.ProjectId,pcb-panel,7063622d-7061-46e6-956c-2e6b69636164,rev?*%
%TF.SameCoordinates,Original*%
%TF.FileFunction,Profile,NP*%
%FSLAX46Y46*%
G04 Gerber Fmt 4.6, Leading zero omitted, Abs format (unit mm)*
G04 Created by KiCad (PCBNEW 6.0.2+dfsg-1) date 2023-03-24 00:20:45*
%MOMM*%
%LPD*%
G01*
G04 APERTURE LIST*
%TA.AperFunction,Profile*%
%ADD10C,0.050000*%
%TD*%
G04 APERTURE END LIST*
D10*
X62484000Y-53340000D02*
X62484000Y-92075000D01*
X109220000Y-50165000D02*
X65659000Y-50165000D01*
X159131000Y-140335000D02*
G75*
G03*
X162306000Y-137160000I0J3175000D01*
G01*
X162306000Y-92075000D02*
X162306000Y-53340000D01*
X65659000Y-95250000D02*
G75*
G03*
X62484000Y-98425000I0J-3175000D01*
G01*
X112395000Y-98425000D02*
G75*
G03*
X109220000Y-95250000I-3175000J0D01*
G01*
X115570000Y-95250000D02*
G75*
G03*
X112395000Y-98425000I0J-3175000D01*
G01*
X62484000Y-98425000D02*
X62484000Y-137160000D01*
X159131000Y-50165000D02*
X115570000Y-50165000D01*
X65659000Y-50165000D02*
G75*
G03*
X62484000Y-53340000I0J-3175000D01*
G01*
X159131000Y-95250000D02*
G75*
G03*
X162306000Y-92075000I0J3175000D01*
G01*
X162306000Y-98425000D02*
G75*
G03*
X159131000Y-95250000I-3175000J0D01*
G01*
X109220000Y-140335000D02*
G75*
G03*
X112395000Y-137160000I0J3175000D01*
G01*
X112395000Y-53340000D02*
G75*
G03*
X109220000Y-50165000I-3175000J0D01*
G01*
X109220000Y-95250000D02*
G75*
G03*
X112395000Y-92075000I0J3175000D01*
G01*
X162306000Y-53340000D02*
G75*
G03*
X159131000Y-50165000I-3175000J0D01*
G01*
X159131000Y-140335000D02*
X115570000Y-140335000D01*
X115570000Y-50165000D02*
G75*
G03*
X112395000Y-53340000I0J-3175000D01*
G01*
X112395000Y-137160000D02*
G75*
G03*
X115570000Y-140335000I3175000J0D01*
G01*
X109220000Y-140335000D02*
X65659000Y-140335000D01*
X62484000Y-92075000D02*
G75*
G03*
X65659000Y-95250000I3175000J0D01*
G01*
X112395000Y-92075000D02*
G75*
G03*
X115570000Y-95250000I3175000J0D01*
G01*
X162306000Y-137160000D02*
X162306000Y-98425000D01*
X62484000Y-137160000D02*
G75*
G03*
X65659000Y-140335000I3175000J0D01*
G01*
M02*
