G04 #@! TF.GenerationSoftware,KiCad,Pcbnew,5.1.5+dfsg1-2build2*
G04 #@! TF.CreationDate,2021-10-19T21:18:03+09:00*
G04 #@! TF.ProjectId,pcb,7063622e-6b69-4636-9164-5f7063625858,rev?*
G04 #@! TF.SameCoordinates,Original*
G04 #@! TF.FileFunction,Legend,Bot*
G04 #@! TF.FilePolarity,Positive*
%FSLAX46Y46*%
G04 Gerber Fmt 4.6, Leading zero omitted, Abs format (unit mm)*
G04 Created by KiCad (PCBNEW 5.1.5+dfsg1-2build2) date 2021-10-19 21:18:03*
%MOMM*%
%LPD*%
G04 APERTURE LIST*
%ADD10C,0.200000*%
%ADD11C,0.120000*%
%ADD12C,0.150000*%
%ADD13C,0.125000*%
G04 APERTURE END LIST*
D10*
X100853333Y-137905380D02*
X100853333Y-136905380D01*
X100615238Y-136905380D01*
X100472380Y-136953000D01*
X100377142Y-137048238D01*
X100329523Y-137143476D01*
X100281904Y-137333952D01*
X100281904Y-137476809D01*
X100329523Y-137667285D01*
X100377142Y-137762523D01*
X100472380Y-137857761D01*
X100615238Y-137905380D01*
X100853333Y-137905380D01*
X99472380Y-137857761D02*
X99567619Y-137905380D01*
X99758095Y-137905380D01*
X99853333Y-137857761D01*
X99900952Y-137762523D01*
X99900952Y-137381571D01*
X99853333Y-137286333D01*
X99758095Y-137238714D01*
X99567619Y-137238714D01*
X99472380Y-137286333D01*
X99424761Y-137381571D01*
X99424761Y-137476809D01*
X99900952Y-137572047D01*
X99043809Y-137857761D02*
X98948571Y-137905380D01*
X98758095Y-137905380D01*
X98662857Y-137857761D01*
X98615238Y-137762523D01*
X98615238Y-137714904D01*
X98662857Y-137619666D01*
X98758095Y-137572047D01*
X98900952Y-137572047D01*
X98996190Y-137524428D01*
X99043809Y-137429190D01*
X99043809Y-137381571D01*
X98996190Y-137286333D01*
X98900952Y-137238714D01*
X98758095Y-137238714D01*
X98662857Y-137286333D01*
X98186666Y-137905380D02*
X98186666Y-137238714D01*
X98186666Y-136905380D02*
X98234285Y-136953000D01*
X98186666Y-137000619D01*
X98139047Y-136953000D01*
X98186666Y-136905380D01*
X98186666Y-137000619D01*
X97281904Y-137238714D02*
X97281904Y-138048238D01*
X97329523Y-138143476D01*
X97377142Y-138191095D01*
X97472380Y-138238714D01*
X97615238Y-138238714D01*
X97710476Y-138191095D01*
X97281904Y-137857761D02*
X97377142Y-137905380D01*
X97567619Y-137905380D01*
X97662857Y-137857761D01*
X97710476Y-137810142D01*
X97758095Y-137714904D01*
X97758095Y-137429190D01*
X97710476Y-137333952D01*
X97662857Y-137286333D01*
X97567619Y-137238714D01*
X97377142Y-137238714D01*
X97281904Y-137286333D01*
X96805714Y-137238714D02*
X96805714Y-137905380D01*
X96805714Y-137333952D02*
X96758095Y-137286333D01*
X96662857Y-137238714D01*
X96520000Y-137238714D01*
X96424761Y-137286333D01*
X96377142Y-137381571D01*
X96377142Y-137905380D01*
X95520000Y-137857761D02*
X95615238Y-137905380D01*
X95805714Y-137905380D01*
X95900952Y-137857761D01*
X95948571Y-137762523D01*
X95948571Y-137381571D01*
X95900952Y-137286333D01*
X95805714Y-137238714D01*
X95615238Y-137238714D01*
X95520000Y-137286333D01*
X95472380Y-137381571D01*
X95472380Y-137476809D01*
X95948571Y-137572047D01*
X94615238Y-137905380D02*
X94615238Y-136905380D01*
X94615238Y-137857761D02*
X94710476Y-137905380D01*
X94900952Y-137905380D01*
X94996190Y-137857761D01*
X95043809Y-137810142D01*
X95091428Y-137714904D01*
X95091428Y-137429190D01*
X95043809Y-137333952D01*
X94996190Y-137286333D01*
X94900952Y-137238714D01*
X94710476Y-137238714D01*
X94615238Y-137286333D01*
X93377142Y-137905380D02*
X93377142Y-136905380D01*
X93377142Y-137286333D02*
X93281904Y-137238714D01*
X93091428Y-137238714D01*
X92996190Y-137286333D01*
X92948571Y-137333952D01*
X92900952Y-137429190D01*
X92900952Y-137714904D01*
X92948571Y-137810142D01*
X92996190Y-137857761D01*
X93091428Y-137905380D01*
X93281904Y-137905380D01*
X93377142Y-137857761D01*
X92567619Y-137238714D02*
X92329523Y-137905380D01*
X92091428Y-137238714D02*
X92329523Y-137905380D01*
X92424761Y-138143476D01*
X92472380Y-138191095D01*
X92567619Y-138238714D01*
X100805714Y-139129190D02*
X100853333Y-139081571D01*
X100948571Y-139033952D01*
X101043809Y-139033952D01*
X101139047Y-139081571D01*
X101186666Y-139129190D01*
X101234285Y-139224428D01*
X101234285Y-139319666D01*
X101186666Y-139414904D01*
X101139047Y-139462523D01*
X101043809Y-139510142D01*
X100948571Y-139510142D01*
X100853333Y-139462523D01*
X100805714Y-139414904D01*
X100805714Y-139033952D02*
X100805714Y-139414904D01*
X100758095Y-139462523D01*
X100710476Y-139462523D01*
X100615238Y-139414904D01*
X100567619Y-139319666D01*
X100567619Y-139081571D01*
X100662857Y-138938714D01*
X100805714Y-138843476D01*
X100996190Y-138795857D01*
X101186666Y-138843476D01*
X101329523Y-138938714D01*
X101424761Y-139081571D01*
X101472380Y-139272047D01*
X101424761Y-139462523D01*
X101329523Y-139605380D01*
X101186666Y-139700619D01*
X100996190Y-139748238D01*
X100805714Y-139700619D01*
X100662857Y-139605380D01*
X100186666Y-139557761D02*
X100091428Y-139605380D01*
X99900952Y-139605380D01*
X99805714Y-139557761D01*
X99758095Y-139462523D01*
X99758095Y-139414904D01*
X99805714Y-139319666D01*
X99900952Y-139272047D01*
X100043809Y-139272047D01*
X100139047Y-139224428D01*
X100186666Y-139129190D01*
X100186666Y-139081571D01*
X100139047Y-138986333D01*
X100043809Y-138938714D01*
X99900952Y-138938714D01*
X99805714Y-138986333D01*
X99424761Y-138938714D02*
X99234285Y-139605380D01*
X99043809Y-139129190D01*
X98853333Y-139605380D01*
X98662857Y-138938714D01*
X97853333Y-139605380D02*
X97853333Y-139081571D01*
X97900952Y-138986333D01*
X97996190Y-138938714D01*
X98186666Y-138938714D01*
X98281904Y-138986333D01*
X97853333Y-139557761D02*
X97948571Y-139605380D01*
X98186666Y-139605380D01*
X98281904Y-139557761D01*
X98329523Y-139462523D01*
X98329523Y-139367285D01*
X98281904Y-139272047D01*
X98186666Y-139224428D01*
X97948571Y-139224428D01*
X97853333Y-139176809D01*
X97377142Y-138938714D02*
X97377142Y-139605380D01*
X97377142Y-139033952D02*
X97329523Y-138986333D01*
X97234285Y-138938714D01*
X97091428Y-138938714D01*
X96996190Y-138986333D01*
X96948571Y-139081571D01*
X96948571Y-139605380D01*
X96710476Y-139700619D02*
X95948571Y-139700619D01*
X95710476Y-139605380D02*
X95710476Y-138938714D01*
X95710476Y-139033952D02*
X95662857Y-138986333D01*
X95567619Y-138938714D01*
X95424761Y-138938714D01*
X95329523Y-138986333D01*
X95281904Y-139081571D01*
X95281904Y-139605380D01*
X95281904Y-139081571D02*
X95234285Y-138986333D01*
X95139047Y-138938714D01*
X94996190Y-138938714D01*
X94900952Y-138986333D01*
X94853333Y-139081571D01*
X94853333Y-139605380D01*
X93948571Y-139605380D02*
X93948571Y-139081571D01*
X93996190Y-138986333D01*
X94091428Y-138938714D01*
X94281904Y-138938714D01*
X94377142Y-138986333D01*
X93948571Y-139557761D02*
X94043809Y-139605380D01*
X94281904Y-139605380D01*
X94377142Y-139557761D01*
X94424761Y-139462523D01*
X94424761Y-139367285D01*
X94377142Y-139272047D01*
X94281904Y-139224428D01*
X94043809Y-139224428D01*
X93948571Y-139176809D01*
X93615238Y-138938714D02*
X93234285Y-138938714D01*
X93472380Y-138605380D02*
X93472380Y-139462523D01*
X93424761Y-139557761D01*
X93329523Y-139605380D01*
X93234285Y-139605380D01*
X92472380Y-139557761D02*
X92567619Y-139605380D01*
X92758095Y-139605380D01*
X92853333Y-139557761D01*
X92900952Y-139510142D01*
X92948571Y-139414904D01*
X92948571Y-139129190D01*
X92900952Y-139033952D01*
X92853333Y-138986333D01*
X92758095Y-138938714D01*
X92567619Y-138938714D01*
X92472380Y-138986333D01*
X92043809Y-139605380D02*
X92043809Y-138605380D01*
X91615238Y-139605380D02*
X91615238Y-139081571D01*
X91662857Y-138986333D01*
X91758095Y-138938714D01*
X91900952Y-138938714D01*
X91996190Y-138986333D01*
X92043809Y-139033952D01*
X150383333Y-137905380D02*
X150383333Y-136905380D01*
X150145238Y-136905380D01*
X150002380Y-136953000D01*
X149907142Y-137048238D01*
X149859523Y-137143476D01*
X149811904Y-137333952D01*
X149811904Y-137476809D01*
X149859523Y-137667285D01*
X149907142Y-137762523D01*
X150002380Y-137857761D01*
X150145238Y-137905380D01*
X150383333Y-137905380D01*
X149002380Y-137857761D02*
X149097619Y-137905380D01*
X149288095Y-137905380D01*
X149383333Y-137857761D01*
X149430952Y-137762523D01*
X149430952Y-137381571D01*
X149383333Y-137286333D01*
X149288095Y-137238714D01*
X149097619Y-137238714D01*
X149002380Y-137286333D01*
X148954761Y-137381571D01*
X148954761Y-137476809D01*
X149430952Y-137572047D01*
X148573809Y-137857761D02*
X148478571Y-137905380D01*
X148288095Y-137905380D01*
X148192857Y-137857761D01*
X148145238Y-137762523D01*
X148145238Y-137714904D01*
X148192857Y-137619666D01*
X148288095Y-137572047D01*
X148430952Y-137572047D01*
X148526190Y-137524428D01*
X148573809Y-137429190D01*
X148573809Y-137381571D01*
X148526190Y-137286333D01*
X148430952Y-137238714D01*
X148288095Y-137238714D01*
X148192857Y-137286333D01*
X147716666Y-137905380D02*
X147716666Y-137238714D01*
X147716666Y-136905380D02*
X147764285Y-136953000D01*
X147716666Y-137000619D01*
X147669047Y-136953000D01*
X147716666Y-136905380D01*
X147716666Y-137000619D01*
X146811904Y-137238714D02*
X146811904Y-138048238D01*
X146859523Y-138143476D01*
X146907142Y-138191095D01*
X147002380Y-138238714D01*
X147145238Y-138238714D01*
X147240476Y-138191095D01*
X146811904Y-137857761D02*
X146907142Y-137905380D01*
X147097619Y-137905380D01*
X147192857Y-137857761D01*
X147240476Y-137810142D01*
X147288095Y-137714904D01*
X147288095Y-137429190D01*
X147240476Y-137333952D01*
X147192857Y-137286333D01*
X147097619Y-137238714D01*
X146907142Y-137238714D01*
X146811904Y-137286333D01*
X146335714Y-137238714D02*
X146335714Y-137905380D01*
X146335714Y-137333952D02*
X146288095Y-137286333D01*
X146192857Y-137238714D01*
X146050000Y-137238714D01*
X145954761Y-137286333D01*
X145907142Y-137381571D01*
X145907142Y-137905380D01*
X145050000Y-137857761D02*
X145145238Y-137905380D01*
X145335714Y-137905380D01*
X145430952Y-137857761D01*
X145478571Y-137762523D01*
X145478571Y-137381571D01*
X145430952Y-137286333D01*
X145335714Y-137238714D01*
X145145238Y-137238714D01*
X145050000Y-137286333D01*
X145002380Y-137381571D01*
X145002380Y-137476809D01*
X145478571Y-137572047D01*
X144145238Y-137905380D02*
X144145238Y-136905380D01*
X144145238Y-137857761D02*
X144240476Y-137905380D01*
X144430952Y-137905380D01*
X144526190Y-137857761D01*
X144573809Y-137810142D01*
X144621428Y-137714904D01*
X144621428Y-137429190D01*
X144573809Y-137333952D01*
X144526190Y-137286333D01*
X144430952Y-137238714D01*
X144240476Y-137238714D01*
X144145238Y-137286333D01*
X142907142Y-137905380D02*
X142907142Y-136905380D01*
X142907142Y-137286333D02*
X142811904Y-137238714D01*
X142621428Y-137238714D01*
X142526190Y-137286333D01*
X142478571Y-137333952D01*
X142430952Y-137429190D01*
X142430952Y-137714904D01*
X142478571Y-137810142D01*
X142526190Y-137857761D01*
X142621428Y-137905380D01*
X142811904Y-137905380D01*
X142907142Y-137857761D01*
X142097619Y-137238714D02*
X141859523Y-137905380D01*
X141621428Y-137238714D02*
X141859523Y-137905380D01*
X141954761Y-138143476D01*
X142002380Y-138191095D01*
X142097619Y-138238714D01*
X150335714Y-139129190D02*
X150383333Y-139081571D01*
X150478571Y-139033952D01*
X150573809Y-139033952D01*
X150669047Y-139081571D01*
X150716666Y-139129190D01*
X150764285Y-139224428D01*
X150764285Y-139319666D01*
X150716666Y-139414904D01*
X150669047Y-139462523D01*
X150573809Y-139510142D01*
X150478571Y-139510142D01*
X150383333Y-139462523D01*
X150335714Y-139414904D01*
X150335714Y-139033952D02*
X150335714Y-139414904D01*
X150288095Y-139462523D01*
X150240476Y-139462523D01*
X150145238Y-139414904D01*
X150097619Y-139319666D01*
X150097619Y-139081571D01*
X150192857Y-138938714D01*
X150335714Y-138843476D01*
X150526190Y-138795857D01*
X150716666Y-138843476D01*
X150859523Y-138938714D01*
X150954761Y-139081571D01*
X151002380Y-139272047D01*
X150954761Y-139462523D01*
X150859523Y-139605380D01*
X150716666Y-139700619D01*
X150526190Y-139748238D01*
X150335714Y-139700619D01*
X150192857Y-139605380D01*
X149716666Y-139557761D02*
X149621428Y-139605380D01*
X149430952Y-139605380D01*
X149335714Y-139557761D01*
X149288095Y-139462523D01*
X149288095Y-139414904D01*
X149335714Y-139319666D01*
X149430952Y-139272047D01*
X149573809Y-139272047D01*
X149669047Y-139224428D01*
X149716666Y-139129190D01*
X149716666Y-139081571D01*
X149669047Y-138986333D01*
X149573809Y-138938714D01*
X149430952Y-138938714D01*
X149335714Y-138986333D01*
X148954761Y-138938714D02*
X148764285Y-139605380D01*
X148573809Y-139129190D01*
X148383333Y-139605380D01*
X148192857Y-138938714D01*
X147383333Y-139605380D02*
X147383333Y-139081571D01*
X147430952Y-138986333D01*
X147526190Y-138938714D01*
X147716666Y-138938714D01*
X147811904Y-138986333D01*
X147383333Y-139557761D02*
X147478571Y-139605380D01*
X147716666Y-139605380D01*
X147811904Y-139557761D01*
X147859523Y-139462523D01*
X147859523Y-139367285D01*
X147811904Y-139272047D01*
X147716666Y-139224428D01*
X147478571Y-139224428D01*
X147383333Y-139176809D01*
X146907142Y-138938714D02*
X146907142Y-139605380D01*
X146907142Y-139033952D02*
X146859523Y-138986333D01*
X146764285Y-138938714D01*
X146621428Y-138938714D01*
X146526190Y-138986333D01*
X146478571Y-139081571D01*
X146478571Y-139605380D01*
X146240476Y-139700619D02*
X145478571Y-139700619D01*
X145240476Y-139605380D02*
X145240476Y-138938714D01*
X145240476Y-139033952D02*
X145192857Y-138986333D01*
X145097619Y-138938714D01*
X144954761Y-138938714D01*
X144859523Y-138986333D01*
X144811904Y-139081571D01*
X144811904Y-139605380D01*
X144811904Y-139081571D02*
X144764285Y-138986333D01*
X144669047Y-138938714D01*
X144526190Y-138938714D01*
X144430952Y-138986333D01*
X144383333Y-139081571D01*
X144383333Y-139605380D01*
X143478571Y-139605380D02*
X143478571Y-139081571D01*
X143526190Y-138986333D01*
X143621428Y-138938714D01*
X143811904Y-138938714D01*
X143907142Y-138986333D01*
X143478571Y-139557761D02*
X143573809Y-139605380D01*
X143811904Y-139605380D01*
X143907142Y-139557761D01*
X143954761Y-139462523D01*
X143954761Y-139367285D01*
X143907142Y-139272047D01*
X143811904Y-139224428D01*
X143573809Y-139224428D01*
X143478571Y-139176809D01*
X143145238Y-138938714D02*
X142764285Y-138938714D01*
X143002380Y-138605380D02*
X143002380Y-139462523D01*
X142954761Y-139557761D01*
X142859523Y-139605380D01*
X142764285Y-139605380D01*
X142002380Y-139557761D02*
X142097619Y-139605380D01*
X142288095Y-139605380D01*
X142383333Y-139557761D01*
X142430952Y-139510142D01*
X142478571Y-139414904D01*
X142478571Y-139129190D01*
X142430952Y-139033952D01*
X142383333Y-138986333D01*
X142288095Y-138938714D01*
X142097619Y-138938714D01*
X142002380Y-138986333D01*
X141573809Y-139605380D02*
X141573809Y-138605380D01*
X141145238Y-139605380D02*
X141145238Y-139081571D01*
X141192857Y-138986333D01*
X141288095Y-138938714D01*
X141430952Y-138938714D01*
X141526190Y-138986333D01*
X141573809Y-139033952D01*
X150383333Y-92820380D02*
X150383333Y-91820380D01*
X150145238Y-91820380D01*
X150002380Y-91868000D01*
X149907142Y-91963238D01*
X149859523Y-92058476D01*
X149811904Y-92248952D01*
X149811904Y-92391809D01*
X149859523Y-92582285D01*
X149907142Y-92677523D01*
X150002380Y-92772761D01*
X150145238Y-92820380D01*
X150383333Y-92820380D01*
X149002380Y-92772761D02*
X149097619Y-92820380D01*
X149288095Y-92820380D01*
X149383333Y-92772761D01*
X149430952Y-92677523D01*
X149430952Y-92296571D01*
X149383333Y-92201333D01*
X149288095Y-92153714D01*
X149097619Y-92153714D01*
X149002380Y-92201333D01*
X148954761Y-92296571D01*
X148954761Y-92391809D01*
X149430952Y-92487047D01*
X148573809Y-92772761D02*
X148478571Y-92820380D01*
X148288095Y-92820380D01*
X148192857Y-92772761D01*
X148145238Y-92677523D01*
X148145238Y-92629904D01*
X148192857Y-92534666D01*
X148288095Y-92487047D01*
X148430952Y-92487047D01*
X148526190Y-92439428D01*
X148573809Y-92344190D01*
X148573809Y-92296571D01*
X148526190Y-92201333D01*
X148430952Y-92153714D01*
X148288095Y-92153714D01*
X148192857Y-92201333D01*
X147716666Y-92820380D02*
X147716666Y-92153714D01*
X147716666Y-91820380D02*
X147764285Y-91868000D01*
X147716666Y-91915619D01*
X147669047Y-91868000D01*
X147716666Y-91820380D01*
X147716666Y-91915619D01*
X146811904Y-92153714D02*
X146811904Y-92963238D01*
X146859523Y-93058476D01*
X146907142Y-93106095D01*
X147002380Y-93153714D01*
X147145238Y-93153714D01*
X147240476Y-93106095D01*
X146811904Y-92772761D02*
X146907142Y-92820380D01*
X147097619Y-92820380D01*
X147192857Y-92772761D01*
X147240476Y-92725142D01*
X147288095Y-92629904D01*
X147288095Y-92344190D01*
X147240476Y-92248952D01*
X147192857Y-92201333D01*
X147097619Y-92153714D01*
X146907142Y-92153714D01*
X146811904Y-92201333D01*
X146335714Y-92153714D02*
X146335714Y-92820380D01*
X146335714Y-92248952D02*
X146288095Y-92201333D01*
X146192857Y-92153714D01*
X146050000Y-92153714D01*
X145954761Y-92201333D01*
X145907142Y-92296571D01*
X145907142Y-92820380D01*
X145050000Y-92772761D02*
X145145238Y-92820380D01*
X145335714Y-92820380D01*
X145430952Y-92772761D01*
X145478571Y-92677523D01*
X145478571Y-92296571D01*
X145430952Y-92201333D01*
X145335714Y-92153714D01*
X145145238Y-92153714D01*
X145050000Y-92201333D01*
X145002380Y-92296571D01*
X145002380Y-92391809D01*
X145478571Y-92487047D01*
X144145238Y-92820380D02*
X144145238Y-91820380D01*
X144145238Y-92772761D02*
X144240476Y-92820380D01*
X144430952Y-92820380D01*
X144526190Y-92772761D01*
X144573809Y-92725142D01*
X144621428Y-92629904D01*
X144621428Y-92344190D01*
X144573809Y-92248952D01*
X144526190Y-92201333D01*
X144430952Y-92153714D01*
X144240476Y-92153714D01*
X144145238Y-92201333D01*
X142907142Y-92820380D02*
X142907142Y-91820380D01*
X142907142Y-92201333D02*
X142811904Y-92153714D01*
X142621428Y-92153714D01*
X142526190Y-92201333D01*
X142478571Y-92248952D01*
X142430952Y-92344190D01*
X142430952Y-92629904D01*
X142478571Y-92725142D01*
X142526190Y-92772761D01*
X142621428Y-92820380D01*
X142811904Y-92820380D01*
X142907142Y-92772761D01*
X142097619Y-92153714D02*
X141859523Y-92820380D01*
X141621428Y-92153714D02*
X141859523Y-92820380D01*
X141954761Y-93058476D01*
X142002380Y-93106095D01*
X142097619Y-93153714D01*
X150335714Y-94044190D02*
X150383333Y-93996571D01*
X150478571Y-93948952D01*
X150573809Y-93948952D01*
X150669047Y-93996571D01*
X150716666Y-94044190D01*
X150764285Y-94139428D01*
X150764285Y-94234666D01*
X150716666Y-94329904D01*
X150669047Y-94377523D01*
X150573809Y-94425142D01*
X150478571Y-94425142D01*
X150383333Y-94377523D01*
X150335714Y-94329904D01*
X150335714Y-93948952D02*
X150335714Y-94329904D01*
X150288095Y-94377523D01*
X150240476Y-94377523D01*
X150145238Y-94329904D01*
X150097619Y-94234666D01*
X150097619Y-93996571D01*
X150192857Y-93853714D01*
X150335714Y-93758476D01*
X150526190Y-93710857D01*
X150716666Y-93758476D01*
X150859523Y-93853714D01*
X150954761Y-93996571D01*
X151002380Y-94187047D01*
X150954761Y-94377523D01*
X150859523Y-94520380D01*
X150716666Y-94615619D01*
X150526190Y-94663238D01*
X150335714Y-94615619D01*
X150192857Y-94520380D01*
X149716666Y-94472761D02*
X149621428Y-94520380D01*
X149430952Y-94520380D01*
X149335714Y-94472761D01*
X149288095Y-94377523D01*
X149288095Y-94329904D01*
X149335714Y-94234666D01*
X149430952Y-94187047D01*
X149573809Y-94187047D01*
X149669047Y-94139428D01*
X149716666Y-94044190D01*
X149716666Y-93996571D01*
X149669047Y-93901333D01*
X149573809Y-93853714D01*
X149430952Y-93853714D01*
X149335714Y-93901333D01*
X148954761Y-93853714D02*
X148764285Y-94520380D01*
X148573809Y-94044190D01*
X148383333Y-94520380D01*
X148192857Y-93853714D01*
X147383333Y-94520380D02*
X147383333Y-93996571D01*
X147430952Y-93901333D01*
X147526190Y-93853714D01*
X147716666Y-93853714D01*
X147811904Y-93901333D01*
X147383333Y-94472761D02*
X147478571Y-94520380D01*
X147716666Y-94520380D01*
X147811904Y-94472761D01*
X147859523Y-94377523D01*
X147859523Y-94282285D01*
X147811904Y-94187047D01*
X147716666Y-94139428D01*
X147478571Y-94139428D01*
X147383333Y-94091809D01*
X146907142Y-93853714D02*
X146907142Y-94520380D01*
X146907142Y-93948952D02*
X146859523Y-93901333D01*
X146764285Y-93853714D01*
X146621428Y-93853714D01*
X146526190Y-93901333D01*
X146478571Y-93996571D01*
X146478571Y-94520380D01*
X146240476Y-94615619D02*
X145478571Y-94615619D01*
X145240476Y-94520380D02*
X145240476Y-93853714D01*
X145240476Y-93948952D02*
X145192857Y-93901333D01*
X145097619Y-93853714D01*
X144954761Y-93853714D01*
X144859523Y-93901333D01*
X144811904Y-93996571D01*
X144811904Y-94520380D01*
X144811904Y-93996571D02*
X144764285Y-93901333D01*
X144669047Y-93853714D01*
X144526190Y-93853714D01*
X144430952Y-93901333D01*
X144383333Y-93996571D01*
X144383333Y-94520380D01*
X143478571Y-94520380D02*
X143478571Y-93996571D01*
X143526190Y-93901333D01*
X143621428Y-93853714D01*
X143811904Y-93853714D01*
X143907142Y-93901333D01*
X143478571Y-94472761D02*
X143573809Y-94520380D01*
X143811904Y-94520380D01*
X143907142Y-94472761D01*
X143954761Y-94377523D01*
X143954761Y-94282285D01*
X143907142Y-94187047D01*
X143811904Y-94139428D01*
X143573809Y-94139428D01*
X143478571Y-94091809D01*
X143145238Y-93853714D02*
X142764285Y-93853714D01*
X143002380Y-93520380D02*
X143002380Y-94377523D01*
X142954761Y-94472761D01*
X142859523Y-94520380D01*
X142764285Y-94520380D01*
X142002380Y-94472761D02*
X142097619Y-94520380D01*
X142288095Y-94520380D01*
X142383333Y-94472761D01*
X142430952Y-94425142D01*
X142478571Y-94329904D01*
X142478571Y-94044190D01*
X142430952Y-93948952D01*
X142383333Y-93901333D01*
X142288095Y-93853714D01*
X142097619Y-93853714D01*
X142002380Y-93901333D01*
X141573809Y-94520380D02*
X141573809Y-93520380D01*
X141145238Y-94520380D02*
X141145238Y-93996571D01*
X141192857Y-93901333D01*
X141288095Y-93853714D01*
X141430952Y-93853714D01*
X141526190Y-93901333D01*
X141573809Y-93948952D01*
X100853333Y-92820380D02*
X100853333Y-91820380D01*
X100615238Y-91820380D01*
X100472380Y-91868000D01*
X100377142Y-91963238D01*
X100329523Y-92058476D01*
X100281904Y-92248952D01*
X100281904Y-92391809D01*
X100329523Y-92582285D01*
X100377142Y-92677523D01*
X100472380Y-92772761D01*
X100615238Y-92820380D01*
X100853333Y-92820380D01*
X99472380Y-92772761D02*
X99567619Y-92820380D01*
X99758095Y-92820380D01*
X99853333Y-92772761D01*
X99900952Y-92677523D01*
X99900952Y-92296571D01*
X99853333Y-92201333D01*
X99758095Y-92153714D01*
X99567619Y-92153714D01*
X99472380Y-92201333D01*
X99424761Y-92296571D01*
X99424761Y-92391809D01*
X99900952Y-92487047D01*
X99043809Y-92772761D02*
X98948571Y-92820380D01*
X98758095Y-92820380D01*
X98662857Y-92772761D01*
X98615238Y-92677523D01*
X98615238Y-92629904D01*
X98662857Y-92534666D01*
X98758095Y-92487047D01*
X98900952Y-92487047D01*
X98996190Y-92439428D01*
X99043809Y-92344190D01*
X99043809Y-92296571D01*
X98996190Y-92201333D01*
X98900952Y-92153714D01*
X98758095Y-92153714D01*
X98662857Y-92201333D01*
X98186666Y-92820380D02*
X98186666Y-92153714D01*
X98186666Y-91820380D02*
X98234285Y-91868000D01*
X98186666Y-91915619D01*
X98139047Y-91868000D01*
X98186666Y-91820380D01*
X98186666Y-91915619D01*
X97281904Y-92153714D02*
X97281904Y-92963238D01*
X97329523Y-93058476D01*
X97377142Y-93106095D01*
X97472380Y-93153714D01*
X97615238Y-93153714D01*
X97710476Y-93106095D01*
X97281904Y-92772761D02*
X97377142Y-92820380D01*
X97567619Y-92820380D01*
X97662857Y-92772761D01*
X97710476Y-92725142D01*
X97758095Y-92629904D01*
X97758095Y-92344190D01*
X97710476Y-92248952D01*
X97662857Y-92201333D01*
X97567619Y-92153714D01*
X97377142Y-92153714D01*
X97281904Y-92201333D01*
X96805714Y-92153714D02*
X96805714Y-92820380D01*
X96805714Y-92248952D02*
X96758095Y-92201333D01*
X96662857Y-92153714D01*
X96520000Y-92153714D01*
X96424761Y-92201333D01*
X96377142Y-92296571D01*
X96377142Y-92820380D01*
X95520000Y-92772761D02*
X95615238Y-92820380D01*
X95805714Y-92820380D01*
X95900952Y-92772761D01*
X95948571Y-92677523D01*
X95948571Y-92296571D01*
X95900952Y-92201333D01*
X95805714Y-92153714D01*
X95615238Y-92153714D01*
X95520000Y-92201333D01*
X95472380Y-92296571D01*
X95472380Y-92391809D01*
X95948571Y-92487047D01*
X94615238Y-92820380D02*
X94615238Y-91820380D01*
X94615238Y-92772761D02*
X94710476Y-92820380D01*
X94900952Y-92820380D01*
X94996190Y-92772761D01*
X95043809Y-92725142D01*
X95091428Y-92629904D01*
X95091428Y-92344190D01*
X95043809Y-92248952D01*
X94996190Y-92201333D01*
X94900952Y-92153714D01*
X94710476Y-92153714D01*
X94615238Y-92201333D01*
X93377142Y-92820380D02*
X93377142Y-91820380D01*
X93377142Y-92201333D02*
X93281904Y-92153714D01*
X93091428Y-92153714D01*
X92996190Y-92201333D01*
X92948571Y-92248952D01*
X92900952Y-92344190D01*
X92900952Y-92629904D01*
X92948571Y-92725142D01*
X92996190Y-92772761D01*
X93091428Y-92820380D01*
X93281904Y-92820380D01*
X93377142Y-92772761D01*
X92567619Y-92153714D02*
X92329523Y-92820380D01*
X92091428Y-92153714D02*
X92329523Y-92820380D01*
X92424761Y-93058476D01*
X92472380Y-93106095D01*
X92567619Y-93153714D01*
X100805714Y-94044190D02*
X100853333Y-93996571D01*
X100948571Y-93948952D01*
X101043809Y-93948952D01*
X101139047Y-93996571D01*
X101186666Y-94044190D01*
X101234285Y-94139428D01*
X101234285Y-94234666D01*
X101186666Y-94329904D01*
X101139047Y-94377523D01*
X101043809Y-94425142D01*
X100948571Y-94425142D01*
X100853333Y-94377523D01*
X100805714Y-94329904D01*
X100805714Y-93948952D02*
X100805714Y-94329904D01*
X100758095Y-94377523D01*
X100710476Y-94377523D01*
X100615238Y-94329904D01*
X100567619Y-94234666D01*
X100567619Y-93996571D01*
X100662857Y-93853714D01*
X100805714Y-93758476D01*
X100996190Y-93710857D01*
X101186666Y-93758476D01*
X101329523Y-93853714D01*
X101424761Y-93996571D01*
X101472380Y-94187047D01*
X101424761Y-94377523D01*
X101329523Y-94520380D01*
X101186666Y-94615619D01*
X100996190Y-94663238D01*
X100805714Y-94615619D01*
X100662857Y-94520380D01*
X100186666Y-94472761D02*
X100091428Y-94520380D01*
X99900952Y-94520380D01*
X99805714Y-94472761D01*
X99758095Y-94377523D01*
X99758095Y-94329904D01*
X99805714Y-94234666D01*
X99900952Y-94187047D01*
X100043809Y-94187047D01*
X100139047Y-94139428D01*
X100186666Y-94044190D01*
X100186666Y-93996571D01*
X100139047Y-93901333D01*
X100043809Y-93853714D01*
X99900952Y-93853714D01*
X99805714Y-93901333D01*
X99424761Y-93853714D02*
X99234285Y-94520380D01*
X99043809Y-94044190D01*
X98853333Y-94520380D01*
X98662857Y-93853714D01*
X97853333Y-94520380D02*
X97853333Y-93996571D01*
X97900952Y-93901333D01*
X97996190Y-93853714D01*
X98186666Y-93853714D01*
X98281904Y-93901333D01*
X97853333Y-94472761D02*
X97948571Y-94520380D01*
X98186666Y-94520380D01*
X98281904Y-94472761D01*
X98329523Y-94377523D01*
X98329523Y-94282285D01*
X98281904Y-94187047D01*
X98186666Y-94139428D01*
X97948571Y-94139428D01*
X97853333Y-94091809D01*
X97377142Y-93853714D02*
X97377142Y-94520380D01*
X97377142Y-93948952D02*
X97329523Y-93901333D01*
X97234285Y-93853714D01*
X97091428Y-93853714D01*
X96996190Y-93901333D01*
X96948571Y-93996571D01*
X96948571Y-94520380D01*
X96710476Y-94615619D02*
X95948571Y-94615619D01*
X95710476Y-94520380D02*
X95710476Y-93853714D01*
X95710476Y-93948952D02*
X95662857Y-93901333D01*
X95567619Y-93853714D01*
X95424761Y-93853714D01*
X95329523Y-93901333D01*
X95281904Y-93996571D01*
X95281904Y-94520380D01*
X95281904Y-93996571D02*
X95234285Y-93901333D01*
X95139047Y-93853714D01*
X94996190Y-93853714D01*
X94900952Y-93901333D01*
X94853333Y-93996571D01*
X94853333Y-94520380D01*
X93948571Y-94520380D02*
X93948571Y-93996571D01*
X93996190Y-93901333D01*
X94091428Y-93853714D01*
X94281904Y-93853714D01*
X94377142Y-93901333D01*
X93948571Y-94472761D02*
X94043809Y-94520380D01*
X94281904Y-94520380D01*
X94377142Y-94472761D01*
X94424761Y-94377523D01*
X94424761Y-94282285D01*
X94377142Y-94187047D01*
X94281904Y-94139428D01*
X94043809Y-94139428D01*
X93948571Y-94091809D01*
X93615238Y-93853714D02*
X93234285Y-93853714D01*
X93472380Y-93520380D02*
X93472380Y-94377523D01*
X93424761Y-94472761D01*
X93329523Y-94520380D01*
X93234285Y-94520380D01*
X92472380Y-94472761D02*
X92567619Y-94520380D01*
X92758095Y-94520380D01*
X92853333Y-94472761D01*
X92900952Y-94425142D01*
X92948571Y-94329904D01*
X92948571Y-94044190D01*
X92900952Y-93948952D01*
X92853333Y-93901333D01*
X92758095Y-93853714D01*
X92567619Y-93853714D01*
X92472380Y-93901333D01*
X92043809Y-94520380D02*
X92043809Y-93520380D01*
X91615238Y-94520380D02*
X91615238Y-93996571D01*
X91662857Y-93901333D01*
X91758095Y-93853714D01*
X91900952Y-93853714D01*
X91996190Y-93901333D01*
X92043809Y-93948952D01*
D11*
X115905000Y-128450000D02*
X116135000Y-128450000D01*
X112235000Y-127930000D02*
X112235000Y-135650000D01*
X112235000Y-135650000D02*
X116135000Y-135650000D01*
X119245000Y-127930000D02*
X119245000Y-128450000D01*
X112235000Y-127930000D02*
X116135000Y-127930000D01*
X115905000Y-135130000D02*
X116135000Y-135130000D01*
X118735000Y-128450000D02*
X119245000Y-128450000D01*
X118735000Y-127930000D02*
X119245000Y-127930000D01*
X115905000Y-134590000D02*
X115905000Y-135130000D01*
X118735000Y-135130000D02*
X119245000Y-135130000D01*
X119245000Y-135130000D02*
X119245000Y-135650000D01*
X118735000Y-135650000D02*
X119245000Y-135650000D01*
X115905000Y-128450000D02*
X115905000Y-128990000D01*
X115905000Y-130090000D02*
X115905000Y-133490000D01*
X158415000Y-135075000D02*
X158185000Y-135075000D01*
X162085000Y-135595000D02*
X162085000Y-127875000D01*
X162085000Y-127875000D02*
X158185000Y-127875000D01*
X155075000Y-135595000D02*
X155075000Y-135075000D01*
X162085000Y-135595000D02*
X158185000Y-135595000D01*
X158415000Y-128395000D02*
X158185000Y-128395000D01*
X155585000Y-135075000D02*
X155075000Y-135075000D01*
X155585000Y-135595000D02*
X155075000Y-135595000D01*
X158415000Y-128935000D02*
X158415000Y-128395000D01*
X155585000Y-128395000D02*
X155075000Y-128395000D01*
X155075000Y-128395000D02*
X155075000Y-127875000D01*
X155585000Y-127875000D02*
X155075000Y-127875000D01*
X158415000Y-135075000D02*
X158415000Y-134535000D01*
X158415000Y-133435000D02*
X158415000Y-130035000D01*
D12*
G36*
X130810000Y-106426000D02*
G01*
X129794000Y-107442000D01*
X130810000Y-107442000D01*
X130810000Y-106426000D01*
G37*
X130810000Y-106426000D02*
X129794000Y-107442000D01*
X130810000Y-107442000D01*
X130810000Y-106426000D01*
D11*
X128355000Y-99395000D02*
X124955000Y-99395000D01*
X129995000Y-99395000D02*
X129455000Y-99395000D01*
X122795000Y-102225000D02*
X122795000Y-102735000D01*
X123315000Y-102735000D02*
X122795000Y-102735000D01*
X123315000Y-102225000D02*
X123315000Y-102735000D01*
X123855000Y-99395000D02*
X123315000Y-99395000D01*
X130515000Y-102225000D02*
X130515000Y-102735000D01*
X129995000Y-102225000D02*
X129995000Y-102735000D01*
X123315000Y-99395000D02*
X123315000Y-99625000D01*
X130515000Y-95725000D02*
X130515000Y-99625000D01*
X130515000Y-102735000D02*
X129995000Y-102735000D01*
X122795000Y-95725000D02*
X122795000Y-99625000D01*
X130515000Y-95725000D02*
X122795000Y-95725000D01*
X129995000Y-99395000D02*
X129995000Y-99625000D01*
D12*
G36*
X149860000Y-125476000D02*
G01*
X148844000Y-126492000D01*
X149860000Y-126492000D01*
X149860000Y-125476000D01*
G37*
X149860000Y-125476000D02*
X148844000Y-126492000D01*
X149860000Y-126492000D01*
X149860000Y-125476000D01*
G36*
X130810000Y-125476000D02*
G01*
X129794000Y-126492000D01*
X130810000Y-126492000D01*
X130810000Y-125476000D01*
G37*
X130810000Y-125476000D02*
X129794000Y-126492000D01*
X130810000Y-126492000D01*
X130810000Y-125476000D01*
D11*
X115905000Y-104690000D02*
X115905000Y-108090000D01*
X115905000Y-103050000D02*
X115905000Y-103590000D01*
X118735000Y-110250000D02*
X119245000Y-110250000D01*
X119245000Y-109730000D02*
X119245000Y-110250000D01*
X118735000Y-109730000D02*
X119245000Y-109730000D01*
X115905000Y-109190000D02*
X115905000Y-109730000D01*
X118735000Y-102530000D02*
X119245000Y-102530000D01*
X118735000Y-103050000D02*
X119245000Y-103050000D01*
X115905000Y-109730000D02*
X116135000Y-109730000D01*
X112235000Y-102530000D02*
X116135000Y-102530000D01*
X119245000Y-102530000D02*
X119245000Y-103050000D01*
X112235000Y-110250000D02*
X116135000Y-110250000D01*
X112235000Y-102530000D02*
X112235000Y-110250000D01*
X115905000Y-103050000D02*
X116135000Y-103050000D01*
X158415000Y-109675000D02*
X158185000Y-109675000D01*
X162085000Y-110195000D02*
X162085000Y-102475000D01*
X162085000Y-102475000D02*
X158185000Y-102475000D01*
X155075000Y-110195000D02*
X155075000Y-109675000D01*
X162085000Y-110195000D02*
X158185000Y-110195000D01*
X158415000Y-102995000D02*
X158185000Y-102995000D01*
X155585000Y-109675000D02*
X155075000Y-109675000D01*
X155585000Y-110195000D02*
X155075000Y-110195000D01*
X158415000Y-103535000D02*
X158415000Y-102995000D01*
X155585000Y-102995000D02*
X155075000Y-102995000D01*
X155075000Y-102995000D02*
X155075000Y-102475000D01*
X155585000Y-102475000D02*
X155075000Y-102475000D01*
X158415000Y-109675000D02*
X158415000Y-109135000D01*
X158415000Y-108035000D02*
X158415000Y-104635000D01*
D12*
G36*
X149860000Y-106426000D02*
G01*
X148844000Y-107442000D01*
X149860000Y-107442000D01*
X149860000Y-106426000D01*
G37*
X149860000Y-106426000D02*
X148844000Y-107442000D01*
X149860000Y-107442000D01*
X149860000Y-106426000D01*
G36*
X81280000Y-125476000D02*
G01*
X80264000Y-126492000D01*
X81280000Y-126492000D01*
X81280000Y-125476000D01*
G37*
X81280000Y-125476000D02*
X80264000Y-126492000D01*
X81280000Y-126492000D01*
X81280000Y-125476000D01*
D11*
X108885000Y-108035000D02*
X108885000Y-104635000D01*
X108885000Y-109675000D02*
X108885000Y-109135000D01*
X106055000Y-102475000D02*
X105545000Y-102475000D01*
X105545000Y-102995000D02*
X105545000Y-102475000D01*
X106055000Y-102995000D02*
X105545000Y-102995000D01*
X108885000Y-103535000D02*
X108885000Y-102995000D01*
X106055000Y-110195000D02*
X105545000Y-110195000D01*
X106055000Y-109675000D02*
X105545000Y-109675000D01*
X108885000Y-102995000D02*
X108655000Y-102995000D01*
X112555000Y-110195000D02*
X108655000Y-110195000D01*
X105545000Y-110195000D02*
X105545000Y-109675000D01*
X112555000Y-102475000D02*
X108655000Y-102475000D01*
X112555000Y-110195000D02*
X112555000Y-102475000D01*
X108885000Y-109675000D02*
X108655000Y-109675000D01*
X66375000Y-103050000D02*
X66605000Y-103050000D01*
X62705000Y-102530000D02*
X62705000Y-110250000D01*
X62705000Y-110250000D02*
X66605000Y-110250000D01*
X69715000Y-102530000D02*
X69715000Y-103050000D01*
X62705000Y-102530000D02*
X66605000Y-102530000D01*
X66375000Y-109730000D02*
X66605000Y-109730000D01*
X69205000Y-103050000D02*
X69715000Y-103050000D01*
X69205000Y-102530000D02*
X69715000Y-102530000D01*
X66375000Y-109190000D02*
X66375000Y-109730000D01*
X69205000Y-109730000D02*
X69715000Y-109730000D01*
X69715000Y-109730000D02*
X69715000Y-110250000D01*
X69205000Y-110250000D02*
X69715000Y-110250000D01*
X66375000Y-103050000D02*
X66375000Y-103590000D01*
X66375000Y-104690000D02*
X66375000Y-108090000D01*
D12*
G36*
X100330000Y-106426000D02*
G01*
X99314000Y-107442000D01*
X100330000Y-107442000D01*
X100330000Y-106426000D01*
G37*
X100330000Y-106426000D02*
X99314000Y-107442000D01*
X100330000Y-107442000D01*
X100330000Y-106426000D01*
D11*
X66375000Y-130090000D02*
X66375000Y-133490000D01*
X66375000Y-128450000D02*
X66375000Y-128990000D01*
X69205000Y-135650000D02*
X69715000Y-135650000D01*
X69715000Y-135130000D02*
X69715000Y-135650000D01*
X69205000Y-135130000D02*
X69715000Y-135130000D01*
X66375000Y-134590000D02*
X66375000Y-135130000D01*
X69205000Y-127930000D02*
X69715000Y-127930000D01*
X69205000Y-128450000D02*
X69715000Y-128450000D01*
X66375000Y-135130000D02*
X66605000Y-135130000D01*
X62705000Y-127930000D02*
X66605000Y-127930000D01*
X69715000Y-127930000D02*
X69715000Y-128450000D01*
X62705000Y-135650000D02*
X66605000Y-135650000D01*
X62705000Y-127930000D02*
X62705000Y-135650000D01*
X66375000Y-128450000D02*
X66605000Y-128450000D01*
X108885000Y-133435000D02*
X108885000Y-130035000D01*
X108885000Y-135075000D02*
X108885000Y-134535000D01*
X106055000Y-127875000D02*
X105545000Y-127875000D01*
X105545000Y-128395000D02*
X105545000Y-127875000D01*
X106055000Y-128395000D02*
X105545000Y-128395000D01*
X108885000Y-128935000D02*
X108885000Y-128395000D01*
X106055000Y-135595000D02*
X105545000Y-135595000D01*
X106055000Y-135075000D02*
X105545000Y-135075000D01*
X108885000Y-128395000D02*
X108655000Y-128395000D01*
X112555000Y-135595000D02*
X108655000Y-135595000D01*
X105545000Y-135595000D02*
X105545000Y-135075000D01*
X112555000Y-127875000D02*
X108655000Y-127875000D01*
X112555000Y-135595000D02*
X112555000Y-127875000D01*
X108885000Y-135075000D02*
X108655000Y-135075000D01*
D12*
G36*
X81280000Y-106426000D02*
G01*
X80264000Y-107442000D01*
X81280000Y-107442000D01*
X81280000Y-106426000D01*
G37*
X81280000Y-106426000D02*
X80264000Y-107442000D01*
X81280000Y-107442000D01*
X81280000Y-106426000D01*
D11*
X80465000Y-99395000D02*
X80465000Y-99625000D01*
X80985000Y-95725000D02*
X73265000Y-95725000D01*
X73265000Y-95725000D02*
X73265000Y-99625000D01*
X80985000Y-102735000D02*
X80465000Y-102735000D01*
X80985000Y-95725000D02*
X80985000Y-99625000D01*
X73785000Y-99395000D02*
X73785000Y-99625000D01*
X80465000Y-102225000D02*
X80465000Y-102735000D01*
X80985000Y-102225000D02*
X80985000Y-102735000D01*
X74325000Y-99395000D02*
X73785000Y-99395000D01*
X73785000Y-102225000D02*
X73785000Y-102735000D01*
X73785000Y-102735000D02*
X73265000Y-102735000D01*
X73265000Y-102225000D02*
X73265000Y-102735000D01*
X80465000Y-99395000D02*
X79925000Y-99395000D01*
X78825000Y-99395000D02*
X75425000Y-99395000D01*
D12*
G36*
X100330000Y-125476000D02*
G01*
X99314000Y-126492000D01*
X100330000Y-126492000D01*
X100330000Y-125476000D01*
G37*
X100330000Y-125476000D02*
X99314000Y-126492000D01*
X100330000Y-126492000D01*
X100330000Y-125476000D01*
G36*
X130810000Y-80391000D02*
G01*
X129794000Y-81407000D01*
X130810000Y-81407000D01*
X130810000Y-80391000D01*
G37*
X130810000Y-80391000D02*
X129794000Y-81407000D01*
X130810000Y-81407000D01*
X130810000Y-80391000D01*
D11*
X158415000Y-62950000D02*
X158415000Y-59550000D01*
X158415000Y-64590000D02*
X158415000Y-64050000D01*
X155585000Y-57390000D02*
X155075000Y-57390000D01*
X155075000Y-57910000D02*
X155075000Y-57390000D01*
X155585000Y-57910000D02*
X155075000Y-57910000D01*
X158415000Y-58450000D02*
X158415000Y-57910000D01*
X155585000Y-65110000D02*
X155075000Y-65110000D01*
X155585000Y-64590000D02*
X155075000Y-64590000D01*
X158415000Y-57910000D02*
X158185000Y-57910000D01*
X162085000Y-65110000D02*
X158185000Y-65110000D01*
X155075000Y-65110000D02*
X155075000Y-64590000D01*
X162085000Y-57390000D02*
X158185000Y-57390000D01*
X162085000Y-65110000D02*
X162085000Y-57390000D01*
X158415000Y-64590000D02*
X158185000Y-64590000D01*
X115905000Y-57965000D02*
X116135000Y-57965000D01*
X112235000Y-57445000D02*
X112235000Y-65165000D01*
X112235000Y-65165000D02*
X116135000Y-65165000D01*
X119245000Y-57445000D02*
X119245000Y-57965000D01*
X112235000Y-57445000D02*
X116135000Y-57445000D01*
X115905000Y-64645000D02*
X116135000Y-64645000D01*
X118735000Y-57965000D02*
X119245000Y-57965000D01*
X118735000Y-57445000D02*
X119245000Y-57445000D01*
X115905000Y-64105000D02*
X115905000Y-64645000D01*
X118735000Y-64645000D02*
X119245000Y-64645000D01*
X119245000Y-64645000D02*
X119245000Y-65165000D01*
X118735000Y-65165000D02*
X119245000Y-65165000D01*
X115905000Y-57965000D02*
X115905000Y-58505000D01*
X115905000Y-59605000D02*
X115905000Y-63005000D01*
D12*
G36*
X149860000Y-61341000D02*
G01*
X148844000Y-62357000D01*
X149860000Y-62357000D01*
X149860000Y-61341000D01*
G37*
X149860000Y-61341000D02*
X148844000Y-62357000D01*
X149860000Y-62357000D01*
X149860000Y-61341000D01*
D11*
X115905000Y-85005000D02*
X115905000Y-88405000D01*
X115905000Y-83365000D02*
X115905000Y-83905000D01*
X118735000Y-90565000D02*
X119245000Y-90565000D01*
X119245000Y-90045000D02*
X119245000Y-90565000D01*
X118735000Y-90045000D02*
X119245000Y-90045000D01*
X115905000Y-89505000D02*
X115905000Y-90045000D01*
X118735000Y-82845000D02*
X119245000Y-82845000D01*
X118735000Y-83365000D02*
X119245000Y-83365000D01*
X115905000Y-90045000D02*
X116135000Y-90045000D01*
X112235000Y-82845000D02*
X116135000Y-82845000D01*
X119245000Y-82845000D02*
X119245000Y-83365000D01*
X112235000Y-90565000D02*
X116135000Y-90565000D01*
X112235000Y-82845000D02*
X112235000Y-90565000D01*
X115905000Y-83365000D02*
X116135000Y-83365000D01*
X158415000Y-88350000D02*
X158415000Y-84950000D01*
X158415000Y-89990000D02*
X158415000Y-89450000D01*
X155585000Y-82790000D02*
X155075000Y-82790000D01*
X155075000Y-83310000D02*
X155075000Y-82790000D01*
X155585000Y-83310000D02*
X155075000Y-83310000D01*
X158415000Y-83850000D02*
X158415000Y-83310000D01*
X155585000Y-90510000D02*
X155075000Y-90510000D01*
X155585000Y-89990000D02*
X155075000Y-89990000D01*
X158415000Y-83310000D02*
X158185000Y-83310000D01*
X162085000Y-90510000D02*
X158185000Y-90510000D01*
X155075000Y-90510000D02*
X155075000Y-89990000D01*
X162085000Y-82790000D02*
X158185000Y-82790000D01*
X162085000Y-90510000D02*
X162085000Y-82790000D01*
X158415000Y-89990000D02*
X158185000Y-89990000D01*
D12*
G36*
X130810000Y-61341000D02*
G01*
X129794000Y-62357000D01*
X130810000Y-62357000D01*
X130810000Y-61341000D01*
G37*
X130810000Y-61341000D02*
X129794000Y-62357000D01*
X130810000Y-62357000D01*
X130810000Y-61341000D01*
D11*
X129995000Y-54310000D02*
X129995000Y-54540000D01*
X130515000Y-50640000D02*
X122795000Y-50640000D01*
X122795000Y-50640000D02*
X122795000Y-54540000D01*
X130515000Y-57650000D02*
X129995000Y-57650000D01*
X130515000Y-50640000D02*
X130515000Y-54540000D01*
X123315000Y-54310000D02*
X123315000Y-54540000D01*
X129995000Y-57140000D02*
X129995000Y-57650000D01*
X130515000Y-57140000D02*
X130515000Y-57650000D01*
X123855000Y-54310000D02*
X123315000Y-54310000D01*
X123315000Y-57140000D02*
X123315000Y-57650000D01*
X123315000Y-57650000D02*
X122795000Y-57650000D01*
X122795000Y-57140000D02*
X122795000Y-57650000D01*
X129995000Y-54310000D02*
X129455000Y-54310000D01*
X128355000Y-54310000D02*
X124955000Y-54310000D01*
D12*
G36*
X149860000Y-80391000D02*
G01*
X148844000Y-81407000D01*
X149860000Y-81407000D01*
X149860000Y-80391000D01*
G37*
X149860000Y-80391000D02*
X148844000Y-81407000D01*
X149860000Y-81407000D01*
X149860000Y-80391000D01*
G36*
X100330000Y-61341000D02*
G01*
X99314000Y-62357000D01*
X100330000Y-62357000D01*
X100330000Y-61341000D01*
G37*
X100330000Y-61341000D02*
X99314000Y-62357000D01*
X100330000Y-62357000D01*
X100330000Y-61341000D01*
G36*
X100330000Y-80391000D02*
G01*
X99314000Y-81407000D01*
X100330000Y-81407000D01*
X100330000Y-80391000D01*
G37*
X100330000Y-80391000D02*
X99314000Y-81407000D01*
X100330000Y-81407000D01*
X100330000Y-80391000D01*
G36*
X81280000Y-80391000D02*
G01*
X80264000Y-81407000D01*
X81280000Y-81407000D01*
X81280000Y-80391000D01*
G37*
X81280000Y-80391000D02*
X80264000Y-81407000D01*
X81280000Y-81407000D01*
X81280000Y-80391000D01*
G36*
X81280000Y-61341000D02*
G01*
X80264000Y-62357000D01*
X81280000Y-62357000D01*
X81280000Y-61341000D01*
G37*
X81280000Y-61341000D02*
X80264000Y-62357000D01*
X81280000Y-62357000D01*
X81280000Y-61341000D01*
D11*
X108885000Y-64590000D02*
X108655000Y-64590000D01*
X112555000Y-65110000D02*
X112555000Y-57390000D01*
X112555000Y-57390000D02*
X108655000Y-57390000D01*
X105545000Y-65110000D02*
X105545000Y-64590000D01*
X112555000Y-65110000D02*
X108655000Y-65110000D01*
X108885000Y-57910000D02*
X108655000Y-57910000D01*
X106055000Y-64590000D02*
X105545000Y-64590000D01*
X106055000Y-65110000D02*
X105545000Y-65110000D01*
X108885000Y-58450000D02*
X108885000Y-57910000D01*
X106055000Y-57910000D02*
X105545000Y-57910000D01*
X105545000Y-57910000D02*
X105545000Y-57390000D01*
X106055000Y-57390000D02*
X105545000Y-57390000D01*
X108885000Y-64590000D02*
X108885000Y-64050000D01*
X108885000Y-62950000D02*
X108885000Y-59550000D01*
X108885000Y-89990000D02*
X108655000Y-89990000D01*
X112555000Y-90510000D02*
X112555000Y-82790000D01*
X112555000Y-82790000D02*
X108655000Y-82790000D01*
X105545000Y-90510000D02*
X105545000Y-89990000D01*
X112555000Y-90510000D02*
X108655000Y-90510000D01*
X108885000Y-83310000D02*
X108655000Y-83310000D01*
X106055000Y-89990000D02*
X105545000Y-89990000D01*
X106055000Y-90510000D02*
X105545000Y-90510000D01*
X108885000Y-83850000D02*
X108885000Y-83310000D01*
X106055000Y-83310000D02*
X105545000Y-83310000D01*
X105545000Y-83310000D02*
X105545000Y-82790000D01*
X106055000Y-82790000D02*
X105545000Y-82790000D01*
X108885000Y-89990000D02*
X108885000Y-89450000D01*
X108885000Y-88350000D02*
X108885000Y-84950000D01*
X66375000Y-59605000D02*
X66375000Y-63005000D01*
X66375000Y-57965000D02*
X66375000Y-58505000D01*
X69205000Y-65165000D02*
X69715000Y-65165000D01*
X69715000Y-64645000D02*
X69715000Y-65165000D01*
X69205000Y-64645000D02*
X69715000Y-64645000D01*
X66375000Y-64105000D02*
X66375000Y-64645000D01*
X69205000Y-57445000D02*
X69715000Y-57445000D01*
X69205000Y-57965000D02*
X69715000Y-57965000D01*
X66375000Y-64645000D02*
X66605000Y-64645000D01*
X62705000Y-57445000D02*
X66605000Y-57445000D01*
X69715000Y-57445000D02*
X69715000Y-57965000D01*
X62705000Y-65165000D02*
X66605000Y-65165000D01*
X62705000Y-57445000D02*
X62705000Y-65165000D01*
X66375000Y-57965000D02*
X66605000Y-57965000D01*
X66375000Y-83365000D02*
X66605000Y-83365000D01*
X62705000Y-82845000D02*
X62705000Y-90565000D01*
X62705000Y-90565000D02*
X66605000Y-90565000D01*
X69715000Y-82845000D02*
X69715000Y-83365000D01*
X62705000Y-82845000D02*
X66605000Y-82845000D01*
X66375000Y-90045000D02*
X66605000Y-90045000D01*
X69205000Y-83365000D02*
X69715000Y-83365000D01*
X69205000Y-82845000D02*
X69715000Y-82845000D01*
X66375000Y-89505000D02*
X66375000Y-90045000D01*
X69205000Y-90045000D02*
X69715000Y-90045000D01*
X69715000Y-90045000D02*
X69715000Y-90565000D01*
X69205000Y-90565000D02*
X69715000Y-90565000D01*
X66375000Y-83365000D02*
X66375000Y-83905000D01*
X66375000Y-85005000D02*
X66375000Y-88405000D01*
X78825000Y-54310000D02*
X75425000Y-54310000D01*
X80465000Y-54310000D02*
X79925000Y-54310000D01*
X73265000Y-57140000D02*
X73265000Y-57650000D01*
X73785000Y-57650000D02*
X73265000Y-57650000D01*
X73785000Y-57140000D02*
X73785000Y-57650000D01*
X74325000Y-54310000D02*
X73785000Y-54310000D01*
X80985000Y-57140000D02*
X80985000Y-57650000D01*
X80465000Y-57140000D02*
X80465000Y-57650000D01*
X73785000Y-54310000D02*
X73785000Y-54540000D01*
X80985000Y-50640000D02*
X80985000Y-54540000D01*
X80985000Y-57650000D02*
X80465000Y-57650000D01*
X73265000Y-50640000D02*
X73265000Y-54540000D01*
X80985000Y-50640000D02*
X73265000Y-50640000D01*
X80465000Y-54310000D02*
X80465000Y-54540000D01*
D12*
X127166666Y-108154380D02*
X127642857Y-108154380D01*
X127642857Y-107154380D01*
X126404761Y-107487714D02*
X126404761Y-108154380D01*
X126642857Y-107106761D02*
X126880952Y-107821047D01*
X126261904Y-107821047D01*
X146216666Y-127204380D02*
X146692857Y-127204380D01*
X146692857Y-126204380D01*
X145930952Y-126299619D02*
X145883333Y-126252000D01*
X145788095Y-126204380D01*
X145550000Y-126204380D01*
X145454761Y-126252000D01*
X145407142Y-126299619D01*
X145359523Y-126394857D01*
X145359523Y-126490095D01*
X145407142Y-126632952D01*
X145978571Y-127204380D01*
X145359523Y-127204380D01*
X127166666Y-127204380D02*
X127642857Y-127204380D01*
X127642857Y-126204380D01*
X126928571Y-126204380D02*
X126309523Y-126204380D01*
X126642857Y-126585333D01*
X126500000Y-126585333D01*
X126404761Y-126632952D01*
X126357142Y-126680571D01*
X126309523Y-126775809D01*
X126309523Y-127013904D01*
X126357142Y-127109142D01*
X126404761Y-127156761D01*
X126500000Y-127204380D01*
X126785714Y-127204380D01*
X126880952Y-127156761D01*
X126928571Y-127109142D01*
D13*
X102166190Y-124411428D02*
X102070476Y-124447142D01*
X102038571Y-124482857D01*
X102006666Y-124554285D01*
X102006666Y-124661428D01*
X102038571Y-124732857D01*
X102070476Y-124768571D01*
X102134285Y-124804285D01*
X102389523Y-124804285D01*
X102389523Y-124054285D01*
X102166190Y-124054285D01*
X102102380Y-124090000D01*
X102070476Y-124125714D01*
X102038571Y-124197142D01*
X102038571Y-124268571D01*
X102070476Y-124340000D01*
X102102380Y-124375714D01*
X102166190Y-124411428D01*
X102389523Y-124411428D01*
X101432380Y-124304285D02*
X101432380Y-124804285D01*
X101591904Y-124018571D02*
X101751428Y-124554285D01*
X101336666Y-124554285D01*
X100602857Y-124018571D02*
X101177142Y-124982857D01*
X100283809Y-124375714D02*
X100347619Y-124340000D01*
X100379523Y-124304285D01*
X100411428Y-124232857D01*
X100411428Y-124197142D01*
X100379523Y-124125714D01*
X100347619Y-124090000D01*
X100283809Y-124054285D01*
X100156190Y-124054285D01*
X100092380Y-124090000D01*
X100060476Y-124125714D01*
X100028571Y-124197142D01*
X100028571Y-124232857D01*
X100060476Y-124304285D01*
X100092380Y-124340000D01*
X100156190Y-124375714D01*
X100283809Y-124375714D01*
X100347619Y-124411428D01*
X100379523Y-124447142D01*
X100411428Y-124518571D01*
X100411428Y-124661428D01*
X100379523Y-124732857D01*
X100347619Y-124768571D01*
X100283809Y-124804285D01*
X100156190Y-124804285D01*
X100092380Y-124768571D01*
X100060476Y-124732857D01*
X100028571Y-124661428D01*
X100028571Y-124518571D01*
X100060476Y-124447142D01*
X100092380Y-124411428D01*
X100156190Y-124375714D01*
X102493571Y-102104285D02*
X102493571Y-101354285D01*
X102334047Y-101354285D01*
X102238333Y-101390000D01*
X102174523Y-101461428D01*
X102142619Y-101532857D01*
X102110714Y-101675714D01*
X102110714Y-101782857D01*
X102142619Y-101925714D01*
X102174523Y-101997142D01*
X102238333Y-102068571D01*
X102334047Y-102104285D01*
X102493571Y-102104285D01*
X101855476Y-101425714D02*
X101823571Y-101390000D01*
X101759761Y-101354285D01*
X101600238Y-101354285D01*
X101536428Y-101390000D01*
X101504523Y-101425714D01*
X101472619Y-101497142D01*
X101472619Y-101568571D01*
X101504523Y-101675714D01*
X101887380Y-102104285D01*
X101472619Y-102104285D01*
X100706904Y-101318571D02*
X101281190Y-102282857D01*
X100100714Y-102104285D02*
X100324047Y-101747142D01*
X100483571Y-102104285D02*
X100483571Y-101354285D01*
X100228333Y-101354285D01*
X100164523Y-101390000D01*
X100132619Y-101425714D01*
X100100714Y-101497142D01*
X100100714Y-101604285D01*
X100132619Y-101675714D01*
X100164523Y-101711428D01*
X100228333Y-101747142D01*
X100483571Y-101747142D01*
X99877380Y-101354285D02*
X99430714Y-102104285D01*
X99430714Y-101354285D02*
X99877380Y-102104285D01*
X98824523Y-102104285D02*
X99207380Y-102104285D01*
X99015952Y-102104285D02*
X99015952Y-101354285D01*
X99079761Y-101461428D01*
X99143571Y-101532857D01*
X99207380Y-101568571D01*
X102166190Y-126911428D02*
X102070476Y-126947142D01*
X102038571Y-126982857D01*
X102006666Y-127054285D01*
X102006666Y-127161428D01*
X102038571Y-127232857D01*
X102070476Y-127268571D01*
X102134285Y-127304285D01*
X102389523Y-127304285D01*
X102389523Y-126554285D01*
X102166190Y-126554285D01*
X102102380Y-126590000D01*
X102070476Y-126625714D01*
X102038571Y-126697142D01*
X102038571Y-126768571D01*
X102070476Y-126840000D01*
X102102380Y-126875714D01*
X102166190Y-126911428D01*
X102389523Y-126911428D01*
X101400476Y-126554285D02*
X101719523Y-126554285D01*
X101751428Y-126911428D01*
X101719523Y-126875714D01*
X101655714Y-126840000D01*
X101496190Y-126840000D01*
X101432380Y-126875714D01*
X101400476Y-126911428D01*
X101368571Y-126982857D01*
X101368571Y-127161428D01*
X101400476Y-127232857D01*
X101432380Y-127268571D01*
X101496190Y-127304285D01*
X101655714Y-127304285D01*
X101719523Y-127268571D01*
X101751428Y-127232857D01*
X100602857Y-126518571D02*
X101177142Y-127482857D01*
X100347619Y-127304285D02*
X100220000Y-127304285D01*
X100156190Y-127268571D01*
X100124285Y-127232857D01*
X100060476Y-127125714D01*
X100028571Y-126982857D01*
X100028571Y-126697142D01*
X100060476Y-126625714D01*
X100092380Y-126590000D01*
X100156190Y-126554285D01*
X100283809Y-126554285D01*
X100347619Y-126590000D01*
X100379523Y-126625714D01*
X100411428Y-126697142D01*
X100411428Y-126875714D01*
X100379523Y-126947142D01*
X100347619Y-126982857D01*
X100283809Y-127018571D01*
X100156190Y-127018571D01*
X100092380Y-126982857D01*
X100060476Y-126947142D01*
X100028571Y-126875714D01*
X102006666Y-117082857D02*
X102038571Y-117118571D01*
X102134285Y-117154285D01*
X102198095Y-117154285D01*
X102293809Y-117118571D01*
X102357619Y-117047142D01*
X102389523Y-116975714D01*
X102421428Y-116832857D01*
X102421428Y-116725714D01*
X102389523Y-116582857D01*
X102357619Y-116511428D01*
X102293809Y-116440000D01*
X102198095Y-116404285D01*
X102134285Y-116404285D01*
X102038571Y-116440000D01*
X102006666Y-116475714D01*
X101432380Y-116404285D02*
X101560000Y-116404285D01*
X101623809Y-116440000D01*
X101655714Y-116475714D01*
X101719523Y-116582857D01*
X101751428Y-116725714D01*
X101751428Y-117011428D01*
X101719523Y-117082857D01*
X101687619Y-117118571D01*
X101623809Y-117154285D01*
X101496190Y-117154285D01*
X101432380Y-117118571D01*
X101400476Y-117082857D01*
X101368571Y-117011428D01*
X101368571Y-116832857D01*
X101400476Y-116761428D01*
X101432380Y-116725714D01*
X101496190Y-116690000D01*
X101623809Y-116690000D01*
X101687619Y-116725714D01*
X101719523Y-116761428D01*
X101751428Y-116832857D01*
X100602857Y-116368571D02*
X101177142Y-117332857D01*
X100060476Y-116404285D02*
X100379523Y-116404285D01*
X100411428Y-116761428D01*
X100379523Y-116725714D01*
X100315714Y-116690000D01*
X100156190Y-116690000D01*
X100092380Y-116725714D01*
X100060476Y-116761428D01*
X100028571Y-116832857D01*
X100028571Y-117011428D01*
X100060476Y-117082857D01*
X100092380Y-117118571D01*
X100156190Y-117154285D01*
X100315714Y-117154285D01*
X100379523Y-117118571D01*
X100411428Y-117082857D01*
X102447619Y-112068571D02*
X102351904Y-112104285D01*
X102192380Y-112104285D01*
X102128571Y-112068571D01*
X102096666Y-112032857D01*
X102064761Y-111961428D01*
X102064761Y-111890000D01*
X102096666Y-111818571D01*
X102128571Y-111782857D01*
X102192380Y-111747142D01*
X102320000Y-111711428D01*
X102383809Y-111675714D01*
X102415714Y-111640000D01*
X102447619Y-111568571D01*
X102447619Y-111497142D01*
X102415714Y-111425714D01*
X102383809Y-111390000D01*
X102320000Y-111354285D01*
X102160476Y-111354285D01*
X102064761Y-111390000D01*
X101394761Y-112032857D02*
X101426666Y-112068571D01*
X101522380Y-112104285D01*
X101586190Y-112104285D01*
X101681904Y-112068571D01*
X101745714Y-111997142D01*
X101777619Y-111925714D01*
X101809523Y-111782857D01*
X101809523Y-111675714D01*
X101777619Y-111532857D01*
X101745714Y-111461428D01*
X101681904Y-111390000D01*
X101586190Y-111354285D01*
X101522380Y-111354285D01*
X101426666Y-111390000D01*
X101394761Y-111425714D01*
X100788571Y-112104285D02*
X101107619Y-112104285D01*
X101107619Y-111354285D01*
X100086666Y-111318571D02*
X100660952Y-112282857D01*
X99863333Y-112104285D02*
X99863333Y-111354285D01*
X99703809Y-111354285D01*
X99608095Y-111390000D01*
X99544285Y-111461428D01*
X99512380Y-111532857D01*
X99480476Y-111675714D01*
X99480476Y-111782857D01*
X99512380Y-111925714D01*
X99544285Y-111997142D01*
X99608095Y-112068571D01*
X99703809Y-112104285D01*
X99863333Y-112104285D01*
X99065714Y-111354285D02*
X99001904Y-111354285D01*
X98938095Y-111390000D01*
X98906190Y-111425714D01*
X98874285Y-111497142D01*
X98842380Y-111640000D01*
X98842380Y-111818571D01*
X98874285Y-111961428D01*
X98906190Y-112032857D01*
X98938095Y-112068571D01*
X99001904Y-112104285D01*
X99065714Y-112104285D01*
X99129523Y-112068571D01*
X99161428Y-112032857D01*
X99193333Y-111961428D01*
X99225238Y-111818571D01*
X99225238Y-111640000D01*
X99193333Y-111497142D01*
X99161428Y-111425714D01*
X99129523Y-111390000D01*
X99065714Y-111354285D01*
X98076666Y-111318571D02*
X98650952Y-112282857D01*
X97917142Y-111354285D02*
X97502380Y-111354285D01*
X97725714Y-111640000D01*
X97630000Y-111640000D01*
X97566190Y-111675714D01*
X97534285Y-111711428D01*
X97502380Y-111782857D01*
X97502380Y-111961428D01*
X97534285Y-112032857D01*
X97566190Y-112068571D01*
X97630000Y-112104285D01*
X97821428Y-112104285D01*
X97885238Y-112068571D01*
X97917142Y-112032857D01*
X102463571Y-109568571D02*
X102367857Y-109604285D01*
X102208333Y-109604285D01*
X102144523Y-109568571D01*
X102112619Y-109532857D01*
X102080714Y-109461428D01*
X102080714Y-109390000D01*
X102112619Y-109318571D01*
X102144523Y-109282857D01*
X102208333Y-109247142D01*
X102335952Y-109211428D01*
X102399761Y-109175714D01*
X102431666Y-109140000D01*
X102463571Y-109068571D01*
X102463571Y-108997142D01*
X102431666Y-108925714D01*
X102399761Y-108890000D01*
X102335952Y-108854285D01*
X102176428Y-108854285D01*
X102080714Y-108890000D01*
X101793571Y-109604285D02*
X101793571Y-108854285D01*
X101634047Y-108854285D01*
X101538333Y-108890000D01*
X101474523Y-108961428D01*
X101442619Y-109032857D01*
X101410714Y-109175714D01*
X101410714Y-109282857D01*
X101442619Y-109425714D01*
X101474523Y-109497142D01*
X101538333Y-109568571D01*
X101634047Y-109604285D01*
X101793571Y-109604285D01*
X101155476Y-109390000D02*
X100836428Y-109390000D01*
X101219285Y-109604285D02*
X100995952Y-108854285D01*
X100772619Y-109604285D01*
X100070714Y-108818571D02*
X100645000Y-109782857D01*
X99847380Y-109604285D02*
X99847380Y-108854285D01*
X99687857Y-108854285D01*
X99592142Y-108890000D01*
X99528333Y-108961428D01*
X99496428Y-109032857D01*
X99464523Y-109175714D01*
X99464523Y-109282857D01*
X99496428Y-109425714D01*
X99528333Y-109497142D01*
X99592142Y-109568571D01*
X99687857Y-109604285D01*
X99847380Y-109604285D01*
X98826428Y-109604285D02*
X99209285Y-109604285D01*
X99017857Y-109604285D02*
X99017857Y-108854285D01*
X99081666Y-108961428D01*
X99145476Y-109032857D01*
X99209285Y-109068571D01*
X98060714Y-108818571D02*
X98635000Y-109782857D01*
X97869285Y-108925714D02*
X97837380Y-108890000D01*
X97773571Y-108854285D01*
X97614047Y-108854285D01*
X97550238Y-108890000D01*
X97518333Y-108925714D01*
X97486428Y-108997142D01*
X97486428Y-109068571D01*
X97518333Y-109175714D01*
X97901190Y-109604285D01*
X97486428Y-109604285D01*
X102389523Y-114604285D02*
X102389523Y-113854285D01*
X102230000Y-113854285D01*
X102134285Y-113890000D01*
X102070476Y-113961428D01*
X102038571Y-114032857D01*
X102006666Y-114175714D01*
X102006666Y-114282857D01*
X102038571Y-114425714D01*
X102070476Y-114497142D01*
X102134285Y-114568571D01*
X102230000Y-114604285D01*
X102389523Y-114604285D01*
X101432380Y-114104285D02*
X101432380Y-114604285D01*
X101591904Y-113818571D02*
X101751428Y-114354285D01*
X101336666Y-114354285D01*
X100602857Y-113818571D02*
X101177142Y-114782857D01*
X100092380Y-114104285D02*
X100092380Y-114604285D01*
X100251904Y-113818571D02*
X100411428Y-114354285D01*
X99996666Y-114354285D01*
X102413809Y-99554285D02*
X102413809Y-98804285D01*
X102254285Y-98804285D01*
X102158571Y-98840000D01*
X102094761Y-98911428D01*
X102062857Y-98982857D01*
X102030952Y-99125714D01*
X102030952Y-99232857D01*
X102062857Y-99375714D01*
X102094761Y-99447142D01*
X102158571Y-99518571D01*
X102254285Y-99554285D01*
X102413809Y-99554285D01*
X101807619Y-98804285D02*
X101392857Y-98804285D01*
X101616190Y-99090000D01*
X101520476Y-99090000D01*
X101456666Y-99125714D01*
X101424761Y-99161428D01*
X101392857Y-99232857D01*
X101392857Y-99411428D01*
X101424761Y-99482857D01*
X101456666Y-99518571D01*
X101520476Y-99554285D01*
X101711904Y-99554285D01*
X101775714Y-99518571D01*
X101807619Y-99482857D01*
X100627142Y-98768571D02*
X101201428Y-99732857D01*
X100499523Y-98804285D02*
X100116666Y-98804285D01*
X100308095Y-99554285D02*
X100308095Y-98804285D01*
X99957142Y-98804285D02*
X99510476Y-99554285D01*
X99510476Y-98804285D02*
X99957142Y-99554285D01*
X99127619Y-98804285D02*
X99063809Y-98804285D01*
X99000000Y-98840000D01*
X98968095Y-98875714D01*
X98936190Y-98947142D01*
X98904285Y-99090000D01*
X98904285Y-99268571D01*
X98936190Y-99411428D01*
X98968095Y-99482857D01*
X99000000Y-99518571D01*
X99063809Y-99554285D01*
X99127619Y-99554285D01*
X99191428Y-99518571D01*
X99223333Y-99482857D01*
X99255238Y-99411428D01*
X99287142Y-99268571D01*
X99287142Y-99090000D01*
X99255238Y-98947142D01*
X99223333Y-98875714D01*
X99191428Y-98840000D01*
X99127619Y-98804285D01*
X101985476Y-106390000D02*
X102049285Y-106354285D01*
X102145000Y-106354285D01*
X102240714Y-106390000D01*
X102304523Y-106461428D01*
X102336428Y-106532857D01*
X102368333Y-106675714D01*
X102368333Y-106782857D01*
X102336428Y-106925714D01*
X102304523Y-106997142D01*
X102240714Y-107068571D01*
X102145000Y-107104285D01*
X102081190Y-107104285D01*
X101985476Y-107068571D01*
X101953571Y-107032857D01*
X101953571Y-106782857D01*
X102081190Y-106782857D01*
X101666428Y-107104285D02*
X101666428Y-106354285D01*
X101283571Y-107104285D01*
X101283571Y-106354285D01*
X100964523Y-107104285D02*
X100964523Y-106354285D01*
X100805000Y-106354285D01*
X100709285Y-106390000D01*
X100645476Y-106461428D01*
X100613571Y-106532857D01*
X100581666Y-106675714D01*
X100581666Y-106782857D01*
X100613571Y-106925714D01*
X100645476Y-106997142D01*
X100709285Y-107068571D01*
X100805000Y-107104285D01*
X100964523Y-107104285D01*
X101985476Y-103940000D02*
X102049285Y-103904285D01*
X102145000Y-103904285D01*
X102240714Y-103940000D01*
X102304523Y-104011428D01*
X102336428Y-104082857D01*
X102368333Y-104225714D01*
X102368333Y-104332857D01*
X102336428Y-104475714D01*
X102304523Y-104547142D01*
X102240714Y-104618571D01*
X102145000Y-104654285D01*
X102081190Y-104654285D01*
X101985476Y-104618571D01*
X101953571Y-104582857D01*
X101953571Y-104332857D01*
X102081190Y-104332857D01*
X101666428Y-104654285D02*
X101666428Y-103904285D01*
X101283571Y-104654285D01*
X101283571Y-103904285D01*
X100964523Y-104654285D02*
X100964523Y-103904285D01*
X100805000Y-103904285D01*
X100709285Y-103940000D01*
X100645476Y-104011428D01*
X100613571Y-104082857D01*
X100581666Y-104225714D01*
X100581666Y-104332857D01*
X100613571Y-104475714D01*
X100645476Y-104547142D01*
X100709285Y-104618571D01*
X100805000Y-104654285D01*
X100964523Y-104654285D01*
X102389523Y-119704285D02*
X102389523Y-118954285D01*
X102230000Y-118954285D01*
X102134285Y-118990000D01*
X102070476Y-119061428D01*
X102038571Y-119132857D01*
X102006666Y-119275714D01*
X102006666Y-119382857D01*
X102038571Y-119525714D01*
X102070476Y-119597142D01*
X102134285Y-119668571D01*
X102230000Y-119704285D01*
X102389523Y-119704285D01*
X101783333Y-118954285D02*
X101336666Y-118954285D01*
X101623809Y-119704285D01*
X100602857Y-118918571D02*
X101177142Y-119882857D01*
X100092380Y-118954285D02*
X100220000Y-118954285D01*
X100283809Y-118990000D01*
X100315714Y-119025714D01*
X100379523Y-119132857D01*
X100411428Y-119275714D01*
X100411428Y-119561428D01*
X100379523Y-119632857D01*
X100347619Y-119668571D01*
X100283809Y-119704285D01*
X100156190Y-119704285D01*
X100092380Y-119668571D01*
X100060476Y-119632857D01*
X100028571Y-119561428D01*
X100028571Y-119382857D01*
X100060476Y-119311428D01*
X100092380Y-119275714D01*
X100156190Y-119240000D01*
X100283809Y-119240000D01*
X100347619Y-119275714D01*
X100379523Y-119311428D01*
X100411428Y-119382857D01*
X102357619Y-121861428D02*
X102134285Y-121861428D01*
X102038571Y-122254285D02*
X102357619Y-122254285D01*
X102357619Y-121504285D01*
X102038571Y-121504285D01*
X101464285Y-121504285D02*
X101591904Y-121504285D01*
X101655714Y-121540000D01*
X101687619Y-121575714D01*
X101751428Y-121682857D01*
X101783333Y-121825714D01*
X101783333Y-122111428D01*
X101751428Y-122182857D01*
X101719523Y-122218571D01*
X101655714Y-122254285D01*
X101528095Y-122254285D01*
X101464285Y-122218571D01*
X101432380Y-122182857D01*
X101400476Y-122111428D01*
X101400476Y-121932857D01*
X101432380Y-121861428D01*
X101464285Y-121825714D01*
X101528095Y-121790000D01*
X101655714Y-121790000D01*
X101719523Y-121825714D01*
X101751428Y-121861428D01*
X101783333Y-121932857D01*
X100634761Y-121468571D02*
X101209047Y-122432857D01*
X100475238Y-121504285D02*
X100028571Y-121504285D01*
X100315714Y-122254285D01*
X93257619Y-124954285D02*
X93640476Y-124954285D01*
X93449047Y-124954285D02*
X93449047Y-124204285D01*
X93512857Y-124311428D01*
X93576666Y-124382857D01*
X93640476Y-124418571D01*
X92683333Y-124204285D02*
X92810952Y-124204285D01*
X92874761Y-124240000D01*
X92906666Y-124275714D01*
X92970476Y-124382857D01*
X93002380Y-124525714D01*
X93002380Y-124811428D01*
X92970476Y-124882857D01*
X92938571Y-124918571D01*
X92874761Y-124954285D01*
X92747142Y-124954285D01*
X92683333Y-124918571D01*
X92651428Y-124882857D01*
X92619523Y-124811428D01*
X92619523Y-124632857D01*
X92651428Y-124561428D01*
X92683333Y-124525714D01*
X92747142Y-124490000D01*
X92874761Y-124490000D01*
X92938571Y-124525714D01*
X92970476Y-124561428D01*
X93002380Y-124632857D01*
X91853809Y-124168571D02*
X92428095Y-125132857D01*
X91407142Y-124561428D02*
X91311428Y-124597142D01*
X91279523Y-124632857D01*
X91247619Y-124704285D01*
X91247619Y-124811428D01*
X91279523Y-124882857D01*
X91311428Y-124918571D01*
X91375238Y-124954285D01*
X91630476Y-124954285D01*
X91630476Y-124204285D01*
X91407142Y-124204285D01*
X91343333Y-124240000D01*
X91311428Y-124275714D01*
X91279523Y-124347142D01*
X91279523Y-124418571D01*
X91311428Y-124490000D01*
X91343333Y-124525714D01*
X91407142Y-124561428D01*
X91630476Y-124561428D01*
X90992380Y-124275714D02*
X90960476Y-124240000D01*
X90896666Y-124204285D01*
X90737142Y-124204285D01*
X90673333Y-124240000D01*
X90641428Y-124275714D01*
X90609523Y-124347142D01*
X90609523Y-124418571D01*
X90641428Y-124525714D01*
X91024285Y-124954285D01*
X90609523Y-124954285D01*
X93257619Y-127454285D02*
X93640476Y-127454285D01*
X93449047Y-127454285D02*
X93449047Y-126704285D01*
X93512857Y-126811428D01*
X93576666Y-126882857D01*
X93640476Y-126918571D01*
X92842857Y-126704285D02*
X92779047Y-126704285D01*
X92715238Y-126740000D01*
X92683333Y-126775714D01*
X92651428Y-126847142D01*
X92619523Y-126990000D01*
X92619523Y-127168571D01*
X92651428Y-127311428D01*
X92683333Y-127382857D01*
X92715238Y-127418571D01*
X92779047Y-127454285D01*
X92842857Y-127454285D01*
X92906666Y-127418571D01*
X92938571Y-127382857D01*
X92970476Y-127311428D01*
X93002380Y-127168571D01*
X93002380Y-126990000D01*
X92970476Y-126847142D01*
X92938571Y-126775714D01*
X92906666Y-126740000D01*
X92842857Y-126704285D01*
X91853809Y-126668571D02*
X92428095Y-127632857D01*
X91407142Y-127061428D02*
X91311428Y-127097142D01*
X91279523Y-127132857D01*
X91247619Y-127204285D01*
X91247619Y-127311428D01*
X91279523Y-127382857D01*
X91311428Y-127418571D01*
X91375238Y-127454285D01*
X91630476Y-127454285D01*
X91630476Y-126704285D01*
X91407142Y-126704285D01*
X91343333Y-126740000D01*
X91311428Y-126775714D01*
X91279523Y-126847142D01*
X91279523Y-126918571D01*
X91311428Y-126990000D01*
X91343333Y-127025714D01*
X91407142Y-127061428D01*
X91630476Y-127061428D01*
X90673333Y-126704285D02*
X90800952Y-126704285D01*
X90864761Y-126740000D01*
X90896666Y-126775714D01*
X90960476Y-126882857D01*
X90992380Y-127025714D01*
X90992380Y-127311428D01*
X90960476Y-127382857D01*
X90928571Y-127418571D01*
X90864761Y-127454285D01*
X90737142Y-127454285D01*
X90673333Y-127418571D01*
X90641428Y-127382857D01*
X90609523Y-127311428D01*
X90609523Y-127132857D01*
X90641428Y-127061428D01*
X90673333Y-127025714D01*
X90737142Y-126990000D01*
X90864761Y-126990000D01*
X90928571Y-127025714D01*
X90960476Y-127061428D01*
X90992380Y-127132857D01*
X93257619Y-122404285D02*
X93640476Y-122404285D01*
X93449047Y-122404285D02*
X93449047Y-121654285D01*
X93512857Y-121761428D01*
X93576666Y-121832857D01*
X93640476Y-121868571D01*
X92683333Y-121904285D02*
X92683333Y-122404285D01*
X92842857Y-121618571D02*
X93002380Y-122154285D01*
X92587619Y-122154285D01*
X91853809Y-121618571D02*
X92428095Y-122582857D01*
X91407142Y-122011428D02*
X91311428Y-122047142D01*
X91279523Y-122082857D01*
X91247619Y-122154285D01*
X91247619Y-122261428D01*
X91279523Y-122332857D01*
X91311428Y-122368571D01*
X91375238Y-122404285D01*
X91630476Y-122404285D01*
X91630476Y-121654285D01*
X91407142Y-121654285D01*
X91343333Y-121690000D01*
X91311428Y-121725714D01*
X91279523Y-121797142D01*
X91279523Y-121868571D01*
X91311428Y-121940000D01*
X91343333Y-121975714D01*
X91407142Y-122011428D01*
X91630476Y-122011428D01*
X91024285Y-121654285D02*
X90609523Y-121654285D01*
X90832857Y-121940000D01*
X90737142Y-121940000D01*
X90673333Y-121975714D01*
X90641428Y-122011428D01*
X90609523Y-122082857D01*
X90609523Y-122261428D01*
X90641428Y-122332857D01*
X90673333Y-122368571D01*
X90737142Y-122404285D01*
X90928571Y-122404285D01*
X90992380Y-122368571D01*
X91024285Y-122332857D01*
X93257619Y-119854285D02*
X93640476Y-119854285D01*
X93449047Y-119854285D02*
X93449047Y-119104285D01*
X93512857Y-119211428D01*
X93576666Y-119282857D01*
X93640476Y-119318571D01*
X92651428Y-119104285D02*
X92970476Y-119104285D01*
X93002380Y-119461428D01*
X92970476Y-119425714D01*
X92906666Y-119390000D01*
X92747142Y-119390000D01*
X92683333Y-119425714D01*
X92651428Y-119461428D01*
X92619523Y-119532857D01*
X92619523Y-119711428D01*
X92651428Y-119782857D01*
X92683333Y-119818571D01*
X92747142Y-119854285D01*
X92906666Y-119854285D01*
X92970476Y-119818571D01*
X93002380Y-119782857D01*
X91853809Y-119068571D02*
X92428095Y-120032857D01*
X91407142Y-119461428D02*
X91311428Y-119497142D01*
X91279523Y-119532857D01*
X91247619Y-119604285D01*
X91247619Y-119711428D01*
X91279523Y-119782857D01*
X91311428Y-119818571D01*
X91375238Y-119854285D01*
X91630476Y-119854285D01*
X91630476Y-119104285D01*
X91407142Y-119104285D01*
X91343333Y-119140000D01*
X91311428Y-119175714D01*
X91279523Y-119247142D01*
X91279523Y-119318571D01*
X91311428Y-119390000D01*
X91343333Y-119425714D01*
X91407142Y-119461428D01*
X91630476Y-119461428D01*
X90609523Y-119854285D02*
X90992380Y-119854285D01*
X90800952Y-119854285D02*
X90800952Y-119104285D01*
X90864761Y-119211428D01*
X90928571Y-119282857D01*
X90992380Y-119318571D01*
X93560714Y-117090000D02*
X93241666Y-117090000D01*
X93624523Y-117304285D02*
X93401190Y-116554285D01*
X93177857Y-117304285D01*
X92826904Y-116554285D02*
X92763095Y-116554285D01*
X92699285Y-116590000D01*
X92667380Y-116625714D01*
X92635476Y-116697142D01*
X92603571Y-116840000D01*
X92603571Y-117018571D01*
X92635476Y-117161428D01*
X92667380Y-117232857D01*
X92699285Y-117268571D01*
X92763095Y-117304285D01*
X92826904Y-117304285D01*
X92890714Y-117268571D01*
X92922619Y-117232857D01*
X92954523Y-117161428D01*
X92986428Y-117018571D01*
X92986428Y-116840000D01*
X92954523Y-116697142D01*
X92922619Y-116625714D01*
X92890714Y-116590000D01*
X92826904Y-116554285D01*
X91837857Y-116518571D02*
X92412142Y-117482857D01*
X91391190Y-116911428D02*
X91614523Y-116911428D01*
X91614523Y-117304285D02*
X91614523Y-116554285D01*
X91295476Y-116554285D01*
X91104047Y-116554285D02*
X90657380Y-116554285D01*
X90944523Y-117304285D01*
X93560714Y-114540000D02*
X93241666Y-114540000D01*
X93624523Y-114754285D02*
X93401190Y-114004285D01*
X93177857Y-114754285D01*
X92603571Y-114754285D02*
X92986428Y-114754285D01*
X92795000Y-114754285D02*
X92795000Y-114004285D01*
X92858809Y-114111428D01*
X92922619Y-114182857D01*
X92986428Y-114218571D01*
X91837857Y-113968571D02*
X92412142Y-114932857D01*
X91391190Y-114361428D02*
X91614523Y-114361428D01*
X91614523Y-114754285D02*
X91614523Y-114004285D01*
X91295476Y-114004285D01*
X90753095Y-114004285D02*
X90880714Y-114004285D01*
X90944523Y-114040000D01*
X90976428Y-114075714D01*
X91040238Y-114182857D01*
X91072142Y-114325714D01*
X91072142Y-114611428D01*
X91040238Y-114682857D01*
X91008333Y-114718571D01*
X90944523Y-114754285D01*
X90816904Y-114754285D01*
X90753095Y-114718571D01*
X90721190Y-114682857D01*
X90689285Y-114611428D01*
X90689285Y-114432857D01*
X90721190Y-114361428D01*
X90753095Y-114325714D01*
X90816904Y-114290000D01*
X90944523Y-114290000D01*
X91008333Y-114325714D01*
X91040238Y-114361428D01*
X91072142Y-114432857D01*
X93560714Y-112040000D02*
X93241666Y-112040000D01*
X93624523Y-112254285D02*
X93401190Y-111504285D01*
X93177857Y-112254285D01*
X92986428Y-111575714D02*
X92954523Y-111540000D01*
X92890714Y-111504285D01*
X92731190Y-111504285D01*
X92667380Y-111540000D01*
X92635476Y-111575714D01*
X92603571Y-111647142D01*
X92603571Y-111718571D01*
X92635476Y-111825714D01*
X93018333Y-112254285D01*
X92603571Y-112254285D01*
X91837857Y-111468571D02*
X92412142Y-112432857D01*
X91391190Y-111861428D02*
X91614523Y-111861428D01*
X91614523Y-112254285D02*
X91614523Y-111504285D01*
X91295476Y-111504285D01*
X90721190Y-111504285D02*
X91040238Y-111504285D01*
X91072142Y-111861428D01*
X91040238Y-111825714D01*
X90976428Y-111790000D01*
X90816904Y-111790000D01*
X90753095Y-111825714D01*
X90721190Y-111861428D01*
X90689285Y-111932857D01*
X90689285Y-112111428D01*
X90721190Y-112182857D01*
X90753095Y-112218571D01*
X90816904Y-112254285D01*
X90976428Y-112254285D01*
X91040238Y-112218571D01*
X91072142Y-112182857D01*
X93560714Y-109540000D02*
X93241666Y-109540000D01*
X93624523Y-109754285D02*
X93401190Y-109004285D01*
X93177857Y-109754285D01*
X93018333Y-109004285D02*
X92603571Y-109004285D01*
X92826904Y-109290000D01*
X92731190Y-109290000D01*
X92667380Y-109325714D01*
X92635476Y-109361428D01*
X92603571Y-109432857D01*
X92603571Y-109611428D01*
X92635476Y-109682857D01*
X92667380Y-109718571D01*
X92731190Y-109754285D01*
X92922619Y-109754285D01*
X92986428Y-109718571D01*
X93018333Y-109682857D01*
X91837857Y-108968571D02*
X92412142Y-109932857D01*
X91391190Y-109361428D02*
X91614523Y-109361428D01*
X91614523Y-109754285D02*
X91614523Y-109004285D01*
X91295476Y-109004285D01*
X90753095Y-109254285D02*
X90753095Y-109754285D01*
X90912619Y-108968571D02*
X91072142Y-109504285D01*
X90657380Y-109504285D01*
X92418333Y-106304285D02*
X92195000Y-107054285D01*
X91971666Y-106304285D01*
X91365476Y-106982857D02*
X91397380Y-107018571D01*
X91493095Y-107054285D01*
X91556904Y-107054285D01*
X91652619Y-107018571D01*
X91716428Y-106947142D01*
X91748333Y-106875714D01*
X91780238Y-106732857D01*
X91780238Y-106625714D01*
X91748333Y-106482857D01*
X91716428Y-106411428D01*
X91652619Y-106340000D01*
X91556904Y-106304285D01*
X91493095Y-106304285D01*
X91397380Y-106340000D01*
X91365476Y-106375714D01*
X90695476Y-106982857D02*
X90727380Y-107018571D01*
X90823095Y-107054285D01*
X90886904Y-107054285D01*
X90982619Y-107018571D01*
X91046428Y-106947142D01*
X91078333Y-106875714D01*
X91110238Y-106732857D01*
X91110238Y-106625714D01*
X91078333Y-106482857D01*
X91046428Y-106411428D01*
X90982619Y-106340000D01*
X90886904Y-106304285D01*
X90823095Y-106304285D01*
X90727380Y-106340000D01*
X90695476Y-106375714D01*
X91891904Y-104604285D02*
X92115238Y-104247142D01*
X92274761Y-104604285D02*
X92274761Y-103854285D01*
X92019523Y-103854285D01*
X91955714Y-103890000D01*
X91923809Y-103925714D01*
X91891904Y-103997142D01*
X91891904Y-104104285D01*
X91923809Y-104175714D01*
X91955714Y-104211428D01*
X92019523Y-104247142D01*
X92274761Y-104247142D01*
X91636666Y-104568571D02*
X91540952Y-104604285D01*
X91381428Y-104604285D01*
X91317619Y-104568571D01*
X91285714Y-104532857D01*
X91253809Y-104461428D01*
X91253809Y-104390000D01*
X91285714Y-104318571D01*
X91317619Y-104282857D01*
X91381428Y-104247142D01*
X91509047Y-104211428D01*
X91572857Y-104175714D01*
X91604761Y-104140000D01*
X91636666Y-104068571D01*
X91636666Y-103997142D01*
X91604761Y-103925714D01*
X91572857Y-103890000D01*
X91509047Y-103854285D01*
X91349523Y-103854285D01*
X91253809Y-103890000D01*
X91062380Y-103854285D02*
X90679523Y-103854285D01*
X90870952Y-104604285D02*
X90870952Y-103854285D01*
X92035476Y-101340000D02*
X92099285Y-101304285D01*
X92195000Y-101304285D01*
X92290714Y-101340000D01*
X92354523Y-101411428D01*
X92386428Y-101482857D01*
X92418333Y-101625714D01*
X92418333Y-101732857D01*
X92386428Y-101875714D01*
X92354523Y-101947142D01*
X92290714Y-102018571D01*
X92195000Y-102054285D01*
X92131190Y-102054285D01*
X92035476Y-102018571D01*
X92003571Y-101982857D01*
X92003571Y-101732857D01*
X92131190Y-101732857D01*
X91716428Y-102054285D02*
X91716428Y-101304285D01*
X91333571Y-102054285D01*
X91333571Y-101304285D01*
X91014523Y-102054285D02*
X91014523Y-101304285D01*
X90855000Y-101304285D01*
X90759285Y-101340000D01*
X90695476Y-101411428D01*
X90663571Y-101482857D01*
X90631666Y-101625714D01*
X90631666Y-101732857D01*
X90663571Y-101875714D01*
X90695476Y-101947142D01*
X90759285Y-102018571D01*
X90855000Y-102054285D01*
X91014523Y-102054285D01*
X91987619Y-99504285D02*
X92210952Y-99147142D01*
X92370476Y-99504285D02*
X92370476Y-98754285D01*
X92115238Y-98754285D01*
X92051428Y-98790000D01*
X92019523Y-98825714D01*
X91987619Y-98897142D01*
X91987619Y-99004285D01*
X92019523Y-99075714D01*
X92051428Y-99111428D01*
X92115238Y-99147142D01*
X92370476Y-99147142D01*
X91732380Y-99290000D02*
X91413333Y-99290000D01*
X91796190Y-99504285D02*
X91572857Y-98754285D01*
X91349523Y-99504285D01*
X91190000Y-98754285D02*
X91030476Y-99504285D01*
X90902857Y-98968571D01*
X90775238Y-99504285D01*
X90615714Y-98754285D01*
D12*
X146216666Y-108154380D02*
X146692857Y-108154380D01*
X146692857Y-107154380D01*
X145359523Y-108154380D02*
X145930952Y-108154380D01*
X145645238Y-108154380D02*
X145645238Y-107154380D01*
X145740476Y-107297238D01*
X145835714Y-107392476D01*
X145930952Y-107440095D01*
D13*
X141517619Y-99504285D02*
X141740952Y-99147142D01*
X141900476Y-99504285D02*
X141900476Y-98754285D01*
X141645238Y-98754285D01*
X141581428Y-98790000D01*
X141549523Y-98825714D01*
X141517619Y-98897142D01*
X141517619Y-99004285D01*
X141549523Y-99075714D01*
X141581428Y-99111428D01*
X141645238Y-99147142D01*
X141900476Y-99147142D01*
X141262380Y-99290000D02*
X140943333Y-99290000D01*
X141326190Y-99504285D02*
X141102857Y-98754285D01*
X140879523Y-99504285D01*
X140720000Y-98754285D02*
X140560476Y-99504285D01*
X140432857Y-98968571D01*
X140305238Y-99504285D01*
X140145714Y-98754285D01*
X141565476Y-101340000D02*
X141629285Y-101304285D01*
X141725000Y-101304285D01*
X141820714Y-101340000D01*
X141884523Y-101411428D01*
X141916428Y-101482857D01*
X141948333Y-101625714D01*
X141948333Y-101732857D01*
X141916428Y-101875714D01*
X141884523Y-101947142D01*
X141820714Y-102018571D01*
X141725000Y-102054285D01*
X141661190Y-102054285D01*
X141565476Y-102018571D01*
X141533571Y-101982857D01*
X141533571Y-101732857D01*
X141661190Y-101732857D01*
X141246428Y-102054285D02*
X141246428Y-101304285D01*
X140863571Y-102054285D01*
X140863571Y-101304285D01*
X140544523Y-102054285D02*
X140544523Y-101304285D01*
X140385000Y-101304285D01*
X140289285Y-101340000D01*
X140225476Y-101411428D01*
X140193571Y-101482857D01*
X140161666Y-101625714D01*
X140161666Y-101732857D01*
X140193571Y-101875714D01*
X140225476Y-101947142D01*
X140289285Y-102018571D01*
X140385000Y-102054285D01*
X140544523Y-102054285D01*
X141421904Y-104604285D02*
X141645238Y-104247142D01*
X141804761Y-104604285D02*
X141804761Y-103854285D01*
X141549523Y-103854285D01*
X141485714Y-103890000D01*
X141453809Y-103925714D01*
X141421904Y-103997142D01*
X141421904Y-104104285D01*
X141453809Y-104175714D01*
X141485714Y-104211428D01*
X141549523Y-104247142D01*
X141804761Y-104247142D01*
X141166666Y-104568571D02*
X141070952Y-104604285D01*
X140911428Y-104604285D01*
X140847619Y-104568571D01*
X140815714Y-104532857D01*
X140783809Y-104461428D01*
X140783809Y-104390000D01*
X140815714Y-104318571D01*
X140847619Y-104282857D01*
X140911428Y-104247142D01*
X141039047Y-104211428D01*
X141102857Y-104175714D01*
X141134761Y-104140000D01*
X141166666Y-104068571D01*
X141166666Y-103997142D01*
X141134761Y-103925714D01*
X141102857Y-103890000D01*
X141039047Y-103854285D01*
X140879523Y-103854285D01*
X140783809Y-103890000D01*
X140592380Y-103854285D02*
X140209523Y-103854285D01*
X140400952Y-104604285D02*
X140400952Y-103854285D01*
X141948333Y-106304285D02*
X141725000Y-107054285D01*
X141501666Y-106304285D01*
X140895476Y-106982857D02*
X140927380Y-107018571D01*
X141023095Y-107054285D01*
X141086904Y-107054285D01*
X141182619Y-107018571D01*
X141246428Y-106947142D01*
X141278333Y-106875714D01*
X141310238Y-106732857D01*
X141310238Y-106625714D01*
X141278333Y-106482857D01*
X141246428Y-106411428D01*
X141182619Y-106340000D01*
X141086904Y-106304285D01*
X141023095Y-106304285D01*
X140927380Y-106340000D01*
X140895476Y-106375714D01*
X140225476Y-106982857D02*
X140257380Y-107018571D01*
X140353095Y-107054285D01*
X140416904Y-107054285D01*
X140512619Y-107018571D01*
X140576428Y-106947142D01*
X140608333Y-106875714D01*
X140640238Y-106732857D01*
X140640238Y-106625714D01*
X140608333Y-106482857D01*
X140576428Y-106411428D01*
X140512619Y-106340000D01*
X140416904Y-106304285D01*
X140353095Y-106304285D01*
X140257380Y-106340000D01*
X140225476Y-106375714D01*
X143090714Y-109540000D02*
X142771666Y-109540000D01*
X143154523Y-109754285D02*
X142931190Y-109004285D01*
X142707857Y-109754285D01*
X142548333Y-109004285D02*
X142133571Y-109004285D01*
X142356904Y-109290000D01*
X142261190Y-109290000D01*
X142197380Y-109325714D01*
X142165476Y-109361428D01*
X142133571Y-109432857D01*
X142133571Y-109611428D01*
X142165476Y-109682857D01*
X142197380Y-109718571D01*
X142261190Y-109754285D01*
X142452619Y-109754285D01*
X142516428Y-109718571D01*
X142548333Y-109682857D01*
X141367857Y-108968571D02*
X141942142Y-109932857D01*
X140921190Y-109361428D02*
X141144523Y-109361428D01*
X141144523Y-109754285D02*
X141144523Y-109004285D01*
X140825476Y-109004285D01*
X140283095Y-109254285D02*
X140283095Y-109754285D01*
X140442619Y-108968571D02*
X140602142Y-109504285D01*
X140187380Y-109504285D01*
X143090714Y-112040000D02*
X142771666Y-112040000D01*
X143154523Y-112254285D02*
X142931190Y-111504285D01*
X142707857Y-112254285D01*
X142516428Y-111575714D02*
X142484523Y-111540000D01*
X142420714Y-111504285D01*
X142261190Y-111504285D01*
X142197380Y-111540000D01*
X142165476Y-111575714D01*
X142133571Y-111647142D01*
X142133571Y-111718571D01*
X142165476Y-111825714D01*
X142548333Y-112254285D01*
X142133571Y-112254285D01*
X141367857Y-111468571D02*
X141942142Y-112432857D01*
X140921190Y-111861428D02*
X141144523Y-111861428D01*
X141144523Y-112254285D02*
X141144523Y-111504285D01*
X140825476Y-111504285D01*
X140251190Y-111504285D02*
X140570238Y-111504285D01*
X140602142Y-111861428D01*
X140570238Y-111825714D01*
X140506428Y-111790000D01*
X140346904Y-111790000D01*
X140283095Y-111825714D01*
X140251190Y-111861428D01*
X140219285Y-111932857D01*
X140219285Y-112111428D01*
X140251190Y-112182857D01*
X140283095Y-112218571D01*
X140346904Y-112254285D01*
X140506428Y-112254285D01*
X140570238Y-112218571D01*
X140602142Y-112182857D01*
X143090714Y-114540000D02*
X142771666Y-114540000D01*
X143154523Y-114754285D02*
X142931190Y-114004285D01*
X142707857Y-114754285D01*
X142133571Y-114754285D02*
X142516428Y-114754285D01*
X142325000Y-114754285D02*
X142325000Y-114004285D01*
X142388809Y-114111428D01*
X142452619Y-114182857D01*
X142516428Y-114218571D01*
X141367857Y-113968571D02*
X141942142Y-114932857D01*
X140921190Y-114361428D02*
X141144523Y-114361428D01*
X141144523Y-114754285D02*
X141144523Y-114004285D01*
X140825476Y-114004285D01*
X140283095Y-114004285D02*
X140410714Y-114004285D01*
X140474523Y-114040000D01*
X140506428Y-114075714D01*
X140570238Y-114182857D01*
X140602142Y-114325714D01*
X140602142Y-114611428D01*
X140570238Y-114682857D01*
X140538333Y-114718571D01*
X140474523Y-114754285D01*
X140346904Y-114754285D01*
X140283095Y-114718571D01*
X140251190Y-114682857D01*
X140219285Y-114611428D01*
X140219285Y-114432857D01*
X140251190Y-114361428D01*
X140283095Y-114325714D01*
X140346904Y-114290000D01*
X140474523Y-114290000D01*
X140538333Y-114325714D01*
X140570238Y-114361428D01*
X140602142Y-114432857D01*
X143090714Y-117090000D02*
X142771666Y-117090000D01*
X143154523Y-117304285D02*
X142931190Y-116554285D01*
X142707857Y-117304285D01*
X142356904Y-116554285D02*
X142293095Y-116554285D01*
X142229285Y-116590000D01*
X142197380Y-116625714D01*
X142165476Y-116697142D01*
X142133571Y-116840000D01*
X142133571Y-117018571D01*
X142165476Y-117161428D01*
X142197380Y-117232857D01*
X142229285Y-117268571D01*
X142293095Y-117304285D01*
X142356904Y-117304285D01*
X142420714Y-117268571D01*
X142452619Y-117232857D01*
X142484523Y-117161428D01*
X142516428Y-117018571D01*
X142516428Y-116840000D01*
X142484523Y-116697142D01*
X142452619Y-116625714D01*
X142420714Y-116590000D01*
X142356904Y-116554285D01*
X141367857Y-116518571D02*
X141942142Y-117482857D01*
X140921190Y-116911428D02*
X141144523Y-116911428D01*
X141144523Y-117304285D02*
X141144523Y-116554285D01*
X140825476Y-116554285D01*
X140634047Y-116554285D02*
X140187380Y-116554285D01*
X140474523Y-117304285D01*
X142787619Y-119854285D02*
X143170476Y-119854285D01*
X142979047Y-119854285D02*
X142979047Y-119104285D01*
X143042857Y-119211428D01*
X143106666Y-119282857D01*
X143170476Y-119318571D01*
X142181428Y-119104285D02*
X142500476Y-119104285D01*
X142532380Y-119461428D01*
X142500476Y-119425714D01*
X142436666Y-119390000D01*
X142277142Y-119390000D01*
X142213333Y-119425714D01*
X142181428Y-119461428D01*
X142149523Y-119532857D01*
X142149523Y-119711428D01*
X142181428Y-119782857D01*
X142213333Y-119818571D01*
X142277142Y-119854285D01*
X142436666Y-119854285D01*
X142500476Y-119818571D01*
X142532380Y-119782857D01*
X141383809Y-119068571D02*
X141958095Y-120032857D01*
X140937142Y-119461428D02*
X140841428Y-119497142D01*
X140809523Y-119532857D01*
X140777619Y-119604285D01*
X140777619Y-119711428D01*
X140809523Y-119782857D01*
X140841428Y-119818571D01*
X140905238Y-119854285D01*
X141160476Y-119854285D01*
X141160476Y-119104285D01*
X140937142Y-119104285D01*
X140873333Y-119140000D01*
X140841428Y-119175714D01*
X140809523Y-119247142D01*
X140809523Y-119318571D01*
X140841428Y-119390000D01*
X140873333Y-119425714D01*
X140937142Y-119461428D01*
X141160476Y-119461428D01*
X140139523Y-119854285D02*
X140522380Y-119854285D01*
X140330952Y-119854285D02*
X140330952Y-119104285D01*
X140394761Y-119211428D01*
X140458571Y-119282857D01*
X140522380Y-119318571D01*
X142787619Y-122404285D02*
X143170476Y-122404285D01*
X142979047Y-122404285D02*
X142979047Y-121654285D01*
X143042857Y-121761428D01*
X143106666Y-121832857D01*
X143170476Y-121868571D01*
X142213333Y-121904285D02*
X142213333Y-122404285D01*
X142372857Y-121618571D02*
X142532380Y-122154285D01*
X142117619Y-122154285D01*
X141383809Y-121618571D02*
X141958095Y-122582857D01*
X140937142Y-122011428D02*
X140841428Y-122047142D01*
X140809523Y-122082857D01*
X140777619Y-122154285D01*
X140777619Y-122261428D01*
X140809523Y-122332857D01*
X140841428Y-122368571D01*
X140905238Y-122404285D01*
X141160476Y-122404285D01*
X141160476Y-121654285D01*
X140937142Y-121654285D01*
X140873333Y-121690000D01*
X140841428Y-121725714D01*
X140809523Y-121797142D01*
X140809523Y-121868571D01*
X140841428Y-121940000D01*
X140873333Y-121975714D01*
X140937142Y-122011428D01*
X141160476Y-122011428D01*
X140554285Y-121654285D02*
X140139523Y-121654285D01*
X140362857Y-121940000D01*
X140267142Y-121940000D01*
X140203333Y-121975714D01*
X140171428Y-122011428D01*
X140139523Y-122082857D01*
X140139523Y-122261428D01*
X140171428Y-122332857D01*
X140203333Y-122368571D01*
X140267142Y-122404285D01*
X140458571Y-122404285D01*
X140522380Y-122368571D01*
X140554285Y-122332857D01*
X142787619Y-127454285D02*
X143170476Y-127454285D01*
X142979047Y-127454285D02*
X142979047Y-126704285D01*
X143042857Y-126811428D01*
X143106666Y-126882857D01*
X143170476Y-126918571D01*
X142372857Y-126704285D02*
X142309047Y-126704285D01*
X142245238Y-126740000D01*
X142213333Y-126775714D01*
X142181428Y-126847142D01*
X142149523Y-126990000D01*
X142149523Y-127168571D01*
X142181428Y-127311428D01*
X142213333Y-127382857D01*
X142245238Y-127418571D01*
X142309047Y-127454285D01*
X142372857Y-127454285D01*
X142436666Y-127418571D01*
X142468571Y-127382857D01*
X142500476Y-127311428D01*
X142532380Y-127168571D01*
X142532380Y-126990000D01*
X142500476Y-126847142D01*
X142468571Y-126775714D01*
X142436666Y-126740000D01*
X142372857Y-126704285D01*
X141383809Y-126668571D02*
X141958095Y-127632857D01*
X140937142Y-127061428D02*
X140841428Y-127097142D01*
X140809523Y-127132857D01*
X140777619Y-127204285D01*
X140777619Y-127311428D01*
X140809523Y-127382857D01*
X140841428Y-127418571D01*
X140905238Y-127454285D01*
X141160476Y-127454285D01*
X141160476Y-126704285D01*
X140937142Y-126704285D01*
X140873333Y-126740000D01*
X140841428Y-126775714D01*
X140809523Y-126847142D01*
X140809523Y-126918571D01*
X140841428Y-126990000D01*
X140873333Y-127025714D01*
X140937142Y-127061428D01*
X141160476Y-127061428D01*
X140203333Y-126704285D02*
X140330952Y-126704285D01*
X140394761Y-126740000D01*
X140426666Y-126775714D01*
X140490476Y-126882857D01*
X140522380Y-127025714D01*
X140522380Y-127311428D01*
X140490476Y-127382857D01*
X140458571Y-127418571D01*
X140394761Y-127454285D01*
X140267142Y-127454285D01*
X140203333Y-127418571D01*
X140171428Y-127382857D01*
X140139523Y-127311428D01*
X140139523Y-127132857D01*
X140171428Y-127061428D01*
X140203333Y-127025714D01*
X140267142Y-126990000D01*
X140394761Y-126990000D01*
X140458571Y-127025714D01*
X140490476Y-127061428D01*
X140522380Y-127132857D01*
X142787619Y-124954285D02*
X143170476Y-124954285D01*
X142979047Y-124954285D02*
X142979047Y-124204285D01*
X143042857Y-124311428D01*
X143106666Y-124382857D01*
X143170476Y-124418571D01*
X142213333Y-124204285D02*
X142340952Y-124204285D01*
X142404761Y-124240000D01*
X142436666Y-124275714D01*
X142500476Y-124382857D01*
X142532380Y-124525714D01*
X142532380Y-124811428D01*
X142500476Y-124882857D01*
X142468571Y-124918571D01*
X142404761Y-124954285D01*
X142277142Y-124954285D01*
X142213333Y-124918571D01*
X142181428Y-124882857D01*
X142149523Y-124811428D01*
X142149523Y-124632857D01*
X142181428Y-124561428D01*
X142213333Y-124525714D01*
X142277142Y-124490000D01*
X142404761Y-124490000D01*
X142468571Y-124525714D01*
X142500476Y-124561428D01*
X142532380Y-124632857D01*
X141383809Y-124168571D02*
X141958095Y-125132857D01*
X140937142Y-124561428D02*
X140841428Y-124597142D01*
X140809523Y-124632857D01*
X140777619Y-124704285D01*
X140777619Y-124811428D01*
X140809523Y-124882857D01*
X140841428Y-124918571D01*
X140905238Y-124954285D01*
X141160476Y-124954285D01*
X141160476Y-124204285D01*
X140937142Y-124204285D01*
X140873333Y-124240000D01*
X140841428Y-124275714D01*
X140809523Y-124347142D01*
X140809523Y-124418571D01*
X140841428Y-124490000D01*
X140873333Y-124525714D01*
X140937142Y-124561428D01*
X141160476Y-124561428D01*
X140522380Y-124275714D02*
X140490476Y-124240000D01*
X140426666Y-124204285D01*
X140267142Y-124204285D01*
X140203333Y-124240000D01*
X140171428Y-124275714D01*
X140139523Y-124347142D01*
X140139523Y-124418571D01*
X140171428Y-124525714D01*
X140554285Y-124954285D01*
X140139523Y-124954285D01*
X151887619Y-121861428D02*
X151664285Y-121861428D01*
X151568571Y-122254285D02*
X151887619Y-122254285D01*
X151887619Y-121504285D01*
X151568571Y-121504285D01*
X150994285Y-121504285D02*
X151121904Y-121504285D01*
X151185714Y-121540000D01*
X151217619Y-121575714D01*
X151281428Y-121682857D01*
X151313333Y-121825714D01*
X151313333Y-122111428D01*
X151281428Y-122182857D01*
X151249523Y-122218571D01*
X151185714Y-122254285D01*
X151058095Y-122254285D01*
X150994285Y-122218571D01*
X150962380Y-122182857D01*
X150930476Y-122111428D01*
X150930476Y-121932857D01*
X150962380Y-121861428D01*
X150994285Y-121825714D01*
X151058095Y-121790000D01*
X151185714Y-121790000D01*
X151249523Y-121825714D01*
X151281428Y-121861428D01*
X151313333Y-121932857D01*
X150164761Y-121468571D02*
X150739047Y-122432857D01*
X150005238Y-121504285D02*
X149558571Y-121504285D01*
X149845714Y-122254285D01*
X151919523Y-119704285D02*
X151919523Y-118954285D01*
X151760000Y-118954285D01*
X151664285Y-118990000D01*
X151600476Y-119061428D01*
X151568571Y-119132857D01*
X151536666Y-119275714D01*
X151536666Y-119382857D01*
X151568571Y-119525714D01*
X151600476Y-119597142D01*
X151664285Y-119668571D01*
X151760000Y-119704285D01*
X151919523Y-119704285D01*
X151313333Y-118954285D02*
X150866666Y-118954285D01*
X151153809Y-119704285D01*
X150132857Y-118918571D02*
X150707142Y-119882857D01*
X149622380Y-118954285D02*
X149750000Y-118954285D01*
X149813809Y-118990000D01*
X149845714Y-119025714D01*
X149909523Y-119132857D01*
X149941428Y-119275714D01*
X149941428Y-119561428D01*
X149909523Y-119632857D01*
X149877619Y-119668571D01*
X149813809Y-119704285D01*
X149686190Y-119704285D01*
X149622380Y-119668571D01*
X149590476Y-119632857D01*
X149558571Y-119561428D01*
X149558571Y-119382857D01*
X149590476Y-119311428D01*
X149622380Y-119275714D01*
X149686190Y-119240000D01*
X149813809Y-119240000D01*
X149877619Y-119275714D01*
X149909523Y-119311428D01*
X149941428Y-119382857D01*
X151515476Y-103940000D02*
X151579285Y-103904285D01*
X151675000Y-103904285D01*
X151770714Y-103940000D01*
X151834523Y-104011428D01*
X151866428Y-104082857D01*
X151898333Y-104225714D01*
X151898333Y-104332857D01*
X151866428Y-104475714D01*
X151834523Y-104547142D01*
X151770714Y-104618571D01*
X151675000Y-104654285D01*
X151611190Y-104654285D01*
X151515476Y-104618571D01*
X151483571Y-104582857D01*
X151483571Y-104332857D01*
X151611190Y-104332857D01*
X151196428Y-104654285D02*
X151196428Y-103904285D01*
X150813571Y-104654285D01*
X150813571Y-103904285D01*
X150494523Y-104654285D02*
X150494523Y-103904285D01*
X150335000Y-103904285D01*
X150239285Y-103940000D01*
X150175476Y-104011428D01*
X150143571Y-104082857D01*
X150111666Y-104225714D01*
X150111666Y-104332857D01*
X150143571Y-104475714D01*
X150175476Y-104547142D01*
X150239285Y-104618571D01*
X150335000Y-104654285D01*
X150494523Y-104654285D01*
X151515476Y-106390000D02*
X151579285Y-106354285D01*
X151675000Y-106354285D01*
X151770714Y-106390000D01*
X151834523Y-106461428D01*
X151866428Y-106532857D01*
X151898333Y-106675714D01*
X151898333Y-106782857D01*
X151866428Y-106925714D01*
X151834523Y-106997142D01*
X151770714Y-107068571D01*
X151675000Y-107104285D01*
X151611190Y-107104285D01*
X151515476Y-107068571D01*
X151483571Y-107032857D01*
X151483571Y-106782857D01*
X151611190Y-106782857D01*
X151196428Y-107104285D02*
X151196428Y-106354285D01*
X150813571Y-107104285D01*
X150813571Y-106354285D01*
X150494523Y-107104285D02*
X150494523Y-106354285D01*
X150335000Y-106354285D01*
X150239285Y-106390000D01*
X150175476Y-106461428D01*
X150143571Y-106532857D01*
X150111666Y-106675714D01*
X150111666Y-106782857D01*
X150143571Y-106925714D01*
X150175476Y-106997142D01*
X150239285Y-107068571D01*
X150335000Y-107104285D01*
X150494523Y-107104285D01*
X151943809Y-99554285D02*
X151943809Y-98804285D01*
X151784285Y-98804285D01*
X151688571Y-98840000D01*
X151624761Y-98911428D01*
X151592857Y-98982857D01*
X151560952Y-99125714D01*
X151560952Y-99232857D01*
X151592857Y-99375714D01*
X151624761Y-99447142D01*
X151688571Y-99518571D01*
X151784285Y-99554285D01*
X151943809Y-99554285D01*
X151337619Y-98804285D02*
X150922857Y-98804285D01*
X151146190Y-99090000D01*
X151050476Y-99090000D01*
X150986666Y-99125714D01*
X150954761Y-99161428D01*
X150922857Y-99232857D01*
X150922857Y-99411428D01*
X150954761Y-99482857D01*
X150986666Y-99518571D01*
X151050476Y-99554285D01*
X151241904Y-99554285D01*
X151305714Y-99518571D01*
X151337619Y-99482857D01*
X150157142Y-98768571D02*
X150731428Y-99732857D01*
X150029523Y-98804285D02*
X149646666Y-98804285D01*
X149838095Y-99554285D02*
X149838095Y-98804285D01*
X149487142Y-98804285D02*
X149040476Y-99554285D01*
X149040476Y-98804285D02*
X149487142Y-99554285D01*
X148657619Y-98804285D02*
X148593809Y-98804285D01*
X148530000Y-98840000D01*
X148498095Y-98875714D01*
X148466190Y-98947142D01*
X148434285Y-99090000D01*
X148434285Y-99268571D01*
X148466190Y-99411428D01*
X148498095Y-99482857D01*
X148530000Y-99518571D01*
X148593809Y-99554285D01*
X148657619Y-99554285D01*
X148721428Y-99518571D01*
X148753333Y-99482857D01*
X148785238Y-99411428D01*
X148817142Y-99268571D01*
X148817142Y-99090000D01*
X148785238Y-98947142D01*
X148753333Y-98875714D01*
X148721428Y-98840000D01*
X148657619Y-98804285D01*
X151919523Y-114604285D02*
X151919523Y-113854285D01*
X151760000Y-113854285D01*
X151664285Y-113890000D01*
X151600476Y-113961428D01*
X151568571Y-114032857D01*
X151536666Y-114175714D01*
X151536666Y-114282857D01*
X151568571Y-114425714D01*
X151600476Y-114497142D01*
X151664285Y-114568571D01*
X151760000Y-114604285D01*
X151919523Y-114604285D01*
X150962380Y-114104285D02*
X150962380Y-114604285D01*
X151121904Y-113818571D02*
X151281428Y-114354285D01*
X150866666Y-114354285D01*
X150132857Y-113818571D02*
X150707142Y-114782857D01*
X149622380Y-114104285D02*
X149622380Y-114604285D01*
X149781904Y-113818571D02*
X149941428Y-114354285D01*
X149526666Y-114354285D01*
X151993571Y-109568571D02*
X151897857Y-109604285D01*
X151738333Y-109604285D01*
X151674523Y-109568571D01*
X151642619Y-109532857D01*
X151610714Y-109461428D01*
X151610714Y-109390000D01*
X151642619Y-109318571D01*
X151674523Y-109282857D01*
X151738333Y-109247142D01*
X151865952Y-109211428D01*
X151929761Y-109175714D01*
X151961666Y-109140000D01*
X151993571Y-109068571D01*
X151993571Y-108997142D01*
X151961666Y-108925714D01*
X151929761Y-108890000D01*
X151865952Y-108854285D01*
X151706428Y-108854285D01*
X151610714Y-108890000D01*
X151323571Y-109604285D02*
X151323571Y-108854285D01*
X151164047Y-108854285D01*
X151068333Y-108890000D01*
X151004523Y-108961428D01*
X150972619Y-109032857D01*
X150940714Y-109175714D01*
X150940714Y-109282857D01*
X150972619Y-109425714D01*
X151004523Y-109497142D01*
X151068333Y-109568571D01*
X151164047Y-109604285D01*
X151323571Y-109604285D01*
X150685476Y-109390000D02*
X150366428Y-109390000D01*
X150749285Y-109604285D02*
X150525952Y-108854285D01*
X150302619Y-109604285D01*
X149600714Y-108818571D02*
X150175000Y-109782857D01*
X149377380Y-109604285D02*
X149377380Y-108854285D01*
X149217857Y-108854285D01*
X149122142Y-108890000D01*
X149058333Y-108961428D01*
X149026428Y-109032857D01*
X148994523Y-109175714D01*
X148994523Y-109282857D01*
X149026428Y-109425714D01*
X149058333Y-109497142D01*
X149122142Y-109568571D01*
X149217857Y-109604285D01*
X149377380Y-109604285D01*
X148356428Y-109604285D02*
X148739285Y-109604285D01*
X148547857Y-109604285D02*
X148547857Y-108854285D01*
X148611666Y-108961428D01*
X148675476Y-109032857D01*
X148739285Y-109068571D01*
X147590714Y-108818571D02*
X148165000Y-109782857D01*
X147399285Y-108925714D02*
X147367380Y-108890000D01*
X147303571Y-108854285D01*
X147144047Y-108854285D01*
X147080238Y-108890000D01*
X147048333Y-108925714D01*
X147016428Y-108997142D01*
X147016428Y-109068571D01*
X147048333Y-109175714D01*
X147431190Y-109604285D01*
X147016428Y-109604285D01*
X151977619Y-112068571D02*
X151881904Y-112104285D01*
X151722380Y-112104285D01*
X151658571Y-112068571D01*
X151626666Y-112032857D01*
X151594761Y-111961428D01*
X151594761Y-111890000D01*
X151626666Y-111818571D01*
X151658571Y-111782857D01*
X151722380Y-111747142D01*
X151850000Y-111711428D01*
X151913809Y-111675714D01*
X151945714Y-111640000D01*
X151977619Y-111568571D01*
X151977619Y-111497142D01*
X151945714Y-111425714D01*
X151913809Y-111390000D01*
X151850000Y-111354285D01*
X151690476Y-111354285D01*
X151594761Y-111390000D01*
X150924761Y-112032857D02*
X150956666Y-112068571D01*
X151052380Y-112104285D01*
X151116190Y-112104285D01*
X151211904Y-112068571D01*
X151275714Y-111997142D01*
X151307619Y-111925714D01*
X151339523Y-111782857D01*
X151339523Y-111675714D01*
X151307619Y-111532857D01*
X151275714Y-111461428D01*
X151211904Y-111390000D01*
X151116190Y-111354285D01*
X151052380Y-111354285D01*
X150956666Y-111390000D01*
X150924761Y-111425714D01*
X150318571Y-112104285D02*
X150637619Y-112104285D01*
X150637619Y-111354285D01*
X149616666Y-111318571D02*
X150190952Y-112282857D01*
X149393333Y-112104285D02*
X149393333Y-111354285D01*
X149233809Y-111354285D01*
X149138095Y-111390000D01*
X149074285Y-111461428D01*
X149042380Y-111532857D01*
X149010476Y-111675714D01*
X149010476Y-111782857D01*
X149042380Y-111925714D01*
X149074285Y-111997142D01*
X149138095Y-112068571D01*
X149233809Y-112104285D01*
X149393333Y-112104285D01*
X148595714Y-111354285D02*
X148531904Y-111354285D01*
X148468095Y-111390000D01*
X148436190Y-111425714D01*
X148404285Y-111497142D01*
X148372380Y-111640000D01*
X148372380Y-111818571D01*
X148404285Y-111961428D01*
X148436190Y-112032857D01*
X148468095Y-112068571D01*
X148531904Y-112104285D01*
X148595714Y-112104285D01*
X148659523Y-112068571D01*
X148691428Y-112032857D01*
X148723333Y-111961428D01*
X148755238Y-111818571D01*
X148755238Y-111640000D01*
X148723333Y-111497142D01*
X148691428Y-111425714D01*
X148659523Y-111390000D01*
X148595714Y-111354285D01*
X147606666Y-111318571D02*
X148180952Y-112282857D01*
X147447142Y-111354285D02*
X147032380Y-111354285D01*
X147255714Y-111640000D01*
X147160000Y-111640000D01*
X147096190Y-111675714D01*
X147064285Y-111711428D01*
X147032380Y-111782857D01*
X147032380Y-111961428D01*
X147064285Y-112032857D01*
X147096190Y-112068571D01*
X147160000Y-112104285D01*
X147351428Y-112104285D01*
X147415238Y-112068571D01*
X147447142Y-112032857D01*
X151536666Y-117082857D02*
X151568571Y-117118571D01*
X151664285Y-117154285D01*
X151728095Y-117154285D01*
X151823809Y-117118571D01*
X151887619Y-117047142D01*
X151919523Y-116975714D01*
X151951428Y-116832857D01*
X151951428Y-116725714D01*
X151919523Y-116582857D01*
X151887619Y-116511428D01*
X151823809Y-116440000D01*
X151728095Y-116404285D01*
X151664285Y-116404285D01*
X151568571Y-116440000D01*
X151536666Y-116475714D01*
X150962380Y-116404285D02*
X151090000Y-116404285D01*
X151153809Y-116440000D01*
X151185714Y-116475714D01*
X151249523Y-116582857D01*
X151281428Y-116725714D01*
X151281428Y-117011428D01*
X151249523Y-117082857D01*
X151217619Y-117118571D01*
X151153809Y-117154285D01*
X151026190Y-117154285D01*
X150962380Y-117118571D01*
X150930476Y-117082857D01*
X150898571Y-117011428D01*
X150898571Y-116832857D01*
X150930476Y-116761428D01*
X150962380Y-116725714D01*
X151026190Y-116690000D01*
X151153809Y-116690000D01*
X151217619Y-116725714D01*
X151249523Y-116761428D01*
X151281428Y-116832857D01*
X150132857Y-116368571D02*
X150707142Y-117332857D01*
X149590476Y-116404285D02*
X149909523Y-116404285D01*
X149941428Y-116761428D01*
X149909523Y-116725714D01*
X149845714Y-116690000D01*
X149686190Y-116690000D01*
X149622380Y-116725714D01*
X149590476Y-116761428D01*
X149558571Y-116832857D01*
X149558571Y-117011428D01*
X149590476Y-117082857D01*
X149622380Y-117118571D01*
X149686190Y-117154285D01*
X149845714Y-117154285D01*
X149909523Y-117118571D01*
X149941428Y-117082857D01*
X151696190Y-126911428D02*
X151600476Y-126947142D01*
X151568571Y-126982857D01*
X151536666Y-127054285D01*
X151536666Y-127161428D01*
X151568571Y-127232857D01*
X151600476Y-127268571D01*
X151664285Y-127304285D01*
X151919523Y-127304285D01*
X151919523Y-126554285D01*
X151696190Y-126554285D01*
X151632380Y-126590000D01*
X151600476Y-126625714D01*
X151568571Y-126697142D01*
X151568571Y-126768571D01*
X151600476Y-126840000D01*
X151632380Y-126875714D01*
X151696190Y-126911428D01*
X151919523Y-126911428D01*
X150930476Y-126554285D02*
X151249523Y-126554285D01*
X151281428Y-126911428D01*
X151249523Y-126875714D01*
X151185714Y-126840000D01*
X151026190Y-126840000D01*
X150962380Y-126875714D01*
X150930476Y-126911428D01*
X150898571Y-126982857D01*
X150898571Y-127161428D01*
X150930476Y-127232857D01*
X150962380Y-127268571D01*
X151026190Y-127304285D01*
X151185714Y-127304285D01*
X151249523Y-127268571D01*
X151281428Y-127232857D01*
X150132857Y-126518571D02*
X150707142Y-127482857D01*
X149877619Y-127304285D02*
X149750000Y-127304285D01*
X149686190Y-127268571D01*
X149654285Y-127232857D01*
X149590476Y-127125714D01*
X149558571Y-126982857D01*
X149558571Y-126697142D01*
X149590476Y-126625714D01*
X149622380Y-126590000D01*
X149686190Y-126554285D01*
X149813809Y-126554285D01*
X149877619Y-126590000D01*
X149909523Y-126625714D01*
X149941428Y-126697142D01*
X149941428Y-126875714D01*
X149909523Y-126947142D01*
X149877619Y-126982857D01*
X149813809Y-127018571D01*
X149686190Y-127018571D01*
X149622380Y-126982857D01*
X149590476Y-126947142D01*
X149558571Y-126875714D01*
X152023571Y-102104285D02*
X152023571Y-101354285D01*
X151864047Y-101354285D01*
X151768333Y-101390000D01*
X151704523Y-101461428D01*
X151672619Y-101532857D01*
X151640714Y-101675714D01*
X151640714Y-101782857D01*
X151672619Y-101925714D01*
X151704523Y-101997142D01*
X151768333Y-102068571D01*
X151864047Y-102104285D01*
X152023571Y-102104285D01*
X151385476Y-101425714D02*
X151353571Y-101390000D01*
X151289761Y-101354285D01*
X151130238Y-101354285D01*
X151066428Y-101390000D01*
X151034523Y-101425714D01*
X151002619Y-101497142D01*
X151002619Y-101568571D01*
X151034523Y-101675714D01*
X151417380Y-102104285D01*
X151002619Y-102104285D01*
X150236904Y-101318571D02*
X150811190Y-102282857D01*
X149630714Y-102104285D02*
X149854047Y-101747142D01*
X150013571Y-102104285D02*
X150013571Y-101354285D01*
X149758333Y-101354285D01*
X149694523Y-101390000D01*
X149662619Y-101425714D01*
X149630714Y-101497142D01*
X149630714Y-101604285D01*
X149662619Y-101675714D01*
X149694523Y-101711428D01*
X149758333Y-101747142D01*
X150013571Y-101747142D01*
X149407380Y-101354285D02*
X148960714Y-102104285D01*
X148960714Y-101354285D02*
X149407380Y-102104285D01*
X148354523Y-102104285D02*
X148737380Y-102104285D01*
X148545952Y-102104285D02*
X148545952Y-101354285D01*
X148609761Y-101461428D01*
X148673571Y-101532857D01*
X148737380Y-101568571D01*
X151696190Y-124411428D02*
X151600476Y-124447142D01*
X151568571Y-124482857D01*
X151536666Y-124554285D01*
X151536666Y-124661428D01*
X151568571Y-124732857D01*
X151600476Y-124768571D01*
X151664285Y-124804285D01*
X151919523Y-124804285D01*
X151919523Y-124054285D01*
X151696190Y-124054285D01*
X151632380Y-124090000D01*
X151600476Y-124125714D01*
X151568571Y-124197142D01*
X151568571Y-124268571D01*
X151600476Y-124340000D01*
X151632380Y-124375714D01*
X151696190Y-124411428D01*
X151919523Y-124411428D01*
X150962380Y-124304285D02*
X150962380Y-124804285D01*
X151121904Y-124018571D02*
X151281428Y-124554285D01*
X150866666Y-124554285D01*
X150132857Y-124018571D02*
X150707142Y-124982857D01*
X149813809Y-124375714D02*
X149877619Y-124340000D01*
X149909523Y-124304285D01*
X149941428Y-124232857D01*
X149941428Y-124197142D01*
X149909523Y-124125714D01*
X149877619Y-124090000D01*
X149813809Y-124054285D01*
X149686190Y-124054285D01*
X149622380Y-124090000D01*
X149590476Y-124125714D01*
X149558571Y-124197142D01*
X149558571Y-124232857D01*
X149590476Y-124304285D01*
X149622380Y-124340000D01*
X149686190Y-124375714D01*
X149813809Y-124375714D01*
X149877619Y-124411428D01*
X149909523Y-124447142D01*
X149941428Y-124518571D01*
X149941428Y-124661428D01*
X149909523Y-124732857D01*
X149877619Y-124768571D01*
X149813809Y-124804285D01*
X149686190Y-124804285D01*
X149622380Y-124768571D01*
X149590476Y-124732857D01*
X149558571Y-124661428D01*
X149558571Y-124518571D01*
X149590476Y-124447142D01*
X149622380Y-124411428D01*
X149686190Y-124375714D01*
D12*
X77636666Y-127204380D02*
X78112857Y-127204380D01*
X78112857Y-126204380D01*
X77398571Y-126204380D02*
X76779523Y-126204380D01*
X77112857Y-126585333D01*
X76970000Y-126585333D01*
X76874761Y-126632952D01*
X76827142Y-126680571D01*
X76779523Y-126775809D01*
X76779523Y-127013904D01*
X76827142Y-127109142D01*
X76874761Y-127156761D01*
X76970000Y-127204380D01*
X77255714Y-127204380D01*
X77350952Y-127156761D01*
X77398571Y-127109142D01*
X96686666Y-108154380D02*
X97162857Y-108154380D01*
X97162857Y-107154380D01*
X95829523Y-108154380D02*
X96400952Y-108154380D01*
X96115238Y-108154380D02*
X96115238Y-107154380D01*
X96210476Y-107297238D01*
X96305714Y-107392476D01*
X96400952Y-107440095D01*
X77636666Y-108154380D02*
X78112857Y-108154380D01*
X78112857Y-107154380D01*
X76874761Y-107487714D02*
X76874761Y-108154380D01*
X77112857Y-107106761D02*
X77350952Y-107821047D01*
X76731904Y-107821047D01*
X96686666Y-127204380D02*
X97162857Y-127204380D01*
X97162857Y-126204380D01*
X96400952Y-126299619D02*
X96353333Y-126252000D01*
X96258095Y-126204380D01*
X96020000Y-126204380D01*
X95924761Y-126252000D01*
X95877142Y-126299619D01*
X95829523Y-126394857D01*
X95829523Y-126490095D01*
X95877142Y-126632952D01*
X96448571Y-127204380D01*
X95829523Y-127204380D01*
D13*
X151696190Y-79326428D02*
X151600476Y-79362142D01*
X151568571Y-79397857D01*
X151536666Y-79469285D01*
X151536666Y-79576428D01*
X151568571Y-79647857D01*
X151600476Y-79683571D01*
X151664285Y-79719285D01*
X151919523Y-79719285D01*
X151919523Y-78969285D01*
X151696190Y-78969285D01*
X151632380Y-79005000D01*
X151600476Y-79040714D01*
X151568571Y-79112142D01*
X151568571Y-79183571D01*
X151600476Y-79255000D01*
X151632380Y-79290714D01*
X151696190Y-79326428D01*
X151919523Y-79326428D01*
X150962380Y-79219285D02*
X150962380Y-79719285D01*
X151121904Y-78933571D02*
X151281428Y-79469285D01*
X150866666Y-79469285D01*
X150132857Y-78933571D02*
X150707142Y-79897857D01*
X149813809Y-79290714D02*
X149877619Y-79255000D01*
X149909523Y-79219285D01*
X149941428Y-79147857D01*
X149941428Y-79112142D01*
X149909523Y-79040714D01*
X149877619Y-79005000D01*
X149813809Y-78969285D01*
X149686190Y-78969285D01*
X149622380Y-79005000D01*
X149590476Y-79040714D01*
X149558571Y-79112142D01*
X149558571Y-79147857D01*
X149590476Y-79219285D01*
X149622380Y-79255000D01*
X149686190Y-79290714D01*
X149813809Y-79290714D01*
X149877619Y-79326428D01*
X149909523Y-79362142D01*
X149941428Y-79433571D01*
X149941428Y-79576428D01*
X149909523Y-79647857D01*
X149877619Y-79683571D01*
X149813809Y-79719285D01*
X149686190Y-79719285D01*
X149622380Y-79683571D01*
X149590476Y-79647857D01*
X149558571Y-79576428D01*
X149558571Y-79433571D01*
X149590476Y-79362142D01*
X149622380Y-79326428D01*
X149686190Y-79290714D01*
X152023571Y-57019285D02*
X152023571Y-56269285D01*
X151864047Y-56269285D01*
X151768333Y-56305000D01*
X151704523Y-56376428D01*
X151672619Y-56447857D01*
X151640714Y-56590714D01*
X151640714Y-56697857D01*
X151672619Y-56840714D01*
X151704523Y-56912142D01*
X151768333Y-56983571D01*
X151864047Y-57019285D01*
X152023571Y-57019285D01*
X151385476Y-56340714D02*
X151353571Y-56305000D01*
X151289761Y-56269285D01*
X151130238Y-56269285D01*
X151066428Y-56305000D01*
X151034523Y-56340714D01*
X151002619Y-56412142D01*
X151002619Y-56483571D01*
X151034523Y-56590714D01*
X151417380Y-57019285D01*
X151002619Y-57019285D01*
X150236904Y-56233571D02*
X150811190Y-57197857D01*
X149630714Y-57019285D02*
X149854047Y-56662142D01*
X150013571Y-57019285D02*
X150013571Y-56269285D01*
X149758333Y-56269285D01*
X149694523Y-56305000D01*
X149662619Y-56340714D01*
X149630714Y-56412142D01*
X149630714Y-56519285D01*
X149662619Y-56590714D01*
X149694523Y-56626428D01*
X149758333Y-56662142D01*
X150013571Y-56662142D01*
X149407380Y-56269285D02*
X148960714Y-57019285D01*
X148960714Y-56269285D02*
X149407380Y-57019285D01*
X148354523Y-57019285D02*
X148737380Y-57019285D01*
X148545952Y-57019285D02*
X148545952Y-56269285D01*
X148609761Y-56376428D01*
X148673571Y-56447857D01*
X148737380Y-56483571D01*
X151696190Y-81826428D02*
X151600476Y-81862142D01*
X151568571Y-81897857D01*
X151536666Y-81969285D01*
X151536666Y-82076428D01*
X151568571Y-82147857D01*
X151600476Y-82183571D01*
X151664285Y-82219285D01*
X151919523Y-82219285D01*
X151919523Y-81469285D01*
X151696190Y-81469285D01*
X151632380Y-81505000D01*
X151600476Y-81540714D01*
X151568571Y-81612142D01*
X151568571Y-81683571D01*
X151600476Y-81755000D01*
X151632380Y-81790714D01*
X151696190Y-81826428D01*
X151919523Y-81826428D01*
X150930476Y-81469285D02*
X151249523Y-81469285D01*
X151281428Y-81826428D01*
X151249523Y-81790714D01*
X151185714Y-81755000D01*
X151026190Y-81755000D01*
X150962380Y-81790714D01*
X150930476Y-81826428D01*
X150898571Y-81897857D01*
X150898571Y-82076428D01*
X150930476Y-82147857D01*
X150962380Y-82183571D01*
X151026190Y-82219285D01*
X151185714Y-82219285D01*
X151249523Y-82183571D01*
X151281428Y-82147857D01*
X150132857Y-81433571D02*
X150707142Y-82397857D01*
X149877619Y-82219285D02*
X149750000Y-82219285D01*
X149686190Y-82183571D01*
X149654285Y-82147857D01*
X149590476Y-82040714D01*
X149558571Y-81897857D01*
X149558571Y-81612142D01*
X149590476Y-81540714D01*
X149622380Y-81505000D01*
X149686190Y-81469285D01*
X149813809Y-81469285D01*
X149877619Y-81505000D01*
X149909523Y-81540714D01*
X149941428Y-81612142D01*
X149941428Y-81790714D01*
X149909523Y-81862142D01*
X149877619Y-81897857D01*
X149813809Y-81933571D01*
X149686190Y-81933571D01*
X149622380Y-81897857D01*
X149590476Y-81862142D01*
X149558571Y-81790714D01*
X151536666Y-71997857D02*
X151568571Y-72033571D01*
X151664285Y-72069285D01*
X151728095Y-72069285D01*
X151823809Y-72033571D01*
X151887619Y-71962142D01*
X151919523Y-71890714D01*
X151951428Y-71747857D01*
X151951428Y-71640714D01*
X151919523Y-71497857D01*
X151887619Y-71426428D01*
X151823809Y-71355000D01*
X151728095Y-71319285D01*
X151664285Y-71319285D01*
X151568571Y-71355000D01*
X151536666Y-71390714D01*
X150962380Y-71319285D02*
X151090000Y-71319285D01*
X151153809Y-71355000D01*
X151185714Y-71390714D01*
X151249523Y-71497857D01*
X151281428Y-71640714D01*
X151281428Y-71926428D01*
X151249523Y-71997857D01*
X151217619Y-72033571D01*
X151153809Y-72069285D01*
X151026190Y-72069285D01*
X150962380Y-72033571D01*
X150930476Y-71997857D01*
X150898571Y-71926428D01*
X150898571Y-71747857D01*
X150930476Y-71676428D01*
X150962380Y-71640714D01*
X151026190Y-71605000D01*
X151153809Y-71605000D01*
X151217619Y-71640714D01*
X151249523Y-71676428D01*
X151281428Y-71747857D01*
X150132857Y-71283571D02*
X150707142Y-72247857D01*
X149590476Y-71319285D02*
X149909523Y-71319285D01*
X149941428Y-71676428D01*
X149909523Y-71640714D01*
X149845714Y-71605000D01*
X149686190Y-71605000D01*
X149622380Y-71640714D01*
X149590476Y-71676428D01*
X149558571Y-71747857D01*
X149558571Y-71926428D01*
X149590476Y-71997857D01*
X149622380Y-72033571D01*
X149686190Y-72069285D01*
X149845714Y-72069285D01*
X149909523Y-72033571D01*
X149941428Y-71997857D01*
X151977619Y-66983571D02*
X151881904Y-67019285D01*
X151722380Y-67019285D01*
X151658571Y-66983571D01*
X151626666Y-66947857D01*
X151594761Y-66876428D01*
X151594761Y-66805000D01*
X151626666Y-66733571D01*
X151658571Y-66697857D01*
X151722380Y-66662142D01*
X151850000Y-66626428D01*
X151913809Y-66590714D01*
X151945714Y-66555000D01*
X151977619Y-66483571D01*
X151977619Y-66412142D01*
X151945714Y-66340714D01*
X151913809Y-66305000D01*
X151850000Y-66269285D01*
X151690476Y-66269285D01*
X151594761Y-66305000D01*
X150924761Y-66947857D02*
X150956666Y-66983571D01*
X151052380Y-67019285D01*
X151116190Y-67019285D01*
X151211904Y-66983571D01*
X151275714Y-66912142D01*
X151307619Y-66840714D01*
X151339523Y-66697857D01*
X151339523Y-66590714D01*
X151307619Y-66447857D01*
X151275714Y-66376428D01*
X151211904Y-66305000D01*
X151116190Y-66269285D01*
X151052380Y-66269285D01*
X150956666Y-66305000D01*
X150924761Y-66340714D01*
X150318571Y-67019285D02*
X150637619Y-67019285D01*
X150637619Y-66269285D01*
X149616666Y-66233571D02*
X150190952Y-67197857D01*
X149393333Y-67019285D02*
X149393333Y-66269285D01*
X149233809Y-66269285D01*
X149138095Y-66305000D01*
X149074285Y-66376428D01*
X149042380Y-66447857D01*
X149010476Y-66590714D01*
X149010476Y-66697857D01*
X149042380Y-66840714D01*
X149074285Y-66912142D01*
X149138095Y-66983571D01*
X149233809Y-67019285D01*
X149393333Y-67019285D01*
X148595714Y-66269285D02*
X148531904Y-66269285D01*
X148468095Y-66305000D01*
X148436190Y-66340714D01*
X148404285Y-66412142D01*
X148372380Y-66555000D01*
X148372380Y-66733571D01*
X148404285Y-66876428D01*
X148436190Y-66947857D01*
X148468095Y-66983571D01*
X148531904Y-67019285D01*
X148595714Y-67019285D01*
X148659523Y-66983571D01*
X148691428Y-66947857D01*
X148723333Y-66876428D01*
X148755238Y-66733571D01*
X148755238Y-66555000D01*
X148723333Y-66412142D01*
X148691428Y-66340714D01*
X148659523Y-66305000D01*
X148595714Y-66269285D01*
X147606666Y-66233571D02*
X148180952Y-67197857D01*
X147447142Y-66269285D02*
X147032380Y-66269285D01*
X147255714Y-66555000D01*
X147160000Y-66555000D01*
X147096190Y-66590714D01*
X147064285Y-66626428D01*
X147032380Y-66697857D01*
X147032380Y-66876428D01*
X147064285Y-66947857D01*
X147096190Y-66983571D01*
X147160000Y-67019285D01*
X147351428Y-67019285D01*
X147415238Y-66983571D01*
X147447142Y-66947857D01*
X151993571Y-64483571D02*
X151897857Y-64519285D01*
X151738333Y-64519285D01*
X151674523Y-64483571D01*
X151642619Y-64447857D01*
X151610714Y-64376428D01*
X151610714Y-64305000D01*
X151642619Y-64233571D01*
X151674523Y-64197857D01*
X151738333Y-64162142D01*
X151865952Y-64126428D01*
X151929761Y-64090714D01*
X151961666Y-64055000D01*
X151993571Y-63983571D01*
X151993571Y-63912142D01*
X151961666Y-63840714D01*
X151929761Y-63805000D01*
X151865952Y-63769285D01*
X151706428Y-63769285D01*
X151610714Y-63805000D01*
X151323571Y-64519285D02*
X151323571Y-63769285D01*
X151164047Y-63769285D01*
X151068333Y-63805000D01*
X151004523Y-63876428D01*
X150972619Y-63947857D01*
X150940714Y-64090714D01*
X150940714Y-64197857D01*
X150972619Y-64340714D01*
X151004523Y-64412142D01*
X151068333Y-64483571D01*
X151164047Y-64519285D01*
X151323571Y-64519285D01*
X150685476Y-64305000D02*
X150366428Y-64305000D01*
X150749285Y-64519285D02*
X150525952Y-63769285D01*
X150302619Y-64519285D01*
X149600714Y-63733571D02*
X150175000Y-64697857D01*
X149377380Y-64519285D02*
X149377380Y-63769285D01*
X149217857Y-63769285D01*
X149122142Y-63805000D01*
X149058333Y-63876428D01*
X149026428Y-63947857D01*
X148994523Y-64090714D01*
X148994523Y-64197857D01*
X149026428Y-64340714D01*
X149058333Y-64412142D01*
X149122142Y-64483571D01*
X149217857Y-64519285D01*
X149377380Y-64519285D01*
X148356428Y-64519285D02*
X148739285Y-64519285D01*
X148547857Y-64519285D02*
X148547857Y-63769285D01*
X148611666Y-63876428D01*
X148675476Y-63947857D01*
X148739285Y-63983571D01*
X147590714Y-63733571D02*
X148165000Y-64697857D01*
X147399285Y-63840714D02*
X147367380Y-63805000D01*
X147303571Y-63769285D01*
X147144047Y-63769285D01*
X147080238Y-63805000D01*
X147048333Y-63840714D01*
X147016428Y-63912142D01*
X147016428Y-63983571D01*
X147048333Y-64090714D01*
X147431190Y-64519285D01*
X147016428Y-64519285D01*
X151919523Y-69519285D02*
X151919523Y-68769285D01*
X151760000Y-68769285D01*
X151664285Y-68805000D01*
X151600476Y-68876428D01*
X151568571Y-68947857D01*
X151536666Y-69090714D01*
X151536666Y-69197857D01*
X151568571Y-69340714D01*
X151600476Y-69412142D01*
X151664285Y-69483571D01*
X151760000Y-69519285D01*
X151919523Y-69519285D01*
X150962380Y-69019285D02*
X150962380Y-69519285D01*
X151121904Y-68733571D02*
X151281428Y-69269285D01*
X150866666Y-69269285D01*
X150132857Y-68733571D02*
X150707142Y-69697857D01*
X149622380Y-69019285D02*
X149622380Y-69519285D01*
X149781904Y-68733571D02*
X149941428Y-69269285D01*
X149526666Y-69269285D01*
X151943809Y-54469285D02*
X151943809Y-53719285D01*
X151784285Y-53719285D01*
X151688571Y-53755000D01*
X151624761Y-53826428D01*
X151592857Y-53897857D01*
X151560952Y-54040714D01*
X151560952Y-54147857D01*
X151592857Y-54290714D01*
X151624761Y-54362142D01*
X151688571Y-54433571D01*
X151784285Y-54469285D01*
X151943809Y-54469285D01*
X151337619Y-53719285D02*
X150922857Y-53719285D01*
X151146190Y-54005000D01*
X151050476Y-54005000D01*
X150986666Y-54040714D01*
X150954761Y-54076428D01*
X150922857Y-54147857D01*
X150922857Y-54326428D01*
X150954761Y-54397857D01*
X150986666Y-54433571D01*
X151050476Y-54469285D01*
X151241904Y-54469285D01*
X151305714Y-54433571D01*
X151337619Y-54397857D01*
X150157142Y-53683571D02*
X150731428Y-54647857D01*
X150029523Y-53719285D02*
X149646666Y-53719285D01*
X149838095Y-54469285D02*
X149838095Y-53719285D01*
X149487142Y-53719285D02*
X149040476Y-54469285D01*
X149040476Y-53719285D02*
X149487142Y-54469285D01*
X148657619Y-53719285D02*
X148593809Y-53719285D01*
X148530000Y-53755000D01*
X148498095Y-53790714D01*
X148466190Y-53862142D01*
X148434285Y-54005000D01*
X148434285Y-54183571D01*
X148466190Y-54326428D01*
X148498095Y-54397857D01*
X148530000Y-54433571D01*
X148593809Y-54469285D01*
X148657619Y-54469285D01*
X148721428Y-54433571D01*
X148753333Y-54397857D01*
X148785238Y-54326428D01*
X148817142Y-54183571D01*
X148817142Y-54005000D01*
X148785238Y-53862142D01*
X148753333Y-53790714D01*
X148721428Y-53755000D01*
X148657619Y-53719285D01*
X151515476Y-61305000D02*
X151579285Y-61269285D01*
X151675000Y-61269285D01*
X151770714Y-61305000D01*
X151834523Y-61376428D01*
X151866428Y-61447857D01*
X151898333Y-61590714D01*
X151898333Y-61697857D01*
X151866428Y-61840714D01*
X151834523Y-61912142D01*
X151770714Y-61983571D01*
X151675000Y-62019285D01*
X151611190Y-62019285D01*
X151515476Y-61983571D01*
X151483571Y-61947857D01*
X151483571Y-61697857D01*
X151611190Y-61697857D01*
X151196428Y-62019285D02*
X151196428Y-61269285D01*
X150813571Y-62019285D01*
X150813571Y-61269285D01*
X150494523Y-62019285D02*
X150494523Y-61269285D01*
X150335000Y-61269285D01*
X150239285Y-61305000D01*
X150175476Y-61376428D01*
X150143571Y-61447857D01*
X150111666Y-61590714D01*
X150111666Y-61697857D01*
X150143571Y-61840714D01*
X150175476Y-61912142D01*
X150239285Y-61983571D01*
X150335000Y-62019285D01*
X150494523Y-62019285D01*
X151515476Y-58855000D02*
X151579285Y-58819285D01*
X151675000Y-58819285D01*
X151770714Y-58855000D01*
X151834523Y-58926428D01*
X151866428Y-58997857D01*
X151898333Y-59140714D01*
X151898333Y-59247857D01*
X151866428Y-59390714D01*
X151834523Y-59462142D01*
X151770714Y-59533571D01*
X151675000Y-59569285D01*
X151611190Y-59569285D01*
X151515476Y-59533571D01*
X151483571Y-59497857D01*
X151483571Y-59247857D01*
X151611190Y-59247857D01*
X151196428Y-59569285D02*
X151196428Y-58819285D01*
X150813571Y-59569285D01*
X150813571Y-58819285D01*
X150494523Y-59569285D02*
X150494523Y-58819285D01*
X150335000Y-58819285D01*
X150239285Y-58855000D01*
X150175476Y-58926428D01*
X150143571Y-58997857D01*
X150111666Y-59140714D01*
X150111666Y-59247857D01*
X150143571Y-59390714D01*
X150175476Y-59462142D01*
X150239285Y-59533571D01*
X150335000Y-59569285D01*
X150494523Y-59569285D01*
X151919523Y-74619285D02*
X151919523Y-73869285D01*
X151760000Y-73869285D01*
X151664285Y-73905000D01*
X151600476Y-73976428D01*
X151568571Y-74047857D01*
X151536666Y-74190714D01*
X151536666Y-74297857D01*
X151568571Y-74440714D01*
X151600476Y-74512142D01*
X151664285Y-74583571D01*
X151760000Y-74619285D01*
X151919523Y-74619285D01*
X151313333Y-73869285D02*
X150866666Y-73869285D01*
X151153809Y-74619285D01*
X150132857Y-73833571D02*
X150707142Y-74797857D01*
X149622380Y-73869285D02*
X149750000Y-73869285D01*
X149813809Y-73905000D01*
X149845714Y-73940714D01*
X149909523Y-74047857D01*
X149941428Y-74190714D01*
X149941428Y-74476428D01*
X149909523Y-74547857D01*
X149877619Y-74583571D01*
X149813809Y-74619285D01*
X149686190Y-74619285D01*
X149622380Y-74583571D01*
X149590476Y-74547857D01*
X149558571Y-74476428D01*
X149558571Y-74297857D01*
X149590476Y-74226428D01*
X149622380Y-74190714D01*
X149686190Y-74155000D01*
X149813809Y-74155000D01*
X149877619Y-74190714D01*
X149909523Y-74226428D01*
X149941428Y-74297857D01*
X151887619Y-76776428D02*
X151664285Y-76776428D01*
X151568571Y-77169285D02*
X151887619Y-77169285D01*
X151887619Y-76419285D01*
X151568571Y-76419285D01*
X150994285Y-76419285D02*
X151121904Y-76419285D01*
X151185714Y-76455000D01*
X151217619Y-76490714D01*
X151281428Y-76597857D01*
X151313333Y-76740714D01*
X151313333Y-77026428D01*
X151281428Y-77097857D01*
X151249523Y-77133571D01*
X151185714Y-77169285D01*
X151058095Y-77169285D01*
X150994285Y-77133571D01*
X150962380Y-77097857D01*
X150930476Y-77026428D01*
X150930476Y-76847857D01*
X150962380Y-76776428D01*
X150994285Y-76740714D01*
X151058095Y-76705000D01*
X151185714Y-76705000D01*
X151249523Y-76740714D01*
X151281428Y-76776428D01*
X151313333Y-76847857D01*
X150164761Y-76383571D02*
X150739047Y-77347857D01*
X150005238Y-76419285D02*
X149558571Y-76419285D01*
X149845714Y-77169285D01*
X142787619Y-79869285D02*
X143170476Y-79869285D01*
X142979047Y-79869285D02*
X142979047Y-79119285D01*
X143042857Y-79226428D01*
X143106666Y-79297857D01*
X143170476Y-79333571D01*
X142213333Y-79119285D02*
X142340952Y-79119285D01*
X142404761Y-79155000D01*
X142436666Y-79190714D01*
X142500476Y-79297857D01*
X142532380Y-79440714D01*
X142532380Y-79726428D01*
X142500476Y-79797857D01*
X142468571Y-79833571D01*
X142404761Y-79869285D01*
X142277142Y-79869285D01*
X142213333Y-79833571D01*
X142181428Y-79797857D01*
X142149523Y-79726428D01*
X142149523Y-79547857D01*
X142181428Y-79476428D01*
X142213333Y-79440714D01*
X142277142Y-79405000D01*
X142404761Y-79405000D01*
X142468571Y-79440714D01*
X142500476Y-79476428D01*
X142532380Y-79547857D01*
X141383809Y-79083571D02*
X141958095Y-80047857D01*
X140937142Y-79476428D02*
X140841428Y-79512142D01*
X140809523Y-79547857D01*
X140777619Y-79619285D01*
X140777619Y-79726428D01*
X140809523Y-79797857D01*
X140841428Y-79833571D01*
X140905238Y-79869285D01*
X141160476Y-79869285D01*
X141160476Y-79119285D01*
X140937142Y-79119285D01*
X140873333Y-79155000D01*
X140841428Y-79190714D01*
X140809523Y-79262142D01*
X140809523Y-79333571D01*
X140841428Y-79405000D01*
X140873333Y-79440714D01*
X140937142Y-79476428D01*
X141160476Y-79476428D01*
X140522380Y-79190714D02*
X140490476Y-79155000D01*
X140426666Y-79119285D01*
X140267142Y-79119285D01*
X140203333Y-79155000D01*
X140171428Y-79190714D01*
X140139523Y-79262142D01*
X140139523Y-79333571D01*
X140171428Y-79440714D01*
X140554285Y-79869285D01*
X140139523Y-79869285D01*
X142787619Y-82369285D02*
X143170476Y-82369285D01*
X142979047Y-82369285D02*
X142979047Y-81619285D01*
X143042857Y-81726428D01*
X143106666Y-81797857D01*
X143170476Y-81833571D01*
X142372857Y-81619285D02*
X142309047Y-81619285D01*
X142245238Y-81655000D01*
X142213333Y-81690714D01*
X142181428Y-81762142D01*
X142149523Y-81905000D01*
X142149523Y-82083571D01*
X142181428Y-82226428D01*
X142213333Y-82297857D01*
X142245238Y-82333571D01*
X142309047Y-82369285D01*
X142372857Y-82369285D01*
X142436666Y-82333571D01*
X142468571Y-82297857D01*
X142500476Y-82226428D01*
X142532380Y-82083571D01*
X142532380Y-81905000D01*
X142500476Y-81762142D01*
X142468571Y-81690714D01*
X142436666Y-81655000D01*
X142372857Y-81619285D01*
X141383809Y-81583571D02*
X141958095Y-82547857D01*
X140937142Y-81976428D02*
X140841428Y-82012142D01*
X140809523Y-82047857D01*
X140777619Y-82119285D01*
X140777619Y-82226428D01*
X140809523Y-82297857D01*
X140841428Y-82333571D01*
X140905238Y-82369285D01*
X141160476Y-82369285D01*
X141160476Y-81619285D01*
X140937142Y-81619285D01*
X140873333Y-81655000D01*
X140841428Y-81690714D01*
X140809523Y-81762142D01*
X140809523Y-81833571D01*
X140841428Y-81905000D01*
X140873333Y-81940714D01*
X140937142Y-81976428D01*
X141160476Y-81976428D01*
X140203333Y-81619285D02*
X140330952Y-81619285D01*
X140394761Y-81655000D01*
X140426666Y-81690714D01*
X140490476Y-81797857D01*
X140522380Y-81940714D01*
X140522380Y-82226428D01*
X140490476Y-82297857D01*
X140458571Y-82333571D01*
X140394761Y-82369285D01*
X140267142Y-82369285D01*
X140203333Y-82333571D01*
X140171428Y-82297857D01*
X140139523Y-82226428D01*
X140139523Y-82047857D01*
X140171428Y-81976428D01*
X140203333Y-81940714D01*
X140267142Y-81905000D01*
X140394761Y-81905000D01*
X140458571Y-81940714D01*
X140490476Y-81976428D01*
X140522380Y-82047857D01*
X142787619Y-77319285D02*
X143170476Y-77319285D01*
X142979047Y-77319285D02*
X142979047Y-76569285D01*
X143042857Y-76676428D01*
X143106666Y-76747857D01*
X143170476Y-76783571D01*
X142213333Y-76819285D02*
X142213333Y-77319285D01*
X142372857Y-76533571D02*
X142532380Y-77069285D01*
X142117619Y-77069285D01*
X141383809Y-76533571D02*
X141958095Y-77497857D01*
X140937142Y-76926428D02*
X140841428Y-76962142D01*
X140809523Y-76997857D01*
X140777619Y-77069285D01*
X140777619Y-77176428D01*
X140809523Y-77247857D01*
X140841428Y-77283571D01*
X140905238Y-77319285D01*
X141160476Y-77319285D01*
X141160476Y-76569285D01*
X140937142Y-76569285D01*
X140873333Y-76605000D01*
X140841428Y-76640714D01*
X140809523Y-76712142D01*
X140809523Y-76783571D01*
X140841428Y-76855000D01*
X140873333Y-76890714D01*
X140937142Y-76926428D01*
X141160476Y-76926428D01*
X140554285Y-76569285D02*
X140139523Y-76569285D01*
X140362857Y-76855000D01*
X140267142Y-76855000D01*
X140203333Y-76890714D01*
X140171428Y-76926428D01*
X140139523Y-76997857D01*
X140139523Y-77176428D01*
X140171428Y-77247857D01*
X140203333Y-77283571D01*
X140267142Y-77319285D01*
X140458571Y-77319285D01*
X140522380Y-77283571D01*
X140554285Y-77247857D01*
X142787619Y-74769285D02*
X143170476Y-74769285D01*
X142979047Y-74769285D02*
X142979047Y-74019285D01*
X143042857Y-74126428D01*
X143106666Y-74197857D01*
X143170476Y-74233571D01*
X142181428Y-74019285D02*
X142500476Y-74019285D01*
X142532380Y-74376428D01*
X142500476Y-74340714D01*
X142436666Y-74305000D01*
X142277142Y-74305000D01*
X142213333Y-74340714D01*
X142181428Y-74376428D01*
X142149523Y-74447857D01*
X142149523Y-74626428D01*
X142181428Y-74697857D01*
X142213333Y-74733571D01*
X142277142Y-74769285D01*
X142436666Y-74769285D01*
X142500476Y-74733571D01*
X142532380Y-74697857D01*
X141383809Y-73983571D02*
X141958095Y-74947857D01*
X140937142Y-74376428D02*
X140841428Y-74412142D01*
X140809523Y-74447857D01*
X140777619Y-74519285D01*
X140777619Y-74626428D01*
X140809523Y-74697857D01*
X140841428Y-74733571D01*
X140905238Y-74769285D01*
X141160476Y-74769285D01*
X141160476Y-74019285D01*
X140937142Y-74019285D01*
X140873333Y-74055000D01*
X140841428Y-74090714D01*
X140809523Y-74162142D01*
X140809523Y-74233571D01*
X140841428Y-74305000D01*
X140873333Y-74340714D01*
X140937142Y-74376428D01*
X141160476Y-74376428D01*
X140139523Y-74769285D02*
X140522380Y-74769285D01*
X140330952Y-74769285D02*
X140330952Y-74019285D01*
X140394761Y-74126428D01*
X140458571Y-74197857D01*
X140522380Y-74233571D01*
X143090714Y-72005000D02*
X142771666Y-72005000D01*
X143154523Y-72219285D02*
X142931190Y-71469285D01*
X142707857Y-72219285D01*
X142356904Y-71469285D02*
X142293095Y-71469285D01*
X142229285Y-71505000D01*
X142197380Y-71540714D01*
X142165476Y-71612142D01*
X142133571Y-71755000D01*
X142133571Y-71933571D01*
X142165476Y-72076428D01*
X142197380Y-72147857D01*
X142229285Y-72183571D01*
X142293095Y-72219285D01*
X142356904Y-72219285D01*
X142420714Y-72183571D01*
X142452619Y-72147857D01*
X142484523Y-72076428D01*
X142516428Y-71933571D01*
X142516428Y-71755000D01*
X142484523Y-71612142D01*
X142452619Y-71540714D01*
X142420714Y-71505000D01*
X142356904Y-71469285D01*
X141367857Y-71433571D02*
X141942142Y-72397857D01*
X140921190Y-71826428D02*
X141144523Y-71826428D01*
X141144523Y-72219285D02*
X141144523Y-71469285D01*
X140825476Y-71469285D01*
X140634047Y-71469285D02*
X140187380Y-71469285D01*
X140474523Y-72219285D01*
X143090714Y-69455000D02*
X142771666Y-69455000D01*
X143154523Y-69669285D02*
X142931190Y-68919285D01*
X142707857Y-69669285D01*
X142133571Y-69669285D02*
X142516428Y-69669285D01*
X142325000Y-69669285D02*
X142325000Y-68919285D01*
X142388809Y-69026428D01*
X142452619Y-69097857D01*
X142516428Y-69133571D01*
X141367857Y-68883571D02*
X141942142Y-69847857D01*
X140921190Y-69276428D02*
X141144523Y-69276428D01*
X141144523Y-69669285D02*
X141144523Y-68919285D01*
X140825476Y-68919285D01*
X140283095Y-68919285D02*
X140410714Y-68919285D01*
X140474523Y-68955000D01*
X140506428Y-68990714D01*
X140570238Y-69097857D01*
X140602142Y-69240714D01*
X140602142Y-69526428D01*
X140570238Y-69597857D01*
X140538333Y-69633571D01*
X140474523Y-69669285D01*
X140346904Y-69669285D01*
X140283095Y-69633571D01*
X140251190Y-69597857D01*
X140219285Y-69526428D01*
X140219285Y-69347857D01*
X140251190Y-69276428D01*
X140283095Y-69240714D01*
X140346904Y-69205000D01*
X140474523Y-69205000D01*
X140538333Y-69240714D01*
X140570238Y-69276428D01*
X140602142Y-69347857D01*
X143090714Y-66955000D02*
X142771666Y-66955000D01*
X143154523Y-67169285D02*
X142931190Y-66419285D01*
X142707857Y-67169285D01*
X142516428Y-66490714D02*
X142484523Y-66455000D01*
X142420714Y-66419285D01*
X142261190Y-66419285D01*
X142197380Y-66455000D01*
X142165476Y-66490714D01*
X142133571Y-66562142D01*
X142133571Y-66633571D01*
X142165476Y-66740714D01*
X142548333Y-67169285D01*
X142133571Y-67169285D01*
X141367857Y-66383571D02*
X141942142Y-67347857D01*
X140921190Y-66776428D02*
X141144523Y-66776428D01*
X141144523Y-67169285D02*
X141144523Y-66419285D01*
X140825476Y-66419285D01*
X140251190Y-66419285D02*
X140570238Y-66419285D01*
X140602142Y-66776428D01*
X140570238Y-66740714D01*
X140506428Y-66705000D01*
X140346904Y-66705000D01*
X140283095Y-66740714D01*
X140251190Y-66776428D01*
X140219285Y-66847857D01*
X140219285Y-67026428D01*
X140251190Y-67097857D01*
X140283095Y-67133571D01*
X140346904Y-67169285D01*
X140506428Y-67169285D01*
X140570238Y-67133571D01*
X140602142Y-67097857D01*
X143090714Y-64455000D02*
X142771666Y-64455000D01*
X143154523Y-64669285D02*
X142931190Y-63919285D01*
X142707857Y-64669285D01*
X142548333Y-63919285D02*
X142133571Y-63919285D01*
X142356904Y-64205000D01*
X142261190Y-64205000D01*
X142197380Y-64240714D01*
X142165476Y-64276428D01*
X142133571Y-64347857D01*
X142133571Y-64526428D01*
X142165476Y-64597857D01*
X142197380Y-64633571D01*
X142261190Y-64669285D01*
X142452619Y-64669285D01*
X142516428Y-64633571D01*
X142548333Y-64597857D01*
X141367857Y-63883571D02*
X141942142Y-64847857D01*
X140921190Y-64276428D02*
X141144523Y-64276428D01*
X141144523Y-64669285D02*
X141144523Y-63919285D01*
X140825476Y-63919285D01*
X140283095Y-64169285D02*
X140283095Y-64669285D01*
X140442619Y-63883571D02*
X140602142Y-64419285D01*
X140187380Y-64419285D01*
X141948333Y-61219285D02*
X141725000Y-61969285D01*
X141501666Y-61219285D01*
X140895476Y-61897857D02*
X140927380Y-61933571D01*
X141023095Y-61969285D01*
X141086904Y-61969285D01*
X141182619Y-61933571D01*
X141246428Y-61862142D01*
X141278333Y-61790714D01*
X141310238Y-61647857D01*
X141310238Y-61540714D01*
X141278333Y-61397857D01*
X141246428Y-61326428D01*
X141182619Y-61255000D01*
X141086904Y-61219285D01*
X141023095Y-61219285D01*
X140927380Y-61255000D01*
X140895476Y-61290714D01*
X140225476Y-61897857D02*
X140257380Y-61933571D01*
X140353095Y-61969285D01*
X140416904Y-61969285D01*
X140512619Y-61933571D01*
X140576428Y-61862142D01*
X140608333Y-61790714D01*
X140640238Y-61647857D01*
X140640238Y-61540714D01*
X140608333Y-61397857D01*
X140576428Y-61326428D01*
X140512619Y-61255000D01*
X140416904Y-61219285D01*
X140353095Y-61219285D01*
X140257380Y-61255000D01*
X140225476Y-61290714D01*
X141421904Y-59519285D02*
X141645238Y-59162142D01*
X141804761Y-59519285D02*
X141804761Y-58769285D01*
X141549523Y-58769285D01*
X141485714Y-58805000D01*
X141453809Y-58840714D01*
X141421904Y-58912142D01*
X141421904Y-59019285D01*
X141453809Y-59090714D01*
X141485714Y-59126428D01*
X141549523Y-59162142D01*
X141804761Y-59162142D01*
X141166666Y-59483571D02*
X141070952Y-59519285D01*
X140911428Y-59519285D01*
X140847619Y-59483571D01*
X140815714Y-59447857D01*
X140783809Y-59376428D01*
X140783809Y-59305000D01*
X140815714Y-59233571D01*
X140847619Y-59197857D01*
X140911428Y-59162142D01*
X141039047Y-59126428D01*
X141102857Y-59090714D01*
X141134761Y-59055000D01*
X141166666Y-58983571D01*
X141166666Y-58912142D01*
X141134761Y-58840714D01*
X141102857Y-58805000D01*
X141039047Y-58769285D01*
X140879523Y-58769285D01*
X140783809Y-58805000D01*
X140592380Y-58769285D02*
X140209523Y-58769285D01*
X140400952Y-59519285D02*
X140400952Y-58769285D01*
X141565476Y-56255000D02*
X141629285Y-56219285D01*
X141725000Y-56219285D01*
X141820714Y-56255000D01*
X141884523Y-56326428D01*
X141916428Y-56397857D01*
X141948333Y-56540714D01*
X141948333Y-56647857D01*
X141916428Y-56790714D01*
X141884523Y-56862142D01*
X141820714Y-56933571D01*
X141725000Y-56969285D01*
X141661190Y-56969285D01*
X141565476Y-56933571D01*
X141533571Y-56897857D01*
X141533571Y-56647857D01*
X141661190Y-56647857D01*
X141246428Y-56969285D02*
X141246428Y-56219285D01*
X140863571Y-56969285D01*
X140863571Y-56219285D01*
X140544523Y-56969285D02*
X140544523Y-56219285D01*
X140385000Y-56219285D01*
X140289285Y-56255000D01*
X140225476Y-56326428D01*
X140193571Y-56397857D01*
X140161666Y-56540714D01*
X140161666Y-56647857D01*
X140193571Y-56790714D01*
X140225476Y-56862142D01*
X140289285Y-56933571D01*
X140385000Y-56969285D01*
X140544523Y-56969285D01*
X141517619Y-54419285D02*
X141740952Y-54062142D01*
X141900476Y-54419285D02*
X141900476Y-53669285D01*
X141645238Y-53669285D01*
X141581428Y-53705000D01*
X141549523Y-53740714D01*
X141517619Y-53812142D01*
X141517619Y-53919285D01*
X141549523Y-53990714D01*
X141581428Y-54026428D01*
X141645238Y-54062142D01*
X141900476Y-54062142D01*
X141262380Y-54205000D02*
X140943333Y-54205000D01*
X141326190Y-54419285D02*
X141102857Y-53669285D01*
X140879523Y-54419285D01*
X140720000Y-53669285D02*
X140560476Y-54419285D01*
X140432857Y-53883571D01*
X140305238Y-54419285D01*
X140145714Y-53669285D01*
D12*
X127166666Y-82119380D02*
X127642857Y-82119380D01*
X127642857Y-81119380D01*
X126928571Y-81119380D02*
X126309523Y-81119380D01*
X126642857Y-81500333D01*
X126500000Y-81500333D01*
X126404761Y-81547952D01*
X126357142Y-81595571D01*
X126309523Y-81690809D01*
X126309523Y-81928904D01*
X126357142Y-82024142D01*
X126404761Y-82071761D01*
X126500000Y-82119380D01*
X126785714Y-82119380D01*
X126880952Y-82071761D01*
X126928571Y-82024142D01*
X146216666Y-63069380D02*
X146692857Y-63069380D01*
X146692857Y-62069380D01*
X145359523Y-63069380D02*
X145930952Y-63069380D01*
X145645238Y-63069380D02*
X145645238Y-62069380D01*
X145740476Y-62212238D01*
X145835714Y-62307476D01*
X145930952Y-62355095D01*
X127166666Y-63069380D02*
X127642857Y-63069380D01*
X127642857Y-62069380D01*
X126404761Y-62402714D02*
X126404761Y-63069380D01*
X126642857Y-62021761D02*
X126880952Y-62736047D01*
X126261904Y-62736047D01*
X146216666Y-82119380D02*
X146692857Y-82119380D01*
X146692857Y-81119380D01*
X145930952Y-81214619D02*
X145883333Y-81167000D01*
X145788095Y-81119380D01*
X145550000Y-81119380D01*
X145454761Y-81167000D01*
X145407142Y-81214619D01*
X145359523Y-81309857D01*
X145359523Y-81405095D01*
X145407142Y-81547952D01*
X145978571Y-82119380D01*
X145359523Y-82119380D01*
D13*
X91987619Y-54419285D02*
X92210952Y-54062142D01*
X92370476Y-54419285D02*
X92370476Y-53669285D01*
X92115238Y-53669285D01*
X92051428Y-53705000D01*
X92019523Y-53740714D01*
X91987619Y-53812142D01*
X91987619Y-53919285D01*
X92019523Y-53990714D01*
X92051428Y-54026428D01*
X92115238Y-54062142D01*
X92370476Y-54062142D01*
X91732380Y-54205000D02*
X91413333Y-54205000D01*
X91796190Y-54419285D02*
X91572857Y-53669285D01*
X91349523Y-54419285D01*
X91190000Y-53669285D02*
X91030476Y-54419285D01*
X90902857Y-53883571D01*
X90775238Y-54419285D01*
X90615714Y-53669285D01*
X92035476Y-56255000D02*
X92099285Y-56219285D01*
X92195000Y-56219285D01*
X92290714Y-56255000D01*
X92354523Y-56326428D01*
X92386428Y-56397857D01*
X92418333Y-56540714D01*
X92418333Y-56647857D01*
X92386428Y-56790714D01*
X92354523Y-56862142D01*
X92290714Y-56933571D01*
X92195000Y-56969285D01*
X92131190Y-56969285D01*
X92035476Y-56933571D01*
X92003571Y-56897857D01*
X92003571Y-56647857D01*
X92131190Y-56647857D01*
X91716428Y-56969285D02*
X91716428Y-56219285D01*
X91333571Y-56969285D01*
X91333571Y-56219285D01*
X91014523Y-56969285D02*
X91014523Y-56219285D01*
X90855000Y-56219285D01*
X90759285Y-56255000D01*
X90695476Y-56326428D01*
X90663571Y-56397857D01*
X90631666Y-56540714D01*
X90631666Y-56647857D01*
X90663571Y-56790714D01*
X90695476Y-56862142D01*
X90759285Y-56933571D01*
X90855000Y-56969285D01*
X91014523Y-56969285D01*
X91891904Y-59519285D02*
X92115238Y-59162142D01*
X92274761Y-59519285D02*
X92274761Y-58769285D01*
X92019523Y-58769285D01*
X91955714Y-58805000D01*
X91923809Y-58840714D01*
X91891904Y-58912142D01*
X91891904Y-59019285D01*
X91923809Y-59090714D01*
X91955714Y-59126428D01*
X92019523Y-59162142D01*
X92274761Y-59162142D01*
X91636666Y-59483571D02*
X91540952Y-59519285D01*
X91381428Y-59519285D01*
X91317619Y-59483571D01*
X91285714Y-59447857D01*
X91253809Y-59376428D01*
X91253809Y-59305000D01*
X91285714Y-59233571D01*
X91317619Y-59197857D01*
X91381428Y-59162142D01*
X91509047Y-59126428D01*
X91572857Y-59090714D01*
X91604761Y-59055000D01*
X91636666Y-58983571D01*
X91636666Y-58912142D01*
X91604761Y-58840714D01*
X91572857Y-58805000D01*
X91509047Y-58769285D01*
X91349523Y-58769285D01*
X91253809Y-58805000D01*
X91062380Y-58769285D02*
X90679523Y-58769285D01*
X90870952Y-59519285D02*
X90870952Y-58769285D01*
X92418333Y-61219285D02*
X92195000Y-61969285D01*
X91971666Y-61219285D01*
X91365476Y-61897857D02*
X91397380Y-61933571D01*
X91493095Y-61969285D01*
X91556904Y-61969285D01*
X91652619Y-61933571D01*
X91716428Y-61862142D01*
X91748333Y-61790714D01*
X91780238Y-61647857D01*
X91780238Y-61540714D01*
X91748333Y-61397857D01*
X91716428Y-61326428D01*
X91652619Y-61255000D01*
X91556904Y-61219285D01*
X91493095Y-61219285D01*
X91397380Y-61255000D01*
X91365476Y-61290714D01*
X90695476Y-61897857D02*
X90727380Y-61933571D01*
X90823095Y-61969285D01*
X90886904Y-61969285D01*
X90982619Y-61933571D01*
X91046428Y-61862142D01*
X91078333Y-61790714D01*
X91110238Y-61647857D01*
X91110238Y-61540714D01*
X91078333Y-61397857D01*
X91046428Y-61326428D01*
X90982619Y-61255000D01*
X90886904Y-61219285D01*
X90823095Y-61219285D01*
X90727380Y-61255000D01*
X90695476Y-61290714D01*
X93560714Y-64455000D02*
X93241666Y-64455000D01*
X93624523Y-64669285D02*
X93401190Y-63919285D01*
X93177857Y-64669285D01*
X93018333Y-63919285D02*
X92603571Y-63919285D01*
X92826904Y-64205000D01*
X92731190Y-64205000D01*
X92667380Y-64240714D01*
X92635476Y-64276428D01*
X92603571Y-64347857D01*
X92603571Y-64526428D01*
X92635476Y-64597857D01*
X92667380Y-64633571D01*
X92731190Y-64669285D01*
X92922619Y-64669285D01*
X92986428Y-64633571D01*
X93018333Y-64597857D01*
X91837857Y-63883571D02*
X92412142Y-64847857D01*
X91391190Y-64276428D02*
X91614523Y-64276428D01*
X91614523Y-64669285D02*
X91614523Y-63919285D01*
X91295476Y-63919285D01*
X90753095Y-64169285D02*
X90753095Y-64669285D01*
X90912619Y-63883571D02*
X91072142Y-64419285D01*
X90657380Y-64419285D01*
X93560714Y-66955000D02*
X93241666Y-66955000D01*
X93624523Y-67169285D02*
X93401190Y-66419285D01*
X93177857Y-67169285D01*
X92986428Y-66490714D02*
X92954523Y-66455000D01*
X92890714Y-66419285D01*
X92731190Y-66419285D01*
X92667380Y-66455000D01*
X92635476Y-66490714D01*
X92603571Y-66562142D01*
X92603571Y-66633571D01*
X92635476Y-66740714D01*
X93018333Y-67169285D01*
X92603571Y-67169285D01*
X91837857Y-66383571D02*
X92412142Y-67347857D01*
X91391190Y-66776428D02*
X91614523Y-66776428D01*
X91614523Y-67169285D02*
X91614523Y-66419285D01*
X91295476Y-66419285D01*
X90721190Y-66419285D02*
X91040238Y-66419285D01*
X91072142Y-66776428D01*
X91040238Y-66740714D01*
X90976428Y-66705000D01*
X90816904Y-66705000D01*
X90753095Y-66740714D01*
X90721190Y-66776428D01*
X90689285Y-66847857D01*
X90689285Y-67026428D01*
X90721190Y-67097857D01*
X90753095Y-67133571D01*
X90816904Y-67169285D01*
X90976428Y-67169285D01*
X91040238Y-67133571D01*
X91072142Y-67097857D01*
X93560714Y-69455000D02*
X93241666Y-69455000D01*
X93624523Y-69669285D02*
X93401190Y-68919285D01*
X93177857Y-69669285D01*
X92603571Y-69669285D02*
X92986428Y-69669285D01*
X92795000Y-69669285D02*
X92795000Y-68919285D01*
X92858809Y-69026428D01*
X92922619Y-69097857D01*
X92986428Y-69133571D01*
X91837857Y-68883571D02*
X92412142Y-69847857D01*
X91391190Y-69276428D02*
X91614523Y-69276428D01*
X91614523Y-69669285D02*
X91614523Y-68919285D01*
X91295476Y-68919285D01*
X90753095Y-68919285D02*
X90880714Y-68919285D01*
X90944523Y-68955000D01*
X90976428Y-68990714D01*
X91040238Y-69097857D01*
X91072142Y-69240714D01*
X91072142Y-69526428D01*
X91040238Y-69597857D01*
X91008333Y-69633571D01*
X90944523Y-69669285D01*
X90816904Y-69669285D01*
X90753095Y-69633571D01*
X90721190Y-69597857D01*
X90689285Y-69526428D01*
X90689285Y-69347857D01*
X90721190Y-69276428D01*
X90753095Y-69240714D01*
X90816904Y-69205000D01*
X90944523Y-69205000D01*
X91008333Y-69240714D01*
X91040238Y-69276428D01*
X91072142Y-69347857D01*
X93560714Y-72005000D02*
X93241666Y-72005000D01*
X93624523Y-72219285D02*
X93401190Y-71469285D01*
X93177857Y-72219285D01*
X92826904Y-71469285D02*
X92763095Y-71469285D01*
X92699285Y-71505000D01*
X92667380Y-71540714D01*
X92635476Y-71612142D01*
X92603571Y-71755000D01*
X92603571Y-71933571D01*
X92635476Y-72076428D01*
X92667380Y-72147857D01*
X92699285Y-72183571D01*
X92763095Y-72219285D01*
X92826904Y-72219285D01*
X92890714Y-72183571D01*
X92922619Y-72147857D01*
X92954523Y-72076428D01*
X92986428Y-71933571D01*
X92986428Y-71755000D01*
X92954523Y-71612142D01*
X92922619Y-71540714D01*
X92890714Y-71505000D01*
X92826904Y-71469285D01*
X91837857Y-71433571D02*
X92412142Y-72397857D01*
X91391190Y-71826428D02*
X91614523Y-71826428D01*
X91614523Y-72219285D02*
X91614523Y-71469285D01*
X91295476Y-71469285D01*
X91104047Y-71469285D02*
X90657380Y-71469285D01*
X90944523Y-72219285D01*
X93257619Y-74769285D02*
X93640476Y-74769285D01*
X93449047Y-74769285D02*
X93449047Y-74019285D01*
X93512857Y-74126428D01*
X93576666Y-74197857D01*
X93640476Y-74233571D01*
X92651428Y-74019285D02*
X92970476Y-74019285D01*
X93002380Y-74376428D01*
X92970476Y-74340714D01*
X92906666Y-74305000D01*
X92747142Y-74305000D01*
X92683333Y-74340714D01*
X92651428Y-74376428D01*
X92619523Y-74447857D01*
X92619523Y-74626428D01*
X92651428Y-74697857D01*
X92683333Y-74733571D01*
X92747142Y-74769285D01*
X92906666Y-74769285D01*
X92970476Y-74733571D01*
X93002380Y-74697857D01*
X91853809Y-73983571D02*
X92428095Y-74947857D01*
X91407142Y-74376428D02*
X91311428Y-74412142D01*
X91279523Y-74447857D01*
X91247619Y-74519285D01*
X91247619Y-74626428D01*
X91279523Y-74697857D01*
X91311428Y-74733571D01*
X91375238Y-74769285D01*
X91630476Y-74769285D01*
X91630476Y-74019285D01*
X91407142Y-74019285D01*
X91343333Y-74055000D01*
X91311428Y-74090714D01*
X91279523Y-74162142D01*
X91279523Y-74233571D01*
X91311428Y-74305000D01*
X91343333Y-74340714D01*
X91407142Y-74376428D01*
X91630476Y-74376428D01*
X90609523Y-74769285D02*
X90992380Y-74769285D01*
X90800952Y-74769285D02*
X90800952Y-74019285D01*
X90864761Y-74126428D01*
X90928571Y-74197857D01*
X90992380Y-74233571D01*
X93257619Y-77319285D02*
X93640476Y-77319285D01*
X93449047Y-77319285D02*
X93449047Y-76569285D01*
X93512857Y-76676428D01*
X93576666Y-76747857D01*
X93640476Y-76783571D01*
X92683333Y-76819285D02*
X92683333Y-77319285D01*
X92842857Y-76533571D02*
X93002380Y-77069285D01*
X92587619Y-77069285D01*
X91853809Y-76533571D02*
X92428095Y-77497857D01*
X91407142Y-76926428D02*
X91311428Y-76962142D01*
X91279523Y-76997857D01*
X91247619Y-77069285D01*
X91247619Y-77176428D01*
X91279523Y-77247857D01*
X91311428Y-77283571D01*
X91375238Y-77319285D01*
X91630476Y-77319285D01*
X91630476Y-76569285D01*
X91407142Y-76569285D01*
X91343333Y-76605000D01*
X91311428Y-76640714D01*
X91279523Y-76712142D01*
X91279523Y-76783571D01*
X91311428Y-76855000D01*
X91343333Y-76890714D01*
X91407142Y-76926428D01*
X91630476Y-76926428D01*
X91024285Y-76569285D02*
X90609523Y-76569285D01*
X90832857Y-76855000D01*
X90737142Y-76855000D01*
X90673333Y-76890714D01*
X90641428Y-76926428D01*
X90609523Y-76997857D01*
X90609523Y-77176428D01*
X90641428Y-77247857D01*
X90673333Y-77283571D01*
X90737142Y-77319285D01*
X90928571Y-77319285D01*
X90992380Y-77283571D01*
X91024285Y-77247857D01*
X93257619Y-82369285D02*
X93640476Y-82369285D01*
X93449047Y-82369285D02*
X93449047Y-81619285D01*
X93512857Y-81726428D01*
X93576666Y-81797857D01*
X93640476Y-81833571D01*
X92842857Y-81619285D02*
X92779047Y-81619285D01*
X92715238Y-81655000D01*
X92683333Y-81690714D01*
X92651428Y-81762142D01*
X92619523Y-81905000D01*
X92619523Y-82083571D01*
X92651428Y-82226428D01*
X92683333Y-82297857D01*
X92715238Y-82333571D01*
X92779047Y-82369285D01*
X92842857Y-82369285D01*
X92906666Y-82333571D01*
X92938571Y-82297857D01*
X92970476Y-82226428D01*
X93002380Y-82083571D01*
X93002380Y-81905000D01*
X92970476Y-81762142D01*
X92938571Y-81690714D01*
X92906666Y-81655000D01*
X92842857Y-81619285D01*
X91853809Y-81583571D02*
X92428095Y-82547857D01*
X91407142Y-81976428D02*
X91311428Y-82012142D01*
X91279523Y-82047857D01*
X91247619Y-82119285D01*
X91247619Y-82226428D01*
X91279523Y-82297857D01*
X91311428Y-82333571D01*
X91375238Y-82369285D01*
X91630476Y-82369285D01*
X91630476Y-81619285D01*
X91407142Y-81619285D01*
X91343333Y-81655000D01*
X91311428Y-81690714D01*
X91279523Y-81762142D01*
X91279523Y-81833571D01*
X91311428Y-81905000D01*
X91343333Y-81940714D01*
X91407142Y-81976428D01*
X91630476Y-81976428D01*
X90673333Y-81619285D02*
X90800952Y-81619285D01*
X90864761Y-81655000D01*
X90896666Y-81690714D01*
X90960476Y-81797857D01*
X90992380Y-81940714D01*
X90992380Y-82226428D01*
X90960476Y-82297857D01*
X90928571Y-82333571D01*
X90864761Y-82369285D01*
X90737142Y-82369285D01*
X90673333Y-82333571D01*
X90641428Y-82297857D01*
X90609523Y-82226428D01*
X90609523Y-82047857D01*
X90641428Y-81976428D01*
X90673333Y-81940714D01*
X90737142Y-81905000D01*
X90864761Y-81905000D01*
X90928571Y-81940714D01*
X90960476Y-81976428D01*
X90992380Y-82047857D01*
X93257619Y-79869285D02*
X93640476Y-79869285D01*
X93449047Y-79869285D02*
X93449047Y-79119285D01*
X93512857Y-79226428D01*
X93576666Y-79297857D01*
X93640476Y-79333571D01*
X92683333Y-79119285D02*
X92810952Y-79119285D01*
X92874761Y-79155000D01*
X92906666Y-79190714D01*
X92970476Y-79297857D01*
X93002380Y-79440714D01*
X93002380Y-79726428D01*
X92970476Y-79797857D01*
X92938571Y-79833571D01*
X92874761Y-79869285D01*
X92747142Y-79869285D01*
X92683333Y-79833571D01*
X92651428Y-79797857D01*
X92619523Y-79726428D01*
X92619523Y-79547857D01*
X92651428Y-79476428D01*
X92683333Y-79440714D01*
X92747142Y-79405000D01*
X92874761Y-79405000D01*
X92938571Y-79440714D01*
X92970476Y-79476428D01*
X93002380Y-79547857D01*
X91853809Y-79083571D02*
X92428095Y-80047857D01*
X91407142Y-79476428D02*
X91311428Y-79512142D01*
X91279523Y-79547857D01*
X91247619Y-79619285D01*
X91247619Y-79726428D01*
X91279523Y-79797857D01*
X91311428Y-79833571D01*
X91375238Y-79869285D01*
X91630476Y-79869285D01*
X91630476Y-79119285D01*
X91407142Y-79119285D01*
X91343333Y-79155000D01*
X91311428Y-79190714D01*
X91279523Y-79262142D01*
X91279523Y-79333571D01*
X91311428Y-79405000D01*
X91343333Y-79440714D01*
X91407142Y-79476428D01*
X91630476Y-79476428D01*
X90992380Y-79190714D02*
X90960476Y-79155000D01*
X90896666Y-79119285D01*
X90737142Y-79119285D01*
X90673333Y-79155000D01*
X90641428Y-79190714D01*
X90609523Y-79262142D01*
X90609523Y-79333571D01*
X90641428Y-79440714D01*
X91024285Y-79869285D01*
X90609523Y-79869285D01*
X102357619Y-76776428D02*
X102134285Y-76776428D01*
X102038571Y-77169285D02*
X102357619Y-77169285D01*
X102357619Y-76419285D01*
X102038571Y-76419285D01*
X101464285Y-76419285D02*
X101591904Y-76419285D01*
X101655714Y-76455000D01*
X101687619Y-76490714D01*
X101751428Y-76597857D01*
X101783333Y-76740714D01*
X101783333Y-77026428D01*
X101751428Y-77097857D01*
X101719523Y-77133571D01*
X101655714Y-77169285D01*
X101528095Y-77169285D01*
X101464285Y-77133571D01*
X101432380Y-77097857D01*
X101400476Y-77026428D01*
X101400476Y-76847857D01*
X101432380Y-76776428D01*
X101464285Y-76740714D01*
X101528095Y-76705000D01*
X101655714Y-76705000D01*
X101719523Y-76740714D01*
X101751428Y-76776428D01*
X101783333Y-76847857D01*
X100634761Y-76383571D02*
X101209047Y-77347857D01*
X100475238Y-76419285D02*
X100028571Y-76419285D01*
X100315714Y-77169285D01*
X102389523Y-74619285D02*
X102389523Y-73869285D01*
X102230000Y-73869285D01*
X102134285Y-73905000D01*
X102070476Y-73976428D01*
X102038571Y-74047857D01*
X102006666Y-74190714D01*
X102006666Y-74297857D01*
X102038571Y-74440714D01*
X102070476Y-74512142D01*
X102134285Y-74583571D01*
X102230000Y-74619285D01*
X102389523Y-74619285D01*
X101783333Y-73869285D02*
X101336666Y-73869285D01*
X101623809Y-74619285D01*
X100602857Y-73833571D02*
X101177142Y-74797857D01*
X100092380Y-73869285D02*
X100220000Y-73869285D01*
X100283809Y-73905000D01*
X100315714Y-73940714D01*
X100379523Y-74047857D01*
X100411428Y-74190714D01*
X100411428Y-74476428D01*
X100379523Y-74547857D01*
X100347619Y-74583571D01*
X100283809Y-74619285D01*
X100156190Y-74619285D01*
X100092380Y-74583571D01*
X100060476Y-74547857D01*
X100028571Y-74476428D01*
X100028571Y-74297857D01*
X100060476Y-74226428D01*
X100092380Y-74190714D01*
X100156190Y-74155000D01*
X100283809Y-74155000D01*
X100347619Y-74190714D01*
X100379523Y-74226428D01*
X100411428Y-74297857D01*
X101985476Y-58855000D02*
X102049285Y-58819285D01*
X102145000Y-58819285D01*
X102240714Y-58855000D01*
X102304523Y-58926428D01*
X102336428Y-58997857D01*
X102368333Y-59140714D01*
X102368333Y-59247857D01*
X102336428Y-59390714D01*
X102304523Y-59462142D01*
X102240714Y-59533571D01*
X102145000Y-59569285D01*
X102081190Y-59569285D01*
X101985476Y-59533571D01*
X101953571Y-59497857D01*
X101953571Y-59247857D01*
X102081190Y-59247857D01*
X101666428Y-59569285D02*
X101666428Y-58819285D01*
X101283571Y-59569285D01*
X101283571Y-58819285D01*
X100964523Y-59569285D02*
X100964523Y-58819285D01*
X100805000Y-58819285D01*
X100709285Y-58855000D01*
X100645476Y-58926428D01*
X100613571Y-58997857D01*
X100581666Y-59140714D01*
X100581666Y-59247857D01*
X100613571Y-59390714D01*
X100645476Y-59462142D01*
X100709285Y-59533571D01*
X100805000Y-59569285D01*
X100964523Y-59569285D01*
X101985476Y-61305000D02*
X102049285Y-61269285D01*
X102145000Y-61269285D01*
X102240714Y-61305000D01*
X102304523Y-61376428D01*
X102336428Y-61447857D01*
X102368333Y-61590714D01*
X102368333Y-61697857D01*
X102336428Y-61840714D01*
X102304523Y-61912142D01*
X102240714Y-61983571D01*
X102145000Y-62019285D01*
X102081190Y-62019285D01*
X101985476Y-61983571D01*
X101953571Y-61947857D01*
X101953571Y-61697857D01*
X102081190Y-61697857D01*
X101666428Y-62019285D02*
X101666428Y-61269285D01*
X101283571Y-62019285D01*
X101283571Y-61269285D01*
X100964523Y-62019285D02*
X100964523Y-61269285D01*
X100805000Y-61269285D01*
X100709285Y-61305000D01*
X100645476Y-61376428D01*
X100613571Y-61447857D01*
X100581666Y-61590714D01*
X100581666Y-61697857D01*
X100613571Y-61840714D01*
X100645476Y-61912142D01*
X100709285Y-61983571D01*
X100805000Y-62019285D01*
X100964523Y-62019285D01*
X102413809Y-54469285D02*
X102413809Y-53719285D01*
X102254285Y-53719285D01*
X102158571Y-53755000D01*
X102094761Y-53826428D01*
X102062857Y-53897857D01*
X102030952Y-54040714D01*
X102030952Y-54147857D01*
X102062857Y-54290714D01*
X102094761Y-54362142D01*
X102158571Y-54433571D01*
X102254285Y-54469285D01*
X102413809Y-54469285D01*
X101807619Y-53719285D02*
X101392857Y-53719285D01*
X101616190Y-54005000D01*
X101520476Y-54005000D01*
X101456666Y-54040714D01*
X101424761Y-54076428D01*
X101392857Y-54147857D01*
X101392857Y-54326428D01*
X101424761Y-54397857D01*
X101456666Y-54433571D01*
X101520476Y-54469285D01*
X101711904Y-54469285D01*
X101775714Y-54433571D01*
X101807619Y-54397857D01*
X100627142Y-53683571D02*
X101201428Y-54647857D01*
X100499523Y-53719285D02*
X100116666Y-53719285D01*
X100308095Y-54469285D02*
X100308095Y-53719285D01*
X99957142Y-53719285D02*
X99510476Y-54469285D01*
X99510476Y-53719285D02*
X99957142Y-54469285D01*
X99127619Y-53719285D02*
X99063809Y-53719285D01*
X99000000Y-53755000D01*
X98968095Y-53790714D01*
X98936190Y-53862142D01*
X98904285Y-54005000D01*
X98904285Y-54183571D01*
X98936190Y-54326428D01*
X98968095Y-54397857D01*
X99000000Y-54433571D01*
X99063809Y-54469285D01*
X99127619Y-54469285D01*
X99191428Y-54433571D01*
X99223333Y-54397857D01*
X99255238Y-54326428D01*
X99287142Y-54183571D01*
X99287142Y-54005000D01*
X99255238Y-53862142D01*
X99223333Y-53790714D01*
X99191428Y-53755000D01*
X99127619Y-53719285D01*
X102389523Y-69519285D02*
X102389523Y-68769285D01*
X102230000Y-68769285D01*
X102134285Y-68805000D01*
X102070476Y-68876428D01*
X102038571Y-68947857D01*
X102006666Y-69090714D01*
X102006666Y-69197857D01*
X102038571Y-69340714D01*
X102070476Y-69412142D01*
X102134285Y-69483571D01*
X102230000Y-69519285D01*
X102389523Y-69519285D01*
X101432380Y-69019285D02*
X101432380Y-69519285D01*
X101591904Y-68733571D02*
X101751428Y-69269285D01*
X101336666Y-69269285D01*
X100602857Y-68733571D02*
X101177142Y-69697857D01*
X100092380Y-69019285D02*
X100092380Y-69519285D01*
X100251904Y-68733571D02*
X100411428Y-69269285D01*
X99996666Y-69269285D01*
X102463571Y-64483571D02*
X102367857Y-64519285D01*
X102208333Y-64519285D01*
X102144523Y-64483571D01*
X102112619Y-64447857D01*
X102080714Y-64376428D01*
X102080714Y-64305000D01*
X102112619Y-64233571D01*
X102144523Y-64197857D01*
X102208333Y-64162142D01*
X102335952Y-64126428D01*
X102399761Y-64090714D01*
X102431666Y-64055000D01*
X102463571Y-63983571D01*
X102463571Y-63912142D01*
X102431666Y-63840714D01*
X102399761Y-63805000D01*
X102335952Y-63769285D01*
X102176428Y-63769285D01*
X102080714Y-63805000D01*
X101793571Y-64519285D02*
X101793571Y-63769285D01*
X101634047Y-63769285D01*
X101538333Y-63805000D01*
X101474523Y-63876428D01*
X101442619Y-63947857D01*
X101410714Y-64090714D01*
X101410714Y-64197857D01*
X101442619Y-64340714D01*
X101474523Y-64412142D01*
X101538333Y-64483571D01*
X101634047Y-64519285D01*
X101793571Y-64519285D01*
X101155476Y-64305000D02*
X100836428Y-64305000D01*
X101219285Y-64519285D02*
X100995952Y-63769285D01*
X100772619Y-64519285D01*
X100070714Y-63733571D02*
X100645000Y-64697857D01*
X99847380Y-64519285D02*
X99847380Y-63769285D01*
X99687857Y-63769285D01*
X99592142Y-63805000D01*
X99528333Y-63876428D01*
X99496428Y-63947857D01*
X99464523Y-64090714D01*
X99464523Y-64197857D01*
X99496428Y-64340714D01*
X99528333Y-64412142D01*
X99592142Y-64483571D01*
X99687857Y-64519285D01*
X99847380Y-64519285D01*
X98826428Y-64519285D02*
X99209285Y-64519285D01*
X99017857Y-64519285D02*
X99017857Y-63769285D01*
X99081666Y-63876428D01*
X99145476Y-63947857D01*
X99209285Y-63983571D01*
X98060714Y-63733571D02*
X98635000Y-64697857D01*
X97869285Y-63840714D02*
X97837380Y-63805000D01*
X97773571Y-63769285D01*
X97614047Y-63769285D01*
X97550238Y-63805000D01*
X97518333Y-63840714D01*
X97486428Y-63912142D01*
X97486428Y-63983571D01*
X97518333Y-64090714D01*
X97901190Y-64519285D01*
X97486428Y-64519285D01*
X102447619Y-66983571D02*
X102351904Y-67019285D01*
X102192380Y-67019285D01*
X102128571Y-66983571D01*
X102096666Y-66947857D01*
X102064761Y-66876428D01*
X102064761Y-66805000D01*
X102096666Y-66733571D01*
X102128571Y-66697857D01*
X102192380Y-66662142D01*
X102320000Y-66626428D01*
X102383809Y-66590714D01*
X102415714Y-66555000D01*
X102447619Y-66483571D01*
X102447619Y-66412142D01*
X102415714Y-66340714D01*
X102383809Y-66305000D01*
X102320000Y-66269285D01*
X102160476Y-66269285D01*
X102064761Y-66305000D01*
X101394761Y-66947857D02*
X101426666Y-66983571D01*
X101522380Y-67019285D01*
X101586190Y-67019285D01*
X101681904Y-66983571D01*
X101745714Y-66912142D01*
X101777619Y-66840714D01*
X101809523Y-66697857D01*
X101809523Y-66590714D01*
X101777619Y-66447857D01*
X101745714Y-66376428D01*
X101681904Y-66305000D01*
X101586190Y-66269285D01*
X101522380Y-66269285D01*
X101426666Y-66305000D01*
X101394761Y-66340714D01*
X100788571Y-67019285D02*
X101107619Y-67019285D01*
X101107619Y-66269285D01*
X100086666Y-66233571D02*
X100660952Y-67197857D01*
X99863333Y-67019285D02*
X99863333Y-66269285D01*
X99703809Y-66269285D01*
X99608095Y-66305000D01*
X99544285Y-66376428D01*
X99512380Y-66447857D01*
X99480476Y-66590714D01*
X99480476Y-66697857D01*
X99512380Y-66840714D01*
X99544285Y-66912142D01*
X99608095Y-66983571D01*
X99703809Y-67019285D01*
X99863333Y-67019285D01*
X99065714Y-66269285D02*
X99001904Y-66269285D01*
X98938095Y-66305000D01*
X98906190Y-66340714D01*
X98874285Y-66412142D01*
X98842380Y-66555000D01*
X98842380Y-66733571D01*
X98874285Y-66876428D01*
X98906190Y-66947857D01*
X98938095Y-66983571D01*
X99001904Y-67019285D01*
X99065714Y-67019285D01*
X99129523Y-66983571D01*
X99161428Y-66947857D01*
X99193333Y-66876428D01*
X99225238Y-66733571D01*
X99225238Y-66555000D01*
X99193333Y-66412142D01*
X99161428Y-66340714D01*
X99129523Y-66305000D01*
X99065714Y-66269285D01*
X98076666Y-66233571D02*
X98650952Y-67197857D01*
X97917142Y-66269285D02*
X97502380Y-66269285D01*
X97725714Y-66555000D01*
X97630000Y-66555000D01*
X97566190Y-66590714D01*
X97534285Y-66626428D01*
X97502380Y-66697857D01*
X97502380Y-66876428D01*
X97534285Y-66947857D01*
X97566190Y-66983571D01*
X97630000Y-67019285D01*
X97821428Y-67019285D01*
X97885238Y-66983571D01*
X97917142Y-66947857D01*
X102006666Y-71997857D02*
X102038571Y-72033571D01*
X102134285Y-72069285D01*
X102198095Y-72069285D01*
X102293809Y-72033571D01*
X102357619Y-71962142D01*
X102389523Y-71890714D01*
X102421428Y-71747857D01*
X102421428Y-71640714D01*
X102389523Y-71497857D01*
X102357619Y-71426428D01*
X102293809Y-71355000D01*
X102198095Y-71319285D01*
X102134285Y-71319285D01*
X102038571Y-71355000D01*
X102006666Y-71390714D01*
X101432380Y-71319285D02*
X101560000Y-71319285D01*
X101623809Y-71355000D01*
X101655714Y-71390714D01*
X101719523Y-71497857D01*
X101751428Y-71640714D01*
X101751428Y-71926428D01*
X101719523Y-71997857D01*
X101687619Y-72033571D01*
X101623809Y-72069285D01*
X101496190Y-72069285D01*
X101432380Y-72033571D01*
X101400476Y-71997857D01*
X101368571Y-71926428D01*
X101368571Y-71747857D01*
X101400476Y-71676428D01*
X101432380Y-71640714D01*
X101496190Y-71605000D01*
X101623809Y-71605000D01*
X101687619Y-71640714D01*
X101719523Y-71676428D01*
X101751428Y-71747857D01*
X100602857Y-71283571D02*
X101177142Y-72247857D01*
X100060476Y-71319285D02*
X100379523Y-71319285D01*
X100411428Y-71676428D01*
X100379523Y-71640714D01*
X100315714Y-71605000D01*
X100156190Y-71605000D01*
X100092380Y-71640714D01*
X100060476Y-71676428D01*
X100028571Y-71747857D01*
X100028571Y-71926428D01*
X100060476Y-71997857D01*
X100092380Y-72033571D01*
X100156190Y-72069285D01*
X100315714Y-72069285D01*
X100379523Y-72033571D01*
X100411428Y-71997857D01*
X102166190Y-81826428D02*
X102070476Y-81862142D01*
X102038571Y-81897857D01*
X102006666Y-81969285D01*
X102006666Y-82076428D01*
X102038571Y-82147857D01*
X102070476Y-82183571D01*
X102134285Y-82219285D01*
X102389523Y-82219285D01*
X102389523Y-81469285D01*
X102166190Y-81469285D01*
X102102380Y-81505000D01*
X102070476Y-81540714D01*
X102038571Y-81612142D01*
X102038571Y-81683571D01*
X102070476Y-81755000D01*
X102102380Y-81790714D01*
X102166190Y-81826428D01*
X102389523Y-81826428D01*
X101400476Y-81469285D02*
X101719523Y-81469285D01*
X101751428Y-81826428D01*
X101719523Y-81790714D01*
X101655714Y-81755000D01*
X101496190Y-81755000D01*
X101432380Y-81790714D01*
X101400476Y-81826428D01*
X101368571Y-81897857D01*
X101368571Y-82076428D01*
X101400476Y-82147857D01*
X101432380Y-82183571D01*
X101496190Y-82219285D01*
X101655714Y-82219285D01*
X101719523Y-82183571D01*
X101751428Y-82147857D01*
X100602857Y-81433571D02*
X101177142Y-82397857D01*
X100347619Y-82219285D02*
X100220000Y-82219285D01*
X100156190Y-82183571D01*
X100124285Y-82147857D01*
X100060476Y-82040714D01*
X100028571Y-81897857D01*
X100028571Y-81612142D01*
X100060476Y-81540714D01*
X100092380Y-81505000D01*
X100156190Y-81469285D01*
X100283809Y-81469285D01*
X100347619Y-81505000D01*
X100379523Y-81540714D01*
X100411428Y-81612142D01*
X100411428Y-81790714D01*
X100379523Y-81862142D01*
X100347619Y-81897857D01*
X100283809Y-81933571D01*
X100156190Y-81933571D01*
X100092380Y-81897857D01*
X100060476Y-81862142D01*
X100028571Y-81790714D01*
X102493571Y-57019285D02*
X102493571Y-56269285D01*
X102334047Y-56269285D01*
X102238333Y-56305000D01*
X102174523Y-56376428D01*
X102142619Y-56447857D01*
X102110714Y-56590714D01*
X102110714Y-56697857D01*
X102142619Y-56840714D01*
X102174523Y-56912142D01*
X102238333Y-56983571D01*
X102334047Y-57019285D01*
X102493571Y-57019285D01*
X101855476Y-56340714D02*
X101823571Y-56305000D01*
X101759761Y-56269285D01*
X101600238Y-56269285D01*
X101536428Y-56305000D01*
X101504523Y-56340714D01*
X101472619Y-56412142D01*
X101472619Y-56483571D01*
X101504523Y-56590714D01*
X101887380Y-57019285D01*
X101472619Y-57019285D01*
X100706904Y-56233571D02*
X101281190Y-57197857D01*
X100100714Y-57019285D02*
X100324047Y-56662142D01*
X100483571Y-57019285D02*
X100483571Y-56269285D01*
X100228333Y-56269285D01*
X100164523Y-56305000D01*
X100132619Y-56340714D01*
X100100714Y-56412142D01*
X100100714Y-56519285D01*
X100132619Y-56590714D01*
X100164523Y-56626428D01*
X100228333Y-56662142D01*
X100483571Y-56662142D01*
X99877380Y-56269285D02*
X99430714Y-57019285D01*
X99430714Y-56269285D02*
X99877380Y-57019285D01*
X98824523Y-57019285D02*
X99207380Y-57019285D01*
X99015952Y-57019285D02*
X99015952Y-56269285D01*
X99079761Y-56376428D01*
X99143571Y-56447857D01*
X99207380Y-56483571D01*
X102166190Y-79326428D02*
X102070476Y-79362142D01*
X102038571Y-79397857D01*
X102006666Y-79469285D01*
X102006666Y-79576428D01*
X102038571Y-79647857D01*
X102070476Y-79683571D01*
X102134285Y-79719285D01*
X102389523Y-79719285D01*
X102389523Y-78969285D01*
X102166190Y-78969285D01*
X102102380Y-79005000D01*
X102070476Y-79040714D01*
X102038571Y-79112142D01*
X102038571Y-79183571D01*
X102070476Y-79255000D01*
X102102380Y-79290714D01*
X102166190Y-79326428D01*
X102389523Y-79326428D01*
X101432380Y-79219285D02*
X101432380Y-79719285D01*
X101591904Y-78933571D02*
X101751428Y-79469285D01*
X101336666Y-79469285D01*
X100602857Y-78933571D02*
X101177142Y-79897857D01*
X100283809Y-79290714D02*
X100347619Y-79255000D01*
X100379523Y-79219285D01*
X100411428Y-79147857D01*
X100411428Y-79112142D01*
X100379523Y-79040714D01*
X100347619Y-79005000D01*
X100283809Y-78969285D01*
X100156190Y-78969285D01*
X100092380Y-79005000D01*
X100060476Y-79040714D01*
X100028571Y-79112142D01*
X100028571Y-79147857D01*
X100060476Y-79219285D01*
X100092380Y-79255000D01*
X100156190Y-79290714D01*
X100283809Y-79290714D01*
X100347619Y-79326428D01*
X100379523Y-79362142D01*
X100411428Y-79433571D01*
X100411428Y-79576428D01*
X100379523Y-79647857D01*
X100347619Y-79683571D01*
X100283809Y-79719285D01*
X100156190Y-79719285D01*
X100092380Y-79683571D01*
X100060476Y-79647857D01*
X100028571Y-79576428D01*
X100028571Y-79433571D01*
X100060476Y-79362142D01*
X100092380Y-79326428D01*
X100156190Y-79290714D01*
D12*
X96686666Y-63069380D02*
X97162857Y-63069380D01*
X97162857Y-62069380D01*
X95829523Y-63069380D02*
X96400952Y-63069380D01*
X96115238Y-63069380D02*
X96115238Y-62069380D01*
X96210476Y-62212238D01*
X96305714Y-62307476D01*
X96400952Y-62355095D01*
X96686666Y-82119380D02*
X97162857Y-82119380D01*
X97162857Y-81119380D01*
X96400952Y-81214619D02*
X96353333Y-81167000D01*
X96258095Y-81119380D01*
X96020000Y-81119380D01*
X95924761Y-81167000D01*
X95877142Y-81214619D01*
X95829523Y-81309857D01*
X95829523Y-81405095D01*
X95877142Y-81547952D01*
X96448571Y-82119380D01*
X95829523Y-82119380D01*
X77636666Y-82119380D02*
X78112857Y-82119380D01*
X78112857Y-81119380D01*
X77398571Y-81119380D02*
X76779523Y-81119380D01*
X77112857Y-81500333D01*
X76970000Y-81500333D01*
X76874761Y-81547952D01*
X76827142Y-81595571D01*
X76779523Y-81690809D01*
X76779523Y-81928904D01*
X76827142Y-82024142D01*
X76874761Y-82071761D01*
X76970000Y-82119380D01*
X77255714Y-82119380D01*
X77350952Y-82071761D01*
X77398571Y-82024142D01*
X77636666Y-63069380D02*
X78112857Y-63069380D01*
X78112857Y-62069380D01*
X76874761Y-62402714D02*
X76874761Y-63069380D01*
X77112857Y-62021761D02*
X77350952Y-62736047D01*
X76731904Y-62736047D01*
M02*
