G04 #@! TF.GenerationSoftware,KiCad,Pcbnew,5.1.5+dfsg1-2build2*
G04 #@! TF.CreationDate,2021-10-19T22:17:02+09:00*
G04 #@! TF.ProjectId,pcb,7063622e-6b69-4636-9164-5f7063625858,rev?*
G04 #@! TF.SameCoordinates,Original*
G04 #@! TF.FileFunction,Profile,NP*
%FSLAX46Y46*%
G04 Gerber Fmt 4.6, Leading zero omitted, Abs format (unit mm)*
G04 Created by KiCad (PCBNEW 5.1.5+dfsg1-2build2) date 2021-10-19 22:17:02*
%MOMM*%
%LPD*%
G04 APERTURE LIST*
%ADD10C,0.050000*%
G04 APERTURE END LIST*
D10*
X161925000Y-137160000D02*
X161925000Y-98425000D01*
X112395000Y-98425000D02*
G75*
G02X115570000Y-95250000I3175000J0D01*
G01*
X158750000Y-95250000D02*
G75*
G02X161925000Y-98425000I0J-3175000D01*
G01*
X115570000Y-140335000D02*
G75*
G02X112395000Y-137160000I0J3175000D01*
G01*
X158750000Y-140335000D02*
X115570000Y-140335000D01*
X161925000Y-137160000D02*
G75*
G02X158750000Y-140335000I-3175000J0D01*
G01*
X109220000Y-140335000D02*
X66040000Y-140335000D01*
X109220000Y-95250000D02*
G75*
G02X112395000Y-98425000I0J-3175000D01*
G01*
X112395000Y-137160000D02*
G75*
G02X109220000Y-140335000I-3175000J0D01*
G01*
X66040000Y-140335000D02*
G75*
G02X62865000Y-137160000I0J3175000D01*
G01*
X62865000Y-98425000D02*
X62865000Y-137160000D01*
X62865000Y-98425000D02*
G75*
G02X66040000Y-95250000I3175000J0D01*
G01*
X161925000Y-92075000D02*
X161925000Y-53340000D01*
X158750000Y-50165000D02*
G75*
G02X161925000Y-53340000I0J-3175000D01*
G01*
X161925000Y-92075000D02*
G75*
G02X158750000Y-95250000I-3175000J0D01*
G01*
X115570000Y-95250000D02*
G75*
G02X112395000Y-92075000I0J3175000D01*
G01*
X112395000Y-53340000D02*
G75*
G02X115570000Y-50165000I3175000J0D01*
G01*
X158750000Y-50165000D02*
X115570000Y-50165000D01*
X109220000Y-50165000D02*
X66040000Y-50165000D01*
X62865000Y-53340000D02*
X62865000Y-92075000D01*
X66040000Y-95250000D02*
G75*
G02X62865000Y-92075000I0J3175000D01*
G01*
X112395000Y-92075000D02*
G75*
G02X109220000Y-95250000I-3175000J0D01*
G01*
X62865000Y-53340000D02*
G75*
G02X66040000Y-50165000I3175000J0D01*
G01*
X109220000Y-50165000D02*
G75*
G02X112395000Y-53340000I0J-3175000D01*
G01*
M02*
