G04 #@! TF.GenerationSoftware,KiCad,Pcbnew,5.1.5+dfsg1-2build2*
G04 #@! TF.CreationDate,2021-10-19T21:18:03+09:00*
G04 #@! TF.ProjectId,pcb,7063622e-6b69-4636-9164-5f7063625858,rev?*
G04 #@! TF.SameCoordinates,Original*
G04 #@! TF.FileFunction,Legend,Top*
G04 #@! TF.FilePolarity,Positive*
%FSLAX46Y46*%
G04 Gerber Fmt 4.6, Leading zero omitted, Abs format (unit mm)*
G04 Created by KiCad (PCBNEW 5.1.5+dfsg1-2build2) date 2021-10-19 21:18:03*
%MOMM*%
%LPD*%
G04 APERTURE LIST*
%ADD10C,0.500000*%
%ADD11C,0.150000*%
G04 APERTURE END LIST*
D10*
X108649047Y-43989761D02*
X109315714Y-45989761D01*
X109982380Y-43989761D01*
X110649047Y-45227857D02*
X112172857Y-45227857D01*
X114268095Y-45799285D02*
X114172857Y-45894523D01*
X113887142Y-45989761D01*
X113696666Y-45989761D01*
X113410952Y-45894523D01*
X113220476Y-45704047D01*
X113125238Y-45513571D01*
X113030000Y-45132619D01*
X113030000Y-44846904D01*
X113125238Y-44465952D01*
X113220476Y-44275476D01*
X113410952Y-44085000D01*
X113696666Y-43989761D01*
X113887142Y-43989761D01*
X114172857Y-44085000D01*
X114268095Y-44180238D01*
X115982380Y-44656428D02*
X115982380Y-45989761D01*
X115125238Y-44656428D02*
X115125238Y-45704047D01*
X115220476Y-45894523D01*
X115410952Y-45989761D01*
X115696666Y-45989761D01*
X115887142Y-45894523D01*
X115982380Y-45799285D01*
X116649047Y-44656428D02*
X117410952Y-44656428D01*
X116934761Y-43989761D02*
X116934761Y-45704047D01*
X117030000Y-45894523D01*
X117220476Y-45989761D01*
X117410952Y-45989761D01*
X167069047Y-94154761D02*
X167735714Y-96154761D01*
X168402380Y-94154761D01*
X169069047Y-95392857D02*
X170592857Y-95392857D01*
X172688095Y-95964285D02*
X172592857Y-96059523D01*
X172307142Y-96154761D01*
X172116666Y-96154761D01*
X171830952Y-96059523D01*
X171640476Y-95869047D01*
X171545238Y-95678571D01*
X171450000Y-95297619D01*
X171450000Y-95011904D01*
X171545238Y-94630952D01*
X171640476Y-94440476D01*
X171830952Y-94250000D01*
X172116666Y-94154761D01*
X172307142Y-94154761D01*
X172592857Y-94250000D01*
X172688095Y-94345238D01*
X174402380Y-94821428D02*
X174402380Y-96154761D01*
X173545238Y-94821428D02*
X173545238Y-95869047D01*
X173640476Y-96059523D01*
X173830952Y-96154761D01*
X174116666Y-96154761D01*
X174307142Y-96059523D01*
X174402380Y-95964285D01*
X175069047Y-94821428D02*
X175830952Y-94821428D01*
X175354761Y-94154761D02*
X175354761Y-95869047D01*
X175450000Y-96059523D01*
X175640476Y-96154761D01*
X175830952Y-96154761D01*
X165735000Y-95250000D02*
X163830000Y-93345000D01*
X165735000Y-95250000D02*
X163830000Y-97155000D01*
X59055000Y-95250000D02*
X165735000Y-95250000D01*
X112395000Y-46355000D02*
X114300000Y-48260000D01*
X112395000Y-46355000D02*
X110490000Y-48260000D01*
X112395000Y-144780000D02*
X112395000Y-46355000D01*
D11*
X134000000Y-116490000D02*
X134000000Y-117490000D01*
X134000000Y-117490000D02*
X133000000Y-117490000D01*
X121000000Y-103490000D02*
X120000000Y-103490000D01*
X120000000Y-103490000D02*
X120000000Y-104490000D01*
X120000000Y-116490000D02*
X120000000Y-117490000D01*
X120000000Y-117490000D02*
X121000000Y-117490000D01*
X134000000Y-104490000D02*
X134000000Y-103490000D01*
X133000000Y-103490000D02*
X134000000Y-103490000D01*
X152050000Y-103490000D02*
X153050000Y-103490000D01*
X153050000Y-104490000D02*
X153050000Y-103490000D01*
X139050000Y-117490000D02*
X140050000Y-117490000D01*
X139050000Y-116490000D02*
X139050000Y-117490000D01*
X139050000Y-103490000D02*
X139050000Y-104490000D01*
X140050000Y-103490000D02*
X139050000Y-103490000D01*
X153050000Y-117490000D02*
X152050000Y-117490000D01*
X153050000Y-116490000D02*
X153050000Y-117490000D01*
X153050000Y-135540000D02*
X153050000Y-136540000D01*
X153050000Y-136540000D02*
X152050000Y-136540000D01*
X140050000Y-122540000D02*
X139050000Y-122540000D01*
X139050000Y-122540000D02*
X139050000Y-123540000D01*
X139050000Y-135540000D02*
X139050000Y-136540000D01*
X139050000Y-136540000D02*
X140050000Y-136540000D01*
X153050000Y-123540000D02*
X153050000Y-122540000D01*
X152050000Y-122540000D02*
X153050000Y-122540000D01*
X87620000Y-95365000D02*
X87620000Y-96365000D01*
X105420000Y-95365000D02*
X105420000Y-96365000D01*
X87620000Y-95365000D02*
X88620000Y-95365000D01*
X105420000Y-95365000D02*
X104470000Y-95365000D01*
X87620000Y-127365000D02*
X87620000Y-128415000D01*
X105420000Y-127415000D02*
X105420000Y-128415000D01*
X87620000Y-128415000D02*
X88620000Y-128415000D01*
X105420000Y-128415000D02*
X104410000Y-128415000D01*
X133000000Y-122540000D02*
X134000000Y-122540000D01*
X134000000Y-123540000D02*
X134000000Y-122540000D01*
X120000000Y-136540000D02*
X121000000Y-136540000D01*
X120000000Y-135540000D02*
X120000000Y-136540000D01*
X120000000Y-122540000D02*
X120000000Y-123540000D01*
X121000000Y-122540000D02*
X120000000Y-122540000D01*
X134000000Y-136540000D02*
X133000000Y-136540000D01*
X134000000Y-135540000D02*
X134000000Y-136540000D01*
X154950000Y-128415000D02*
X153940000Y-128415000D01*
X137150000Y-128415000D02*
X138150000Y-128415000D01*
X154950000Y-127415000D02*
X154950000Y-128415000D01*
X137150000Y-127365000D02*
X137150000Y-128415000D01*
X154950000Y-95365000D02*
X154000000Y-95365000D01*
X137150000Y-95365000D02*
X138150000Y-95365000D01*
X154950000Y-95365000D02*
X154950000Y-96365000D01*
X137150000Y-95365000D02*
X137150000Y-96365000D01*
X103520000Y-116490000D02*
X103520000Y-117490000D01*
X103520000Y-117490000D02*
X102520000Y-117490000D01*
X90520000Y-103490000D02*
X89520000Y-103490000D01*
X89520000Y-103490000D02*
X89520000Y-104490000D01*
X89520000Y-116490000D02*
X89520000Y-117490000D01*
X89520000Y-117490000D02*
X90520000Y-117490000D01*
X103520000Y-104490000D02*
X103520000Y-103490000D01*
X102520000Y-103490000D02*
X103520000Y-103490000D01*
X102520000Y-122540000D02*
X103520000Y-122540000D01*
X103520000Y-123540000D02*
X103520000Y-122540000D01*
X89520000Y-136540000D02*
X90520000Y-136540000D01*
X89520000Y-135540000D02*
X89520000Y-136540000D01*
X89520000Y-122540000D02*
X89520000Y-123540000D01*
X90520000Y-122540000D02*
X89520000Y-122540000D01*
X103520000Y-136540000D02*
X102520000Y-136540000D01*
X103520000Y-135540000D02*
X103520000Y-136540000D01*
X84470000Y-135540000D02*
X84470000Y-136540000D01*
X84470000Y-136540000D02*
X83470000Y-136540000D01*
X71470000Y-122540000D02*
X70470000Y-122540000D01*
X70470000Y-122540000D02*
X70470000Y-123540000D01*
X70470000Y-135540000D02*
X70470000Y-136540000D01*
X70470000Y-136540000D02*
X71470000Y-136540000D01*
X84470000Y-123540000D02*
X84470000Y-122540000D01*
X83470000Y-122540000D02*
X84470000Y-122540000D01*
X83470000Y-103490000D02*
X84470000Y-103490000D01*
X84470000Y-104490000D02*
X84470000Y-103490000D01*
X70470000Y-117490000D02*
X71470000Y-117490000D01*
X70470000Y-116490000D02*
X70470000Y-117490000D01*
X70470000Y-103490000D02*
X70470000Y-104490000D01*
X71470000Y-103490000D02*
X70470000Y-103490000D01*
X84470000Y-117490000D02*
X83470000Y-117490000D01*
X84470000Y-116490000D02*
X84470000Y-117490000D01*
X137150000Y-50280000D02*
X137150000Y-51280000D01*
X154950000Y-50280000D02*
X154950000Y-51280000D01*
X137150000Y-50280000D02*
X138150000Y-50280000D01*
X154950000Y-50280000D02*
X154000000Y-50280000D01*
X137150000Y-82280000D02*
X137150000Y-83330000D01*
X154950000Y-82330000D02*
X154950000Y-83330000D01*
X137150000Y-83330000D02*
X138150000Y-83330000D01*
X154950000Y-83330000D02*
X153940000Y-83330000D01*
X153050000Y-71405000D02*
X153050000Y-72405000D01*
X153050000Y-72405000D02*
X152050000Y-72405000D01*
X140050000Y-58405000D02*
X139050000Y-58405000D01*
X139050000Y-58405000D02*
X139050000Y-59405000D01*
X139050000Y-71405000D02*
X139050000Y-72405000D01*
X139050000Y-72405000D02*
X140050000Y-72405000D01*
X153050000Y-59405000D02*
X153050000Y-58405000D01*
X152050000Y-58405000D02*
X153050000Y-58405000D01*
X152050000Y-77455000D02*
X153050000Y-77455000D01*
X153050000Y-78455000D02*
X153050000Y-77455000D01*
X139050000Y-91455000D02*
X140050000Y-91455000D01*
X139050000Y-90455000D02*
X139050000Y-91455000D01*
X139050000Y-77455000D02*
X139050000Y-78455000D01*
X140050000Y-77455000D02*
X139050000Y-77455000D01*
X153050000Y-91455000D02*
X152050000Y-91455000D01*
X153050000Y-90455000D02*
X153050000Y-91455000D01*
X134000000Y-90455000D02*
X134000000Y-91455000D01*
X134000000Y-91455000D02*
X133000000Y-91455000D01*
X121000000Y-77455000D02*
X120000000Y-77455000D01*
X120000000Y-77455000D02*
X120000000Y-78455000D01*
X120000000Y-90455000D02*
X120000000Y-91455000D01*
X120000000Y-91455000D02*
X121000000Y-91455000D01*
X134000000Y-78455000D02*
X134000000Y-77455000D01*
X133000000Y-77455000D02*
X134000000Y-77455000D01*
X133000000Y-58405000D02*
X134000000Y-58405000D01*
X134000000Y-59405000D02*
X134000000Y-58405000D01*
X120000000Y-72405000D02*
X121000000Y-72405000D01*
X120000000Y-71405000D02*
X120000000Y-72405000D01*
X120000000Y-58405000D02*
X120000000Y-59405000D01*
X121000000Y-58405000D02*
X120000000Y-58405000D01*
X134000000Y-72405000D02*
X133000000Y-72405000D01*
X134000000Y-71405000D02*
X134000000Y-72405000D01*
X105420000Y-83330000D02*
X104410000Y-83330000D01*
X87620000Y-83330000D02*
X88620000Y-83330000D01*
X105420000Y-82330000D02*
X105420000Y-83330000D01*
X87620000Y-82280000D02*
X87620000Y-83330000D01*
X105420000Y-50280000D02*
X104470000Y-50280000D01*
X87620000Y-50280000D02*
X88620000Y-50280000D01*
X105420000Y-50280000D02*
X105420000Y-51280000D01*
X87620000Y-50280000D02*
X87620000Y-51280000D01*
X83470000Y-77455000D02*
X84470000Y-77455000D01*
X84470000Y-78455000D02*
X84470000Y-77455000D01*
X70470000Y-91455000D02*
X71470000Y-91455000D01*
X70470000Y-90455000D02*
X70470000Y-91455000D01*
X70470000Y-77455000D02*
X70470000Y-78455000D01*
X71470000Y-77455000D02*
X70470000Y-77455000D01*
X84470000Y-91455000D02*
X83470000Y-91455000D01*
X84470000Y-90455000D02*
X84470000Y-91455000D01*
X102520000Y-58405000D02*
X103520000Y-58405000D01*
X103520000Y-59405000D02*
X103520000Y-58405000D01*
X89520000Y-72405000D02*
X90520000Y-72405000D01*
X89520000Y-71405000D02*
X89520000Y-72405000D01*
X89520000Y-58405000D02*
X89520000Y-59405000D01*
X90520000Y-58405000D02*
X89520000Y-58405000D01*
X103520000Y-72405000D02*
X102520000Y-72405000D01*
X103520000Y-71405000D02*
X103520000Y-72405000D01*
X103520000Y-90455000D02*
X103520000Y-91455000D01*
X103520000Y-91455000D02*
X102520000Y-91455000D01*
X90520000Y-77455000D02*
X89520000Y-77455000D01*
X89520000Y-77455000D02*
X89520000Y-78455000D01*
X89520000Y-90455000D02*
X89520000Y-91455000D01*
X89520000Y-91455000D02*
X90520000Y-91455000D01*
X103520000Y-78455000D02*
X103520000Y-77455000D01*
X102520000Y-77455000D02*
X103520000Y-77455000D01*
X84470000Y-71405000D02*
X84470000Y-72405000D01*
X84470000Y-72405000D02*
X83470000Y-72405000D01*
X71470000Y-58405000D02*
X70470000Y-58405000D01*
X70470000Y-58405000D02*
X70470000Y-59405000D01*
X70470000Y-71405000D02*
X70470000Y-72405000D01*
X70470000Y-72405000D02*
X71470000Y-72405000D01*
X84470000Y-59405000D02*
X84470000Y-58405000D01*
X83470000Y-58405000D02*
X84470000Y-58405000D01*
M02*
