M48
; DRILL file {KiCad 5.1.5+dfsg1-2build2} date 2021年10月19日 22時17分05秒
; FORMAT={-:-/ absolute / inch / decimal}
; #@! TF.CreationDate,2021-10-19T22:17:05+09:00
; #@! TF.GenerationSoftware,Kicad,Pcbnew,5.1.5+dfsg1-2build2
FMAT,2
INCH
T1C0.0157
T2C0.0866
%
G90
G05
T1
X5.335Y-3.65
X5.3541Y-3.6041
X5.3541Y-3.6959
X5.4Y-3.585
X5.4Y-3.715
X5.4459Y-3.6041
X5.4459Y-3.6959
X5.465Y-3.65
X2.535Y-2.1
X2.5541Y-2.0541
X2.5541Y-2.1459
X2.6Y-2.035
X2.6Y-2.165
X2.6459Y-2.0541
X2.6459Y-2.1459
X2.665Y-2.1
X4.235Y-3.875
X4.2541Y-3.8291
X4.2541Y-3.9209
X4.3Y-3.81
X4.3Y-3.94
X4.3459Y-3.8291
X4.3459Y-3.9209
X4.365Y-3.875
X6.185Y-3.875
X6.2041Y-3.8291
X6.2041Y-3.9209
X6.25Y-3.81
X6.25Y-3.94
X6.2959Y-3.8291
X6.2959Y-3.9209
X6.315Y-3.875
X4.485Y-2.1
X4.5041Y-2.0541
X4.5041Y-2.1459
X4.55Y-2.035
X4.55Y-2.165
X4.5959Y-2.0541
X4.5959Y-2.1459
X4.615Y-2.1
X4.235Y-2.1
X4.2541Y-2.0541
X4.2541Y-2.1459
X4.3Y-2.035
X4.3Y-2.165
X4.3459Y-2.0541
X4.3459Y-2.1459
X4.365Y-2.1
X2.535Y-3.875
X2.5541Y-3.8291
X2.5541Y-3.9209
X2.6Y-3.81
X2.6Y-3.94
X2.6459Y-3.8291
X2.6459Y-3.9209
X2.665Y-3.875
X6.185Y-2.1
X6.2041Y-2.0541
X6.2041Y-2.1459
X6.25Y-2.035
X6.25Y-2.165
X6.2959Y-2.0541
X6.2959Y-2.1459
X6.315Y-2.1
X3.385Y-3.65
X3.4041Y-3.6041
X3.4041Y-3.6959
X3.45Y-3.585
X3.45Y-3.715
X3.4959Y-3.6041
X3.4959Y-3.6959
X3.515Y-3.65
X3.385Y-5.425
X3.4041Y-5.3791
X3.4041Y-5.4709
X3.45Y-5.36
X3.45Y-5.49
X3.4959Y-5.3791
X3.4959Y-5.4709
X3.515Y-5.425
X4.485Y-3.875
X4.5041Y-3.8291
X4.5041Y-3.9209
X4.55Y-3.81
X4.55Y-3.94
X4.5959Y-3.8291
X4.5959Y-3.9209
X4.615Y-3.875
X5.335Y-5.425
X5.3541Y-5.3791
X5.3541Y-5.4709
X5.4Y-5.36
X5.4Y-5.49
X5.4459Y-5.3791
X5.4459Y-5.4709
X5.465Y-5.425
T2
X5.4Y-3.65
X2.6Y-2.1
X4.3Y-3.875
X6.25Y-3.875
X4.55Y-2.1
X4.3Y-2.1
X2.6Y-3.875
X6.25Y-2.1
X3.45Y-3.65
X3.45Y-5.425
X4.55Y-3.875
X5.4Y-5.425
T0
M30
