M48
; DRILL file {KiCad 5.1.5+dfsg1-2build2} date 2021年10月19日 22時17分50秒
; FORMAT={-:-/ absolute / inch / decimal}
; #@! TF.CreationDate,2021-10-19T22:17:50+09:00
; #@! TF.GenerationSoftware,Kicad,Pcbnew,5.1.5+dfsg1-2build2
FMAT,2
INCH
T1C0.0157
T2C0.0315
T3C0.0320
T4C0.0390
T5C0.0512
T6C0.0866
T7C0.0748
T8C0.1575
%
G90
G05
T1
X2.85Y-2.675
X2.85Y-4.45
X3.15Y-2.975
X3.15Y-4.75
X3.4Y-2.75
X3.4Y-4.525
X3.575Y-2.675
X3.575Y-4.45
X3.625Y-2.425
X3.625Y-4.2
X4.025Y-2.775
X4.025Y-4.55
X4.8Y-2.675
X4.8Y-4.45
X5.1Y-2.975
X5.1Y-4.75
X5.35Y-2.75
X5.35Y-4.525
X5.525Y-2.675
X5.525Y-4.45
X5.575Y-2.425
X5.575Y-4.2
X5.975Y-2.775
X5.975Y-4.55
X6.185Y-3.875
X6.2041Y-3.8291
X6.2041Y-3.9209
X6.25Y-3.81
X6.25Y-3.94
X6.2959Y-3.8291
X6.2959Y-3.9209
X6.315Y-3.875
X5.335Y-3.65
X5.3541Y-3.6041
X5.3541Y-3.6959
X5.4Y-3.585
X5.4Y-3.715
X5.4459Y-3.6041
X5.4459Y-3.6959
X5.465Y-3.65
X2.535Y-2.1
X2.5541Y-2.0541
X2.5541Y-2.1459
X2.6Y-2.035
X2.6Y-2.165
X2.6459Y-2.0541
X2.6459Y-2.1459
X2.665Y-2.1
X4.235Y-3.875
X4.2541Y-3.8291
X4.2541Y-3.9209
X4.3Y-3.81
X4.3Y-3.94
X4.3459Y-3.8291
X4.3459Y-3.9209
X4.365Y-3.875
X6.185Y-2.1
X6.2041Y-2.0541
X6.2041Y-2.1459
X6.25Y-2.035
X6.25Y-2.165
X6.2959Y-2.0541
X6.2959Y-2.1459
X6.315Y-2.1
X2.535Y-3.875
X2.5541Y-3.8291
X2.5541Y-3.9209
X2.6Y-3.81
X2.6Y-3.94
X2.6459Y-3.8291
X2.6459Y-3.9209
X2.665Y-3.875
X4.485Y-3.875
X4.5041Y-3.8291
X4.5041Y-3.9209
X4.55Y-3.81
X4.55Y-3.94
X4.5959Y-3.8291
X4.5959Y-3.9209
X4.615Y-3.875
X4.485Y-2.1
X4.5041Y-2.0541
X4.5041Y-2.1459
X4.55Y-2.035
X4.55Y-2.165
X4.5959Y-2.0541
X4.5959Y-2.1459
X4.615Y-2.1
X4.235Y-2.1
X4.2541Y-2.0541
X4.2541Y-2.1459
X4.3Y-2.035
X4.3Y-2.165
X4.3459Y-2.0541
X4.3459Y-2.1459
X4.365Y-2.1
X3.385Y-5.425
X3.4041Y-5.3791
X3.4041Y-5.4709
X3.45Y-5.36
X3.45Y-5.49
X3.4959Y-5.3791
X3.4959Y-5.4709
X3.515Y-5.425
X5.335Y-5.425
X5.3541Y-5.3791
X5.3541Y-5.4709
X5.4Y-5.36
X5.4Y-5.49
X5.4459Y-5.3791
X5.4459Y-5.4709
X5.465Y-5.425
X3.385Y-3.65
X3.4041Y-3.6041
X3.4041Y-3.6959
X3.45Y-3.585
X3.45Y-3.715
X3.4959Y-3.6041
X3.4959Y-3.6959
X3.515Y-3.65
T3
X3.5004Y-2.13
X3.5004Y-2.23
X3.5004Y-2.33
X3.5004Y-2.43
X3.5004Y-2.53
X3.5004Y-2.63
X3.5004Y-2.73
X3.5004Y-2.83
X3.5004Y-2.93
X3.5004Y-3.03
X3.5004Y-3.13
X3.5004Y-3.23
X4.0997Y-2.13
X4.0997Y-2.23
X4.0997Y-2.33
X4.0997Y-2.43
X4.0997Y-2.53
X4.0997Y-2.63
X4.0997Y-2.73
X4.0997Y-2.83
X4.0997Y-2.93
X4.0997Y-3.03
X4.0997Y-3.13
X4.0997Y-3.23
X5.4504Y-2.13
X5.4504Y-2.23
X5.4504Y-2.33
X5.4504Y-2.43
X5.4504Y-2.53
X5.4504Y-2.63
X5.4504Y-2.73
X5.4504Y-2.83
X5.4504Y-2.93
X5.4504Y-3.03
X5.4504Y-3.13
X5.4504Y-3.23
X6.0497Y-2.13
X6.0497Y-2.23
X6.0497Y-2.33
X6.0497Y-2.43
X6.0497Y-2.53
X6.0497Y-2.63
X6.0497Y-2.73
X6.0497Y-2.83
X6.0497Y-2.93
X6.0497Y-3.03
X6.0497Y-3.13
X6.0497Y-3.23
X5.4504Y-3.905
X5.4504Y-4.005
X5.4504Y-4.105
X5.4504Y-4.205
X5.4504Y-4.305
X5.4504Y-4.405
X5.4504Y-4.505
X5.4504Y-4.605
X5.4504Y-4.705
X5.4504Y-4.805
X5.4504Y-4.905
X5.4504Y-5.005
X6.0497Y-3.905
X6.0497Y-4.005
X6.0497Y-4.105
X6.0497Y-4.205
X6.0497Y-4.305
X6.0497Y-4.405
X6.0497Y-4.505
X6.0497Y-4.605
X6.0497Y-4.705
X6.0497Y-4.805
X6.0497Y-4.905
X6.0497Y-5.005
X3.5004Y-3.905
X3.5004Y-4.005
X3.5004Y-4.105
X3.5004Y-4.205
X3.5004Y-4.305
X3.5004Y-4.405
X3.5004Y-4.505
X3.5004Y-4.605
X3.5004Y-4.705
X3.5004Y-4.805
X3.5004Y-4.905
X3.5004Y-5.005
X4.0997Y-3.905
X4.0997Y-4.005
X4.0997Y-4.105
X4.0997Y-4.205
X4.0997Y-4.305
X4.0997Y-4.405
X4.0997Y-4.505
X4.0997Y-4.605
X4.0997Y-4.705
X4.0997Y-4.805
X4.0997Y-4.905
X4.0997Y-5.005
T4
X6.275Y-3.3228
X6.275Y-3.5
X6.275Y-2.3228
X6.275Y-2.5
X4.525Y-2.325
X4.525Y-2.5022
X6.275Y-5.0978
X6.275Y-5.275
X2.575Y-2.325
X2.575Y-2.5022
X4.325Y-5.0978
X4.325Y-5.275
X6.275Y-4.0978
X6.275Y-4.275
X4.325Y-4.0978
X4.325Y-4.275
X2.9478Y-2.1
X3.125Y-2.1
X4.525Y-4.1
X4.525Y-4.2772
X4.525Y-5.1
X4.525Y-5.2772
X4.525Y-3.325
X4.525Y-3.5022
X2.575Y-4.1
X2.575Y-4.2772
X4.325Y-2.3228
X4.325Y-2.5
X4.8978Y-3.875
X5.075Y-3.875
X2.9478Y-3.875
X3.125Y-3.875
X4.8978Y-2.1
X5.075Y-2.1
X4.325Y-3.3228
X4.325Y-3.5
X2.575Y-3.325
X2.575Y-3.5022
X2.575Y-5.1
X2.575Y-5.2772
T5
X4.227Y-2.2732
X4.227Y-2.5492
X4.8482Y-3.973
X5.1242Y-3.973
X2.8982Y-3.973
X3.1742Y-3.973
X4.8482Y-2.198
X5.1242Y-2.198
X4.227Y-3.2732
X4.227Y-3.5492
X2.673Y-3.2758
X2.673Y-3.5518
X2.673Y-5.0508
X2.673Y-5.3268
X6.177Y-3.2732
X6.177Y-3.5492
X6.177Y-2.2732
X6.177Y-2.5492
X4.623Y-2.2758
X4.623Y-2.5518
X6.177Y-5.0482
X6.177Y-5.3242
X2.673Y-2.2758
X2.673Y-2.5518
X4.227Y-5.0482
X4.227Y-5.3242
X6.177Y-4.0482
X6.177Y-4.3242
X4.227Y-4.0482
X4.227Y-4.3242
X2.8982Y-2.198
X3.1742Y-2.198
X4.623Y-4.0508
X4.623Y-4.3268
X4.623Y-5.0508
X4.623Y-5.3268
X4.623Y-3.2758
X4.623Y-3.5518
X2.673Y-4.0508
X2.673Y-4.3268
T6
X5.4Y-3.65
X2.6Y-2.1
X4.3Y-3.875
X6.25Y-2.1
X2.6Y-3.875
X4.55Y-3.875
X4.55Y-2.1
X4.3Y-2.1
X3.45Y-5.425
X5.4Y-5.425
X3.45Y-3.65
X6.25Y-3.875
T7
X2.8335Y-4.35
X3.2665Y-4.35
X3.5835Y-5.1
X4.0165Y-5.1
X3.5835Y-4.35
X4.0165Y-4.35
X5.5335Y-4.35
X5.9665Y-4.35
X5.5335Y-3.325
X5.9665Y-3.325
X2.8335Y-2.575
X3.2665Y-2.575
X5.5335Y-2.575
X5.9665Y-2.575
X2.8335Y-3.325
X3.2665Y-3.325
X4.7835Y-4.35
X5.2165Y-4.35
X5.5335Y-5.1
X5.9665Y-5.1
X4.7835Y-3.325
X5.2165Y-3.325
X3.5835Y-3.325
X4.0165Y-3.325
X4.7835Y-5.1
X5.2165Y-5.1
X3.5835Y-2.575
X4.0165Y-2.575
X4.7835Y-2.575
X5.2165Y-2.575
X2.8335Y-5.1
X3.2665Y-5.1
T8
X3.05Y-4.35
X3.8Y-5.1
X3.8Y-4.35
X5.75Y-4.35
X5.75Y-3.325
X3.05Y-2.575
X5.75Y-2.575
X3.05Y-3.325
X5.0Y-4.35
X5.75Y-5.1
X5.0Y-3.325
X3.8Y-3.325
X5.0Y-5.1
X3.8Y-2.575
X5.0Y-2.575
X3.05Y-5.1
T2
G00X2.9579Y-2.775
M15
G01X2.9421Y-2.775
M16
G05
G00X3.2079Y-2.675
M15
G01X3.1921Y-2.675
M16
G05
G00X5.6579Y-2.775
M15
G01X5.6421Y-2.775
M16
G05
G00X5.9079Y-2.675
M15
G01X5.8921Y-2.675
M16
G05
G00X2.9579Y-3.525
M15
G01X2.9421Y-3.525
M16
G05
G00X3.2079Y-3.425
M15
G01X3.1921Y-3.425
M16
G05
G00X4.9079Y-4.55
M15
G01X4.8921Y-4.55
M16
G05
G00X5.1579Y-4.45
M15
G01X5.1421Y-4.45
M16
G05
G00X5.6579Y-5.3
M15
G01X5.6421Y-5.3
M16
G05
G00X5.9079Y-5.2
M15
G01X5.8921Y-5.2
M16
G05
G00X4.9079Y-3.525
M15
G01X4.8921Y-3.525
M16
G05
G00X5.1579Y-3.425
M15
G01X5.1421Y-3.425
M16
G05
G00X3.7079Y-3.525
M15
G01X3.6921Y-3.525
M16
G05
G00X3.9579Y-3.425
M15
G01X3.9421Y-3.425
M16
G05
G00X4.9079Y-5.3
M15
G01X4.8921Y-5.3
M16
G05
G00X5.1579Y-5.2
M15
G01X5.1421Y-5.2
M16
G05
G00X3.7079Y-2.775
M15
G01X3.6921Y-2.775
M16
G05
G00X3.9579Y-2.675
M15
G01X3.9421Y-2.675
M16
G05
G00X4.9079Y-2.775
M15
G01X4.8921Y-2.775
M16
G05
G00X5.1579Y-2.675
M15
G01X5.1421Y-2.675
M16
G05
G00X2.9579Y-5.3
M15
G01X2.9421Y-5.3
M16
G05
G00X3.2079Y-5.2
M15
G01X3.1921Y-5.2
M16
G05
G00X2.9579Y-4.55
M15
G01X2.9421Y-4.55
M16
G05
G00X3.2079Y-4.45
M15
G01X3.1921Y-4.45
M16
G05
G00X3.7079Y-5.3
M15
G01X3.6921Y-5.3
M16
G05
G00X3.9579Y-5.2
M15
G01X3.9421Y-5.2
M16
G05
G00X3.7079Y-4.55
M15
G01X3.6921Y-4.55
M16
G05
G00X3.9579Y-4.45
M15
G01X3.9421Y-4.45
M16
G05
G00X5.6579Y-4.55
M15
G01X5.6421Y-4.55
M16
G05
G00X5.9079Y-4.45
M15
G01X5.8921Y-4.45
M16
G05
G00X5.6579Y-3.525
M15
G01X5.6421Y-3.525
M16
G05
G00X5.9079Y-3.425
M15
G01X5.8921Y-3.425
M16
G05
T0
M30
